<svg width="175" height="49" viewBox="0 0 175 49" fill="none" xmlns="http://www.w3.org/2000/svg">
<g id="Group 3400">
<g id="Vector">
<path d="M44.6676 38.3517C44.6676 39.6423 44.236 41.1481 43.3189 42.8152C42.4558 44.5361 41.2689 45.9881 39.7045 47.1712C38.194 48.4081 36.4677 48.9997 34.5796 48.9997H10.8432C9.38666 48.9997 7.82222 48.5156 6.14988 47.6014C4.4236 46.6334 2.96705 45.5041 1.78023 44.1059C0.59341 42.7076 0 41.3632 0 40.1801V8.85176C0 8.0451 0.323678 7.0771 1.02498 6.05533C1.67234 5.03355 2.58942 4.06555 3.66835 3.15133C4.74728 2.23711 5.98804 1.48422 7.28276 0.892671C8.57747 0.301118 9.81823 0.0322266 11.0051 0.0322266H31.7744C34.148 0.0322266 36.3598 0.570006 38.3019 1.59178C40.2979 2.66733 41.8624 4.01178 42.9952 5.6251C44.1281 7.29221 44.6676 8.85176 44.6676 10.4651V38.3517ZM33.7704 34.5872V14.0682C33.7704 12.2935 33.1231 11.0566 31.8283 10.3575C30.5336 9.65843 29.0771 9.28198 27.5126 9.28198H16.5615C14.7813 9.28198 13.3247 9.92731 12.1379 11.0566C10.8972 12.1322 10.2498 13.3691 10.2498 14.7673V33.8343C10.2498 37.6525 11.9221 39.5348 15.051 39.5348H28.7534C29.8863 39.5348 30.8034 39.2659 31.5586 38.7281C32.3139 38.1903 32.8533 37.4912 33.2309 36.7383C33.6086 35.9854 33.7704 35.2863 33.7704 34.5872Z" fill="#0A2463"/>
<path d="M93.924 8.93733H48.5011V0.0640159H93.924V8.93733ZM91.1083 14.6915L62.9012 48.9997H49.1449L77.9993 14.6915H91.1083Z" fill="#0A2463"/>
</g>
<g id="Vector_2">
<path d="M126.869 5.97414H96.7971V0H126.869V5.97414ZM127.703 24.8922H96V19.2737L109.804 9.70798H122.051L108.319 18.7403H127.703V24.8922Z" fill="#FB3640"/>
<path d="M175 33H165.507L148.804 15.3976H139.348V24.8922H131.993V9.42349H154.928C155.399 9.42349 155.833 9.24569 156.304 8.92565C156.739 8.60561 156.957 8.14332 156.957 7.5388C156.957 7.11207 156.848 6.79203 156.63 6.50754C156.413 6.25862 156.123 6.08082 155.797 5.97414C155.435 5.8319 155.073 5.79634 154.674 5.79634H131.993V0H159.674C160.978 0 162.101 0.462285 163.007 1.35129C163.949 2.27586 164.42 3.37823 164.42 4.65841V10.8815C164.42 11.9838 164.203 12.8373 163.732 13.4418C163.261 14.0463 162.717 14.4731 162.101 14.6864C161.486 14.9353 160.761 15.0776 159.928 15.1843C159.094 15.2909 158.623 15.3621 158.478 15.3976L175 33Z" fill="#FB3640"/>
</g>
</g>
</svg>
