<svg width="41" height="48" viewBox="0 0 41 48" fill="none" xmlns="http://www.w3.org/2000/svg">
<g id="Dropdown">
<path d="M0.5 4C0.5 2.067 2.067 0.5 4 0.5H40.5V47.5H4C2.067 47.5 0.5 45.933 0.5 44V4Z" fill="#164FDA"/>
<path d="M0.5 4C0.5 2.067 2.067 0.5 4 0.5H40.5V47.5H4C2.067 47.5 0.5 45.933 0.5 44V4Z" stroke="white"/>
<g id="Group 1216402906">
<path id="Vector" d="M20.5011 5L20.9385 5.81484L21.8135 6.00297L21.212 6.69422L21.3115 7.625L20.5 7.23781L19.6885 7.625L19.788 6.69422L19.1865 6.00297L20.0615 5.81484L20.5011 5ZM29.6876 14.1503L30.1251 14.9652L31 15.1533L30.3985 15.8445L30.498 16.7753L29.6865 16.3881L28.8751 16.7753L28.9746 15.8445L28.3731 15.1533L29.248 14.9652L29.6876 14.1503ZM20.5011 23.375L20.9385 24.1898L21.8135 24.378L21.212 25.0692L21.3115 26L20.5 25.6128L19.6885 26L19.788 25.0692L19.1865 24.378L20.0615 24.1898L20.5011 23.375ZM24.8756 22.0625L25.3131 22.8773L26.188 23.0655L25.5865 23.7567L25.686 24.6875L24.8745 24.3003L24.0631 24.6875L24.1626 23.7567L23.5611 23.0655L24.436 22.8773L24.8756 22.0625ZM24.8756 6.3125L25.3131 7.12734L26.188 7.31547L25.5865 8.00672L25.686 8.9375L24.8745 8.55031L24.0631 8.9375L24.1626 8.00672L23.5611 7.31547L24.436 7.12734L24.8756 6.3125ZM28.3753 18.5625L28.8127 19.3773L29.6876 19.5655L29.0861 20.2567L29.1857 21.1875L28.3742 20.8003L27.5627 21.1875L27.6622 20.2567L27.0607 19.5655L27.9356 19.3773L28.3753 18.5625ZM28.3753 9.8125L28.8127 10.6273L29.6876 10.8155L29.0861 11.5067L29.1857 12.4375L28.3742 12.0503L27.5627 12.4375L27.6622 11.5067L27.0607 10.8155L27.9356 10.6273L28.3753 9.8125ZM16.1265 22.0625L16.564 22.8773L17.4389 23.0655L16.8374 23.7567L16.9369 24.6875L16.1255 24.3003L15.314 24.6875L15.4135 23.7567L14.812 23.0655L15.6869 22.8773L16.1265 22.0625ZM16.1265 6.3125L16.564 7.12734L17.4389 7.31547L16.8374 8.00672L16.9369 8.9375L16.1255 8.55031L15.314 8.9375L15.4135 8.00672L14.812 7.31547L15.6869 7.12734L16.1265 6.3125ZM12.6269 18.5625L13.0644 19.3773L13.9393 19.5655L13.3378 20.2567L13.4373 21.1875L12.6258 20.8003L11.8143 21.1875L11.9139 20.2567L11.3124 19.5655L12.1873 19.3773L12.6269 18.5625ZM12.6269 9.8125L13.0644 10.6273L13.9393 10.8155L13.3378 11.5067L13.4373 12.4375L12.6258 12.0503L11.8143 12.4375L11.9139 11.5067L11.3124 10.8155L12.1873 10.6273L12.6269 9.8125ZM11.3146 14.1503L11.752 14.9652L12.6269 15.1533L12.0254 15.8445L12.1249 16.7753L11.3135 16.3881L10.502 16.7753L10.6015 15.8445L10 15.1533L10.8749 14.9652L11.3146 14.1503Z" fill="#FEE102"/>
<path id="Vector_2" d="M20.1827 42H18V31H24V32.9112H20.1811V35.7472H23.7333V37.6533H20.1811L20.1827 42Z" fill="white"/>
</g>
</g>
</svg>
