<svg width="184" height="54" viewBox="0 0 184 54" fill="none" xmlns="http://www.w3.org/2000/svg">
<g id="Group 3395">
<g id="Vector">
<path d="M48.3208 41.4881C48.3208 42.8843 47.8539 44.5133 46.8618 46.3167C45.9281 48.1784 44.6442 49.7491 42.9518 51.029C41.3178 52.367 39.4503 53.007 37.4078 53.007H11.73C10.1544 53.007 8.46198 52.4834 6.65286 51.4944C4.78539 50.4472 3.20972 49.2255 1.92583 47.7129C0.641943 46.2004 0 44.746 0 43.4661V9.57553C0 8.70289 0.350151 7.65572 1.10881 6.55038C1.80911 5.44504 2.80121 4.39787 3.96837 3.40888C5.13554 2.41988 6.47779 1.60542 7.87839 0.965485C9.27899 0.325551 10.6212 0.034668 11.9051 0.034668H34.3731C36.9409 0.034668 39.3336 0.61643 41.4345 1.72177C43.5938 2.88529 45.2862 4.33969 46.5117 6.08497C47.7372 7.88843 48.3208 9.57553 48.3208 11.3208V41.4881ZM36.5324 37.4158V15.2186C36.5324 13.2988 35.8321 11.9607 34.4315 11.2045C33.0309 10.4482 31.4552 10.0409 29.7628 10.0409H17.916C15.9902 10.0409 14.4145 10.739 13.1307 11.9607C11.7884 13.1243 11.0881 14.4623 11.0881 15.9749V36.6013C11.0881 40.7318 12.8972 42.768 16.282 42.768H31.1051C32.3306 42.768 33.3227 42.4771 34.1397 41.8954C34.9567 41.3136 35.5403 40.5573 35.9488 39.7428C36.3573 38.9284 36.5324 38.1721 36.5324 37.4158Z" fill="white"/>
<path d="M101.606 9.66809H52.4679V0.0690573H101.606V9.66809ZM98.5598 15.8929L68.0457 53.007H53.1643L84.3787 15.8929H98.5598Z" fill="white"/>
</g>
<g id="Vector_2">
<path d="M137.359 6.46275H104.827V0H137.359V6.46275ZM138.26 26.9281H103.964V20.85L118.898 10.502H132.146L117.291 20.273H138.26V26.9281Z" fill="#FB3640"/>
<path d="M179.47 26.9281H169.201L161.087 16.657H150.858V26.9281H142.901V10.1942H167.711C168.221 10.1942 168.691 10.0019 169.201 9.65565C169.671 9.30943 169.906 8.80934 169.906 8.15537C169.906 7.69375 169.789 7.34753 169.554 7.03978C169.318 6.7705 169.005 6.57815 168.652 6.46275C168.26 6.30887 167.868 6.2704 167.437 6.2704H142.901V0H172.846C174.257 0 175.472 0.500094 176.452 1.46181C177.471 2.462 177.981 3.65453 177.981 5.0394V11.7714C177.981 12.964 177.745 13.8872 177.236 14.5412C176.726 15.1951 176.138 15.6568 175.472 15.8876C174.806 16.1569 174.022 16.3107 173.12 16.4261C172.219 16.5416 171.709 16.6185 171.553 16.657L179.47 26.9281Z" fill="#FB3640"/>
</g>
<g id="POUR LES PROS DE L&#39;AUTO">
<path id="Vector_3" d="M180.013 54.0001C179.449 54.0001 178.924 53.8973 178.437 53.6917C177.949 53.4785 177.523 53.1854 177.157 52.8123C176.792 52.4316 176.506 51.9938 176.301 51.4988C176.103 51.0039 176.004 50.4747 176.004 49.9112C176.004 49.3402 176.103 48.811 176.301 48.3237C176.506 47.8287 176.788 47.3947 177.146 47.0216C177.512 46.6485 177.934 46.3592 178.414 46.1536C178.901 45.948 179.427 45.8452 179.99 45.8452C180.553 45.8452 181.075 45.948 181.555 46.1536C182.042 46.3592 182.468 46.6485 182.834 47.0216C183.199 47.3947 183.485 47.8287 183.691 48.3237C183.896 48.8186 183.999 49.3516 183.999 49.9227C183.999 50.4861 183.896 51.0153 183.691 51.5103C183.485 52.0052 183.199 52.4392 182.834 52.8123C182.476 53.1854 182.053 53.4785 181.566 53.6917C181.086 53.8973 180.569 54.0001 180.013 54.0001ZM179.99 52.9722C180.561 52.9722 181.06 52.8428 181.486 52.5839C181.92 52.3174 182.263 51.9557 182.514 51.4988C182.765 51.0344 182.891 50.5052 182.891 49.9112C182.891 49.4696 182.819 49.0661 182.674 48.7006C182.529 48.3275 182.328 48.0039 182.069 47.7298C181.81 47.4556 181.505 47.2462 181.155 47.1016C180.805 46.9493 180.416 46.8731 179.99 46.8731C179.427 46.8731 178.928 47.0026 178.494 47.2615C178.067 47.5204 177.729 47.8782 177.477 48.3351C177.234 48.7919 177.112 49.3173 177.112 49.9112C177.112 50.3529 177.18 50.764 177.317 51.1448C177.462 51.5179 177.66 51.8415 177.911 52.1156C178.17 52.3821 178.475 52.5915 178.825 52.7438C179.183 52.8961 179.571 52.9722 179.99 52.9722Z" fill="white"/>
<path id="Vector_4" d="M168.635 53.886V46.1879H169.708V53.886H168.635ZM165.939 46.9417V45.9595H172.392V46.9417H165.939Z" fill="white"/>
<path id="Vector_5" d="M158.506 54.0002C157.919 54.0002 157.394 53.8707 156.929 53.6118C156.473 53.3453 156.111 52.9837 155.844 52.5268C155.578 52.0623 155.445 51.5369 155.445 50.9506V45.9595H156.518V50.9278C156.518 51.3466 156.606 51.7083 156.781 52.0128C156.956 52.3174 157.192 52.5535 157.489 52.721C157.794 52.8885 158.132 52.9722 158.506 52.9722C158.894 52.9722 159.233 52.8885 159.522 52.721C159.819 52.5535 160.051 52.3174 160.219 52.0128C160.394 51.7083 160.481 51.3504 160.481 50.9392V45.9595H161.566V50.9621C161.566 51.5484 161.433 52.0699 161.167 52.5268C160.9 52.9837 160.539 53.3453 160.082 53.6118C159.625 53.8707 159.099 54.0002 158.506 54.0002Z" fill="white"/>
<path id="Vector_6" d="M143.867 53.886L147.111 45.9595H147.888L151.12 53.886H149.955L147.294 47.1816H147.693L145.009 53.886H143.867ZM145.409 52.0928V51.1562H149.578V52.0928H145.409Z" fill="white"/>
<path id="Vector_7" d="M139.935 48.5178L139.695 45.731H140.826L140.586 48.5178H139.935Z" fill="white"/>
<path id="Vector_8" d="M131.233 53.886V45.9595H132.307V53.886H131.233ZM131.964 53.886V52.9037H136.213V53.886H131.964Z" fill="white"/>
<path id="Vector_9" d="M115.496 53.886V45.9595H116.57V53.886H115.496ZM116.227 53.886V52.9037H120.773V53.886H116.227ZM116.227 50.2996V49.3631H120.396V50.2996H116.227ZM116.227 46.9417V45.9595H120.716V46.9417H116.227Z" fill="white"/>
<path id="Vector_10" d="M104.438 53.886V52.9037H106.642C107.228 52.9037 107.742 52.7781 108.184 52.5268C108.625 52.2679 108.968 51.9139 109.212 51.4646C109.463 51.0154 109.589 50.4976 109.589 49.9113C109.589 49.3326 109.463 48.8186 109.212 48.3694C108.961 47.9202 108.614 47.5699 108.172 47.3186C107.731 47.0674 107.221 46.9417 106.642 46.9417H104.449V45.9595H106.665C107.243 45.9595 107.776 46.0585 108.264 46.2564C108.759 46.4544 109.185 46.7323 109.543 47.0902C109.908 47.4481 110.19 47.8669 110.388 48.3466C110.594 48.8263 110.697 49.3516 110.697 49.9227C110.697 50.4862 110.594 51.0116 110.388 51.4989C110.19 51.9786 109.912 52.3974 109.554 52.7552C109.197 53.1131 108.77 53.391 108.275 53.589C107.788 53.787 107.259 53.886 106.688 53.886H104.438ZM103.729 53.886V45.9595H104.803V53.886H103.729Z" fill="white"/>
<path id="Vector_11" d="M180.7 41.1144C180.076 41.1144 179.543 41.0002 179.101 40.7717C178.66 40.5433 178.267 40.2121 177.925 39.7781L178.656 39.0471C178.907 39.3974 179.196 39.6639 179.524 39.8466C179.851 40.0217 180.255 40.1093 180.734 40.1093C181.207 40.1093 181.583 40.0065 181.865 39.8009C182.155 39.5953 182.299 39.3136 182.299 38.9557C182.299 38.6588 182.231 38.4189 182.094 38.2362C181.957 38.0534 181.77 37.905 181.534 37.7907C181.306 37.6689 181.054 37.5623 180.78 37.4709C180.506 37.372 180.232 37.2692 179.958 37.1626C179.684 37.0483 179.432 36.9113 179.204 36.7514C178.976 36.5839 178.789 36.3669 178.644 36.1004C178.507 35.8339 178.439 35.4988 178.439 35.0953C178.439 34.646 178.545 34.2653 178.759 33.9531C178.979 33.6333 179.276 33.3897 179.649 33.2222C180.03 33.047 180.457 32.9595 180.929 32.9595C181.446 32.9595 181.911 33.0623 182.322 33.2679C182.733 33.4658 183.068 33.7285 183.327 34.0559L182.596 34.7869C182.36 34.5128 182.105 34.3072 181.831 34.1701C181.564 34.0331 181.256 33.9646 180.906 33.9646C180.479 33.9646 180.141 34.0597 179.889 34.2501C179.638 34.4328 179.512 34.6917 179.512 35.0268C179.512 35.2933 179.581 35.5103 179.718 35.6778C179.863 35.8377 180.049 35.9747 180.278 36.0889C180.506 36.2032 180.757 36.3098 181.031 36.4087C181.313 36.5001 181.591 36.6029 181.865 36.7171C182.139 36.8313 182.391 36.976 182.619 37.1511C182.847 37.3263 183.03 37.5547 183.167 37.8364C183.312 38.1105 183.384 38.457 183.384 38.8758C183.384 39.5763 183.141 40.1245 182.653 40.5205C182.174 40.9164 181.523 41.1144 180.7 41.1144Z" fill="white"/>
<path id="Vector_12" d="M173.488 41.1144C172.925 41.1144 172.4 41.0116 171.912 40.806C171.425 40.5928 170.999 40.2997 170.633 39.9266C170.268 39.5458 169.982 39.108 169.776 38.6131C169.578 38.1182 169.479 37.589 169.479 37.0255C169.479 36.4544 169.578 35.9252 169.776 35.4379C169.982 34.943 170.264 34.509 170.622 34.1359C170.987 33.7628 171.41 33.4734 171.889 33.2679C172.377 33.0623 172.902 32.9595 173.466 32.9595C174.029 32.9595 174.551 33.0623 175.03 33.2679C175.518 33.4734 175.944 33.7628 176.31 34.1359C176.675 34.509 176.961 34.943 177.166 35.4379C177.372 35.9329 177.475 36.4659 177.475 37.0369C177.475 37.6004 177.372 38.1296 177.166 38.6245C176.961 39.1194 176.675 39.5535 176.31 39.9266C175.952 40.2997 175.529 40.5928 175.042 40.806C174.562 41.0116 174.044 41.1144 173.488 41.1144ZM173.466 40.0865C174.037 40.0865 174.535 39.957 174.962 39.6981C175.396 39.4316 175.738 39.0699 175.99 38.6131C176.241 38.1486 176.367 37.6194 176.367 37.0255C176.367 36.5839 176.294 36.1803 176.15 35.8148C176.005 35.4417 175.803 35.1181 175.544 34.844C175.285 34.5699 174.981 34.3605 174.631 34.2158C174.28 34.0635 173.892 33.9874 173.466 33.9874C172.902 33.9874 172.403 34.1168 171.969 34.3757C171.543 34.6346 171.204 34.9925 170.953 35.4493C170.709 35.9062 170.587 36.4316 170.587 37.0255C170.587 37.4671 170.656 37.8783 170.793 38.259C170.938 38.6321 171.136 38.9557 171.387 39.2298C171.646 39.4963 171.95 39.7057 172.301 39.858C172.658 40.0103 173.047 40.0865 173.466 40.0865Z" fill="white"/>
<path id="Vector_13" d="M163.912 37.5509V36.6486H166.059C166.524 36.6486 166.882 36.5306 167.133 36.2946C167.384 36.0585 167.51 35.7387 167.51 35.3352C167.51 34.9545 167.384 34.6385 167.133 34.3872C166.889 34.1359 166.535 34.0103 166.071 34.0103H163.912V33.0737H166.105C166.607 33.0737 167.045 33.1727 167.418 33.3707C167.791 33.561 168.077 33.8237 168.275 34.1588C168.481 34.4938 168.583 34.8783 168.583 35.3123C168.583 35.7616 168.481 36.1537 168.275 36.4887C168.077 36.8238 167.791 37.0865 167.418 37.2768C167.045 37.4596 166.607 37.5509 166.105 37.5509H163.912ZM163.192 41.0002V33.0737H164.266V41.0002H163.192ZM167.761 41.0002L164.883 37.4481L165.899 37.0941L169.12 41.0002H167.761Z" fill="white"/>
<path id="Vector_14" d="M157.303 37.9164V36.9799H159.462C159.759 36.9799 160.021 36.9189 160.25 36.7971C160.486 36.6753 160.669 36.504 160.798 36.2832C160.935 36.0623 161.004 35.7996 161.004 35.4951C161.004 35.1905 160.935 34.9278 160.798 34.707C160.669 34.4862 160.486 34.3149 160.25 34.193C160.021 34.0712 159.759 34.0103 159.462 34.0103H157.303V33.0737H159.53C160.018 33.0737 160.452 33.1727 160.832 33.3707C161.221 33.5687 161.525 33.8504 161.746 34.2159C161.974 34.5737 162.089 35.0001 162.089 35.4951C162.089 35.9824 161.974 36.4088 161.746 36.7743C161.525 37.1321 161.221 37.4139 160.832 37.6195C160.452 37.8174 160.018 37.9164 159.53 37.9164H157.303ZM156.583 41.0002V33.0737H157.657V41.0002H156.583Z" fill="white"/>
<path id="Vector_15" d="M150.534 41.1144C149.909 41.1144 149.376 41.0002 148.935 40.7717C148.493 40.5433 148.101 40.2121 147.758 39.7781L148.489 39.0471C148.741 39.3974 149.03 39.6639 149.357 39.8466C149.685 40.0217 150.088 40.1093 150.568 40.1093C151.04 40.1093 151.417 40.0065 151.699 39.8009C151.988 39.5953 152.133 39.3136 152.133 38.9557C152.133 38.6588 152.064 38.4189 151.927 38.2362C151.79 38.0534 151.604 37.905 151.367 37.7907C151.139 37.6689 150.888 37.5623 150.614 37.4709C150.34 37.372 150.065 37.2692 149.791 37.1626C149.517 37.0483 149.266 36.9113 149.038 36.7514C148.809 36.5839 148.623 36.3669 148.478 36.1004C148.341 35.8339 148.272 35.4988 148.272 35.0953C148.272 34.646 148.379 34.2653 148.592 33.9531C148.813 33.6333 149.11 33.3897 149.483 33.2222C149.864 33.047 150.29 32.9595 150.762 32.9595C151.28 32.9595 151.744 33.0623 152.156 33.2679C152.567 33.4658 152.902 33.7285 153.161 34.0559L152.43 34.7869C152.194 34.5128 151.939 34.3072 151.664 34.1701C151.398 34.0331 151.09 33.9646 150.739 33.9646C150.313 33.9646 149.974 34.0597 149.723 34.2501C149.472 34.4328 149.346 34.6917 149.346 35.0268C149.346 35.2933 149.414 35.5103 149.551 35.6778C149.696 35.8377 149.883 35.9747 150.111 36.0889C150.34 36.2032 150.591 36.3098 150.865 36.4087C151.147 36.5001 151.425 36.6029 151.699 36.7171C151.973 36.8313 152.224 36.976 152.453 37.1511C152.681 37.3263 152.864 37.5547 153.001 37.8364C153.145 38.1105 153.218 38.457 153.218 38.8758C153.218 39.5763 152.974 40.1245 152.487 40.5205C152.007 40.9164 151.356 41.1144 150.534 41.1144Z" fill="white"/>
<path id="Vector_16" d="M142.022 41.0002V33.0737H143.095V41.0002H142.022ZM142.753 41.0002V40.018H147.298V41.0002H142.753ZM142.753 37.4139V36.4773H146.922V37.4139H142.753ZM142.753 34.056V33.0737H147.241V34.056H142.753Z" fill="white"/>
<path id="Vector_17" d="M135.948 41.0002V33.0737H137.022V41.0002H135.948ZM136.679 41.0002V40.018H140.928V41.0002H136.679Z" fill="white"/>
<path id="Vector_18" d="M127.555 37.5509V36.6486H129.702C130.166 36.6486 130.524 36.5306 130.776 36.2946C131.027 36.0585 131.153 35.7387 131.153 35.3352C131.153 34.9545 131.027 34.6385 130.776 34.3872C130.532 34.1359 130.178 34.0103 129.713 34.0103H127.555V33.0737H129.748C130.25 33.0737 130.688 33.1727 131.061 33.3707C131.434 33.561 131.72 33.8237 131.918 34.1588C132.123 34.4938 132.226 34.8783 132.226 35.3123C132.226 35.7616 132.123 36.1537 131.918 36.4887C131.72 36.8238 131.434 37.0865 131.061 37.2768C130.688 37.4596 130.25 37.5509 129.748 37.5509H127.555ZM126.835 41.0002V33.0737H127.909V41.0002H126.835ZM131.404 41.0002L128.526 37.4481L129.542 37.0941L132.763 41.0002H131.404Z" fill="white"/>
<path id="Vector_19" d="M122.237 41.1144C121.65 41.1144 121.125 40.985 120.661 40.7261C120.204 40.4596 119.842 40.0979 119.576 39.6411C119.309 39.1766 119.176 38.6512 119.176 38.0649V33.0737H120.249V38.0421C120.249 38.4608 120.337 38.8225 120.512 39.1271C120.687 39.4317 120.923 39.6677 121.22 39.8352C121.525 40.0027 121.864 40.0865 122.237 40.0865C122.625 40.0865 122.964 40.0027 123.253 39.8352C123.55 39.6677 123.782 39.4317 123.95 39.1271C124.125 38.8225 124.213 38.4647 124.213 38.0535V33.0737H125.298V38.0763C125.298 38.6626 125.164 39.1842 124.898 39.6411C124.631 40.0979 124.27 40.4596 123.813 40.7261C123.356 40.985 122.831 41.1144 122.237 41.1144Z" fill="white"/>
<path id="Vector_20" d="M114.037 41.1144C113.473 41.1144 112.948 41.0116 112.461 40.806C111.973 40.5928 111.547 40.2997 111.181 39.9266C110.816 39.5458 110.53 39.108 110.325 38.6131C110.127 38.1182 110.028 37.589 110.028 37.0255C110.028 36.4544 110.127 35.9252 110.325 35.4379C110.53 34.943 110.812 34.509 111.17 34.1359C111.535 33.7628 111.958 33.4734 112.438 33.2679C112.925 33.0623 113.45 32.9595 114.014 32.9595C114.577 32.9595 115.099 33.0623 115.579 33.2679C116.066 33.4734 116.492 33.7628 116.858 34.1359C117.223 34.509 117.509 34.943 117.714 35.4379C117.92 35.9329 118.023 36.4659 118.023 37.0369C118.023 37.6004 117.92 38.1296 117.714 38.6245C117.509 39.1194 117.223 39.5535 116.858 39.9266C116.5 40.2997 116.077 40.5928 115.59 40.806C115.11 41.0116 114.593 41.1144 114.037 41.1144ZM114.014 40.0865C114.585 40.0865 115.084 39.957 115.51 39.6981C115.944 39.4316 116.287 39.0699 116.538 38.6131C116.789 38.1486 116.915 37.6194 116.915 37.0255C116.915 36.5839 116.843 36.1803 116.698 35.8148C116.553 35.4417 116.352 35.1181 116.093 34.844C115.834 34.5699 115.529 34.3605 115.179 34.2158C114.829 34.0635 114.44 33.9874 114.014 33.9874C113.45 33.9874 112.952 34.1168 112.518 34.3757C112.091 34.6346 111.752 34.9925 111.501 35.4493C111.258 35.9062 111.136 36.4316 111.136 37.0255C111.136 37.4671 111.204 37.8783 111.341 38.259C111.486 38.6321 111.684 38.9557 111.935 39.2298C112.194 39.4963 112.499 39.7057 112.849 39.858C113.207 40.0103 113.595 40.0865 114.014 40.0865Z" fill="white"/>
<path id="Vector_21" d="M104.449 37.9164V36.9799H106.608C106.905 36.9799 107.167 36.9189 107.396 36.7971C107.632 36.6753 107.815 36.504 107.944 36.2832C108.081 36.0623 108.15 35.7996 108.15 35.4951C108.15 35.1905 108.081 34.9278 107.944 34.707C107.815 34.4862 107.632 34.3149 107.396 34.193C107.167 34.0712 106.905 34.0103 106.608 34.0103H104.449V33.0737H106.676C107.164 33.0737 107.598 33.1727 107.978 33.3707C108.367 33.5687 108.671 33.8504 108.892 34.2159C109.12 34.5737 109.235 35.0001 109.235 35.4951C109.235 35.9824 109.12 36.4088 108.892 36.7743C108.671 37.1321 108.367 37.4139 107.978 37.6195C107.598 37.8174 107.164 37.9164 106.676 37.9164H104.449ZM103.729 41.0002V33.0737H104.803V41.0002H103.729Z" fill="white"/>
</g>
</g>
</svg>
