<svg width="614" height="185" viewBox="0 0 614 185" fill="none" xmlns="http://www.w3.org/2000/svg">
<path d="M356.655 129.47V126.272H364.026C365.04 126.272 365.937 126.064 366.717 125.648C367.523 125.232 368.147 124.647 368.589 123.893C369.057 123.139 369.291 122.242 369.291 121.202C369.291 120.162 369.057 119.265 368.589 118.511C368.147 117.757 367.523 117.172 366.717 116.756C365.937 116.34 365.04 116.132 364.026 116.132H356.655V112.934H364.26C365.924 112.934 367.406 113.272 368.706 113.948C370.032 114.624 371.072 115.586 371.826 116.834C372.606 118.056 372.996 119.512 372.996 121.202C372.996 122.866 372.606 124.322 371.826 125.57C371.072 126.792 370.032 127.754 368.706 128.456C367.406 129.132 365.924 129.47 364.26 129.47H356.655ZM354.198 140V112.934H357.864V140H354.198ZM381.055 140V112.934H384.721V140H381.055ZM383.551 140V136.646H399.073V140H383.551ZM383.551 127.754V124.556H397.786V127.754H383.551ZM383.551 116.288V112.934H398.878V116.288H383.551ZM410.026 128.222V125.141H417.358C418.944 125.141 420.166 124.738 421.024 123.932C421.882 123.126 422.311 122.034 422.311 120.656C422.311 119.356 421.882 118.277 421.024 117.419C420.192 116.561 418.983 116.132 417.397 116.132H410.026V112.934H417.514C419.23 112.934 420.725 113.272 421.999 113.948C423.273 114.598 424.248 115.495 424.924 116.639C425.626 117.783 425.977 119.096 425.977 120.578C425.977 122.112 425.626 123.451 424.924 124.595C424.248 125.739 423.273 126.636 421.999 127.286C420.725 127.91 419.23 128.222 417.514 128.222H410.026ZM407.569 140V112.934H411.235V140H407.569ZM423.169 140L413.341 127.871L416.812 126.662L427.81 140H423.169ZM459.512 140.39C457.614 140.39 455.833 140.039 454.169 139.337C452.531 138.609 451.088 137.608 449.84 136.334C448.618 135.06 447.656 133.578 446.954 131.888C446.252 130.198 445.901 128.378 445.901 126.428C445.901 124.478 446.252 122.671 446.954 121.007C447.656 119.317 448.631 117.835 449.879 116.561C451.127 115.287 452.583 114.299 454.247 113.597C455.937 112.895 457.77 112.544 459.746 112.544C461.904 112.544 463.893 112.96 465.713 113.792C467.533 114.624 469.054 115.82 470.276 117.38L467.741 119.915C466.883 118.667 465.752 117.718 464.348 117.068C462.944 116.392 461.41 116.054 459.746 116.054C457.77 116.054 456.015 116.496 454.481 117.38C452.973 118.264 451.79 119.486 450.932 121.046C450.1 122.606 449.684 124.4 449.684 126.428C449.684 128.482 450.113 130.289 450.971 131.849C451.829 133.409 452.986 134.631 454.442 135.515C455.898 136.399 457.562 136.841 459.434 136.841C461.332 136.841 462.97 136.477 464.348 135.749C465.752 135.021 466.831 133.955 467.585 132.551C468.339 131.121 468.716 129.379 468.716 127.325L470.939 128.924H459.239V125.57H472.499V126.116C472.499 129.262 471.94 131.901 470.822 134.033C469.73 136.139 468.196 137.725 466.22 138.791C464.27 139.857 462.034 140.39 459.512 140.39ZM480.94 140V112.934H484.606V140H480.94ZM483.436 140V136.646H497.944V140H483.436ZM505.969 140V112.934H509.635V140H505.969ZM533.613 129.47V126.272H540.984C541.998 126.272 542.895 126.064 543.675 125.648C544.481 125.232 545.105 124.647 545.547 123.893C546.015 123.139 546.249 122.242 546.249 121.202C546.249 120.162 546.015 119.265 545.547 118.511C545.105 117.757 544.481 117.172 543.675 116.756C542.895 116.34 541.998 116.132 540.984 116.132H533.613V112.934H541.218C542.882 112.934 544.364 113.272 545.664 113.948C546.99 114.624 548.03 115.586 548.784 116.834C549.564 118.056 549.954 119.512 549.954 121.202C549.954 122.866 549.564 124.322 548.784 125.57C548.03 126.792 546.99 127.754 545.664 128.456C544.364 129.132 542.882 129.47 541.218 129.47H533.613ZM531.156 140V112.934H534.822V140H531.156ZM560.47 128.222V125.141H567.802C569.388 125.141 570.61 124.738 571.468 123.932C572.326 123.126 572.755 122.034 572.755 120.656C572.755 119.356 572.326 118.277 571.468 117.419C570.636 116.561 569.427 116.132 567.841 116.132H560.47V112.934H567.958C569.674 112.934 571.169 113.272 572.443 113.948C573.717 114.598 574.692 115.495 575.368 116.639C576.07 117.783 576.421 119.096 576.421 120.578C576.421 122.112 576.07 123.451 575.368 124.595C574.692 125.739 573.717 126.636 572.443 127.286C571.169 127.91 569.674 128.222 567.958 128.222H560.47ZM558.013 140V112.934H561.679V140H558.013ZM573.613 140L563.785 127.871L567.256 126.662L578.254 140H573.613ZM597.46 140.39C595.536 140.39 593.742 140.039 592.078 139.337C590.414 138.609 588.958 137.608 587.71 136.334C586.462 135.034 585.487 133.539 584.785 131.849C584.109 130.159 583.771 128.352 583.771 126.428C583.771 124.478 584.109 122.671 584.785 121.007C585.487 119.317 586.449 117.835 587.671 116.561C588.919 115.287 590.362 114.299 592 113.597C593.664 112.895 595.458 112.544 597.382 112.544C599.306 112.544 601.087 112.895 602.725 113.597C604.389 114.299 605.845 115.287 607.093 116.561C608.341 117.835 609.316 119.317 610.018 121.007C610.72 122.697 611.071 124.517 611.071 126.467C611.071 128.391 610.72 130.198 610.018 131.888C609.316 133.578 608.341 135.06 607.093 136.334C605.871 137.608 604.428 138.609 602.764 139.337C601.126 140.039 599.358 140.39 597.46 140.39ZM597.382 136.88C599.332 136.88 601.035 136.438 602.491 135.554C603.973 134.644 605.143 133.409 606.001 131.849C606.859 130.263 607.288 128.456 607.288 126.428C607.288 124.92 607.041 123.542 606.547 122.294C606.053 121.02 605.364 119.915 604.48 118.979C603.596 118.043 602.556 117.328 601.36 116.834C600.164 116.314 598.838 116.054 597.382 116.054C595.458 116.054 593.755 116.496 592.273 117.38C590.817 118.264 589.66 119.486 588.802 121.046C587.97 122.606 587.554 124.4 587.554 126.428C587.554 127.936 587.788 129.34 588.256 130.64C588.75 131.914 589.426 133.019 590.284 133.955C591.168 134.865 592.208 135.58 593.404 136.1C594.626 136.62 595.952 136.88 597.382 136.88ZM356.616 184V180.646H364.143C366.145 180.646 367.9 180.217 369.408 179.359C370.916 178.475 372.086 177.266 372.918 175.732C373.776 174.198 374.205 172.43 374.205 170.428C374.205 168.452 373.776 166.697 372.918 165.163C372.06 163.629 370.877 162.433 369.369 161.575C367.861 160.717 366.119 160.288 364.143 160.288H356.655V156.934H364.221C366.197 156.934 368.017 157.272 369.681 157.948C371.371 158.624 372.827 159.573 374.049 160.795C375.297 162.017 376.259 163.447 376.935 165.085C377.637 166.723 377.988 168.517 377.988 170.467C377.988 172.391 377.637 174.185 376.935 175.849C376.259 177.487 375.31 178.917 374.088 180.139C372.866 181.361 371.41 182.31 369.72 182.986C368.056 183.662 366.249 184 364.299 184H356.616ZM354.198 184V156.934H357.864V184H354.198ZM388.527 184V156.934H392.193V184H388.527ZM391.023 184V180.646H406.545V184H391.023ZM391.023 171.754V168.556H405.258V171.754H391.023ZM391.023 160.288V156.934H406.35V160.288H391.023ZM416.991 184V156.934H420.657V184H416.991ZM419.487 184V180.646H433.995V184H419.487ZM443.97 184V156.934H447.636V184H443.97ZM446.466 184V180.646H460.974V184H446.466ZM484.528 165.67L483.709 156.154H487.57L486.751 165.67H484.528ZM492.105 184L503.181 156.934H505.833L516.87 184H512.892L503.805 161.107H505.17L496.005 184H492.105ZM497.37 177.877V174.679H511.605V177.877H497.37ZM536.24 184.39C534.238 184.39 532.444 183.948 530.858 183.064C529.298 182.154 528.063 180.919 527.153 179.359C526.243 177.773 525.788 175.979 525.788 173.977V156.934H529.454V173.899C529.454 175.329 529.753 176.564 530.351 177.604C530.949 178.644 531.755 179.45 532.769 180.022C533.809 180.594 534.966 180.88 536.24 180.88C537.566 180.88 538.723 180.594 539.711 180.022C540.725 179.45 541.518 178.644 542.09 177.604C542.688 176.564 542.987 175.342 542.987 173.938V156.934H546.692V174.016C546.692 176.018 546.237 177.799 545.327 179.359C544.417 180.919 543.182 182.154 541.622 183.064C540.062 183.948 538.268 184.39 536.24 184.39ZM564.977 184V157.714H568.643V184H564.977ZM555.773 160.288V156.934H577.808V160.288H555.773ZM597.979 184.39C596.055 184.39 594.261 184.039 592.597 183.337C590.933 182.609 589.477 181.608 588.229 180.334C586.981 179.034 586.006 177.539 585.304 175.849C584.628 174.159 584.29 172.352 584.29 170.428C584.29 168.478 584.628 166.671 585.304 165.007C586.006 163.317 586.968 161.835 588.19 160.561C589.438 159.287 590.881 158.299 592.519 157.597C594.183 156.895 595.977 156.544 597.901 156.544C599.825 156.544 601.606 156.895 603.244 157.597C604.908 158.299 606.364 159.287 607.612 160.561C608.86 161.835 609.835 163.317 610.537 165.007C611.239 166.697 611.59 168.517 611.59 170.467C611.59 172.391 611.239 174.198 610.537 175.888C609.835 177.578 608.86 179.06 607.612 180.334C606.39 181.608 604.947 182.609 603.283 183.337C601.645 184.039 599.877 184.39 597.979 184.39ZM597.901 180.88C599.851 180.88 601.554 180.438 603.01 179.554C604.492 178.644 605.662 177.409 606.52 175.849C607.378 174.263 607.807 172.456 607.807 170.428C607.807 168.92 607.56 167.542 607.066 166.294C606.572 165.02 605.883 163.915 604.999 162.979C604.115 162.043 603.075 161.328 601.879 160.834C600.683 160.314 599.357 160.054 597.901 160.054C595.977 160.054 594.274 160.496 592.792 161.38C591.336 162.264 590.179 163.486 589.321 165.046C588.489 166.606 588.073 168.4 588.073 170.428C588.073 171.936 588.307 173.34 588.775 174.64C589.269 175.914 589.945 177.019 590.803 177.955C591.687 178.865 592.727 179.58 593.923 180.1C595.145 180.62 596.471 180.88 597.901 180.88Z" fill="#0A2463"/>
<path d="M164.998 141.667C164.998 146.435 163.403 151.997 160.016 158.155C156.827 164.512 152.443 169.875 146.665 174.246C141.085 178.815 134.708 181 127.734 181H40.0538C34.6734 181 28.8945 179.212 22.7171 175.835C16.3403 172.259 10.96 168.088 6.57599 162.923C2.192 157.758 0 152.792 0 148.421V32.6975C0 29.7178 1.19563 26.1421 3.78618 22.3678C6.17745 18.5934 9.56508 15.0177 13.5505 11.6407C17.536 8.26364 22.1192 5.48255 26.9018 3.29742C31.6843 1.11228 36.2676 0.119019 40.6516 0.119019H117.372C126.14 0.119019 134.31 2.10552 141.483 5.87986C148.857 9.85284 154.635 14.8191 158.82 20.7786C163.005 26.9367 164.998 32.6975 164.998 38.657V141.667ZM124.745 127.762V51.9665C124.745 45.4111 122.353 40.8422 117.571 38.2597C112.788 35.6773 107.408 34.2867 101.629 34.2867H61.1767C54.6007 34.2867 49.2203 36.6705 44.8363 40.8422C40.253 44.8151 37.8618 49.3841 37.8618 54.549V124.981C37.8618 139.085 44.0392 146.038 55.597 146.038H106.212C110.397 146.038 113.785 145.044 116.574 143.058C119.364 141.071 121.357 138.489 122.752 135.708C124.147 132.927 124.745 130.344 124.745 127.762Z" fill="#0A2463"/>
<path d="M346.946 33.0136H179.158V0.236445H346.946V33.0136ZM336.545 54.2691L232.351 181H181.536L288.122 54.2691H336.545Z" fill="#0A2463"/>
<path d="M469.029 22.0679H357.944V0H469.029V22.0679ZM472.107 91.9495H355V71.1952L405.992 35.8603H451.229L400.504 69.2249H472.107V91.9495Z" fill="#FB3640"/>
<path d="M612.824 91.9495H577.759L550.054 56.8774H515.123V91.9495H487.954V34.8095H572.673C574.413 34.8095 576.019 34.1527 577.759 32.9705C579.365 31.7883 580.168 30.0806 580.168 27.8476C580.168 26.2713 579.766 25.0891 578.963 24.0382C578.16 23.1187 577.089 22.462 575.885 22.0679C574.547 21.5425 573.208 21.4111 571.736 21.4111H487.954V0H590.205C595.024 0 599.172 1.70763 602.518 4.99155C605.998 8.40681 607.738 12.4789 607.738 17.2077V40.1951C607.738 44.2671 606.935 47.4197 605.195 49.6527C603.455 51.8858 601.448 53.4621 599.172 54.2502C596.897 55.1697 594.221 55.6951 591.142 56.0892C588.064 56.4833 586.324 56.746 585.789 56.8774L612.824 91.9495Z" fill="#FB3640"/>
</svg>
