<svg width="635" height="185" viewBox="0 0 635 185" fill="none" xmlns="http://www.w3.org/2000/svg">
<path d="M356.655 129.47V126.272H364.026C365.04 126.272 365.937 126.064 366.717 125.648C367.523 125.232 368.147 124.647 368.589 123.893C369.057 123.139 369.291 122.242 369.291 121.202C369.291 120.162 369.057 119.265 368.589 118.511C368.147 117.757 367.523 117.172 366.717 116.756C365.937 116.34 365.04 116.132 364.026 116.132H356.655V112.934H364.26C365.924 112.934 367.406 113.272 368.706 113.948C370.032 114.624 371.072 115.586 371.826 116.834C372.606 118.056 372.996 119.512 372.996 121.202C372.996 122.866 372.606 124.322 371.826 125.57C371.072 126.792 370.032 127.754 368.706 128.456C367.406 129.132 365.924 129.47 364.26 129.47H356.655ZM354.198 140V112.934H357.864V140H354.198ZM372.491 140L383.567 112.934H386.219L397.256 140H393.278L384.191 117.107H385.556L376.391 140H372.491ZM377.756 133.877V130.679H391.991V133.877H377.756ZM403.007 128.222V125.141H410.339C411.925 125.141 413.147 124.738 414.005 123.932C414.863 123.126 415.292 122.034 415.292 120.656C415.292 119.356 414.863 118.277 414.005 117.419C413.173 116.561 411.964 116.132 410.378 116.132H403.007V112.934H410.495C412.211 112.934 413.706 113.272 414.98 113.948C416.254 114.598 417.229 115.495 417.905 116.639C418.607 117.783 418.958 119.096 418.958 120.578C418.958 122.112 418.607 123.451 417.905 124.595C417.229 125.739 416.254 126.636 414.98 127.286C413.706 127.91 412.211 128.222 410.495 128.222H403.007ZM400.55 140V112.934H404.216V140H400.55ZM416.15 140L406.322 127.871L409.793 126.662L420.791 140H416.15ZM420.937 140L432.013 112.934H434.665L445.702 140H441.724L432.637 117.107H434.002L424.837 140H420.937ZM426.202 133.877V130.679H440.437V133.877H426.202ZM455.529 140V112.934H459.195V140H455.529ZM458.025 140V136.646H472.533V140H458.025ZM486.231 140.39C484.307 140.39 482.513 140.039 480.849 139.337C479.185 138.609 477.729 137.608 476.481 136.334C475.233 135.034 474.258 133.539 473.556 131.849C472.88 130.159 472.542 128.352 472.542 126.428C472.542 124.478 472.88 122.671 473.556 121.007C474.258 119.317 475.22 117.835 476.442 116.561C477.69 115.287 479.133 114.299 480.771 113.597C482.435 112.895 484.229 112.544 486.153 112.544C488.077 112.544 489.858 112.895 491.496 113.597C493.16 114.299 494.616 115.287 495.864 116.561C497.112 117.835 498.087 119.317 498.789 121.007C499.491 122.697 499.842 124.517 499.842 126.467C499.842 128.391 499.491 130.198 498.789 131.888C498.087 133.578 497.112 135.06 495.864 136.334C494.642 137.608 493.199 138.609 491.535 139.337C489.897 140.039 488.129 140.39 486.231 140.39ZM486.153 136.88C488.103 136.88 489.806 136.438 491.262 135.554C492.744 134.644 493.914 133.409 494.772 131.849C495.63 130.263 496.059 128.456 496.059 126.428C496.059 124.92 495.812 123.542 495.318 122.294C494.824 121.02 494.135 119.915 493.251 118.979C492.367 118.043 491.327 117.328 490.131 116.834C488.935 116.314 487.609 116.054 486.153 116.054C484.229 116.054 482.526 116.496 481.044 117.38C479.588 118.264 478.431 119.486 477.573 121.046C476.741 122.606 476.325 124.4 476.325 126.428C476.325 127.936 476.559 129.34 477.027 130.64C477.521 131.914 478.197 133.019 479.055 133.955C479.939 134.865 480.979 135.58 482.175 136.1C483.397 136.62 484.723 136.88 486.153 136.88ZM510.856 140.39C508.724 140.39 506.904 140 505.396 139.22C503.888 138.44 502.549 137.309 501.379 135.827L503.875 133.331C504.733 134.527 505.721 135.437 506.839 136.061C507.957 136.659 509.335 136.958 510.973 136.958C512.585 136.958 513.872 136.607 514.834 135.905C515.822 135.203 516.316 134.241 516.316 133.019C516.316 132.005 516.082 131.186 515.614 130.562C515.146 129.938 514.509 129.431 513.703 129.041C512.923 128.625 512.065 128.261 511.129 127.949C510.193 127.611 509.257 127.26 508.321 126.896C507.385 126.506 506.527 126.038 505.747 125.492C504.967 124.92 504.33 124.179 503.836 123.269C503.368 122.359 503.134 121.215 503.134 119.837C503.134 118.303 503.498 117.003 504.226 115.937C504.98 114.845 505.994 114.013 507.268 113.441C508.568 112.843 510.024 112.544 511.636 112.544C513.404 112.544 514.99 112.895 516.394 113.597C517.798 114.273 518.942 115.17 519.826 116.288L517.33 118.784C516.524 117.848 515.653 117.146 514.717 116.678C513.807 116.21 512.754 115.976 511.558 115.976C510.102 115.976 508.945 116.301 508.087 116.951C507.229 117.575 506.8 118.459 506.8 119.603C506.8 120.513 507.034 121.254 507.502 121.826C507.996 122.372 508.633 122.84 509.413 123.23C510.193 123.62 511.051 123.984 511.987 124.322C512.949 124.634 513.898 124.985 514.834 125.375C515.77 125.765 516.628 126.259 517.408 126.857C518.188 127.455 518.812 128.235 519.28 129.197C519.774 130.133 520.021 131.316 520.021 132.746C520.021 135.138 519.189 137.01 517.525 138.362C515.887 139.714 513.664 140.39 510.856 140.39ZM533.971 129.47V126.272H541.342C542.356 126.272 543.253 126.064 544.033 125.648C544.839 125.232 545.463 124.647 545.905 123.893C546.373 123.139 546.607 122.242 546.607 121.202C546.607 120.162 546.373 119.265 545.905 118.511C545.463 117.757 544.839 117.172 544.033 116.756C543.253 116.34 542.356 116.132 541.342 116.132H533.971V112.934H541.576C543.24 112.934 544.722 113.272 546.022 113.948C547.348 114.624 548.388 115.586 549.142 116.834C549.922 118.056 550.312 119.512 550.312 121.202C550.312 122.866 549.922 124.322 549.142 125.57C548.388 126.792 547.348 127.754 546.022 128.456C544.722 129.132 543.24 129.47 541.576 129.47H533.971ZM531.514 140V112.934H535.18V140H531.514ZM556.538 128.222V125.141H563.87C565.456 125.141 566.678 124.738 567.536 123.932C568.394 123.126 568.823 122.034 568.823 120.656C568.823 119.356 568.394 118.277 567.536 117.419C566.704 116.561 565.495 116.132 563.909 116.132H556.538V112.934H564.026C565.742 112.934 567.237 113.272 568.511 113.948C569.785 114.598 570.76 115.495 571.436 116.639C572.138 117.783 572.489 119.096 572.489 120.578C572.489 122.112 572.138 123.451 571.436 124.595C570.76 125.739 569.785 126.636 568.511 127.286C567.237 127.91 565.742 128.222 564.026 128.222H556.538ZM554.081 140V112.934H557.747V140H554.081ZM569.681 140L559.853 127.871L563.324 126.662L574.322 140H569.681ZM589.238 140.39C587.314 140.39 585.52 140.039 583.856 139.337C582.192 138.609 580.736 137.608 579.488 136.334C578.24 135.034 577.265 133.539 576.563 131.849C575.887 130.159 575.549 128.352 575.549 126.428C575.549 124.478 575.887 122.671 576.563 121.007C577.265 119.317 578.227 117.835 579.449 116.561C580.697 115.287 582.14 114.299 583.778 113.597C585.442 112.895 587.236 112.544 589.16 112.544C591.084 112.544 592.865 112.895 594.503 113.597C596.167 114.299 597.623 115.287 598.871 116.561C600.119 117.835 601.094 119.317 601.796 121.007C602.498 122.697 602.849 124.517 602.849 126.467C602.849 128.391 602.498 130.198 601.796 131.888C601.094 133.578 600.119 135.06 598.871 136.334C597.649 137.608 596.206 138.609 594.542 139.337C592.904 140.039 591.136 140.39 589.238 140.39ZM589.16 136.88C591.11 136.88 592.813 136.438 594.269 135.554C595.751 134.644 596.921 133.409 597.779 131.849C598.637 130.263 599.066 128.456 599.066 126.428C599.066 124.92 598.819 123.542 598.325 122.294C597.831 121.02 597.142 119.915 596.258 118.979C595.374 118.043 594.334 117.328 593.138 116.834C591.942 116.314 590.616 116.054 589.16 116.054C587.236 116.054 585.533 116.496 584.051 117.38C582.595 118.264 581.438 119.486 580.58 121.046C579.748 122.606 579.332 124.4 579.332 126.428C579.332 127.936 579.566 129.34 580.034 130.64C580.528 131.914 581.204 133.019 582.062 133.955C582.946 134.865 583.986 135.58 585.182 136.1C586.404 136.62 587.73 136.88 589.16 136.88ZM607.098 140V112.934H610.764V140H607.098ZM609.594 128.105V124.751H623.712V128.105H609.594ZM609.594 116.288V112.934H624.375V116.288H609.594ZM628.694 140.39C627.966 140.39 627.355 140.143 626.861 139.649C626.393 139.129 626.159 138.518 626.159 137.816C626.159 137.088 626.393 136.49 626.861 136.022C627.355 135.528 627.966 135.281 628.694 135.281C629.422 135.281 630.02 135.528 630.488 136.022C630.982 136.49 631.229 137.088 631.229 137.816C631.229 138.518 630.982 139.129 630.488 139.649C630.02 140.143 629.422 140.39 628.694 140.39ZM356.616 184V180.646H364.143C366.145 180.646 367.9 180.217 369.408 179.359C370.916 178.475 372.086 177.266 372.918 175.732C373.776 174.198 374.205 172.43 374.205 170.428C374.205 168.452 373.776 166.697 372.918 165.163C372.06 163.629 370.877 162.433 369.369 161.575C367.861 160.717 366.119 160.288 364.143 160.288H356.655V156.934H364.221C366.197 156.934 368.017 157.272 369.681 157.948C371.371 158.624 372.827 159.573 374.049 160.795C375.297 162.017 376.259 163.447 376.935 165.085C377.637 166.723 377.988 168.517 377.988 170.467C377.988 172.391 377.637 174.185 376.935 175.849C376.259 177.487 375.31 178.917 374.088 180.139C372.866 181.361 371.41 182.31 369.72 182.986C368.056 183.662 366.249 184 364.299 184H356.616ZM354.198 184V156.934H357.864V184H354.198ZM395.547 184V156.934H399.213V184H395.547ZM398.043 184V180.646H413.565V184H398.043ZM398.043 171.754V168.556H412.278V171.754H398.043ZM398.043 160.288V156.934H413.37V160.288H398.043ZM431.031 184V156.934H434.697V184H431.031ZM433.527 184V180.646H448.035V184H433.527ZM482.224 184L493.3 156.934H495.952L506.989 184H503.011L493.924 161.107H495.289L486.124 184H482.224ZM487.489 177.877V174.679H501.724V177.877H487.489ZM533.379 184.39C531.377 184.39 529.583 183.948 527.997 183.064C526.437 182.154 525.202 180.919 524.292 179.359C523.382 177.773 522.927 175.979 522.927 173.977V156.934H526.593V173.899C526.593 175.329 526.892 176.564 527.49 177.604C528.088 178.644 528.894 179.45 529.908 180.022C530.948 180.594 532.105 180.88 533.379 180.88C534.705 180.88 535.862 180.594 536.85 180.022C537.864 179.45 538.657 178.644 539.229 177.604C539.827 176.564 540.126 175.342 540.126 173.938V156.934H543.831V174.016C543.831 176.018 543.376 177.799 542.466 179.359C541.556 180.919 540.321 182.154 538.761 183.064C537.201 183.948 535.407 184.39 533.379 184.39ZM569.136 184V157.714H572.802V184H569.136ZM559.932 160.288V156.934H581.967V160.288H559.932ZM609.158 184.39C607.234 184.39 605.44 184.039 603.776 183.337C602.112 182.609 600.656 181.608 599.408 180.334C598.16 179.034 597.185 177.539 596.483 175.849C595.807 174.159 595.469 172.352 595.469 170.428C595.469 168.478 595.807 166.671 596.483 165.007C597.185 163.317 598.147 161.835 599.369 160.561C600.617 159.287 602.06 158.299 603.698 157.597C605.362 156.895 607.156 156.544 609.08 156.544C611.004 156.544 612.785 156.895 614.423 157.597C616.087 158.299 617.543 159.287 618.791 160.561C620.039 161.835 621.014 163.317 621.716 165.007C622.418 166.697 622.769 168.517 622.769 170.467C622.769 172.391 622.418 174.198 621.716 175.888C621.014 177.578 620.039 179.06 618.791 180.334C617.569 181.608 616.126 182.609 614.462 183.337C612.824 184.039 611.056 184.39 609.158 184.39ZM609.08 180.88C611.03 180.88 612.733 180.438 614.189 179.554C615.671 178.644 616.841 177.409 617.699 175.849C618.557 174.263 618.986 172.456 618.986 170.428C618.986 168.92 618.739 167.542 618.245 166.294C617.751 165.02 617.062 163.915 616.178 162.979C615.294 162.043 614.254 161.328 613.058 160.834C611.862 160.314 610.536 160.054 609.08 160.054C607.156 160.054 605.453 160.496 603.971 161.38C602.515 162.264 601.358 163.486 600.5 165.046C599.668 166.606 599.252 168.4 599.252 170.428C599.252 171.936 599.486 173.34 599.954 174.64C600.448 175.914 601.124 177.019 601.982 177.955C602.866 178.865 603.906 179.58 605.102 180.1C606.324 180.62 607.65 180.88 609.08 180.88Z" fill="#0A2463"/>
<path d="M164.998 141.667C164.998 146.435 163.403 151.997 160.016 158.155C156.827 164.512 152.443 169.875 146.665 174.246C141.085 178.815 134.708 181 127.734 181H40.0538C34.6734 181 28.8945 179.212 22.7171 175.835C16.3403 172.259 10.96 168.088 6.57599 162.923C2.192 157.758 0 152.792 0 148.421V32.6976C0 29.7178 1.19563 26.1421 3.78618 22.3678C6.17745 18.5935 9.56508 15.0178 13.5505 11.6407C17.536 8.26367 22.1192 5.48258 26.9018 3.29745C31.6843 1.11231 36.2676 0.119049 40.6516 0.119049H117.372C126.14 0.119049 134.31 2.10555 141.483 5.87989C148.857 9.85287 154.635 14.8191 158.82 20.7786C163.005 26.9367 164.998 32.6976 164.998 38.657V141.667ZM124.745 127.762V51.9665C124.745 45.4111 122.353 40.8422 117.571 38.2597C112.788 35.6773 107.408 34.2867 101.629 34.2867H61.1767C54.6007 34.2867 49.2203 36.6705 44.8363 40.8422C40.253 44.8152 37.8618 49.3841 37.8618 54.549V124.981C37.8618 139.085 44.0392 146.038 55.597 146.038H106.212C110.397 146.038 113.785 145.044 116.574 143.058C119.364 141.071 121.357 138.489 122.752 135.708C124.147 132.927 124.745 130.344 124.745 127.762Z" fill="#0A2463"/>
<path d="M346.946 33.0136H179.158V0.236476H346.946V33.0136ZM336.545 54.2691L232.351 181H181.536L288.122 54.2691H336.545Z" fill="#0A2463"/>
<path d="M469.029 22.0679H357.944V0H469.029V22.0679ZM472.107 91.9495H355V71.1952L405.992 35.8603H451.229L400.504 69.2249H472.107V91.9495Z" fill="#FB3640"/>
<path d="M612.824 91.9495H577.759L550.054 56.8774H515.123V91.9495H487.954V34.8095H572.673C574.413 34.8095 576.019 34.1527 577.759 32.9705C579.365 31.7883 580.168 30.0806 580.168 27.8476C580.168 26.2713 579.766 25.0891 578.963 24.0382C578.16 23.1187 577.089 22.462 575.885 22.0679C574.547 21.5425 573.208 21.4111 571.736 21.4111H487.954V0H590.205C595.024 0 599.172 1.70763 602.518 4.99155C605.998 8.40681 607.738 12.4789 607.738 17.2077V40.1951C607.738 44.2671 606.935 47.4197 605.195 49.6527C603.455 51.8858 601.448 53.4621 599.172 54.2502C596.897 55.1697 594.221 55.6951 591.142 56.0892C588.064 56.4833 586.324 56.746 585.789 56.8774L612.824 91.9495Z" fill="#FB3640"/>
</svg>
