<svg width="12" height="13" viewBox="0 0 12 13" fill="none" xmlns="http://www.w3.org/2000/svg">
<g id="hugeicons:delivery-delay-01">
<g id="Group">
<path id="Vector" d="M9.75 10.25C9.75 10.5815 9.6183 10.8995 9.38388 11.1339C9.14946 11.3683 8.83152 11.5 8.5 11.5C8.16848 11.5 7.85054 11.3683 7.61612 11.1339C7.3817 10.8995 7.25 10.5815 7.25 10.25C7.25 9.91848 7.3817 9.60054 7.61612 9.36612C7.85054 9.1317 8.16848 9 8.5 9C8.83152 9 9.14946 9.1317 9.38388 9.36612C9.6183 9.60054 9.75 9.91848 9.75 10.25ZM4.75 10.25C4.75 10.5815 4.6183 10.8995 4.38388 11.1339C4.14946 11.3683 3.83152 11.5 3.5 11.5C3.16848 11.5 2.85054 11.3683 2.61612 11.1339C2.3817 10.8995 2.25 10.5815 2.25 10.25C2.25 9.91848 2.3817 9.60054 2.61612 9.36612C2.85054 9.1317 3.16848 9 3.5 9C3.83152 9 4.14946 9.1317 4.38388 9.36612C4.6183 9.60054 4.75 9.91848 4.75 10.25Z" stroke="#164FDA" stroke-linecap="round" stroke-linejoin="round"/>
<path id="Vector_2" d="M7.25 10.25H4.75M9.75 10.25H10.1315C10.2415 10.25 10.2965 10.25 10.3425 10.244C10.508 10.2234 10.662 10.1482 10.7799 10.0303C10.8979 9.91238 10.9733 9.75851 10.994 9.593C11 9.5465 11 9.4915 11 9.3815V8C11 7.13805 10.6576 6.3114 10.0481 5.7019C9.4386 5.09241 8.61195 4.75 7.75 4.75M5.5 3.5H6C6.707 3.5 7.0605 3.5 7.28 3.72C7.5 3.939 7.5 4.2925 7.5 5V9.25M1 6.5V9C1 9.4675 1 9.701 1.1005 9.875C1.16632 9.989 1.261 10.0837 1.375 10.1495C1.549 10.25 1.7825 10.25 2.25 10.25M3.925 4.425L3.25 3.975V2.85M1 3.75C1 4.04547 1.0582 4.33806 1.17127 4.61104C1.28434 4.88402 1.45008 5.13206 1.65901 5.34099C1.86794 5.54992 2.11598 5.71566 2.38896 5.82873C2.66194 5.9418 2.95453 6 3.25 6C3.54547 6 3.83806 5.9418 4.11104 5.82873C4.38402 5.71566 4.63206 5.54992 4.84099 5.34099C5.04992 5.13206 5.21566 4.88402 5.32873 4.61104C5.4418 4.33806 5.5 4.04547 5.5 3.75C5.5 3.15326 5.26295 2.58097 4.84099 2.15901C4.41903 1.73705 3.84674 1.5 3.25 1.5C2.65326 1.5 2.08097 1.73705 1.65901 2.15901C1.23705 2.58097 1 3.15326 1 3.75Z" stroke="#164FDA" stroke-linecap="round" stroke-linejoin="round"/>
</g>
</g>
</svg>
