<svg width="26" height="28" viewBox="0 0 26 28" fill="none" xmlns="http://www.w3.org/2000/svg">
<path id="Vector" d="M3.21504 3.66911C5.31182 1.48736 8.03758 0.396484 10.7634 0.396484C13.4892 0.396484 16.215 1.48736 18.3118 3.66911C20.4086 5.85085 21.457 8.68712 21.457 11.5234C21.457 14.3597 20.8978 15.6687 19.7795 17.4868L25.3011 23.2321C25.7903 23.7412 26 24.323 26 24.9775C26 25.632 25.7903 26.2138 25.3011 26.7229C24.8118 27.2319 24.2527 27.4501 23.6236 27.4501C22.9946 27.4501 22.4354 27.2319 21.9462 26.7229L16.4248 20.9776C14.6774 22.1412 12.6505 22.723 10.6935 22.723C8.73652 22.723 5.24194 21.6321 3.14517 19.4504C1.04839 17.2686 0 14.4324 0 11.5961C0 8.75982 1.04839 5.92356 3.14517 3.74181L3.21504 3.66911ZM5.66128 12.2506C5.24193 12.2506 4.96236 11.9597 4.96236 11.5961C4.96236 11.2325 5.24193 10.8688 5.66128 10.8688H10.0645V6.28719C10.0645 5.92356 10.344 5.55994 10.6935 5.55994C11.043 5.55994 11.3924 5.92356 11.3924 6.28719V10.8688H15.7957C16.2151 10.8688 16.4946 11.1597 16.4946 11.5961C16.4946 12.0324 16.2151 12.2506 15.7957 12.2506H11.3924V16.8323C11.3924 17.2686 11.1129 17.5595 10.6935 17.5595C10.2742 17.5595 10.0645 17.2686 10.0645 16.8323V12.2506H5.66128ZM11.4623 2.7964C13.4892 2.94185 15.3763 3.88727 16.7043 5.34177C18.0322 6.79627 18.9408 8.68712 19.1505 10.7961C19.1505 10.9416 19.1505 11.1598 19.0107 11.3052C18.871 11.4507 18.7312 11.5234 18.5215 11.5234C18.1721 11.5234 17.8925 11.2325 17.8925 10.8688C17.7527 9.05072 16.9839 7.45078 15.8656 6.28719C14.7473 5.05086 13.2096 4.25087 11.4623 4.17814C11.1129 4.17814 10.8333 3.81455 10.8333 3.52365C10.8333 3.30547 10.9032 3.08731 11.043 2.94186C11.1828 2.79641 11.3925 2.72367 11.5323 2.7964H11.4623ZM18.9409 18.6504C18.8011 18.7959 18.5914 19.014 18.4516 19.2322V19.3777C18.3118 19.5231 18.1022 19.7413 17.8925 19.8868L23.2043 25.4866C23.414 25.7048 23.6935 25.7775 23.9032 25.7775C24.1129 25.7775 24.3925 25.7048 24.6021 25.4866C24.8118 25.2684 24.8817 25.0502 24.8817 24.7593C24.8817 24.4684 24.8118 24.2503 24.6021 24.0321L19.2205 18.505L18.9409 18.6504ZM10.6935 1.85098C8.31716 1.85098 5.9408 2.79638 4.12359 4.68723C2.30639 6.57808 1.39785 9.05074 1.39785 11.5234C1.39785 13.996 2.30639 16.4687 4.12359 18.3595C5.9408 20.2504 8.31716 21.1958 10.6935 21.1958C13.0699 21.1958 15.3763 20.2504 17.1936 18.4323H17.2634C17.2634 18.3595 17.2634 18.3595 17.2634 18.3595C19.0107 16.3959 19.8494 13.9233 19.8494 11.5234C19.8494 9.12347 18.9409 6.57808 17.1237 4.68723C15.3065 2.79638 12.9301 1.85098 10.5538 1.85098H10.6935Z" fill="#0A2463"/>
</svg>
