<svg width="14" height="9" viewBox="0 0 14 9" fill="none" xmlns="http://www.w3.org/2000/svg">
<path id="Icon material-local-shipping" d="M11.4089 2.33683H9.65229V0.173828H1.45205C1.14154 0.17462 0.843989 0.28887 0.624425 0.491613C0.40486 0.694356 0.281131 0.969107 0.280273 1.25583V7.20483H1.45205C1.44623 7.42129 1.48737 7.63663 1.57306 7.83819C1.65875 8.03974 1.78724 8.22342 1.95098 8.37841C2.11472 8.53341 2.31039 8.65658 2.52647 8.74068C2.74255 8.82479 2.97467 8.86811 3.20916 8.86811C3.44366 8.86811 3.67578 8.82479 3.89186 8.74068C4.10794 8.65658 4.30361 8.53341 4.46735 8.37841C4.63109 8.22342 4.75958 8.03974 4.84527 7.83819C4.93096 7.63663 4.9721 7.42129 4.96628 7.20483H8.48052C8.4747 7.42129 8.51584 7.63663 8.60153 7.83819C8.68722 8.03974 8.81571 8.22342 8.97945 8.37841C9.14319 8.53341 9.33886 8.65658 9.55494 8.74068C9.77102 8.82479 10.0031 8.86811 10.2376 8.86811C10.4721 8.86811 10.7042 8.82479 10.9203 8.74068C11.1364 8.65658 11.3321 8.53341 11.4958 8.37841C11.6596 8.22342 11.7881 8.03974 11.8737 7.83819C11.9594 7.63663 12.0006 7.42129 11.9948 7.20483H13.1676V4.50483L11.4089 2.33683ZM3.20429 8.01583C3.03058 8.01583 2.86077 7.96826 2.71634 7.87915C2.57191 7.79004 2.45933 7.66338 2.39286 7.51518C2.32638 7.36699 2.30899 7.20393 2.34288 7.04661C2.37677 6.88929 2.46042 6.74479 2.58325 6.63136C2.70608 6.51794 2.86257 6.4407 3.03295 6.40941C3.20332 6.37812 3.37991 6.39418 3.5404 6.45556C3.70088 6.51694 3.83805 6.62089 3.93456 6.75426C4.03107 6.88763 4.08258 7.04443 4.08258 7.20483C4.08272 7.31137 4.0601 7.41689 4.01601 7.51534C3.97193 7.61379 3.90724 7.70325 3.82565 7.77859C3.74407 7.85392 3.64719 7.91365 3.54057 7.95436C3.43394 7.99507 3.31967 8.01596 3.20429 8.01583ZM11.11 3.14783L12.2579 4.49983H9.65229V3.14883L11.11 3.14783ZM10.2317 8.01583C10.058 8.01583 9.88816 7.96826 9.74373 7.87915C9.5993 7.79004 9.48672 7.66338 9.42025 7.51518C9.35377 7.36699 9.33638 7.20393 9.37027 7.04661C9.40416 6.88929 9.48781 6.74479 9.61064 6.63136C9.73347 6.51794 9.88996 6.4407 10.0603 6.40941C10.2307 6.37812 10.4073 6.39418 10.5678 6.45556C10.7283 6.51694 10.8654 6.62089 10.9619 6.75426C11.0585 6.88763 11.11 7.04443 11.11 7.20483C11.1103 7.41896 11.0187 7.62449 10.8553 7.77647C10.692 7.92845 10.4701 8.01451 10.2382 8.01583H10.2317Z" fill="white"/>
</svg>
