<svg xmlns="http://www.w3.org/2000/svg" width="23.47" height="17.496" viewBox="0 0 23.47 17.496">
  <g id="PT" transform="translate(0)">
    <path id="Tracé_4406" data-name="Tracé 4406" d="M12.453,0H26.79V17.5H12.453Z" transform="translate(-3.319)" fill="red"/>
    <path id="Tracé_4407" data-name="Tracé 4407" d="M0,0H9.388V17.5H0Z" transform="translate(0)" fill="#060"/>
    <g id="Groupe_3760" data-name="Groupe 3760" transform="translate(5.56 4.056)">
      <path id="Tracé_4408" data-name="Tracé 4408" d="M8.3,8.087l-.046.083-.007.012a.139.139,0,0,0,.016.106l-.015.026-.109.22-.016-.007-.04.083-.059.125a.141.141,0,0,1,0-.078l-.009,0-.045.081c-.144.235.843.973,2.367,1.929l-1.19-.127a4.555,4.555,0,0,1-1.484-.393v.111a.405.405,0,0,0,.044.022l0,.235-.046-.029V10.6a4.925,4.925,0,0,0,1.471.37,15.419,15.419,0,0,0,1.942.156l2.369,1.307-.159.028a12.5,12.5,0,0,1-1.845.161A13.04,13.04,0,0,1,8.1,12.092c.208.186.158.29.214.386a8.226,8.226,0,0,0,3.11.574,10.635,10.635,0,0,0,1.966-.183q.357-.067.706-.164c.12.041.064-.093.137-.085s.109.007.128-.029l.051-.088a.074.074,0,0,1-.051.025l.083-.15.089-.136-.022.012.1-.173c.048.007.078.007.092,0l.054-.1a.086.086,0,0,1-.078.032l.057-.1-.1.034a.243.243,0,0,1-.073.037,9.811,9.811,0,0,1-2.028-.889l1.284-.134a3.14,3.14,0,0,0,1.394-.447v-.1a.274.274,0,0,1-.04.029l-.011-.232a.249.249,0,0,0,.051-.043v-.1a.338.338,0,0,1-.055.039V10.1l-.018.025a4.572,4.572,0,0,1-1.324.4,14.929,14.929,0,0,1-1.966.16l-.458-.279L8.988,8.853l.381.072a14.867,14.867,0,0,0,2.061.133A13.98,13.98,0,0,0,13.581,8.9a5.021,5.021,0,0,0,1.383-.383l-.059-.1a.232.232,0,0,1-.032.028l-.119-.2a.493.493,0,0,0,.051-.031l-.057-.1a3.481,3.481,0,0,1-1.28.37,13.585,13.585,0,0,1-2.03.147A13.876,13.876,0,0,1,9.473,8.5a4.6,4.6,0,0,1-1.1-.233.572.572,0,0,1-.048-.07A.252.252,0,0,1,8.3,8.088h0Zm5.681,3.859c.24.11.279.029.428.073-.148-.043-.191.033-.428-.073Z" transform="translate(-7.602 -6.212)" fill="#ffbf00"/>
      <path id="Tracé_4409" data-name="Tracé 4409" d="M11.2,5.53A3.807,3.807,0,0,0,8.743,6.618l-.016.015L8.7,6.662l-.048.048-.1.113c-1.345,2.145-1.244,4,.051,5.4l.065.067.073.067.015.012.1.1L8.9,12.5l.021.019.028.024a3.805,3.805,0,0,0,6.264-2.255l.011-.059.007-.037.016-.1.04-.393c.007.017.007-.1.007-.1V9.369l-.01-.113a4.034,4.034,0,0,0-.09-.644l-.021-.088-.005-.018-.013-.053-.011-.041-.018-.064a4,4,0,0,0-3.5-2.818h-.414Zm0,.418V6.77a12.263,12.263,0,0,0-1.99.161l-.251.056a3.521,3.521,0,0,1,.8-.618A3.719,3.719,0,0,1,10.8,6a3.271,3.271,0,0,1,.4-.048h0Zm.414,0a3.359,3.359,0,0,1,1.058.241l.034.015.044.019.042.019.035.016a3.645,3.645,0,0,1,.385.21l.055.037.027.018.044.029.038.026.032.022.048.035a3.521,3.521,0,0,1,.4.352l-.277-.062a11.236,11.236,0,0,0-1.961-.147V5.958ZM11.068,7.2H11.2V8.539L8.949,7.4l.189-.039A11.792,11.792,0,0,1,11.067,7.2Zm.548,0a11.631,11.631,0,0,1,2.028.156l.626.142a3.622,3.622,0,0,1,.4.8,4.958,4.958,0,0,1,.163.716,5.869,5.869,0,0,0-.918-.249,12.894,12.894,0,0,0-2.3-.227V7.2Zm-3.331.766a11.136,11.136,0,0,1,1.473.665l-.9.138a5.886,5.886,0,0,0-.869.239,4.014,4.014,0,0,1,.236-.9l.064-.145Zm3.667,1.012A12.629,12.629,0,0,1,13.9,9.2a5.88,5.88,0,0,1,.974.277v.016a3.712,3.712,0,0,1-.04.538,4.034,4.034,0,0,1-.253.856,17.574,17.574,0,0,0-2.635-1.9ZM10.446,9l.766.447v1.159a9.324,9.324,0,0,0-2.494.323l-.394.136A3.623,3.623,0,0,1,7.97,9.89a3.586,3.586,0,0,1-.023-.4V9.459A6.143,6.143,0,0,1,8.866,9.2,12.425,12.425,0,0,1,10.438,9Zm1.181.7,1.523,1.019a12.7,12.7,0,0,0-1.523-.117V9.7Zm1.823,1.242c.766.481.792.742.166,1.276a3.572,3.572,0,0,1-1.988.805V11.042a14.247,14.247,0,0,1,2.007.028l-.183-.123Zm-2.237.094v1.988a3.293,3.293,0,0,1-.626-.1,3.937,3.937,0,0,1-1.12-.519,3.535,3.535,0,0,1-.661-.6l-.255-.359a3,3,0,0,1,.29-.1,8.466,8.466,0,0,1,2.372-.308h0Z" transform="translate(-7.581 -5.53)" fill="#ff0"/>
    </g>
    <path id="Tracé_4410" data-name="Tracé 4410" d="M9.787,10.576a2.215,2.215,0,0,0,.635,1.556,2.111,2.111,0,0,0,3.051.007,2.23,2.23,0,0,0,.635-1.562V7.625L9.786,7.62v2.956Z" transform="translate(-2.608 -2.031)" fill="#fff"/>
    <g id="Groupe_3761" data-name="Groupe 3761" transform="translate(7.258 5.688)">
      <path id="Tracé_4411" data-name="Tracé 4411" d="M9.9,10.616h0a2.131,2.131,0,0,0,.611,1.492,2.035,2.035,0,0,0,2.928,0,2.128,2.128,0,0,0,.609-1.493V7.755H9.9l0,2.86Zm3.313-2v2.016a1.247,1.247,0,0,1-.364.893,1.225,1.225,0,0,1-.875.37,1.21,1.21,0,0,1-.867-.376,1.284,1.284,0,0,1-.365-.893V8.607l2.473.005Z" transform="translate(-9.896 -7.755)" fill="red"/>
      <path id="Tracé_4412" data-name="Tracé 4412" d="M10.231,7.83V7.9a.021.021,0,0,0,.021.02h.161a.019.019,0,0,0,.02-.02V7.83h-.045v.033h-.033V7.83h-.045v.033h-.033V7.83h-.044Zm1.674,0V7.9a.021.021,0,0,0,.021.02h.161a.019.019,0,0,0,.02-.02V7.83h-.045v.033h-.033V7.83h-.045v.033H11.95V7.83h-.044Zm1.674,0V7.9a.021.021,0,0,0,.021.02h.161a.019.019,0,0,0,.02-.02V7.83h-.045v.033H13.7V7.83h-.045v.033h-.033V7.83H13.58Zm-3.317.1-.01.24h.157L10.4,7.93h-.136Zm1.674,0-.01.24h.157l-.01-.242h-.136Zm1.674,0-.01.24h.157l-.01-.242h-.136Zm-3.572.018v.075a.021.021,0,0,0,.021.02h.007l0,.13h.15l0-.13h.009a.019.019,0,0,0,.02-.02V7.947h-.045V7.98h-.032V7.947h-.044V7.98h-.032V7.947h-.044Zm.389,0v.075a.021.021,0,0,0,.021.02h.007l0,.13h.15l0-.13H10.6a.019.019,0,0,0,.02-.02V7.947h-.044V7.98h-.032V7.947H10.5V7.98h-.033V7.947h-.043Zm1.285,0v.075a.021.021,0,0,0,.021.02h.007l0,.13h.15l0-.13h.009a.019.019,0,0,0,.02-.02V7.947h-.045V7.98h-.032V7.947h-.044V7.98h-.032V7.947h-.044Zm.389,0v.075a.021.021,0,0,0,.021.02h.007l0,.13h.15l0-.13h.007a.019.019,0,0,0,.02-.02V7.947h-.044V7.98h-.032V7.947h-.044V7.98h-.033V7.947H12.1Zm1.285,0v.075a.021.021,0,0,0,.021.02h.007l0,.13h.15l0-.13h.009a.019.019,0,0,0,.02-.02V7.947h-.045V7.98h-.032V7.947h-.044V7.98H13.43V7.947h-.044Zm.389,0v.075a.021.021,0,0,0,.021.02H13.8l0,.13h.15l0-.13h.007a.019.019,0,0,0,.02-.02V7.947h-.044V7.98H13.9V7.947h-.044V7.98h-.033V7.947h-.043Zm-3.741.224a.024.024,0,0,0-.022.026.025.025,0,0,0,.022.027h.012a.025.025,0,0,0-.022.027.024.024,0,0,0,.022.026h.009l-.024.23h.15a.21.21,0,0,1,.149-.227.225.225,0,0,1,.149.227h.15l-.026-.23h.009a.024.024,0,0,0,.022-.026.025.025,0,0,0-.022-.027h.012a.025.025,0,0,0,.022-.027.024.024,0,0,0-.022-.026h-.59Zm1.674,0a.024.024,0,0,0-.022.026.025.025,0,0,0,.022.027h.012a.025.025,0,0,0-.022.027.024.024,0,0,0,.022.026h.009l-.024.23h.15A.21.21,0,0,1,12,8.28a.225.225,0,0,1,.149.227h.15l-.026-.23h.009a.024.024,0,0,0,.022-.026.025.025,0,0,0-.022-.027H12.3a.025.025,0,0,0,.022-.027.024.024,0,0,0-.022-.026h-.59Zm1.674,0a.024.024,0,0,0-.022.026.025.025,0,0,0,.022.027h.012a.025.025,0,0,0-.022.027.024.024,0,0,0,.022.026H13.4l-.024.23h.15a.21.21,0,0,1,.149-.227.225.225,0,0,1,.149.227h.15l-.026-.23h.009a.024.024,0,0,0,.022-.026.025.025,0,0,0-.022-.027h.012a.025.025,0,0,0,.022-.027.024.024,0,0,0-.022-.026h-.59Zm-3.362.335a.03.03,0,0,0,0,.059h.616a.03.03,0,0,0,0-.059Zm1.674,0a.03.03,0,0,0,0,.059h.616a.03.03,0,0,0,0-.059Zm1.674,0a.03.03,0,0,0,0,.059h.616a.03.03,0,0,0,0-.059ZM10.23,9.545V9.62a.021.021,0,0,0,.021.02h.161a.019.019,0,0,0,.02-.02V9.545h-.045v.033h-.033V9.545h-.045v.033h-.033V9.545h-.044Zm3.348,0V9.62a.021.021,0,0,0,.021.02h.161a.019.019,0,0,0,.02-.02V9.545h-.045v.033H13.7V9.545h-.045v.033h-.033V9.545h-.044Zm-3.317.1-.01.24h.157l-.01-.242h-.136Zm3.348,0-.01.24h.157l-.01-.242H13.61Zm-3.572.018v.075a.021.021,0,0,0,.021.02h.007l0,.13h.15l0-.13h.009a.019.019,0,0,0,.02-.02V9.662H10.19V9.7h-.032V9.662h-.044V9.7h-.032V9.662h-.044Zm.389,0v.075a.021.021,0,0,0,.021.02h.007l0,.13h.15l0-.13H10.6a.019.019,0,0,0,.02-.02V9.662h-.044V9.7h-.032V9.662H10.5V9.7H10.47V9.662h-.043Zm2.959,0v.075a.021.021,0,0,0,.021.02h.007l0,.13h.15l0-.13h.009a.019.019,0,0,0,.02-.02V9.662h-.045V9.7h-.032V9.662h-.044V9.7h-.032V9.662h-.044Zm.389,0v.075a.021.021,0,0,0,.021.02H13.8l0,.13h.15l0-.13h.007a.019.019,0,0,0,.02-.02V9.662h-.044V9.7H13.9V9.662h-.044V9.7h-.033V9.662h-.043Zm-3.741.225a.024.024,0,0,0-.022.026.025.025,0,0,0,.022.027h.012a.025.025,0,0,0-.022.027.024.024,0,0,0,.022.026h.009l-.024.23h.15A.21.21,0,0,1,10.329,10a.225.225,0,0,1,.149.227h.15l-.026-.23h.009a.024.024,0,0,0,.022-.026.025.025,0,0,0-.022-.027h.012a.025.025,0,0,0,.022-.027.024.024,0,0,0-.022-.026h-.59Zm3.348,0a.024.024,0,0,0-.022.026.025.025,0,0,0,.022.027h.012a.025.025,0,0,0-.022.027.024.024,0,0,0,.022.026H13.4l-.024.23h.15A.21.21,0,0,1,13.677,10a.225.225,0,0,1,.149.227h.15l-.026-.23h.009a.024.024,0,0,0,.022-.026.025.025,0,0,0-.022-.027h.012a.025.025,0,0,0,.022-.027.024.024,0,0,0-.022-.026h-.59Zm-3.362.335a.03.03,0,0,0,0,.059h.616a.03.03,0,0,0,0-.059Zm3.348,0a.03.03,0,0,0,0,.059h.616a.03.03,0,0,0,0-.059ZM10.735,11.3l-.032.032.022.023-.022.023-.022-.023-.032.032.022.023-.024.023-.022-.023-.031.032.051.054a.018.018,0,0,0,.027,0l.006,0,.085.1-.031.031-.141.147-.126.127a.024.024,0,0,0,0,.034.026.026,0,0,0,.035,0l.007-.007a.026.026,0,0,0,0,.035.023.023,0,0,0,.033,0l.007-.006.139.182.109-.107a.213.213,0,0,1-.048-.269.22.22,0,0,1,.262.056l.1-.1-.31.308-.115.116a.027.027,0,0,0,0,.037.026.026,0,0,0,.037,0l.442-.44a.027.027,0,0,0,0-.037.027.027,0,0,0-.038,0l-.006.006-.176-.147.007-.006a.024.024,0,0,0,0-.034.025.025,0,0,0-.034,0l.009-.007a.027.027,0,0,0,0-.037.024.024,0,0,0-.034,0l-.018.018-.092-.089.006-.006a.021.021,0,0,0,0-.028l-.051-.054h0Zm-.144.455-.091-.089.007-.006a.022.022,0,0,0,0-.029l-.051-.051-.032.032.022.023-.022.023-.022-.023-.032.032.022.023-.022.023-.022-.025-.032.033.05.054a.021.021,0,0,0,.029,0l.006-.006.084.1.109-.107h0Zm.142-.139-.171-.166-.1.1.154.18.114-.11Zm2.494-.315-.05.054a.021.021,0,0,0,0,.028l.006.006-.091.089.109.107.085-.1,0,0a.022.022,0,0,0,.029,0l.05-.054-.031-.032-.022.023-.022-.023.022-.023-.032-.032-.022.023-.022-.023.022-.023L13.23,11.3h0Zm-.027.285-.128-.125a.023.023,0,0,0-.033,0,.027.027,0,0,0,0,.037l.009.007a.026.026,0,0,0-.034,0,.024.024,0,0,0,0,.034l.006.006-.174.147-.007-.006a.027.027,0,0,0-.038,0,.025.025,0,0,0,0,.037l.442.44a.027.027,0,0,0,.038,0,.026.026,0,0,0,0-.037l-.115-.116-.214-.213a.163.163,0,1,1,.214.213l.109.107.139-.182.007.006a.026.026,0,0,0,.035-.037h.009a.024.024,0,0,0,.034,0,.024.024,0,0,0,0-.034l-.126-.127L13.23,11.6l-.029-.029Zm.029.029.114.11.155-.18-.1-.1-.172.166Zm.141.139.109.107.084-.1.006.006a.022.022,0,0,0,.029,0l.051-.054-.032-.033-.022.025-.022-.023.022-.023-.032-.032-.022.023-.022-.023.022-.023-.033-.032-.051.051a.021.021,0,0,0,0,.029l.006.006-.091.089h0Zm-2.853-.4-.033.033.022.023-.022.023-.022-.023-.033.033.022.023-.024.023-.022-.023-.032.032.05.054a.022.022,0,0,0,.029,0l.116-.116a.02.02,0,0,0,0-.028l-.05-.054h0Zm2.926,0-.051.054a.019.019,0,0,0,0,.028l.115.116a.022.022,0,0,0,.029,0l.051-.054-.032-.032-.022.023-.024-.023.022-.023L13.5,11.41l-.022.023-.024-.023.022-.023-.032-.032Z" transform="translate(-9.923 -7.775)" fill="#ff0"/>
      <path id="Tracé_4413" data-name="Tracé 4413" d="M12.095,9.343v.4a.315.315,0,0,0,.081.212.264.264,0,0,0,.194.088.261.261,0,0,0,.192-.088.308.308,0,0,0,.073-.213v-.4h-.546Zm.125.1a.056.056,0,0,1,0,.111.056.056,0,0,1,0-.111Zm.3,0a.054.054,0,0,1,.054.054.054.054,0,1,1-.108,0A.054.054,0,0,1,12.523,9.441Zm-.153.148a.056.056,0,0,1,0,.111.056.056,0,0,1,0-.111Zm-.151.156a.055.055,0,0,1,.054.056.054.054,0,1,1-.108,0A.055.055,0,0,1,12.22,9.745Zm.3,0a.055.055,0,0,1,.054.054.056.056,0,0,1-.054.056.055.055,0,0,1-.054-.056A.053.053,0,0,1,12.522,9.745Zm-1.182.567v.4a.315.315,0,0,0,.081.212.255.255,0,0,0,.386,0,.315.315,0,0,0,.079-.213v-.4h-.545Zm.755,0v.4a.315.315,0,0,0,.081.212.264.264,0,0,0,.194.088.258.258,0,0,0,.192-.088.315.315,0,0,0,.081-.213v-.4h-.546Zm.755,0v.4a.315.315,0,0,0,.081.212.264.264,0,0,0,.194.088.258.258,0,0,0,.192-.088.315.315,0,0,0,.081-.213v-.4H12.85Zm-1.388.1a.055.055,0,0,1,.054.056.053.053,0,0,1-.054.054.054.054,0,0,1-.054-.054A.056.056,0,0,1,11.463,10.411Zm.3,0a.055.055,0,0,1,.054.056.054.054,0,1,1-.109,0A.056.056,0,0,1,11.766,10.411Zm.455,0a.055.055,0,0,1,.054.056.054.054,0,1,1-.108,0A.055.055,0,0,1,12.22,10.411Zm.3,0a.055.055,0,0,1,.054.056.053.053,0,0,1-.054.054.054.054,0,0,1-.054-.054A.056.056,0,0,1,12.524,10.411Zm.452,0a.055.055,0,0,1,.054.056.054.054,0,1,1-.108,0A.055.055,0,0,1,12.976,10.411Zm.3,0a.055.055,0,0,1,.054.056.054.054,0,1,1-.108,0A.055.055,0,0,1,13.278,10.411Zm-1.663.15a.055.055,0,0,1,.054.056.053.053,0,0,1-.054.054.054.054,0,0,1-.054-.054A.056.056,0,0,1,11.615,10.56Zm.755,0a.055.055,0,0,1,.054.056.054.054,0,1,1-.108,0A.055.055,0,0,1,12.371,10.56Zm.755,0a.055.055,0,0,1,.054.056.054.054,0,0,1-.109,0A.056.056,0,0,1,13.126,10.56Zm-1.36.154a.056.056,0,1,1-.054.056A.055.055,0,0,1,11.766,10.714Zm.755,0a.056.056,0,0,1,0,.111.056.056,0,0,1,0-.111Zm.755,0a.056.056,0,0,1,0,.111.056.056,0,0,1,0-.111Zm-1.814,0a.054.054,0,0,1,.054.054.054.054,0,1,1-.108,0A.054.054,0,0,1,11.463,10.716Zm.757,0a.055.055,0,0,1,.054.054.056.056,0,0,1-.054.056.055.055,0,0,1-.054-.056A.053.053,0,0,1,12.22,10.716Zm.755,0a.055.055,0,0,1,.054.054.056.056,0,0,1-.054.056.055.055,0,0,1-.054-.056A.053.053,0,0,1,12.976,10.716Zm-.88.56v.4a.315.315,0,0,0,.081.212.264.264,0,0,0,.194.088.258.258,0,0,0,.192-.088.309.309,0,0,0,.073-.213v-.4h-.546Zm.125.1a.055.055,0,0,1,.054.056.054.054,0,1,1-.108,0A.055.055,0,0,1,12.22,11.371Zm.3,0a.055.055,0,0,1,.054.056.053.053,0,0,1-.054.054.054.054,0,0,1-.054-.054A.056.056,0,0,1,12.524,11.371Zm-.153.15a.055.055,0,0,1,.054.056.054.054,0,1,1-.108,0A.055.055,0,0,1,12.371,11.52Zm.151.154a.056.056,0,0,1,0,.111.056.056,0,0,1,0-.111Zm-.3,0a.055.055,0,0,1,.054.054.056.056,0,0,1-.054.056.055.055,0,0,1-.054-.056A.053.053,0,0,1,12.22,11.676Z" transform="translate(-10.28 -8.178)" fill="#039"/>
    </g>
  </g>
</svg>
