<svg width="32" height="28" viewBox="0 0 32 28" fill="none" xmlns="http://www.w3.org/2000/svg">
<g id="Group 4429">
<path id="Path 3293" d="M0 22.0694L3.4082 27.0196C3.90298 26.3781 4.5575 25.8778 5.30664 25.5694C6.05578 25.261 6.87277 25.1555 7.67578 25.2628C10.5868 25.5498 10.8189 27.53 13.9619 27.21C17.1049 26.89 24.2194 22.3234 25.6084 21.2374C26.9974 20.1514 30.8364 17.149 31.2334 16.671C31.6304 16.193 30.8329 13.5718 26.1709 15.5538C21.5089 17.5358 18.4277 19.9968 16.8057 20.8888C15.1837 21.7808 12.4369 21.8174 13.1719 21.2384C13.9069 20.6594 13.4013 20.9518 15.1543 20.3448C16.9073 19.7378 17.9657 18.744 17.3037 18.044C16.6417 17.344 13.3673 15.968 8.57031 18.044C3.77331 20.12 0 22.0694 0 22.0694Z" fill="#727690"/>
<path id="Ellipse 422" d="M13.1121 14.502C15.8735 14.502 18.1121 12.2634 18.1121 9.50195C18.1121 6.74053 15.8735 4.50195 13.1121 4.50195C10.3506 4.50195 8.11206 6.74053 8.11206 9.50195C8.11206 12.2634 10.3506 14.502 13.1121 14.502Z" fill="#A1A4B3"/>
<path id="Exclusion 12" d="M21.5391 10.2217C20.7992 10.2238 20.0667 10.0741 19.3871 9.78169C19.4079 9.58872 19.4186 9.39479 19.4191 9.20069C19.4105 8.19982 19.1084 7.22346 18.5503 6.39262C17.9921 5.56179 17.2024 4.91301 16.2791 4.52669C16.4496 3.2591 17.0793 2.09814 18.0488 1.26392C19.0183 0.429696 20.2602 -0.019785 21.5391 0.00069326C22.9181 -0.0217932 24.2497 0.503534 25.2419 1.46147C26.2342 2.4194 26.806 3.73174 26.8321 5.11069C26.806 6.48973 26.2342 7.80218 25.242 8.76027C24.2498 9.71836 22.9182 10.2439 21.5391 10.2217Z" fill="#A1A4B3"/>
</g>
</svg>
