<svg width="42" height="15" viewBox="0 0 42 15" fill="none" xmlns="http://www.w3.org/2000/svg">
<g id="prelevement-sepa-mode 3" ClipPath="url(#clip0_2903_35563)">
<path id="path5605" d="M0.0131836 13.6521L0.44429 13.6106C0.457403 13.7307 0.512116 13.8425 0.599086 13.927C0.690081 13.998 0.803947 14.0338 0.919514 14.0277C1.03436 14.0359 1.1485 14.0041 1.24226 13.9378C1.27533 13.9133 1.30229 13.8815 1.32107 13.8451C1.33986 13.8086 1.34997 13.7683 1.35062 13.7274C1.35173 13.6796 1.33553 13.633 1.30496 13.596C1.26066 13.5519 1.2058 13.5197 1.14552 13.5023C1.09392 13.4844 0.975756 13.4527 0.791033 13.4071C0.610272 13.3742 0.439506 13.3006 0.291816 13.1921C0.227783 13.1383 0.176481 13.0712 0.141565 12.9956C0.106648 12.9199 0.0889765 12.8375 0.0898076 12.7543C0.090511 12.6448 0.123616 12.538 0.185007 12.4471C0.251825 12.3462 0.34829 12.2682 0.461318 12.2236C0.599312 12.1691 0.747037 12.1429 0.89552 12.1468C1.11693 12.1314 1.33658 12.1951 1.5147 12.3265C1.58368 12.3862 1.63894 12.4598 1.67673 12.5425C1.71452 12.6252 1.73396 12.715 1.73374 12.8058L1.29102 12.8249C1.28214 12.7324 1.23882 12.6464 1.16951 12.5838C1.0871 12.5279 0.988214 12.5008 0.888555 12.507C0.782292 12.5004 0.676635 12.5272 0.586702 12.5838C0.564459 12.5986 0.546344 12.6188 0.534034 12.6424C0.521723 12.6661 0.515614 12.6924 0.51627 12.719C0.516298 12.7445 0.522246 12.7697 0.533653 12.7926C0.54506 12.8155 0.561622 12.8355 0.582059 12.8511C0.7074 12.9243 0.845501 12.9736 0.989172 12.9962C1.15386 13.0287 1.31414 13.0803 1.46672 13.1498C1.5661 13.2005 1.64981 13.2769 1.70897 13.371C1.7703 13.4763 1.8006 13.5966 1.79643 13.7181C1.79651 13.8425 1.76021 13.9641 1.69195 14.0684C1.62102 14.1779 1.51738 14.2628 1.39551 14.3111C1.24318 14.3673 1.0812 14.3934 0.91874 14.3878C0.689752 14.407 0.461536 14.3431 0.276337 14.2081C0.120134 14.063 0.025951 13.864 0.0131836 13.6521Z" fill="#727690"/>
<path id="path5607" d="M2.25769 12.1846H2.67796V12.5686H2.25769V12.1846ZM2.25769 12.7844H2.67796V14.3611H2.25769V12.7844Z" fill="#727690"/>
<path id="path5611" d="M4.64701 14.3603H4.22674V13.5554C4.23267 13.4446 4.22356 13.3335 4.19965 13.2252C4.18396 13.1779 4.15328 13.1369 4.11219 13.1084C4.06893 13.0799 4.01782 13.0654 3.96591 13.067C3.89604 13.0661 3.82762 13.0867 3.77009 13.1261C3.71418 13.1626 3.67221 13.2167 3.6509 13.2797C3.62365 13.3985 3.61272 13.5205 3.61839 13.6422V14.3564H3.19812V12.7836H3.58511V13.014C3.67092 12.8969 3.79387 12.8119 3.93422 12.7725C4.07457 12.733 4.22419 12.7415 4.35909 12.7966C4.42707 12.8234 4.48701 12.8671 4.53324 12.9233C4.57274 12.9753 4.6007 13.035 4.61528 13.0984C4.63324 13.1908 4.64102 13.2848 4.6385 13.3788L4.64701 14.3603Z" fill="#727690"/>
<path id="path5615" d="M5.12448 14.4641L5.60435 14.5225C5.60543 14.5443 5.61092 14.5656 5.62049 14.5853C5.63006 14.605 5.64352 14.6225 5.66007 14.6369C5.71671 14.6712 5.78281 14.6867 5.84892 14.6814C5.93413 14.6866 6.01922 14.6697 6.09582 14.6323C6.13494 14.6077 6.16442 14.5706 6.17941 14.5271C6.19558 14.4647 6.2021 14.4002 6.19876 14.3358V14.1054C6.1472 14.1839 6.07674 14.2483 5.99377 14.293C5.9108 14.3377 5.81793 14.3611 5.72354 14.3612C5.62288 14.3634 5.52336 14.3398 5.43456 14.2927C5.34576 14.2456 5.27069 14.1766 5.21658 14.0924C5.11414 13.9354 5.0628 13.7509 5.06953 13.564C5.05453 13.3454 5.12337 13.1292 5.26225 12.9588C5.32165 12.8914 5.39517 12.8378 5.47765 12.8016C5.56014 12.7654 5.64961 12.7475 5.73979 12.7491C5.83586 12.7487 5.93055 12.7719 6.01537 12.8167C6.10019 12.8614 6.17251 12.9264 6.22585 13.0056V12.7845H6.61903V14.1984C6.62462 14.3389 6.60897 14.4795 6.57259 14.6154C6.5479 14.6971 6.50323 14.7715 6.44257 14.832C6.37812 14.8889 6.30171 14.9309 6.21888 14.9549C6.10393 14.9874 5.98467 15.0024 5.86518 14.9994C5.66422 15.0174 5.46289 14.9691 5.29243 14.8619C5.23902 14.8209 5.19596 14.7681 5.16668 14.7077C5.13739 14.6474 5.12268 14.581 5.1237 14.514L5.12448 14.4641ZM5.49986 13.5425C5.48916 13.6724 5.52387 13.8021 5.59815 13.9096C5.62671 13.946 5.66335 13.9755 5.70524 13.9956C5.74712 14.0157 5.79311 14.026 5.83963 14.0256C5.88916 14.0261 5.93818 14.0157 5.98316 13.9951C6.02813 13.9745 6.06794 13.9442 6.09969 13.9065C6.17738 13.8053 6.2151 13.6794 6.20573 13.5525C6.21592 13.4233 6.18003 13.2947 6.10434 13.1892C6.07331 13.1512 6.03397 13.1208 5.98931 13.1002C5.94466 13.0795 5.89585 13.0693 5.8466 13.0702C5.79886 13.0691 5.75152 13.079 5.70829 13.0991C5.66505 13.1193 5.62709 13.149 5.59738 13.1861C5.52406 13.2898 5.48931 13.4155 5.49908 13.5417" fill="#727690"/>
<path id="path5617" d="M7.12524 12.1846H7.54552V14.3603H7.12524V12.1846Z" fill="#727690"/>
<path id="path5621" d="M8.98822 13.8585L9.40694 13.9284C9.36184 14.0686 9.27224 14.1907 9.15153 14.2763C9.0222 14.3599 8.87 14.4017 8.71578 14.3961C8.59909 14.4049 8.48202 14.3849 8.37495 14.338C8.26789 14.2911 8.17414 14.2188 8.10201 14.1273C7.99325 13.9674 7.93899 13.7771 7.94722 13.5843C7.93386 13.3608 8.00787 13.1407 8.15387 12.9699C8.21959 12.8978 8.30023 12.8407 8.39026 12.8024C8.48029 12.7641 8.5776 12.7455 8.67553 12.748C8.7802 12.7427 8.88471 12.7607 8.9815 12.8006C9.0783 12.8404 9.16493 12.9011 9.23512 12.9784C9.38698 13.1834 9.45676 13.4371 9.43094 13.6903H8.37832C8.37467 13.7957 8.41083 13.8987 8.47972 13.9791C8.51037 14.0124 8.54785 14.0388 8.58963 14.0565C8.63141 14.0743 8.67653 14.083 8.72197 14.082C8.78206 14.0839 8.84093 14.0649 8.88838 14.0282C8.93922 13.9826 8.97463 13.9225 8.98977 13.8562M9.01376 13.4346C9.01803 13.3344 8.98434 13.2363 8.91934 13.1596C8.89179 13.1294 8.85808 13.1054 8.82045 13.0891C8.78282 13.0728 8.74212 13.0646 8.70107 13.0651C8.65808 13.0642 8.6154 13.0726 8.57607 13.0899C8.53674 13.1071 8.50173 13.1328 8.47352 13.165C8.41036 13.2406 8.37878 13.3373 8.38529 13.4353L9.01376 13.4346Z" fill="#727690"/>
<path id="path5625" d="M10.8118 14.3603V12.1846H12.4371V12.5524H11.2545V13.0348H12.3551V13.4011H11.2545V13.9932H12.4797V14.3596L10.8118 14.3603Z" fill="#727690"/>
<path id="path5629" d="M13.9889 14.3599V14.1241C13.9308 14.2084 13.8523 14.2768 13.7606 14.3231C13.6685 14.3712 13.5659 14.3962 13.4618 14.396C13.3616 14.3977 13.2627 14.3736 13.1747 14.3261C13.093 14.2831 13.0281 14.2142 12.9905 14.1303C12.9479 14.0191 12.9287 13.9004 12.934 13.7816V12.7832H13.3542V13.5074C13.3479 13.6438 13.3557 13.7805 13.3775 13.9152C13.3912 13.9632 13.421 14.0052 13.4618 14.0343C13.5075 14.0647 13.5617 14.08 13.6166 14.0781C13.6857 14.0791 13.7533 14.0587 13.8101 14.0197C13.8637 13.9846 13.9047 13.9335 13.927 13.8738C13.9556 13.7338 13.9662 13.5909 13.9587 13.4483V12.7832H14.379V14.3599H13.9889Z" fill="#727690"/>
<path id="path5633" d="M15.3086 14.3599H14.8883V12.7832H15.2753V13.0075C15.3201 12.9259 15.3815 12.8545 15.4556 12.7978C15.51 12.7637 15.5732 12.7461 15.6375 12.7471C15.7352 12.7471 15.8311 12.7736 15.9146 12.8239L15.7846 13.1872C15.7267 13.1461 15.6582 13.1224 15.5872 13.1188C15.5333 13.1172 15.4804 13.1343 15.4378 13.1672C15.3881 13.2139 15.3543 13.2749 15.3411 13.3415C15.3102 13.5159 15.2982 13.6931 15.3055 13.8699L15.3086 14.3599Z" fill="#727690"/>
<path id="path5637" d="M16.0934 13.5504C16.0937 13.4099 16.1291 13.2716 16.1963 13.148C16.2613 13.0218 16.3633 12.9181 16.4889 12.8508C16.6187 12.7816 16.7642 12.7465 16.9115 12.7486C17.0207 12.7445 17.1296 12.7629 17.2314 12.8025C17.3332 12.8422 17.4256 12.9023 17.5028 12.979C17.6518 13.1399 17.7344 13.3504 17.7344 13.5688C17.7344 13.7873 17.6518 13.9978 17.5028 14.1587C17.4269 14.236 17.3356 14.2968 17.2347 14.3373C17.1339 14.3777 17.0256 14.3969 16.9169 14.3937C16.7723 14.3941 16.6296 14.3607 16.5005 14.2961C16.3721 14.2343 16.2668 14.1337 16.1994 14.0089C16.1269 13.8662 16.0915 13.7078 16.0965 13.5481M16.5276 13.5704C16.5187 13.6999 16.5587 13.828 16.6398 13.9298C16.6742 13.9689 16.7167 14.0003 16.7644 14.0218C16.812 14.0433 16.8638 14.0544 16.9161 14.0544C16.9685 14.0544 17.0202 14.0433 17.0679 14.0218C17.1155 14.0003 17.158 13.9689 17.1924 13.9298C17.2732 13.8267 17.3129 13.6976 17.3039 13.5673C17.3123 13.4389 17.2726 13.312 17.1924 13.211C17.1579 13.1719 17.1154 13.1407 17.0678 13.1193C17.0201 13.0979 16.9684 13.0868 16.9161 13.0868C16.8638 13.0868 16.8121 13.0979 16.7645 13.1193C16.7168 13.1407 16.6743 13.1719 16.6398 13.211C16.5587 13.3128 16.5187 13.4409 16.5276 13.5704Z" fill="#727690"/>
<path id="path5641" d="M19.0995 14.3605V12.1847H19.81C19.9861 12.1776 20.1624 12.1884 20.3363 12.217C20.4629 12.2502 20.5743 12.3252 20.6521 12.4297C20.7411 12.5529 20.7858 12.7022 20.779 12.8537C20.7827 12.9701 20.7575 13.0856 20.7055 13.19C20.6618 13.2754 20.5981 13.3492 20.5197 13.4051C20.45 13.4544 20.3711 13.4893 20.2875 13.508C20.1358 13.5323 19.9822 13.5428 19.8286 13.5395H19.5399V14.3605H19.0995ZM19.5422 12.5526V13.167H19.7845C19.9021 13.1737 20.0201 13.1623 20.1343 13.1332C20.1909 13.1127 20.2396 13.075 20.2735 13.0255C20.3073 12.9761 20.3247 12.9173 20.3231 12.8575C20.3257 12.7857 20.3005 12.7156 20.2527 12.6617C20.206 12.6105 20.1433 12.5764 20.0747 12.5649C19.9689 12.5522 19.8623 12.5473 19.7558 12.5503L19.5422 12.5526Z" fill="#727690"/>
<path id="path5645" d="M21.546 13.2647L21.1645 13.1963C21.1957 13.0611 21.2741 12.9411 21.3858 12.8576C21.526 12.7755 21.6878 12.7373 21.8502 12.7478C21.9929 12.7401 22.1357 12.7626 22.2689 12.8139C22.3496 12.8481 22.4173 12.9066 22.4624 12.9813C22.5086 13.1001 22.5276 13.2276 22.5181 13.3545L22.5135 13.8415C22.5107 13.9442 22.5174 14.0471 22.5336 14.1487C22.5502 14.2221 22.5762 14.293 22.611 14.3599H22.1954C22.1846 14.3322 22.1706 14.2907 22.1544 14.237C22.1474 14.2124 22.1428 14.1955 22.1397 14.1878C22.0724 14.2527 21.9937 14.3048 21.9075 14.3414C21.8247 14.3761 21.7357 14.3936 21.6459 14.3929C21.5044 14.4008 21.3655 14.3533 21.2589 14.2608C21.2126 14.2183 21.1761 14.1666 21.1517 14.1089C21.1272 14.0513 21.1155 13.9892 21.1172 13.9267C21.1158 13.8429 21.138 13.7605 21.1815 13.6886C21.2244 13.6187 21.2871 13.5629 21.3618 13.5281C21.4688 13.4823 21.5811 13.4498 21.6962 13.4313C21.835 13.4099 21.9716 13.3757 22.1041 13.3292V13.2877C22.1073 13.2566 22.1036 13.2251 22.0933 13.1956C22.083 13.166 22.0664 13.139 22.0445 13.1165C21.977 13.0749 21.8975 13.0568 21.8185 13.065C21.757 13.0615 21.6959 13.0767 21.6435 13.1088C21.5948 13.1485 21.5594 13.2021 21.5422 13.2624M22.1041 13.6011C22.0507 13.6187 21.9655 13.6402 21.8486 13.6648C21.7678 13.6767 21.6894 13.7013 21.6165 13.7378C21.5914 13.7534 21.5707 13.775 21.5564 13.8006C21.542 13.8263 21.5345 13.8551 21.5344 13.8845C21.5339 13.9132 21.5394 13.9418 21.5508 13.9682C21.5621 13.9947 21.579 14.0185 21.6002 14.0381C21.6224 14.0591 21.6487 14.0756 21.6773 14.0866C21.706 14.0975 21.7367 14.1027 21.7674 14.1018C21.8461 14.1001 21.9221 14.0732 21.9841 14.025C22.0321 13.9912 22.0674 13.9426 22.0847 13.8868C22.0983 13.8198 22.1037 13.7515 22.101 13.6832L22.1041 13.6011Z" fill="#727690"/>
<path id="path5649" d="M22.8285 12.7832H23.2759L23.6559 13.9022L24.0266 12.7832H24.4624L23.9012 14.3L23.8014 14.5742C23.7738 14.648 23.7385 14.7188 23.6961 14.7854C23.6651 14.8314 23.6261 14.8714 23.5808 14.9037C23.5319 14.9363 23.4777 14.9602 23.4206 14.9743C23.3505 14.992 23.2785 15.0005 23.2062 14.9997C23.1263 14.9997 23.0466 14.9913 22.9686 14.9743L22.9307 14.6479C22.9892 14.6599 23.0489 14.6664 23.1087 14.6671C23.149 14.6704 23.1895 14.6644 23.2271 14.6496C23.2646 14.6348 23.2983 14.6117 23.3254 14.5819C23.3762 14.5176 23.4131 14.4436 23.4337 14.3645L22.8285 12.7832Z" fill="#727690"/>
<path id="path5653" d="M24.7921 12.7845H25.1791V12.9995C25.2364 12.9224 25.311 12.8596 25.3969 12.816C25.4829 12.7724 25.5779 12.7493 25.6744 12.7484C25.7666 12.7461 25.8577 12.7676 25.9391 12.8106C26.0169 12.8554 26.0807 12.9208 26.1233 12.9995C26.185 12.922 26.2619 12.8578 26.3493 12.8106C26.4291 12.7693 26.5178 12.7479 26.6078 12.7484C26.7109 12.745 26.813 12.7691 26.9035 12.8182C26.9849 12.8661 27.0485 12.9388 27.0846 13.0256C27.119 13.1309 27.1337 13.2415 27.1279 13.352V14.3596H26.7077V13.4611C26.717 13.3582 26.7021 13.2547 26.6643 13.1585C26.6451 13.1292 26.6183 13.1055 26.5867 13.0898C26.5551 13.0741 26.52 13.0671 26.4848 13.0694C26.425 13.0696 26.3668 13.0884 26.3184 13.1231C26.265 13.1608 26.2256 13.2147 26.2061 13.2767C26.1784 13.383 26.1666 13.4927 26.1713 13.6024V14.3596H25.751V13.4972C25.7561 13.3976 25.7485 13.2977 25.7286 13.1999C25.7171 13.16 25.6926 13.1249 25.6589 13.1001C25.6207 13.0766 25.5761 13.0654 25.5312 13.0678C25.469 13.0672 25.4081 13.0851 25.3563 13.1193C25.3026 13.1565 25.2633 13.2106 25.2449 13.2729C25.2174 13.3789 25.206 13.4884 25.2108 13.5978V14.3658H24.7905L24.7921 12.7845Z" fill="#727690"/>
<path id="path5657" d="M28.5591 13.8585L28.9779 13.9284C28.9327 14.0687 28.8432 14.1907 28.7224 14.2763C28.5931 14.3598 28.4409 14.4017 28.2867 14.3961C28.17 14.4049 28.0529 14.3849 27.9459 14.338C27.8388 14.2911 27.745 14.2188 27.6729 14.1273C27.5642 13.9674 27.5099 13.7771 27.5181 13.5843C27.5048 13.3608 27.5788 13.1408 27.7248 12.9699C27.7905 12.8978 27.8711 12.8407 27.9612 12.8024C28.0512 12.7641 28.1485 12.7455 28.2464 12.748C28.3511 12.7427 28.4556 12.7606 28.5524 12.8005C28.6492 12.8404 28.7359 12.9011 28.806 12.9784C28.9578 13.1835 29.0275 13.4371 29.0018 13.6903H27.9485C27.9448 13.7958 27.981 13.8987 28.0499 13.9791C28.0805 14.0124 28.118 14.0388 28.1598 14.0565C28.2015 14.0743 28.2467 14.083 28.2921 14.082C28.3522 14.0838 28.411 14.0648 28.4585 14.0282C28.5094 13.9826 28.5448 13.9225 28.5599 13.8562M28.5839 13.4346C28.588 13.3345 28.5543 13.2364 28.4895 13.1596C28.4607 13.1294 28.4259 13.1055 28.3874 13.0893C28.3488 13.0731 28.3073 13.065 28.2654 13.0655C28.2235 13.066 28.1822 13.0751 28.144 13.0922C28.1059 13.1093 28.0717 13.1341 28.0437 13.165C27.9805 13.2406 27.9489 13.3373 27.9554 13.4353L28.5839 13.4346Z" fill="#727690"/>
<path id="path5661" d="M30.8794 14.3601H30.4592V13.5552C30.465 13.4444 30.4559 13.3334 30.4321 13.225C30.4164 13.1777 30.3857 13.1368 30.3446 13.1083C30.3014 13.0797 30.2502 13.0652 30.1983 13.0668C30.1285 13.0659 30.0601 13.0866 30.0025 13.1259C29.9466 13.1625 29.9047 13.2166 29.8833 13.2795C29.8563 13.3984 29.8454 13.5203 29.8508 13.642V14.3563H29.4305V12.7834H29.8175V13.0138C29.9034 12.8969 30.0264 12.8119 30.1667 12.7725C30.307 12.7331 30.4566 12.7415 30.5915 12.7964C30.6595 12.8233 30.7194 12.8669 30.7657 12.9232C30.8052 12.9751 30.8331 13.0348 30.8477 13.0983C30.8656 13.1906 30.8734 13.2846 30.8709 13.3786L30.8794 14.3601Z" fill="#727690"/>
<path id="path5665" d="M32.1233 12.7843V13.1169H31.8361V13.752C31.8336 13.8272 31.8364 13.9024 31.8447 13.9771L31.8818 14.0301C31.9027 14.0444 31.9276 14.0516 31.953 14.0508C32.011 14.0465 32.068 14.033 32.1217 14.0109L32.1573 14.3342C32.0521 14.3772 31.9391 14.3983 31.8253 14.3964C31.7554 14.3973 31.6859 14.3845 31.621 14.3588C31.5679 14.3392 31.5214 14.3051 31.4871 14.2605C31.4551 14.2116 31.4347 14.1562 31.4275 14.0984C31.4155 14.0008 31.4108 13.9025 31.4135 13.8043V13.1169H31.2208V12.7843H31.4135V12.471L31.8354 12.2275V12.7843H32.1233Z" fill="#727690"/>
<path id="path5669" d="M32.3617 13.9103L32.7835 13.8466C32.7965 13.919 32.8352 13.9844 32.8926 14.0309C32.9608 14.077 33.0425 14.0991 33.1248 14.0939C33.2108 14.0998 33.2965 14.0792 33.3702 14.0347C33.3878 14.022 33.402 14.0052 33.4116 13.9858C33.4211 13.9664 33.4258 13.945 33.4251 13.9234C33.4255 13.8948 33.4147 13.8673 33.395 13.8466C33.3528 13.818 33.3046 13.7994 33.2541 13.792C33.0302 13.7565 32.8128 13.6879 32.6094 13.5885C32.5498 13.5506 32.5011 13.4979 32.4681 13.4357C32.4352 13.3735 32.419 13.3039 32.4213 13.2337C32.4206 13.1678 32.435 13.1027 32.4632 13.0431C32.4915 12.9835 32.533 12.9311 32.5846 12.8896C32.7313 12.7851 32.9108 12.7359 33.0908 12.7506C33.2591 12.739 33.4272 12.7755 33.5753 12.8558C33.6838 12.93 33.7614 13.0408 33.7935 13.1676L33.3973 13.2406C33.3834 13.1834 33.349 13.1332 33.3005 13.0993C33.2395 13.063 33.1688 13.0459 33.0977 13.0501C33.0158 13.044 32.9337 13.06 32.8601 13.0962C32.8455 13.105 32.8333 13.1174 32.8249 13.1322C32.8165 13.147 32.8121 13.1637 32.8121 13.1807C32.8122 13.196 32.8161 13.2111 32.8235 13.2245C32.831 13.2379 32.8417 13.2493 32.8547 13.2575C32.9798 13.3135 33.1117 13.353 33.2471 13.375C33.4151 13.4022 33.5752 13.4654 33.7162 13.5601C33.76 13.5982 33.7946 13.6456 33.8173 13.6988C33.8401 13.752 33.8505 13.8096 33.8477 13.8673C33.8476 13.939 33.8311 14.0098 33.7994 14.0743C33.7678 14.1388 33.7219 14.1954 33.6651 14.2398C33.5089 14.3538 33.3166 14.4083 33.1233 14.3934C32.9426 14.403 32.7632 14.3574 32.6094 14.2628C32.4854 14.179 32.3972 14.0526 32.3617 13.908" fill="#727690"/>
<path id="path5673" d="M37.1154 14.3603H36.634L36.4428 13.8657H35.5667L35.3856 14.3603H34.9158L35.7671 12.1846H36.2354L37.1154 14.3603ZM36.3004 13.4994L35.9978 12.6922L35.7014 13.4994H36.3004Z" fill="#727690"/>
<path id="path5677" d="M37.8414 14.3599H37.4211V12.7832H37.8081V13.0075C37.853 12.9259 37.9144 12.8545 37.9885 12.7978C38.0429 12.7637 38.1061 12.7461 38.1704 12.7471C38.2681 12.7471 38.3639 12.7736 38.4474 12.8239L38.3174 13.1872C38.2596 13.1461 38.1911 13.1224 38.12 13.1188C38.0661 13.1172 38.0133 13.1343 37.9707 13.1672C37.921 13.214 37.8872 13.2749 37.8739 13.3415C37.8435 13.516 37.8318 13.6931 37.8391 13.8699L37.8414 14.3599Z" fill="#727690"/>
<path id="path5681" d="M39.6425 13.8585L40.0612 13.9284C40.0163 14.0686 39.927 14.1906 39.8065 14.2763C39.6772 14.3597 39.525 14.4016 39.3708 14.3961C39.2541 14.4049 39.137 14.3849 39.03 14.338C38.9229 14.2911 38.8291 14.2188 38.757 14.1273C38.6483 13.9674 38.594 13.7771 38.6022 13.5843C38.5889 13.3608 38.663 13.1408 38.8089 12.9699C38.8746 12.8978 38.9552 12.8407 39.0453 12.8024C39.1353 12.7641 39.2326 12.7455 39.3305 12.748C39.4352 12.7427 39.5397 12.7606 39.6365 12.8005C39.7333 12.8404 39.82 12.9011 39.8901 12.9784C40.042 13.184 40.1115 13.4383 40.0852 13.6919H39.0318C39.0281 13.7973 39.0643 13.9003 39.1332 13.9806C39.1638 14.0139 39.2013 14.0403 39.2431 14.0581C39.2849 14.0758 39.33 14.0845 39.3754 14.0835C39.4355 14.0854 39.4944 14.0664 39.5418 14.0298C39.5927 13.9842 39.6281 13.9241 39.6432 13.8577M39.6672 13.4361C39.6713 13.336 39.6377 13.2379 39.5728 13.1612C39.544 13.131 39.5092 13.107 39.4707 13.0908C39.4321 13.0746 39.3906 13.0665 39.3487 13.067C39.3068 13.0675 39.2655 13.0766 39.2274 13.0938C39.1892 13.1109 39.155 13.1357 39.127 13.1665C39.0638 13.2421 39.0322 13.3389 39.0388 13.4369L39.6672 13.4361Z" fill="#727690"/>
<path id="path5685" d="M40.8336 13.2647L40.4521 13.1963C40.4834 13.0611 40.5617 12.9411 40.6734 12.8576C40.8136 12.7756 40.9754 12.7373 41.1378 12.7478C41.2805 12.74 41.4233 12.7626 41.5565 12.8138C41.6372 12.8481 41.7049 12.9067 41.75 12.9813C41.7965 13.1 41.8158 13.2275 41.8065 13.3545L41.8019 13.8414C41.7992 13.9442 41.806 14.0471 41.822 14.1486C41.8386 14.222 41.8646 14.293 41.8994 14.3598H41.4838C41.4722 14.3322 41.459 14.2907 41.4435 14.237C41.4366 14.2124 41.4312 14.1955 41.4288 14.1878C41.3616 14.2527 41.2829 14.3048 41.1966 14.3414C41.1139 14.3761 41.0249 14.3936 40.935 14.3929C40.7936 14.4007 40.6547 14.3533 40.548 14.2608C40.5018 14.2183 40.4653 14.1665 40.4409 14.1089C40.4165 14.0513 40.4047 13.9892 40.4064 13.9267C40.4049 13.8429 40.4271 13.7604 40.4706 13.6886C40.5137 13.6188 40.5764 13.563 40.651 13.5281C40.758 13.4823 40.8703 13.4498 40.9853 13.4313C41.1244 13.4099 41.2613 13.3757 41.394 13.3292V13.2877C41.3973 13.2566 41.3936 13.2251 41.3833 13.1955C41.373 13.1659 41.3563 13.1389 41.3344 13.1164C41.2669 13.0749 41.1874 13.0567 41.1084 13.065C41.047 13.0615 40.9859 13.0768 40.9335 13.1088C40.8847 13.1485 40.8493 13.2021 40.8321 13.2624M41.3948 13.6011C41.3414 13.6187 41.2562 13.6402 41.1394 13.6648C41.0585 13.6766 40.9801 13.7012 40.9072 13.7378C40.8821 13.7533 40.8614 13.775 40.8471 13.8006C40.8328 13.8263 40.8252 13.8551 40.8251 13.8844C40.8246 13.9132 40.8302 13.9418 40.8415 13.9682C40.8528 13.9947 40.8697 14.0185 40.8909 14.0381C40.9132 14.0592 40.9396 14.0758 40.9684 14.0867C40.9973 14.0977 41.028 14.1028 41.0589 14.1018C41.1376 14.1001 41.2136 14.0732 41.2756 14.025C41.3237 13.9913 41.3591 13.9427 41.3762 13.8868C41.3899 13.8198 41.3953 13.7515 41.3925 13.6832L41.3948 13.6011Z" fill="#727690"/>
<path id="path5689" d="M9.33088 3.63259H6.4571C6.48718 3.30896 6.43002 2.98321 6.29146 2.68871C6.1217 2.4537 5.64984 2.33619 4.87586 2.33619C4.37017 2.2963 3.86178 2.366 3.38595 2.54048C3.14085 2.67719 3.0183 2.97467 3.0183 3.43291C2.99609 3.5855 3.01424 3.74119 3.07096 3.88472C3.12767 4.02824 3.22102 4.15468 3.34183 4.25161C3.53004 4.35399 3.74025 4.41009 3.95482 4.4152L4.53685 4.45513C5.77883 4.53654 6.55462 4.59389 6.86421 4.62717C7.64288 4.64685 8.39345 4.91994 9.00039 5.40439C9.35413 5.74604 9.57365 6.20157 9.61958 6.68927C9.66061 7.0462 9.68 7.40525 9.67762 7.76449C9.71206 8.44606 9.6224 9.12821 9.41292 9.77821C9.21607 10.1913 8.91309 10.5457 8.53444 10.8058C8.15579 11.0658 7.71481 11.2224 7.25584 11.2597C6.54444 11.3638 5.8254 11.4078 5.1065 11.391C3.97731 11.4387 2.84662 11.3427 1.74201 11.1053C1.386 11.0141 1.05881 10.8355 0.790489 10.586C0.522173 10.3366 0.321338 10.0242 0.206437 9.6776C0.0388991 9.03015 -0.0307458 8.36159 -0.000215575 7.69383H2.87357C2.87357 7.79674 2.87357 7.87662 2.87357 7.93114C2.87357 8.42574 3.01676 8.7437 3.30313 8.88501C3.52828 8.98792 3.7735 9.04037 4.02138 9.03862H5.07786C5.42393 9.05782 5.77103 9.03017 6.10958 8.95644C6.22833 8.91709 6.33673 8.85192 6.42685 8.76569C6.51696 8.67945 6.58653 8.57433 6.63047 8.458C6.67916 8.27936 6.70132 8.09463 6.69626 7.90964C6.69626 7.40839 6.51205 7.10297 6.14363 6.9934C5.50667 6.8979 4.8648 6.8379 4.22107 6.81369C3.30261 6.74867 2.6646 6.68595 2.30702 6.62553C1.93299 6.5941 1.57054 6.48124 1.24547 6.295C0.920396 6.10876 0.640687 5.85372 0.426247 5.54801C0.109781 4.89389 -0.0322581 4.17013 0.0137161 3.44597C-0.00486794 2.86541 0.0703874 2.28564 0.236622 1.7287C0.360384 1.33166 0.613235 0.986503 0.955649 0.747181C1.50758 0.381028 2.14996 0.171737 2.8132 0.141989C3.44219 0.0877167 4.13954 0.0603244 4.90527 0.0598124C5.76977 0.0291428 6.63495 0.0982145 7.48339 0.265639C8.73414 0.598955 9.35952 1.53286 9.35952 3.06734C9.35952 3.19329 9.35023 3.38145 9.33166 3.63259" fill="#727690"/>
<path id="path5693" d="M21.9702 11.3888V1.35987e-05H27.7255C28.3335 -0.0211546 28.9415 0.0434921 29.5312 0.192016C29.9734 0.315088 30.3783 0.544029 30.7104 0.858725C31.0425 1.17342 31.2917 1.56424 31.436 1.99684C31.6331 2.69899 31.7183 3.42743 31.6883 4.15571C31.7277 4.99525 31.6339 5.83571 31.4104 6.64637C31.2445 7.12436 30.9399 7.54304 30.5349 7.8498C30.1299 8.15656 29.6426 8.33773 29.1342 8.37055C28.9995 8.39308 28.4252 8.41254 27.4113 8.42892L26.8989 8.44582H25.0576V11.3865L21.9702 11.3888ZM25.0592 5.80617H26.9848C27.3621 5.82021 27.7392 5.77247 28.1009 5.66485C28.2027 5.59814 28.2883 5.50989 28.3516 5.40645C28.4149 5.30301 28.4543 5.18693 28.467 5.06657C28.5128 4.77267 28.5323 4.4753 28.525 4.17799C28.5399 3.81582 28.5005 3.45347 28.4082 3.10277C28.3471 2.93746 28.2393 2.79315 28.0976 2.68716C27.9559 2.58117 27.7864 2.51801 27.6094 2.50526C27.5258 2.49451 27.3262 2.48837 27.0104 2.48837H25.0592V5.80617Z" fill="#727690"/>
<path id="path5697" d="M38.2826 9.42041H34.1527L33.5977 11.3888H30.402L33.8501 0H38.5094L42.0001 11.3888H38.8716L38.2826 9.42041ZM37.6689 7.20163L36.2215 2.26486L34.8168 7.20163H37.6689Z" fill="#727690"/>
<path id="path5701" d="M17.7055 1.6018C18.311 1.60151 18.9089 1.73557 19.4554 1.99417C20.0019 2.25276 20.4832 2.62934 20.8641 3.09634L21.5298 1.67937C20.8439 1.03876 20.0124 0.571866 19.1058 0.318339C18.1992 0.0648108 17.2444 0.0321391 16.3224 0.223098C15.4003 0.414057 14.5384 0.823006 13.8097 1.41521C13.081 2.00742 12.5071 2.76538 12.1368 3.62473H10.8388L10.0718 5.25599H11.742C11.7296 5.40959 11.7211 5.55858 11.7211 5.71679C11.7213 5.90199 11.7308 6.08706 11.7498 6.2713H10.9108L10.1445 7.90255H12.1778C12.6336 8.92666 13.381 9.79637 14.3281 10.4049C15.2751 11.0134 16.3807 11.3342 17.5089 11.3279C18.6671 11.3305 19.8 10.9921 20.7643 10.3556V8.35875C20.3509 8.8275 19.8338 9.19487 19.2533 9.43205C18.6729 9.66923 18.045 9.76977 17.4189 9.7258C16.7927 9.68183 16.1853 9.49454 15.6444 9.17861C15.1034 8.86268 14.6435 8.4267 14.3008 7.90485H18.5577L19.3232 6.27053H13.6731C13.6236 5.93427 13.6166 5.5932 13.6522 5.25522H19.8015L20.5677 3.62397H14.1808C14.5377 3.00942 15.0513 2.49894 15.67 2.14383C16.2887 1.78872 16.9908 1.60228 17.7055 1.6018Z" fill="#727690"/>
</g>
<defs>
<clipPath id="clip0_2903_35563">
<rect width="42" height="15" fill="white"/>
</clipPath>
</defs>
</svg>
