<svg width="42" height="27" viewBox="0 0 42 27" fill="none" xmlns="http://www.w3.org/2000/svg">
<g id="VIREMENT SEPA">
<path id="Subtraction 2" d="M16.6954 13.6143H14.3097V6.0625H16.6954V8.01172L14.5333 10.1953L16.6954 12.3389V13.6143Z" fill="#727690"/>
<g id="Group 3372">
<path id="Path 3219" d="M1.474 5.30493H17.946L9.69299 0L1.474 5.30493Z" fill="#727690"/>
<path id="Rectangle 387" d="M5.36696 6.06152H2.78296V13.6145H5.36696V6.06152Z" fill="#727690"/>
<path id="Rectangle 388" d="M9.14306 6.06152H6.75806V13.6145H9.14306V6.06152Z" fill="#727690"/>
<path id="Rectangle 389" d="M12.9191 6.06152H10.5341V13.6145H12.9191V6.06152Z" fill="#727690"/>
<path id="Rectangle 391" d="M17.888 13.6152H1.58997V15.4042H17.888V13.6152Z" fill="#A1A4B3"/>
<path id="Rectangle 392" d="M19.479 16H0V17.737H19.479V16Z" fill="#727690"/>
</g>
<path id="Subtraction 3" d="M27.6263 13.6143H25.0424V9.62793L26.7699 7.91992L25.0424 6.17578V6.06348H27.6263V13.6143Z" fill="#727690"/>
<g id="Group 3373">
<path id="Path 3219_2" d="M23.735 5.30493H40.207L31.954 0L23.735 5.30493Z" fill="#727690"/>
<path id="Rectangle 388_2" d="M31.4039 6.06152H29.0189V13.6145H31.4039V6.06152Z" fill="#727690"/>
<path id="Rectangle 389_2" d="M35.1799 6.06152H32.7949V13.6145H35.1799V6.06152Z" fill="#727690"/>
<path id="Rectangle 390" d="M38.957 6.06152H36.572V13.6145H38.957V6.06152Z" fill="#727690"/>
<path id="Rectangle 391_2" d="M40.149 13.6152H23.851V15.4042H40.149V13.6152Z" fill="#A1A4B3"/>
<path id="Rectangle 392_2" d="M41.74 16H22.261V17.737H41.74V16Z" fill="#727690"/>
<path id="Icon open-arrow-thick-left" d="M17.946 7.10645L14.887 10.1964L17.946 13.2244V11.1854H23.046V9.14545H17.946V7.10645Z" fill="#A1A4B3"/>
<g id="Group 4432">
<path id="Icon open-arrow-thick-left_2" d="M23.0869 4.8291L26.1439 7.9181L23.0869 10.9471V8.9081H17.9869V6.8681H23.0869V4.8291Z" fill="#A1A4B3"/>
</g>
</g>
<g id="SEPA">
<path id="path5689" d="M14.499 21.0101H12.592C12.6117 20.7937 12.5738 20.576 12.482 20.3791C12.3647 20.2184 12.0493 20.1381 11.536 20.1381C11.1996 20.1114 10.8615 20.1581 10.545 20.2751C10.3837 20.3671 10.303 20.5671 10.303 20.8751C10.2885 20.9774 10.3007 21.0816 10.3384 21.1778C10.3761 21.274 10.4379 21.3588 10.518 21.4241C10.6432 21.4929 10.7832 21.5306 10.926 21.5341L11.312 21.5611C12.138 21.6158 12.654 21.6541 12.86 21.6761C13.378 21.6893 13.8773 21.8723 14.281 22.1971C14.5167 22.4259 14.6631 22.7311 14.694 23.0581C14.7213 23.2968 14.7344 23.5369 14.733 23.7771C14.7559 24.234 14.6963 24.6913 14.557 25.1271C14.426 25.404 14.2244 25.6415 13.9725 25.8159C13.7206 25.9902 13.4273 26.0951 13.122 26.1201C12.6487 26.1899 12.1703 26.2193 11.692 26.2081C10.9403 26.2407 10.1875 26.1769 9.45199 26.0181C9.21522 25.9575 8.99746 25.8384 8.81871 25.6717C8.63996 25.505 8.50596 25.2961 8.42899 25.0641C8.31759 24.6297 8.27142 24.1811 8.29199 23.7331H10.204C10.204 23.8021 10.204 23.8551 10.204 23.8921C10.204 24.2254 10.2993 24.4388 10.49 24.5321C10.6401 24.6001 10.8033 24.6342 10.968 24.6321H11.668C11.8981 24.645 12.1289 24.6265 12.354 24.5771C12.4329 24.5507 12.5049 24.507 12.5647 24.4492C12.6246 24.3914 12.6708 24.321 12.7 24.2431C12.7324 24.1235 12.7472 23.9999 12.744 23.8761C12.744 23.5428 12.6213 23.3381 12.376 23.2621C11.9522 23.1982 11.5252 23.1582 11.097 23.1421C10.4857 23.0988 10.0613 23.0568 9.82399 23.0161C9.57577 22.9946 9.33532 22.9187 9.11966 22.794C8.904 22.6692 8.7184 22.4985 8.57599 22.2941C8.3653 21.8557 8.27062 21.3706 8.30099 20.8851C8.28931 20.4973 8.33961 20.1101 8.44999 19.7381C8.53143 19.4705 8.69959 19.2376 8.92799 19.0761C9.29526 18.8306 9.72268 18.6902 10.164 18.6701C10.5827 18.6341 11.0463 18.6158 11.555 18.6151C12.1301 18.5945 12.7056 18.6408 13.27 18.7531C13.6716 18.8596 14.0202 19.1094 14.2502 19.4554C14.4801 19.8014 14.5754 20.2196 14.518 20.6311C14.518 20.7151 14.512 20.8411 14.499 21.0101Z" fill="#727690"/>
<path id="path5693" d="M22.907 26.2098V18.5748H26.735C27.1391 18.5608 27.5431 18.6043 27.935 18.7038C28.2301 18.7857 28.5006 18.939 28.7225 19.1502C28.9443 19.3614 29.1107 19.624 29.207 19.9148C29.3381 20.3854 29.3948 20.8737 29.375 21.3618C29.4012 21.9247 29.3387 22.4883 29.19 23.0318C29.0796 23.3522 28.877 23.6329 28.6076 23.8385C28.3383 24.0442 28.0142 24.1657 27.676 24.1878C27.586 24.2032 27.204 24.2162 26.53 24.2268L26.189 24.2378H24.964V26.2098H22.907ZM24.962 22.4678H26.243C26.4939 22.4771 26.7445 22.445 26.985 22.3728C27.0526 22.3283 27.1096 22.2693 27.1518 22.2002C27.194 22.131 27.2203 22.0534 27.229 21.9728C27.2599 21.7744 27.2729 21.5736 27.268 21.3728C27.2776 21.1306 27.2513 20.8883 27.19 20.6538C27.1493 20.5431 27.0776 20.4465 26.9834 20.3756C26.8892 20.3046 26.7766 20.2624 26.659 20.2538C26.603 20.2468 26.471 20.2428 26.259 20.2428H24.959L24.962 22.4678Z" fill="#727690"/>
<path id="path5697" d="M33.756 24.8902H31.009L30.641 26.2102H28.515L30.808 18.5752H33.908L36.23 26.2102H34.149L33.756 24.8902ZM33.348 23.4032L32.385 20.0942L31.451 23.4032H33.348Z" fill="#727690"/>
<path id="path5701" d="M20.069 19.6493C20.4714 19.6489 20.8688 19.7385 21.2322 19.9115C21.5955 20.0846 21.9156 20.3366 22.169 20.6493L22.612 19.6993C22.1561 19.2697 21.6032 18.9565 21.0004 18.7862C20.3976 18.6159 19.7625 18.5937 19.1493 18.7213C18.536 18.8489 17.9625 19.1226 17.4776 19.5192C16.9928 19.9157 16.6107 20.4235 16.364 20.9993H15.5L14.99 22.0923H16.101C16.093 22.1923 16.087 22.2923 16.087 22.3983C16.0871 22.5225 16.0934 22.6467 16.106 22.7703H15.548L15.038 23.8643H16.39C16.6926 24.5515 17.1895 25.1353 17.8195 25.5439C18.4495 25.9525 19.1851 26.1681 19.936 26.1643C20.7063 26.1659 21.4597 25.939 22.101 25.5123V24.1763C21.8267 24.4915 21.483 24.7387 21.097 24.8985C20.7109 25.0583 20.2931 25.1264 19.8763 25.0973C19.4595 25.0682 19.0551 24.9428 18.695 24.7309C18.3349 24.519 18.0288 24.2265 17.801 23.8763H20.632L21.142 22.7823H17.387C17.3536 22.5578 17.3482 22.33 17.371 22.1043H21.461L21.971 21.0113H17.724C17.9613 20.5994 18.3029 20.2573 18.7143 20.0192C19.1258 19.7812 19.5926 19.6557 20.068 19.6553" fill="#A1A4B3"/>
</g>
</g>
</svg>
