<svg width="23" height="12" viewBox="0 0 23 12" fill="none" xmlns="http://www.w3.org/2000/svg">
<path fill-rule="evenodd" clip-rule="evenodd" d="M4.0727 5.10059C4.8641 5.10041 5.63108 5.37465 6.24293 5.8766C6.85478 6.37856 7.27365 7.07716 7.42815 7.85333C7.58265 8.62951 7.46322 9.43524 7.09022 10.1332C6.71721 10.8312 6.11372 11.3783 5.38257 11.6812C4.65142 11.9841 3.83786 12.024 3.08054 11.7943C2.32321 11.5646 1.66898 11.0793 1.22933 10.4213C0.789679 9.76323 0.591819 8.97308 0.66946 8.1855C0.747102 7.39791 1.09544 6.66162 1.65512 6.10209C1.97232 5.78421 2.34917 5.53213 2.76404 5.36026C3.17891 5.1884 3.62364 5.10015 4.0727 5.10059ZM5.31914 7.27464C5.03125 6.987 4.65254 6.80805 4.24753 6.76826C3.84251 6.72848 3.43623 6.83031 3.09787 7.05644C2.7595 7.28256 2.50999 7.61898 2.39181 8.00841C2.27364 8.39784 2.29411 8.81621 2.44975 9.19224C2.60538 9.56827 2.88655 9.87872 3.24538 10.0707C3.6042 10.2627 4.01849 10.3244 4.41769 10.2453C4.81689 10.1661 5.17631 9.95105 5.43474 9.63667C5.69317 9.32229 5.83463 8.92804 5.83503 8.52108C5.83526 8.28959 5.78981 8.06035 5.70128 7.84646C5.61276 7.63257 5.4829 7.43825 5.31914 7.27464Z" fill="#0A2463"/>
<path fill-rule="evenodd" clip-rule="evenodd" d="M4.07864 7.94991C4.18609 8.29196 4.29354 8.63356 4.40099 8.97467L6.80308 8.47708L8.21069 10.0254H15.1552C15.272 8.90263 15.3893 7.77984 15.5071 6.65704C16.1306 4.7279 17.7635 4.12685 19.4294 4.02057C19.1351 2.53864 18.399 1.18053 17.318 0.125L15.6485 0.535325C15.9472 1.29947 16.1762 2.08907 16.3326 2.89448L16.3474 2.96486L16.3193 3.02891C15.6499 4.57095 11.9064 4.76238 10.4073 4.8391L10.301 4.84472L10.1602 4.85248L10.0955 4.72225L9.64716 3.81436L5.86983 2.73541L5.63616 2.0316C4.31598 1.63988 2.93963 1.47148 1.56394 1.53332C1.5087 1.69812 1.49855 1.8747 1.53456 2.04475C1.57058 2.21479 1.65144 2.37209 1.76875 2.50035C3.97336 3.29101 6.044 4.41439 7.90876 5.83147L4.08286 7.94852L4.07864 7.94991ZM18.1914 1.87184C18.5809 2.45298 18.8702 3.09532 19.0472 3.77213L18.6679 3.80873C18.2864 3.24569 17.9054 2.68262 17.5249 2.11958L18.1914 1.87114V1.87184ZM15.8688 2.83606L15.8843 2.91278C15.2509 4.13881 11.8452 4.32391 10.4199 4.3964L10.0392 3.62644C10.8373 1.17579 14.4711 2.26386 15.8716 2.83606H15.8688Z" fill="#0A2463"/>
<path fill-rule="evenodd" clip-rule="evenodd" d="M4.68524 3.50032L1.24503 3.54888L0.161169 5.3084L0 5.20565L0.907911 3.4039V2.64238L2.35775 2.34961L3.93921 2.9056L4.71339 3.24273L4.68524 3.50032Z" fill="#0A2463"/>
<path fill-rule="evenodd" clip-rule="evenodd" d="M21.3634 6.03711L21.4338 6.10255C21.8316 6.50014 22.1252 6.98971 22.2886 7.52787C22.4519 8.06603 22.4801 8.63618 22.3705 9.18781C22.2608 9.73944 22.0169 10.2555 21.6602 10.6903C21.3034 11.1252 20.845 11.4653 20.3254 11.6806C19.8059 11.8959 19.2412 11.9797 18.6815 11.9247C18.1218 11.8696 17.5843 11.6774 17.1166 11.365C16.649 11.0526 16.2656 10.6296 16.0004 10.1337C15.7352 9.63768 15.5965 9.08396 15.5964 8.52155C15.5965 8.32769 15.6127 8.13418 15.645 7.94302L15.8181 7.8276C16.2214 7.55663 16.6627 7.3455 17.0913 7.10339L17.4383 7.73681C17.2837 8.04874 17.2251 8.39952 17.27 8.74475C17.3148 9.08999 17.4611 9.41417 17.6903 9.67625C17.9194 9.93833 18.2212 10.1265 18.5573 10.2171C18.8935 10.3076 19.249 10.2964 19.5787 10.1848C19.9085 10.0732 20.1978 9.86634 20.4099 9.59032C20.6221 9.31429 20.7476 8.98152 20.7705 8.63414C20.7935 8.28676 20.7129 7.94038 20.5389 7.63882C20.365 7.33727 20.1055 7.0941 19.7932 6.94009L19.8087 6.61071L21.3634 6.03711Z" fill="#0A2463"/>
<path fill-rule="evenodd" clip-rule="evenodd" d="M15.2463 6.21079C17.0762 4.80951 19.7507 4.15495 21.4194 5.54427L19.3784 6.29595C19.3408 7.07858 19.3033 7.86191 19.2657 8.64595L18.5894 8.91622L17.2522 6.48245C16.7665 6.80901 15.3948 7.50017 14.9092 7.82533C15.0204 7.28762 15.1328 6.74943 15.2463 6.21079Z" fill="#0A2463"/>
</svg>
