<svg width="31" height="15" viewBox="0 0 31 15" fill="none" xmlns="http://www.w3.org/2000/svg">
<path fill-rule="evenodd" clip-rule="evenodd" d="M30.4884 7.97492L31 8.68582V11.174L30.3598 11.9399H28.4383C28.4383 12.0572 28.4383 12.1745 28.4383 12.2946H28.0016C28.0016 10.2553 26.7536 8.7546 24.3354 9.0572V7.97492H23.4019V2.30358L23.8047 1.52463H29.5881C30.2541 2.81337 30.7015 4.20872 30.911 5.65106H24.4019V5.86826H30.9173L30.9541 7.25677L30.6127 7.97346L30.4884 7.97492ZM25.1954 2.46647V4.77221L29.8001 5.39189C29.7338 4.45964 29.5002 3.54792 29.1111 2.70246V3.72757C29.1111 3.77096 29.0943 3.81257 29.0643 3.84325C29.0344 3.87393 28.9937 3.89117 28.9514 3.89117H28.3641C28.3217 3.89117 28.281 3.87395 28.251 3.84329C28.2209 3.81263 28.2039 3.77103 28.2037 3.72757V2.46647H25.1954ZM5.73459 0.917957H6.16636V7.76208H5.73459V0.917957ZM2.68604 0.917957H3.11781V7.76208H2.68604V0.917957ZM8.78314 0.917957H9.21421V7.76208H8.78314V0.917957ZM11.8324 0.917957H12.2635V7.76208H11.8324V0.917957ZM14.8803 0.917957H15.3113V7.76208H14.8803V0.917957ZM17.9288 0.917957H18.3606V7.76208H17.9288V0.917957ZM28.7641 11.0531V11.3427H30.1527V11.0531H28.7641ZM28.403 9.9737V10.2633H30.1527V9.9737H28.403ZM27.75 8.92109V9.21066H30.1527V8.92109H27.75ZM26.6752 7.97998L26.69 7.98866V7.97998H26.6752ZM21.383 5.17615V9.86728H13.5595C13.5069 9.71065 13.4436 9.558 13.3701 9.41047H21.0099V0H0V9.40541H1.9723C1.80041 9.53853 1.64435 9.69185 1.50732 9.86222H0.128613V11.9182H0.794999C0.782985 12.0956 0.778041 12.2802 0.781574 12.4713H1.24585C1.1978 11.035 1.64512 9.95343 2.83373 9.40541H5.36076C6.44337 9.84991 6.99528 10.9438 7.02001 12.4713H7.66096C7.61291 11.035 8.06023 9.95343 9.24884 9.40541H11.7405C12.2831 9.64613 12.7384 10.0549 13.0425 10.5742C13.3467 11.0936 13.4845 11.6975 13.4365 12.3012H13.8513C13.8513 12.1709 13.8513 12.042 13.8513 11.916H21.4508C21.4391 12.0932 21.4348 12.2775 21.4381 12.4691H21.9257C21.8713 10.8041 22.4472 9.59363 24.0026 9.08687V8.62573C23.709 8.7011 23.4246 8.80988 23.1546 8.95005V5.16893L21.383 5.17615ZM6.955 9.41047H8.38741C7.89649 9.79436 7.5418 10.3324 7.37759 10.9423C7.32491 10.4102 7.1814 9.89171 6.95359 9.41047H6.955ZM4.1142 9.60667C4.72333 9.60601 5.31382 9.82176 5.78504 10.2172C6.25626 10.6126 6.57903 11.1632 6.69834 11.7752C6.81765 12.3871 6.7261 13.0224 6.43932 13.573C6.15253 14.1235 5.68826 14.5551 5.12562 14.7942C4.56299 15.0333 3.93682 15.0651 3.35386 14.8842C2.77089 14.7033 2.26721 14.3209 1.92867 13.8021C1.59013 13.2833 1.43768 12.6604 1.49731 12.0393C1.55694 11.4183 1.82496 10.8377 2.25568 10.3965C2.49938 10.1459 2.78904 9.94709 3.10799 9.81154C3.42694 9.676 3.7689 9.60638 4.1142 9.60667ZM3.27398 12.1694C3.2999 12.1691 3.32531 12.1767 3.34699 12.1913C3.36868 12.2058 3.38565 12.2266 3.39576 12.2511C3.40588 12.2755 3.40867 12.3025 3.40379 12.3286C3.3989 12.3546 3.38656 12.3786 3.36834 12.3975C3.35011 12.4164 3.32682 12.4293 3.30143 12.4346C3.27603 12.4399 3.24967 12.4373 3.2257 12.4272C3.20173 12.4171 3.18122 12.3999 3.1668 12.3779C3.15237 12.3558 3.14467 12.3299 3.14466 12.3033C3.14466 12.2681 3.15824 12.2342 3.18245 12.2091C3.20667 12.1841 3.23956 12.1698 3.27398 12.1694ZM3.42945 12.8166C3.40528 12.8417 3.39173 12.8755 3.39173 12.9107C3.39173 12.946 3.40528 12.9798 3.42945 13.0048C3.44763 13.0235 3.47079 13.0362 3.49602 13.0413C3.52125 13.0465 3.5474 13.0439 3.57117 13.0338C3.59495 13.0237 3.61527 13.0066 3.62956 12.9847C3.64386 12.9628 3.65149 12.9371 3.65149 12.9107C3.65149 12.8844 3.64386 12.8586 3.62956 12.8367C3.61527 12.8148 3.59495 12.7977 3.57117 12.7876C3.5474 12.7775 3.52125 12.7749 3.49602 12.7801C3.47079 12.7852 3.44763 12.798 3.42945 12.8166ZM3.9863 13.1612C3.98616 13.1877 3.99371 13.2137 4.00799 13.2358C4.02227 13.2579 4.04264 13.2752 4.06651 13.2854C4.09039 13.2957 4.11669 13.2985 4.1421 13.2934C4.16751 13.2883 4.19087 13.2756 4.20922 13.2569C4.22758 13.2382 4.2401 13.2143 4.2452 13.1883C4.2503 13.1623 4.24775 13.1354 4.23788 13.1108C4.228 13.0863 4.21125 13.0654 4.18974 13.0506C4.16822 13.0359 4.14292 13.028 4.11704 13.028C4.08249 13.028 4.04934 13.042 4.02484 13.067C4.00035 13.0919 3.98649 13.1258 3.9863 13.1612ZM4.61806 13.0019C4.63628 13.0205 4.65944 13.0331 4.68465 13.0382C4.70985 13.0432 4.73595 13.0406 4.75966 13.0304C4.78337 13.0203 4.80364 13.0033 4.81789 12.9814C4.83214 12.9595 4.83975 12.9338 4.83975 12.9075C4.83975 12.8811 4.83214 12.8554 4.81789 12.8335C4.80364 12.8116 4.78337 12.7946 4.75966 12.7845C4.73595 12.7744 4.70985 12.7717 4.68465 12.7768C4.65944 12.7818 4.63628 12.7944 4.61806 12.813C4.60582 12.8253 4.59609 12.84 4.58945 12.8562C4.58282 12.8725 4.5794 12.8899 4.5794 12.9075C4.5794 12.925 4.58282 12.9425 4.58945 12.9587C4.59609 12.9749 4.60582 12.9896 4.61806 13.0019ZM4.95373 12.4308C4.92801 12.4306 4.90291 12.4226 4.8816 12.4079C4.8603 12.3931 4.84375 12.3722 4.83404 12.3478C4.82432 12.3234 4.82189 12.2967 4.82704 12.2708C4.8322 12.245 4.84471 12.2214 4.86299 12.2028C4.88128 12.1843 4.90451 12.1718 4.92976 12.1668C4.95501 12.1618 4.98114 12.1646 5.00484 12.1748C5.02855 12.185 5.04876 12.2022 5.06293 12.2241C5.07711 12.2461 5.0846 12.2719 5.08446 12.2983C5.08436 12.3158 5.08091 12.3331 5.07429 12.3492C5.06767 12.3653 5.05802 12.3799 5.04588 12.3922C5.03374 12.4046 5.01935 12.4143 5.00354 12.4209C4.98773 12.4275 4.9708 12.4309 4.95373 12.4308ZM4.79896 11.785C4.7745 11.8097 4.74149 11.8236 4.7071 11.8236C4.67271 11.8236 4.6397 11.8097 4.61523 11.785C4.59248 11.7597 4.58016 11.7264 4.58084 11.692C4.58152 11.6576 4.59516 11.6248 4.6189 11.6005C4.64263 11.5762 4.67463 11.5622 4.70819 11.5615C4.74176 11.5608 4.77428 11.5735 4.79896 11.5968C4.82313 11.6218 4.83668 11.6557 4.83668 11.6909C4.83668 11.7261 4.82313 11.7599 4.79896 11.785ZM4.24141 11.4397C4.24141 11.4659 4.23382 11.4915 4.21961 11.5133C4.2054 11.5351 4.1852 11.552 4.16157 11.5621C4.13794 11.5721 4.11195 11.5747 4.08686 11.5696C4.06177 11.5645 4.03873 11.5519 4.02064 11.5333C4.00256 11.5148 3.99024 11.4912 3.98525 11.4655C3.98026 11.4398 3.98282 11.4132 3.99261 11.389C4.0024 11.3648 4.01897 11.3441 4.04024 11.3295C4.06151 11.315 4.08651 11.3072 4.11209 11.3072C4.14633 11.3074 4.17911 11.3214 4.20333 11.3462C4.22754 11.371 4.24122 11.4046 4.24141 11.4397ZM3.61035 11.5997C3.62324 11.6118 3.63359 11.6265 3.64078 11.6429C3.64798 11.6593 3.65187 11.6769 3.65222 11.6949C3.65258 11.7128 3.64939 11.7307 3.64285 11.7473C3.63631 11.764 3.62656 11.7791 3.61417 11.7918C3.60178 11.8045 3.58701 11.8145 3.57076 11.8212C3.55451 11.8279 3.5371 11.8311 3.51958 11.8308C3.50207 11.8304 3.4848 11.8264 3.46883 11.8191C3.45285 11.8117 3.43849 11.8011 3.42662 11.7879C3.40387 11.7626 3.39155 11.7293 3.39223 11.6949C3.39291 11.6605 3.40655 11.6277 3.43029 11.6034C3.45402 11.5791 3.48602 11.5651 3.51958 11.5644C3.55315 11.5637 3.58567 11.5764 3.61035 11.5997ZM4.88235 11.5164C5.0594 11.6979 5.16955 11.9366 5.19405 12.192C5.21855 12.4473 5.15587 12.7034 5.01671 12.9167C4.87754 13.13 4.67049 13.2873 4.43083 13.3618C4.19116 13.4362 3.93372 13.4233 3.70234 13.3251C3.47096 13.2269 3.27996 13.0496 3.16188 12.8233C3.04381 12.5971 3.00596 12.3359 3.05479 12.0842C3.10361 11.8326 3.23609 11.6061 3.42965 11.4433C3.62321 11.2804 3.86589 11.1914 4.11633 11.1914C4.25863 11.1911 4.39957 11.2197 4.53103 11.2755C4.6625 11.3313 4.7819 11.4132 4.88235 11.5164ZM10.5639 9.60667C11.1727 9.60632 11.7627 9.82221 12.2334 10.2176C12.7042 10.6129 13.0265 11.1632 13.1456 11.7748C13.2646 12.3864 13.173 13.0213 12.8862 13.5714C12.5995 14.1215 12.1355 14.5527 11.5732 14.7916C11.0109 15.0304 10.3852 15.0621 9.80259 14.8813C9.22003 14.7005 8.71669 14.3183 8.37835 13.7999C8.04001 13.2815 7.88761 12.659 7.94712 12.0384C8.00663 11.4178 8.27437 10.8375 8.70471 10.3965C8.94854 10.1458 9.23832 9.94706 9.55739 9.81152C9.87646 9.67598 10.2185 9.60636 10.5639 9.60667ZM9.72372 12.1694C9.74963 12.1691 9.77504 12.1767 9.79673 12.1913C9.81841 12.2058 9.83539 12.2266 9.8455 12.2511C9.85561 12.2755 9.85841 12.3025 9.85352 12.3286C9.84864 12.3546 9.8363 12.3786 9.81807 12.3975C9.79985 12.4164 9.77656 12.4293 9.75116 12.4346C9.72576 12.4399 9.6994 12.4373 9.67543 12.4272C9.65146 12.4171 9.63096 12.3999 9.61653 12.3779C9.6021 12.3558 9.5944 12.3299 9.5944 12.3033C9.5944 12.2681 9.60798 12.2342 9.63219 12.2091C9.6564 12.1841 9.68929 12.1698 9.72372 12.1694ZM9.87989 12.8166C9.85572 12.8417 9.84217 12.8755 9.84217 12.9107C9.84217 12.946 9.85572 12.9798 9.87989 13.0048C9.89807 13.0235 9.92124 13.0362 9.94646 13.0413C9.97169 13.0465 9.99784 13.0439 10.0216 13.0338C10.0454 13.0237 10.0657 13.0066 10.08 12.9847C10.0943 12.9628 10.1019 12.9371 10.1019 12.9107C10.1019 12.8844 10.0943 12.8586 10.08 12.8367C10.0657 12.8148 10.0454 12.7977 10.0216 12.7876C9.99784 12.7775 9.97169 12.7749 9.94646 12.7801C9.92124 12.7852 9.89807 12.798 9.87989 12.8166ZM10.436 13.1612C10.4359 13.1877 10.4434 13.2137 10.4577 13.2358C10.472 13.2579 10.4924 13.2752 10.5162 13.2854C10.5401 13.2957 10.5664 13.2985 10.5918 13.2934C10.6172 13.2883 10.6406 13.2756 10.659 13.2569C10.6773 13.2382 10.6898 13.2143 10.6949 13.1883C10.7 13.1623 10.6975 13.1354 10.6876 13.1108C10.6777 13.0863 10.661 13.0654 10.6395 13.0506C10.618 13.0359 10.5927 13.028 10.5668 13.028C10.5322 13.028 10.4991 13.042 10.4746 13.067C10.4501 13.0919 10.4362 13.1258 10.436 13.1612ZM11.0678 13.0019C11.0861 13.0207 11.1093 13.0336 11.1347 13.0388C11.1601 13.044 11.1864 13.0414 11.2103 13.0313C11.2343 13.0211 11.2547 13.004 11.2691 12.9819C11.2835 12.9599 11.2912 12.934 11.2912 12.9075C11.2912 12.8809 11.2835 12.855 11.2691 12.833C11.2547 12.8109 11.2343 12.7938 11.2103 12.7837C11.1864 12.7736 11.1601 12.7709 11.1347 12.7762C11.1093 12.7814 11.0861 12.7942 11.0678 12.813C11.0434 12.8381 11.0297 12.872 11.0297 12.9075C11.0297 12.9429 11.0434 12.9768 11.0678 13.0019ZM11.4042 12.4308C11.3784 12.4308 11.3533 12.4229 11.3319 12.4082C11.3105 12.3936 11.2938 12.3727 11.284 12.3484C11.2741 12.324 11.2716 12.2971 11.2767 12.2713C11.2818 12.2454 11.2942 12.2217 11.3125 12.2031C11.3307 12.1845 11.354 12.1719 11.3792 12.1668C11.4045 12.1618 11.4307 12.1645 11.4544 12.1747C11.4782 12.1849 11.4984 12.2021 11.5126 12.2241C11.5268 12.2461 11.5343 12.2719 11.5342 12.2983C11.534 12.3335 11.5202 12.3672 11.4959 12.392C11.4715 12.4168 11.4385 12.4308 11.4042 12.4308ZM11.248 11.785C11.2236 11.8097 11.1908 11.8236 11.1565 11.8236C11.1222 11.8236 11.0893 11.8097 11.065 11.785C11.0469 11.7664 11.0346 11.7429 11.0296 11.7172C11.0247 11.6915 11.0272 11.6648 11.037 11.6407C11.0468 11.6165 11.0634 11.5958 11.0847 11.5812C11.1059 11.5667 11.1309 11.5589 11.1565 11.5589C11.182 11.5589 11.207 11.5667 11.2283 11.5812C11.2496 11.5958 11.2661 11.6165 11.2759 11.6407C11.2857 11.6648 11.2883 11.6915 11.2833 11.7172C11.2784 11.7429 11.2661 11.7664 11.248 11.785ZM10.6911 11.4397C10.6911 11.4659 10.6836 11.4915 10.6693 11.5133C10.6551 11.5351 10.6349 11.552 10.6113 11.5621C10.5877 11.5721 10.5617 11.5747 10.5366 11.5696C10.5115 11.5645 10.4885 11.5519 10.4704 11.5333C10.4523 11.5148 10.44 11.4912 10.435 11.4655C10.43 11.4398 10.4326 11.4132 10.4423 11.389C10.4521 11.3648 10.4687 11.3441 10.49 11.3295C10.5112 11.315 10.5362 11.3072 10.5618 11.3072C10.5961 11.3074 10.6288 11.3214 10.6531 11.3462C10.6773 11.371 10.691 11.4046 10.6911 11.4397ZM10.0601 11.5997C10.0783 11.6183 10.0907 11.642 10.0957 11.6679C10.1008 11.6937 10.0982 11.7205 10.0884 11.7449C10.0785 11.7692 10.0619 11.79 10.0405 11.8047C10.0191 11.8193 9.99395 11.8271 9.96822 11.8271C9.9425 11.8271 9.91735 11.8193 9.89596 11.8047C9.87458 11.79 9.85791 11.7692 9.84808 11.7449C9.83824 11.7205 9.83568 11.6937 9.84071 11.6679C9.84575 11.642 9.85815 11.6183 9.87635 11.5997C9.88838 11.5872 9.90269 11.5774 9.91846 11.5706C9.93422 11.5639 9.95114 11.5604 9.96822 11.5604C9.98531 11.5604 10.0022 11.5639 10.018 11.5706C10.0338 11.5774 10.0481 11.5872 10.0601 11.5997ZM11.3321 11.5164C11.5091 11.6979 11.6193 11.9366 11.6438 12.192C11.6683 12.4473 11.6056 12.7034 11.4664 12.9167C11.3273 13.13 11.1202 13.2873 10.8806 13.3618C10.6409 13.4362 10.3835 13.4233 10.1521 13.3251C9.92069 13.2269 9.7297 13.0496 9.61162 12.8233C9.49355 12.5971 9.4557 12.3359 9.50452 12.0842C9.55335 11.8326 9.68582 11.6061 9.87938 11.4433C10.0729 11.2804 10.3156 11.1914 10.5661 11.1914C10.7084 11.1911 10.8493 11.2197 10.9808 11.2755C11.1122 11.3313 11.2316 11.4132 11.3321 11.5164ZM24.9389 9.60667C24.3302 9.60632 23.7402 9.82221 23.2695 10.2176C22.7987 10.6129 22.4764 11.1632 22.3573 11.7748C22.2383 12.3864 22.3299 13.0213 22.6166 13.5714C22.9033 14.1215 23.3674 14.5527 23.9297 14.7916C24.492 15.0304 25.1177 15.0621 25.7003 14.8813C26.2828 14.7005 26.7862 14.3183 27.1245 13.7999C27.4629 13.2815 27.6153 12.659 27.5557 12.0384C27.4962 11.4178 27.2285 10.8375 26.7982 10.3965C26.5544 10.1457 26.2647 9.94685 25.9456 9.8113C25.6265 9.67575 25.2844 9.6062 24.9389 9.60667ZM24.0987 12.1694C24.073 12.1694 24.0479 12.1772 24.0265 12.1918C24.0052 12.2064 23.9885 12.2272 23.9786 12.2515C23.9688 12.2758 23.9662 12.3025 23.9711 12.3283C23.9761 12.3542 23.9884 12.3779 24.0065 12.3965C24.0246 12.4152 24.0477 12.4279 24.0729 12.4332C24.0981 12.4384 24.1242 12.4358 24.148 12.4259C24.1718 12.4159 24.1921 12.3989 24.2065 12.3771C24.2208 12.3553 24.2286 12.3296 24.2287 12.3033C24.2288 12.2858 24.2255 12.2684 24.219 12.2521C24.2125 12.2359 24.203 12.2211 24.1909 12.2087C24.1788 12.1962 24.1644 12.1863 24.1486 12.1796C24.1328 12.1729 24.1158 12.1694 24.0987 12.1694ZM24.2549 12.8166C24.2731 12.798 24.2962 12.7852 24.3215 12.7801C24.3467 12.7749 24.3728 12.7775 24.3966 12.7876C24.4204 12.7977 24.4407 12.8148 24.455 12.8367C24.4693 12.8586 24.4769 12.8844 24.4769 12.9107C24.4769 12.9371 24.4693 12.9628 24.455 12.9847C24.4407 13.0066 24.4204 13.0237 24.3966 13.0338C24.3728 13.0439 24.3467 13.0465 24.3215 13.0413C24.2962 13.0362 24.2731 13.0235 24.2549 13.0048C24.2427 12.9925 24.2331 12.9778 24.2265 12.9617C24.22 12.9455 24.2166 12.9282 24.2166 12.9107C24.2166 12.8932 24.22 12.8759 24.2265 12.8597C24.2331 12.8436 24.2427 12.8289 24.2549 12.8166ZM24.811 13.1612C24.8112 13.1349 24.8189 13.1092 24.8333 13.0874C24.8477 13.0656 24.868 13.0486 24.8918 13.0387C24.9156 13.0287 24.9417 13.0262 24.9669 13.0314C24.992 13.0366 25.0151 13.0493 25.0332 13.068C25.0514 13.0866 25.0637 13.1104 25.0686 13.1362C25.0736 13.162 25.071 13.1888 25.0611 13.2131C25.0512 13.2374 25.0346 13.2581 25.0132 13.2727C24.9918 13.2873 24.9667 13.2951 24.941 13.2951C24.9239 13.2951 24.9069 13.2916 24.8911 13.2849C24.8753 13.2782 24.8609 13.2683 24.8489 13.2559C24.8368 13.2434 24.8272 13.2286 24.8207 13.2124C24.8142 13.1962 24.8109 13.1787 24.811 13.1612ZM25.4421 13.0019C25.4237 12.9832 25.4112 12.9594 25.4061 12.9334C25.401 12.9074 25.4036 12.8804 25.4135 12.8559C25.4233 12.8314 25.4401 12.8104 25.4616 12.7957C25.4831 12.7809 25.5084 12.7731 25.5343 12.7731C25.5602 12.7731 25.5855 12.7809 25.607 12.7957C25.6285 12.8104 25.6453 12.8314 25.6551 12.8559C25.665 12.8804 25.6676 12.9074 25.6625 12.9334C25.6574 12.9594 25.6449 12.9832 25.6265 13.0019C25.6018 13.0266 25.5688 13.0403 25.5343 13.0403C25.4998 13.0403 25.4667 13.0266 25.4421 13.0019ZM25.7792 12.4308C25.8049 12.4308 25.8301 12.4229 25.8515 12.4082C25.8729 12.3936 25.8895 12.3727 25.8994 12.3484C25.9092 12.324 25.9117 12.2971 25.9066 12.2713C25.9016 12.2454 25.8891 12.2217 25.8708 12.2031C25.8526 12.1845 25.8294 12.1719 25.8041 12.1668C25.7788 12.1618 25.7527 12.1645 25.7289 12.1747C25.7052 12.1849 25.6849 12.2021 25.6707 12.2241C25.6565 12.2461 25.649 12.2719 25.6491 12.2983C25.6491 12.3157 25.6525 12.333 25.659 12.3491C25.6656 12.3652 25.6752 12.3799 25.6873 12.3922C25.6993 12.4045 25.7137 12.4143 25.7294 12.4209C25.7452 12.4275 25.7621 12.4309 25.7792 12.4308ZM25.623 11.785C25.6412 11.7664 25.6536 11.7427 25.6586 11.7168C25.6637 11.691 25.6611 11.6642 25.6513 11.6398C25.6414 11.6155 25.6248 11.5946 25.6034 11.58C25.582 11.5653 25.5568 11.5575 25.5311 11.5575C25.5054 11.5575 25.4802 11.5653 25.4589 11.58C25.4375 11.5946 25.4208 11.6155 25.411 11.6398C25.4011 11.6642 25.3986 11.691 25.4036 11.7168C25.4086 11.7427 25.421 11.7664 25.4392 11.785C25.4513 11.7974 25.4656 11.8073 25.4813 11.814C25.4971 11.8208 25.514 11.8242 25.5311 11.8242C25.5482 11.8242 25.5651 11.8208 25.5809 11.814C25.5966 11.8073 25.611 11.7974 25.623 11.785ZM25.0661 11.4397C25.066 11.4134 25.0582 11.3877 25.0439 11.3659C25.0295 11.3441 25.0091 11.3271 24.9854 11.3171C24.9616 11.3072 24.9355 11.3046 24.9103 11.3098C24.8851 11.3151 24.862 11.3278 24.8439 11.3465C24.8258 11.3651 24.8135 11.3889 24.8085 11.4147C24.8036 11.4405 24.8062 11.4672 24.816 11.4915C24.8259 11.5158 24.8426 11.5366 24.8639 11.5512C24.8853 11.5658 24.9104 11.5736 24.9361 11.5736C24.9533 11.5737 24.9703 11.5703 24.9861 11.5636C25.002 11.5569 25.0164 11.547 25.0285 11.5345C25.0406 11.5221 25.0502 11.5073 25.0566 11.491C25.0631 11.4747 25.0663 11.4573 25.0661 11.4397ZM24.4351 11.5997C24.4169 11.581 24.3937 11.5683 24.3685 11.5631C24.3433 11.558 24.3171 11.5606 24.2934 11.5707C24.2696 11.5808 24.2493 11.5978 24.235 11.6198C24.2207 11.6417 24.213 11.6674 24.213 11.6938C24.213 11.7201 24.2207 11.7459 24.235 11.7678C24.2493 11.7897 24.2696 11.8068 24.2934 11.8169C24.3171 11.8269 24.3433 11.8296 24.3685 11.8244C24.3937 11.8192 24.4169 11.8066 24.4351 11.7879C24.4472 11.7756 24.4568 11.7609 24.4634 11.7448C24.47 11.7286 24.4734 11.7113 24.4734 11.6938C24.4734 11.6763 24.47 11.6589 24.4634 11.6428C24.4568 11.6266 24.4472 11.612 24.4351 11.5997ZM25.7071 11.5164C25.53 11.3352 25.2971 11.2225 25.0481 11.1975C24.799 11.1725 24.5492 11.2367 24.3412 11.3792C24.1331 11.5216 23.9797 11.7336 23.9071 11.979C23.8345 12.2243 23.8471 12.4878 23.9429 12.7247C24.0387 12.9616 24.2116 13.1571 24.4323 13.278C24.653 13.3988 24.9078 13.4376 25.1532 13.3877C25.3987 13.3377 25.6197 13.2022 25.7785 13.004C25.9373 12.8059 26.0242 12.5575 26.0244 12.3012C26.0243 12.154 25.9956 12.0084 25.9399 11.8728C25.8842 11.7371 25.8027 11.6143 25.7 11.5113L25.7071 11.5164Z" fill="#0A2463"/>
</svg>
