<svg width="25" height="16" viewBox="0 0 25 16" fill="none" xmlns="http://www.w3.org/2000/svg">
<path d="M13.3924 1.9185L15.4736 2.00227C15.4907 2.00333 15.5079 2.00085 15.524 1.99499C15.5402 1.98912 15.555 1.98 15.5674 1.96818C15.5799 1.95636 15.5898 1.94211 15.5966 1.9263C15.6033 1.91049 15.6067 1.89346 15.6066 1.87627L15.6312 1.15346C15.6328 1.12043 15.6216 1.08806 15.6 1.06303C15.5784 1.03801 15.548 1.02226 15.5151 1.01905L13.4262 0.943721C13.4101 0.942445 13.3938 0.944555 13.3786 0.949907C13.3633 0.955258 13.3494 0.963736 13.3376 0.9748C13.3258 0.985865 13.3164 0.999282 13.3101 1.01417C13.3038 1.02906 13.3007 1.0451 13.3009 1.06127L13.2678 1.79253C13.2685 1.82548 13.2818 1.8569 13.305 1.88033C13.3282 1.90377 13.3595 1.91743 13.3924 1.9185Z" fill="#0A2463"/>
<path d="M4.16325 10.7119C4.0858 10.7116 4.00907 10.7267 3.93744 10.7561C3.86581 10.7855 3.80069 10.8288 3.74583 10.8835C3.69097 10.9382 3.64744 11.0031 3.61774 11.0746C3.58804 11.1462 3.57275 11.2229 3.57275 11.3003C3.57256 11.4576 3.63451 11.6085 3.74511 11.7203C3.85571 11.8321 4.006 11.8956 4.16325 11.8971C4.24073 11.8963 4.31729 11.8802 4.38853 11.8497C4.45978 11.8193 4.52432 11.7751 4.57845 11.7196C4.63258 11.6642 4.67525 11.5986 4.704 11.5266C4.73275 11.4547 4.74702 11.3778 4.746 11.3003C4.74693 11.2232 4.73254 11.1468 4.70366 11.0753C4.67477 11.0039 4.63197 10.9389 4.57774 10.8842C4.52352 10.8294 4.45895 10.786 4.38779 10.7564C4.31663 10.7269 4.2403 10.7117 4.16325 10.7119Z" fill="#0A2463"/>
<path d="M2.50662 6.13913C3.74672 6.3742 7.67537 6.56775 7.77461 7.92962C10.6131 7.92962 15.6727 4.80259 15.1737 9.00502H16.1394C17.4287 5.44094 19.9005 4.71813 23.2717 6.5417C23.4378 6.36504 23.6124 6.1898 23.7876 6.01174C22.0478 4.15439 19.576 4.37258 18.1368 4.8019C17.1514 4.21352 16.1809 3.62513 15.1984 3.03604C14.0997 2.40262 11.7448 5.67602 9.36451 6.24751C8.78176 6.38827 3.7967 5.09608 2.07378 4.96166C1.74088 5.46558 1.40797 5.97021 1.07507 6.46569L1.89923 7.02099C2.09911 6.7275 2.30674 6.43332 2.50662 6.13913ZM17.0958 4.46619L17.9453 4.9701C17.0009 5.44587 16.2401 6.2203 15.7811 7.17302C15.8991 6.14758 16.3628 5.19292 17.0958 4.46619Z" fill="#0A2463"/>
<path d="M17.171 3.92747L18.1697 4.52429C18.8248 4.33769 19.5029 4.24435 20.184 4.247C19.9137 3.72487 19.6163 3.21719 19.293 2.72607C17.4455 2.81827 17.6201 2.54097 16.2554 1.22133L15.881 1.21289L15.8563 1.85969L16.0309 1.86813L17.171 3.92747Z" fill="#0A2463"/>
<path d="M5.52054 5.32341C6.7676 5.62748 8.03213 5.85477 9.30702 6.004C10.0073 5.79929 10.6646 5.46899 11.2467 5.02922C10.7132 5.2172 10.1462 5.29176 9.58221 5.24811L3.41264 3.96155C3.1466 3.90313 2.94672 4.42396 2.82214 4.80612C3.07974 4.84765 3.33803 4.88986 3.59633 4.94054C4.23891 5.05455 4.87937 5.18898 5.52054 5.32341Z" fill="#0A2463"/>
<path d="M20.6339 10.7116C20.5174 10.6956 20.3988 10.7145 20.2931 10.7659C20.1874 10.8174 20.0994 10.8991 20.0402 11.0007C19.9811 11.1023 19.9534 11.2192 19.9608 11.3365C19.9681 11.4538 20.0102 11.5663 20.0816 11.6597C20.153 11.7531 20.2505 11.8232 20.3618 11.8611C20.4731 11.8989 20.5932 11.9029 20.7067 11.8724C20.8203 11.8419 20.9222 11.7784 20.9996 11.6899C21.0769 11.6014 21.1263 11.4919 21.1413 11.3753C21.1601 11.2203 21.1175 11.0642 21.0227 10.9402C20.9279 10.8162 20.7883 10.7342 20.6339 10.7116Z" fill="#0A2463"/>
<path d="M24.4199 11.2747L24.2791 11.2578C24.2717 10.9515 24.2299 10.6469 24.1545 10.3499L24.2876 10.2915C24.343 10.2688 24.3872 10.2252 24.4107 10.1702C24.4341 10.1151 24.4349 10.0529 24.4128 9.99729L24.1799 9.45045C24.1698 9.42259 24.1539 9.39718 24.1333 9.37586C24.1127 9.35454 24.0879 9.33778 24.0604 9.32669C24.0329 9.31561 24.0034 9.31044 23.9738 9.31151C23.9442 9.31258 23.9151 9.31986 23.8885 9.3329L23.7548 9.38359C23.5986 9.12122 23.4114 8.87854 23.1974 8.66077L23.2889 8.54253C23.3071 8.51962 23.3206 8.49325 23.3284 8.465C23.3363 8.43675 23.3383 8.4072 23.3344 8.37814C23.3305 8.34908 23.3208 8.3211 23.3059 8.2959C23.2909 8.27069 23.271 8.24876 23.2473 8.23144L22.7814 7.87039C22.7581 7.85202 22.7312 7.83853 22.7026 7.83069C22.6739 7.82286 22.644 7.82085 22.6145 7.82479C22.585 7.82872 22.5567 7.83853 22.5311 7.85361C22.5055 7.8687 22.4831 7.88875 22.4654 7.91261L22.3817 8.03016C22.1163 7.88035 21.8342 7.76224 21.5413 7.67826L21.5582 7.53749C21.5655 7.47882 21.5495 7.41963 21.5137 7.37256C21.478 7.32549 21.4252 7.29426 21.3668 7.28553L20.784 7.20952C20.7253 7.2027 20.6663 7.21915 20.6196 7.25533C20.5729 7.29151 20.5422 7.34454 20.5342 7.40306L20.5095 7.5544C20.2062 7.55526 19.9042 7.59475 19.6108 7.67193L19.5608 7.53749C19.5498 7.51029 19.5335 7.48559 19.5127 7.46485C19.492 7.44411 19.4673 7.42778 19.4401 7.4168C19.4129 7.40583 19.3838 7.40045 19.3544 7.401C19.3251 7.40154 19.2962 7.40799 19.2694 7.41996L18.7198 7.64658C18.6654 7.67023 18.6226 7.71449 18.6008 7.76965C18.579 7.82481 18.5801 7.88635 18.6036 7.94077L18.662 8.07591C18.4002 8.23202 18.1596 8.42125 17.9463 8.63895L17.8294 8.54606C17.806 8.52787 17.7792 8.51452 17.7505 8.50679C17.7219 8.49907 17.692 8.49711 17.6626 8.50104C17.6332 8.50497 17.6049 8.51471 17.5793 8.52969C17.5536 8.54467 17.5313 8.56458 17.5134 8.58828L17.1552 9.05913C17.1208 9.10789 17.1059 9.1678 17.1136 9.22699C17.1213 9.28618 17.151 9.34031 17.1967 9.37865L17.3135 9.47086C17.1689 9.7389 17.0544 10.0221 16.9722 10.3154L16.8314 10.2985C16.7725 10.2912 16.7129 10.3067 16.665 10.3417C16.617 10.3768 16.5841 10.4288 16.5731 10.4872L16.4985 11.0755C16.495 11.1053 16.4974 11.1354 16.5055 11.1642C16.5137 11.193 16.5274 11.2199 16.546 11.2434C16.5646 11.2669 16.5876 11.2864 16.6137 11.301C16.6399 11.3155 16.6687 11.3248 16.6984 11.3282L16.8392 11.3528C16.8386 11.6598 16.8805 11.9653 16.9638 12.2607L16.8307 12.3114C16.7752 12.3339 16.7309 12.3775 16.7075 12.4327C16.6842 12.4879 16.6837 12.5501 16.7062 12.6056L16.9307 13.1602C16.9544 13.2139 16.998 13.2563 17.0524 13.2783C17.1068 13.3004 17.1676 13.3005 17.222 13.2785L17.3628 13.2193C17.5126 13.4838 17.6973 13.7269 17.9118 13.9421L17.8287 14.0597C17.7923 14.1077 17.7762 14.1682 17.784 14.228C17.7917 14.2877 17.8227 14.3421 17.8703 14.3792L18.3362 14.741C18.3827 14.776 18.4413 14.7912 18.499 14.7833C18.5567 14.7754 18.609 14.745 18.6444 14.6987L18.7359 14.5812C19.0018 14.728 19.2838 14.8435 19.5763 14.9254L19.5601 15.0767C19.5521 15.1356 19.5677 15.1952 19.6036 15.2426C19.6395 15.2899 19.6927 15.3211 19.7515 15.3293L20.3336 15.4047C20.3932 15.41 20.4526 15.3921 20.4992 15.3545C20.5458 15.3169 20.576 15.2628 20.5834 15.2034L20.6003 15.0626C20.9044 15.0631 21.207 15.0204 21.4991 14.9359L21.5575 15.0767C21.5806 15.1309 21.6242 15.1737 21.6788 15.1959C21.7334 15.218 21.7945 15.2177 21.8489 15.1949L22.3894 14.9676C22.4438 14.9437 22.487 14.8999 22.5102 14.8453C22.5335 14.7906 22.5351 14.7292 22.5147 14.6734L22.4563 14.5326C22.7158 14.3765 22.9561 14.1904 23.172 13.978L23.2882 14.0618C23.3116 14.0801 23.3384 14.0936 23.3671 14.1014C23.3958 14.1093 23.4257 14.1113 23.4552 14.1075C23.4847 14.1036 23.5131 14.0939 23.5388 14.0789C23.5645 14.064 23.587 14.044 23.6049 14.0203L23.9568 13.5494C23.975 13.5264 23.9883 13.5001 23.9961 13.4718C24.0039 13.4436 24.0059 13.4141 24.002 13.3851C23.9981 13.356 23.9885 13.3281 23.9736 13.3029C23.9587 13.2777 23.9388 13.2557 23.9153 13.2383L23.7991 13.1454C23.9517 12.8785 24.07 12.5933 24.151 12.2966L24.2918 12.3135C24.321 12.3178 24.3507 12.3161 24.3793 12.3086C24.4078 12.3011 24.4345 12.2879 24.4578 12.2698C24.4811 12.2518 24.5006 12.2292 24.515 12.2034C24.5294 12.1777 24.5384 12.1493 24.5416 12.12L24.6162 11.5316C24.6208 11.5018 24.6193 11.4713 24.6118 11.4421C24.6043 11.4128 24.591 11.3854 24.5727 11.3614C24.5543 11.3374 24.5314 11.3174 24.5051 11.3025C24.4789 11.2876 24.4499 11.2781 24.4199 11.2747ZM22.5562 11.5605C22.5009 11.9539 22.3306 12.3222 22.0665 12.6191C21.8025 12.9159 21.4565 13.1281 21.0722 13.2288C20.6879 13.3295 20.2823 13.3144 19.9066 13.1852C19.5309 13.056 19.2017 12.8186 18.9606 12.5029C18.7195 12.1871 18.5771 11.8071 18.5514 11.4106C18.5257 11.0141 18.6178 10.6189 18.8162 10.2747C19.0146 9.93042 19.3103 9.65251 19.6662 9.47592C20.0221 9.29933 20.4223 9.23195 20.8164 9.28223C21.0809 9.31588 21.3361 9.40177 21.5672 9.53488C21.7983 9.668 22.0006 9.84568 22.1624 10.0576C22.3242 10.2696 22.4423 10.5116 22.5097 10.7696C22.5772 11.0276 22.5935 11.2964 22.5562 11.5605Z" fill="#0A2463"/>
<path d="M7.99198 10.7786H7.84207C7.80415 10.4753 7.7258 10.1785 7.60911 9.89602L7.73369 9.82072C7.78517 9.78976 7.82265 9.74006 7.83827 9.68205C7.85388 9.62405 7.84642 9.56224 7.81744 9.50962L7.52606 8.99654C7.49434 8.9467 7.44516 8.91048 7.38814 8.89499C7.33113 8.8795 7.27038 8.88586 7.2178 8.9128L7.09322 8.9881C6.90327 8.75017 6.68832 8.53332 6.45206 8.3413L6.52736 8.21533C6.55616 8.16267 6.56353 8.10092 6.54793 8.04296C6.53232 7.98501 6.49496 7.93531 6.44361 7.90423L5.93617 7.61004C5.88424 7.58051 5.82273 7.57274 5.76509 7.58844C5.70746 7.60413 5.65838 7.64202 5.6286 7.69381L5.5533 7.81978C5.27273 7.70638 4.97945 7.62746 4.67987 7.58472V7.43338C4.67898 7.37373 4.65503 7.31676 4.61304 7.27438C4.57106 7.232 4.51429 7.2075 4.45465 7.20605H3.86416C3.80589 7.20928 3.75104 7.23459 3.71077 7.27683C3.6705 7.31906 3.64784 7.37503 3.64739 7.43338V7.58472C3.34529 7.62853 3.04933 7.70741 2.76551 7.81978L2.69866 7.69381C2.66849 7.64244 2.61941 7.6049 2.56193 7.58925C2.50446 7.5736 2.44314 7.58106 2.39109 7.61004L1.88294 7.90423C1.83185 7.93555 1.79474 7.9853 1.77929 8.0432C1.76383 8.1011 1.77121 8.16272 1.79989 8.21533L1.8752 8.3413C1.63692 8.53109 1.42173 8.74818 1.23403 8.9881L1.10946 8.9128C1.05701 8.88519 0.996045 8.87849 0.938846 8.89403C0.881647 8.90957 0.832459 8.94619 0.80119 8.99654L0.509813 9.50962C0.479367 9.56107 0.470202 9.62236 0.484267 9.68046C0.498332 9.73856 0.534519 9.78889 0.585122 9.82072L0.718141 9.89602C0.602553 10.1795 0.521503 10.4758 0.476737 10.7786H0.335975C0.306279 10.7787 0.276895 10.7846 0.249513 10.7961C0.222131 10.8076 0.197291 10.8244 0.176424 10.8455C0.155558 10.8667 0.139076 10.8917 0.127926 10.9192C0.116777 10.9468 0.111182 10.9762 0.11146 11.0059V11.6027C0.112752 11.6613 0.137021 11.717 0.179026 11.7578C0.221031 11.7986 0.277404 11.8213 0.335975 11.8209H0.476737C0.522589 12.1262 0.603595 12.4252 0.718141 12.7119L0.585122 12.7823C0.534935 12.8145 0.499095 12.8648 0.485067 12.9228C0.47104 12.9807 0.479902 13.0418 0.509813 13.0934L0.80119 13.6058C0.831117 13.6576 0.880267 13.6955 0.937976 13.7113C0.995685 13.7271 1.0573 13.7196 1.10946 13.6902L1.23403 13.6142C1.41723 13.8583 1.63295 14.0761 1.8752 14.2617L1.79989 14.3877C1.77068 14.4402 1.763 14.502 1.7785 14.5601C1.794 14.6181 1.83145 14.6679 1.88294 14.6988L2.39109 14.993C2.44203 15.0234 2.50291 15.0324 2.5605 15.0182C2.61808 15.004 2.66773 14.9676 2.69866 14.917L2.76551 14.791C3.0492 14.9039 3.3452 14.983 3.64739 15.0268V15.1675C3.64644 15.2262 3.66866 15.2829 3.70923 15.3253C3.74981 15.3678 3.80548 15.3925 3.86416 15.3941H4.45465C4.48437 15.3942 4.51382 15.3884 4.54128 15.3771C4.56874 15.3657 4.59367 15.349 4.61462 15.3279C4.63557 15.3068 4.65212 15.2818 4.66332 15.2543C4.67453 15.2267 4.68015 15.1972 4.67987 15.1675V15.0268C4.97954 14.9841 5.27287 14.9049 5.5533 14.791L5.6286 14.917C5.64372 14.9423 5.66369 14.9643 5.68737 14.9818C5.71105 14.9993 5.73796 15.012 5.76655 15.019C5.79514 15.0261 5.82485 15.0274 5.85396 15.023C5.88307 15.0185 5.91101 15.0083 5.93617 14.993L6.44361 14.6988C6.49523 14.668 6.53282 14.6183 6.54845 14.5602C6.56408 14.5021 6.55652 14.4403 6.52736 14.3877L6.45206 14.2617C6.69231 14.0739 6.90775 13.8563 7.09322 13.6142L7.2178 13.6902C7.27004 13.7192 7.33153 13.7266 7.38913 13.7108C7.44673 13.695 7.49588 13.6573 7.52606 13.6058L7.81744 13.0934C7.84589 13.0407 7.85307 12.9791 7.83749 12.9212C7.82191 12.8633 7.78477 12.8136 7.73369 12.7823L7.60911 12.7119C7.7248 12.4262 7.8031 12.1267 7.84207 11.8209H7.99198C8.05013 11.8199 8.10571 11.7968 8.14741 11.7563C8.18912 11.7157 8.21382 11.6608 8.2165 11.6027V11.0059C8.21561 10.9464 8.19176 10.8895 8.14993 10.8471C8.10809 10.8048 8.0515 10.7802 7.99198 10.7786ZM4.16327 13.3341C3.76017 13.338 3.365 13.2221 3.02793 13.0009C2.69085 12.7798 2.42709 12.4635 2.27011 12.0922C2.11314 11.7209 2.07003 11.3114 2.14628 10.9155C2.22252 10.5197 2.41467 10.1554 2.69833 9.86896C2.98199 9.58252 3.34436 9.38685 3.73945 9.30676C4.13453 9.22666 4.54451 9.26578 4.91733 9.41913C5.29014 9.57249 5.60898 9.83314 5.83336 10.168C6.05775 10.5029 6.17755 10.897 6.17757 11.3001C6.17933 11.5661 6.12858 11.8297 6.02822 12.076C5.92786 12.3223 5.77986 12.5464 5.59272 12.7353C5.40559 12.9243 5.18299 13.0744 4.93769 13.1772C4.69239 13.28 4.42922 13.3333 4.16327 13.3341Z" fill="#0A2463"/>
<path d="M16.789 10.0388C16.847 9.86314 16.9176 9.6919 17.0001 9.52637C16.9213 9.44405 16.8739 9.33668 16.8662 9.22296C16.8584 9.10925 16.8909 8.99644 16.9579 8.90422L17.3161 8.43337C17.3844 8.3416 17.4839 8.27807 17.5959 8.25484C17.7078 8.23162 17.8244 8.25031 17.9235 8.30738C18.0601 8.18565 18.2047 8.07326 18.3564 7.97096C18.3281 7.85981 18.3402 7.74226 18.3905 7.63918C18.4407 7.5361 18.5259 7.45417 18.6308 7.40793L19.1721 7.18131C19.2772 7.13661 19.3949 7.1315 19.5035 7.16696C19.6121 7.20241 19.7041 7.27603 19.7626 7.37414C19.9384 7.33861 20.1164 7.31509 20.2954 7.30375C20.3277 7.19297 20.3979 7.09707 20.4937 7.03276C20.5896 6.96845 20.7049 6.93981 20.8197 6.95185L21.4024 7.02786C21.5154 7.04439 21.6187 7.10094 21.6935 7.18723C21.7683 7.27352 21.8096 7.38381 21.8099 7.49801C21.9841 7.55629 22.1539 7.62686 22.3181 7.70916L22.3681 7.65847V6.37262C21.2841 5.80389 20.0194 5.68602 18.849 6.04464C17.5674 6.54927 16.8263 7.85202 16.3773 9.09635L16.3188 9.25613H14.8915L14.9246 8.97811C14.995 8.44885 15.0161 7.67537 14.5502 7.31432C13.7598 6.69216 11.5456 7.40652 10.6638 7.64159C9.72822 7.94118 8.75876 8.12205 7.77814 8.17999H7.54518L7.529 7.94422C7.47058 7.07854 4.93195 6.70904 3.41736 6.51549L3.4427 7.22985C3.48035 7.14894 3.53981 7.08013 3.61441 7.03115C3.689 6.98217 3.77577 6.95496 3.86498 6.95256H4.45547C4.5696 6.95415 4.6794 6.99655 4.76499 7.07207C4.85058 7.14759 4.90631 7.25124 4.9221 7.36428C5.09911 7.40149 5.27392 7.44849 5.44573 7.50505C5.51789 7.41556 5.61949 7.3546 5.73242 7.33307C5.84534 7.31154 5.96225 7.33085 6.06227 7.38752L6.56971 7.68171C6.66742 7.74225 6.74088 7.83503 6.77738 7.94403C6.81388 8.05302 6.81113 8.17136 6.76959 8.27853C6.90557 8.39903 7.03346 8.52833 7.15246 8.66562C7.25891 8.62504 7.3762 8.62296 7.48403 8.65971C7.59186 8.69647 7.68345 8.76977 7.74296 8.86692L8.03433 9.37999C8.09113 9.48082 8.11062 9.59842 8.08939 9.71218C8.06816 9.82594 8.00755 9.92861 7.91821 10.0022C7.96299 10.1312 7.99897 10.2631 8.02589 10.397H8.96547V9.30398C8.96673 9.12496 9.03797 8.95354 9.16397 8.82636C9.28996 8.69918 9.46072 8.62633 9.63972 8.62339H13.8344C14.0139 8.62488 14.1855 8.69726 14.3118 8.82475C14.4381 8.95225 14.5088 9.12452 14.5087 9.30398V10.397H16.3385C16.3634 10.2959 16.4212 10.2059 16.5027 10.141C16.5842 10.0762 16.6849 10.0403 16.789 10.0388Z" fill="#0A2463"/>
<path d="M13.8339 8.87891H9.63921C9.52663 8.88057 9.41923 8.92646 9.34021 9.00666C9.26119 9.08686 9.21691 9.19494 9.21692 9.30753V10.4005C9.21691 10.5131 9.26119 10.6212 9.34021 10.7014C9.41923 10.7816 9.52663 10.8275 9.63921 10.8292H13.8339C13.9465 10.8275 14.0539 10.7816 14.1329 10.7014C14.2119 10.6212 14.2562 10.5131 14.2562 10.4005V9.30753C14.2562 9.19494 14.2119 9.08686 14.1329 9.00666C14.0539 8.92646 13.9465 8.88057 13.8339 8.87891Z" fill="#0A2463"/>
</svg>
