<?xml version="1.0" standalone="no"?>
<!DOCTYPE svg PUBLIC "-//W3C//DTD SVG 20010904//EN"
 "http://www.w3.org/TR/2001/REC-SVG-20010904/DTD/svg10.dtd">
<svg version="1.0" xmlns="http://www.w3.org/2000/svg"
 width="128.000000pt" height="80.000000pt" viewBox="0 0 128.000000 80.000000"
 preserveAspectRatio="xMidYMid meet">

<g transform="translate(0.000000,80.000000) scale(0.100000,-0.100000)"
fill="#000000" stroke="none">
<path d="M264 446 c-3 -7 -4 -33 -2 -57 3 -37 7 -45 26 -47 61 -9 98 68 50
102 -28 20 -67 21 -74 2z m66 -25 c13 -25 13 -27 -6 -45 -25 -25 -34 -19 -34
24 0 44 21 55 40 21z"/>
<path d="M370 400 c0 -45 3 -61 13 -57 7 2 12 23 12 57 0 34 -5 55 -12 58 -10
3 -13 -13 -13 -58z"/>
<path d="M422 448 c-19 -19 -14 -37 13 -50 35 -16 34 -42 -1 -34 -19 5 -25 3
-22 -6 8 -23 55 -22 68 2 9 17 7 24 -15 44 -30 28 -31 36 -4 36 11 0 17 5 14
10 -8 14 -38 13 -53 -2z"/>
<path d="M510 440 c-11 -11 -20 -29 -20 -40 0 -11 9 -29 20 -40 23 -23 70 -27
70 -7 0 8 -10 13 -21 13 -12 -1 -26 7 -33 17 -15 23 4 52 33 51 11 0 21 5 21
13 0 20 -47 16 -70 -7z"/>
<path d="M720 451 c0 -16 43 -111 50 -111 7 0 50 95 50 111 0 22 -20 5 -31
-26 -7 -19 -16 -35 -19 -35 -3 0 -12 16 -19 35 -11 31 -31 48 -31 26z"/>
<path d="M840 400 l0 -60 30 0 c17 0 30 5 30 10 0 6 -9 10 -20 10 -11 0 -20 7
-20 15 0 8 9 15 20 15 11 0 20 5 20 10 0 6 -9 10 -20 10 -11 0 -20 7 -20 15 0
8 9 15 20 15 11 0 20 5 20 10 0 6 -13 10 -30 10 l-30 0 0 -60z"/>
<path d="M920 400 c0 -33 4 -60 10 -60 6 0 10 10 10 23 l1 22 18 -22 c27 -32
48 -30 27 1 -10 15 -12 27 -6 31 16 10 12 52 -6 59 -45 17 -54 9 -54 -54z m48
22 c2 -7 -3 -12 -12 -12 -9 0 -16 7 -16 16 0 17 22 14 28 -4z"/>
</g>
</svg>
