<svg id="Layer_1" data-name="Layer 1" xmlns="http://www.w3.org/2000/svg" viewBox="0 0 29 14"><defs><style>.cls-1{fill:#222c60;}</style></defs><title>camionnette</title><path class="cls-1" d="M283,422.81v2c0,.34.08.58.44.58h2.91a3.12,3.12,0,0,0,1.07,1.45,3.39,3.39,0,0,0,1.73.66,3.46,3.46,0,0,0,1.73-.66,3.26,3.26,0,0,0,1.07-1.45h11.9a3.12,3.12,0,0,0,1.07,1.45,3.39,3.39,0,0,0,1.73.66,3.46,3.46,0,0,0,1.73-.66,3.26,3.26,0,0,0,1.07-1.45h1.84a.64.64,0,0,0,.42-.13.62.62,0,0,0,.22-.35l.06-2c0-.18,0-2.14,0-2.14,0-.85-.66-1.29-1.56-1.64,0,0-3.83-1.7-3.87-1.73l-1.28-2.13-.91-1.59c-.09-.15-.24-.13-.43-.17s-.11.11-.17.11H285.45a1.34,1.34,0,0,0-1.5,1.53v6.63h-.52C283.07,421.78,283,422.46,283,422.81Zm22.07,2a1.49,1.49,0,0,1,.27-.83,1.58,1.58,0,0,1,1.61-.63,1.59,1.59,0,0,1,.81.4,1.48,1.48,0,0,1,.43.77,1.41,1.41,0,0,1-.09.86,1.56,1.56,0,0,1-.58.67,1.7,1.7,0,0,1-.88.25,1.64,1.64,0,0,1-1.11-.44A1.51,1.51,0,0,1,305.06,424.82Zm-4.84-10.29h3.14l2,3.62h-4.93c-.28,0-.2-.57-.2-.84Zm-12.66,10.29a1.37,1.37,0,0,1,.27-.82,1.47,1.47,0,0,1,.7-.55,1.76,1.76,0,0,1,.91-.09,1.62,1.62,0,0,1,.8.41,1.46,1.46,0,0,1,.43.76,1.41,1.41,0,0,1-.09.86,1.52,1.52,0,0,1-.57.66,1.61,1.61,0,0,1-2-.18A1.43,1.43,0,0,1,287.56,424.82Z" transform="translate(-282.99 -413.51)"/></svg>