<svg width="14" height="16" viewBox="0 0 14 16" fill="none" xmlns="http://www.w3.org/2000/svg">
<g clip-path="url(#clip0_7963_3243)">
<path d="M4.16875 3H9.83125C10.2563 3 10.6344 3.26875 10.775 3.66875L11.5906 6H2.40937L3.225 3.66875C3.36562 3.26875 3.74375 3 4.16875 3ZM1.3375 3.00938L0.2375 6.15C-0.4875 6.45 -1 7.16563 -1 8V10.5C-1 11.2406 -0.596875 11.8875 0 12.2312V14C0 14.5531 0.446875 15 1 15H2C2.55312 15 3 14.5531 3 14V12.5H11V14C11 14.5531 11.4469 15 12 15H13C13.5531 15 14 14.5531 14 14V12.2312C14.5969 11.8844 15 11.2406 15 10.5V8C15 7.16563 14.4875 6.45 13.7625 6.15L12.6625 3.00938C12.2406 1.80625 11.1062 1 9.83125 1H4.16875C2.89375 1 1.75938 1.80625 1.3375 3.00938ZM5.5 8.5H8.5C8.775 8.5 9 8.725 9 9V10C9 10.275 8.775 10.5 8.5 10.5H5.5C5.225 10.5 5 10.275 5 10V9C5 8.725 5.225 8.5 5.5 8.5ZM0.5 8.75C0.5 8.33437 0.834375 8 1.25 8H2.25C2.66563 8 3 8.33437 3 8.75C3 9.16562 2.66563 9.5 2.25 9.5H1.25C0.834375 9.5 0.5 9.16562 0.5 8.75ZM11.75 8H12.75C13.1656 8 13.5 8.33437 13.5 8.75C13.5 9.16562 13.1656 9.5 12.75 9.5H11.75C11.3344 9.5 11 9.16562 11 8.75C11 8.33437 11.3344 8 11.75 8Z" fill="#164FDA"/>
</g>
<defs>
<clipPath id="clip0_7963_3243">
<rect width="14" height="16" fill="white"/>
</clipPath>
</defs>
</svg>
