<svg width="12" height="13" viewBox="0 0 12 13" fill="none" xmlns="http://www.w3.org/2000/svg">
<path d="M11.6323 0.743368C11.5975 0.656675 11.5306 0.58674 11.4456 0.548111C11.3605 0.509482 11.2638 0.505134 11.1757 0.535972C11.0875 0.566809 11.0146 0.630457 10.9721 0.713676C10.9297 0.796894 10.9209 0.893275 10.9477 0.982768C11.5051 2.58477 10.3987 3.78117 9.55514 4.42197L9.21434 3.93357C9.09974 3.76977 8.84354 3.63357 8.64434 3.63117L6.73154 3.63957C6.49787 3.64663 6.27046 3.7167 6.07334 3.84237L0.43694 7.79457C0.305837 7.88683 0.216632 8.02727 0.188856 8.18516C0.161079 8.34305 0.196996 8.50551 0.28874 8.63697L2.85014 12.3018C3.04214 12.5748 3.34874 12.5418 3.62234 12.351L9.25874 8.39817C9.42074 8.28357 9.60794 8.03637 9.67394 7.84737L10.2727 5.96037C10.3387 5.77197 10.2985 5.48457 10.1839 5.32077L9.97634 5.02317C11.1091 4.15497 12.2851 2.62077 11.6323 0.743368ZM9.00974 6.35817C8.9059 6.43085 8.78876 6.48236 8.66501 6.50976C8.54126 6.53716 8.41332 6.5399 8.28851 6.51784C8.1637 6.49577 8.04446 6.44933 7.9376 6.38117C7.83074 6.313 7.73836 6.22445 7.66574 6.12057C7.5187 5.91036 7.46107 5.6504 7.5055 5.39775C7.54993 5.14509 7.6928 4.92039 7.90274 4.77297C8.06732 4.65766 8.26382 4.59665 8.46477 4.59848C8.66572 4.60031 8.86108 4.66488 9.02354 4.78317C8.86034 4.88157 8.74814 4.93917 8.72714 4.94817C8.65276 4.98363 8.59264 5.04331 8.55661 5.11741C8.52059 5.19152 8.51081 5.27566 8.52887 5.35606C8.54693 5.43645 8.59176 5.50833 8.65601 5.55991C8.72027 5.61149 8.80014 5.63972 8.88254 5.63997C8.93414 5.63997 8.98694 5.62797 9.03674 5.60457C9.15314 5.54937 9.27794 5.48397 9.40814 5.40657C9.43809 5.58661 9.41658 5.77144 9.3461 5.93979C9.27562 6.10815 9.15902 6.25317 9.00974 6.35817Z" fill="white"/>
</svg>
