<svg width="16" height="16" viewBox="0 0 16 16" fill="none" xmlns="http://www.w3.org/2000/svg">
<g clip-path="url(#clip0_300_20593)">
<path d="M8 0C9.15544 0 10.1334 0.671753 10.5068 1.59961H14.2227C15.2002 1.59982 16 2.32033 16 3.2002V14.4004C15.9998 15.2801 15.2001 15.9998 14.2227 16H1.77734C0.799908 15.9998 0.000236535 15.2801 0 14.4004V3.2002C0 2.32033 0.799763 1.59982 1.77734 1.59961H5.49316C5.86658 0.671753 6.84456 2.3106e-08 8 0ZM4.44336 11.1992C3.95473 11.1993 3.55495 11.5593 3.55469 11.999C3.55469 12.439 3.95457 12.7997 4.44336 12.7998H8.8877C9.37658 12.7998 9.77734 12.439 9.77734 11.999C9.77708 11.5592 9.37642 11.1992 8.8877 11.1992H4.44336ZM4.44336 8C3.95457 8.00011 3.55469 8.35987 3.55469 8.7998C3.55469 9.23974 3.95457 9.5995 4.44336 9.59961H11.5547C12.0436 9.59961 12.4434 9.2398 12.4434 8.7998C12.4434 8.35981 12.0436 8 11.5547 8H4.44336ZM4.44336 4.7998C3.95457 4.79991 3.55469 5.16065 3.55469 5.60059C3.55495 6.04032 3.95473 6.40028 4.44336 6.40039H11.5547C12.0434 6.40039 12.4431 6.04039 12.4434 5.60059C12.4434 5.16059 12.0436 4.7998 11.5547 4.7998H4.44336ZM8 1.59961C7.51128 1.59972 7.11145 1.95957 7.11133 2.39941C7.11133 2.83935 7.51121 3.19911 8 3.19922C8.48889 3.19922 8.88867 2.83941 8.88867 2.39941C8.88855 1.9595 8.48882 1.59961 8 1.59961Z" fill="#164FDA"/>
</g>
<defs>
<clipPath id="clip0_300_20593">
<rect width="16" height="16" fill="white"/>
</clipPath>
</defs>
</svg>
