<svg width="21" height="24" viewBox="0 0 21 24" fill="none" xmlns="http://www.w3.org/2000/svg">
<g clip-path="url(#clip0_9405_12161)">
<path d="M3.05163 3.20599C3.05163 3.36919 3.05664 3.50079 3.05163 3.62714C2.9663 4.89584 3.94503 6.01714 5.29015 6.03293C7.2978 6.05925 9.30545 6.05925 11.3131 6.03293C12.6181 6.01714 13.6169 4.93269 13.5566 3.62187C13.5516 3.49027 13.5566 3.36392 13.5566 3.20073C14.1338 3.20073 14.6809 3.23231 15.228 3.19546C16.3021 3.12176 16.6434 3.73242 16.6183 4.65894C16.5782 6.19086 16.6083 7.72804 16.6083 9.26522C16.6083 9.37577 16.6083 9.48632 16.6083 9.57055C16.1214 9.6653 15.6647 9.71795 15.223 9.84956C14.0234 10.2075 13.0949 10.9603 12.4223 12.0606C12.327 12.2132 12.2316 12.2659 12.0609 12.2659C10.2942 12.2606 8.5325 12.2659 6.76577 12.2659C6.69049 12.2659 6.6152 12.2659 6.53991 12.2659C6.1434 12.2869 5.86735 12.5817 5.87237 12.966C5.87739 13.3503 6.16348 13.6399 6.56501 13.6399C8.02055 13.6399 9.4761 13.6399 10.9316 13.6399C11.1977 13.6399 11.4637 13.6399 11.7749 13.6399C11.6092 14.4611 11.5992 15.2613 11.7799 16.0878C11.6293 16.0878 11.5189 16.0878 11.4135 16.0878C9.79732 16.0878 8.18618 16.0878 6.57003 16.0878C6.16348 16.0878 5.88241 16.3668 5.87237 16.7563C5.86233 17.1459 6.13336 17.4302 6.53489 17.4618C6.62022 17.467 6.70053 17.4618 6.78585 17.4618C8.50741 17.4618 10.234 17.467 11.9555 17.4565C12.2115 17.4565 12.347 17.546 12.4926 17.7671C13.4161 19.1621 14.6859 19.9465 16.3071 20.0623C16.548 20.0781 16.6133 20.1518 16.6083 20.3992C16.5932 21.2047 16.6083 22.0154 16.6032 22.8208C16.6032 23.5736 16.1917 24 15.484 24C10.6907 24 5.89747 24 1.10421 24C0.40153 24 0 23.5789 0 22.8419C0 16.6721 0 10.5023 0 4.33782C0 3.63767 0.406549 3.21126 1.07911 3.21126C1.72156 3.21126 2.36401 3.21126 3.05163 3.21126V3.20599ZM9.93786 19.8939C8.80856 19.8939 7.67925 19.8939 6.55497 19.8939C6.15846 19.8939 5.87739 20.1887 5.87237 20.5782C5.87237 20.9678 6.14842 21.2678 6.54493 21.2678C8.78346 21.2678 11.027 21.2731 13.2655 21.2626C13.4312 21.2626 13.6269 21.1678 13.7574 21.052C13.9732 20.8572 14.0134 20.5835 13.8929 20.3045C13.7775 20.0307 13.5617 19.8939 13.2756 19.8939C12.1663 19.8939 11.0521 19.8939 9.94288 19.8939H9.93786ZM9.91276 8.45978C8.7935 8.45978 7.67423 8.45978 6.55497 8.45978C6.1434 8.45978 5.86233 8.75984 5.87237 9.16519C5.88241 9.56002 6.17352 9.83376 6.59512 9.83376C7.67423 9.83376 8.75335 9.83376 9.82744 9.83376C10.9567 9.83376 12.086 9.83376 13.2103 9.83376C13.5014 9.83376 13.7373 9.72848 13.8728 9.44947C14.0987 8.98094 13.7925 8.46504 13.2706 8.45978C12.1513 8.44925 11.032 8.45978 9.91276 8.45978ZM4.53227 12.9555C4.53227 12.408 4.1207 11.9711 3.59871 11.9658C3.08174 11.9658 2.65511 12.4027 2.65511 12.945C2.65511 13.5083 3.0717 13.9505 3.60373 13.9505C4.12572 13.9505 4.53728 13.5083 4.53728 12.9608L4.53227 12.9555ZM2.6501 9.13361C2.6501 9.6811 3.05664 10.1233 3.57863 10.1338C4.0956 10.1444 4.52223 9.70742 4.53227 9.15993C4.53728 8.59138 4.12572 8.14918 3.59369 8.14918C3.07672 8.14918 2.66013 8.58612 2.65511 9.13361H2.6501ZM4.52725 16.7721C4.52725 16.2194 4.12572 15.7824 3.59871 15.7824C3.0717 15.7824 2.65511 16.2036 2.64508 16.7511C2.64006 17.3196 3.04661 17.7566 3.58867 17.7566C4.11568 17.7566 4.52223 17.3301 4.52223 16.7774L4.52725 16.7721ZM4.53227 20.5782C4.53227 20.0307 4.11568 19.5885 3.59871 19.5833C3.07672 19.5833 2.6501 20.036 2.65511 20.594C2.65511 21.1362 3.08676 21.5784 3.60373 21.5732C4.12572 21.5626 4.53728 21.1257 4.53227 20.5782Z" fill="white"/>
<path d="M16.6136 19.4411C14.1894 19.4358 12.242 17.3775 12.252 14.8243C12.262 12.3132 14.2295 10.2654 16.6236 10.2654C19.0529 10.2654 20.9953 12.3132 20.9953 14.8717C20.9953 17.3933 19.0278 19.4463 16.6136 19.4411ZM16.0916 15.5139C15.7001 15.0612 15.3438 14.6348 14.9673 14.2241C14.6913 13.9241 14.3199 13.9188 14.084 14.182C13.838 14.4558 13.8732 14.8085 14.1693 15.1085C14.6311 15.5771 15.0928 16.0509 15.5546 16.5194C15.7704 16.7352 15.9862 16.9511 16.2071 17.1722C16.2673 17.109 16.3125 17.0721 16.3526 17.03C16.9951 16.3035 17.6375 15.5771 18.28 14.8506C18.561 14.5347 18.8421 14.2241 19.1181 13.9083C19.4042 13.5819 19.4143 13.2134 19.1533 12.9554C18.8973 12.7028 18.561 12.7449 18.2699 13.0607C18.2247 13.1134 18.1796 13.166 18.1344 13.2134C17.4869 13.9451 16.8395 14.6769 16.1017 15.5139H16.0916Z" fill="white"/>
<path d="M10.3047 1.95318C10.8568 1.95318 11.3988 1.95318 11.9409 1.95318C12.6887 1.95318 13.0451 2.32694 13.0451 3.11132C13.0451 3.39033 13.0652 3.67461 13.03 3.95361C12.9096 4.90119 12.2069 5.53291 11.2583 5.54344C10.4201 5.55397 9.58692 5.54344 8.74873 5.54344C7.61943 5.54344 6.49012 5.5487 5.36082 5.54344C4.44734 5.53817 3.74968 4.99068 3.60413 4.10628C3.52884 3.65355 3.5439 3.17976 3.58405 2.7165C3.62421 2.26377 4.04581 1.95318 4.53267 1.95318C5.04964 1.95318 5.57163 1.95318 6.08859 1.95318C6.21909 1.95318 6.2994 1.93738 6.32951 1.76893C6.52024 0.695005 7.3233 -0.0104124 8.32712 0.000116263C9.30585 0.0106449 10.1039 0.747649 10.2846 1.80051C10.2896 1.84263 10.2946 1.88474 10.3047 1.94791V1.95318ZM7.41866 2.10058C7.41866 2.62174 7.81517 3.03236 8.30705 3.0271C8.78386 3.0271 9.18037 2.60069 9.18037 2.10058C9.18037 1.5952 8.77382 1.16879 8.28195 1.16879C7.80513 1.16879 7.41364 1.58994 7.41364 2.09531L7.41866 2.10058Z" fill="white"/>
</g>
<defs>
<clipPath id="clip0_9405_12161">
<rect width="21" height="24" fill="white"/>
</clipPath>
</defs>
</svg>
