<svg width="18" height="25" viewBox="0 0 18 25" fill="none" xmlns="http://www.w3.org/2000/svg">
<path d="M16.06 7.88711C16.6459 7.30117 16.6459 6.34961 16.06 5.76367C15.474 5.17773 14.5225 5.17773 13.9365 5.76367L9.00059 10.7043L4.05996 5.76836C3.47402 5.18242 2.52246 5.18242 1.93652 5.76836C1.35059 6.3543 1.35059 7.30586 1.93652 7.8918L6.87715 12.8277L1.94121 17.7684C1.35527 18.3543 1.35527 19.3059 1.94121 19.8918C2.52715 20.4777 3.47871 20.4777 4.06465 19.8918L9.00059 14.9512L13.9412 19.8871C14.5271 20.473 15.4787 20.473 16.0646 19.8871C16.6506 19.3012 16.6506 18.3496 16.0646 17.7637L11.124 12.8277L16.06 7.88711Z" fill="#0A2463"/>
</svg>
