<svg width="16" height="16" viewBox="0 0 16 16" fill="none" xmlns="http://www.w3.org/2000/svg">
<g id="cloud-showers-heavy" ClipPath="url(#clip0_1740_13884)">
<path id="Primary" d="M2.99981 10C1.34356 10 -0.000193822 8.65625 -0.000193822 7C-0.000193822 5.67188 0.862306 4.54375 2.05918 4.15C2.02168 3.94063 1.99981 3.72187 1.99981 3.5C1.99981 1.56562 3.56543 0 5.49981 0C6.84668 0 8.01543 0.759375 8.59981 1.875C9.05918 1.34063 9.74043 1 10.4998 1C11.8811 1 12.9998 2.11875 12.9998 3.5C12.9998 3.67188 12.9811 3.8375 12.9498 4C12.9654 4 12.9842 4 12.9998 4C14.6561 4 15.9998 5.34375 15.9998 7C15.9998 8.65625 14.6561 10 12.9998 10H2.99981ZM2.54668 11.0594C2.92793 11.2219 3.10293 11.6625 2.94043 12.0437L1.44043 15.5437C1.27793 15.925 0.837306 16.1 0.456056 15.9375C0.0748062 15.775 -0.103319 15.3344 0.0591812 14.9531L1.55918 11.4531C1.72168 11.0719 2.16231 10.8969 2.54356 11.0594H2.54668ZM6.29668 11.0594C6.67793 11.2219 6.85293 11.6625 6.69043 12.0437L5.19043 15.5437C5.02793 15.925 4.58731 16.1 4.20606 15.9375C3.82481 15.775 3.64981 15.3344 3.81231 14.9531L5.31231 11.4531C5.47481 11.0719 5.91543 10.8969 6.29668 11.0594ZM13.9404 12.0437L12.4404 15.5437C12.2779 15.925 11.8373 16.1 11.4561 15.9375C11.0748 15.775 10.8998 15.3344 11.0623 14.9531L12.5623 11.4531C12.7248 11.0719 13.1654 10.8969 13.5467 11.0594C13.9279 11.2219 14.1029 11.6625 13.9404 12.0437ZM9.79668 11.0594C10.1779 11.2219 10.3529 11.6625 10.1904 12.0437L8.69043 15.5437C8.52793 15.925 8.08731 16.1 7.70606 15.9375C7.32481 15.775 7.14981 15.3344 7.31231 14.9531L8.81231 11.4531C8.97481 11.0719 9.41543 10.8969 9.79668 11.0594Z" fill="#677198"/>
</g>
<defs>
<clipPath id="clip0_1740_13884">
<rect width="16" height="16" fill="white"/>
</clipPath>
</defs>
</svg>
