<svg id="Layer_1" data-name="Layer 1" xmlns="http://www.w3.org/2000/svg" viewBox="0 0 40.96 14.72"><defs><style>.cls-1{fill:#222c60;}</style></defs><title>vintage</title><path class="cls-1" d="M285.41,417.41a6.09,6.09,0,0,1,5.08,1.94c2.3,2.75,1.2,5.19,1.2,5.19H297a7.84,7.84,0,0,0,4.69-1.84,36.77,36.77,0,0,1,5.88-4.09,8.5,8.5,0,0,1,3.94-1,4,4,0,0,1,2.65.55v-1.7l-14-.45-.1,1.15-6,.15a1.57,1.57,0,0,0-.64-.95,2.79,2.79,0,0,0-1.95-.4A37.25,37.25,0,0,0,285.41,417.41Z" transform="translate(-277.03 -413.11)"/><path class="cls-1" d="M278.53,421.25a12.41,12.41,0,0,1,3.59-2.29c.54-.17,5.33-2.6,8.27,1.74a5.56,5.56,0,0,1,.9,4.29h5s3.57.5,8.48-3.24c1.52-1.16,4.29-3.24,7.08-2.89,1.65.2,5,1.14,5,4-.05,2.64-1.8,3-1.8,3h-.51a3.94,3.94,0,0,0,.32-1.92,3.89,3.89,0,0,0-.63-1.84,4,4,0,0,0-1.43-1.32,4,4,0,0,0-3.76,0,4,4,0,0,0-1.43,1.32,4,4,0,0,0-.3,3.76l-16.92,0a4,4,0,0,0-.28-3.77,4,4,0,0,0-7.26,1.86,4.08,4.08,0,0,0,.35,1.92h-1.8s-4.34.35-4.39-2.19C277,422.74,278,421.72,278.53,421.25Z" transform="translate(-277.03 -413.11)"/><path class="cls-1" d="M310.93,421a3.44,3.44,0,0,1,.67,6.81,3.36,3.36,0,0,1-2-.19,3.44,3.44,0,0,1-1.55-1.27,3.49,3.49,0,0,1-.58-1.91,3.44,3.44,0,0,1,.26-1.31,3.47,3.47,0,0,1,1.87-1.87A3.44,3.44,0,0,1,310.93,421Zm0,6.38a3,3,0,0,0,1.64-.49,3,3,0,0,0,1.25-3,2.94,2.94,0,0,0-.81-1.51,3,3,0,0,0-3.2-.64,2.93,2.93,0,0,0-1.32,1.09,2.87,2.87,0,0,0-.5,1.63,2.93,2.93,0,0,0,.23,1.13,2.87,2.87,0,0,0,.63,1,2.94,2.94,0,0,0,1,.64A2.87,2.87,0,0,0,310.93,427.33Z" transform="translate(-277.03 -413.11)"/><path class="cls-1" d="M311,422.6a1.81,1.81,0,0,1,1,.3,1.85,1.85,0,0,1,.67.82,1.8,1.8,0,0,1,.11,1,1.84,1.84,0,0,1-.5.93,1.81,1.81,0,0,1-.93.5,1.87,1.87,0,0,1-1-.1,1.8,1.8,0,0,1-.82-.67,1.82,1.82,0,0,1-.31-1,1.86,1.86,0,0,1,.14-.7,1.81,1.81,0,0,1,.4-.59,1.6,1.6,0,0,1,.59-.39A1.64,1.64,0,0,1,311,422.6Zm0,2.32a.55.55,0,0,0,.29-.09.52.52,0,0,0,.2-.24.51.51,0,0,0,0-.3.49.49,0,0,0-.15-.27.5.5,0,0,0-.27-.14.52.52,0,0,0-.3,0,.48.48,0,0,0-.23.19.52.52,0,0,0-.09.29.45.45,0,0,0,0,.2.39.39,0,0,0,.11.17.66.66,0,0,0,.17.12A.71.71,0,0,0,311,424.92Z" transform="translate(-277.03 -413.11)"/><path class="cls-1" d="M286.8,421a3.45,3.45,0,0,1,3.18,2.12,3.47,3.47,0,0,1,.2,2,3.41,3.41,0,0,1-.94,1.76,3.45,3.45,0,0,1-1.76.94,3.44,3.44,0,0,1-4.11-3.37A3.43,3.43,0,0,1,286.8,421Zm0,6.38a2.94,2.94,0,0,0,2.89-3.51,2.94,2.94,0,0,0-2.31-2.31,2.91,2.91,0,0,0-3,1.25,2.87,2.87,0,0,0-.5,1.63,2.93,2.93,0,0,0,.23,1.13,2.87,2.87,0,0,0,.63,1,2.94,2.94,0,0,0,1,.64A2.87,2.87,0,0,0,286.8,427.33Z" transform="translate(-277.03 -413.11)"/><path class="cls-1" d="M286.85,422.6a1.81,1.81,0,0,1,1,.3,1.85,1.85,0,0,1,.78,1.87,1.84,1.84,0,0,1-.5.93,1.81,1.81,0,0,1-.93.5,1.87,1.87,0,0,1-1-.1,1.8,1.8,0,0,1-.82-.67,1.82,1.82,0,0,1-.31-1,1.86,1.86,0,0,1,.14-.7,1.81,1.81,0,0,1,.4-.59,1.79,1.79,0,0,1,.59-.39A1.64,1.64,0,0,1,286.85,422.6Zm0,2.32a.55.55,0,0,0,.29-.09.52.52,0,0,0,.2-.24.51.51,0,0,0,0-.3.52.52,0,0,0-.15-.27.51.51,0,0,0-.26-.14.54.54,0,0,0-.31,0,.53.53,0,0,0-.32.48.56.56,0,0,0,.15.37A.52.52,0,0,0,286.9,424.92Z" transform="translate(-277.03 -413.11)"/><path class="cls-1" d="M315,423.39a.47.47,0,0,0,.14.33.46.46,0,0,0,.32.13h2a.46.46,0,0,0,.32-.13.47.47,0,0,0,.14-.33.33.33,0,0,0,0-.17.31.31,0,0,0-.1-.15.45.45,0,0,0-.14-.1.58.58,0,0,0-.18,0h-2a.47.47,0,0,0-.17,0,.46.46,0,0,0-.25.25A.47.47,0,0,0,315,423.39Z" transform="translate(-277.03 -413.11)"/><path class="cls-1" d="M300.6,417.41s0,0,.06.07l.09,0h.1l.09,0a.27.27,0,0,0,.1-.16.32.32,0,0,0-.05-.19l-2.64-3.91a.23.23,0,0,0-.16-.11.19.19,0,0,0-.18,0,.25.25,0,0,0-.06.34Z" transform="translate(-277.03 -413.11)"/><path class="cls-1" d="M315.74,416.92v2.26a1.13,1.13,0,1,1,0-2.26Z" transform="translate(-277.03 -413.11)"/></svg>