<svg width="52" height="42" viewBox="0 0 52 42" fill="none" xmlns="http://www.w3.org/2000/svg">
<path d="M44 0H8C3.58172 0 0 3.58172 0 8V34C0 38.4183 3.58172 42 8 42H44C48.4183 42 52 38.4183 52 34V8C52 3.58172 48.4183 0 44 0Z" fill="white"/>
<path d="M44 0.5H8C3.85786 0.5 0.5 3.85786 0.5 8V34C0.5 38.1421 3.85786 41.5 8 41.5H44C48.1421 41.5 51.5 38.1421 51.5 34V8C51.5 3.85786 48.1421 0.5 44 0.5Z" stroke="#164FDA"/>
<path d="M40.4342 12.8396L32.8342 20.5756C32.8203 20.5883 32.8093 20.6037 32.8018 20.621C32.7942 20.6382 32.7903 20.6568 32.7903 20.6756C32.7903 20.6943 32.7942 20.7129 32.8018 20.7301C32.8093 20.7474 32.8203 20.7628 32.8342 20.7755L38.1492 26.4366C38.2349 26.5217 38.303 26.623 38.3494 26.7345C38.3958 26.8461 38.4197 26.9657 38.4197 27.0866C38.4197 27.2074 38.3958 27.327 38.3494 27.4386C38.303 27.5501 38.2349 27.6514 38.1492 27.7366C37.9767 27.9088 37.7429 28.0055 37.4992 28.0055C37.2554 28.0055 37.0216 27.9088 36.8492 27.7366L31.5552 22.0966C31.5282 22.0709 31.4924 22.0566 31.4552 22.0566C31.4179 22.0566 31.3821 22.0709 31.3552 22.0966L30.0642 23.4066C29.5361 23.9461 28.9058 24.3751 28.21 24.6683C27.5143 24.9616 26.7672 25.1133 26.0122 25.1146C25.2405 25.1114 24.4772 24.9543 23.767 24.6524C23.0568 24.3506 22.4139 23.91 21.8762 23.3566L20.6342 22.0936C20.6072 22.0679 20.5714 22.0535 20.5342 22.0535C20.4969 22.0535 20.4611 22.0679 20.4342 22.0936L15.1342 27.7336C14.9617 27.9058 14.7279 28.0025 14.4842 28.0025C14.2404 28.0025 14.0066 27.9058 13.8342 27.7336C13.7484 27.6484 13.6804 27.5471 13.6339 27.4356C13.5875 27.324 13.5636 27.2044 13.5636 27.0836C13.5636 26.9627 13.5875 26.8431 13.6339 26.7315C13.6804 26.62 13.7484 26.5187 13.8342 26.4336L19.1492 20.7726C19.1738 20.7451 19.1874 20.7094 19.1874 20.6726C19.1874 20.6357 19.1738 20.6001 19.1492 20.5726L11.5492 12.8366C11.5298 12.816 11.5046 12.8019 11.477 12.796C11.4494 12.7901 11.4207 12.7928 11.3946 12.8037C11.3686 12.8145 11.3464 12.833 11.3312 12.8568C11.3159 12.8805 11.3082 12.9083 11.3092 12.9366V28.4186C11.3107 29.0172 11.5493 29.5909 11.9726 30.0142C12.3959 30.4375 12.9695 30.676 13.5682 30.6775H38.4142C39.0128 30.676 39.5865 30.4375 40.0098 30.0142C40.4331 29.5909 40.6716 29.0172 40.6732 28.4186V12.9386C40.6727 12.9111 40.6642 12.8843 40.6488 12.8616C40.6333 12.8389 40.6115 12.8212 40.5861 12.8106C40.5607 12.8001 40.5328 12.7973 40.5058 12.8024C40.4788 12.8075 40.4539 12.8204 40.4342 12.8396Z" fill="#164FDA"/>
<path d="M25.9912 23.2727C26.5053 23.2744 27.0146 23.1728 27.4887 22.9739C27.9629 22.775 28.3922 22.4828 28.7512 22.1147L39.8252 10.8417C39.4291 10.5211 38.9347 10.3466 38.4252 10.3477H13.5602C13.0503 10.3452 12.5555 10.5198 12.1602 10.8417L23.2372 22.1147C23.5955 22.482 24.0238 22.7737 24.4969 22.9727C24.9699 23.1716 25.478 23.2736 25.9912 23.2727Z" fill="#164FDA"/>
</svg>
