<svg width="84" height="88" viewBox="0 0 84 88" fill="none" xmlns="http://www.w3.org/2000/svg">
<mask id="mask0_300_27254" style="mask-type:luminance" maskUnits="userSpaceOnUse" x="0" y="0" width="84" height="88">
<path d="M84 0.689453H0V87.3105H84V0.689453Z" fill="white"/>
</mask>
<g mask="url(#mask0_300_27254)">
<path d="M48.2081 20.1301L58.3141 27.1131L59.3141 28.6131C59.6901 28.1801 60.2601 27.3131 60.2601 27.3131C60.1871 26.9301 59.2441 22.1741 58.9601 20.9451C56.2311 9.28711 53.7801 9.28711 42.0041 9.28711C30.2281 9.28711 27.7761 9.28711 25.0461 20.9451C24.6841 22.4951 23.8121 26.9451 23.7461 27.3131C24.0392 27.762 24.3545 28.1959 24.6911 28.6131L25.7591 26.8921L26.2991 26.8481C26.4181 26.8381 38.2481 25.2171 47.8111 20.3381L48.2081 20.1301Z" fill="white"/>
<path d="M41.9868 63.8769C45.4158 63.9099 53.1199 57.2769 53.1199 57.2769V55.2089C48.9629 58.0589 45.4118 60.5609 41.9838 60.5289H41.8688C38.3848 60.5289 34.8028 57.9679 30.5688 55.0059V57.0729C30.5688 57.0729 38.3838 63.8729 41.8688 63.8729H41.9838" fill="white"/>
<path d="M81.4 72.2755C78.2 68.0275 71.047 64.3265 56.134 59.2695V62.0775C56.118 70.7695 48.939 75.3165 41.851 75.3165H41.835C34.748 75.3105 27.572 70.7505 27.572 62.0485V59.3725C12.855 64.3775 5.781 68.0505 2.6 72.2865C2.125 73.0125 1.288 74.2545 0 87.3115H84C82.717 74.2555 81.879 73.0105 81.4 72.2755Z" fill="white"/>
<path d="M69.7718 29.9895C69.8232 28.3939 69.3009 26.8328 68.2998 25.5895C67.4639 24.5683 66.9551 23.319 66.8398 22.0045C66.0228 7.06345 58.5998 0.689453 42.0128 0.689453C22.3768 0.689453 17.8868 9.20845 17.1858 22.0005C17.0689 23.3244 16.5369 24.5777 15.6658 25.5815C15.1193 26.219 14.7109 26.9628 14.4661 27.7661C14.2214 28.5693 14.1457 29.4145 14.2438 30.2485C14.6948 38.2075 17.4798 40.1975 18.3218 40.6175C18.5629 40.7699 18.8388 40.8585 19.1236 40.8749C19.4084 40.8914 19.6927 40.8351 19.9498 40.7115C20.085 40.6199 20.1969 40.498 20.2764 40.3554C20.356 40.2128 20.401 40.0536 20.4078 39.8905C19.2007 38.1472 18.4935 36.1068 18.3628 33.9905C17.9958 29.8085 19.0078 26.6745 21.0368 25.4635C21.3188 24.0245 21.8988 21.1125 22.1928 19.8635C25.3078 6.56345 29.4308 5.92645 41.9928 5.92645C54.5548 5.92645 58.6808 6.56045 61.7928 19.8635C62.0288 20.8705 62.6488 23.9635 62.9468 25.4635C64.9768 26.6725 65.9888 29.8075 65.6228 33.9905C65.4938 36.179 64.7419 38.285 63.4558 40.0605C62.9329 40.6865 62.3442 41.2544 61.6998 41.7545C57.3938 45.2995 54.5578 46.9545 46.4508 47.1955C46.0293 46.698 45.4513 46.3586 44.8116 46.2329C44.1719 46.1072 43.5085 46.2026 42.9301 46.5036C42.3518 46.8045 41.8929 47.2931 41.6288 47.8891C41.3646 48.4852 41.3109 49.1533 41.4764 49.7839C41.642 50.4145 42.0169 50.9701 42.5398 51.3596C43.0626 51.749 43.7023 51.9492 44.3539 51.9273C45.0054 51.9054 45.6302 51.6627 46.1257 51.239C46.6212 50.8153 46.958 50.2357 47.0808 49.5955C55.8148 49.2415 59.0128 47.1405 63.6298 43.3025C65.0345 42.2536 66.3012 41.0316 67.3998 39.6655C68.9378 37.5975 69.4068 33.3125 69.7478 30.1925L69.7718 29.9895Z" fill="#FB3640"/>
</g>
</svg>
