<svg width="52" height="42" viewBox="0 0 52 42" fill="none" xmlns="http://www.w3.org/2000/svg">
<path d="M44.001 0H8.00098C3.5827 0 0.000976562 3.58172 0.000976562 8V34C0.000976562 38.4183 3.5827 42 8.00098 42H44.001C48.4193 42 52.001 38.4183 52.001 34V8C52.001 3.58172 48.4193 0 44.001 0Z" fill="white"/>
<path d="M44.001 0.5H8.00098C3.85884 0.5 0.500977 3.85786 0.500977 8V34C0.500977 38.1421 3.85884 41.5 8.00098 41.5H44.001C48.1431 41.5 51.501 38.1421 51.501 34V8C51.501 3.85786 48.1431 0.5 44.001 0.5Z" stroke="#164FDA"/>
<path d="M35.553 30.7653V31.5043C35.5504 31.6995 35.4717 31.886 35.3337 32.024C35.1957 32.1621 35.0092 32.2408 34.814 32.2433H33.337C33.1418 32.2408 32.9553 32.1621 32.8173 32.024C32.6793 31.886 32.6006 31.6995 32.598 31.5043V30.7653H20.78V31.5043C20.7774 31.6995 20.6987 31.886 20.5607 32.024C20.4227 32.1621 20.2362 32.2408 20.041 32.2433H18.564C18.3688 32.2408 18.1823 32.1621 18.0443 32.024C17.9063 31.886 17.8276 31.6995 17.825 31.5043V30.7653C17.4362 30.7714 17.0503 30.6978 16.691 30.549C16.3317 30.4003 16.0067 30.1795 15.736 29.9003C15.4565 29.6297 15.2355 29.3046 15.0867 28.9451C14.9379 28.5856 14.8645 28.1994 14.871 27.8103V26.3333C14.8918 25.1718 15.1799 24.0306 15.713 22.9983C16.2461 21.8884 17.0094 20.9046 17.952 20.1123C18.725 19.3983 19.7284 18.985 20.78 18.9473C20.973 18.9495 21.1644 18.9128 21.3429 18.8394C21.5214 18.7661 21.6833 18.6576 21.819 18.5203C21.9613 18.3854 22.0739 18.2222 22.1495 18.0412C22.2251 17.8602 22.2621 17.6654 22.258 17.4693V15.9923C22.2557 15.7995 22.2923 15.6081 22.3655 15.4296C22.4387 15.2511 22.547 15.0891 22.684 14.9533C22.8214 14.8145 22.9849 14.7043 23.1651 14.6291C23.3453 14.5538 23.5387 14.5151 23.734 14.5151C23.9293 14.5151 24.1227 14.5538 24.3029 14.6291C24.4831 14.7043 24.6466 14.8145 24.784 14.9533C24.9212 15.0891 25.0297 15.251 25.1031 15.4295C25.1764 15.608 25.2131 15.7994 25.211 15.9923H28.171C28.1689 15.7994 28.2056 15.608 28.2789 15.4295C28.3523 15.251 28.4608 15.0891 28.598 14.9533C28.7354 14.8145 28.8989 14.7043 29.0791 14.6291C29.2593 14.5538 29.4527 14.5151 29.648 14.5151C29.8433 14.5151 30.0367 14.5538 30.2169 14.6291C30.3971 14.7043 30.5606 14.8145 30.698 14.9533C30.8352 15.0891 30.9437 15.251 31.0171 15.4295C31.0904 15.608 31.1271 15.7994 31.125 15.9923V17.4693C31.1224 17.664 31.1589 17.8572 31.2322 18.0376C31.3056 18.2179 31.4142 18.3818 31.5519 18.5194C31.6896 18.6571 31.8534 18.7658 32.0338 18.8391C32.2141 18.9124 32.4073 18.9489 32.602 18.9463C33.6535 18.9845 34.6567 19.3978 35.43 20.1113C36.3728 20.9034 37.1361 21.8873 37.669 22.9973C38.202 24.0296 38.4901 25.1708 38.511 26.3323V27.8093C38.511 28.5931 38.1997 29.3447 37.6455 29.8988C37.0913 30.453 36.3397 30.7643 35.556 30.7643L35.553 30.7653ZM26.689 20.4243C26.1045 20.4137 25.5242 20.5237 24.9841 20.7474C24.444 20.971 23.9558 21.3036 23.55 21.7243C23.1327 22.1324 22.8029 22.6212 22.5806 23.1608C22.3583 23.7005 22.2482 24.2798 22.257 24.8633C22.2562 25.445 22.3704 26.0211 22.593 26.5585C22.8156 27.0959 23.1422 27.584 23.5541 27.9948C23.9659 28.4055 24.4549 28.7308 24.9929 28.952C25.5309 29.1731 26.1073 29.2857 26.689 29.2833C27.2717 29.2857 27.8491 29.1727 28.3879 28.9508C28.9267 28.7289 29.4162 28.4026 29.8282 27.9906C30.2402 27.5785 30.5666 27.089 30.7885 26.5502C31.0104 26.0114 31.1234 25.434 31.121 24.8513C31.1234 24.2687 31.0104 23.6913 30.7885 23.1525C30.5666 22.6137 30.2402 22.1242 29.8282 21.7121C29.4162 21.3001 28.9267 20.9738 28.3879 20.7519C27.8491 20.53 27.2717 20.417 26.689 20.4193V20.4243ZM26.689 27.8103C25.9053 27.8103 25.1537 27.499 24.5995 26.9448C24.0453 26.3907 23.734 25.6391 23.734 24.8553C23.734 24.0716 24.0453 23.32 24.5995 22.7658C25.1537 22.2117 25.9053 21.9003 26.689 21.9003C27.0771 21.9003 27.4613 21.9768 27.8198 22.1253C28.1783 22.2738 28.5041 22.4915 28.7785 22.7658C29.0529 23.0402 29.2706 23.366 29.4191 23.7245C29.5676 24.083 29.644 24.4673 29.644 24.8553C29.644 25.2434 29.5676 25.6277 29.4191 25.9862C29.2706 26.3447 29.0529 26.6705 28.7785 26.9448C28.5041 27.2192 28.1783 27.4369 27.8198 27.5854C27.4613 27.7339 27.0771 27.8103 26.689 27.8103ZM35.553 17.4693H34.803L34.145 17.4463L33.51 17.3773L33.048 17.2503L32.702 17.0433L32.602 16.7303V14.3533C31.9081 13.8845 31.12 13.5732 30.293 13.4413C27.9232 12.9031 25.4628 12.9031 23.093 13.4413C22.2658 13.5724 21.4775 13.8837 20.784 14.3533V16.7313C20.7885 16.8439 20.7531 16.9544 20.684 17.0433C20.5903 17.1434 20.4704 17.2151 20.338 17.2503C20.1848 17.3013 20.0289 17.3437 19.871 17.3773C19.6613 17.4157 19.4491 17.4388 19.236 17.4463C18.9587 17.461 18.7393 17.4687 18.578 17.4693H17.018L16.348 17.4463L15.725 17.3773L15.287 17.2503L14.964 17.0433L14.871 16.7313V14.7223C14.9012 14.2035 15.0642 13.7011 15.3444 13.2633C15.6246 12.8256 16.0125 12.4671 16.471 12.2223C17.7743 11.4151 19.2222 10.869 20.734 10.6143C22.6968 10.2426 24.6914 10.0648 26.689 10.0833C28.6866 10.0648 30.6812 10.2426 32.644 10.6143C34.1539 10.8668 35.6004 11.4102 36.903 12.2143C37.3612 12.4594 37.749 12.8179 38.0291 13.2556C38.3092 13.6933 38.4724 14.1956 38.503 14.7143V16.7313C38.5065 16.8427 38.4739 16.9521 38.41 17.0433C38.3256 17.1432 38.213 17.2154 38.087 17.2503C37.9432 17.301 37.7966 17.3434 37.648 17.3773C37.4424 17.4163 37.2341 17.4393 37.025 17.4463C36.7483 17.461 36.525 17.4687 36.355 17.4693H35.547H35.553Z" fill="#164FDA"/>
</svg>
