<svg width="80" height="56" viewBox="0 0 80 56" fill="none" xmlns="http://www.w3.org/2000/svg">
<g id="Group 1216402431">
<path id="Vector" d="M13.9463 40.7703C12.0729 39.3381 11.8127 38.6697 11.8127 37.4285V25.8276V17.3299C11.8127 16.0886 12.0729 15.3725 13.9463 13.7971C15.8717 12.1739 17.2768 9.97787 17.3288 7.44763C17.3288 4.77418 15.9758 2.48264 13.7902 1.09817C13.3739 0.81173 12.7494 1.09817 12.7494 1.62332V6.25413C12.7494 6.77927 12.4372 7.25666 11.9689 7.5431L9.67915 8.92758C9.05469 9.30951 8.32613 9.3095 7.70166 9.02306L5.41196 7.87729C4.94361 7.63859 4.63138 7.16119 4.63138 6.68379V2.05298C4.63138 1.57557 4.05895 1.33688 3.59061 1.62332C1.40499 3.19875 0 5.6335 0 8.30695C0 10.8372 1.45708 12.8423 3.3825 14.3222C5.25589 15.7544 5.51607 16.4228 5.51607 17.664V26.1618V37.7627C5.51607 39.0039 5.25589 39.72 3.3825 41.2955C1.45708 42.9186 0.0520385 45.1147 0 47.6449C0 50.3184 1.35296 52.6099 3.53858 53.9944C3.95489 54.2808 4.57935 53.9944 4.57935 53.4692V49.6977C4.57935 49.1726 4.89158 48.6952 5.35993 48.4088L7.64964 47.0243C8.2741 46.6424 9.00267 46.6424 9.62713 46.9288L11.9168 48.0746C12.3851 48.3133 12.6973 48.7907 12.6973 49.2681V53.0396C12.6973 53.517 13.2698 53.7557 13.7381 53.4692C15.9237 51.8938 17.3288 49.459 17.3288 46.7856C17.3288 44.2554 15.8717 42.2503 13.9463 40.7703Z" fill="#0A2463"/>
<path id="Vector_2" d="M39.3926 30.1236C38.8722 29.8849 38.1437 29.5507 38.1437 29.3598V28.4527C38.1437 28.2617 38.2998 28.1185 38.508 28.1185C39.2365 28.1185 39.861 27.5456 39.861 26.8773V26.1612C39.861 25.4928 39.2365 24.9199 38.508 24.9199H31.9511C31.2226 24.9199 30.5981 25.4928 30.5981 26.1612V26.8773C30.5981 27.5456 31.2226 28.1185 31.9511 28.1185C32.1592 28.1185 32.3154 28.2617 32.3154 28.4527V29.3598C32.3154 29.5507 31.5869 29.8849 31.0665 30.1236C30.1818 30.5055 29.2451 31.4126 29.2451 32.4629V49.9358C29.2451 52.7525 32.1593 55.044 35.2295 55.044C38.2998 55.044 41.214 52.7525 41.214 49.9358V32.4629C41.214 31.4126 40.2773 30.5055 39.3926 30.1236Z" fill="#0A2463"/>
<path id="Vector_3" d="M36.8946 2.43555H33.6162V27.2127H36.8946V2.43555Z" fill="#0A2463"/>
<path id="Vector_4" d="M36.5823 9.30935H33.9283L32.3672 5.96753L33.7722 0H36.7905L38.1435 5.96753L36.5823 9.30935Z" fill="#0A2463"/>
<path id="Vector_5" d="M33.0967 33.7056V49.794" stroke="#0A2463" stroke-width="3.5" stroke-linecap="round" stroke-linejoin="round"/>
<path id="Vector_6" d="M37.5713 33.7056V49.794" stroke="#0A2463" stroke-width="3.5" stroke-linecap="round" stroke-linejoin="round"/>
<path id="Vector_7" d="M79.93 12.6035C76.0271 2.5781 66.452 2.14844 66.452 2.14844H58.7503C58.334 2.14844 57.9698 2.3394 57.7616 2.62584C57.0331 3.48516 55.8882 4.0103 54.6393 4.0103C53.3904 4.0103 52.1934 3.43742 51.4649 2.62584C51.2047 2.3394 50.8405 2.14844 50.4762 2.14844H47.1457C46.5733 2.14844 46.0529 2.53036 45.8968 3.10324C45.6886 3.96257 45.4805 5.2993 45.4805 6.7315C45.4805 8.16371 45.6886 9.50044 45.8968 10.3598C46.0009 10.9326 46.5213 11.3146 47.1457 11.3146H50.4762C50.8405 11.3146 51.2047 11.1236 51.4649 10.8372C52.1934 9.97784 53.3383 9.45269 54.6393 9.45269C55.9403 9.45269 57.0331 9.97784 57.7616 10.8372C58.0218 11.1236 58.386 11.3146 58.7503 11.3146H65.5153C66.0357 11.3146 66.5561 11.0759 66.8163 10.6939C67.4407 9.88235 68.4815 9.02303 70.2509 9.02303C74.1017 9.02303 77.0679 11.41 78.8892 13.2242C79.0454 13.4151 79.3575 13.4151 79.5657 13.3197C79.8259 13.1764 79.9821 12.89 79.878 12.6035H79.93Z" fill="#0A2463"/>
<path id="Vector_8" d="M62.3942 53.9951C64.6839 53.9951 66.5053 52.2764 66.4532 50.1759L65.4645 2.38788C65.4645 1.62404 64.7359 1.00342 63.9033 1.00342H60.833C60.0004 1.00342 59.3239 1.62404 59.2719 2.38788L58.2832 50.1759C58.2832 52.2764 60.0525 53.9951 62.3422 53.9951H62.3942Z" fill="#0A2463"/>
</g>
</svg>
