<?xml version="1.0" encoding="utf-8"?>
<!-- Generator: Adobe Illustrator 24.0.2, SVG Export Plug-In . SVG Version: 6.00 Build 0)  -->
<svg version="1.1" id="Layer_1" xmlns="http://www.w3.org/2000/svg" xmlns:xlink="http://www.w3.org/1999/xlink" x="0px" y="0px"
	 viewBox="0 0 100 52.3" style="enable-background:new 0 0 100 52.3;" xml:space="preserve">
<style type="text/css">
	.st0{fill:#FF3333;}
</style>
<g>
	<path class="st0" d="M31.1,39.1c-1.7,1.6-3,3.7-3.4,6.1h-7.8c-0.8,0-1.4-0.7-1.3-1.5l0.5-3c0.1-0.8,0.9-1.5,1.8-1.5L31.1,39.1
		L31.1,39.1z"/>
	<path class="st0" d="M96.8,39.1l2.9-16.3c0-0.2,0-0.5,0-0.7l-4.5-14C95,7.6,94.6,7.3,94,7.3H79.7c-0.8,0-1.6,0.7-1.8,1.5l-5.3,30.3
		H44.7c1.2,1.6,1.7,3.7,1.2,6.1h28.6c0.4-2.3,1.7-4.5,3.4-6.1c2-1.9,4.6-3,7.3-3c2.7,0,4.9,1.2,6.2,3c1.2,1.6,1.7,3.7,1.3,6.1h3
		c0.8,0,1.6-0.7,1.8-1.5l0.5-3C98.2,39.8,97.6,39.1,96.8,39.1z M78.5,22.4l2.1-12.1h12.1l3.9,12.1C96.6,22.4,78.5,22.4,78.5,22.4z"
		/>
	<path class="st0" d="M37.9,39.1c-3.3,0-6.5,2.7-7.1,6.1c-0.6,3.3,1.7,6.1,5,6.1c3.3,0,6.5-2.7,7.1-6.1S41.2,39.1,37.9,39.1z
		 M39.8,45.1c-0.3,1.7-1.9,3-3.6,3c-1.7,0-2.8-1.4-2.5-3c0.3-1.7,1.9-3,3.6-3C39,42.1,40.1,43.5,39.8,45.1z"/>
	<path class="st0" d="M84.7,39.1c-3.3,0-6.5,2.7-7.1,6.1c-0.6,3.3,1.7,6.1,5,6.1s6.5-2.7,7.1-6.1C90.2,41.8,88,39.1,84.7,39.1z
		 M86.6,45.1c-0.3,1.7-1.9,3-3.6,3s-2.8-1.4-2.5-3c0.3-1.7,1.9-3,3.6-3C85.8,42.1,86.9,43.5,86.6,45.1z"/>
	<path class="st0" d="M76.2,1.2L70,36H19.9l0.5-3h-8c-0.8,0-1.5-0.7-1.5-1.5c0-0.8,0.7-1.5,1.5-1.5h22.7c0.8,0,1.5-0.7,1.5-1.5
		S35.9,27,35.1,27H21.6l0.8-4.5H7.9c-0.8,0-1.5-0.7-1.5-1.5s0.7-1.5,1.5-1.5h33.3c0.8,0,1.5-0.7,1.5-1.5s-0.7-1.5-1.5-1.5H23.4
		l0.8-4.5H1.8c-0.8,0-1.5-0.7-1.5-1.5S1,9,1.8,9h33.3c0.8,0,1.5-0.7,1.5-1.5S35.9,6,35.1,6h-9.9L26,1.5h50.2V1.2z"/>
</g>
</svg>
