<svg width="16" height="16" viewBox="0 0 16 16" fill="none" xmlns="http://www.w3.org/2000/svg">
<g clip-path="url(#clip0_1397_18542)">
<path d="M13.34 2.81254C14.9625 4.13004 16 6.14504 16 8.40004C16 10.655 14.9625 12.6675 13.34 13.9875C13.0825 14.1975 12.705 14.1575 12.495 13.9C12.285 13.6425 12.325 13.265 12.5825 13.055C13.9375 11.955 14.8 10.28 14.8 8.40004C14.8 6.52004 13.9375 4.84504 12.5825 3.74254C12.325 3.53254 12.2875 3.15504 12.495 2.89754C12.7025 2.64004 13.0825 2.60254 13.34 2.81004V2.81254ZM11.8275 4.67504C12.9075 5.55504 13.6 6.89754 13.6 8.40004C13.6 9.90254 12.9075 11.245 11.8275 12.125C11.57 12.335 11.1925 12.295 10.9825 12.0375C10.7725 11.78 10.8125 11.4025 11.07 11.1925C11.8825 10.5325 12.4 9.52754 12.4 8.40004C12.4 7.27254 11.8825 6.26754 11.07 5.60504C10.8125 5.39504 10.775 5.01754 10.9825 4.76004C11.19 4.50254 11.57 4.46504 11.8275 4.67254V4.67504ZM10.315 6.53754C10.8525 6.97754 11.2 7.64754 11.2 8.40004C11.2 9.15254 10.8525 9.82254 10.315 10.2625C10.0575 10.4725 9.68 10.4325 9.47 10.175C9.26 9.91754 9.3 9.54004 9.5575 9.33004C9.8275 9.11004 10 8.77504 10 8.40004C10 8.02504 9.8275 7.69004 9.5575 7.46754C9.3 7.25754 9.2625 6.88004 9.47 6.62254C9.6775 6.36504 10.0575 6.32754 10.315 6.53504V6.53754ZM7.5275 2.87004C7.815 3.00004 8 3.28504 8 3.60004V13.2C8 13.515 7.815 13.8 7.5275 13.93C7.24 14.06 6.9025 14.0075 6.6675 13.7975L3.295 10.8H1.6C0.7175 10.8 0 10.0825 0 9.20004V7.60004C0 6.71754 0.7175 6.00004 1.6 6.00004H3.295L6.6675 3.00254C6.9025 2.79254 7.24 2.74254 7.5275 2.87004Z" fill="#677198"/>
</g>
<defs>
<clipPath id="clip0_1397_18542">
<rect width="16" height="16" fill="white"/>
</clipPath>
</defs>
</svg>
