<svg width="20" height="20" viewBox="0 0 20 20" fill="none" xmlns="http://www.w3.org/2000/svg">
<path d="M1.19 3.22C1.19 1.91844 2.23125 0.839999 3.57 0.839999H9.52C10.8216 0.839999 11.9 1.91844 11.9 3.22V10.36H12.1975C13.9825 10.36 15.47 11.8475 15.47 13.6325V14.8225C15.47 15.3431 15.8419 15.715 16.3625 15.715C16.8459 15.715 17.255 15.3431 17.255 14.8225V9.09562C16.2138 8.83531 15.47 7.90562 15.47 6.79V4.41L14.28 3.22C13.9453 2.9225 13.9453 2.36469 14.28 2.03C14.5775 1.7325 15.1353 1.7325 15.47 2.03L18.3334 4.93062C18.7797 5.37687 19.04 5.97187 19.04 6.60406V14.8225C19.04 16.31 17.8128 17.5 16.3625 17.5C14.875 17.5 13.685 16.31 13.685 14.8225V13.6325C13.685 12.8144 13.0156 12.145 12.1975 12.145H11.9V17.5C12.5322 17.5 13.09 18.0578 13.09 18.69C13.09 19.3594 12.5322 19.88 11.9 19.88H1.19C0.520625 19.88 0 19.3594 0 18.69C0 18.0578 0.520625 17.5 1.19 17.5V3.22ZM3.57 7.385C3.57 7.71969 3.83031 7.98 4.165 7.98H8.925C9.2225 7.98 9.52 7.71969 9.52 7.385V3.815C9.52 3.5175 9.2225 3.22 8.925 3.22H4.165C3.83031 3.22 3.57 3.5175 3.57 3.815V7.385Z" fill="#395561"/>
</svg>
