<svg width="115" height="26" viewBox="0 0 115 26" fill="none" xmlns="http://www.w3.org/2000/svg">
<path fill-rule="evenodd" clip-rule="evenodd" d="M0 22.5117H25.8422L18.3223 5.02498L16.2931 7.47193L12.2944 0.0117188L7.10212 11.5303L5.5504 9.08334L0 22.5117ZM2.56637 21.2585H22.6194L17.9642 8.36721L16.2335 10.9335L12.3542 4.42822L7.63931 14.037L5.96822 11.8288L2.56637 21.2585Z" fill="#24AEF7"/>
<path d="M13.0009 10.0117C13.3959 10.0117 13.7151 10.3189 13.7151 10.6992V11.3459L14.0499 11.0236C14.2597 10.8217 14.599 10.8217 14.8066 11.0236C15.0141 11.2256 15.0164 11.5521 14.8066 11.752L13.7129 12.8047V14.315L15.0833 13.5459L15.4784 12.1258C15.5543 11.8508 15.8489 11.6875 16.1346 11.7605C16.4203 11.8336 16.5899 12.1172 16.5141 12.3922L16.398 12.8068L16.9247 12.5104C17.2662 12.3191 17.7037 12.4309 17.9024 12.7574C18.101 13.084 17.9872 13.5072 17.6457 13.6984L17.081 14.0164L17.5653 14.141C17.851 14.2141 18.0207 14.4977 17.9448 14.7727C17.8689 15.0477 17.5743 15.2109 17.2886 15.1379L15.7775 14.749L14.4182 15.5117L15.7775 16.2744L17.2886 15.8855C17.5743 15.8125 17.8689 15.9758 17.9448 16.2508C18.0207 16.5258 17.851 16.8094 17.5653 16.8824L17.081 17.007L17.6457 17.325C17.9872 17.5162 18.101 17.9373 17.9024 18.266C17.7037 18.5947 17.2662 18.7043 16.9247 18.5131L16.398 18.2166L16.5141 18.6313C16.5899 18.9062 16.4203 19.1898 16.1346 19.2629C15.8489 19.3359 15.5543 19.1727 15.4784 18.8977L15.0833 17.4775L13.7151 16.7084V18.2188L14.8088 19.2715C15.0186 19.4734 15.0186 19.8 14.8088 19.9998C14.599 20.1996 14.2597 20.2018 14.0521 19.9998L13.7173 19.6775V20.3242C13.7173 20.7045 13.3982 21.0117 13.0031 21.0117C12.608 21.0117 12.2889 20.7045 12.2889 20.3242V19.6775L11.9541 19.9998C11.7442 20.2018 11.405 20.2018 11.1974 19.9998C10.9898 19.7979 10.9876 19.4713 11.1974 19.2715L12.2911 18.2188V16.7084L10.9206 17.4775L10.5256 18.8977C10.4497 19.1727 10.1551 19.3359 9.86935 19.2629C9.58366 19.1898 9.41402 18.9062 9.48991 18.6313L9.60598 18.2166L9.07476 18.5109C8.73326 18.7021 8.29579 18.5904 8.09714 18.2639C7.89849 17.9373 8.01455 17.5141 8.35382 17.3229L8.91852 17.0049L8.43417 16.8803C8.14847 16.8072 7.97884 16.5236 8.05473 16.2486C8.13062 15.9736 8.42524 15.8104 8.71094 15.8834L10.222 16.2723L11.5835 15.5117L10.2242 14.749L8.71317 15.1379C8.42747 15.2109 8.13285 15.0477 8.05696 14.7727C7.98107 14.4977 8.1507 14.2141 8.4364 14.141L8.92075 14.0164L8.35605 13.6984C8.01455 13.5072 7.90072 13.0861 8.09937 12.7596C8.29802 12.433 8.73549 12.3213 9.07699 12.5125L9.60375 12.809L9.48768 12.3943C9.41179 12.1193 9.58143 11.8357 9.86712 11.7627C10.1528 11.6896 10.4474 11.8529 10.5233 12.1279L10.9184 13.548L12.2866 14.315V12.8025L11.1929 11.752C10.9831 11.55 10.9831 11.2234 11.1929 11.0236C11.4027 10.8238 11.742 10.8217 11.9496 11.0236L12.2844 11.3459V10.6992C12.2844 10.3189 12.6036 10.0117 12.9986 10.0117H13.0009Z" fill="#24AEF7"/>
<path d="M31.984 19.1717C31.2267 19.1717 30.5333 19.0384 29.904 18.7717C29.2747 18.4944 28.7467 18.0997 28.32 17.5877L29.76 16.1637C29.9733 16.4837 30.2773 16.7397 30.672 16.9317C31.0667 17.1237 31.4933 17.2197 31.952 17.2197C32.3787 17.2197 32.7467 17.1451 33.056 16.9957C33.3653 16.8357 33.6053 16.6171 33.776 16.3397C33.9573 16.0517 34.048 15.7211 34.048 15.3477C34.048 14.9531 33.9573 14.6171 33.776 14.3397C33.6053 14.0624 33.3547 13.8491 33.024 13.6997C32.6933 13.5504 32.2987 13.4757 31.84 13.4757C31.6373 13.4757 31.4293 13.4917 31.216 13.5237C31.0027 13.5451 30.8213 13.5824 30.672 13.6357L31.632 12.4197C31.8987 12.3344 32.16 12.2651 32.416 12.2117C32.6827 12.1477 32.928 12.1157 33.152 12.1157C33.728 12.1157 34.2453 12.2544 34.704 12.5317C35.1733 12.7984 35.5413 13.1824 35.808 13.6837C36.0853 14.1744 36.224 14.7557 36.224 15.4277C36.224 16.1744 36.048 16.8304 35.696 17.3957C35.344 17.9504 34.848 18.3877 34.208 18.7077C33.5787 19.0171 32.8373 19.1717 31.984 19.1717ZM30.672 13.6357V12.3877L33.552 9.04372L36.048 9.01172L33.072 12.4197L30.672 13.6357ZM28.944 9.65172V7.76372H36.048V9.01172L34.272 9.65172H28.944ZM39.5489 14.8357V13.0597H42.1569C42.4982 13.0597 42.8075 12.9904 43.0849 12.8517C43.3622 12.7131 43.5809 12.5157 43.7409 12.2597C43.9009 11.9931 43.9809 11.6731 43.9809 11.2997C43.9809 10.9371 43.9009 10.6224 43.7409 10.3557C43.5809 10.0891 43.3622 9.88638 43.0849 9.74772C42.8075 9.60905 42.4982 9.53972 42.1569 9.53972H39.5489V7.76372H42.3809C43.0955 7.76372 43.7355 7.90772 44.3009 8.19572C44.8769 8.48372 45.3302 8.89438 45.6609 9.42772C45.9915 9.95039 46.1569 10.5744 46.1569 11.2997C46.1569 12.0251 45.9915 12.6544 45.6609 13.1877C45.3302 13.7104 44.8769 14.1157 44.3009 14.4037C43.7355 14.6917 43.0955 14.8357 42.3809 14.8357H39.5489ZM37.9489 19.0117V7.76372H40.1249V19.0117H37.9489ZM47.6989 19.0117V7.76372H49.2349L53.7949 15.0597H52.9149L57.4589 7.76372H58.9949V19.0117H56.8349V11.4917L57.2509 11.6197L54.0829 16.7077H52.6109L49.4429 11.6197L49.8749 11.4917V19.0117H47.6989ZM64.3379 19.1717C63.4312 19.1717 62.6525 19.0171 62.0019 18.7077C61.3619 18.3984 60.7805 17.9344 60.2579 17.3157L61.6979 15.8757C62.0285 16.3131 62.4125 16.6544 62.8499 16.8997C63.2872 17.1344 63.8205 17.2517 64.4499 17.2517C65.0152 17.2517 65.4632 17.1397 65.7939 16.9157C66.1352 16.6917 66.3059 16.3824 66.3059 15.9877C66.3059 15.6464 66.2099 15.3691 66.0179 15.1557C65.8259 14.9424 65.5699 14.7611 65.2499 14.6117C64.9405 14.4624 64.5939 14.3291 64.2099 14.2117C63.8365 14.0837 63.4579 13.9397 63.0739 13.7797C62.7005 13.6197 62.3539 13.4224 62.0339 13.1877C61.7245 12.9424 61.4739 12.6331 61.2819 12.2597C61.0899 11.8757 60.9939 11.3957 60.9939 10.8197C60.9939 10.1371 61.1592 9.55572 61.4899 9.07572C61.8205 8.59572 62.2739 8.22772 62.8499 7.97172C63.4259 7.71572 64.0765 7.58772 64.8019 7.58772C65.5699 7.58772 66.2632 7.73172 66.8819 8.01972C67.5005 8.30772 68.0072 8.68105 68.4019 9.13972L66.9619 10.5797C66.6312 10.2171 66.2899 9.95038 65.9379 9.77972C65.5965 9.60905 65.2072 9.52372 64.7699 9.52372C64.2685 9.52372 63.8739 9.61972 63.5859 9.81172C63.2979 10.0037 63.1539 10.2811 63.1539 10.6437C63.1539 10.9531 63.2499 11.2037 63.4419 11.3957C63.6339 11.5877 63.8845 11.7531 64.1939 11.8917C64.5139 12.0304 64.8605 12.1637 65.2339 12.2917C65.6179 12.4197 65.9965 12.5637 66.3699 12.7237C66.7539 12.8837 67.1005 13.0917 67.4099 13.3477C67.7299 13.6037 67.9859 13.9344 68.1779 14.3397C68.3699 14.7344 68.4659 15.2251 68.4659 15.8117C68.4659 16.8571 68.0979 17.6784 67.3619 18.2757C66.6259 18.8731 65.6179 19.1717 64.3379 19.1717ZM70.1833 19.0117V7.76372H72.3593V19.0117H70.1833ZM71.7833 14.4037V12.4677H77.4473V14.4037H71.7833ZM71.7833 9.68372V7.76372H77.7193V9.68372H71.7833Z" fill="#24AEF7"/>
<circle cx="101.512" cy="13.4882" r="12.5117" fill="#677198"/>
<path d="M108.683 17.1396C108.073 17.1396 107.547 17.0414 107.106 16.8451C106.671 16.6418 106.272 16.3369 105.907 15.9303L106.98 14.8682C107.218 15.1416 107.481 15.3554 107.768 15.5097C108.063 15.6569 108.403 15.7305 108.788 15.7305C109.139 15.7305 109.409 15.6674 109.598 15.5412C109.794 15.415 109.892 15.2398 109.892 15.0155C109.892 14.8122 109.829 14.6474 109.703 14.5212C109.577 14.395 109.409 14.2864 109.198 14.1953C108.995 14.1041 108.767 14.0165 108.515 13.9324C108.269 13.8482 108.024 13.7536 107.779 13.6485C107.533 13.5363 107.306 13.3996 107.095 13.2384C106.892 13.0701 106.727 12.8633 106.601 12.618C106.475 12.3656 106.412 12.0501 106.412 11.6716C106.412 11.2159 106.52 10.8233 106.738 10.4938C106.962 10.1644 107.271 9.9155 107.663 9.74726C108.056 9.572 108.508 9.48438 109.02 9.48438C109.538 9.48438 110.012 9.57551 110.439 9.75777C110.874 9.94004 111.231 10.1889 111.512 10.5044L110.439 11.5664C110.215 11.3351 109.987 11.1633 109.756 11.0512C109.531 10.939 109.275 10.8829 108.988 10.8829C108.701 10.8829 108.473 10.939 108.305 11.0512C108.136 11.1563 108.052 11.3105 108.052 11.5138C108.052 11.7031 108.115 11.8573 108.241 11.9765C108.368 12.0887 108.532 12.1868 108.736 12.2709C108.946 12.3551 109.174 12.4392 109.419 12.5233C109.672 12.6074 109.92 12.7056 110.166 12.8177C110.411 12.9299 110.635 13.0736 110.839 13.2489C111.049 13.4171 111.217 13.6344 111.343 13.9008C111.47 14.1602 111.533 14.4827 111.533 14.8682C111.533 15.5763 111.28 16.1336 110.776 16.5402C110.271 16.9398 109.573 17.1396 108.683 17.1396Z" fill="white"/>
<path d="M100.329 14.1743V12.8388H105.219V14.1743H100.329ZM102.095 10.9355H103.462V16.0565H102.095V10.9355Z" fill="white"/>
<path d="M91.5022 17.0235V9.59961H92.6799L95.6032 14.1528H95.0038L97.9166 9.59961H99.1048V17.0235H97.4539V12.3862L97.7483 12.4598L95.845 15.4251H94.7514L92.8587 12.4598L93.1426 12.3862V17.0235H91.5022Z" fill="white"/>
</svg>
