<svg width="16" height="16" viewBox="0 0 16 16" fill="none" xmlns="http://www.w3.org/2000/svg">
<g id="Icon">
<path id="icon/action/assignment_24px" fillRule="evenodd" ClipRule="evenodd" d="M14.2222 1.6H10.5067C10.1333 0.672 9.15556 0 8 0C6.84444 0 5.86667 0.672 5.49333 1.6H1.77778C0.8 1.6 0 2.32 0 3.2V14.4C0 15.28 0.8 16 1.77778 16H14.2222C15.2 16 16 15.28 16 14.4V3.2C16 2.32 15.2 1.6 14.2222 1.6ZM8.00022 1.59961C8.48911 1.59961 8.88911 1.95961 8.88911 2.39961C8.88911 2.83961 8.48911 3.19961 8.00022 3.19961C7.51133 3.19961 7.11133 2.83961 7.11133 2.39961C7.11133 1.95961 7.51133 1.59961 8.00022 1.59961ZM4.44358 12.7995H8.88802C9.37691 12.7995 9.77691 12.4395 9.77691 11.9995C9.77691 11.5595 9.37691 11.1995 8.88802 11.1995H4.44358C3.95469 11.1995 3.55469 11.5595 3.55469 11.9995C3.55469 12.4395 3.95469 12.7995 4.44358 12.7995ZM11.5547 9.5998H4.44358C3.95469 9.5998 3.55469 9.2398 3.55469 8.7998C3.55469 8.3598 3.95469 7.9998 4.44358 7.9998H11.5547C12.0436 7.9998 12.4436 8.3598 12.4436 8.7998C12.4436 9.2398 12.0436 9.5998 11.5547 9.5998ZM4.44358 6.40015H11.5547C12.0436 6.40015 12.4436 6.04015 12.4436 5.60015C12.4436 5.16015 12.0436 4.80015 11.5547 4.80015H4.44358C3.95469 4.80015 3.55469 5.16015 3.55469 5.60015C3.55469 6.04015 3.95469 6.40015 4.44358 6.40015Z" fill="#164FDA"/>
</g>
</svg>
