<svg width="84" height="56" viewBox="0 0 84 56" fill="none" xmlns="http://www.w3.org/2000/svg">
<g id="Group 1216402432">
<path id="Vector" d="M6.63116 16.5493C4.37907 19.2467 0 24.2397 0 28.1423C0 32.0449 3.00279 34.2257 6.63116 34.2257C10.2595 34.2257 13.2623 31.471 13.2623 28.1423C13.2623 24.8136 8.88326 19.2467 6.63116 16.5493Z" fill="#0A2463"/>
<path id="Vector_2" d="M59.305 0.0790117L38.5983 3.06335C37.0969 3.29291 35.9083 4.15377 35.3452 5.41637L33.3434 9.83548L21.8327 16.8946C20.7066 17.5833 20.3938 18.9607 21.1445 19.9937L45.292 52.9361C46.9185 55.117 50.1715 55.6909 52.5487 54.2561L81.3881 36.4649C83.7653 34.9728 84.3909 31.9884 82.8269 29.8075L61.7448 0.997289C61.2443 0.251206 60.306 -0.0931472 59.3676 0.0216347L59.305 0.0790117Z" fill="#0A2463"/>
<path id="Vector_3" d="M43.0404 7.7683L55.7397 5.70221C57.116 5.47264 58.3672 6.33351 58.6174 7.53873C58.8051 8.74394 57.9293 9.89176 56.6156 10.1213L43.9162 12.3022C42.54 12.5317 41.2262 11.6709 41.0386 10.4657V10.3509C40.7883 9.14569 41.7267 7.99787 43.0404 7.7683Z" fill="white"/>
<path id="Vector_4" d="M6.00684 4.9573L6.94521 8.22859C14.3271 8.85989 19.2066 10.6964 21.8966 15.0581L29.0283 10.639C24.2738 4.3834 12.2001 3.40774 6.00684 4.9573Z" fill="#0A2463"/>
</g>
</svg>
