<svg width="36" height="43" viewBox="0 0 36 43" fill="none" xmlns="http://www.w3.org/2000/svg">
<rect x="0.106445" y="0.542969" width="35.0138" height="41.5" rx="8" fill="#F7F7FF"/>
<path d="M17.6143 12.1426C18.163 12.1426 18.6084 12.5879 18.6084 13.1367V29.4492C18.6084 29.998 18.163 30.4433 17.6143 30.4434C17.0654 30.4434 16.6201 29.998 16.6201 29.4492V13.1367C16.6201 12.5879 17.0654 12.1426 17.6143 12.1426Z" fill="#6F6C90" stroke="#6F6C90" stroke-width="0.3" stroke-linecap="round"/>
<path d="M24.208 20.1426C24.8431 20.1426 25.3584 20.6578 25.3584 21.293C25.3584 21.9281 24.8431 22.4434 24.208 22.4434H11.0215C10.3864 22.4434 9.87109 21.9281 9.87109 21.293C9.87109 20.6578 10.3864 20.1426 11.0215 20.1426H24.208Z" fill="#6F6C90" stroke="#6F6C90" stroke-width="0.3" stroke-linecap="round"/>
</svg>
