<svg width="15" height="15" viewBox="0 0 15 15" fill="none" xmlns="http://www.w3.org/2000/svg">
<path d="M12.0706 3.72777C12.0432 3.72777 12.0158 3.75518 12.0158 3.75518C12.0432 3.5907 12.0706 3.45364 12.0706 3.28916C12.0706 2.08298 11.0838 1.0961 9.87759 1.0961C9.21967 1.0961 8.61658 1.42506 8.2328 1.89108C7.68453 0.904208 6.67024 0.218878 5.49147 0.218878C3.79186 0.218878 2.42119 1.61695 2.42119 3.28916C2.42119 3.50846 2.42119 3.70036 2.47602 3.89225C1.4069 4.22121 0.666748 5.20808 0.666748 6.35944C0.666748 7.81234 1.8181 8.99111 3.271 8.99111H12.0158C13.5235 8.99111 14.7023 7.81234 14.7023 6.35944C14.7023 4.90654 13.5235 3.72777 12.0706 3.72777ZM6.09457 9.92316C5.76561 9.78609 5.38182 9.95057 5.24476 10.2795L3.95633 13.3498C3.79186 13.6788 3.95633 14.0626 4.28529 14.227C4.34012 14.2544 4.44977 14.2544 4.53201 14.2544C4.77873 14.2544 5.02545 14.1174 5.1351 13.8707L6.42352 10.8004C6.588 10.4714 6.42352 10.0876 6.09457 9.92316ZM2.88722 9.92316C2.55826 9.78609 2.17448 9.95057 2.01 10.2795L0.721574 13.3498C0.557095 13.6788 0.721574 14.0626 1.05053 14.227C1.13277 14.2544 1.21501 14.2544 1.29725 14.2544C1.57138 14.2544 1.8181 14.1174 1.92776 13.8707L3.21618 10.8004C3.38066 10.4714 3.21618 10.0876 2.88722 9.92316ZM9.32933 9.92316C8.97295 9.78609 8.58917 9.95057 8.4521 10.2795L7.16368 13.3498C7.02661 13.6788 7.16368 14.0626 7.52005 14.227C7.57488 14.2544 7.65712 14.2544 7.73936 14.2544C8.01349 14.2544 8.2328 14.1174 8.34245 13.8707L9.63087 10.8004C9.79535 10.4714 9.65828 10.0876 9.32933 9.92316ZM12.5367 9.92316C12.2077 9.78609 11.8239 9.95057 11.6594 10.2795L10.371 13.3498C10.234 13.6788 10.3984 14.0626 10.7274 14.227C10.7822 14.2544 10.8645 14.2544 10.9467 14.2544C11.1934 14.2544 11.4401 14.1174 11.5498 13.8707L12.8382 10.8004C13.0301 10.4714 12.8656 10.0876 12.5367 9.92316Z" fill="#395561"/>
</svg>
