<svg width="60" height="56" viewBox="0 0 60 56" fill="none" xmlns="http://www.w3.org/2000/svg">
<path id="Vector" d="M3.21431 27.5221C3.21431 41.0374 15.2679 52.0954 30 52.0954C44.7321 52.0954 56.7858 41.0374 56.7858 27.5221C56.7858 14.0068 44.7321 2.94882 30 2.94882C15.2679 2.94882 3.21431 14.0068 3.21431 27.5221ZM26.5179 19.9044L14.7321 9.09214C18.2143 6.63481 22.2322 5.16037 26.5179 4.66891V20.1501V19.9044ZM45.2679 9.09214L33.4821 19.9044V4.42316C38.0357 4.91462 42.0536 6.6348 45.2679 8.84639V9.09214ZM55.1784 24.3275H38.3037L50.0894 13.5153C52.768 16.7098 54.3749 20.3958 54.9107 24.3275H55.1784ZM38.3037 30.9623H55.1784C54.6427 35.1398 52.7679 38.8258 50.3572 41.7746L38.5715 30.9623H38.3037ZM33.4821 35.3855L45.2679 46.1977C41.7857 48.655 37.7678 50.1295 33.4821 50.621V35.1397V35.3855ZM30 32.6824C27.0536 32.6824 24.6429 30.4708 24.6429 27.7678C24.6429 25.0647 27.0536 22.8531 30 22.8531C32.9464 22.8531 35.3573 25.0647 35.3573 27.7678C35.3573 30.4708 32.9464 32.6824 30 32.6824ZM14.4643 46.1977L26.2501 35.3855V50.8667C21.6965 50.3752 17.6786 48.6551 14.4643 46.4435V46.1977ZM4.5536 30.9623H21.4285L9.64295 41.7746C8.83937 41.0374 8.30363 40.0544 7.76791 39.0715L6.96438 37.8428C6.96438 37.8428 6.96428 37.5971 6.69642 37.3514L8.57145 36.6142C8.57145 36.8599 11.518 35.877 11.518 35.877C12.3215 35.6313 12.5894 34.894 12.3215 34.1568C12.0537 33.4196 11.2501 32.9282 10.4465 33.1739L7.50012 34.4026C7.50012 34.6483 5.62509 35.3855 5.62509 35.3855C5.08938 33.9111 4.55366 32.4367 4.28581 30.7166L4.5536 30.9623ZM9.64295 13.5153L21.4285 24.3275H4.5536C5.08931 20.1501 6.96428 16.4641 9.37499 13.5153H9.64295ZM0 27.5221C0 12.2867 13.3929 0 30 0C46.6071 0 60 12.2867 60 27.5221C60 42.7575 46.6071 55.0441 30 55.0441C13.3929 55.0441 0 42.7575 0 27.5221Z" fill="#0A2463"/>
</svg>
