<svg width="13" height="14" viewBox="0 0 13 14" fill="none" xmlns="http://www.w3.org/2000/svg">
<path d="M5.55263 0.5L10.1619 1.982C10.2904 2.0233 10.4028 2.10581 10.4826 2.21749C10.5623 2.32916 10.6053 2.46415 10.6053 2.60275V3.75H11.8684C12.0359 3.75 12.1966 3.81848 12.315 3.94038C12.4335 4.06228 12.5 4.22761 12.5 4.4V5.7H4.28947V4.4C4.28947 4.22761 4.35601 4.06228 4.47446 3.94038C4.5929 3.81848 4.75355 3.75 4.92105 3.75H9.3421V3.0805L5.55263 1.8611L1.76316 3.0805V7.8931C1.76307 8.29105 1.85174 8.68371 2.02234 9.04083C2.19293 9.39795 2.44091 9.71 2.74716 9.95295L2.86653 10.0414L5.55263 11.9263L7.94126 10.25H4.92105C4.75355 10.25 4.5929 10.1815 4.47446 10.0596C4.35601 9.93772 4.28947 9.77239 4.28947 9.6V7H12.5V9.6C12.5 9.77239 12.4335 9.93772 12.315 10.0596C12.1966 10.1815 12.0359 10.25 11.8684 10.25L9.83474 10.2506C9.59031 10.5821 9.29347 10.8746 8.95053 11.1151L5.55263 13.5L2.15474 11.1158C1.64475 10.7579 1.22742 10.2773 0.939036 9.71564C0.650649 9.15399 0.499936 8.52835 0.5 7.8931V2.60275C0.500076 2.46426 0.543128 2.32942 0.622881 2.21788C0.702634 2.10633 0.814919 2.02392 0.943368 1.98265L5.55263 0.5Z" fill="#0A2463"/>
</svg>
