<svg width="19" height="19" viewBox="0 0 19 19" fill="none" xmlns="http://www.w3.org/2000/svg">
<path d="M1.51032 6.03883L0.0635996 5.87822C5.72205e-06 5.44458 -0.0158997 5.027 0.0158968 4.59336L1.44674 4.32034L1.8442 3.24426L0.938004 2.08789C1.17648 1.75062 1.47853 1.4294 1.7965 1.15637L2.98887 1.99153L4.02225 1.52577L4.18124 0.0642487C4.61049 5.81077e-06 5.02384 -0.0160627 5.4531 0.0160587L5.72336 1.46152L6.78857 1.86304L7.93324 0.947588C8.26711 1.1885 8.58508 1.49366 8.85535 1.81487L8.02861 3.01942L8.48968 4.06337L9.9364 4.22398C9.99999 4.65762 10.0159 5.0752 9.9841 5.50884L8.55326 5.78186L8.1558 6.85792L9.062 8.0143C8.82352 8.35158 8.52147 8.67278 8.20351 8.94581L7.01114 8.11066L5.97775 8.57643L5.81877 10.0379C5.38951 10.1022 4.97616 10.1183 4.5469 10.0861L4.27664 8.64067L3.21146 8.23916L2.06676 9.15461C1.73289 8.9137 1.41496 8.60854 1.14469 8.28733L1.97139 7.08277L1.51032 6.03883ZM5.88234 7.01853C6.96342 6.52064 7.4404 5.2358 6.94756 4.15973C6.45471 3.0676 5.18284 2.58577 4.11766 3.08365C3.03658 3.58153 2.55964 4.8664 3.05248 5.94247C3.54533 7.0346 4.81716 7.51641 5.88234 7.01853Z" fill="white"/>
<path d="M7.70721 12.2979V11.9473C7.70721 11.6406 7.50361 11.3485 7.1747 11.2463L6 10.8519C6.17229 10.0778 6.5012 9.36215 6.93976 8.73411L8.06746 9.2307C8.36505 9.36215 8.7253 9.30373 8.9759 9.08465L9.24216 8.83634C9.4771 8.61726 9.53975 8.28134 9.39879 7.98923L8.86627 6.93761C9.53977 6.52866 10.3072 6.22194 11.1374 6.06128L11.5602 7.1567C11.6699 7.44881 11.9675 7.65329 12.3121 7.65329H12.6879C13.0169 7.65329 13.3301 7.46342 13.4398 7.1567L13.8626 6.06128C14.6928 6.22194 15.4602 6.52866 16.1337 6.93761L15.6012 7.98923C15.4602 8.26673 15.5229 8.60265 15.7578 8.83634L16.0241 9.08465C16.259 9.30373 16.6193 9.36215 16.9325 9.2307L18.0602 8.73411C18.4988 9.36215 18.8277 10.0778 19 10.8519L17.8253 11.2463C17.512 11.3485 17.2927 11.626 17.2927 11.9473V12.2979C17.2927 12.6046 17.4964 12.8967 17.8253 12.9989L19 13.3933C18.8277 14.1674 18.4988 14.8831 18.0602 15.5111L16.9325 15.0145C16.6349 14.8831 16.2747 14.9415 16.0241 15.1606L15.7578 15.4089C15.5229 15.6279 15.4602 15.9639 15.6012 16.256L16.1337 17.3076C15.4602 17.7165 14.6928 18.0233 13.8626 18.1839L13.4398 17.0885C13.3301 16.7964 13.0325 16.5919 12.6879 16.5919H12.3121C11.9831 16.5919 11.6699 16.7818 11.5602 17.0885L11.1374 18.1839C10.3072 18.0233 9.53977 17.7165 8.86627 17.3076L9.39879 16.256C9.53975 15.9785 9.4771 15.6425 9.24216 15.4089L8.9759 15.1606C8.74096 14.9415 8.38072 14.8831 8.06746 15.0145L6.93976 15.5111C6.5012 14.8831 6.17229 14.1674 6 13.3933L7.1747 12.9989C7.48795 12.8967 7.70721 12.6192 7.70721 12.2979ZM12.5 14.7808C14.0663 14.7808 15.3349 13.5978 15.3349 12.1372C15.3349 10.6767 14.0663 9.49359 12.5 9.49359C10.9337 9.49359 9.66504 10.6767 9.66504 12.1372C9.66504 13.5978 10.9337 14.7808 12.5 14.7808Z" fill="white"/>
</svg>
