<svg width="20" height="20" viewBox="0 0 20 20" fill="none" xmlns="http://www.w3.org/2000/svg">
<path d="M0.939443 6.75765C0.604114 6.75765 0.332275 7.02949 0.332275 7.36482V12.6322C0.332275 12.9675 0.604114 13.2394 0.939443 13.2394H4.39828C4.55939 13.2394 4.7139 13.3034 4.82778 13.4174L9.01029 17.6032C9.39272 17.9859 10.047 17.715 10.047 17.174V2.82288C10.047 2.28183 9.39271 2.01099 9.01029 2.39372L4.82778 6.57964C4.7139 6.69362 4.55939 6.75765 4.39827 6.75765H0.939443ZM14.9042 9.99842C14.9042 8.44265 14.1712 7.05943 13.0335 6.17164C12.6781 5.89436 12.2058 6.17938 12.2058 6.63011V13.3692C12.2058 13.8206 12.6794 14.1055 13.0348 13.8271C14.1718 12.9364 14.9042 11.5537 14.9042 9.99842ZM12.9404 0.722165C12.5684 0.606132 12.2058 0.895487 12.2058 1.28515V2.30251C12.2058 2.5711 12.3833 2.80545 12.6357 2.8975C15.5323 3.95433 17.6028 6.7334 17.6028 9.99842C17.6028 13.2636 15.5323 16.0425 12.6357 17.0993C12.3833 17.1914 12.2058 17.4257 12.2058 17.6943V18.7117C12.2058 19.1014 12.5684 19.3907 12.9404 19.2747C16.89 18.0427 19.7616 14.3612 19.7616 9.99842C19.7616 5.63567 16.89 1.95416 12.9404 0.722165Z" fill="#395561"/>
</svg>
