<svg id="Layer_1" data-name="Layer 1" xmlns="http://www.w3.org/2000/svg" viewBox="0 0 32 13"><defs><style>.cls-1{fill:#222c60;fillRule:evenodd;}</style></defs><title>tourisme</title><path class="cls-1" d="M281.79,421.16l.14-1.84,3.21-3.66-.46-.61c.15-.21.3-.43.46-.64a97,97,0,0,1,14.16-.24,21.47,21.47,0,0,1,5.52,4.14,32.05,32.05,0,0,1,7.27,1.29,6.08,6.08,0,0,1,1.33,2.31,4.2,4.2,0,0,1-.55,2.69l-1.91.28a3.72,3.72,0,0,0,.05-1.66,3.76,3.76,0,0,0-.7-1.5,3.5,3.5,0,0,0-1.3-1,3.54,3.54,0,0,0-1.61-.32,3.52,3.52,0,0,0-2.78,1.58,3.56,3.56,0,0,0-.58,1.55,3.7,3.7,0,0,0,.19,1.65H290.4a3.59,3.59,0,0,0,.19-1.62A3.53,3.53,0,0,0,290,422a3.53,3.53,0,0,0-4.3-1.36,3.62,3.62,0,0,0-1.31.95,3.61,3.61,0,0,0-.81,3.07l-1.83-.47-.33-2.73.33-.3Zm25.76-.28a3,3,0,0,0-1.93.69,3.11,3.11,0,0,0-1.05,1.78,3.07,3.07,0,0,0,.3,2,3,3,0,0,0,1.52,1.39,3,3,0,0,0,2,.11,3.09,3.09,0,0,0,2.14-3.24,3.11,3.11,0,0,0-.87-1.87,3,3,0,0,0-1-.67A3.08,3.08,0,0,0,307.55,420.88Zm-20.47,0a3,3,0,0,0-1.92.69,3.07,3.07,0,0,0-1.06,1.78,3.13,3.13,0,0,0,.3,2,3,3,0,0,0,1.52,1.39,3,3,0,0,0,2,.11,3.06,3.06,0,0,0,2.14-3.24,3,3,0,0,0-.87-1.87,3,3,0,0,0-1-.67A3.13,3.13,0,0,0,287.08,420.88Zm.28,3.16,1.27-.28a1.2,1.2,0,0,0-.14-.49l-1.25.47.09-1.35a1.21,1.21,0,0,0-.5,0l.08,1.35-1.25-.48a1.34,1.34,0,0,0-.15.48l1.31.32-.79,1.09a1.17,1.17,0,0,0,.42.27l.64-1.17.78,1.08a1.18,1.18,0,0,0,.38-.32l-.89-1Zm.95-1.34a1.76,1.76,0,0,0-1.06-.5,1.68,1.68,0,0,0-1.13.29,1.76,1.76,0,0,0-.64,2.13,1.81,1.81,0,0,0,.78.88,1.74,1.74,0,0,0,2.17-.44,1.8,1.8,0,0,0,.26-1.79A2,2,0,0,0,288.31,422.7Zm19.5,1.34,1.27-.28a1.2,1.2,0,0,0-.14-.49l-1.25.47.09-1.35a1.21,1.21,0,0,0-.5,0l.08,1.35-1.25-.48a1.34,1.34,0,0,0-.15.48l1.31.32-.79,1.09a1.17,1.17,0,0,0,.42.27l.64-1.17.78,1.08a1.18,1.18,0,0,0,.38-.32l-.89-1Zm1-1.34a1.78,1.78,0,0,0-1.06-.5,1.73,1.73,0,0,0-1.83,1.24,1.77,1.77,0,0,0,.05,1.18,1.83,1.83,0,0,0,.79.88,1.72,1.72,0,0,0,1.16.17,1.7,1.7,0,0,0,1-.61,1.74,1.74,0,0,0,.4-1.11,1.8,1.8,0,0,0-.14-.68A1.75,1.75,0,0,0,308.78,422.7Zm-21.89-4.51,1.69,0,.26-3.17-1.07,0a10,10,0,0,0-1.22,2.36l.34.74Zm-4.66,2.34c1.24-.09,1.35-.66,1.67-1.77l-.79-.22-.8.91-.08,1.08Zm7.44-5.53.19,3.21,5.51,0-.32-3.34c-1.81,0-3.53,0-5.38.1Zm6.2-.07.79,3.33,4,0,.3-1.15a5.88,5.88,0,0,1,1.17.88l.09-.17a14.07,14.07,0,0,0-3.41-2.74C297.77,415,296.8,415,295.87,414.93Zm1.21,4.66c0,.75,1.47.75,1.47,0Zm-6.85,0c0,.75,1.46.75,1.46,0Zm21.83.44c-.58.64,0,1.69,1,1.7a6.19,6.19,0,0,0-1-1.7Z" transform="translate(-281.46 -414.02)"/></svg>