<svg width="32" height="14" viewBox="0 0 32 14" fill="none" xmlns="http://www.w3.org/2000/svg">
<path fill-rule="evenodd" clip-rule="evenodd" d="M0.333671 7.50209L0.468472 5.65617L3.67769 1.99416L3.21923 1.3914C3.37182 1.17463 3.52464 0.958565 3.67769 0.743209C8.38689 0.322466 13.1199 0.244882 17.8401 0.511053C19.8905 1.57883 21.7566 2.97489 23.3662 4.64518C25.8287 4.79804 28.2664 5.23028 30.6335 5.93376C31.2429 6.59578 31.6972 7.38805 31.9625 8.25181C32.086 9.1849 31.8921 10.1327 31.4128 10.9397L29.4996 11.2159C29.6442 10.6746 29.6607 10.1066 29.5478 9.55767C29.4348 9.00876 29.1957 8.49447 28.8496 8.05642C28.5036 7.61837 28.0604 7.26888 27.556 7.03626C27.0515 6.80364 26.5 6.69441 25.946 6.71744C25.392 6.74046 24.8512 6.89509 24.3673 7.16879C23.8835 7.44249 23.4701 7.82758 23.1608 8.29287C22.8515 8.75815 22.6549 9.29055 22.5869 9.84698C22.5189 10.4034 22.5814 10.9682 22.7694 11.4956H8.94683C9.13156 10.9771 9.19507 10.4223 9.13238 9.87482C9.06969 9.32731 8.88249 8.80193 8.58547 8.3398C8.28844 7.87766 7.88965 7.49133 7.42032 7.21109C6.95099 6.93084 6.42387 6.76428 5.88025 6.72444C5.33663 6.6846 4.79126 6.77255 4.28688 6.98144C3.78249 7.19033 3.33278 7.51448 2.97296 7.92848C2.61315 8.34248 2.353 8.83509 2.2129 9.36774C2.07279 9.90038 2.05654 10.4586 2.16541 10.9987L0.331566 10.5244C0.219701 9.61754 0.108772 8.70997 -0.0012207 7.80169L0.333671 7.50137V7.50209ZM26.091 7.21384C25.3883 7.21369 24.7073 7.45995 24.164 7.91065C23.6207 8.36135 23.2488 8.98858 23.1116 9.6855C22.9744 10.3824 23.0804 11.1059 23.4116 11.7326C23.7428 12.3594 24.2786 12.8506 24.9278 13.1225C25.577 13.3945 26.2994 13.4305 26.9718 13.2242C27.6443 13.018 28.2252 12.5824 28.6157 11.9916C29.0061 11.4007 29.1818 10.6913 29.113 9.98413C29.0441 9.27695 28.7349 8.61582 28.238 8.11336C27.9563 7.82784 27.6217 7.6014 27.2532 7.44703C26.8848 7.29267 26.4898 7.21342 26.091 7.21384ZM5.62527 7.21384C4.92257 7.21369 4.24155 7.45995 3.69828 7.91065C3.155 8.36135 2.78308 8.98858 2.64588 9.6855C2.50869 10.3824 2.61472 11.1059 2.94589 11.7326C3.27707 12.3594 3.81291 12.8506 4.46209 13.1225C5.11128 13.3945 5.83365 13.4305 6.50611 13.2242C7.17857 13.018 7.75951 12.5824 8.14993 11.9916C8.54036 11.4007 8.71611 10.6913 8.64724 9.98413C8.57837 9.27695 8.26914 8.61582 7.77224 8.11336C7.49056 7.82787 7.1559 7.60144 6.78747 7.44708C6.41903 7.29271 6.02408 7.21346 5.62527 7.21384ZM5.90189 10.3796L7.17266 10.0956C7.16127 9.92578 7.11462 9.76032 7.03575 9.60997L5.77832 10.0729L5.8689 8.72392C5.70498 8.68657 5.53512 8.68464 5.37042 8.71824L5.45186 10.0672L4.20566 9.58867C4.12295 9.73632 4.07155 9.89976 4.05471 10.0686L5.3669 10.3852L4.57075 11.4786C4.69142 11.5959 4.83487 11.6865 4.99199 11.7448L5.63159 10.5741L6.4102 11.6575C6.55915 11.5794 6.69041 11.4709 6.79565 11.3387L5.89909 10.3789L5.90189 10.3796ZM6.85322 9.04129C6.56893 8.75384 6.19488 8.57497 5.7948 8.53514C5.39471 8.49532 4.99335 8.597 4.6591 8.82287C4.32485 9.04875 4.07839 9.38484 3.96171 9.77388C3.84503 10.1629 3.86536 10.5808 4.01923 10.9564C4.1731 11.332 4.45098 11.642 4.80554 11.8336C5.1601 12.0252 5.5694 12.0866 5.96368 12.0072C6.35797 11.9279 6.71286 11.7128 6.96787 11.3985C7.22289 11.0842 7.36226 10.6903 7.36223 10.2837C7.36267 10.0529 7.31792 9.82427 7.23056 9.61103C7.1432 9.39779 7.01495 9.20416 6.85322 9.04129ZM26.3515 10.3796L27.6222 10.0956C27.6104 9.92594 27.564 9.76062 27.486 9.60997L26.2279 10.0729L26.3192 8.72392C26.155 8.68647 25.9849 8.68453 25.82 8.71824L25.9014 10.0672L24.6545 9.58867C24.5723 9.73641 24.5213 9.89986 24.505 10.0686L25.8158 10.3852L25.021 11.4786C25.1414 11.5962 25.2849 11.6869 25.4423 11.7448L26.0819 10.5741L26.8605 11.6575C27.0094 11.5794 27.1407 11.4709 27.2459 11.3387L26.3494 10.3789L26.3515 10.3796ZM27.3189 9.04129C27.0347 8.75384 26.6606 8.57497 26.2605 8.53514C25.8604 8.49532 25.4591 8.597 25.1248 8.82287C24.7906 9.04875 24.5441 9.38484 24.4274 9.77388C24.3108 10.1629 24.3311 10.5808 24.4849 10.9564C24.6388 11.332 24.9167 11.642 25.2713 11.8336C25.6258 12.0252 26.0351 12.0866 26.4294 12.0072C26.8237 11.9279 27.1786 11.7128 27.4336 11.3985C27.6886 11.0842 27.828 10.6903 27.8279 10.2837C27.8283 10.0529 27.7835 9.82433 27.6962 9.6111C27.6088 9.39786 27.4806 9.20421 27.3189 9.04129ZM5.4343 4.53229L7.11931 4.54295L7.38048 1.37864C7.02944 1.39568 6.6784 1.41059 6.31683 1.42763C5.80637 2.15719 5.39327 2.95161 5.08818 3.79037L5.4329 4.53229H5.4343ZM0.767561 6.86808C2.00744 6.77437 2.12328 6.20711 2.44554 5.09317L1.65078 4.88017L0.850404 5.79107L0.767561 6.86665V6.86808ZM8.20964 1.34241L8.40201 4.55147L13.912 4.58767L13.5918 1.25083C11.7811 1.21533 10.0652 1.26858 8.20964 1.34597V1.34241ZM14.4111 1.27144L15.2052 4.59903L19.1895 4.62531L19.4921 3.47801C19.9172 3.7192 20.31 4.01433 20.6611 4.35623L20.7566 4.18299C19.7666 3.09847 18.6154 2.17674 17.3444 1.45105C16.3131 1.36088 15.3449 1.30409 14.4111 1.27144ZM15.6236 5.92313C15.6236 6.67853 17.0896 6.67853 17.0896 5.92313H15.6236ZM8.7706 5.92313C8.7706 6.67853 10.2373 6.67853 10.2373 5.92313H8.7706ZM30.6054 6.36685C30.0191 7.01008 30.5583 8.05444 31.6023 8.07077C31.3628 7.45235 31.0267 6.87682 30.6068 6.36614L30.6054 6.36685Z" fill="#0A2463"/>
</svg>
