<?xml version="1.0" encoding="utf-8"?>
<!-- Generator: Adobe Illustrator 24.0.2, SVG Export Plug-In . SVG Version: 6.00 Build 0)  -->
<svg version="1.1" id="tractor" xmlns="http://www.w3.org/2000/svg" xmlns:xlink="http://www.w3.org/1999/xlink" x="0px" y="0px"
	 viewBox="0 0 27 24" style="enable-background:new 0 0 27 24;" xml:space="preserve">
<style type="text/css">
	.st0{clip-path:url(#SVGID_2_);}
	.st1{fill:#333366;}
</style>
<g>
	<defs>
		<rect id="SVGID_1_" y="0" width="27" height="24"/>
	</defs>
	<clipPath id="SVGID_2_">
		<use xlink:href="#SVGID_1_"  style="overflow:visible;"/>
	</clipPath>
	<g id="Groupe_3640" class="st0">
		<path id="Tracé_3275" class="st1" d="M22.9,16.2c-2.2,0-4,1.8-4,4s1.8,4,4,4c2.2,0,4-1.8,4-4l0,0C27,18,25.2,16.2,22.9,16.2
			 M22.9,21.6c-0.7,0-1.3-0.6-1.3-1.4s0.6-1.3,1.4-1.3c0.7,0,1.3,0.6,1.3,1.3C24.3,21,23.7,21.6,22.9,21.6"/>
		<path id="Tracé_3276" class="st1" d="M22.9,15.3c1.1,0,2.3,0.4,3.1,1.1v-6.1c0-0.2-0.2-0.4-0.4-0.4c0,0,0,0,0,0h-4V6.7
			c0-0.6-0.4-1.1-0.9-1.3V4c0-0.7-0.6-1.3-1.3-1.3c-0.2,0-0.4,0.2-0.4,0.5c0,0.2,0.2,0.4,0.4,0.4c0.2,0,0.5,0.2,0.5,0.4v0v1.4
			c-0.5,0.2-0.9,0.7-0.9,1.3v3.1H16l-3.3-9H13c0.2,0,0.4-0.2,0.4-0.4S13.3,0,13,0l0,0H3.1C2.9,0,2.7,0.2,2.7,0.4s0.2,0.4,0.5,0.4
			h0.3L1.2,11c-0.4,0.3-0.8,0.7-1.1,1.1c-0.2,0.2-0.1,0.5,0.1,0.6c0.2,0.2,0.5,0.1,0.6-0.1c0.1-0.2,0.3-0.3,0.4-0.4h0
			C4.1,9.2,8.9,9.1,12,12c1.5,1.4,2.4,3.5,2.4,5.6v2.7c0,0.2,0.2,0.5,0.4,0.5c0,0,0,0,0,0H18c0-0.1,0-0.3,0-0.5
			C18,17.5,20.2,15.3,22.9,15.3 M12.3,9.9C9.4,7.8,5.7,7.5,2.6,9.1l1.8-8.2h7.4l3.3,9L12.3,9.9z"/>
		<path id="Tracé_3277" class="st1" d="M6.7,10.8c-3.7,0-6.7,3-6.7,6.7s3,6.7,6.7,6.7s6.7-3,6.7-6.7l0,0
			C13.5,13.8,10.5,10.8,6.7,10.8 M6.7,19.8c-1.2,0-2.2-1-2.2-2.2c0-1.2,1-2.2,2.2-2.2s2.2,1,2.2,2.2l0,0C9,18.8,8,19.8,6.7,19.8
			C6.7,19.8,6.7,19.8,6.7,19.8"/>
	</g>
</g>
</svg>
