<svg width="16" height="12" viewBox="0 0 16 12" fill="none" xmlns="http://www.w3.org/2000/svg">
<g id="truck">
<g ClipPath="url(#clip0_1397_41078)">
<path id="Primary" d="M1.625 0C1.00391 0 0.5 0.503906 0.5 1.125V8.625C0.5 9.24609 1.00391 9.75 1.625 9.75H2C2 10.9922 3.00781 12 4.25 12C5.49219 12 6.5 10.9922 6.5 9.75H9.5C9.5 10.9922 10.5078 12 11.75 12C12.9922 12 14 10.9922 14 9.75H14.75C15.1648 9.75 15.5 9.41484 15.5 9C15.5 8.58516 15.1648 8.25 14.75 8.25V6.75V6V5.56172C14.75 5.16328 14.593 4.78125 14.3117 4.5L12.5 2.68828C12.2188 2.40703 11.8367 2.25 11.4383 2.25H10.25V1.125C10.25 0.503906 9.74609 0 9.125 0H1.625ZM10.25 3.75H11.4383L13.25 5.56172V6H10.25V3.75ZM3.125 9.75C3.125 9.45163 3.24353 9.16548 3.4545 8.9545C3.66548 8.74353 3.95163 8.625 4.25 8.625C4.54837 8.625 4.83452 8.74353 5.0455 8.9545C5.25647 9.16548 5.375 9.45163 5.375 9.75C5.375 10.0484 5.25647 10.3345 5.0455 10.5455C4.83452 10.7565 4.54837 10.875 4.25 10.875C3.95163 10.875 3.66548 10.7565 3.4545 10.5455C3.24353 10.3345 3.125 10.0484 3.125 9.75ZM11.75 8.625C12.0484 8.625 12.3345 8.74353 12.5455 8.9545C12.7565 9.16548 12.875 9.45163 12.875 9.75C12.875 10.0484 12.7565 10.3345 12.5455 10.5455C12.3345 10.7565 12.0484 10.875 11.75 10.875C11.4516 10.875 11.1655 10.7565 10.9545 10.5455C10.7435 10.3345 10.625 10.0484 10.625 9.75C10.625 9.45163 10.7435 9.16548 10.9545 8.9545C11.1655 8.74353 11.4516 8.625 11.75 8.625Z" fill="#FB3640"/>
</g>
</g>
<defs>
<clipPath id="clip0_1397_41078">
<rect x="0.5" width="15" height="12" rx="4" fill="white"/>
</clipPath>
</defs>
</svg>
