<svg width="16" height="13" viewBox="0 0 16 13" fill="none" xmlns="http://www.w3.org/2000/svg">
<path d="M0 7.49375L0.355556 5.99375H4.26667L3.91111 7.49375H0ZM4.62222 12.5C4.02963 12.5 3.52593 12.2812 3.11111 11.8438C2.6963 11.4062 2.48889 10.875 2.48889 10.25H0.711111L1.06667 8.61875H4.74667L5.38667 5.88125H6.88L7.76889 2.13125H2.84444L2.95111 1.68125C3.02222 1.33125 3.1853 1.047 3.44036 0.8285C3.69541 0.61 3.99455 0.5005 4.33778 0.5H12.4444L11.7867 3.5H13.8667L16 6.5L15.2889 10.25H13.8667C13.8667 10.875 13.6593 11.4062 13.2444 11.8438C12.8296 12.2812 12.3259 12.5 11.7333 12.5C11.1407 12.5 10.637 12.2812 10.2222 11.8438C9.80741 11.4062 9.6 10.875 9.6 10.25H6.75556C6.75556 10.875 6.54815 11.4062 6.13333 11.8438C5.71852 12.2812 5.21482 12.5 4.62222 12.5ZM1.42222 4.75625L1.77778 3.25625H6.4L6.04444 4.75625H1.42222ZM4.62222 11C4.8237 11 4.99271 10.928 5.12924 10.784C5.26578 10.64 5.33381 10.462 5.33333 10.25C5.33286 10.038 5.26459 9.86 5.12853 9.716C4.99247 9.572 4.8237 9.5 4.62222 9.5C4.42074 9.5 4.25197 9.572 4.11591 9.716C3.97985 9.86 3.91159 10.038 3.91111 10.25C3.91064 10.462 3.9789 10.6402 4.11591 10.7847C4.25292 10.9292 4.42169 11.001 4.62222 11ZM11.7333 11C11.9348 11 12.1038 10.928 12.2404 10.784C12.3769 10.64 12.4449 10.462 12.4444 10.25C12.444 10.038 12.3757 9.86 12.2396 9.716C12.1036 9.572 11.9348 9.5 11.7333 9.5C11.5319 9.5 11.3631 9.572 11.227 9.716C11.091 9.86 11.0227 10.038 11.0222 10.25C11.0217 10.462 11.09 10.6402 11.227 10.7847C11.364 10.9292 11.5328 11.001 11.7333 11ZM10.9689 7.25H14.4L14.4711 6.85625L13.1556 5H11.4667L10.9689 7.25Z" fill="#0A2463"/>
</svg>
