<svg width="60" height="60" viewBox="0 0 60 60" fill="none" xmlns="http://www.w3.org/2000/svg">
<path id="Vector" d="M8.69804 8.88412C-3.02268 20.6048 -2.83657 39.5813 8.88415 51.302C20.6049 63.0227 39.5812 62.8366 51.302 51.1159C63.0227 39.3951 62.8366 20.4188 51.1159 8.69806C39.3951 -3.02265 20.4188 -2.8366 8.69804 8.88412ZM44.4183 44.2323C36.6045 52.2321 23.7675 52.2321 15.7677 44.2323C7.7678 36.4185 7.7678 23.5815 15.7677 15.5817C23.5815 7.58182 36.4185 7.58182 44.4183 15.5817C52.4182 23.3955 52.4182 36.2324 44.4183 44.2323ZM16.884 17.07C9.81434 24.3257 9.81434 36.0464 16.884 43.116C24.1397 50.1857 35.8604 50.1857 42.93 43.116C49.9997 35.8603 49.9997 24.1396 42.93 17.07C35.6743 10.0004 23.9536 10.0004 16.884 17.07ZM25.628 17.07C25.628 14.8375 27.4884 12.791 29.7209 12.791C31.9534 12.791 34 14.6515 34 16.884C34 19.1165 32.1395 21.163 29.907 21.163C27.6745 21.163 25.628 19.3025 25.628 17.07ZM17.8142 18.0002C19.4886 16.3258 22.0932 16.3258 23.7676 18.0002C25.442 19.6746 25.442 22.2792 23.7676 23.9536C22.0932 25.628 19.4886 25.628 17.8142 23.9536C16.1398 22.2792 16.1398 19.6746 17.8142 18.0002ZM31.9534 31.9534C30.8372 33.0697 29.1628 33.0697 28.0466 31.9534C26.9303 30.8372 26.9303 29.1628 28.0466 28.0466C29.1628 26.9303 30.8372 26.9303 31.9534 28.0466C33.0697 29.1628 33.0697 30.8372 31.9534 31.9534ZM35.4883 32.6977C36.2325 33.4418 36.2325 34.7441 35.4883 35.4883C34.7441 36.2325 33.4418 36.2325 32.6977 35.4883C31.9535 34.7441 31.9535 33.4418 32.6977 32.6977C33.4418 31.9535 34.7441 31.9535 35.4883 32.6977ZM24.5117 27.4884C23.7675 26.7442 23.7675 25.4419 24.5117 24.6978C25.2559 23.9536 26.5582 23.9536 27.3024 24.6978C28.0465 25.4419 28.0465 26.7442 27.3024 27.4884C26.5582 28.2326 25.2559 28.2326 24.5117 27.4884ZM13.3491 30.2791C13.3491 28.0466 15.2096 26.0001 17.4421 26.0001C19.6746 26.0001 21.7211 27.8605 21.7211 30.093C21.7211 32.3255 19.8606 34.372 17.6281 34.372C15.3956 34.372 13.3491 32.5116 13.3491 30.2791ZM18.0002 42.1858C16.3258 40.5114 16.3258 37.9069 18.0002 36.2325C19.6746 34.5581 22.2792 34.5581 23.9536 36.2325C25.628 37.9069 25.628 40.5114 23.9536 42.1858C22.2792 43.8602 19.6746 43.8602 18.0002 42.1858ZM34.186 42.744C34.186 44.9765 32.3255 47.023 30.093 47.023C27.8605 47.023 25.814 45.1625 25.814 42.93C25.814 40.6975 27.6745 38.651 29.907 38.651C32.1395 38.651 34.186 40.5115 34.186 42.744ZM27.4885 35.4883C26.7443 36.2325 25.442 36.2325 24.6978 35.4883C23.9536 34.7441 23.9536 33.4418 24.6978 32.6977C25.442 31.9535 26.7443 31.9535 27.4885 32.6977C28.2326 33.4418 28.2326 34.7441 27.4885 35.4883ZM42.1858 41.9998C40.5114 43.6742 37.9068 43.6742 36.2324 41.9998C34.558 40.3254 34.558 37.7208 36.2324 36.0464C37.9068 34.372 40.5114 34.372 42.1858 36.0464C43.8602 37.7208 43.8602 40.3254 42.1858 41.9998ZM32.5115 27.4884C31.7674 26.7442 31.7674 25.4419 32.5115 24.6978C33.2557 23.9536 34.558 23.9536 35.3022 24.6978C36.0464 25.4419 36.0464 26.7442 35.3022 27.4884C34.558 28.2326 33.2557 28.2326 32.5115 27.4884ZM47.5811 30.093C47.5811 32.3255 45.7206 34.372 43.4881 34.372C41.2556 34.372 39.2092 32.5116 39.2092 30.2791C39.2092 28.0466 41.0696 26.0001 43.3021 26.0001C45.5347 26.0001 47.5811 27.8605 47.5811 30.093ZM41.9998 23.7676C40.3254 25.4419 37.7208 25.4419 36.0464 23.7676C34.372 22.0932 34.372 19.4886 36.0464 17.8142C37.7208 16.1398 40.3254 16.1398 41.9998 17.8142C43.6742 19.4886 43.6742 22.0932 41.9998 23.7676Z" fill="#0A2463"/>
</svg>
