<svg width="16" height="16" viewBox="0 0 16 16" fill="none" xmlns="http://www.w3.org/2000/svg">
<g id="volume-high" ClipPath="url(#clip0_1740_13882)">
<path id="Primary" d="M13.34 2.81229C14.9625 4.12979 16 6.14479 16 8.39979C16 10.6548 14.9625 12.6673 13.34 13.9873C13.0825 14.1973 12.705 14.1573 12.495 13.8998C12.285 13.6423 12.325 13.2648 12.5825 13.0548C13.9375 11.9548 14.8 10.2798 14.8 8.39979C14.8 6.51979 13.9375 4.84479 12.5825 3.74229C12.325 3.53229 12.2875 3.15479 12.495 2.89729C12.7025 2.63979 13.0825 2.60229 13.34 2.80979V2.81229ZM11.8275 4.67479C12.9075 5.55479 13.6 6.89729 13.6 8.39979C13.6 9.90229 12.9075 11.2448 11.8275 12.1248C11.57 12.3348 11.1925 12.2948 10.9825 12.0373C10.7725 11.7798 10.8125 11.4023 11.07 11.1923C11.8825 10.5323 12.4 9.52729 12.4 8.39979C12.4 7.27229 11.8825 6.26729 11.07 5.60479C10.8125 5.39479 10.775 5.01729 10.9825 4.75979C11.19 4.50229 11.57 4.46479 11.8275 4.67229V4.67479ZM10.315 6.53729C10.8525 6.97729 11.2 7.64729 11.2 8.39979C11.2 9.15229 10.8525 9.82229 10.315 10.2623C10.0575 10.4723 9.68 10.4323 9.47 10.1748C9.26 9.91729 9.3 9.53979 9.5575 9.32979C9.8275 9.10979 10 8.77479 10 8.39979C10 8.02479 9.8275 7.68979 9.5575 7.46729C9.3 7.25729 9.2625 6.87979 9.47 6.62229C9.6775 6.36479 10.0575 6.32729 10.315 6.53479V6.53729ZM7.5275 2.86979C7.815 2.99979 8 3.28479 8 3.59979V13.1998C8 13.5148 7.815 13.7998 7.5275 13.9298C7.24 14.0598 6.9025 14.0073 6.6675 13.7973L3.295 10.7998H1.6C0.7175 10.7998 0 10.0823 0 9.19979V7.59979C0 6.71729 0.7175 5.99979 1.6 5.99979H3.295L6.6675 3.00229C6.9025 2.79229 7.24 2.74229 7.5275 2.86979Z" fill="#677198"/>
</g>
<defs>
<clipPath id="clip0_1740_13882">
<rect width="16" height="16" fill="white"/>
</clipPath>
</defs>
</svg>
