<svg width="191" height="54" viewBox="0 0 191 54" fill="none" xmlns="http://www.w3.org/2000/svg">
<path d="M48.3208 41.4883C48.3208 42.8845 47.8539 44.5135 46.8618 46.3169C45.9281 48.1786 44.6442 49.7493 42.9518 51.0292C41.3178 52.3672 39.4503 53.0072 37.4078 53.0072H11.73C10.1544 53.0072 8.46198 52.4836 6.65286 51.4946C4.78539 50.4474 3.20972 49.2257 1.92583 47.7131C0.641943 46.2006 0 44.7462 0 43.4663V9.57573C0 8.70309 0.350151 7.65592 1.10881 6.55058C1.80911 5.44524 2.80121 4.39807 3.96837 3.40908C5.13554 2.42008 6.47779 1.60562 7.87839 0.965686C9.27899 0.325751 10.6212 0.0348682 11.9051 0.0348682H34.3731C36.9409 0.0348682 39.3336 0.616631 41.4345 1.72197C43.5938 2.88549 45.2862 4.33989 46.5117 6.08517C47.7372 7.88863 48.3208 9.57573 48.3208 11.321V41.4883ZM36.5324 37.416V15.2188C36.5324 13.299 35.8321 11.9609 34.4315 11.2047C33.0309 10.4484 31.4552 10.0411 29.7628 10.0411H17.916C15.9902 10.0411 14.4145 10.7392 13.1307 11.9609C11.7884 13.1245 11.0881 14.4625 11.0881 15.9751V36.6015C11.0881 40.732 12.8972 42.7682 16.282 42.7682H31.1051C32.3306 42.7682 33.3227 42.4773 34.1397 41.8956C34.9567 41.3138 35.5403 40.5575 35.9488 39.743C36.3573 38.9286 36.5324 38.1723 36.5324 37.416Z" fill="#0A2463"/>
<path d="M101.606 9.66829H52.4679V0.0692575H101.606V9.66829ZM98.5598 15.8931L68.0457 53.0072H53.1643L84.3787 15.8931H98.5598Z" fill="#0A2463"/>
<path d="M137.359 6.46275H104.827V3.8147e-06H137.359V6.46275ZM138.26 26.9281H103.964V20.8501L118.898 10.502H132.146L117.291 20.273H138.26V26.9281Z" fill="#FB3640"/>
<path d="M179.47 26.9281H169.201L161.088 16.657H150.858V26.9281H142.901V10.1942H167.712C168.221 10.1942 168.691 10.0019 169.201 9.65565C169.671 9.30944 169.906 8.80934 169.906 8.15538C169.906 7.69375 169.789 7.34753 169.554 7.03978C169.319 6.7705 169.005 6.57816 168.652 6.46275C168.26 6.30887 167.868 6.27041 167.437 6.27041H142.901V3.8147e-06H172.846C174.257 3.8147e-06 175.472 0.500097 176.452 1.46182C177.471 2.462 177.981 3.65453 177.981 5.03941V11.7714C177.981 12.964 177.745 13.8872 177.236 14.5412C176.726 15.1951 176.138 15.6568 175.472 15.8876C174.806 16.1569 174.022 16.3107 173.12 16.4262C172.219 16.5416 171.709 16.6185 171.553 16.657L179.47 26.9281Z" fill="#FB3640"/>
<path d="M180.013 54C179.45 54 178.924 53.8972 178.437 53.6916C177.95 53.4784 177.523 53.1853 177.158 52.8122C176.792 52.4315 176.507 51.9936 176.301 51.4987C176.103 51.0038 176.004 50.4746 176.004 49.9111C176.004 49.3401 176.103 48.8109 176.301 48.3235C176.507 47.8286 176.788 47.3946 177.146 47.0215C177.512 46.6484 177.934 46.3591 178.414 46.1535C178.901 45.9479 179.427 45.8451 179.99 45.8451C180.554 45.8451 181.075 45.9479 181.555 46.1535C182.042 46.3591 182.469 46.6484 182.834 47.0215C183.2 47.3946 183.485 47.8286 183.691 48.3235C183.896 48.8185 183.999 49.3515 183.999 49.9225C183.999 50.486 183.896 51.0152 183.691 51.5101C183.485 52.0051 183.2 52.4391 182.834 52.8122C182.476 53.1853 182.054 53.4784 181.566 53.6916C181.087 53.8972 180.569 54 180.013 54ZM179.99 52.9721C180.561 52.9721 181.06 52.8426 181.486 52.5837C181.92 52.3172 182.263 51.9556 182.514 51.4987C182.766 51.0342 182.891 50.505 182.891 49.9111C182.891 49.4695 182.819 49.0659 182.674 48.7005C182.53 48.3274 182.328 48.0037 182.069 47.7296C181.81 47.4555 181.505 47.2461 181.155 47.1015C180.805 46.9492 180.417 46.873 179.99 46.873C179.427 46.873 178.928 47.0025 178.494 47.2614C178.068 47.5202 177.729 47.8781 177.477 48.335C177.234 48.7918 177.112 49.3172 177.112 49.9111C177.112 50.3528 177.18 50.7639 177.318 51.1446C177.462 51.5177 177.66 51.8414 177.911 52.1155C178.17 52.382 178.475 52.5914 178.825 52.7436C179.183 52.8959 179.571 52.9721 179.99 52.9721Z" fill="#0A2463"/>
<path d="M168.635 53.8858V46.1877H169.708V53.8858H168.635ZM165.939 46.9415V45.9593H172.392V46.9415H165.939Z" fill="#0A2463"/>
<path d="M158.506 54C157.919 54 157.394 53.8706 156.929 53.6117C156.473 53.3452 156.111 52.9835 155.844 52.5266C155.578 52.0622 155.445 51.5368 155.445 50.9505V45.9593H156.518V50.9276C156.518 51.3464 156.606 51.7081 156.781 52.0127C156.956 52.3172 157.192 52.5533 157.489 52.7208C157.794 52.8883 158.132 52.9721 158.506 52.9721C158.894 52.9721 159.233 52.8883 159.522 52.7208C159.819 52.5533 160.051 52.3172 160.219 52.0127C160.394 51.7081 160.481 51.3502 160.481 50.9391V45.9593H161.567V50.9619C161.567 51.5482 161.433 52.0698 161.167 52.5266C160.9 52.9835 160.539 53.3452 160.082 53.6117C159.625 53.8706 159.1 54 158.506 54Z" fill="#0A2463"/>
<path d="M143.867 53.8858L147.111 45.9593H147.888L151.12 53.8858H149.955L147.294 47.1814H147.693L145.009 53.8858H143.867ZM145.409 52.0926V51.1561H149.578V52.0926H145.409Z" fill="#0A2463"/>
<path d="M139.935 48.5177L139.695 45.7309H140.826L140.586 48.5177H139.935Z" fill="#0A2463"/>
<path d="M131.233 53.8858V45.9593H132.307V53.8858H131.233ZM131.964 53.8858V52.9035H136.213V53.8858H131.964Z" fill="#0A2463"/>
<path d="M115.496 53.8858V45.9593H116.57V53.8858H115.496ZM116.227 53.8858V52.9035H120.773V53.8858H116.227ZM116.227 50.2995V49.3629H120.396V50.2995H116.227ZM116.227 46.9415V45.9593H120.716V46.9415H116.227Z" fill="#0A2463"/>
<path d="M104.438 53.8858V52.9035H106.642C107.228 52.9035 107.742 52.7779 108.184 52.5266C108.626 52.2677 108.968 51.9137 109.212 51.4644C109.463 51.0152 109.589 50.4974 109.589 49.9111C109.589 49.3324 109.463 48.8185 109.212 48.3692C108.961 47.92 108.614 47.5697 108.172 47.3185C107.731 47.0672 107.221 46.9415 106.642 46.9415H104.449V45.9593H106.665C107.244 45.9593 107.777 46.0583 108.264 46.2563C108.759 46.4542 109.185 46.7322 109.543 47.09C109.909 47.4479 110.19 47.8667 110.388 48.3464C110.594 48.8261 110.697 49.3515 110.697 49.9225C110.697 50.486 110.594 51.0114 110.388 51.4987C110.19 51.9784 109.912 52.3972 109.554 52.7551C109.197 53.1129 108.77 53.3909 108.275 53.5888C107.788 53.7868 107.259 53.8858 106.688 53.8858H104.438ZM103.73 53.8858V45.9593H104.803V53.8858H103.73Z" fill="#0A2463"/>
<path d="M180.7 41.1143C180.076 41.1143 179.543 41.0001 179.101 40.7716C178.66 40.5432 178.267 40.212 177.925 39.778L178.656 39.047C178.907 39.3972 179.196 39.6637 179.524 39.8465C179.851 40.0216 180.255 40.1092 180.734 40.1092C181.207 40.1092 181.583 40.0064 181.865 39.8008C182.154 39.5952 182.299 39.3135 182.299 38.9556C182.299 38.6587 182.231 38.4188 182.094 38.2361C181.957 38.0533 181.77 37.9048 181.534 37.7906C181.305 37.6688 181.054 37.5622 180.78 37.4708C180.506 37.3718 180.232 37.2691 179.958 37.1625C179.684 37.0482 179.432 36.9112 179.204 36.7513C178.976 36.5838 178.789 36.3668 178.644 36.1003C178.507 35.8338 178.439 35.4987 178.439 35.0952C178.439 34.6459 178.545 34.2652 178.759 33.953C178.979 33.6332 179.276 33.3896 179.649 33.2221C180.03 33.0469 180.456 32.9594 180.929 32.9594C181.446 32.9594 181.911 33.0622 182.322 33.2677C182.733 33.4657 183.068 33.7284 183.327 34.0558L182.596 34.7868C182.36 34.5127 182.105 34.3071 181.831 34.17C181.564 34.033 181.256 33.9644 180.906 33.9644C180.479 33.9644 180.141 34.0596 179.889 34.25C179.638 34.4327 179.512 34.6916 179.512 35.0266C179.512 35.2931 179.581 35.5102 179.718 35.6777C179.863 35.8376 180.049 35.9746 180.278 36.0888C180.506 36.2031 180.757 36.3097 181.031 36.4086C181.313 36.5 181.591 36.6028 181.865 36.717C182.139 36.8312 182.391 36.9759 182.619 37.151C182.847 37.3262 183.03 37.5546 183.167 37.8363C183.312 38.1104 183.384 38.4569 183.384 38.8757C183.384 39.5762 183.141 40.1244 182.653 40.5204C182.174 40.9163 181.522 41.1143 180.7 41.1143Z" fill="#0A2463"/>
<path d="M173.488 41.1143C172.925 41.1143 172.4 41.0115 171.912 40.8059C171.425 40.5927 170.999 40.2995 170.633 39.9264C170.268 39.5457 169.982 39.1079 169.777 38.613C169.579 38.118 169.48 37.5889 169.48 37.0254C169.48 36.4543 169.579 35.9251 169.777 35.4378C169.982 34.9429 170.264 34.5089 170.622 34.1358C170.987 33.7627 171.41 33.4733 171.889 33.2677C172.377 33.0622 172.902 32.9594 173.466 32.9594C174.029 32.9594 174.551 33.0622 175.03 33.2677C175.518 33.4733 175.944 33.7627 176.31 34.1358C176.675 34.5089 176.961 34.9429 177.166 35.4378C177.372 35.9327 177.475 36.4657 177.475 37.0368C177.475 37.6003 177.372 38.1295 177.166 38.6244C176.961 39.1193 176.675 39.5533 176.31 39.9264C175.952 40.2995 175.529 40.5927 175.042 40.8059C174.562 41.0115 174.044 41.1143 173.488 41.1143ZM173.466 40.0863C174.037 40.0863 174.535 39.9569 174.962 39.698C175.396 39.4315 175.739 39.0698 175.99 38.613C176.241 38.1485 176.367 37.6193 176.367 37.0254C176.367 36.5838 176.294 36.1802 176.15 35.8147C176.005 35.4416 175.803 35.118 175.544 34.8439C175.285 34.5698 174.981 34.3604 174.631 34.2157C174.28 34.0634 173.892 33.9873 173.466 33.9873C172.902 33.9873 172.403 34.1167 171.969 34.3756C171.543 34.6345 171.204 34.9924 170.953 35.4492C170.709 35.9061 170.587 36.4315 170.587 37.0254C170.587 37.467 170.656 37.8782 170.793 38.2589C170.938 38.632 171.136 38.9556 171.387 39.2297C171.646 39.4962 171.95 39.7056 172.301 39.8579C172.659 40.0102 173.047 40.0863 173.466 40.0863Z" fill="#0A2463"/>
<path d="M163.912 37.5508V36.6485H166.059C166.524 36.6485 166.882 36.5305 167.133 36.2944C167.384 36.0584 167.51 35.7386 167.51 35.335C167.51 34.9543 167.384 34.6383 167.133 34.387C166.889 34.1358 166.535 34.0101 166.071 34.0101H163.912V33.0736H166.105C166.607 33.0736 167.045 33.1726 167.418 33.3705C167.791 33.5609 168.077 33.8236 168.275 34.1586C168.481 34.4936 168.583 34.8782 168.583 35.3122C168.583 35.7614 168.481 36.1536 168.275 36.4886C168.077 36.8236 167.791 37.0863 167.418 37.2767C167.045 37.4594 166.607 37.5508 166.105 37.5508H163.912ZM163.192 41.0001V33.0736H164.266V41.0001H163.192ZM167.761 41.0001L164.883 37.448L165.899 37.0939L169.12 41.0001H167.761Z" fill="#0A2463"/>
<path d="M157.303 37.9163V36.9797H159.462C159.759 36.9797 160.021 36.9188 160.25 36.797C160.486 36.6751 160.669 36.5038 160.798 36.283C160.935 36.0622 161.004 35.7995 161.004 35.4949C161.004 35.1903 160.935 34.9277 160.798 34.7068C160.669 34.486 160.486 34.3147 160.25 34.1929C160.021 34.071 159.759 34.0101 159.462 34.0101H157.303V33.0736H159.53C160.018 33.0736 160.452 33.1726 160.832 33.3705C161.221 33.5685 161.525 33.8502 161.746 34.2157C161.974 34.5736 162.089 35 162.089 35.4949C162.089 35.9822 161.974 36.4086 161.746 36.7741C161.525 37.132 161.221 37.4137 160.832 37.6193C160.452 37.8173 160.018 37.9163 159.53 37.9163H157.303ZM156.584 41.0001V33.0736H157.657V41.0001H156.584Z" fill="#0A2463"/>
<path d="M150.534 41.1143C149.909 41.1143 149.376 41.0001 148.935 40.7716C148.493 40.5432 148.101 40.212 147.758 39.778L148.489 39.047C148.741 39.3972 149.03 39.6637 149.357 39.8465C149.685 40.0216 150.088 40.1092 150.568 40.1092C151.04 40.1092 151.417 40.0064 151.699 39.8008C151.988 39.5952 152.133 39.3135 152.133 38.9556C152.133 38.6587 152.064 38.4188 151.927 38.2361C151.79 38.0533 151.603 37.9048 151.367 37.7906C151.139 37.6688 150.888 37.5622 150.614 37.4708C150.34 37.3718 150.065 37.2691 149.791 37.1625C149.517 37.0482 149.266 36.9112 149.037 36.7513C148.809 36.5838 148.622 36.3668 148.478 36.1003C148.341 35.8338 148.272 35.4987 148.272 35.0952C148.272 34.6459 148.379 34.2652 148.592 33.953C148.813 33.6332 149.11 33.3896 149.483 33.2221C149.864 33.0469 150.29 32.9594 150.762 32.9594C151.28 32.9594 151.744 33.0622 152.156 33.2677C152.567 33.4657 152.902 33.7284 153.161 34.0558L152.43 34.7868C152.194 34.5127 151.939 34.3071 151.664 34.17C151.398 34.033 151.09 33.9644 150.739 33.9644C150.313 33.9644 149.974 34.0596 149.723 34.25C149.471 34.4327 149.346 34.6916 149.346 35.0266C149.346 35.2931 149.414 35.5102 149.551 35.6777C149.696 35.8376 149.883 35.9746 150.111 36.0888C150.34 36.2031 150.591 36.3097 150.865 36.4086C151.147 36.5 151.425 36.6028 151.699 36.717C151.973 36.8312 152.224 36.9759 152.452 37.151C152.681 37.3262 152.864 37.5546 153.001 37.8363C153.145 38.1104 153.218 38.4569 153.218 38.8757C153.218 39.5762 152.974 40.1244 152.487 40.5204C152.007 40.9163 151.356 41.1143 150.534 41.1143Z" fill="#0A2463"/>
<path d="M142.022 41.0001V33.0736H143.095V41.0001H142.022ZM142.753 41.0001V40.0178H147.298V41.0001H142.753ZM142.753 37.4137V36.4772H146.921V37.4137H142.753ZM142.753 34.0558V33.0736H147.241V34.0558H142.753Z" fill="#0A2463"/>
<path d="M135.948 41.0001V33.0736H137.022V41.0001H135.948ZM136.679 41.0001V40.0178H140.928V41.0001H136.679Z" fill="#0A2463"/>
<path d="M127.555 37.5508V36.6485H129.702C130.166 36.6485 130.524 36.5305 130.776 36.2944C131.027 36.0584 131.153 35.7386 131.153 35.335C131.153 34.9543 131.027 34.6383 130.776 34.387C130.532 34.1358 130.178 34.0101 129.713 34.0101H127.555V33.0736H129.748C130.25 33.0736 130.688 33.1726 131.061 33.3705C131.434 33.5609 131.72 33.8236 131.918 34.1586C132.123 34.4936 132.226 34.8782 132.226 35.3122C132.226 35.7614 132.123 36.1536 131.918 36.4886C131.72 36.8236 131.434 37.0863 131.061 37.2767C130.688 37.4594 130.25 37.5508 129.748 37.5508H127.555ZM126.835 41.0001V33.0736H127.909V41.0001H126.835ZM131.404 41.0001L128.526 37.448L129.542 37.0939L132.763 41.0001H131.404Z" fill="#0A2463"/>
<path d="M122.237 41.1143C121.65 41.1143 121.125 40.9848 120.661 40.7259C120.204 40.4594 119.842 40.0978 119.576 39.6409C119.309 39.1764 119.176 38.651 119.176 38.0647V33.0736H120.249V38.0419C120.249 38.4607 120.337 38.8224 120.512 39.1269C120.687 39.4315 120.923 39.6676 121.22 39.8351C121.525 40.0026 121.864 40.0863 122.237 40.0863C122.625 40.0863 122.964 40.0026 123.253 39.8351C123.55 39.6676 123.782 39.4315 123.95 39.1269C124.125 38.8224 124.213 38.4645 124.213 38.0533V33.0736H125.298V38.0762C125.298 38.6625 125.164 39.184 124.898 39.6409C124.631 40.0978 124.27 40.4594 123.813 40.7259C123.356 40.9848 122.831 41.1143 122.237 41.1143Z" fill="#0A2463"/>
<path d="M114.037 41.1143C113.473 41.1143 112.948 41.0115 112.461 40.8059C111.973 40.5927 111.547 40.2995 111.181 39.9264C110.816 39.5457 110.53 39.1079 110.325 38.613C110.127 38.118 110.028 37.5889 110.028 37.0254C110.028 36.4543 110.127 35.9251 110.325 35.4378C110.53 34.9429 110.812 34.5089 111.17 34.1358C111.535 33.7627 111.958 33.4733 112.438 33.2677C112.925 33.0622 113.45 32.9594 114.014 32.9594C114.577 32.9594 115.099 33.0622 115.579 33.2677C116.066 33.4733 116.492 33.7627 116.858 34.1358C117.223 34.5089 117.509 34.9429 117.714 35.4378C117.92 35.9327 118.023 36.4657 118.023 37.0368C118.023 37.6003 117.92 38.1295 117.714 38.6244C117.509 39.1193 117.223 39.5533 116.858 39.9264C116.5 40.2995 116.077 40.5927 115.59 40.8059C115.11 41.0115 114.593 41.1143 114.037 41.1143ZM114.014 40.0863C114.585 40.0863 115.084 39.9569 115.51 39.698C115.944 39.4315 116.287 39.0698 116.538 38.613C116.789 38.1485 116.915 37.6193 116.915 37.0254C116.915 36.5838 116.843 36.1802 116.698 35.8147C116.553 35.4416 116.352 35.118 116.093 34.8439C115.834 34.5698 115.529 34.3604 115.179 34.2157C114.829 34.0634 114.44 33.9873 114.014 33.9873C113.45 33.9873 112.952 34.1167 112.518 34.3756C112.091 34.6345 111.752 34.9924 111.501 35.4492C111.258 35.9061 111.136 36.4315 111.136 37.0254C111.136 37.467 111.204 37.8782 111.341 38.2589C111.486 38.632 111.684 38.9556 111.935 39.2297C112.194 39.4962 112.499 39.7056 112.849 39.8579C113.207 40.0102 113.595 40.0863 114.014 40.0863Z" fill="#0A2463"/>
<path d="M104.449 37.9163V36.9797H106.608C106.905 36.9797 107.167 36.9188 107.396 36.797C107.632 36.6751 107.815 36.5038 107.944 36.283C108.081 36.0622 108.15 35.7995 108.15 35.4949C108.15 35.1903 108.081 34.9277 107.944 34.7068C107.815 34.486 107.632 34.3147 107.396 34.1929C107.167 34.071 106.905 34.0101 106.608 34.0101H104.449V33.0736H106.676C107.164 33.0736 107.598 33.1726 107.978 33.3705C108.367 33.5685 108.671 33.8502 108.892 34.2157C109.12 34.5736 109.235 35 109.235 35.4949C109.235 35.9822 109.12 36.4086 108.892 36.7741C108.671 37.132 108.367 37.4137 107.978 37.6193C107.598 37.8173 107.164 37.9163 106.676 37.9163H104.449ZM103.73 41.0001V33.0736H104.803V41.0001H103.73Z" fill="#0A2463"/>
</svg>
