<svg width="151" height="34" viewBox="0 0 151 34" fill="none" xmlns="http://www.w3.org/2000/svg">
<path d="M150.989 -0.227478V33.7725H0.0393066V-0.227478H150.989ZM1.26099 32.5743H149.757V0.970764H1.26099V32.5743Z" fill="#0A2463"/>
<path d="M29.8108 30.2228H3.52563V3.24335H29.8108V30.2228ZM4.52759 17.2482C4.65678 20.3496 5.91437 23.288 8.05103 25.4807C10.1879 27.6734 13.0485 28.9602 16.0647 29.0861V24.0744C14.341 23.9546 12.7175 23.1973 11.4944 21.9426C10.2713 20.6879 9.53129 19.0205 9.4104 17.2482H4.52759ZM23.8079 17.2482C23.6836 19.021 22.9415 20.6883 21.717 21.9426C20.4926 23.1968 18.868 23.9537 17.1438 24.0744V29.0861C20.1603 28.9612 23.0214 27.6745 25.1584 25.4816C27.2954 23.2888 28.5526 20.35 28.6809 17.2482H23.8079ZM17.1438 9.32147C18.8664 9.44425 20.4886 10.2021 21.7112 11.4562C22.9337 12.7103 23.6753 14.3764 23.7991 16.1476H28.6721C28.5459 13.0466 27.2902 10.1073 25.1545 7.91425C23.0189 5.7213 20.1592 4.43402 17.1438 4.30878V9.32147ZM7.47192 13.7687L7.1311 15.6008L9.79517 14.6672L10.135 12.8439L7.47192 13.7687ZM5.19556 12.5099L6.25806 15.1779L7.38013 13.716L6.30884 11.0471L5.19556 12.5099ZM7.81567 12.7297L10.6252 12.7385L11.5247 11.1174L8.71606 11.1086L7.81567 12.7297ZM6.93384 9.12714L7.07935 11.9982L8.61353 11.0031L8.45923 8.12225L6.93384 9.12714ZM9.31567 10.2531L11.9875 11.1428L13.3411 9.89178L10.6604 8.99335L9.31567 10.2531ZM11.4651 8.39569L13.7434 10.0783L15.3967 9.30389L13.1096 7.61249L11.4651 8.39569ZM9.45239 6.61737L8.89478 9.43475L10.6174 8.86249L11.1741 6.02655L9.45239 6.61737ZM12.6135 4.96014L11.2532 7.47772L13.0686 7.46014L14.429 4.92499L12.6135 4.96014Z" fill="#0A2463"/>
<path d="M41.2429 21.1442H36.4314V18.2948H40.6721V15.1847H36.4314V12.6242H41.2622L41.0563 9.505H33.1174V24.2627H40.8468L41.2429 21.1442Z" fill="#0A2463"/>
<path d="M48.5434 24.4745C52.0446 24.4745 53.589 22.3343 53.589 18.0243V9.51422H50.5746V18.2459C50.5746 20.1713 50.0224 21.1435 48.5523 21.1435C47.0823 21.1435 46.5212 20.1613 46.5212 18.2459V9.51422H43.4896V18.0243C43.4896 22.3374 45.034 24.4745 48.5434 24.4745Z" fill="#0A2463"/>
<path d="M59.1615 18.2841H59.1987L63.1206 24.7725L66.4999 23.5786L63.1956 18.4377C64.5713 17.8698 66.3312 15.7228 65.0774 12.2764C63.7671 8.63746 58.4874 8.67568 55.8193 9.57147V24.2718H59.1519V18.2841H59.1615ZM59.1615 12.7006C59.7702 12.2482 62.1106 12.7679 62.1009 14.8285C62.0975 15.217 62.018 15.6007 61.867 15.9567C61.7161 16.3128 61.4968 16.6339 61.2224 16.9008C60.948 17.1677 60.624 17.3749 60.2699 17.51C59.9158 17.6451 59.5388 17.7053 59.1615 17.6871V12.7006Z" fill="#0A2463"/>
<path d="M72.3958 24.6097C76.0278 24.6097 78.0687 21.1924 78.0687 16.9175C78.0687 12.6426 76.0182 9.21606 72.3958 9.21606C68.7734 9.21606 66.7229 12.6334 66.7229 16.9175C66.7229 21.2015 68.7637 24.6097 72.3958 24.6097ZM72.3958 12.5279C74.3236 12.5279 75.0713 14.7231 75.0713 16.9175C75.0713 19.1119 74.3222 21.307 72.3958 21.307C70.4694 21.307 69.7202 19.1119 69.7202 16.9175C69.7202 14.7231 70.4597 12.5279 72.3958 12.5279Z" fill="#0A2463"/>
<path d="M83.0021 16.5422L85.9006 22.4146L88.7931 16.5422L89.0904 24.2535H92.3479L91.7912 9.4859H88.7991L85.9006 14.9639L83.0021 9.4859H80.007L79.4347 24.2535H82.7108L83.0021 16.5422Z" fill="#0A2463"/>
<path d="M97.1823 22.4727H102.2L102.743 24.2444H106.253L101.422 9.5249H98.0163L93.1854 24.2444H96.6398L97.1823 22.4727ZM99.6906 13.6064H99.7278L101.338 19.3825H98.0616L99.6906 13.6064Z" fill="#0A2463"/>
<path d="M110.737 21.2329C109.81 21.2329 108.93 20.4533 108.247 19.7891L106.375 22.5231C107.483 23.6808 108.981 24.3564 110.559 24.4102C113.152 24.4102 115.324 22.851 115.324 19.6714C115.332 19.1272 115.228 18.5875 115.02 18.0871C114.812 17.5868 114.504 17.137 114.116 16.7669C112.216 14.9088 109.745 14.8034 109.782 13.3496C109.766 13.1841 109.786 13.017 109.84 12.8602C109.893 12.7033 109.98 12.5606 110.094 12.4421C110.207 12.3236 110.344 12.2322 110.496 12.1744C110.648 12.1166 110.81 12.0937 110.971 12.1076C111.888 12.1076 112.778 12.8872 113.47 13.5514L115.343 10.8174C114.237 9.65597 112.738 8.97967 111.158 8.93024C108.575 8.93024 106.394 10.4803 106.394 13.6569C106.391 14.2402 106.511 14.8171 106.747 15.3475C106.983 15.8779 107.329 16.349 107.76 16.7279C109.633 18.4416 111.973 18.5761 111.922 19.9916C111.938 20.1571 111.918 20.3241 111.865 20.4809C111.811 20.6377 111.724 20.7803 111.61 20.8988C111.497 21.0173 111.36 21.1087 111.208 21.1666C111.056 21.2244 110.894 21.2473 110.733 21.2337" fill="#0A2463"/>
<path d="M119.49 24.2627H122.85V12.5952H125.481L125.837 9.505H116.55L116.213 12.5952H119.489L119.49 24.2627Z" fill="#0A2463"/>
<path d="M140.243 18.2841H140.28L144.202 24.7725L147.581 23.5786L144.277 18.4377C145.653 17.8698 147.413 15.7228 146.158 12.2764C144.848 8.63746 139.568 8.67568 136.91 9.57147V24.2718H140.242L140.243 18.2841ZM140.243 12.7006C140.842 12.2482 143.201 12.7679 143.182 14.8285C143.179 15.217 143.1 15.6008 142.949 15.957C142.798 16.3131 142.579 16.6343 142.304 16.9013C142.03 17.1682 141.706 17.3755 141.351 17.5107C140.997 17.6458 140.62 17.7061 140.243 17.6879V12.7006Z" fill="#0A2463"/>
<path d="M135.272 21.1442H130.45V18.2948H134.7V15.1847H130.45V12.6242H135.281L135.085 9.505H127.147V24.2627H134.869L135.272 21.1442Z" fill="#0A2463"/>
</svg>
