<svg width="118" height="26" viewBox="0 0 118 26" fill="none" xmlns="http://www.w3.org/2000/svg">
<path d="M-0.00231934 12.6583C-0.00231934 8.80531 -0.00231934 4.94239 -0.00231934 1.07948C-0.00231934 0.316798 0.0492586 0.267273 0.843559 0.267273C6.83691 0.267273 12.8406 0.267273 18.8339 0.267273C19.5973 0.267273 19.6695 0.336607 19.6695 1.04976C19.6695 2.23835 19.6695 3.42694 19.6695 4.61553C19.6695 5.23954 19.5663 5.32868 18.9165 5.32868C14.6871 5.32868 10.4577 5.32868 6.23861 5.32868C5.29989 5.32868 5.1761 5.45745 5.1761 6.35879C5.1761 12.2918 5.1761 18.2348 5.1761 24.1678C5.1761 25.0395 5.16579 25.0494 4.2477 25.0494C3.08204 25.0494 1.90606 25.0494 0.740403 25.0494C0.0802053 25.0494 -0.00231934 24.98 -0.00231934 24.3362C-0.00231934 20.4436 -0.00231934 16.5509 -0.00231934 12.6583Z" fill="#0A2463"/>
<path d="M107.858 16.1547C107.858 15.0355 107.858 13.9162 107.858 12.787C107.858 12.3413 108.054 12.163 108.508 12.1729C109.849 12.1828 111.19 12.1729 112.531 12.1729C113.119 12.1729 113.233 12.2819 113.233 12.8366C113.233 14.4412 113.233 16.0359 113.233 17.6404C113.233 19.3243 114.192 20.2454 115.936 20.2553C116.451 20.2553 116.967 20.2553 117.483 20.2553C117.823 20.2553 117.988 20.4138 117.988 20.7407C117.988 22.0085 117.988 23.2763 117.988 24.5541C117.988 24.9107 117.792 25.0592 117.442 25.0592C116.121 25.0592 114.79 25.1088 113.47 25.0196C110.417 24.8017 107.931 22.2264 107.858 19.2748C107.838 18.2347 107.858 17.1947 107.858 16.1547Z" fill="#0A2463"/>
<path d="M117.988 6.17034C117.988 5.60576 117.895 5.51662 117.286 5.51662C116.224 5.51662 115.151 5.51662 114.088 5.51662C113.408 5.51662 113.222 5.33833 113.222 4.69451C113.222 3.45639 113.222 2.21828 113.222 0.980165C113.222 0.375966 113.129 0.276917 112.51 0.276917C111.19 0.276917 109.859 0.276917 108.539 0.276917C107.93 0.276917 107.858 0.356156 107.848 0.940546C107.848 2.19847 107.848 3.44649 107.848 4.70441C107.848 5.31852 107.641 5.50671 107.012 5.51662C106.104 5.51662 105.186 5.51662 104.278 5.51662C100.369 5.53643 97.3566 7.66598 96.1806 11.2516C96.1084 11.4794 96.0671 11.7666 95.7267 11.7666C95.3863 11.7666 95.3451 11.4794 95.2625 11.2516C94.8809 10.1818 94.3548 9.19134 93.6017 8.3098C90.2904 4.4667 83.3893 4.20917 79.5313 7.78484C79.294 8.00275 79.0774 8.23056 78.8401 8.45838C78.737 8.56733 78.6235 8.69609 78.4481 8.58714C78.3037 8.48809 78.3759 8.34942 78.4172 8.23056C78.4791 8.07208 78.541 7.92351 78.6029 7.76503C79.5313 5.54633 80.4597 3.32763 81.3881 1.10893C81.646 0.48492 81.5222 0.296726 80.8104 0.296726C79.4178 0.296726 78.0252 0.316536 76.6326 0.286821C76.0652 0.276917 75.7764 0.455205 75.5701 0.980165C73.7339 5.62557 71.8771 10.2512 70.0203 14.8867C69.9481 15.055 69.8965 15.2333 69.7933 15.3819C69.5355 15.7583 69.0197 15.7484 68.7721 15.372C68.669 15.2234 68.6174 15.0451 68.5452 14.8768C66.6368 10.2215 64.7284 5.57605 62.8406 0.920736C62.655 0.46511 62.4074 0.286821 61.8916 0.296726C60.4474 0.326441 59.0032 0.296726 57.5591 0.306631C56.7854 0.306631 56.6513 0.48492 56.9298 1.15845C60.138 8.95362 63.3564 16.7389 66.5543 24.5341C66.7193 24.9402 66.9669 25.0788 67.4001 25.0689C68.5864 25.0491 69.7727 25.0392 70.959 25.0689C71.4748 25.0788 71.7224 24.9005 71.8977 24.435C73.1356 21.3051 74.3941 18.185 75.6526 15.055C75.7042 14.9164 75.7558 14.7777 75.8177 14.639C75.8899 14.4905 75.9208 14.2726 76.1374 14.3122C76.3953 14.3518 76.3128 14.5895 76.3231 14.7678C76.3231 14.9362 76.3231 15.0947 76.3231 15.2631C76.3231 16.7191 76.5501 18.1355 77.1793 19.4528C79.0052 23.286 82.2339 25.059 86.5149 25.1977C89.5271 25.2967 92.1575 24.3657 94.2826 22.2559C94.6849 21.8498 94.6849 21.6814 94.2619 21.315C93.612 20.7504 92.9312 20.2254 92.2916 19.641C91.8997 19.2844 91.6005 19.2944 91.1879 19.6311C90.0119 20.5919 88.6296 21.0772 87.0823 21.1367C84.6272 21.2258 82.7497 20.1165 81.9554 18.0661C81.6356 17.2539 81.842 16.9568 82.7497 16.9568C86.7728 16.9568 90.7959 16.9568 94.819 16.9568C95.6236 16.9568 95.7783 17.1153 95.7783 17.8879C95.7783 20.0372 95.7783 22.1767 95.7783 24.326C95.7783 25.0491 95.7783 25.0491 96.5107 25.0491C97.7692 25.0491 99.0174 25.0491 100.276 25.0491C100.977 25.0491 100.988 25.0392 100.988 24.3558C100.988 21.0079 100.988 17.66 100.988 14.3122C100.988 11.8756 102.731 10.2016 105.258 10.1917C107.198 10.1917 109.147 10.1917 111.087 10.1917C113.15 10.1917 115.213 10.1917 117.276 10.1917C117.885 10.1917 117.977 10.1026 117.977 9.53801C117.977 8.41876 117.977 7.2995 117.977 6.17034H117.988ZM89.8468 13.391C88.6812 13.391 87.5052 13.391 86.3395 13.391C85.1223 13.391 83.8948 13.391 82.6775 13.391C82.0483 13.391 81.8213 13.084 81.9864 12.5293C82.5434 10.687 84.2558 9.41915 86.2158 9.37953C88.3098 9.33991 89.9397 10.4394 90.6102 12.3312C90.8784 13.1038 90.6721 13.391 89.8365 13.391H89.8468Z" fill="#0A2463"/>
<path d="M52.3079 9.885C52.3079 8.62708 52.3079 7.37906 52.3079 6.12114C52.3079 5.78437 52.2357 5.51694 51.8128 5.51694C50.348 5.51694 48.8935 5.51694 47.4286 5.51694C47.0882 5.51694 46.9335 5.70513 46.9335 6.02209C46.9335 6.19047 46.9335 6.34895 46.9335 6.51733C46.9335 9.93453 46.9335 13.3418 46.9335 16.759C46.9335 18.3339 46.0154 19.681 44.5816 20.2356C42.178 21.1865 39.5475 19.5126 39.496 16.9571C39.4547 15.194 39.496 13.431 39.496 11.658C39.496 9.8751 39.496 8.09221 39.496 6.30933C39.496 5.55656 39.4341 5.50703 38.6398 5.50703C37.4019 5.50703 36.164 5.50703 34.9262 5.50703C34.1834 5.50703 34.1215 5.56646 34.1215 6.2598C34.1215 7.81488 34.1215 9.36004 34.1215 10.9151C34.1215 11.2222 34.2556 11.658 33.7708 11.7273C33.3272 11.7867 33.3169 11.3509 33.2035 11.0736C32.3369 8.89451 30.9237 7.17106 28.6852 6.15085C24.0123 4.0411 18.6688 5.59618 16.0383 9.85529C15.8011 10.2317 15.5432 10.3703 15.0996 10.3703C12.758 10.3505 10.4266 10.3604 8.08501 10.3703C7.45576 10.3703 7.36292 10.4595 7.36292 11.0637C7.36292 12.1235 7.36292 13.1734 7.36292 14.2333C7.36292 14.9068 7.44544 14.9959 8.17785 14.9959C10.0347 14.9959 11.8915 15.0058 13.7483 14.9959C14.264 14.9959 14.5322 15.1247 14.5116 15.6596C14.5013 15.8874 14.5322 16.1251 14.5632 16.3529C15.1202 20.3644 17.2143 23.3161 21.258 24.6136C25.3946 25.9508 29.232 25.3169 32.4504 22.2761C32.8424 21.8997 32.8321 21.7313 32.4298 21.3747C31.7696 20.8002 31.0784 20.2455 30.4286 19.6612C30.0572 19.3244 29.7684 19.3145 29.3661 19.6413C27.8394 20.8894 26.0444 21.3252 24.0742 21.0776C22.1658 20.8398 20.8454 19.8593 20.1336 18.1457C19.7622 17.2543 19.9686 16.9571 20.9795 16.9571C25.0541 16.9571 29.1288 16.9571 33.2035 16.9571C34.0287 16.9571 34.1319 17.0463 34.2763 17.8287C35.1531 22.5633 39.9189 25.723 44.8394 24.8513C49.1307 24.0887 52.2873 20.4337 52.3286 16.1647C52.3492 14.0748 52.3286 11.9749 52.3286 9.885H52.3079ZM27.7878 13.3913C26.6015 13.3913 25.4152 13.3913 24.2289 13.3913C23.0426 13.3913 21.8563 13.3913 20.67 13.3913C19.9273 13.3913 19.721 13.0744 19.9582 12.4108C20.6597 10.4892 22.2999 9.36995 24.3733 9.37985C26.323 9.39966 27.9219 10.5387 28.5408 12.3612C28.7884 13.0942 28.5821 13.3913 27.7775 13.3913H27.7878Z" fill="#0A2463"/>
</svg>
