<svg width="204" height="34" viewBox="0 0 204 34" fill="none" xmlns="http://www.w3.org/2000/svg">
<path d="M35.8165 33.6312H46.9856C47.1507 29.6147 47.5358 21.9669 48.8013 18.5557C50.2318 14.7593 52.8178 12.0633 56.8893 11.6231C57.6046 11.5681 58.3198 11.6231 58.9801 11.6231C58.705 11.6231 57.3295 11.0179 56.8343 10.9079C54.3033 10.0826 51.5523 9.91751 48.9113 10.5227C40.3832 12.7235 36.5868 25.5433 35.8165 33.6312Z" fill="#0A2463"/>
<path d="M176.394 8.53928C170.507 8.97945 167.315 12.4457 166.6 18.1128C165.775 24.8253 169.296 28.3466 175.899 27.8514C181.676 27.4662 184.977 23.8349 185.637 18.2779C186.463 11.6754 182.886 7.98908 176.394 8.53928ZM180.52 17.6176C180.19 20.5887 178.815 23.2297 176.504 23.9449C173.093 24.9903 171.387 22.3494 171.827 18.663C172.157 15.7469 173.588 13.106 175.954 12.3907C179.53 11.2903 180.906 14.4264 180.52 17.6176ZM185.747 27.6313H190.754L192.185 21.1389C195.156 21.1389 197.742 21.1389 199.943 19.8184C202.033 18.553 203.189 16.2421 203.024 13.8212C202.969 10.9052 201.208 9.63969 198.622 9.19953C195.651 8.92443 192.735 8.81439 189.764 8.92443L185.747 27.6313ZM194 12.3907C196.311 12.2256 198.622 12.3907 197.962 15.3068C197.467 17.3425 195.266 17.4526 192.955 17.4526L194 12.3907ZM135.184 23.1747L133.973 26.971C137.549 27.8514 140.465 28.4016 144.262 27.3012C147.453 26.6409 149.544 23.5048 148.829 20.2586V20.2036C148.113 16.6273 143.822 16.4072 142.226 15.0317C141.621 14.5915 141.456 13.7662 141.896 13.161C141.896 13.106 141.951 13.106 141.951 13.0509C142.556 12.5007 143.327 12.2256 144.152 12.2256C145.968 12.0606 147.783 12.3357 149.434 12.9959L150.644 9.19953C147.343 7.93406 139.475 7.43888 137.164 11.7855C136.394 13.326 136.284 15.0867 136.889 16.6823C138.32 19.5983 143.437 19.3783 143.712 21.6341C144.042 24.3301 139.42 24.22 137.384 23.7799C136.614 23.7799 135.899 23.5048 135.184 23.1747ZM152.24 12.5558H156.862L153.67 27.6313H158.732L161.978 12.5558H166.6L167.426 8.81439H153.01L152.24 12.5558Z" fill="#0A2463"/>
<path d="M85.1707 27.6314H90.2326C90.7278 25.1554 91.278 22.6795 91.7181 20.2036C94.3591 20.2036 94.5792 20.0936 95.0744 22.5145C95.4045 24.1101 95.8447 26.0358 96.1198 27.6314H101.182C100.907 26.0358 100.411 24.1651 100.026 22.5695C99.8612 21.3591 99.476 20.2036 98.7608 19.1582C98.3206 18.7181 98.2656 18.7731 97.7704 18.443C99.6411 18.388 101.402 17.5076 102.502 15.9671C103.438 14.2064 103.272 12.0606 102.062 10.4651C100.741 9.14457 98.7608 8.97951 96.4499 8.92449C94.6893 8.92449 89.2972 8.81445 89.2972 8.81445L85.1707 27.6314ZM93.2037 12.3908C95.2395 12.3908 98.4857 12.0056 97.8254 14.8667C97.3302 16.8474 94.5242 16.5723 92.4334 16.6273L93.2037 12.3908ZM103.988 23.1747L102.777 26.9711C106.354 27.8514 109.27 28.4016 113.066 27.3012C115.927 26.4759 118.458 24.055 117.633 20.2036C116.918 16.6273 112.626 16.4072 111.03 15.0317C110.425 14.5916 110.26 13.7663 110.7 13.161C110.7 13.106 110.755 13.106 110.755 13.051C111.36 12.5008 112.131 12.2257 112.901 12.2257C114.717 12.0606 116.532 12.3357 118.183 12.996L119.393 9.19959C116.092 7.93412 108.224 7.43894 105.913 11.7855C105.088 13.3261 105.033 15.1418 105.693 16.7374C107.124 19.6534 112.241 19.4333 112.516 21.6892C112.846 24.3852 108.224 24.2751 106.189 23.835C105.473 23.7799 104.758 23.5599 103.988 23.1747ZM61.2368 27.6314H66.3537C66.5738 26.3659 66.8489 25.0454 67.124 23.7799L67.9493 20.0936H75.212L75.9273 16.5173H68.6096L69.5449 12.5008L77.1377 12.3908L77.908 8.86947H65.3083L61.2368 27.6314ZM121.099 12.5558H125.721L122.53 27.5763H127.591L130.838 12.5008H135.459L136.285 8.75943H121.814L121.099 12.5558ZM76.4775 27.6314H81.5394L85.3908 8.75943H80.3289L76.4775 27.6314Z" fill="#0A2463"/>
<path d="M0.988403 33.6311H14.3584C14.7985 32.8058 15.3487 31.1002 15.6789 30.2198C17.5496 25.8732 19.9154 21.7467 22.7215 17.9503C23.9319 16.3548 25.2524 14.8692 26.6279 13.4387C31.0296 8.87201 36.5866 5.62581 42.6939 4.03023C46.9305 2.98484 51.3321 2.98484 55.5137 4.03023C56.8342 4.36035 58.2097 5.02059 59.5302 5.35071C58.2647 4.36035 56.8342 3.53505 55.3486 2.92982C50.6719 0.673995 45.4449 -0.316368 40.273 -0.0412672C30.8645 0.508935 22.1163 6.28606 16.174 12.3933L11.8274 17.125C10.5069 18.7206 7.7009 22.352 6.60049 24.0576C5.28 26.1483 4.45469 27.2488 3.02416 29.6696C2.30889 30.9901 1.59363 32.2556 0.988403 33.6311Z" fill="#0A2463"/>
</svg>
