<svg width="151" height="26" viewBox="0 0 151 26" fill="none" xmlns="http://www.w3.org/2000/svg">
<path d="M8.31413 9.5984C8.13831 10.8244 7.97314 11.9763 7.80797 13.1336C7.51493 15.1945 7.2219 17.2606 6.93419 19.3215C6.69443 21.0283 6.44934 22.7352 6.20958 24.442C6.1563 24.8013 6.16696 24.8066 5.80466 24.8066C3.95052 24.8066 2.09106 24.8066 0.23693 24.8066C0.039795 24.8066 -0.0241406 24.7855 0.00782717 24.553C0.450049 21.6043 0.876286 18.6557 1.31318 15.707C1.75007 12.7584 2.19229 9.80977 2.62919 6.86114C2.9169 4.93237 3.19928 2.99832 3.48166 1.06955C3.50297 0.942725 3.51896 0.86346 3.6788 0.868745C5.11735 0.90045 6.5559 0.810617 7.98912 0.932156C9.12398 1.02727 10.0084 1.51343 10.6691 2.46989C13.6794 6.84 16.711 11.1995 19.7373 15.5591C19.8119 15.6648 19.8865 15.7705 20.0037 15.9343C20.0783 15.4058 20.1529 14.9355 20.2168 14.4652C20.5685 11.9922 20.9148 9.51914 21.2664 7.04609C21.5435 5.09618 21.8152 3.14628 22.0869 1.19637C22.1402 0.800049 22.1349 0.800049 22.5398 0.800049C24.378 0.800049 26.2161 0.800049 28.0543 0.800049C28.278 0.800049 28.3207 0.842323 28.2887 1.07483C27.8944 3.72755 27.5215 6.38026 27.1378 9.03827C26.7223 11.9341 26.296 14.8351 25.8804 17.7309C25.5554 20.0032 25.2251 22.2754 24.9054 24.5477C24.8788 24.7326 24.8308 24.8119 24.6177 24.8119C23.2751 24.8013 21.9377 24.8119 20.5951 24.8013C19.4016 24.7908 18.4692 24.3469 17.7713 23.327C14.6864 18.8036 11.5642 14.312 8.45266 9.80449C8.42069 9.75693 8.38339 9.70409 8.3088 9.60369L8.31413 9.5984Z" fill="#0A2463"/>
<path d="M94.3129 3.7804C95.1814 3.7804 96.0552 3.7804 96.9237 3.7804C97.1048 3.7804 97.1634 3.8121 97.1368 4.0129C96.7958 6.39084 96.4654 8.76349 96.1298 11.1414C95.9273 12.6052 95.7142 14.0636 95.5277 15.5327C95.4212 16.357 95.4212 17.1814 95.6023 17.9952C95.8687 19.1894 96.5827 19.9662 97.7921 20.241C98.927 20.4946 100.067 20.4893 101.17 20.0772C102.571 19.554 103.328 18.4549 103.807 17.118C104.18 16.0717 104.292 14.9778 104.441 13.8945C104.761 11.6593 105.07 9.41874 105.384 7.18348C105.534 6.13191 105.683 5.07505 105.821 4.02347C105.843 3.84909 105.885 3.78568 106.077 3.78568C107.846 3.79096 109.61 3.79096 111.378 3.78568C111.533 3.78568 111.592 3.79625 111.565 3.9812C111.176 6.67091 110.803 9.36061 110.403 12.045C110.169 13.625 110.014 15.2209 109.668 16.785C109.263 18.6293 108.555 20.3361 107.308 21.7946C105.901 23.4433 104.09 24.4156 101.991 24.8753C99.545 25.409 97.0941 25.4249 94.6646 24.8119C93.1195 24.4209 91.7981 23.6599 90.8658 22.3283C90.1731 21.3454 89.8375 20.2357 89.6936 19.0573C89.5124 17.583 89.6563 16.1245 89.8748 14.6713C90.1571 12.7426 90.4289 10.8085 90.7059 8.87446C90.9403 7.23632 91.1748 5.60348 91.4039 3.96535C91.4252 3.79625 91.5158 3.7804 91.6543 3.7804C92.5441 3.7804 93.4285 3.7804 94.3183 3.7804H94.3129Z" fill="#0A2463"/>
<path d="M114.724 8.85858C114.208 8.85858 113.707 8.85329 113.201 8.85858C113.03 8.85858 112.993 8.82159 113.02 8.65778C113.163 7.65904 113.297 6.65503 113.43 5.65101C113.446 5.52419 113.504 5.45021 113.611 5.3868C114.357 4.90593 115.092 4.41977 115.838 3.94418C116.009 3.8385 116.136 3.70639 116.238 3.53201C116.85 2.50157 117.468 1.4817 118.081 0.451265C118.156 0.319157 118.236 0.266314 118.39 0.271599C119.413 0.276883 120.431 0.276883 121.454 0.271599C121.614 0.271599 121.667 0.29802 121.64 0.477686C121.496 1.48699 121.379 2.50157 121.235 3.51087C121.203 3.7381 121.267 3.78566 121.491 3.78566C123.926 3.77509 126.355 3.78566 128.79 3.77509C129.067 3.77509 129.099 3.84907 129.062 4.09214C128.822 5.61931 128.593 7.15175 128.38 8.6842C128.348 8.89557 128.231 8.85858 128.103 8.85858C125.652 8.85858 123.201 8.85858 120.75 8.85858C120.521 8.85858 120.447 8.90614 120.409 9.14921C120.106 11.3263 119.781 13.4982 119.466 15.6753C119.381 16.2566 119.259 16.8379 119.259 17.4297C119.259 18.7666 119.818 19.4589 121.139 19.7495C122.162 19.9715 123.196 19.9662 124.235 19.9133C125.093 19.8711 125.95 19.7812 126.803 19.6808C126.979 19.6597 126.989 19.7072 126.968 19.8552C126.734 21.4299 126.505 23.0046 126.275 24.5794C126.254 24.7379 126.212 24.8224 126.009 24.8383C124.224 25.0021 122.434 25.1289 120.644 25.0708C119.152 25.0232 117.671 24.8911 116.259 24.3521C114.447 23.6652 113.504 22.3494 113.334 20.447C113.233 19.3162 113.371 18.2012 113.531 17.0862C113.824 15.0676 114.117 13.049 114.41 11.0304C114.511 10.317 114.618 9.60366 114.724 8.86386V8.85858Z" fill="#0A2463"/>
<path d="M58.9135 7.33144C59.2172 6.97211 59.5049 6.60749 59.8086 6.26401C60.2562 5.75143 60.7357 5.26528 61.2792 4.8531C62.2222 4.13972 63.3038 3.82267 64.4706 3.74869C65.1686 3.70113 65.8719 3.71698 66.5698 3.76454C66.7297 3.77511 66.7989 3.8121 66.7723 3.99705C66.5059 5.77257 66.2502 7.54281 65.9997 9.32362C65.9731 9.51385 65.9092 9.54027 65.7333 9.5297C64.6251 9.45572 63.5169 9.43987 62.4193 9.62482C60.4533 9.95245 59.3025 11.1256 58.8443 13.0173C58.6098 13.9949 58.5139 14.9937 58.3648 15.9818C58.077 17.9106 57.8107 19.8446 57.5336 21.7787C57.4004 22.7087 57.2619 23.6388 57.1393 24.5741C57.1127 24.759 57.0541 24.8172 56.8623 24.8172C55.1147 24.8066 53.3671 24.8066 51.6142 24.8172C51.4011 24.8172 51.3745 24.7643 51.4011 24.5635C51.6995 22.5185 51.9925 20.4735 52.2855 18.4285C52.5786 16.3834 52.8716 14.3384 53.1593 12.2934C53.4524 10.2378 53.7454 8.18749 54.0438 6.1319C54.145 5.40796 54.2569 4.68929 54.3528 3.96534C54.3741 3.8121 54.4327 3.78568 54.5712 3.78568C55.9192 3.78568 57.2725 3.79096 58.6205 3.78568C58.807 3.78568 58.8336 3.84909 58.8336 4.0129C58.8336 5.04334 58.8549 6.07378 58.8656 7.09893C58.8656 7.17291 58.8389 7.25217 58.9082 7.34201L58.9135 7.33144Z" fill="#0A2463"/>
<path d="M88.0201 5.27586C85.8517 4.23485 83.5606 3.69057 81.1684 3.53204C79.2503 3.40521 77.3429 3.46863 75.4621 3.9495C73.0006 4.57304 70.8108 5.6986 69.1005 7.57452C66.1222 10.8455 65.2058 14.7347 66.0103 18.9992C66.5378 21.8104 68.2427 23.7656 71.0079 24.6904C73.0699 25.3773 75.1584 25.3403 77.2363 24.7168C78.5257 24.331 79.6712 23.6811 80.6462 22.751L80.7475 22.7774C80.7475 23.3746 80.7528 23.9717 80.7475 24.5688C80.7475 24.7485 80.7901 24.8119 80.9819 24.8119C82.4471 24.8066 83.9123 24.8066 85.3775 24.8119C85.5533 24.8119 85.6012 24.7538 85.6226 24.5952C85.6812 24.0985 85.7558 23.6018 85.825 23.1051C86.0861 21.2397 86.3472 19.3796 86.6082 17.5143C86.8693 15.6701 87.125 13.8258 87.3861 11.9763C87.6791 9.88905 87.9669 7.79646 88.2652 5.70917C88.2972 5.48194 88.2439 5.38154 88.0255 5.27586H88.0201ZM82.0049 9.52443C81.7331 11.4004 81.4774 13.2816 81.2163 15.1628C81.0245 16.5578 80.8221 17.9476 80.6409 19.3426C80.6196 19.5012 80.5237 19.5382 80.4118 19.591C79.3409 20.0772 78.2113 20.241 77.0498 20.241C76.0002 20.2515 74.9773 20.13 74.0289 19.6544C72.8088 19.0467 72.1268 18.0321 71.9243 16.7269C71.6366 14.8457 71.9137 13.0438 72.9633 11.4162C73.933 9.91018 75.3662 9.08583 77.1085 8.77934C78.6802 8.49928 80.2306 8.61025 81.7491 9.11754C81.9729 9.19152 82.0422 9.28135 82.0049 9.52971V9.52443Z" fill="#0A2463"/>
<path d="M150.9 11.0727C150.644 9.13337 149.866 7.42654 148.476 6.02092C146.851 4.38279 144.831 3.53201 142.556 3.32593C138.502 2.95603 134.964 4.1767 132.092 7.03022C129.13 9.97357 127.958 13.5933 128.48 17.7045C128.799 20.204 130.067 22.1909 132.199 23.5965C133.984 24.7749 135.976 25.2399 138.342 25.2399C138.592 25.2505 139.077 25.2188 139.562 25.1659C139.924 25.1236 140.287 25.0761 140.638 25.0021C147.756 23.5595 151.699 17.1232 150.894 11.0674L150.9 11.0727ZM143.281 18.1431C142.002 19.5064 140.382 20.0877 138.518 20.0137C135.96 19.9133 134.229 18.1114 134.202 15.5274C134.202 15.464 134.202 15.4058 134.202 15.3424C134.261 13.3819 134.825 11.6064 136.275 10.2166C137.825 8.73176 139.69 8.18219 141.805 8.64721C143.606 9.04882 144.858 10.4122 145.082 12.2352C145.359 14.4546 144.842 16.4733 143.281 18.1431Z" fill="#0A2463"/>
<path d="M50.8571 10.9142C50.3137 7.67488 48.5554 5.34451 45.4919 4.06043C43.2914 3.14096 40.995 3.04584 38.6774 3.51614C32.0014 4.86364 27.6325 10.8983 28.437 17.4878C28.8526 20.9173 30.792 23.2794 34.042 24.5371C36.3171 25.4143 38.6667 25.4301 41.027 24.9175C46.7812 23.6599 50.985 18.476 50.9903 12.5364C50.9797 12.0503 50.9583 11.4796 50.8624 10.9142H50.8571ZM43.3021 18.1061C42.1725 19.3479 40.5741 20.0137 38.8479 20.0137C37.5319 20.0137 36.3437 19.6649 35.4007 18.7032C34.6281 17.9158 34.2605 16.9435 34.2072 15.8708C34.0953 13.7043 34.6707 11.7385 36.2745 10.2061C37.9741 8.58378 40.02 8.06064 42.2844 8.79515C43.9627 9.33944 44.8685 10.6235 45.0816 12.3198C45.3533 14.4863 44.8045 16.4574 43.3074 18.1061H43.3021Z" fill="#0A2463"/>
</svg>
