<svg width="137" height="34" viewBox="0 0 137 34" fill="none" xmlns="http://www.w3.org/2000/svg">
<path d="M121.714 -0.227478C131.076 -0.227478 137.828 7.41021 136.743 16.7725C135.659 26.1841 127.184 33.7725 117.822 33.7725C110.775 33.7725 105.207 29.4856 103.334 23.3262C99.2446 23.9666 95.7459 21.0101 96.2386 16.7725C96.6821 12.5348 100.773 9.62751 104.863 10.2188C108.115 4.10885 114.668 -0.22739 121.714 -0.227478ZM121.813 5.63678C117.378 5.63678 112.303 7.41086 111.367 12.2891C111.12 13.57 111.317 14.7031 111.957 15.5899C112.894 16.8711 114.766 17.7582 117.526 18.1524L121.616 18.6944C122.946 18.8915 123.734 19.1875 124.128 19.7296C124.375 20.0252 124.424 20.4683 124.326 20.961C124.079 22.3407 122.453 23.918 118.757 23.918C116.836 23.918 115.505 23.5232 114.717 22.6856C114.175 22.0943 113.928 21.2076 114.027 20.1729H109.199C108.854 21.9961 109.198 23.4742 110.184 24.7061C111.564 26.3813 114.126 27.2187 117.575 27.2188C124.374 27.2188 128.612 24.8048 129.401 20.4688C129.598 19.4833 129.647 18.0049 128.76 16.8223C127.972 15.6891 126.543 14.9989 124.474 14.7032L118.807 13.8653C117.723 13.7175 116.984 13.4222 116.639 12.9297C116.393 12.5848 116.343 12.1407 116.442 11.5987C116.787 9.87422 118.905 8.93762 120.778 8.93756C122.65 8.93756 123.931 9.28275 124.572 10.0215C125.064 10.5635 125.212 11.4015 125.114 12.3868H129.943C130.238 10.6132 129.894 9.13523 128.909 8.00201C127.578 6.47451 125.114 5.63681 121.813 5.63678ZM103.383 13.2247C101.363 13.2248 99.5396 14.8509 99.2933 16.8712C99.0471 18.8913 100.476 20.5176 102.496 20.5176C104.517 20.5176 106.34 18.8913 106.586 16.8712C106.833 14.8509 105.354 13.2247 103.383 13.2247Z" fill="#0A2463"/>
<path d="M109.345 2.72925C109.585 2.72925 109.405 2.86902 109.395 2.87671C107.03 4.79841 105.452 6.62182 104.073 8.88843C98.1105 8.74068 94.8579 13.6681 94.8577 17.5115C94.8577 22.439 98.8006 24.9034 102.398 24.7556C103.383 27.3176 104.91 29.4363 106.782 31.0623C106.93 31.1608 106.684 31.1609 106.684 31.1609H0.988525L5.177 8.14917C5.76841 4.50312 8.33058 2.72932 11.8782 2.72925H109.345ZM25.3801 10.7117C22.3745 10.7117 20.7482 11.9437 19.467 13.1755C19.6149 12.4857 19.7137 11.8449 19.7629 11.155H15.2786C15.2293 11.7956 15.1315 12.4364 14.9836 13.1755L12.3225 27.3669H16.9543L18.0383 21.7C18.7774 22.6854 20.157 23.7692 22.8176 23.7693C26.9075 23.7693 30.1605 21.3055 30.8997 17.3142C31.6879 13.126 29.2235 10.7117 25.3801 10.7117ZM42.6272 10.6619C36.3202 10.6619 33.6098 14.0621 33.0676 17.2156C32.3778 20.9605 34.2992 23.7692 40.2122 23.7693C46.273 23.7693 49.1311 20.6649 49.7717 17.2156C50.3136 14.2592 49.1309 10.662 42.6272 10.6619ZM83.0325 8.69116L82.5891 11.155H79.6331L79.0413 14.1609H81.9983L81.0618 19.3347C80.5197 22.2912 82.1458 23.6707 85.6936 23.6707C87.1718 23.6706 88.4533 23.425 88.8967 23.3757L89.4387 20.4187C88.6996 20.5173 88.0092 20.5671 87.5657 20.5671C85.7427 20.567 85.6939 19.6301 85.9895 17.9548L86.679 14.1609H90.6213L91.1633 11.2048H87.2209L88.009 7.01636L83.0325 8.69116ZM53.7141 11.155L51.4475 23.3259H56.0793L58.3459 11.155H53.7141ZM72.2415 10.613C70.0733 10.613 68.102 11.6481 66.5745 13.2742H66.5256C66.6734 12.5352 66.722 11.8452 66.8206 11.1062H62.3372C62.2879 11.9438 62.1402 12.8306 61.9924 13.6189L60.1692 23.2273H64.801L65.7864 17.8562C66.2792 15.1956 68.2007 13.7176 70.1223 13.7175C72.2412 13.7175 72.8325 15.0975 72.4875 17.0193L71.3547 23.2273H75.9866L77.2678 16.28C77.8591 13.1264 76.6761 10.6131 72.2415 10.613ZM42.1829 13.323C44.5479 13.323 45.1892 14.9984 44.7952 17.2156C44.3024 19.8763 42.2328 21.109 40.7053 21.1091C38.5372 21.1091 37.5519 19.6301 37.9954 17.2156C38.3404 15.2448 39.9659 13.3233 42.1829 13.323ZM23.1633 13.4216C25.5776 13.4711 26.3661 15.3437 25.9719 17.2654C25.5777 19.3841 23.8529 20.9118 21.7834 20.9119C19.6646 20.9119 18.4327 19.4333 18.8762 17.0681C19.2704 14.9 21.0445 13.4216 23.1633 13.4216ZM54.6008 6.52319L53.9104 9.87378H58.592L59.2815 6.52319H54.6008Z" fill="#0A2463"/>
</svg>
