<svg width="103" height="34" viewBox="0 0 103 34" fill="none" xmlns="http://www.w3.org/2000/svg">
<path d="M18.5413 23.6523L14.1875 12.5808C14.094 12.3238 14.0273 12.0934 13.9872 11.893C13.9471 11.6927 13.9204 11.4657 13.9104 11.2186C13.9104 10.5175 14.1408 9.92983 14.5982 9.45238C15.0556 8.97827 15.6266 8.74121 16.3077 8.74121C16.9387 8.74121 17.4529 8.93152 17.8569 9.31549C18.2609 9.69945 18.6014 10.3205 18.8786 11.1886L21.6031 19.8761L24.3142 10.8647C24.5212 10.1836 24.8183 9.6694 25.2123 9.3255C25.603 8.97827 26.0838 8.80799 26.6514 8.80799C27.3525 8.80799 27.9201 9.03169 28.3542 9.48243C28.7882 9.93317 29.0052 10.5241 29.0052 11.2553C29.0052 11.4924 28.9752 11.7461 28.9117 12.0132C28.8483 12.2803 28.7515 12.5775 28.6179 12.8947L24.4077 23.8126C24.0471 24.7408 23.6531 25.3818 23.2291 25.7324C22.805 26.083 22.2441 26.2599 21.5396 26.2599C20.8184 26.2599 20.2375 26.083 19.7967 25.7257C19.3627 25.3618 18.942 24.674 18.5413 23.6523Z" fill="#0A2463"/>
<path d="M30.324 19.021V12.3634C30.324 11.1347 30.531 10.2232 30.945 9.62889C31.359 9.03458 31.9867 8.73743 32.8348 8.73743C33.6728 8.73743 34.2938 9.03458 34.7012 9.62889C35.1085 10.2232 35.3122 11.1347 35.3122 12.3634V17.9993C35.3122 19.3315 35.5125 20.273 35.9165 20.8239C36.3205 21.3748 36.9749 21.6519 37.8831 21.6519C38.7912 21.6519 39.4456 21.3748 39.8496 20.8239C40.2536 20.273 40.454 19.3281 40.454 17.9993V12.3634C40.454 11.1347 40.6576 10.2232 41.065 9.62889C41.4723 9.03458 42.1067 8.73743 42.9614 8.73743C43.7995 8.73743 44.4172 9.03124 44.8211 9.61887C45.2218 10.2065 45.4255 11.1213 45.4255 12.36V19.0176C45.4255 21.3915 44.7811 23.2078 43.489 24.4599C42.1968 25.7153 40.3304 26.343 37.8831 26.343C35.4357 26.343 33.566 25.7153 32.2705 24.4599C30.9717 23.2112 30.324 21.3948 30.324 19.021Z" fill="#0A2463"/>
<path d="M48.9544 5.28541C48.9544 4.04671 49.1614 3.12854 49.5754 2.53089C49.9894 1.93324 50.6171 1.63275 51.4652 1.63275C52.2899 1.63275 52.9076 1.93324 53.3149 2.53757C53.7222 3.14189 53.9259 4.05673 53.9259 5.28541V22.4135C53.9259 23.6522 53.7256 24.567 53.3216 25.1613C52.9176 25.7556 52.2999 26.0528 51.4618 26.0528C50.6138 26.0528 49.9861 25.7523 49.5721 25.1546C49.1581 24.557 48.951 23.6422 48.951 22.4135V5.28541H48.9544Z" fill="#0A2463"/>
<path d="M56.5243 17.395C56.5243 14.764 57.3156 12.6238 58.8949 10.9844C60.4741 9.34175 62.5475 8.52374 65.1184 8.52374C66.7812 8.52374 68.1267 8.8209 69.1617 9.4152C70.1934 10.0095 70.711 10.7808 70.711 11.729C70.711 12.3367 70.514 12.8442 70.1233 13.2448C69.7327 13.6488 69.2352 13.8491 68.6375 13.8491C68.3805 13.8491 67.8563 13.7223 67.075 13.4685C66.2904 13.2148 65.6393 13.0879 65.1251 13.0879C64.0934 13.0879 63.2587 13.4752 62.6243 14.2498C61.9899 15.0244 61.6728 16.0394 61.6728 17.3015C61.6728 18.6136 61.9966 19.642 62.6477 20.3899C63.2988 21.1378 64.1869 21.5117 65.3121 21.5117C65.8596 21.5117 66.5107 21.3848 67.272 21.1311C68.0299 20.8773 68.524 20.7505 68.7511 20.7505C69.2986 20.7505 69.7594 20.9608 70.13 21.3782C70.5006 21.7955 70.6876 22.3097 70.6876 22.9207C70.6876 23.8389 70.1233 24.6235 68.9981 25.2745C67.873 25.9256 66.4807 26.2495 64.8179 26.2495C62.3606 26.2495 60.3673 25.4315 58.8314 23.7954C57.2922 22.1628 56.5243 20.0293 56.5243 17.395Z" fill="#0A2463"/>
<path d="M80.0953 8.40668C75.1305 8.40668 71.1072 12.4333 71.1072 17.3981C71.1072 22.3629 75.1305 26.3862 80.0953 26.3862C85.0601 26.3862 89.0834 22.3629 89.0834 17.3981C89.0834 12.4333 85.0601 8.40668 80.0953 8.40668ZM80.0953 21.7886C77.668 21.7886 75.7014 19.8221 75.7014 17.3947C75.7014 14.9674 77.668 13.0009 80.0953 13.0009C82.5226 13.0009 84.4892 14.9674 84.4892 17.3947C84.4892 19.8221 82.5226 21.7886 80.0953 21.7886Z" fill="#0A2463"/>
<path d="M51.0616 36.4399C43.7129 36.4399 36.6079 35.859 29.9436 34.7104C21.5397 33.2647 15.1058 31.2648 9.69026 28.4201C5.92406 26.4402 3.46001 24.4069 2.05103 22.0931C2.49175 22.614 2.9859 23.1214 3.52345 23.6056C6.79884 26.5537 11.3196 28.8341 17.7502 30.7773C26.8451 33.5252 36.9751 34.8707 48.7245 34.8907H48.9548C58.0765 34.8907 66.3134 34.0227 74.1429 32.2397C81.7888 30.4969 87.3981 28.31 91.7953 25.3518C95.3511 22.9612 97.2509 20.5572 97.7751 17.7894C98.4896 14.0199 96.5598 10.6376 91.8754 7.45243C90.3696 6.42741 88.7102 5.49922 86.8605 4.64783C90.4164 5.88652 93.8754 7.50585 96.9271 9.70946C100.222 12.0867 101.922 14.6008 102.119 17.3921C102.289 19.8194 101.274 22.063 99.0105 24.25C95.6583 27.4919 91.0107 29.9026 83.9424 32.0728C75.7422 34.5903 66.6673 35.9892 56.1934 36.3498C54.4672 36.4099 52.7411 36.4399 51.0616 36.4399Z" fill="#0A2463"/>
<path d="M51.9331 -2.8949C59.2818 -2.8949 66.3868 -2.31395 73.0511 -1.1654C81.4549 0.280308 87.8889 2.28025 93.3044 5.12492C97.0706 7.10483 99.5347 9.13817 100.944 11.452C100.503 10.9311 100.009 10.4236 99.4712 9.93948C96.1958 6.99131 91.6751 4.71091 85.2445 2.76772C76.1495 0.019882 66.0162 -1.32566 54.2702 -1.34235H54.0398C44.9182 -1.34235 36.6813 -0.474262 28.8518 1.30866C21.2058 3.05152 15.5966 5.23844 11.1994 8.19662C7.64354 10.5872 5.74375 12.9911 5.21956 15.759C4.50505 19.5285 6.43489 22.9107 11.1193 26.096C12.6251 27.121 14.2845 28.0492 16.1342 28.9006C12.5783 27.6619 9.1193 26.0425 6.06762 23.8389C2.7722 21.4617 1.07274 18.9476 0.875746 16.1563C0.705465 13.729 1.72047 11.4853 3.98419 9.29843C7.33637 6.05645 11.984 3.64583 19.0523 1.4756C27.2525 -1.04186 36.3274 -2.44082 46.8013 -2.80141C48.5274 -2.86485 50.2536 -2.8949 51.9331 -2.8949Z" fill="#0A2463"/>
</svg>
