<svg width="19" height="25" viewBox="0 0 19 25" fill="none" xmlns="http://www.w3.org/2000/svg">
<g id="Group 1216402459">
<path id="Vector" d="M12.1302 3.99146H5.6582V8.73891H12.1302V3.99146Z" fill="#162358"/>
<path id="Vector_2" d="M12.1305 8.66158H8.89453V24.7448H12.1305C12.1305 24.7448 14.7464 24.4929 14.7464 18.951C14.7464 13.409 12.1305 8.64221 12.1305 8.64221V8.66158Z" fill="#162358"/>
<path id="Vector_3" d="M5.65793 8.66158H8.89399V24.7448H5.65793C5.65793 24.7448 3.04199 24.4929 3.04199 18.951C3.04199 13.409 5.65793 8.64221 5.65793 8.64221V8.66158Z" fill="#162358"/>
<path id="Vector_4" d="M9.43648 2.48022H8.33203V4.96053H9.43648V2.48022Z" fill="#162358"/>
<path id="Vector_5" d="M9.86254 1.1239H7.9248V3.19728H9.86254V1.1239Z" fill="#162358"/>
<path id="Vector_6" d="M10.6574 0H7.11133V2.4028H10.6574V0Z" fill="#162358"/>
<path id="Vector_7" d="M11.3361 6.66599C11.3361 6.66599 14.6496 6.58848 15.134 7.73174C15.6184 8.87501 15.5797 9.32069 15.5797 9.90201C15.5797 10.4833 15.851 13.0993 16.7424 15.4439C16.7424 15.4439 18.9127 16.3353 18.9902 15.4439C19.0677 14.5526 18.7189 8.75874 17.44 6.58848C16.1611 4.41821 13.4869 3.97253 12.1305 3.97253C10.7741 3.97253 11.3361 6.66599 11.3361 6.66599Z" fill="#162358"/>
<path id="Vector_8" d="M6.82071 4.43713H3.06152V6.37487H6.82071V4.43713Z" fill="#162358"/>
<path id="Vector_9" d="M3.23596 4.7085H0V6.08429H3.23596V4.7085Z" fill="#162358"/>
</g>
</svg>
