<svg width="27" height="20" viewBox="0 0 27 20" fill="none" xmlns="http://www.w3.org/2000/svg">
<path id="Vector" fillRule="evenodd" ClipRule="evenodd" d="M25.8199 9.38054C23.0059 6.63718 20.1013 3.8938 17.3781 1.06194C16.6519 0.35398 15.8349 0 14.8364 0C10.9332 0 7.02989 0.0884956 3.12665 0C0.857323 0 0.131117 1.06196 0.0403436 3.00886C-0.0504295 7.61063 0.0403436 12.1239 0.0403436 16.7257C0.0403436 18.8496 1.31121 20 3.48976 20C6.75759 20 10.0254 20 13.384 20C16.7426 20 20.0105 20 23.3691 20C25.7292 20 27 18.7611 27 16.4602C27 14.9558 27 13.4513 27 11.9469C27 10.885 26.6368 10.0885 25.9107 9.38054H25.8199ZM2.12817 14.1593V11.5929C2.12817 11.4159 2.40044 11.2389 2.76353 11.1505V14.6018C2.40044 14.6018 2.12817 14.3363 2.12817 14.1593ZM4.48824 14.1593C4.48824 14.3363 4.21599 14.5133 3.76213 14.6018V11.1505C4.21599 11.1505 4.48824 11.4159 4.48824 11.5929V14.1593ZM21.5536 8.49558C21.3721 8.93806 20.9181 8.84956 20.4643 8.84956C17.5595 8.84956 14.6548 8.84956 11.7501 8.84956C8.84535 8.84956 6.4853 8.84956 3.85288 8.84956C1.7651 8.84956 1.6743 8.76107 1.6743 6.63717C1.6743 5.48673 1.6743 4.33629 1.6743 3.09735C1.6743 2.12389 2.12817 1.76991 3.0359 1.76991C6.84836 1.76991 10.6608 1.76991 14.3825 1.76991C15.0179 1.76991 15.4718 2.0354 15.9256 2.47788C17.5595 4.1593 19.2843 5.75222 21.009 7.43364C21.2813 7.69913 21.6444 7.96461 21.4629 8.40708L21.5536 8.49558Z" fill="#162358"/>
</svg>
