<svg width="24" height="17" viewBox="0 0 24 17" fill="none" xmlns="http://www.w3.org/2000/svg">
<path id="Vector" d="M21.7374 12.5926C20.9293 12.5926 20.1212 12.9861 19.7172 13.6945C19.7172 13.7732 11.4747 11.8843 11.4747 11.8843L12.0404 11.5695C12.1212 11.5695 12.8485 11.0972 13.6566 10.4676C15.7576 9.12964 19.3131 6.76853 20.3636 6.1389C20.7677 6.1389 20.8485 5.90279 20.9293 5.35186C21.0101 4.87964 21.1717 4.1713 22.0606 4.0926V1.88891C22.0606 1.8102 22.0606 1.65278 22.0606 1.65278C22.0606 1.65278 22.0606 1.65278 21.9798 1.65278V1.33797C22.2222 1.33797 22.4646 1.25928 22.6263 1.10187C22.7879 0.944463 22.8687 0.708338 22.8687 0.472227V0.157417C22.8687 0.157417 22.8687 0.0787037 22.8687 0C22.8687 0 22.8687 0 22.7879 0H22.3838V0.314834C22.3838 0.472241 22.303 0.550935 22.1414 0.550935H21.3333C21.1717 0.550935 21.0909 0.472241 21.0909 0.314834V0H19.8788V0.314834C19.8788 0.472241 19.798 0.550935 19.6364 0.550935H18.8283C18.6667 0.550935 18.5859 0.472241 18.5859 0.314834V0H18.2626H18.1818C18.1818 0 18.1818 9.60504e-06 18.1818 0.157417V0.472227C18.1818 0.708338 18.2626 0.944463 18.4242 1.10187C18.5859 1.25928 18.8283 1.33797 19.0707 1.33797V1.65278C18.9899 1.65278 18.9091 1.65278 18.9091 1.65278C18.9091 1.65278 18.9091 1.7315 18.9091 1.8102V2.20372C18.9899 2.20372 18.9899 2.20372 18.9899 2.20372C18.9899 2.43983 18.8283 2.51853 18.6667 2.59724L5.89898 10.3889C5.65656 10.3889 5.41414 10.3889 5.41414 10.3889H4.84849L4.36363 9.52315H3.79798C3.79798 9.60185 2.18182 6.76852 2.18182 6.76852L2.0202 6.45371L0.727268 7.16204L0.888882 7.39817L2.50504 10.2315L2.34343 10.3889H1.77778C0.646462 10.3889 0 11.0972 0 12.1991V15.0324C0 15.1111 0.0808056 15.2685 0.161614 15.2685H2.0202V15.4259C1.93939 15.5046 1.93939 15.662 1.93939 15.7407C1.93939 16.4491 2.50505 16.9213 3.15151 16.9213C3.79798 16.9213 4.36363 16.3704 4.36363 15.7407C4.36363 15.1111 4.36363 15.5046 4.36363 15.4259V15.2685H19.3939C19.7172 16.3704 20.6061 17 21.6566 17C22.7071 17 24 15.9769 24 14.7176C24 13.4583 22.9495 12.4352 21.6566 12.4352L21.7374 12.5926ZM19.7172 4.48612L19.9596 4.3287V4.56483C19.9596 4.87964 19.9596 5.27315 19.9596 5.50926C19.9596 5.58796 16.0808 7.79168 16.0808 7.79168L15.9192 7.55556C17.8586 5.98148 19.6364 4.56483 19.6364 4.56483L19.7172 4.48612ZM3.23232 16.6852C2.82828 16.6852 2.50504 16.3704 2.50504 15.9769C2.50504 15.5833 2.82828 15.2685 3.23232 15.2685C3.63636 15.2685 3.95959 15.5833 3.95959 15.9769C3.95959 16.3704 3.63636 16.6852 3.23232 16.6852ZM21.8182 16.213C21.0101 16.213 20.4444 15.5833 20.4444 14.875C20.4444 14.1667 21.0909 13.537 21.8182 13.537C22.5455 13.537 23.1919 14.1667 23.1919 14.875C23.1919 15.5833 22.5455 16.213 21.8182 16.213Z" fill="#162358"/>
</svg>
