<svg width="37" height="21" viewBox="0 0 37 21" fill="none" xmlns="http://www.w3.org/2000/svg">
<g id="Group 1216402428">
<path id="Vector" d="M14.9008 10.1625H13.5291C13.5291 9.68269 13.1548 9.61425 12.727 9.61425H11.9249C11.9249 9.61425 11.8714 9.61425 11.8179 9.61425C11.3901 8.76121 9.03724 7.85486 8.12816 7.85486C7.16562 7.85486 1.65771 7.85486 1.65771 7.85486C0.748636 7.85486 0 8.60127 0 9.50762V16.8651C0 17.8781 0.802104 18.7311 1.81813 18.7311H2.67375C3.68977 18.7311 4.54537 17.8781 4.54537 16.8651V15.2123C4.65232 15.3723 4.81274 15.4789 4.97316 15.4789C5.13359 15.4789 4.97315 15.4789 5.02662 15.4789C5.02662 15.4789 5.08011 15.4789 5.13358 15.4789C5.34748 15.4789 5.5079 15.2123 5.56137 14.8924C5.56137 14.7858 5.61487 14.6259 5.61487 14.5192C5.61487 14.4126 5.61487 14.2526 5.61487 14.146C6.73784 14.146 7.70038 14.146 8.0747 14.146C9.09073 14.146 11.5506 13.1863 11.8179 12.28C11.8179 12.28 11.8714 12.28 11.9249 12.28H12.727C13.1548 12.28 13.5291 11.9068 13.5291 11.4803V11.4194H14.9008C15.1147 11.4194 15.2829 11.4738 15.2829 11.2072C15.2829 10.9407 15.3975 10.1625 15.1301 10.1625H14.9008ZM3.155 14.0394V16.5452C3.155 16.9184 2.83416 17.2383 2.45983 17.2383H2.139C1.76467 17.2383 1.4438 16.9184 1.4438 16.5452V12.6532C1.4438 12.4399 1.55076 12.28 1.65771 12.1201H1.97855C2.35287 12.1201 2.67375 12.4399 2.67375 12.8131V14.1993L3.155 14.0394ZM9.67895 10.8938C9.62547 11.1604 9.03724 11.3736 8.39554 11.3736C7.75384 11.3736 7.16562 11.1604 7.05867 10.8938C7.05867 10.5739 7.64689 10.3607 8.39554 10.3607C9.14419 10.3607 9.73241 10.6272 9.73241 10.8938H9.67895Z" fill="#0A2463"/>
<path id="Vector_2" d="M25.8083 0C20.0294 0 15.3076 4.651 15.3076 10.5C15.3076 16.349 19.9589 21 25.8083 21C31.6576 21 36.3088 16.349 36.3088 10.5C36.3088 4.651 31.6576 0 25.8083 0ZM25.8083 18.3926C21.4389 18.3926 17.8447 14.8691 17.8447 10.4295C17.8447 5.98994 21.3684 2.46644 25.8083 2.46644C30.2481 2.46644 33.7718 5.98994 33.7718 10.4295C33.7718 14.8691 30.2481 18.3926 25.8083 18.3926ZM25.8083 2.81879C21.5798 2.81879 18.1266 6.2718 18.1266 10.5C18.1266 14.7282 21.5798 18.1812 25.8083 18.1812C30.0367 18.1812 33.4899 14.7282 33.4899 10.5C33.4899 6.2718 30.0367 2.81879 25.8083 2.81879ZM26.9358 3.80536C29.0501 4.15771 30.8119 5.49664 31.7986 7.32885L28.4862 8.3859C28.0634 7.89261 27.5701 7.46981 26.9358 7.2584V3.80536ZM24.6806 3.80536V7.2584C24.0463 7.46981 23.5531 7.89261 23.1302 8.3859L19.818 7.32885C20.8046 5.49664 22.5664 4.15771 24.6806 3.80536ZM19.0427 10.5C19.0427 10.1476 19.0428 9.86577 19.1132 9.51342L22.4255 10.5705C22.4255 11.2047 22.6369 11.8389 22.9893 12.4027L20.9455 15.2215C19.7475 14.0235 19.0427 12.3322 19.0427 10.5ZM25.8083 17.2651C24.7512 17.2651 23.694 16.9832 22.7778 16.5604L24.8216 13.7416C25.1035 13.8121 25.4559 13.8826 25.8083 13.8826C26.1606 13.8826 26.4425 13.8825 26.7948 13.7416L28.8386 16.5604C27.9224 16.9832 26.9359 17.2651 25.8083 17.2651ZM29.8957 15.8557C29.8252 15.8557 29.7547 15.9966 29.6138 16.0671L27.0767 12.6141L26.7244 12.755C26.4425 12.896 26.0901 12.9664 25.7377 12.9664C25.3854 12.9664 25.1035 12.9664 24.7512 12.755L24.3988 12.6141L21.8617 16.1376C21.7912 16.0671 21.6503 15.9966 21.5798 15.9262L24.1169 12.4027L23.9054 12.1208C23.4826 11.698 23.2711 11.0637 23.2711 10.5C23.2711 9.93623 23.2711 10.3591 23.2711 10.2886V9.93624L19.1837 8.59732C19.1837 8.45638 19.1837 8.38591 19.2541 8.24497L23.3417 9.51342L23.553 9.23154C23.9054 8.66778 24.4693 8.24496 25.1035 8.10402H25.4559V3.66444C25.5968 3.66444 25.6673 3.66444 25.8083 3.66444V7.9631H26.1606C26.7949 8.1745 27.3587 8.59731 27.711 9.16107L27.9225 9.44294L32.0099 8.10402C32.0099 8.24496 32.0099 8.31543 32.0804 8.45637L27.9929 9.86577V10.2181C27.9929 10.2886 27.9929 10.3591 27.9929 10.4295C27.9929 10.9933 27.7815 11.6275 27.3587 12.0503L27.1472 12.3322L29.6843 15.8557H29.8957ZM30.6005 15.2215L28.5567 12.4027C28.9091 11.8389 29.1205 11.2047 29.1205 10.5705L32.4328 9.51342C32.4328 9.86577 32.5033 10.1476 32.5033 10.5C32.5033 12.3322 31.7985 14.0235 30.6005 15.2215ZM27.5701 9.58389C27.0768 8.59731 25.8787 8.1745 24.8921 8.66779C23.9054 9.16108 23.4826 10.3591 23.9759 11.3456C24.4692 12.3322 25.6673 12.755 26.6539 12.2617C27.6406 11.7684 28.0634 10.5705 27.5701 9.58389ZM25.5968 8.73825C25.8082 8.66778 26.0196 8.73825 26.0901 8.87919C26.1606 9.0906 26.0901 9.30202 25.9492 9.37249C25.7378 9.44296 25.5264 9.37248 25.4559 9.23154C25.3854 9.02013 25.4559 8.80871 25.5968 8.73825ZM24.0464 10.2181C23.9759 10.0067 24.0464 9.79531 24.1873 9.72484C24.3988 9.65437 24.6101 9.72483 24.6806 9.86577C24.7511 10.0772 24.6806 10.2886 24.5397 10.3591C24.3283 10.4295 24.1169 10.3591 24.0464 10.2181ZM25.033 11.9799C24.8216 12.0503 24.6102 11.9799 24.5397 11.8389C24.4692 11.6275 24.5397 11.4161 24.6806 11.3456C24.892 11.2752 25.1035 11.3456 25.174 11.4866C25.2445 11.698 25.1739 11.9094 25.033 11.9799ZM26.0901 11.0638C25.7377 11.2047 25.3854 11.0638 25.2444 10.7819C25.1035 10.4295 25.2445 10.0772 25.5264 9.93624C25.8787 9.7953 26.2311 9.93624 26.372 10.2181C26.513 10.5705 26.372 10.9228 26.0901 11.0638ZM26.7948 11.9094C26.5834 11.9799 26.372 11.9094 26.3016 11.7685C26.2311 11.557 26.3015 11.3456 26.4425 11.2752C26.5834 11.2047 26.8654 11.2752 26.9358 11.4161C27.0063 11.6275 26.9358 11.8389 26.7948 11.9094ZM27.3587 10.4295C27.1472 10.5 26.9359 10.4295 26.8654 10.2886C26.7949 10.0772 26.8653 9.86576 27.0063 9.79529C27.2177 9.72482 27.4291 9.7953 27.4996 9.93624C27.57 10.1476 27.4996 10.3591 27.3587 10.4295Z" fill="#0A2463"/>
</g>
</svg>
