<svg width="25" height="25" viewBox="0 0 25 25" fill="none" xmlns="http://www.w3.org/2000/svg">
<path id="Icon awesome-star" d="M11.1621 0.869267L8.11106 7.33327L1.28406 8.37327C1.00254 8.42725 0.740979 8.55671 0.527325 8.74781C0.313671 8.93891 0.155955 9.18447 0.0710277 9.45825C-0.0138991 9.73203 -0.0228441 10.0237 0.0451484 10.3022C0.113141 10.5807 0.255516 10.8354 0.457059 11.0393L5.39606 16.0683L4.22806 23.1683C4.17096 23.447 4.19382 23.7362 4.294 24.0024C4.39417 24.2687 4.56758 24.5013 4.79423 24.6732C5.02087 24.8452 5.29152 24.9496 5.57494 24.9744C5.85836 24.9991 6.14301 24.9433 6.39606 24.8133L12.5031 21.4593L18.6101 24.8133C18.8631 24.9429 19.1477 24.9984 19.4309 24.9734C19.7141 24.9485 19.9846 24.8441 20.2111 24.6722C20.4376 24.5003 20.611 24.268 20.7113 24.0019C20.8116 23.7359 20.8347 23.4469 20.7781 23.1683L19.6101 16.0683L24.5491 11.0393C24.7506 10.8354 24.893 10.5807 24.961 10.3022C25.029 10.0237 25.02 9.73203 24.9351 9.45825C24.8502 9.18447 24.6924 8.93891 24.4788 8.74781C24.2651 8.55671 24.0036 8.42725 23.7221 8.37327L16.8951 7.33327L13.8441 0.869267C13.7283 0.6104 13.5401 0.390575 13.3021 0.236326C13.0642 0.0820779 12.7866 0 12.5031 0C12.2195 0 11.942 0.0820779 11.704 0.236326C11.4661 0.390575 11.2778 0.6104 11.1621 0.869267Z" fill="#FB3640"/>
</svg>
