<svg width="99" height="94" viewBox="0 0 99 94" fill="none" xmlns="http://www.w3.org/2000/svg">
<path d="M43.9041 66.9529V63.3478L46.9867 62.7298V48.9067L43.5762 48.2886V44.6629H53.3704V62.7298L56.4311 63.3478V66.9529H43.9041ZM46.768 42.8669V37.7373H53.3704V42.8669H46.768Z" fill="#D5E8FF"/>
<path d="M56.8659 91.0807C56.8659 92.5404 55.3928 94 53.3303 94H45.3751C43.3126 94 41.8392 92.8323 41.8392 91.3727V89.0373C41.8392 87.5777 43.3126 86.1181 45.3751 86.1181H53.3303C55.3928 86.1181 56.8659 87.2857 56.8659 88.7454V91.0807ZM88.9821 33.2795C87.5089 14.0124 70.4198 0 49.7948 0C29.1697 0 12.0803 13.7205 10.6071 32.9876C5.59815 36.4907 0 40.5776 0 50.2112C0 66.559 15.6159 70.646 15.6159 70.646C16.4998 70.9379 17.0891 70.646 17.0891 69.4783V65.9752C14.4373 60.7206 12.9644 54.882 12.9644 48.7515C12.9644 43.2049 14.4373 37.6584 17.0891 32.9876V30.9441C19.4462 16.0559 33.0001 5.83851 49.7948 5.83851C66.2948 5.83851 79.8483 16.0559 82.5001 30.6522V32.9876C83.6786 35.323 84.8572 37.9503 85.4465 40.8696C87.2143 47.8758 86.9196 55.4658 84.2679 62.1801V63.3478C83.9732 63.3478 83.6787 63.3478 83.6787 63.3478C83.0894 64.8074 82.4999 65.9752 81.616 67.1429C81.0267 68.8945 80.1427 70.9379 78.9641 72.6895C74.2498 80.2795 68.3573 85.2423 60.1073 86.41C58.9287 86.41 58.0445 87.5776 58.3391 88.4534C58.3391 89.6211 59.5179 90.4969 60.4018 90.205C69.5358 88.7454 76.9019 82.9069 82.2055 74.441C83.0894 72.9814 83.9731 71.2298 84.5624 69.7702C88.3928 67.7267 99 63.9317 99 49.9193C99 35.9069 93.4019 36.1987 88.3929 32.6956L88.9821 33.2795ZM81.9106 42.0373C80.1427 35.6149 76.607 29.7764 71.598 25.3975C65.7052 20.1428 58.0447 17.5155 50.0893 17.5155C42.134 17.5155 46.848 17.5156 45.0802 17.8075C37.4195 18.9752 30.6428 22.7701 25.3392 28.3167C20.0357 34.1552 17.3837 41.4534 17.0891 49.3354C17.0891 63.3478 25.6339 75.6088 38.5982 80.5715C42.1339 81.7392 45.9641 82.323 49.4998 82.323C55.3927 82.323 60.9912 80.8633 66.0001 77.9441C72.4823 74.1491 77.491 68.3106 80.1428 61.3044C82.4999 55.1739 82.7946 48.4597 81.3214 42.3292L81.9106 42.0373ZM45.6697 23.354C47.1429 23.354 48.3215 23.0621 49.7948 23.0621C51.268 23.0621 50.0892 23.0621 50.3839 23.0621C58.3393 23.0621 66 26.8571 71.0089 32.9876C76.6071 40.2857 77.1963 50.5031 76.0177 56.9255C72.7766 67.4348 62.759 74.441 57.1608 76.1926C54.8037 76.7765 52.4465 77.0683 50.0893 77.0683C43.6072 77.0683 37.1251 74.733 32.1162 70.3541C20.9197 60.7206 19.4464 43.4969 29.4643 32.1118C33.5893 27.441 39.1876 24.2298 45.3751 23.0621L45.6697 23.354Z" fill="white"/>
</svg>
