<svg width="40" height="11" viewBox="0 0 40 11" fill="none" xmlns="http://www.w3.org/2000/svg">
<g id="Group 3444">
<path id="path5689" d="M9.16744 3.34577H6.49968C6.49968 2.91468 6.44818 2.62546 6.34571 2.4781C6.18691 2.26031 5.74884 2.15117 5.03174 2.15117C4.33518 2.15117 3.87352 2.21386 3.64826 2.33949C3.42301 2.46562 3.31013 2.7396 3.31013 3.16145C3.31013 3.54333 3.41007 3.79509 3.61021 3.91547C3.75353 4.00114 3.94302 4.05134 4.17892 4.06633L4.71694 4.10379C5.87009 4.17897 6.59024 4.23217 6.87738 4.26239C7.7893 4.3528 8.45034 4.59157 8.86051 4.97845C9.18317 5.28041 9.3757 5.67503 9.43709 6.16206C9.47311 6.45353 9.49086 6.78346 9.49086 7.14986C9.49086 7.99455 9.40893 8.61295 9.24532 9.00482C8.94828 9.72413 8.28089 10.1784 7.24265 10.3693C6.80762 10.4499 6.14227 10.4901 5.2471 10.4901C3.75303 10.4901 2.712 10.4027 2.12401 10.2266C1.40259 10.0111 0.926723 9.57427 0.696651 8.91666C0.568298 8.55051 0.504883 7.9406 0.504883 7.08692H3.17265C3.17265 7.18208 3.1729 7.25501 3.1729 7.30521C3.1729 7.76077 3.30582 8.05349 3.5714 8.18411C3.75531 8.27403 3.97726 8.32123 4.23828 8.32698H5.21919C5.71967 8.32698 6.03903 8.30175 6.17677 8.25105C6.42206 8.15614 6.58313 8.00329 6.65999 7.79174C6.70083 7.66137 6.72113 7.49303 6.72113 7.28673C6.72113 6.82492 6.5499 6.54394 6.20797 6.44304C6.07987 6.40333 5.48528 6.34763 4.42345 6.27745C3.57064 6.21751 2.97834 6.15981 2.64681 6.10386C1.77345 5.94302 1.19129 5.61209 0.900849 5.10982C0.645412 4.68323 0.51782 4.0376 0.51782 3.17369C0.51782 2.51607 0.586816 1.98858 0.724808 1.59196C0.8628 1.19509 1.08526 0.89388 1.39219 0.687828C1.84194 0.371383 2.41749 0.185811 3.11786 0.130365C3.70077 0.080163 4.34736 0.0546875 5.05862 0.0546875C6.17829 0.0546875 6.97631 0.118126 7.45193 0.243756C8.61294 0.55096 9.19332 1.41113 9.19332 2.82477C9.19332 2.94066 9.18469 3.11399 9.16744 3.34577Z" fill="#10298E"/>
<path id="path5693" d="M20.8994 10.4909V0H25.079H25.735H26.242C26.9749 0 27.5339 0.0586935 27.9182 0.17658C28.7969 0.447569 29.3864 1.00278 29.6885 1.84148C29.8443 2.2818 29.9224 2.94467 29.9224 3.82981C29.9224 4.89404 29.8359 5.65855 29.6647 6.12436C29.322 7.04497 28.6168 7.57546 27.5517 7.71283C27.4264 7.73356 26.8934 7.75179 25.9526 7.76677L25.4767 7.78226H23.7671V10.4909H20.8994ZM23.7671 5.3486H25.5546C26.1216 5.32862 26.4663 5.28566 26.5903 5.21848C26.7598 5.12682 26.8737 4.94299 26.9302 4.66751C26.9665 4.48418 26.9845 4.21145 26.9845 3.84929C26.9845 3.40547 26.9485 3.07654 26.8762 2.86175C26.7732 2.56079 26.5261 2.37771 26.135 2.31103C26.0574 2.30104 25.8722 2.29554 25.5787 2.29554H23.7671V5.3486Z" fill="#10298E"/>
<path id="path5697" d="M36.0432 8.6779H32.2091L31.6939 10.4909H28.7271L31.9285 0H36.2542L39.4948 10.4909H36.5903L36.0432 8.6779ZM35.4737 6.63411L34.1301 2.08649L32.8262 6.63411H35.4737Z" fill="#10298E"/>
<path id="path5701" d="M16.9413 1.47544C18.1239 1.47544 19.1796 2.01193 19.8734 2.85212L20.4915 1.54712C19.5248 0.647489 18.2091 0.0927734 16.7579 0.0927734C14.4983 0.0927734 12.5654 1.43648 11.7722 3.33865H10.5668L9.85498 4.84095H11.4056C11.3939 4.98032 11.3863 5.11968 11.3863 5.26205C11.3863 5.43413 11.3955 5.60447 11.4127 5.77256H10.6335L9.92195 7.27536H11.8092C12.625 9.12932 14.5338 10.4308 16.7579 10.4308C17.8788 10.4308 18.9188 10.1001 19.78 9.53518V7.69346C19.0865 8.47096 18.0721 8.96223 16.9413 8.96223C15.6195 8.96223 14.4567 8.29113 13.7796 7.27536H17.7312L18.443 5.77256H13.1982C13.1711 5.59173 13.1566 5.40691 13.1566 5.21859C13.1566 5.09121 13.1632 4.96533 13.1759 4.84095H18.8841L19.5956 3.33865H13.6693C14.3248 2.22497 15.5444 1.47544 16.9413 1.47544Z" fill="#FFBE00"/>
</g>
</svg>
