<svg width="30" height="30" viewBox="0 0 30 30" fill="none" xmlns="http://www.w3.org/2000/svg">
<path d="M23 0H7C3.13401 0 0 3.13401 0 7V23C0 26.866 3.13401 30 7 30H23C26.866 30 30 26.866 30 23V7C30 3.13401 26.866 0 23 0Z" fill="white"/>
<mask id="mask0_10399_130659" style="mask-type:luminance" maskUnits="userSpaceOnUse" x="0" y="0" width="30" height="30">
<path d="M23 0H7C3.13401 0 0 3.13401 0 7V23C0 26.866 3.13401 30 7 30H23C26.866 30 30 26.866 30 23V7C30 3.13401 26.866 0 23 0Z" fill="white"/>
</mask>
<g mask="url(#mask0_10399_130659)">
<path fill-rule="evenodd" clip-rule="evenodd" d="M11.2057 18.6237L13.5038 16.3256L15.2716 18.0934C16.3482 19.1699 17.2161 19.5076 18.8071 18.2701C19.1607 17.9166 19.7794 17.4746 20.4865 17.8282L23.8453 20.1263C24.8175 20.9218 24.8969 21.3561 24.6408 21.9824C23.0508 25.8687 18.0116 25.2528 11.2057 18.6237ZM11.2057 18.6237C4.5766 11.8178 3.96071 6.77859 7.84697 5.18866C8.47328 4.93251 8.90763 5.01189 9.70312 5.98416L12.0012 9.34292C12.3548 10.05 11.9128 10.6687 11.5593 11.0223C10.3218 12.6133 10.6595 13.4813 11.7361 14.5578L13.5038 16.3256L11.2057 18.6237Z" fill="#1F317A"/>
</g>
</svg>
