<svg width="34" height="11" viewBox="0 0 34 11" fill="none" xmlns="http://www.w3.org/2000/svg">
<g id="Mode_Isolation" clip-path="url(#clip0_6653_75154)">
<path id="Vector" d="M17.5842 3.51697C17.5662 5.04412 18.9461 5.89753 19.989 6.40509C21.0588 6.92611 21.4184 7.2585 21.4139 7.72562C21.4004 9.03718 18.9731 9.03718 16.9504 8.09394L16.4514 10.4206C19.081 11.6289 24.2727 11.1168 24.2907 7.35282C24.2996 4.55453 20.416 4.39733 20.443 3.14416C20.4744 1.8371 23.0995 2.16948 24.3176 2.73093L24.7986 0.480627C21.0902 -0.871354 17.6066 0.768091 17.5886 3.51697" fill="#1A1E71"/>
<path id="Vector_2" d="M31.7793 0.202026H29.4329C28.907 0.202026 28.462 0.507457 28.2642 0.979078L24.1423 10.8113H27.0236L27.599 9.22571H31.123L31.4557 10.8113H33.9953L31.7793 0.202026ZM28.3901 7.05625L29.8375 3.07218L30.669 7.05625H28.3901Z" fill="#1A1E71"/>
<path id="Vector_3" d="M14.0871 0.202026L11.8171 10.8157H14.5636L16.8335 0.202026H14.0871Z" fill="#1A1E71"/>
<path id="Vector_4" d="M10.0236 0.202026L7.16475 7.42457L6.00954 1.28451C5.87469 0.59729 5.33979 0.202026 4.74196 0.202026H0.0671805L-0.000244141 0.511949C2.0225 0.952128 3.0923 1.289 3.362 2.34903L5.55105 10.8157H8.45481L12.9093 0.202026H10.0236Z" fill="#1A1E71"/>
</g>
<defs>
<clipPath id="clip0_6653_75154">
<rect width="34" height="11" fill="white"/>
</clipPath>
</defs>
</svg>
