<svg xmlns="http://www.w3.org/2000/svg" width="19.936" height="19.936" viewBox="0 0 19.936 19.936">
  <path id="Icon_metro-earth" data-name="Icon metro-earth" d="M12.539,1.928A9.968,9.968,0,1,0,22.507,11.9a9.968,9.968,0,0,0-9.968-9.968Zm0,18.69a8.693,8.693,0,0,1-3.45-.71L13.627,14.8a.623.623,0,0,0,.157-.414V12.519a.623.623,0,0,0-.623-.623c-2.2,0-4.521-2.287-4.544-2.31A.623.623,0,0,0,8.178,9.4H5.686a.623.623,0,0,0-.623.623v3.738a.623.623,0,0,0,.344.557L7.555,15.4v3.658a8.727,8.727,0,0,1-2.9-10.9H6.932a.623.623,0,0,0,.441-.182L9.864,5.484a.623.623,0,0,0,.182-.441V3.536a8.746,8.746,0,0,1,6.313.518c-.081.068-.159.139-.235.215a3.738,3.738,0,0,0,2.641,6.382q.092,0,.185,0a14.63,14.63,0,0,1-.164,7.249.621.621,0,0,0-.016.1,8.7,8.7,0,0,1-6.233,2.622Z" transform="translate(-2.571 -1.928)" fill="#2776c5"/>
</svg>
