<svg xmlns="http://www.w3.org/2000/svg" width="23.959" height="17.5" viewBox="0 0 23.959 17.5">
  <g id="ES" transform="translate(0)">
    <g id="Groupe_3754" data-name="Groupe 3754" transform="translate(0)">
      <path id="Tracé_4344" data-name="Tracé 4344" d="M0,.96H23.959V16.321H0Z" transform="translate(0 -0.256)" fill="#fae116"/>
      <path id="Tracé_4345" data-name="Tracé 4345" d="M0,0H23.959V4.535H0ZM0,12.232H23.959V17.5H0Z" fill="#dd2a1b"/>
      <path id="Tracé_4346" data-name="Tracé 4346" d="M5.721,11.316a.553.553,0,0,0,.056.049.942.942,0,0,0,.093.049l.083.046q.064.046.123.1l-.027-.367-.076-.051a.533.533,0,0,0-.063-.046.335.335,0,0,0-.066-.018l-.068.07c-.012.015-.044.077-.053.09a.307.307,0,0,0,0,.088h0Zm-1.028-.254.292.161c.182.081.38.114.565.188a.518.518,0,0,1,.183.088.143.143,0,0,1,.02.037l.02.336-.2-.11a3.276,3.276,0,0,0-.384-.138l-.252-.067a.75.75,0,0,1-.187-.077.521.521,0,0,1-.078-.084l.019-.333ZM5.67,9.607A.3.3,0,0,0,5.7,9.492c0-.032,0-.059-.04-.087a.116.116,0,0,0-.1-.016.419.419,0,0,0-.26.031c-.012.01-.043-.02-.043-.02s-.022.051-.044.021c-.047-.073-.26-.029-.26-.029s-.044-.021-.106.033.006.169.006.169l.028.06.066.073s.012.006.037.092c.28-.067.389-.076.539,0l.047-.092.1-.119Z" transform="translate(-1.246 -2.5)" fill="#e22531"/>
      <path id="Tracé_4347" data-name="Tracé 4347" d="M5.285,9.176c.011.015.015.022.012.027S5.28,9.2,5.272,9.19v.039a.03.03,0,0,1,.022-.012.024.024,0,0,1,0,.025l0,.006v.032H5.26a.088.088,0,0,0,0,.029h.032c-.011.025-.025.042-.032.062s-.005.013-.005.019a.065.065,0,0,0,0,.044.1.1,0,0,0,.029.04l-.012.056a.816.816,0,0,0-.132-.2.146.146,0,0,1-.054-.006.025.025,0,0,0-.05,0,.12.12,0,0,0-.043.012,1.389,1.389,0,0,1,.26.242c-.009.016-.019.024-.029.015s.006-.007.006-.013a.018.018,0,0,0-.018-.018.017.017,0,0,0-.018.018A.016.016,0,0,0,5.2,9.59c-.027.047-.061.022-.093-.012a.117.117,0,0,0,.022.013.063.063,0,0,0,.037.006c.012,0,.01-.013,0-.017s-.018-.007-.007-.007.018,0,.022-.009a.021.021,0,0,0-.005-.028c-.009-.01-.019,0-.027.006.007-.011.016-.021.01-.029s-.019-.006-.026,0l-.012.017.006-.016a.024.024,0,0,0,0-.024c0-.007-.007-.006-.012-.007s-.01.01-.015.015a.029.029,0,0,0,0-.023.024.024,0,0,0-.026-.011.022.022,0,0,0-.018.015.031.031,0,0,0,.013.029L5.058,9.5c-.016.012-.015.023-.01.031a.145.145,0,0,0,.022.02.086.086,0,0,0-.023-.011c-.009,0-.025,0-.022.013s.015.012.023.013c-.012,0-.025,0-.029.015a.02.02,0,0,0,.007.028c.008.006.016,0,.024,0s-.007.015-.006.022.013,0,.02,0A.07.07,0,0,0,5.1,9.593c-.005.038-.02.063-.064.048,0-.018-.007-.026-.016-.026A.018.018,0,0,0,5,9.634a.016.016,0,0,0,.012.018c-.01.026-.033.02-.059.01a.044.044,0,0,0,.026-.006A.039.039,0,0,0,5,9.642a.012.012,0,0,0-.009-.012.042.042,0,0,0,0-.037.031.031,0,0,0-.025-.006.062.062,0,0,0-.01.018V9.589c0-.006,0-.014-.009-.014a.022.022,0,0,0-.018.015l0,.021,0-.021a.021.021,0,0,0-.012-.018c-.011,0-.015,0-.015.006V9.6a.074.074,0,0,0,0-.018c0-.006-.011-.006-.016-.006a.025.025,0,0,0-.018.016.215.215,0,0,1,.049.039.02.02,0,0,0,.005.026.031.031,0,0,0,.029.007A.079.079,0,0,0,5,9.685v.006a.019.019,0,0,0-.015.007c.015.007.017.007.021,0l.015.035.007.028c-.01.013-.007.015-.005.015a1.014,1.014,0,0,1,.557,0l.01-.042L5.611,9.7a.018.018,0,0,0,.016-.007l0-.01a.071.071,0,0,0,.047-.023.039.039,0,0,0,.023-.006c.009-.006.018-.018.015-.025a.154.154,0,0,1,.047-.039c-.015-.013-.017-.013-.022-.013s-.015.021-.015.021v-.01A.042.042,0,0,0,5.7,9.579c-.009.006-.013.007-.015.015l0,.022a.153.153,0,0,1,0-.022c-.007-.015-.012-.015-.017-.015-.01.018-.007.023,0,.029S5.653,9.6,5.646,9.59a.041.041,0,0,0-.025.006c0,.013,0,.02,0,.025l.007.006,0,.006-.007.017.007.006a.063.063,0,0,0,.032.006c-.033.012-.057.011-.064-.013a.018.018,0,0,0,.02-.018h0a.018.018,0,0,0-.018-.018.017.017,0,0,0-.018.018c-.056.033-.059-.015-.068-.044a.127.127,0,0,0,.037.04l.01.006h.01a.014.014,0,0,0,0-.015l-.016-.01.018.011c.006,0,.012,0,.021-.015a.03.03,0,0,0-.01-.025c-.007-.007-.015,0-.021,0s.012-.006.019-.013-.007-.019-.012-.021l-.032.011h0l.019-.016a.023.023,0,0,0,.005-.022l-.007-.011-.007.006-.01.006h.007l.01-.011,0-.011a.031.031,0,0,0-.016-.021.037.037,0,0,0-.029.011l0,.011.005.015v.006l0-.006L5.5,9.5,5.5,9.5,5.488,9.5a.025.025,0,0,0-.005.022l.011.022h0v.006l-.015-.019a.035.035,0,0,0-.022-.005c0,.021.005.026.012.028a.046.046,0,0,1-.021-.006c-.007.006-.016.007-.02.019s.007.02.012.022h.01l0,.007a.015.015,0,0,0,0,.015h.021a.07.07,0,0,0,.027-.009c-.021.028-.049.044-.081.006.007-.006.011-.009.011-.017A.019.019,0,0,0,5.4,9.576a.017.017,0,0,0-.018.018.018.018,0,0,0,.007.015c-.007.007-.018,0-.027-.022a1.365,1.365,0,0,1,.255-.238.184.184,0,0,0-.043-.012.024.024,0,0,0-.025-.022.024.024,0,0,0-.024.021.228.228,0,0,0-.054.006.864.864,0,0,0-.129.2l-.013-.051a.078.078,0,0,0,.027-.037.1.1,0,0,0,0-.065.117.117,0,0,0-.037-.05l.032-.011a.033.033,0,0,0,0-.015L5.329,9.3l0-.032h0a.039.039,0,0,1-.009-.029.049.049,0,0,1,.025.012V9.208c-.007.007-.015.015-.023.015s0-.013.005-.02L5.291,9.2l0-.018Z" transform="translate(-1.295 -2.446)" fill="#cca02f"/>
      <path id="Tracé_4348" data-name="Tracé 4348" d="M5.062,10.42h.557v2.666H5.062Z" transform="translate(-1.349 -2.778)" fill="#9e9da2"/>
      <g id="Groupe_3744" data-name="Groupe 3744" transform="translate(3.573 7.376)">
        <path id="Tracé_4349" data-name="Tracé 4349" d="M5.07,10.312h.543v.066H5.07Z" transform="translate(-4.925 -10.125)" fill="#cca02f"/>
        <path id="Tracé_4350" data-name="Tracé 4350" d="M5.055,10.136h.524a.073.073,0,1,1,0,.144H5.056a.073.073,0,1,1,0-.144Z" transform="translate(-4.898 -10.078)" fill="#cca02f"/>
        <path id="Tracé_4351" data-name="Tracé 4351" d="M4.906,10.057h.788v.138H4.906Zm.139.238h.5c.024,0,.044.015.044.032s-.019.032-.044.032h-.5c-.024,0-.044-.015-.044-.032S5.02,10.3,5.045,10.3Zm-.037,2.73-.024.1h.626l-.026-.1Z" transform="translate(-4.881 -10.057)" fill="#cca02f"/>
        <path id="Tracé_4352" data-name="Tracé 4352" d="M5.02,14.018h.562c.034,0,.06.019.06.044s-.027.044-.06.044H5.02c-.033,0-.06-.019-.06-.044S4.987,14.018,5.02,14.018Zm-.035.148h.632c.04,0,.073.023.073.051s-.033.051-.073.051H4.983c-.04,0-.073-.023-.073-.051s.033-.051.073-.051Z" transform="translate(-4.882 -11.113)" fill="#cca02f"/>
        <path id="Tracé_4353" data-name="Tracé 4353" d="M4.872,14.348h.836v.186H4.872Z" transform="translate(-4.872 -11.201)" fill="#cca02f"/>
      </g>
      <path id="Tracé_4354" data-name="Tracé 4354" d="M9.412,14.614v.447H10.4v-.447Zm-4.644.01v.449h.983v-.449H4.777Z" transform="translate(-1.271 -3.895)" fill="#9e9da2"/>
      <g id="Groupe_3745" data-name="Groupe 3745" transform="translate(3.326 8.04)">
        <path id="Tracé_4355" data-name="Tracé 4355" d="M6.093,11.786a.231.231,0,0,1,.012-.072.291.291,0,0,1,.059-.062l.07-.077.038-.047,0-.387a.754.754,0,0,0-.11.15.486.486,0,0,0-.021.114c0,.032,0,.073-.007.1a.711.711,0,0,1-.023.108.849.849,0,0,0-.035.09.124.124,0,0,0,0,.054.106.106,0,0,0,.022.031h0Z" transform="translate(-4.944 -11.01)" fill="#e22531"/>
        <path id="Tracé_4356" data-name="Tracé 4356" d="M4.536,11.471a.632.632,0,0,0,.072.147l.031.205a.586.586,0,0,1,.056-.259.778.778,0,0,1,.482-.227.889.889,0,0,1,.637.056c.029.019.048.093.048.093v-.4a1.216,1.216,0,0,0-.242-.108,1.188,1.188,0,0,0-.411,0,1.807,1.807,0,0,0-.45.126.552.552,0,0,0-.213.218.545.545,0,0,0-.01.151h0Zm.3,1.518a.453.453,0,0,0-.005-.1c-.006-.026-.025-.047-.033-.072a.351.351,0,0,1-.01-.054L4.77,12.6l-.076.249a.482.482,0,0,0,.04.046c.022.021.049.033.07.054a.411.411,0,0,1,.033.041h0Z" transform="translate(-4.535 -10.963)" fill="#e22531"/>
        <path id="Tracé_4357" data-name="Tracé 4357" d="M5.773,12.325a.172.172,0,0,1-.043.059.675.675,0,0,1-.167.107c-.09.045-.188.071-.282.107l-.252.1c-.056.028-.144.09-.161.1l-.046.029a1.039,1.039,0,0,1-.007.117c-.01.054-.035.1-.047.158-.007.032-.015.1-.015.1a.6.6,0,0,1,.1-.114.551.551,0,0,1,.16-.068c.087-.028.177-.037.266-.061a1.556,1.556,0,0,0,.249-.077A.77.77,0,0,0,5.7,12.77a.852.852,0,0,0,.1-.1l-.019-.343Z" transform="translate(-4.593 -11.325)" fill="#e22531"/>
      </g>
      <g id="Groupe_3747" data-name="Groupe 3747" transform="translate(3.563 8.083)">
        <g id="Groupe_3746" data-name="Groupe 3746">
          <path id="Tracé_4358" data-name="Tracé 4358" d="M5,11.174a.2.2,0,0,0-.147.078l.056.251-.012.059a.208.208,0,0,0,.127-.066l-.037-.026-.021-.089a.176.176,0,0,0,.114-.057.106.106,0,0,0,.017-.1.088.088,0,0,0-.066-.051H5.011Zm0,.054c.022,0,.031.011.037.033.012.04-.046.057-.1.07l-.019-.072A.242.242,0,0,1,5,11.227H5Z" transform="translate(-4.858 -11.061)" fill="#cca02f"/>
          <path id="Tracé_4359" data-name="Tracé 4359" d="M5.115,11.11c.029-.015.056-.034.094-.018a.85.85,0,0,0,.021.227c.029-.01.051-.079.069-.147a.251.251,0,0,1,.019.147l-.166.04a.7.7,0,0,0-.01-.219l-.026-.022Zm.2-.032a.136.136,0,0,1,.1-.015L5.4,11.1a.244.244,0,0,0,.017.13.046.046,0,0,0,.038.019.058.058,0,0,0,.039-.015c.029-.043,0-.157,0-.157l-.035-.018a.135.135,0,0,1,.088-.006l-.015.022a.574.574,0,0,1,.011.148.086.086,0,0,1-.084.071.1.1,0,0,1-.09-.037c-.032-.04-.018-.078-.024-.154l-.026-.022Zm.268.107,0,.086.044-.006a.155.155,0,0,0,.073.022.09.09,0,0,0,.067-.044.076.076,0,0,0,0-.072c-.011-.022-.043-.032-.073-.044s-.047-.006-.061-.022a.027.027,0,0,1,0-.026.04.04,0,0,1,.018-.019.059.059,0,0,1,.048,0c.011.006.021.032.021.032l.027.028v-.076l-.033-.006a.06.06,0,0,0-.051-.019.111.111,0,0,0-.073.046.067.067,0,0,0,0,.062c.012.022.064.041.064.041s.044.006.056.019a.042.042,0,0,1,0,.04.043.043,0,0,1-.032.022c-.019,0-.051-.027-.051-.027l-.042-.037Z" transform="translate(-4.927 -11.02)" fill="#cca02f"/>
        </g>
        <path id="Tracé_4360" data-name="Tracé 4360" d="M12.017,11.674l-.292.161c-.182.081-.38.114-.565.188a.7.7,0,0,0-.183.088.164.164,0,0,0-.02.023l-.007.337.183-.1a3.432,3.432,0,0,1,.384-.138l.252-.067a.75.75,0,0,0,.187-.077.521.521,0,0,0,.078-.084l-.019-.333Zm-1.028.253a.553.553,0,0,1-.056.049.942.942,0,0,1-.093.049l-.083.046c-.044.029-.123.1-.123.1l.027-.367.076-.051A.533.533,0,0,1,10.8,11.7a.335.335,0,0,1,.066-.018l.068.07c.012.015.044.077.053.09a.307.307,0,0,1,0,.088h0Z" transform="translate(-6.398 -11.195)" fill="#e22531"/>
      </g>
      <path id="Tracé_4361" data-name="Tracé 4361" d="M11.963,10.408h-.557v2.665h.557Z" transform="translate(-3.04 -2.774)" fill="#9e9da2"/>
      <g id="Groupe_3748" data-name="Groupe 3748" transform="translate(8.226 7.368)">
        <path id="Tracé_4362" data-name="Tracé 4362" d="M11.961,10.3h-.543v.066h.543Z" transform="translate(-11.27 -10.114)" fill="#cca02f"/>
        <path id="Tracé_4363" data-name="Tracé 4363" d="M11.92,10.125H11.4a.073.073,0,1,0,0,.144h.523a.073.073,0,1,0,0-.144Z" transform="translate(-11.241 -10.067)" fill="#cca02f"/>
        <path id="Tracé_4364" data-name="Tracé 4364" d="M12.037,10.046H11.25v.138h.787Zm-.139.238h-.5c-.024,0-.044.015-.044.032s.019.032.044.032h.5c.024,0,.044-.015.044-.032S11.923,10.284,11.9,10.284Zm.035,2.731.024.1H11.33l.028-.1Z" transform="translate(-11.225 -10.046)" fill="#cca02f"/>
        <path id="Tracé_4365" data-name="Tracé 4365" d="M11.926,14.007h-.562c-.033,0-.06.019-.06.044s.027.044.06.044h.562c.033,0,.06-.019.06-.044S11.959,14.007,11.926,14.007Zm.035.148h-.632c-.04,0-.073.023-.073.051s.033.051.073.051h.632c.04,0,.073-.023.073-.051S12,14.155,11.962,14.155Z" transform="translate(-11.227 -11.102)" fill="#cca02f"/>
        <path id="Tracé_4366" data-name="Tracé 4366" d="M12.052,14.337h-.836v.186h.836Z" transform="translate(-11.216 -11.19)" fill="#cca02f"/>
      </g>
      <g id="Groupe_3749" data-name="Groupe 3749" transform="translate(7.973 8.04)">
        <path id="Tracé_4367" data-name="Tracé 4367" d="M11.051,11.792a.231.231,0,0,0-.012-.072.291.291,0,0,0-.059-.062l-.07-.077-.038-.047v-.369a.619.619,0,0,1,.113.132.421.421,0,0,1,.021.114c0,.032,0,.073.007.1a.711.711,0,0,0,.023.108.85.85,0,0,1,.035.09.124.124,0,0,1,0,.054.106.106,0,0,1-.022.031h0Z" transform="translate(-10.871 -11.017)" fill="#e22531"/>
        <path id="Tracé_4368" data-name="Tracé 4368" d="M12.2,11.471a.664.664,0,0,1-.072.147l-.031.205a.586.586,0,0,0-.056-.259.778.778,0,0,0-.482-.227.889.889,0,0,0-.637.056c-.029.019-.048.093-.048.093v-.4a1.216,1.216,0,0,1,.242-.108,1.188,1.188,0,0,1,.411,0,1.254,1.254,0,0,1,.45.126.521.521,0,0,1,.213.218.545.545,0,0,1,.01.151h0Zm-.3,1.518a.453.453,0,0,1,.005-.1c.006-.026.025-.047.033-.072a.351.351,0,0,0,.01-.054l.021-.167.076.249a.482.482,0,0,1-.04.046c-.022.021-.049.033-.07.054a.455.455,0,0,0-.033.041h0Z" transform="translate(-10.871 -10.963)" fill="#e22531"/>
        <path id="Tracé_4369" data-name="Tracé 4369" d="M11.064,12.294a.171.171,0,0,0,.046.073.562.562,0,0,0,.167.107c.09.045.188.071.282.107l.252.1c.056.028.144.09.161.1l.046.029a1.027,1.027,0,0,0,.007.117c.01.054.035.1.047.158.007.032.015.1.015.1a.6.6,0,0,0-.1-.114.551.551,0,0,0-.16-.068c-.087-.028-.177-.037-.266-.061a1.557,1.557,0,0,1-.249-.077.694.694,0,0,1-.174-.107.817.817,0,0,1-.1-.117l.016-.352Z" transform="translate(-10.918 -11.315)" fill="#e22531"/>
      </g>
      <g id="Groupe_3750" data-name="Groupe 3750" transform="translate(8.075 8.084)">
        <path id="Tracé_4370" data-name="Tracé 4370" d="M11.017,11.094a.29.29,0,0,1,.038-.019c.013,0,.042-.01.042-.01l-.02.038v.126c-.005.022.017.031.032.032s.032-.006.048-.035l.006-.138-.029-.031a.194.194,0,0,1,.037-.012h.039l-.015.029-.006.164a.086.086,0,0,1-.073.065c-.034.01-.067.007-.1-.048v-.147l-.009-.016Zm.238-.037v.186l-.022.029a.576.576,0,0,1,.194,0l0-.147a.467.467,0,0,1-.072.1l-.035.006,0-.186.02-.026a.291.291,0,0,0-.1.006l.022.019Zm.182-.025.022.1c.007-.022.007-.043.022-.055a.061.061,0,0,1,.032-.006l0,.183-.017.029.109.007-.026-.04-.007-.172s.034,0,.044.011.012.066.012.066l.026-.1-.1-.021a.647.647,0,0,0-.11-.006v0Zm.283.039h-.054a.044.044,0,0,1,.017.04.567.567,0,0,1-.022.209.146.146,0,0,1-.034.034.154.154,0,0,0,.037.025.356.356,0,0,0,.073.007.069.069,0,0,1-.015-.024.319.319,0,0,1,.007-.1l.047.007a.285.285,0,0,0,0,.073.123.123,0,0,0,.037.066.113.113,0,0,0,.083.007c.006-.009.026-.048.026-.048a.127.127,0,0,1-.059,0c-.029-.02-.049-.1-.049-.1a.165.165,0,0,0,.061-.029.087.087,0,0,0,.02-.064.088.088,0,0,0-.026-.053.152.152,0,0,0-.071-.042.352.352,0,0,0-.089-.01v0Zm.051.054a.04.04,0,0,1,.029.007.055.055,0,0,1,.032.04.053.053,0,0,1-.027.04.179.179,0,0,1-.069.012v-.1h.037v0Z" transform="translate(-11.01 -11.022)" fill="#cca02f"/>
        <path id="Tracé_4371" data-name="Tracé 4371" d="M12.317,11.2l0,.055-.113.183-.054.028a.234.234,0,0,1,.1.055l-.006-.063.032-.071.073.029,0,.106-.037.031a.26.26,0,0,1,.123.063l-.015-.051v-.244l.035-.029a.182.182,0,0,0-.147-.091Zm.034.059.005.11L12.3,11.35l.054-.09Z" transform="translate(-11.313 -11.07)" fill="#cca02f"/>
      </g>
      <path id="Tracé_4372" data-name="Tracé 4372" d="M6.5,10.033H9.6v2.545c0,1.316-1.368,1.287-1.564,1.287s-1.54.013-1.54-1.253v-2.58Z" transform="translate(-1.732 -2.674)" fill="#9e9da2"/>
      <g id="Groupe_3751" data-name="Groupe 3751" transform="translate(4.767 7.359)">
        <path id="Tracé_4373" data-name="Tracé 4373" d="M6.5,10.033v1.775H8.048V10.033Zm.164,1.779v1.454l.054.073a.755.755,0,0,0,.119.1V11.813H6.664Zm.347,0v1.731a.867.867,0,0,0,.173.044V11.812Zm.346,0v1.775a.964.964,0,0,0,.173-.044v-1.73H7.357Zm.347,0v1.64a.753.753,0,0,0,.173-.164V11.813H7.7Zm.348,0v1a.8.8,0,0,0,.772.776.767.767,0,0,0,.526-.22,1.231,1.231,0,0,0,.254-.8v-.757H8.051Z" transform="translate(-6.5 -10.033)" fill="#e22531"/>
        <path id="Tracé_4374" data-name="Tracé 4374" d="M7.136,10.132V10.2h.11v-.066Zm.136,0V10.2H7.38v-.066Zm.136,0V10.2h.11v-.066Zm-.271.073v.066h.022a.012.012,0,0,0-.011.011c0,.005.01.013.022.013h.315c.012,0,.022-.006.022-.013s0-.009-.011-.011h.022v-.066Zm-.367,0v.062h.092v-.062h-.1Zm.114,0v.062h.092v-.062Zm.114,0v.062H7.09v-.062Zm.565,0v.062h.092v-.062Zm.114,0v.062H7.77v-.062h-.1Zm.115,0v.062h.092v-.062Zm-1.024.062v.062H6.79a.011.011,0,0,0-.012.011c0,.005.01.012.022.012h.258c.012,0,.022-.006.022-.012s-.005-.007-.012-.011h.022v-.062H6.768Zm.794,0v.062h.022a.011.011,0,0,0-.012.011c0,.005.01.012.022.012h.258c.012,0,.022-.006.022-.012s-.005-.007-.012-.011h.022v-.062Zm-.378.028c-.012,0-.022.006-.022.013s.007.011.018.012v.415H7.136v.071H7.073v-.071H7.045v-.357a.013.013,0,0,0,.015-.012c0-.006-.01-.012-.022-.012H6.806c-.012,0-.021.006-.021.012s.007.01.015.012v.429H6.765V10.73H6.684v.091h.024v.073H6.73c0,.022.01.035.025.035h.018c0,.006-.007.007-.007.015a.025.025,0,0,0,.027.022h0v.653a.389.389,0,0,1-.033.083H6.752c-.029,0-.051.015-.051.034s.022.035.051.035H7.887c.029,0,.051-.015.051-.035s-.022-.034-.051-.034H7.875a.2.2,0,0,1-.037-.065v-.672h.007a.025.025,0,0,0,.027-.022.02.02,0,0,0-.007-.015h.018a.027.027,0,0,0,.027-.026l.02-.009v-.077h.024v-.091H7.874v.088H7.838v-.429a.013.013,0,0,0,.015-.012c0-.006-.01-.012-.022-.012H7.6c-.012,0-.022.006-.022.012s.007.01.016.012v.352H7.549v.078H7.5v-.071H7.461v-.415c.01,0,.018-.006.018-.012s-.01-.013-.022-.013H7.175Zm.138.056a.06.06,0,0,1,.066.066V10.6H7.255v-.186a.06.06,0,0,1,.066-.066h0Zm.4.059a.049.049,0,0,1,.054.053v.151H7.667v-.151A.048.048,0,0,1,7.72,10.411Zm-.8.015a.049.049,0,0,1,.054.054v.15H6.867v-.15A.049.049,0,0,1,6.921,10.425Zm.713.6c.037,0,.073.018.066.066v.186H7.566v-.186a.06.06,0,0,1,.066-.066h0Zm-.618.006c.037,0,.073.018.066.066v.186H6.949v-.186a.06.06,0,0,1,.066-.066h0Zm.308.191a.153.153,0,0,1,.133.165h0V11.7H7.19v-.321h0a.152.152,0,0,1,.132-.167v0Zm-.452-.169v0Zm.127,0v0Zm.132,0v0Zm.269,0v0Zm.127,0v0Zm.13,0v0Zm.127,0v0Zm-.848.081v0Zm.127,0v0Zm.132,0v0Zm.128,0v0Zm.142,0v0Zm.127,0v0Zm.13,0v0ZM6.8,11.056ZM6.8,11.129ZM6.8,11.2ZM6.8,11.284ZM6.8,11.362ZM6.8,11.435ZM6.8,11.509ZM6.8,11.589Zm.133-.326v0Zm.127,0v0Zm.132,0v0Zm.128,0v0Zm.142,0v0Zm.127,0v0Zm.13,0v0Zm-.785.161v0Zm.127,0v0Zm.132,0v0Zm.128,0v0Zm.142,0v0Zm.127,0v0Zm.13,0v0Zm-.785.161v0Zm.127,0v0Zm.132,0v0Zm.128,0v0Zm.142,0v0Zm.127,0v0Zm.13,0v0Zm-.848-.4v0Zm.127,0v0Zm.132,0v0Zm.128,0v0Zm.142,0v0Zm.127,0v0Zm.13,0v0Zm.127,0v0Zm-.911.161v.022Zm.127,0v.022Zm.132,0v.022Zm.128,0v.022Zm.142,0v.022Zm.127,0v.022Zm.13,0v.022Zm.127,0v.022Zm-.911.161v0Zm.127,0v0Zm.132,0v0Zm.128,0v0Zm.142,0v0Zm.127,0v0Zm.13,0v0Zm.127,0v0Zm-.911.161v0Zm.127,0v0Zm.132,0v0Zm.128,0v0Zm.142,0v0Zm.127,0v0Zm.13,0v0Zm.127,0v0Z" transform="translate(-6.549 -10.059)" fill="#cca02f"/>
      </g>
      <path id="Tracé_4375" data-name="Tracé 4375" d="M8.617,10.033v1.775h1.55V10.033Z" transform="translate(-2.297 -2.674)" fill="#9e9da2"/>
      <g id="Groupe_3753" data-name="Groupe 3753" transform="translate(6.388 7.403)">
        <path id="Tracé_4376" data-name="Tracé 4376" d="M9.351,10.094l0,.117a.046.046,0,0,0-.032.006c-.013.007-.016.027-.029.035s-.015,0-.022.006a.347.347,0,0,0-.04.021.251.251,0,0,0-.029.016c0,.006-.01.006-.012.011a.03.03,0,0,0,.005.026c.006.005.007.006.018,0a.029.029,0,0,0,0,.041c.007.007.009.015.015.021a.04.04,0,0,0,.022.007.076.076,0,0,0,.006.039.087.087,0,0,0,.015.02.1.1,0,0,0,.016.01.116.116,0,0,0-.038-.009.044.044,0,0,1-.026-.006.122.122,0,0,1-.031-.009.22.22,0,0,1-.026-.011l-.026-.01,0,.018.01.015a.217.217,0,0,0,.088.04c.012,0,.022,0,.034.006s0,.011-.007.015a.04.04,0,0,0,0,.037.048.048,0,0,0,.019.026c.005.006.015,0,.018,0h0a.153.153,0,0,1-.025.007.114.114,0,0,1-.037-.022.389.389,0,0,0-.049-.028.2.2,0,0,1-.037-.016.1.1,0,0,1-.025-.028c-.01-.015-.01-.034-.02-.048s-.032-.026-.032-.034S9.05,10.4,9.037,10.4a.148.148,0,0,1-.025-.029l-.032-.042-.015-.015v-.034a.08.08,0,0,0,0-.026.022.022,0,0,0-.015-.015c-.006,0-.009-.011-.012-.015a.147.147,0,0,0-.016-.021.038.038,0,0,0-.018-.007.152.152,0,0,1,.012.029v.017l-.015.007-.007.006h-.01a.138.138,0,0,0-.024-.015c-.01,0-.015-.006-.023,0a.016.016,0,0,0-.015.006.09.09,0,0,0-.046.006l-.018.015a.11.11,0,0,1,.037.006.165.165,0,0,1,.007.044c0,.006,0,.012.005.015a.11.11,0,0,0,.027,0c.009,0,.026.015.026.015l.015.012a.231.231,0,0,0-.037-.018c-.007,0-.018-.006-.025,0s-.007.006-.011.011a.07.07,0,0,0-.04.005l-.018.015a.11.11,0,0,1,.037.006.352.352,0,0,1,.018.047s.018.015.027.015.023-.015.023-.015l.016.006.034.007.026.029-.02-.015-.027-.006c-.013.009-.015.01-.016.01a.029.029,0,0,0-.021.006c-.006.006-.021.007-.029.015a.052.052,0,0,0-.013.02.192.192,0,0,1,.037-.007c.007,0,.015.006.021.006a.04.04,0,0,0,0,.025.089.089,0,0,0,.034.021l.024.006a.08.08,0,0,1,.007.032.032.032,0,0,1-.012.021.1.1,0,0,1-.037.01.191.191,0,0,0,.04.016.1.1,0,0,0,.032-.015c.007,0,.009-.019.015-.016s-.006.034,0,.037.037.006.037.006v.084c0,.011-.013.04,0,.033a.061.061,0,0,0,.024-.018.1.1,0,0,0,.018-.028.19.19,0,0,0,.005-.037.135.135,0,0,0,.006.037.039.039,0,0,0,.022.026.121.121,0,0,0-.012.041c0,.006,0,.011,0,.016s-.022.032-.029.051a.354.354,0,0,0-.012.037.189.189,0,0,1-.016.046.1.1,0,0,1-.026.023.1.1,0,0,1-.032.015c-.011,0-.031,0-.044.011a.084.084,0,0,0-.016.022.073.073,0,0,1-.034-.009.031.031,0,0,0-.016-.006.058.058,0,0,0-.018.007A.177.177,0,0,1,8.8,11a.072.072,0,0,0-.024.02.042.042,0,0,0-.005.022.177.177,0,0,1,.037-.015.076.076,0,0,1,.009.026c-.01.006-.021.012-.022.021a.054.054,0,0,0,0,.022.041.041,0,0,1-.007.016.076.076,0,0,0-.013.029.041.041,0,0,0,.005.022.128.128,0,0,1,.026-.029.047.047,0,0,0,.012.015.041.041,0,0,0,.022.006h.017a.114.114,0,0,0,.017-.021l.013-.016.029-.022a.2.2,0,0,0-.025.023.091.091,0,0,0-.016.034v.019s.013.021.021.023a.1.1,0,0,0,.007.032.036.036,0,0,0,.015.012.221.221,0,0,1,0-.034l.032-.015c.006-.006.015-.006.017-.016a.1.1,0,0,0,0-.028v-.006a.1.1,0,0,0,.024.006.027.027,0,0,0,.018-.012.1.1,0,0,0,.013-.025.073.073,0,0,0,0-.023h.009c.015.015.018.018.018.022a.139.139,0,0,1,0,.025v.018h.01s.016,0,.018-.007a.073.073,0,0,0,.012-.048.053.053,0,0,0,0-.018c.017-.007.023-.007.027-.015a.054.054,0,0,0,0-.025.14.14,0,0,0,.022.018.049.049,0,0,0,.022.006h.027c.006,0,.012-.006.018-.006a.041.041,0,0,1,.021.011.03.03,0,0,1,.007.016.046.046,0,0,0,.005-.023.036.036,0,0,0-.012-.019A.232.232,0,0,0,9.2,11.03l-.024-.012-.012-.006H9.18a.021.021,0,0,0,.015-.006C9.2,11,9.2,11,9.2,10.993s.012,0,.018,0a.125.125,0,0,0,.026.015.083.083,0,0,0,.024.006.043.043,0,0,0,.026-.006A.022.022,0,0,0,9.314,11c.007,0,.021-.011.021-.011a.025.025,0,0,1-.016-.006h.054c.015.006.024.019.038.025a.036.036,0,0,0,.024.006c.013,0,.026-.006.039-.006s.029-.006.043,0a.194.194,0,0,1,.031.022l.029.015,0,.006a.065.065,0,0,0-.034,0c-.007,0-.013.006-.018.007a.012.012,0,0,0-.007.012c-.02.01-.031.01-.042.015a.069.069,0,0,0-.032.012.156.156,0,0,0-.012.018l-.015.023a.215.215,0,0,0-.018.025.074.074,0,0,0-.007.032.212.212,0,0,0,0,.031.12.12,0,0,0,.01.032.335.335,0,0,0,.022.035.381.381,0,0,0,.033.032.165.165,0,0,0-.034-.02H9.4c-.012,0-.024.006-.037.006H9.287a.077.077,0,0,1-.031-.01c-.009,0-.006-.013-.012-.018a.113.113,0,0,0-.029-.01c-.005,0-.012,0-.015-.006,0-.022,0-.037-.01-.044H9.169a.038.038,0,0,0-.02-.015.059.059,0,0,0-.024-.006.047.047,0,0,0-.016.007.124.124,0,0,1,.027.018c0,.015-.011.018-.01.026s.015.007.012.012a.145.145,0,0,0-.031-.02c-.009,0-.01-.006-.015-.006s-.016.01-.022.017H9.048a.032.032,0,0,0-.026.007.034.034,0,0,0-.007.018h.037a.07.07,0,0,1,.011.025.045.045,0,0,0,.015.02h.046c.006,0,.016.006.015.01-.021,0-.028-.006-.035,0a.024.024,0,0,0-.019.012c0,.006,0,.01,0,.015s-.012.006-.017.007a.069.069,0,0,0-.02.018.039.039,0,0,0,0,.021.147.147,0,0,1,.034-.013H9.1c0,.016.007.021.012.022h.022c.007-.006.007-.016.015-.018s.01.025.015.033.011.007.018.01.015.007.022.006,0-.017.01-.015.005.017.006.025a.1.1,0,0,1,0,.034.057.057,0,0,1-.012.018l-.018.02h.029a.018.018,0,0,0,.015-.006c.006,0,.012-.006.018-.01.015-.021,0-.045.01-.051s.011.016.019.02.023-.007.033,0,.007.022.015.032.021.012.031.018a.273.273,0,0,1,.029.015.106.106,0,0,1,.018.022v.02l.007-.015a.056.056,0,0,0,0-.019.058.058,0,0,0-.006-.023c-.006-.011-.018-.018-.025-.029a.04.04,0,0,1-.007-.018c0-.007-.005-.022,0-.022s0,.015,0,.02a.04.04,0,0,0,.04,0c0-.006,0-.017,0-.018s.006.015.01.022a.044.044,0,0,0,.013.018.117.117,0,0,0,.056.006c.02.006.042,0,.059.012l.012.015a.072.072,0,0,0,.007-.023.049.049,0,0,0-.005-.026c0-.007-.022-.011-.032-.018s-.049-.011-.044-.028.018,0,.027,0,.012.006.018.006.012,0,.015-.006.012,0,.02,0a.056.056,0,0,0,.019.006h.015a.085.085,0,0,0,.031-.01.057.057,0,0,0,.022-.01.187.187,0,0,1,.033-.02H9.75a.108.108,0,0,0-.018-.023.013.013,0,0,0-.013-.007c-.015-.006-.028,0-.043,0H9.638c-.007,0-.017.007-.019,0s.011-.007.015-.011.01-.007.012-.015a.033.033,0,0,0-.007-.022c-.007-.011-.022-.013-.027-.025a.027.027,0,0,1,0-.018c0-.005.013-.007.019-.012l.019-.015a.1.1,0,0,0,.025.045.117.117,0,0,0,.029.016c.01.005.021.007.029.012a.187.187,0,0,0,.077.029.234.234,0,0,0,0,.031v.076a.084.084,0,0,1,0,.033c0,.006-.01.01-.016.015s-.022.015-.032.023-.012.01-.018.016-.034-.006-.04-.006a.168.168,0,0,0-.027.007.043.043,0,0,0-.013.018c0,.007-.005.007-.007.013a.089.089,0,0,0-.022.022.043.043,0,0,0-.005.022.144.144,0,0,1,.032-.016c.005.006.009.018.021.015a.286.286,0,0,0-.015.031.026.026,0,0,0,.005.016c-.01.019-.015.028-.013.037a.039.039,0,0,0,.011.018.159.159,0,0,1,.02-.028s.01.006.015.006a.178.178,0,0,1,.021.007c.032.01.015-.007.033-.028a.056.056,0,0,1,.012-.017c.005,0,.018-.015.022-.009a.111.111,0,0,0-.029.026.035.035,0,0,0-.009.018.042.042,0,0,0,.009.022.276.276,0,0,1,.025.015.053.053,0,0,0,.007.028.051.051,0,0,0,.016.013.179.179,0,0,1,0-.032c.021,0,.029,0,.034-.007s.012-.013.012-.022-.018-.027-.011-.037h.027a.017.017,0,0,0,.016-.006.1.1,0,0,0,.009-.022.086.086,0,0,1,.007-.022.016.016,0,0,1,.016-.007c.007,0,.013.006.018.007a.145.145,0,0,1,.018.035c.009.01.019-.01.021-.022a.048.048,0,0,0,0-.023.079.079,0,0,0-.012-.022.036.036,0,0,0-.015-.012.086.086,0,0,1,.015-.007.046.046,0,0,0,.015-.019.03.03,0,0,0-.005-.023.045.045,0,0,0-.016-.012H10c.005,0,.01-.006.015-.007s.013-.02.021-.028l.016-.016.032-.028h-.022a.093.093,0,0,0-.041.006.178.178,0,0,0-.029.022L10,11.466c0-.007.012-.012.015-.019a.035.035,0,0,0,0-.029.073.073,0,0,1,.018-.013.083.083,0,0,0,.021-.018c.007-.015,0-.034.007-.048a.115.115,0,0,1,.034-.04.06.06,0,0,1,.025-.007.1.1,0,0,0-.029-.015c-.01,0-.022.007-.032.012a.149.149,0,0,0-.032.023c-.007,0-.013-.015-.013-.015l-.021-.028.01-.006a.1.1,0,0,0,.015-.018c0-.007,0-.012,0-.018v-.035l0-.042a.279.279,0,0,1,.005-.049q0-.016.009-.031a.116.116,0,0,0-.025.015.1.1,0,0,0-.023.023.069.069,0,0,0-.009.028.294.294,0,0,1-.005.04c0,.012,0,.031-.012.033s-.015-.027-.027-.031a.1.1,0,0,0-.022.007c-.006.006-.01.011-.016.012a.023.023,0,0,1-.018-.012.081.081,0,0,1-.005-.035.364.364,0,0,1,0-.042c.018-.021.047-.006.068-.015s.02-.01.029-.017a.088.088,0,0,0,.024-.022A.212.212,0,0,0,10,11.018a.09.09,0,0,0,.006-.04A.116.116,0,0,0,10,10.942a.721.721,0,0,0-.11-.132.2.2,0,0,1-.034-.044.177.177,0,0,1-.013-.078.067.067,0,0,1,.006-.018.136.136,0,0,1,.007-.018.057.057,0,0,1,.012-.015h0l.005-.006h.018a.066.066,0,0,0,.033-.006c.011-.006.023-.007.032-.017a.1.1,0,0,0,.015-.027.177.177,0,0,0,.018-.042.289.289,0,0,0,.006-.051.268.268,0,0,0,0-.054.128.128,0,0,0-.012-.031.3.3,0,0,0-.025-.04.151.151,0,0,1-.024-.035.049.049,0,0,1,0-.034.036.036,0,0,1,.016-.018.138.138,0,0,0-.022.018.08.08,0,0,0-.01.018c0,.006-.012.015-.015.022a.1.1,0,0,0,0,.034.175.175,0,0,1,0,.033l0,.006a.093.093,0,0,1-.022.026c-.007.007-.022.013-.032.022a.292.292,0,0,0-.024.018A.091.091,0,0,0,9.8,10.5a.071.071,0,0,0,0,.022v.025a.186.186,0,0,0,0,.035.069.069,0,0,0,.012.022c0,.007.012.015.012.022s-.015.031-.018.048a.106.106,0,0,0,0,.045.253.253,0,0,0,.04.088c.011.017.029.028.04.044l.056.073a.128.128,0,0,1,.015.055.073.073,0,0,1-.006.04.04.04,0,0,1-.016.018.068.068,0,0,1-.038.006.065.065,0,0,1-.04-.01c-.01-.006-.015-.018-.022-.025l-.018-.018L9.8,10.979c-.015-.011-.032-.015-.044-.024s-.025-.021-.039-.029-.029-.015-.044-.022a.129.129,0,0,1-.033-.022.185.185,0,0,1-.022-.04.523.523,0,0,1-.033-.048c-.009-.018-.005-.04-.012-.055a.182.182,0,0,0,.015-.029c.006-.016.007-.034.012-.051l0-.009a.1.1,0,0,0,.018.015.064.064,0,0,0,.032.006.087.087,0,0,0,.025-.021.031.031,0,0,0,.007-.015c-.022,0-.032,0-.038-.009a.112.112,0,0,1-.007-.037h0a.046.046,0,0,0,.015-.011.076.076,0,0,0,.005-.039.129.129,0,0,0,0-.028l.029-.007.022-.015-.021-.021c-.007-.007-.016-.012-.021-.021a.148.148,0,0,1,0-.043.2.2,0,0,0,0-.055.1.1,0,0,0-.025-.029l.025-.018.015-.018s.007-.015-.005-.015a.453.453,0,0,1-.054.009l.047-.1c-.019-.013-.034-.011-.043,0a.028.028,0,0,0-.038.007.025.025,0,0,0,.007.035h.017l0,.006-.007.012c-.018.007-.026.007-.032,0a.034.034,0,0,1-.007-.015.085.085,0,0,1-.023.006.03.03,0,0,1-.022-.006c-.007-.006-.007-.022-.007-.025s.009,0,.015,0a.024.024,0,0,0,.024-.025.027.027,0,0,0-.015-.022c0-.028-.01-.038-.024-.038a.024.024,0,0,0-.025.026.025.025,0,0,0-.026.026.027.027,0,0,0,.027.025.022.022,0,0,1-.01.02s-.012.006-.018,0-.013-.006-.018-.007l-.01-.012c-.017.007-.025.015-.032.015S9.39,10.2,9.39,10.2s.007-.012.012-.012a.023.023,0,0,0,.022-.028.026.026,0,0,0-.029-.022.031.031,0,0,0-.025-.022l-.012-.007Zm-.066.31a.147.147,0,0,1,.047.009c.007.006.016.007.021.016a.114.114,0,0,1,0,.032l0,.026-.007.012-.012-.011a.119.119,0,0,0-.024-.013.1.1,0,0,0-.027-.006l-.005-.037V10.4Z" transform="translate(-8.719 -10.094)" fill="#9b1dad"/>
        <g id="Groupe_3752" data-name="Groupe 3752" transform="translate(0 1.79)">
          <path id="Tracé_4377" data-name="Tracé 4377" d="M9.42,12.545a.089.089,0,0,0-.083.072H9.23v-.006a.029.029,0,0,0-.027-.032H9.01a.03.03,0,0,0-.027.032v.006H8.844c-.022,0-.04.011-.04.023s.018.022.04.022h.139v.01a.03.03,0,0,0,.027.032H9.2a.03.03,0,0,0,.027-.032v-.015h.1c.007.037.032.073.065.076v.1H9.393a.03.03,0,0,0-.027.032v.222a.029.029,0,0,0,.027.031H9.4V13.2a.177.177,0,0,0-.073.032l-.034-.039,0-.006a.034.034,0,0,0,0-.044l-.137-.157a.024.024,0,0,0-.038,0l0,.006-.044-.049.005-.006a.034.034,0,0,0,0-.044l-.137-.157a.025.025,0,0,0-.039,0l-.037.042a.034.034,0,0,0,0,.044L9,12.978a.024.024,0,0,0,.038,0l0-.006.044.049-.005.006a.034.034,0,0,0,0,.044l.137.157a.025.025,0,0,0,.039,0l.005-.006.032.037a.172.172,0,0,0-.031.076H9.186v-.006a.029.029,0,0,0-.027-.031H8.965a.03.03,0,0,0-.027.031v.006H8.879a.09.09,0,0,0-.066-.072v-.12H8.82a.029.029,0,0,0,.027-.031v-.222a.03.03,0,0,0-.027-.032H8.769a.03.03,0,0,0-.027.032v.222a.029.029,0,0,0,.027.031h0v.121a.1.1,0,0,0,.008.193l.005.042-.015.006a.032.032,0,0,0-.019.037l.051.216a.029.029,0,0,0,.034.023l.022-.006.029.049a.1.1,0,0,0-.015.054.093.093,0,0,0,.086.1.073.073,0,0,0,.054-.022l.033.022-.006.013a.029.029,0,0,0,.012.04l.176.085a.028.028,0,0,0,.038-.016l.007-.018.06.012a.093.093,0,0,0,.087.094.092.092,0,0,0,.086-.1l.054-.011.007.018a.031.031,0,0,0,.038.016l.176-.085a.029.029,0,0,0,.012-.04l-.006-.013.033-.022a.081.081,0,0,0,.054.022.093.093,0,0,0,.086-.1.1.1,0,0,0-.015-.054l.029-.05L10,13.78c.015.006.029-.007.034-.023l.051-.216a.03.03,0,0,0-.019-.037l-.015-.006.005-.041a.094.094,0,0,0,.077-.1.1.1,0,0,0-.064-.094v-.121h0a.029.029,0,0,0,.027-.031v-.222a.029.029,0,0,0-.027-.032h0v-.132a.1.1,0,0,0,.064-.1.092.092,0,0,0-.086-.1.087.087,0,0,0-.083.072h-.1V12.6a.029.029,0,0,0-.027-.031H9.64a.03.03,0,0,0-.027.031v.006H9.5a.087.087,0,0,0-.082-.072h0Zm0,.042a.05.05,0,0,1,.045.035c-.01.006-.018.011-.018.019s.007.015.02.02a.059.059,0,0,1-.027.035c0-.022-.009-.04-.021-.04s-.02.018-.021.04a.062.062,0,0,1-.027-.034c.012-.006.022-.011.022-.021s-.007-.016-.019-.021a.05.05,0,0,1,.045-.034h0Zm.621,0a.054.054,0,0,1,.05.056.059.059,0,0,1-.028.051.036.036,0,0,0-.015-.029.072.072,0,0,1,0-.022c0-.013-.018-.023-.04-.023H10a.048.048,0,0,1,.044-.031v0Zm-1.006.026h.144c0,.012-.016.018-.016.028s.013.021.031.022a.015.015,0,0,1-.015.012H9.035a.016.016,0,0,1-.015-.012c.018,0,.032-.011.032-.022s-.012-.02-.029-.022Zm.628,0h.144c-.005.006-.018.018-.018.028s.015.021.034.022a.015.015,0,0,1-.015.012H9.656a.016.016,0,0,1-.015-.012c.018,0,.031-.012.031-.022s-.012-.019-.027-.022l.011-.006Zm-.16.051H9.61v.01a.03.03,0,0,0,.027.032h.194a.03.03,0,0,0,.027-.032v-.017h.1a.119.119,0,0,0,.016.04l-.039.044-.005-.006a.025.025,0,0,0-.019-.009.044.044,0,0,0-.02.009l-.137.157a.034.034,0,0,0,0,.044l.005.006-.044.049,0-.006a.025.025,0,0,0-.039,0l-.137.157a.034.034,0,0,0,0,.044l0,.006-.032.037a.15.15,0,0,0-.068-.028v-.087h.006a.029.029,0,0,0,.027-.031V12.86a.03.03,0,0,0-.027-.032H9.438v-.1a.092.092,0,0,0,.065-.076Zm.5.068a.031.031,0,0,0,.018.007v.131h-.007a.03.03,0,0,0-.027.032v.222a.029.029,0,0,0,.027.031h.007v.12a.1.1,0,0,0-.066.072H9.9v-.006a.029.029,0,0,0-.027-.031H9.674a.03.03,0,0,0-.027.031v.006H9.572a.119.119,0,0,0-.034-.073l.029-.033.005.006a.024.024,0,0,0,.038,0l.137-.157a.034.034,0,0,0,0-.044l-.005-.006.044-.049,0,.006a.025.025,0,0,0,.039,0l.137-.157a.034.034,0,0,0,0-.044l0-.006.042-.048h0Zm-1.076.044.114.122a.021.021,0,0,1,0,.018l-.007-.009c-.015-.016-.032-.022-.04-.013s0,.029.012.046l.007.007L8.9,12.825a.02.02,0,0,1,0-.027l.015-.018Zm.975,0-.01.015c-.015.016-.02.037-.012.045s.026.006.04-.013l.012-.013a.017.017,0,0,1,0,.015l-.1.117a.015.015,0,0,1-.015.006l.007-.01c.015-.016.02-.037.012-.046s-.026-.006-.04.013l-.007.01a.022.022,0,0,1,0-.018l.1-.117.012-.005Zm-.5.1c0,.022.01.039.021.039s.02-.018.021-.039c0,.006.007.009.007.015v.165a.019.019,0,0,1-.007.015v-.012c0-.022-.009-.041-.021-.041s-.021.018-.021.041v.012c0-.006-.007-.007-.007-.015v-.165A.016.016,0,0,1,9.4,12.878Zm-.618.031h.025a.017.017,0,0,1,.017.019v.165a.019.019,0,0,1-.01.017c0-.021-.01-.037-.021-.037s-.018.015-.02.034c0-.006-.005-.007-.005-.015v-.165a.019.019,0,0,1,.013-.019h0Zm1.242,0c0,.019.01.034.02.034s.018-.013.02-.031c0,.006.005.007.005.015v.165a.023.023,0,0,1-.005.015c0-.02-.01-.034-.02-.034s-.019.016-.021.037c-.005-.006-.01-.01-.01-.017v-.165a.021.021,0,0,1,.01-.018Zm-.877.117.114.122a.029.029,0,0,1,.005.016l-.027-.031c-.015-.016-.032-.022-.04-.013s0,.029.012.046l.027.031c-.005,0-.012,0-.015-.006l-.1-.117a.026.026,0,0,1,0-.018l.005.006c.015.016.032.022.04.013s0-.029-.012-.046l-.005-.006h0Zm.54,0,0,.006c-.015.016-.02.037-.012.046s.026.006.04-.013l.005-.006a.021.021,0,0,1,0,.018l-.1.117a.017.017,0,0,1-.016.006l.028-.032c.015-.016.02-.037.012-.046s-.026-.006-.04.013l-.027.031a.017.017,0,0,1,0-.015l.1-.117.012-.007Zm-.293.21v.006c0,.022.009.04.021.04s.021-.018.021-.04v-.006a.181.181,0,0,1,.047.02l0,.006c-.015.016-.02.037-.012.046s.026.006.04-.013l.005-.006a.135.135,0,0,1,.024.056h0c-.022,0-.04.01-.04.022s.018.022.04.022h.01a.139.139,0,0,1-.026.061l0-.006c-.015-.016-.032-.022-.04-.013s0,.029.012.046a.193.193,0,0,1-.044.018v-.007c0-.022-.009-.041-.021-.041s-.021.018-.021.041V13.5a.191.191,0,0,1-.047-.019c.012-.015.017-.035.01-.044s-.026-.006-.04.013a.135.135,0,0,1-.024-.059h.011c.022,0,.04-.01.04-.022s-.018-.022-.04-.022H9.3a.132.132,0,0,1,.021-.051h0c.015.016.032.022.04.013s0-.029-.012-.046h0a.115.115,0,0,1,.051-.022h0Zm-.587.076a.057.057,0,0,1,.029.029c-.022,0-.04.01-.04.022s.018.022.04.022h.007a.059.059,0,0,1-.025.029c0-.022-.015-.039-.025-.037s-.018.018-.016.038a.056.056,0,0,1-.031-.053.054.054,0,0,1,.029-.051c0,.012.01.022.018.022s.015-.009.018-.022h0Zm1.214,0c0,.013.01.022.018.022s.015-.007.018-.022a.056.056,0,0,1,.029.051h0a.056.056,0,0,1-.035.054c0-.022,0-.04-.015-.04s0-.01,0-.016-.018-.022-.04-.022H9.991a.047.047,0,0,1,.029-.029v0Zm-1.034.022h.144c.005,0,.01.006.013.007-.018,0-.031.012-.031.022s.013.021.032.022a.015.015,0,0,1-.015.01H8.984c-.006,0-.011-.006-.015-.009h.01c.022,0,.04-.01.04-.022s-.018-.022-.04-.022H8.97a.013.013,0,0,1,.013-.007h0Zm.711,0h.144c.005,0,.01.006.012.007H9.848c-.022,0-.04.01-.04.022s.018.022.04.022h.005a.015.015,0,0,1-.015.009H9.694c-.006,0-.011-.006-.015-.01.02,0,.037-.011.037-.022s-.015-.021-.034-.022a.013.013,0,0,1,.013-.007h0Zm-.821.054h.059a.03.03,0,0,0,.027.032h.194a.03.03,0,0,0,.027-.032h.079a.169.169,0,0,0,.034.083l-.064.073-.005-.006a.025.025,0,0,0-.039,0l-.137.157a.033.033,0,0,0,0,.042L9,13.8a.073.073,0,0,0-.04-.012.1.1,0,0,0-.042.012L8.9,13.766a.034.034,0,0,0,.009-.032l-.051-.216a.032.032,0,0,0-.031-.024l0-.037a.1.1,0,0,0,.059-.071h0Zm.693,0h.076a.029.029,0,0,0,.027.032h.194a.03.03,0,0,0,.027-.032h.06a.1.1,0,0,0,.054.07L10,13.5a.029.029,0,0,0-.031.024l-.051.216a.031.031,0,0,0,.01.032L9.91,13.8a.082.082,0,0,0-.042-.012.093.093,0,0,0-.041.012l-.05-.057,0-.006a.034.034,0,0,0,0-.044l-.137-.157a.024.024,0,0,0-.038,0l-.007.009-.063-.073a.169.169,0,0,0,.036-.084v0Zm-.242.113a.148.148,0,0,0,.068.028v.089H9.388a.03.03,0,0,0-.027.032v.222a.029.029,0,0,0,.027.031h.006V14a.092.092,0,0,0-.06.059l-.049-.01a.028.028,0,0,0-.012-.037L9.1,13.928a.028.028,0,0,0-.038.016h0l-.026-.018a.116.116,0,0,0,.009-.043.1.1,0,0,0-.015-.055l.051-.059.01.011a.024.024,0,0,0,.038,0l.137-.157a.034.034,0,0,0,0-.044l0-.006.066-.076v0Zm.175,0,.073.076h0a.034.034,0,0,0,0,.044l.137.157a.025.025,0,0,0,.039,0l.005-.006.048.055a.1.1,0,0,0-.015.055.136.136,0,0,0,.007.043l-.026.018v-.006a.029.029,0,0,0-.027-.018L9.554,14a.028.028,0,0,0-.012.037l-.043.007a.087.087,0,0,0-.06-.057v-.1h.006a.029.029,0,0,0,.027-.031v-.221a.03.03,0,0,0-.027-.032H9.439V13.52a.2.2,0,0,0,.066-.026V13.5Zm-.675.04.044.17-.005,0a.023.023,0,0,0-.031-.012.023.023,0,0,0-.005.032v.006c-.007,0-.012-.007-.015-.015l-.038-.16a.019.019,0,0,1,.007-.021l0,.021c0,.022.015.04.025.038s.018-.021.015-.043l0-.02h0Zm1.168,0,0,.019c0,.022,0,.042.015.043s.022-.016.025-.038l0-.021a.022.022,0,0,1,.007.021l-.039.16a.019.019,0,0,1-.015.015v-.006a.023.023,0,0,0-.005-.032.023.023,0,0,0-.031.012l-.005.007.038-.172.007-.007Zm-.365.028.114.122a.027.027,0,0,1,.005.015c-.012-.009-.024-.011-.031-.006s0,.022.005.037a.022.022,0,0,1-.018-.006l-.1-.117c.007,0,.022,0,.029,0s0-.028-.01-.044h.007Zm-.43,0c-.009.017-.013.037-.005.045s.023.006.037-.011a.015.015,0,0,1-.005.015l-.1.117a.015.015,0,0,1-.023,0,.035.035,0,0,0,0-.035c-.006-.007-.015-.006-.023,0l.106-.126.012,0Zm.2.088v.007c0,.022.009.04.021.04s.021-.018.021-.04v-.007c0,.006.007.01.007.015v.165a.016.016,0,0,1-.007.015v-.006c0-.022-.009-.041-.021-.041s-.021.018-.021.041v.006c0-.006-.007-.009-.007-.015v-.155a.015.015,0,0,1,.007-.015Zm-.44.165v.017c-.015.016-.02.037-.012.046s.026.006.04-.013L9,13.854A.069.069,0,0,1,9,13.879.053.053,0,0,1,9,13.9L9,13.9a.021.021,0,0,0-.032.006.023.023,0,0,0,.009.032h0c-.005,0-.011.006-.018.006a.054.054,0,0,1-.05-.056.064.064,0,0,1,0-.018.014.014,0,0,0,.021,0,.029.029,0,0,0,.005-.032.031.031,0,0,1,.022-.006h0Zm.912,0a.031.031,0,0,1,.022.006h0a.023.023,0,0,0,.005.032.015.015,0,0,0,.021,0,.051.051,0,0,1,0,.018.053.053,0,0,1-.05.056.022.022,0,0,1-.018-.006h0A.024.024,0,0,0,9.86,13.9a.025.025,0,0,0-.032-.006l-.009.006a.078.078,0,0,1,0-.022.076.076,0,0,1,.005-.025l.018.02c.015.016.032.022.04.013s0-.029-.012-.046l-.015-.017h.015Zm-.766.134.137.064c.005,0,.007.007.009.015H9.241c-.013,0-.025.006-.027.015a.024.024,0,0,0,.016.025.022.022,0,0,1-.018.006l-.131-.063c-.006-.006-.01-.01-.009-.016l.007.006A.021.021,0,0,0,9.111,14a.022.022,0,0,0-.007-.031l-.012-.007.01-.006Zm.619,0v.015A.023.023,0,0,0,9.709,14a.024.024,0,0,0,.032.006L9.748,14a.016.016,0,0,1-.007.016l-.131.063c-.006.006-.013,0-.018-.006.011-.006.018-.015.016-.025a.022.022,0,0,0-.028-.015H9.574a.021.021,0,0,1,.009-.015l.131-.064h.005Zm-.326.073c0,.021.01.035.02.035s.018-.015.02-.035a.07.07,0,0,1,.022.022H9.448a.021.021,0,0,0-.019.025.022.022,0,0,0,.028.015h.005a.052.052,0,0,1-.049.045.052.052,0,0,1-.049-.044.026.026,0,0,0,.026-.015.024.024,0,0,0-.019-.025h.007a.045.045,0,0,1,.022-.022h0Z" transform="translate(-8.709 -12.535)" fill="#cca02f" opacity="0.93"/>
          <path id="Tracé_4378" data-name="Tracé 4378" d="M8.825,12.548a.133.133,0,1,0,.115.132.122.122,0,0,0-.115-.13h0Zm0,.055a.066.066,0,0,1,.066.075c-.007.041-.029.076-.066.076a.076.076,0,0,1,0-.151h0Z" transform="translate(-8.709 -12.538)" fill="#cca02f"/>
        </g>
      </g>
      <path id="Tracé_4379" data-name="Tracé 4379" d="M8.814,12.7c.007-.009.026-.006.04.013l.11.127c.015.016.02.037.012.046s-.026.006-.04-.013l-.11-.127C8.811,12.725,8.806,12.7,8.814,12.7Z" transform="translate(-2.348 -3.383)" fill="#cca02f"/>
      <path id="Tracé_4380" data-name="Tracé 4380" d="M8.818,12.71c.012,0,.021.018.021.04v.2c0,.022-.01.04-.021.04s-.021-.018-.021-.04v-.2C8.8,12.728,8.807,12.71,8.818,12.71Z" transform="translate(-2.345 -3.388)" fill="#cca02f"/>
      <path id="Tracé_4381" data-name="Tracé 4381" d="M6.5,12.46v.807a1.24,1.24,0,0,0,.165.656V12.46Zm.337,0V14.1a.759.759,0,0,0,.173.091V12.46Zm.346,0v1.775a.8.8,0,0,0,.092.007.605.605,0,0,0,.081-.007V12.46Zm.347,0v1.729A.785.785,0,0,0,7.7,14.1V12.46H7.53Zm.346,0v1.476a.926.926,0,0,0,.171-.472v-1Z" transform="translate(-1.733 -3.321)" fill="#cca02f"/>
      <path id="Tracé_4382" data-name="Tracé 4382" d="M8.943,12.219a.6.6,0,0,1-.519.657.6.6,0,0,1-.519-.657.6.6,0,0,1,.519-.657A.6.6,0,0,1,8.943,12.219Z" transform="translate(-2.107 -3.082)" fill="#e22531"/>
      <path id="Tracé_4383" data-name="Tracé 4383" d="M8.835,12.306a.387.387,0,0,1-.337.422.433.433,0,0,1,0-.845A.387.387,0,0,1,8.835,12.306Z" transform="translate(-2.175 -3.168)" fill="#cca02f"/>
      <path id="Tracé_4384" data-name="Tracé 4384" d="M8.479,11.817a.482.482,0,0,0,0,.939.482.482,0,0,0,0-.939Zm-.159.171h0c.081.038.054.12.02.179-.011.02-.006.037-.007.062l.005-.034a.087.087,0,0,1,.044-.061.045.045,0,0,1,.048.006.052.052,0,0,1,.02.048.07.07,0,0,1-.059.044c.009-.018,0-.032-.007-.035s-.025.022-.029.037l.007.006a.013.013,0,0,1,.015.012c0,.006-.007.011-.015.011H8.359c0,.006.015.01.016.018a.02.02,0,0,1-.032,0,.033.033,0,0,1-.007-.022h0v.018a.105.105,0,0,1,.016.032.04.04,0,0,1-.007.028.186.186,0,0,1-.019.024.07.07,0,0,1-.022-.024.055.055,0,0,1-.006-.028.142.142,0,0,1,.016-.032v-.018h0a.052.052,0,0,1-.007.022.036.036,0,0,1-.025.012c-.006-.021.007-.026.007-.031h0a.013.013,0,0,1-.015-.011.015.015,0,0,1,.015-.012h.009c-.005-.021-.015-.045-.029-.042s-.017.018-.007.035a.067.067,0,0,1-.059-.044.05.05,0,0,1,.02-.048.035.035,0,0,1,.024-.007.034.034,0,0,1,.024.006A.083.083,0,0,1,8.3,12.2l.005.04h0v-.007a.124.124,0,0,0-.007-.062c-.034-.059-.062-.141.02-.179l0,0Zm.315,0h0c.081.038.054.12.02.179a.113.113,0,0,0-.007.062v.007h0l.005-.04a.087.087,0,0,1,.044-.061.037.037,0,0,1,.025-.006.1.1,0,0,1,.023.007.048.048,0,0,1,.021.048.07.07,0,0,1-.059.044c.009-.018,0-.032-.007-.035s-.026.022-.029.037l.007.006c.009,0,.016.006.016.012s-.007.011-.016.011H8.674c0,.006.015.01.016.018a.02.02,0,0,1-.032,0,.033.033,0,0,1-.007-.022h0v.018a.105.105,0,0,1,.016.032.04.04,0,0,1-.007.028.186.186,0,0,1-.019.024.07.07,0,0,1-.022-.024.079.079,0,0,1-.007-.028.1.1,0,0,1,.016-.032v-.018h0a.052.052,0,0,1-.007.022.036.036,0,0,1-.025.012c-.006-.021.007-.026.007-.031h0a.013.013,0,0,1-.015-.011.015.015,0,0,1,.015-.012H8.6c-.005-.021-.015-.045-.031-.042s-.017.018-.007.035a.067.067,0,0,1-.059-.044.049.049,0,0,1,.021-.048.035.035,0,0,1,.023-.007.037.037,0,0,1,.025.006.083.083,0,0,1,.044.061l.005.04h0v-.007a.124.124,0,0,0-.007-.062c-.034-.059-.062-.141.021-.179h0Zm-.158.329h0a.081.081,0,0,1,.054.086.128.128,0,0,1-.029.084.075.075,0,0,0-.012.04.056.056,0,0,1,0,.022l0-.028a.1.1,0,0,1,.017-.037.055.055,0,0,1,.027-.022.045.045,0,0,1,.048.006.052.052,0,0,1,.02.048.07.07,0,0,1-.059.044c.009-.018,0-.032-.007-.035s-.026.021-.029.037l.007.006c.009,0,.016.006.016.012s-.007.012-.016.012h0c0,.006.015.01.016.018s-.015.012-.018.007a.051.051,0,0,1-.012-.011.076.076,0,0,1-.006-.015l0-.006V12.6a.105.105,0,0,1,.016.032.041.041,0,0,1-.007.028.146.146,0,0,1-.019.024.07.07,0,0,1-.022-.024.055.055,0,0,1-.006-.028.142.142,0,0,1,.016-.032v-.018h0c0,.016-.005.018-.007.021a.034.034,0,0,1-.025.012c-.006-.021.007-.026.007-.029h0a.013.013,0,0,1-.015-.012.014.014,0,0,1,.015-.012h.009c-.005-.021-.015-.045-.031-.042s-.016.015-.012.029-.016,0-.025,0l-.022-.019a.021.021,0,0,1-.007-.016.05.05,0,0,1,.02-.048c.013-.006.015-.006.018-.006h.019a.091.091,0,0,1,.055.073l0,.022a.143.143,0,0,1,0,.018h0v-.007a.1.1,0,0,1,0-.029.063.063,0,0,0-.007-.032.144.144,0,0,1-.034-.1.087.087,0,0,1,.054-.084h.005Z" transform="translate(-2.161 -3.15)" fill="#2b59ab"/>
      <path id="Tracé_4385" data-name="Tracé 4385" d="M8.811,14.779,8.8,14.81c-.026.026-.051.062-.086.071-.075.019-.153-.012-.2.07l-.027.028V14.9L8.429,14.9l-.007.073L8.4,14.954c-.047-.082-.125-.051-.2-.071-.037-.009-.059-.044-.086-.07L8.1,14.781a.3.3,0,0,0,.023.133.189.189,0,0,0,.09.071.247.247,0,0,0,.081.007.221.221,0,0,0,.069.013.107.107,0,0,0,.038-.013h.015a.185.185,0,0,0,0,.076l.066-.006v-.084h.024a.175.175,0,0,0,.038.013.475.475,0,0,0,.069-.013.7.7,0,0,0,.081-.009.183.183,0,0,0,.09-.07.318.318,0,0,0,.023-.134l0,.005Z" transform="translate(-2.16 -3.936)" fill="#008c24"/>
      <path id="Tracé_4386" data-name="Tracé 4386" d="M8.639,14.654c0,.077-.039.139-.088.139s-.088-.062-.088-.139.039-.139.088-.139S8.639,14.577,8.639,14.654Z" transform="translate(-2.256 -3.869)" fill="#e22531"/>
      <path id="Tracé_4387" data-name="Tracé 4387" d="M8.569,14.312a.17.17,0,0,0-.026.139.374.374,0,0,0-.083-.085.11.11,0,0,0,.044.116c-.044-.029-.219.147-.123.319a.543.543,0,0,0,.16.139h.088c.057-.05.156-.071.172-.15a.232.232,0,0,0-.164-.315.205.205,0,0,0,.05-.088.187.187,0,0,0-.081.065c.025-.053-.011-.1-.037-.139h0Zm0,.22a.188.188,0,0,1,.093.255.271.271,0,0,1-.073.1.381.381,0,0,1-.076-.092.2.2,0,0,1,.056-.258h0Z" transform="translate(-2.226 -3.815)" fill="#ef9e2e"/>
      <path id="Tracé_4388" data-name="Tracé 4388" d="M12.092,9.593a.321.321,0,0,0,.035-.115c0-.032,0-.059-.04-.087a.116.116,0,0,0-.1-.016.419.419,0,0,0-.26.031c-.012.01-.043-.02-.043-.02s-.022.051-.044.021c-.047-.073-.26-.029-.26-.029s-.044-.021-.106.033.006.169.006.169l.028.06.066.073s.012.006.037.092c.28-.067.389-.076.539,0l.047-.092.1-.119Z" transform="translate(-2.998 -2.496)" fill="#e22531"/>
      <path id="Tracé_4389" data-name="Tracé 4389" d="M11.882,9.3a.051.051,0,0,1-.049.051.051.051,0,1,1,.049-.053Z" transform="translate(-3.141 -2.466)" fill="#2b59ab"/>
      <path id="Tracé_4390" data-name="Tracé 4390" d="M11.664,9.16c.011.015.015.022.012.028s-.017-.006-.025-.013v.039a.03.03,0,0,1,.022-.012.024.024,0,0,1,0,.025l0,.006v.032h-.032a.088.088,0,0,0,0,.029h.032c-.011.024-.025.042-.032.062s-.005.013-.005.019a.065.065,0,0,0,0,.044.1.1,0,0,0,.029.04l-.012.056a.816.816,0,0,0-.132-.2.146.146,0,0,1-.054-.006.025.025,0,0,0-.025-.021.026.026,0,0,0-.025.022.12.12,0,0,0-.043.012,1.389,1.389,0,0,1,.26.242c-.009.016-.019.024-.029.015s.006-.007.006-.013a.018.018,0,0,0-.018-.018.017.017,0,0,0-.018.018.016.016,0,0,0,.006.013c-.027.047-.061.022-.093-.012a.117.117,0,0,0,.022.013.063.063,0,0,0,.037.006c.012,0,.01-.013,0-.017s-.018-.007-.007-.007.018,0,.022-.009a.021.021,0,0,0-.005-.028.024.024,0,0,0-.027.006c.007-.011.016-.021.01-.029s-.019-.006-.026,0l-.012.017L11.5,9.5a.024.024,0,0,0,0-.024c0-.007-.007-.006-.012-.007s-.01.01-.015.015a.029.029,0,0,0,0-.023.025.025,0,0,0-.026-.012.021.021,0,0,0-.018.015.031.031,0,0,0,.013.029l-.015-.007c-.015.012-.015.023-.01.031a.2.2,0,0,0,.022.02.086.086,0,0,0-.023-.011c-.009,0-.025,0-.022.013s.015.012.023.013c-.012,0-.025,0-.029.015a.02.02,0,0,0,.007.028c.008.006.016,0,.024,0s-.007.015-.006.022.013,0,.02,0a.077.077,0,0,0,.033-.035c-.005.038-.02.063-.064.048,0-.018-.007-.026-.016-.026a.018.018,0,0,0-.018.018.016.016,0,0,0,.012.018c-.01.026-.033.02-.059.01a.044.044,0,0,0,.026-.006.039.039,0,0,0,.016-.013.012.012,0,0,0-.009-.012.041.041,0,0,0,0-.037.031.031,0,0,0-.025-.006.062.062,0,0,0-.01.018V9.573a.011.011,0,0,0-.009-.012c-.006,0-.015.007-.018.015l0,.021,0-.021a.021.021,0,0,0-.012-.018c-.011,0-.015,0-.015.006v.021a.074.074,0,0,0,0-.018c0-.006-.011-.006-.016-.006a.025.025,0,0,0-.018.016.215.215,0,0,1,.049.039.02.02,0,0,0,.005.026.031.031,0,0,0,.029.007.079.079,0,0,0,.054.022v.006a.019.019,0,0,0-.015.007c.015.007.017.007.021,0l.015.035.007.028c-.01.013-.007.015-.005.015a1.014,1.014,0,0,1,.557,0l.01-.042.022-.037A.018.018,0,0,0,12,9.678L12,9.667a.071.071,0,0,0,.047-.023.039.039,0,0,0,.023-.006c.009-.006.018-.018.015-.025a.154.154,0,0,1,.047-.039c-.015-.013-.017-.013-.022-.013s-.015.021-.015.021V9.57a.042.042,0,0,0-.015-.007c-.009.006-.013.007-.015.015l0,.022a.152.152,0,0,1,0-.022c-.007-.015-.012-.015-.017-.015-.01.018-.007.024,0,.029s-.007-.012-.015-.018A.041.041,0,0,0,12,9.58c0,.013,0,.02,0,.024L12,9.61l0,.006c-.006,0-.007.007-.01.012l0,.006L12,9.639a.063.063,0,0,0,.032.006c-.033.011-.057.011-.064-.013a.018.018,0,0,0,.02-.018h0a.018.018,0,0,0-.018-.018.017.017,0,0,0-.018.018c-.056.034-.059-.015-.068-.044a.127.127,0,0,0,.037.04l.01.006h.01a.014.014,0,0,0,0-.015l-.01-.012.018.011c.006,0,.012,0,.021-.015a.029.029,0,0,0-.01-.025c-.007-.006-.015,0-.021,0s.012-.006.019-.013-.007-.019-.012-.021l-.032.011h0l.019-.016a.023.023,0,0,0,.005-.022l-.007-.011-.007.006-.01.006h0l.01-.011,0-.011a.031.031,0,0,0-.016-.021.039.039,0,0,0-.029.011l0,.011.005.015V9.5l0-.006-.007-.01-.005-.006-.012.006a.025.025,0,0,0-.005.022l.011.022h0v.006l-.015-.019a.035.035,0,0,0-.022-.005c0,.021.005.026.012.028a.049.049,0,0,1-.021-.006c-.007.006-.016.007-.02.019s.007.02.012.022h.01l0,.007a.015.015,0,0,0,0,.015h.021a.07.07,0,0,0,.027-.009c-.021.028-.049.044-.081.006.007,0,.011-.01.011-.017a.02.02,0,0,0-.018-.018.018.018,0,0,0-.018.018.018.018,0,0,0,.007.015c-.007.007-.018,0-.027-.022A1.342,1.342,0,0,1,12,9.33a.2.2,0,0,0-.043-.012.024.024,0,0,0-.025-.022.024.024,0,0,0-.024.021.228.228,0,0,0-.054.006.864.864,0,0,0-.129.2l-.013-.048a.078.078,0,0,0,.027-.037.1.1,0,0,0,0-.065.117.117,0,0,0-.037-.05l.032-.011a.033.033,0,0,0,0-.015L11.7,9.282l0-.032h0a.043.043,0,0,1-.009-.029.049.049,0,0,1,.025.012V9.194c-.007.007-.015.015-.023.015s0-.013.005-.02l-.037-.007,0-.017Z" transform="translate(-2.995 -2.442)" fill="#cca02f"/>
      <path id="Tracé_4391" data-name="Tracé 4391" d="M9.655,8.37a1.282,1.282,0,0,0,.139-.464c-.009-.129.013-.235-.161-.35a.482.482,0,0,0-.42-.073,1.681,1.681,0,0,0-1.046.125c-.051.039-.172-.079-.172-.079s-.088.208-.177.081c-.191-.267-1.047-.117-1.047-.117s-.18-.083-.425.134.025.677.025.677l.114.242.268.3s.049.016.147.37c1.13-.271,1.57-.306,2.173,0L9.26,8.84l.394-.477Z" transform="translate(-1.664 -1.986)" fill="#e22531"/>
      <path id="Tracé_4392" data-name="Tracé 4392" d="M8.755,7.21a.2.2,0,1,1-.2-.2.2.2,0,0,1,.2.2v0Z" transform="translate(-2.227 -1.867)" fill="#2b59ab"/>
      <path id="Tracé_4393" data-name="Tracé 4393" d="M7.889,6.627c.007.011.018.021.025.033.021.028.034.054.022.078-.039.007-.068-.026-.1-.056v.157A.127.127,0,0,1,7.93,6.79a.105.105,0,0,1-.017.106.122.122,0,0,1-.012.018H7.92l-.007.126-.128.01a.165.165,0,0,0-.005.054.162.162,0,0,0,.007.062l.128.007a.079.079,0,0,0,.022.043.458.458,0,0,0-.154.205.228.228,0,0,0-.015.054.121.121,0,0,1-.005.019.26.26,0,0,0,0,.175.374.374,0,0,0,.119.161l-.047.225A3.41,3.41,0,0,0,7.3,7.235l-.217-.012a.1.1,0,0,0-.1-.083.1.1,0,0,0-.1.092.8.8,0,0,0-.17.048,5.387,5.387,0,0,1,1.046.981c-.037.073-.077.1-.121.062a.073.073,0,0,0,.025-.054.072.072,0,1,0-.119.054c-.111.191-.246.087-.376-.051l.088.054a.191.191,0,0,0,.145.019c.043.006.039-.051.012-.068s-.075-.029-.029-.029.072,0,.088-.037A.078.078,0,0,0,7.449,8.1c-.034-.04-.078-.009-.11.018s-.022-.01,0-.015.068-.059.047-.1-.078-.015-.106.007l-.051.068c-.01.018,0-.006-.007,0l.032-.068a.092.092,0,0,0,0-.1c-.007-.022-.034-.024-.051-.035s-.037.041-.055.056-.007.007,0-.007a.117.117,0,0,0,.01-.1.112.112,0,0,0-.106-.047.11.11,0,0,0-.07.064.06.06,0,0,0,0,.051c.006.029.035.046.055.073-.015,0-.042-.022-.06-.031s-.026,0-.037.012a.082.082,0,0,0,0,.1c.027.029.062.051.088.079a.865.865,0,0,0-.1-.044c-.034-.011-.1.007-.09.054s.059.05.1.054.007.022-.012.013c-.04-.019-.092-.015-.106.035a.079.079,0,0,0,.034.11c.031.025.066,0,.1-.01s.005.007,0,.018a.075.075,0,0,0-.022.073c.007.042.054.007.079.006A.28.28,0,0,0,7.133,8.3c-.021.147-.073.254-.257.191a.077.077,0,0,0,.005-.029.074.074,0,0,0-.072-.073.073.073,0,0,0-.019.143c-.039.1-.133.079-.235.04a.3.3,0,0,0,.106-.013.137.137,0,0,0,.047-.029A.063.063,0,0,0,6.729,8.5a.051.051,0,0,0-.037-.051.114.114,0,0,0-.044.006c.02-.015.037-.032.056-.047a.107.107,0,0,0,0-.1.113.113,0,0,0-.1-.022.238.238,0,0,0-.04.073c-.01.015-.017.007-.015-.007a.112.112,0,0,0,.021-.068.044.044,0,0,0-.037-.048.1.1,0,0,0-.07.064l-.01.081L6.442,8.3a.079.079,0,0,0-.051-.07.065.065,0,0,0-.034-.007.038.038,0,0,0-.029.015l-.005.081c-.006-.023,0-.048-.012-.07s-.044-.016-.066-.015a.093.093,0,0,0-.07.073l.04.019a.659.659,0,0,1,.159.133c0,.006-.007.007-.01.012-.015.029.007.062.029.081a.126.126,0,0,0,.115.035.275.275,0,0,0,.22.085l.005.013c-.034.013-.055.018-.055.032v.01a.034.034,0,0,0,.044.027.328.328,0,0,1,.038-.012l.062.143L6.855,9a.057.057,0,0,1-.022.01.031.031,0,0,0-.018.029c0,.016.007.031.018.027a4.108,4.108,0,0,1,2.248,0c.011.006.021-.012.021-.027a.033.033,0,0,0-.021-.029l.04-.114.09-.145c.006,0,.012.006.018.006a.034.034,0,0,0,.044-.027v-.01c0-.012-.015-.018-.029-.022l.007-.012a.323.323,0,0,0,.187-.1.112.112,0,0,0,.1-.015c.047-.027.07-.072.055-.1a.565.565,0,0,1,.191-.165.125.125,0,0,0-.015-.031.1.1,0,0,1-.017-.018.076.076,0,0,0-.059-.019.054.054,0,0,0-.044.013.148.148,0,0,0-.012.06l0,.013V8.294l0-.044s0-.022,0-.029-.019-.006-.029-.006H9.572a.087.087,0,0,0-.059.062L9.5,8.367a.561.561,0,0,1-.013-.081.266.266,0,0,0-.018-.035.1.1,0,0,0-.049-.029.045.045,0,0,0-.038.037.113.113,0,0,0,.021.079c0,.021,0,.022-.015.007a.242.242,0,0,0-.04-.073.113.113,0,0,0-.1.022.107.107,0,0,0,0,.1l.032.025c.015.015-.006-.006.029.022l-.045-.006c-.024.006-.032.026-.038.047l.012.022.032.025a.244.244,0,0,0,.127.025c-.133.046-.23.044-.257-.054a.075.075,0,0,0,.081-.073.071.071,0,0,0-.072-.071.073.073,0,0,0-.072.073.086.086,0,0,0,.007.033c-.232.1-.24-.1-.284-.205.046.051.07.117.144.158l.042.015.04.007a.056.056,0,0,0,.01-.06L9,8.326a.217.217,0,0,0,.037.012l.038.013c.023,0,.049-.011.084-.059a.123.123,0,0,0-.038-.1.12.12,0,0,0-.085.007c-.032-.007-.024-.007,0-.018a.117.117,0,0,0,.081-.029.046.046,0,0,0,.01-.054.105.105,0,0,0-.055-.027.1.1,0,0,0-.04.006l-.088.043.012-.007H8.942l.077-.073a.092.092,0,0,0,.018-.089L9,7.9l-.029.013-.04.022-.015.006.013-.007.042-.044.012-.044a.109.109,0,0,0-.066-.083c-.021.013-.023.013-.029.013a.129.129,0,0,0-.1.047l-.01.044.021.059.005.015L8.8,7.932l-.026-.039-.018-.022-.047.022a.1.1,0,0,0-.021.089l.044.092L8.73,8.069l.007.013L8.677,8a.172.172,0,0,0-.034-.019.094.094,0,0,0-.06,0,.042.042,0,0,0-.015.051.115.115,0,0,0,.062.06c.007.02.013.02-.01.015a.24.24,0,0,0-.073-.044.122.122,0,0,0-.079.078c.011.057.029.081.051.089l.042.006c.022.006-.01,0,.037.006l-.054.027a.059.059,0,0,0-.015.062l.04.007.042.006a.221.221,0,0,0,.111-.037c-.085.114-.2.181-.327.019a.073.073,0,0,0,.044-.068.072.072,0,0,0-.144,0,.073.073,0,0,0,.032.06c-.032.032-.07-.007-.11-.088a5.273,5.273,0,0,1,1.027-.961.879.879,0,0,0-.17-.048.1.1,0,0,0-.2-.01c-.06,0-.132.006-.22.012a3.374,3.374,0,0,0-.52.794l-.054-.2a.352.352,0,0,0,.111-.153.382.382,0,0,0-.007-.261.5.5,0,0,0-.149-.2.069.069,0,0,0,.022-.044l.108-.006A.17.17,0,0,0,8.176,7.1h0a.172.172,0,0,0,0-.051l-.128-.01-.01-.126h.01l-.01-.019a.116.116,0,0,1-.026-.1.1.1,0,0,1,.1.043V6.68c-.029.029-.06.064-.1.056-.015-.023,0-.05.021-.078.007-.012.015-.022.022-.033H7.881Z" transform="translate(-1.646 -1.766)" fill="#cca02f"/>
      <path id="Tracé_4394" data-name="Tracé 4394" d="M9.611,14.524a.652.652,0,0,0-.132.041c-.029.007-.086.015-.086.015v.114l.087-.021c.044-.013.084-.048.128-.051.094-.007.182.079.276.078s.161-.071.245-.073a1.283,1.283,0,0,1,.169.041.969.969,0,0,0,.123.007v-.1a1.008,1.008,0,0,1-.121-.007,1.467,1.467,0,0,0-.169-.044c-.081,0-.159.059-.241.06s-.183-.069-.279-.065v0Zm-4.077.01c-.088.007-.173.065-.26.064s-.158-.061-.241-.06a1.119,1.119,0,0,0-.169.044.941.941,0,0,1-.121.007v.1a.973.973,0,0,0,.122-.007,1.109,1.109,0,0,1,.169-.041c.084,0,.161.072.245.072s.183-.082.277-.077c.044,0,.084.037.128.051s.088.02.088.02v-.114l-.086-.015a.722.722,0,0,0-.132-.041H5.535v0Zm4.077.213a.655.655,0,0,0-.132.042.841.841,0,0,1-.086.013v.114l.087-.021c.044-.013.084-.048.128-.051.094-.007.182.079.276.078s.161-.071.245-.073a1.283,1.283,0,0,1,.169.041.969.969,0,0,0,.123.007v-.1a1.008,1.008,0,0,1-.121-.007,1.467,1.467,0,0,0-.169-.044c-.081,0-.159.059-.241.06s-.183-.069-.279-.065v0Zm-4.077.01c-.088.007-.173.066-.26.064s-.158-.06-.241-.059a1.118,1.118,0,0,0-.169.044.626.626,0,0,1-.121,0v.1a.973.973,0,0,0,.122-.007,1.109,1.109,0,0,1,.169-.041c.084,0,.161.072.245.073s.183-.083.277-.078c.044,0,.084.037.128.051s.088.021.088.021V14.81l-.086-.015a.722.722,0,0,0-.132-.041H5.535v0Zm4.077.214a.655.655,0,0,0-.132.042c-.029.007-.086.015-.086.015v.114l.087-.021a.7.7,0,0,1,.128-.051c.094-.007.182.078.276.078s.161-.071.245-.073a1.283,1.283,0,0,1,.169.041.969.969,0,0,0,.123.007v-.1a1.008,1.008,0,0,1-.121-.007,1.467,1.467,0,0,0-.169-.044c-.081,0-.159.059-.241.06s-.183-.069-.279-.065v0Zm-4.077.01c-.088.007-.173.066-.26.065s-.158-.061-.241-.06a1.118,1.118,0,0,0-.169.044.626.626,0,0,1-.121,0v.1a1.146,1.146,0,0,0,.122-.007,1.109,1.109,0,0,1,.169-.041c.084,0,.161.072.245.073s.183-.083.277-.078c.044,0,.084.037.128.051s.088.021.088.021v-.114l-.086-.015a.787.787,0,0,0-.132-.042H5.535v.006Z" transform="translate(-1.264 -3.87)" fill="#2b59ab"/>
    </g>
  </g>
</svg>
