<svg width="125" height="38" viewBox="0 0 125 38" fill="none" xmlns="http://www.w3.org/2000/svg">
<g id="LOGO 07ZR">
<g id="Vector">
<path d="M33.5697 28.9267C33.5697 29.8967 33.2453 31.0283 32.5561 32.2812C31.9074 33.5746 31.0155 34.6658 29.8397 35.555C28.7045 36.4845 27.4071 36.9292 25.9881 36.9292H8.14916C7.0545 36.9292 5.87875 36.5654 4.62191 35.8783C3.32453 35.1508 2.22987 34.3021 1.33792 33.2512C0.445974 32.2004 0 31.19 0 30.3008V6.75621C0 6.14996 0.243258 5.42247 0.770319 4.65456C1.25684 3.88665 1.94607 3.15915 2.75693 2.47208C3.56779 1.785 4.50028 1.21917 5.47332 0.774592C6.44635 0.330013 7.37884 0.12793 8.27079 0.12793H23.8799C25.6638 0.12793 27.326 0.532095 28.7856 1.3C30.2857 2.10833 31.4614 3.11874 32.3128 4.33123C33.1643 5.58413 33.5697 6.75621 33.5697 7.9687V28.9267ZM25.38 26.0975V10.6766C25.38 9.34285 24.8935 8.41328 23.9204 7.88786C22.9474 7.36245 21.8527 7.07954 20.677 7.07954H12.4467C11.1088 7.07954 10.0141 7.56453 9.1222 8.41327C8.1897 9.2216 7.70319 10.1512 7.70319 11.202V25.5317C7.70319 28.4013 8.96002 29.8159 11.3115 29.8159H21.6095C22.4609 29.8159 23.1501 29.6138 23.7177 29.2096C24.2853 28.8054 24.6907 28.28 24.9745 27.7142C25.2584 27.1484 25.38 26.623 25.38 26.0975Z" fill="#0A2463"/>
<path d="M70.5881 6.82051H36.4508V0.151821H70.5881V6.82051ZM68.472 11.1451L47.2731 36.9292H36.9346L58.62 11.1451H68.472Z" fill="#0A2463"/>
</g>
<g id="Vector_2">
<path d="M95.4264 4.59335H72.8256V0.103516H95.4264V4.59335ZM96.0526 18.8112H72.2266V14.5886L82.6011 7.3995H91.8048L81.4847 14.1877H96.0526V18.8112Z" fill="#FB3640"/>
<path d="M124.682 18.8112H117.548L111.911 11.6755H104.804V18.8112H99.2768V7.18569H116.513C116.867 7.18569 117.194 7.05207 117.548 6.81154C117.875 6.57101 118.038 6.22359 118.038 5.76926C118.038 5.44856 117.956 5.20803 117.793 4.99423C117.63 4.80715 117.412 4.67352 117.167 4.59335C116.895 4.48645 116.622 4.45972 116.323 4.45972H99.2768V0.103516H120.08C121.061 0.103516 121.905 0.450943 122.586 1.11907C123.294 1.81393 123.648 2.64241 123.648 3.60452V8.28143C123.648 9.10991 123.484 9.75131 123.13 10.2056C122.776 10.66 122.368 10.9807 121.905 11.141C121.442 11.3281 120.897 11.435 120.271 11.5152C119.645 11.5954 119.291 11.6488 119.182 11.6755L124.682 18.8112Z" fill="#FB3640"/>
</g>
<g id="POUR LES PROS DE L&#39;AUTO">
<path id="Vector_3" d="M121.688 37.6187C121.313 37.6187 120.962 37.5486 120.637 37.4084C120.312 37.2683 120.026 37.0755 119.781 36.8302C119.536 36.5799 119.343 36.292 119.203 35.9666C119.068 35.6362 119 35.2833 119 34.9078C119 34.5323 119.068 34.1819 119.203 33.8565C119.343 33.5311 119.533 33.2457 119.773 33.0004C120.019 32.7501 120.302 32.5573 120.622 32.4222C120.947 32.282 121.298 32.2119 121.673 32.2119C122.049 32.2119 122.397 32.282 122.717 32.4222C123.043 32.5573 123.328 32.7501 123.573 33.0004C123.819 33.2457 124.009 33.5336 124.144 33.864C124.284 34.1894 124.354 34.5398 124.354 34.9153C124.354 35.2908 124.284 35.6437 124.144 35.9741C124.009 36.2995 123.819 36.5849 123.573 36.8302C123.333 37.0755 123.05 37.2683 122.725 37.4084C122.404 37.5486 122.059 37.6187 121.688 37.6187ZM121.673 36.7927C122.029 36.7927 122.339 36.7126 122.605 36.5524C122.875 36.3922 123.085 36.1719 123.235 35.8915C123.391 35.6062 123.468 35.2783 123.468 34.9078C123.468 34.6325 123.423 34.3821 123.333 34.1569C123.248 33.9266 123.125 33.7288 122.965 33.5636C122.805 33.3934 122.615 33.2632 122.394 33.1731C122.179 33.083 121.939 33.038 121.673 33.038C121.323 33.038 121.013 33.1181 120.742 33.2783C120.477 33.4334 120.267 33.6512 120.111 33.9316C119.961 34.2119 119.886 34.5373 119.886 34.9078C119.886 35.1831 119.929 35.4385 120.014 35.6738C120.104 35.904 120.227 36.1018 120.382 36.267C120.542 36.4322 120.732 36.5624 120.952 36.6575C121.173 36.7476 121.413 36.7927 121.673 36.7927Z" fill="#0A2463"/>
<path id="Vector_4" d="M114.763 37.5437V32.4373H115.627V37.5437H114.763ZM113.051 33.0756V32.2871H117.339V33.0756H113.051Z" fill="#0A2463"/>
<path id="Vector_5" d="M108.172 37.6188C107.776 37.6188 107.421 37.5287 107.105 37.3485C106.79 37.1682 106.54 36.9229 106.354 36.6125C106.174 36.2971 106.084 35.9417 106.084 35.5462V32.2871H106.948V35.5387C106.948 35.794 107 36.0168 107.105 36.207C107.215 36.3923 107.363 36.5374 107.548 36.6426C107.734 36.7427 107.941 36.7928 108.172 36.7928C108.407 36.7928 108.615 36.7427 108.795 36.6426C108.975 36.5374 109.118 36.3923 109.223 36.207C109.328 36.0168 109.381 35.7965 109.381 35.5462V32.2871H110.244V35.5537C110.244 35.9492 110.154 36.3022 109.974 36.6125C109.794 36.9229 109.548 37.1682 109.238 37.3485C108.928 37.5287 108.572 37.6188 108.172 37.6188Z" fill="#0A2463"/>
<path id="Vector_6" d="M98.4209 37.5437L100.584 32.2871H101.184L103.332 37.5437H102.401L100.719 33.2859H101.034L99.337 37.5437H98.4209ZM99.4872 36.5299V35.779H102.273V36.5299H99.4872Z" fill="#0A2463"/>
<path id="Vector_7" d="M95.7922 34.1352L95.6045 32.1377H96.5056L96.3179 34.1352H95.7922Z" fill="#0A2463"/>
<path id="Vector_8" d="M90.042 37.5437V32.2871H90.9056V37.5437H90.042ZM90.6352 37.5437V36.7552H93.3837V37.5437H90.6352Z" fill="#0A2463"/>
<path id="Vector_9" d="M79.7529 37.5437V32.2871H80.6165V37.5437H79.7529ZM80.3462 37.5437V36.7552H83.2899V37.5437H80.3462ZM80.3462 35.2383V34.4799H83.0346V35.2383H80.3462ZM80.3462 33.0756V32.2871H83.2523V33.0756H80.3462Z" fill="#0A2463"/>
<path id="Vector_10" d="M72.6098 37.5437V36.7552H73.9916C74.352 36.7552 74.6674 36.6776 74.9378 36.5224C75.2131 36.3672 75.4259 36.152 75.5761 35.8766C75.7313 35.5963 75.8089 35.2734 75.8089 34.9079C75.8089 34.5474 75.7313 34.2295 75.5761 33.9542C75.4209 33.6789 75.2056 33.4636 74.9303 33.3084C74.6599 33.1532 74.347 33.0756 73.9916 33.0756H72.6098V32.2871H74.0141C74.3946 32.2871 74.7475 32.3547 75.0729 32.4899C75.3983 32.62 75.6812 32.8053 75.9215 33.0456C76.1668 33.2809 76.3571 33.5587 76.4922 33.8791C76.6274 34.1945 76.695 34.5399 76.695 34.9154C76.695 35.2859 76.6274 35.6313 76.4922 35.9517C76.3571 36.2721 76.1693 36.5525 75.929 36.7928C75.6887 37.0281 75.4059 37.2133 75.0804 37.3485C74.755 37.4786 74.4046 37.5437 74.0291 37.5437H72.6098ZM72.0166 37.5437V32.2871H72.8802V37.5437H72.0166Z" fill="#0A2463"/>
<path id="Vector_11" d="M122.536 29.147C122.121 29.147 121.768 29.0719 121.477 28.9217C121.187 28.7716 120.927 28.5513 120.696 28.2609L121.282 27.6752C121.427 27.8854 121.6 28.0506 121.8 28.1708C122 28.2859 122.256 28.3435 122.566 28.3435C122.856 28.3435 123.087 28.2834 123.257 28.1633C123.432 28.0431 123.52 27.8779 123.52 27.6677C123.52 27.4924 123.475 27.3498 123.385 27.2396C123.295 27.1295 123.174 27.0394 123.024 26.9693C122.879 26.8942 122.716 26.8291 122.536 26.774C122.361 26.714 122.183 26.6489 122.003 26.5788C121.828 26.5037 121.665 26.4111 121.515 26.3009C121.37 26.1908 121.252 26.0481 121.162 25.8729C121.072 25.6977 121.027 25.4749 121.027 25.2046C121.027 24.8942 121.102 24.6314 121.252 24.4161C121.407 24.1958 121.615 24.0281 121.875 23.913C122.136 23.7978 122.426 23.7402 122.746 23.7402C123.092 23.7402 123.4 23.8078 123.67 23.943C123.945 24.0782 124.168 24.2509 124.338 24.4611L123.753 25.0469C123.602 24.8767 123.445 24.7515 123.28 24.6714C123.119 24.5863 122.934 24.5437 122.724 24.5437C122.464 24.5437 122.258 24.5963 122.108 24.7014C121.963 24.8066 121.89 24.9543 121.89 25.1445C121.89 25.3047 121.935 25.4349 122.025 25.535C122.116 25.6301 122.233 25.7127 122.378 25.7828C122.529 25.8479 122.691 25.9105 122.867 25.9705C123.047 26.0306 123.224 26.0982 123.4 26.1733C123.58 26.2484 123.743 26.346 123.888 26.4662C124.038 26.5813 124.158 26.7315 124.248 26.9167C124.338 27.102 124.383 27.3347 124.383 27.6151C124.383 28.0857 124.216 28.4587 123.88 28.734C123.55 29.0094 123.102 29.147 122.536 29.147Z" fill="#0A2463"/>
<path id="Vector_12" d="M117.817 29.147C117.442 29.147 117.091 29.0769 116.766 28.9368C116.441 28.7966 116.155 28.6038 115.91 28.3585C115.665 28.1082 115.472 27.8204 115.332 27.4949C115.196 27.1645 115.129 26.8116 115.129 26.4361C115.129 26.0606 115.196 25.7102 115.332 25.3848C115.472 25.0594 115.662 24.774 115.902 24.5287C116.148 24.2784 116.431 24.0857 116.751 23.9505C117.076 23.8103 117.427 23.7402 117.802 23.7402C118.178 23.7402 118.526 23.8103 118.846 23.9505C119.171 24.0857 119.457 24.2784 119.702 24.5287C119.947 24.774 120.138 25.0619 120.273 25.3923C120.413 25.7177 120.483 26.0682 120.483 26.4436C120.483 26.8191 120.413 27.172 120.273 27.5025C120.138 27.8279 119.947 28.1132 119.702 28.3585C119.462 28.6038 119.179 28.7966 118.854 28.9368C118.533 29.0769 118.188 29.147 117.817 29.147ZM117.802 28.321C118.158 28.321 118.468 28.2409 118.733 28.0807C119.004 27.9205 119.214 27.7002 119.364 27.4199C119.519 27.1345 119.597 26.8066 119.597 26.4361C119.597 26.1608 119.552 25.9105 119.462 25.6852C119.377 25.4549 119.254 25.2571 119.094 25.0919C118.934 24.9217 118.743 24.7916 118.523 24.7014C118.308 24.6113 118.068 24.5663 117.802 24.5663C117.452 24.5663 117.141 24.6464 116.871 24.8066C116.606 24.9618 116.395 25.1795 116.24 25.4599C116.09 25.7402 116.015 26.0657 116.015 26.4361C116.015 26.7115 116.058 26.9668 116.143 27.2021C116.233 27.4324 116.355 27.6301 116.511 27.7953C116.671 27.9605 116.861 28.0907 117.081 28.1858C117.302 28.2759 117.542 28.321 117.802 28.321Z" fill="#0A2463"/>
<path id="Vector_13" d="M111.595 26.8417V26.1283H112.924C113.19 26.1283 113.395 26.0607 113.54 25.9256C113.69 25.7854 113.765 25.5927 113.765 25.3474C113.765 25.1271 113.693 24.9418 113.548 24.7917C113.402 24.6415 113.197 24.5664 112.932 24.5664H111.595V23.8154H112.969C113.3 23.8154 113.59 23.883 113.841 24.0182C114.091 24.1483 114.284 24.3286 114.419 24.5589C114.559 24.7841 114.629 25.042 114.629 25.3323C114.629 25.6377 114.559 25.9031 114.419 26.1283C114.284 26.3536 114.091 26.5288 113.841 26.654C113.59 26.7792 113.3 26.8417 112.969 26.8417H111.595ZM111.002 29.072V23.8154H111.866V29.072H111.002ZM113.886 29.072L112.046 26.7892L112.849 26.4963L114.974 29.072H113.886Z" fill="#0A2463"/>
<path id="Vector_14" d="M107.265 27.0895V26.3386H108.579C108.759 26.3386 108.917 26.3036 109.052 26.2335C109.193 26.1584 109.303 26.0557 109.383 25.9256C109.463 25.7904 109.503 25.6327 109.503 25.4525C109.503 25.2723 109.463 25.1171 109.383 24.9869C109.303 24.8517 109.193 24.7491 109.052 24.679C108.917 24.6039 108.759 24.5664 108.579 24.5664H107.265V23.8154H108.624C108.955 23.8154 109.25 23.883 109.51 24.0182C109.776 24.1534 109.984 24.3436 110.134 24.5889C110.289 24.8342 110.367 25.1221 110.367 25.4525C110.367 25.7829 110.289 26.0708 110.134 26.3161C109.984 26.5614 109.776 26.7516 109.51 26.8868C109.25 27.022 108.955 27.0895 108.624 27.0895H107.265ZM106.672 29.072V23.8154H107.535V29.072H106.672Z" fill="#0A2463"/>
<path id="Vector_15" d="M102.761 29.147C102.345 29.147 101.992 29.0719 101.702 28.9217C101.412 28.7716 101.151 28.5513 100.921 28.2609L101.507 27.6752C101.652 27.8854 101.825 28.0506 102.025 28.1708C102.225 28.2859 102.48 28.3435 102.791 28.3435C103.081 28.3435 103.311 28.2834 103.482 28.1633C103.657 28.0431 103.744 27.8779 103.744 27.6677C103.744 27.4924 103.699 27.3498 103.609 27.2396C103.519 27.1295 103.399 27.0394 103.249 26.9693C103.104 26.8942 102.941 26.8291 102.761 26.774C102.585 26.714 102.408 26.6489 102.228 26.5788C102.052 26.5037 101.89 26.4111 101.739 26.3009C101.594 26.1908 101.477 26.0481 101.386 25.8729C101.296 25.6977 101.251 25.4749 101.251 25.2046C101.251 24.8942 101.326 24.6314 101.477 24.4161C101.632 24.1958 101.84 24.0281 102.1 23.913C102.36 23.7978 102.651 23.7402 102.971 23.7402C103.316 23.7402 103.624 23.8078 103.895 23.943C104.17 24.0782 104.393 24.2509 104.563 24.4611L103.977 25.0469C103.827 24.8767 103.669 24.7515 103.504 24.6714C103.344 24.5863 103.159 24.5437 102.948 24.5437C102.688 24.5437 102.483 24.5963 102.333 24.7014C102.187 24.8066 102.115 24.9543 102.115 25.1445C102.115 25.3047 102.16 25.4349 102.25 25.535C102.34 25.6301 102.458 25.7127 102.603 25.7828C102.753 25.8479 102.916 25.9105 103.091 25.9705C103.271 26.0306 103.449 26.0982 103.624 26.1733C103.805 26.2484 103.967 26.346 104.112 26.4662C104.263 26.5813 104.383 26.7315 104.473 26.9167C104.563 27.102 104.608 27.3347 104.608 27.6151C104.608 28.0857 104.44 28.4587 104.105 28.734C103.774 29.0094 103.326 29.147 102.761 29.147Z" fill="#0A2463"/>
<path id="Vector_16" d="M97.1484 29.072V23.8154H98.012V29.072H97.1484ZM97.7417 29.072V28.2835H100.685V29.072H97.7417ZM97.7417 26.7666V26.0082H100.43V26.7666H97.7417ZM97.7417 24.6039V23.8154H100.648V24.6039H97.7417Z" fill="#0A2463"/>
<path id="Vector_17" d="M93.1709 29.072V23.8154H94.0345V29.072H93.1709ZM93.7641 29.072V28.2835H96.5126V29.072H93.7641Z" fill="#0A2463"/>
<path id="Vector_18" d="M87.8452 26.8417V26.1283H89.1744C89.4397 26.1283 89.645 26.0607 89.7901 25.9256C89.9403 25.7854 90.0154 25.5927 90.0154 25.3474C90.0154 25.1271 89.9428 24.9418 89.7977 24.7917C89.6525 24.6415 89.4472 24.5664 89.1819 24.5664H87.8452V23.8154H89.2194C89.5498 23.8154 89.8402 23.883 90.0905 24.0182C90.3408 24.1483 90.5336 24.3286 90.6687 24.5589C90.8089 24.7841 90.879 25.042 90.879 25.3323C90.879 25.6377 90.8089 25.9031 90.6687 26.1283C90.5336 26.3536 90.3408 26.5288 90.0905 26.654C89.8402 26.7792 89.5498 26.8417 89.2194 26.8417H87.8452ZM87.252 29.072V23.8154H88.1155V29.072H87.252ZM90.1356 29.072L88.2958 26.7892L89.0993 26.4963L91.2244 29.072H90.1356Z" fill="#0A2463"/>
<path id="Vector_19" d="M84.2458 29.1471C83.8503 29.1471 83.4949 29.057 83.1795 28.8768C82.8641 28.6966 82.6138 28.4513 82.4285 28.1409C82.2483 27.8255 82.1582 27.47 82.1582 27.0745V23.8154H83.0218V27.067C83.0218 27.3223 83.0744 27.5451 83.1795 27.7354C83.2896 27.9206 83.4373 28.0658 83.6225 28.1709C83.8078 28.271 84.0155 28.3211 84.2458 28.3211C84.4811 28.3211 84.6889 28.271 84.8691 28.1709C85.0493 28.0658 85.192 27.9206 85.2971 27.7354C85.4023 27.5451 85.4548 27.3248 85.4548 27.0745V23.8154H86.3184V27.082C86.3184 27.4775 86.2283 27.8305 86.0481 28.1409C85.8679 28.4513 85.6226 28.6966 85.3122 28.8768C85.0018 29.057 84.6463 29.1471 84.2458 29.1471Z" fill="#0A2463"/>
<path id="Vector_20" d="M78.8241 29.147C78.4486 29.147 78.0982 29.0769 77.7728 28.9368C77.4474 28.7966 77.162 28.6038 76.9167 28.3585C76.6714 28.1082 76.4787 27.8204 76.3385 27.4949C76.2033 27.1645 76.1357 26.8116 76.1357 26.4361C76.1357 26.0606 76.2033 25.7102 76.3385 25.3848C76.4787 25.0594 76.6689 24.774 76.9092 24.5287C77.1545 24.2784 77.4374 24.0857 77.7578 23.9505C78.0832 23.8103 78.4336 23.7402 78.8091 23.7402C79.1846 23.7402 79.5325 23.8103 79.8529 23.9505C80.1783 24.0857 80.4637 24.2784 80.709 24.5287C80.9543 24.774 81.1445 25.0619 81.2797 25.3923C81.4199 25.7177 81.49 26.0682 81.49 26.4436C81.49 26.8191 81.4199 27.172 81.2797 27.5025C81.1445 27.8279 80.9543 28.1132 80.709 28.3585C80.4687 28.6038 80.1858 28.7966 79.8604 28.9368C79.54 29.0769 79.1946 29.147 78.8241 29.147ZM78.8091 28.321C79.1645 28.321 79.4749 28.2409 79.7403 28.0807C80.0106 27.9205 80.2209 27.7002 80.3711 27.4199C80.5263 27.1345 80.6039 26.8066 80.6039 26.4361C80.6039 26.1608 80.5588 25.9105 80.4687 25.6852C80.3836 25.4549 80.2609 25.2571 80.1007 25.0919C79.9405 24.9217 79.7503 24.7916 79.53 24.7014C79.3147 24.6113 79.0744 24.5663 78.8091 24.5663C78.4587 24.5663 78.1483 24.6464 77.8779 24.8066C77.6126 24.9618 77.4023 25.1795 77.2471 25.4599C77.0969 25.7402 77.0219 26.0657 77.0219 26.4361C77.0219 26.7115 77.0644 26.9668 77.1495 27.2021C77.2396 27.4324 77.3623 27.6301 77.5175 27.7953C77.6777 27.9605 77.8679 28.0907 78.0882 28.1858C78.3085 28.2759 78.5488 28.321 78.8091 28.321Z" fill="#0A2463"/>
<path id="Vector_21" d="M72.6098 27.0895V26.3386H73.924C74.1042 26.3386 74.2619 26.3036 74.3971 26.2335C74.5373 26.1584 74.6474 26.0557 74.7275 25.9256C74.8076 25.7904 74.8477 25.6327 74.8477 25.4525C74.8477 25.2723 74.8076 25.1171 74.7275 24.9869C74.6474 24.8517 74.5373 24.7491 74.3971 24.679C74.2619 24.6039 74.1042 24.5664 73.924 24.5664H72.6098V23.8154H73.9691C74.2995 23.8154 74.5948 23.883 74.8552 24.0182C75.1205 24.1534 75.3283 24.3436 75.4784 24.5889C75.6336 24.8342 75.7112 25.1221 75.7112 25.4525C75.7112 25.7829 75.6336 26.0708 75.4784 26.3161C75.3283 26.5614 75.1205 26.7516 74.8552 26.8868C74.5948 27.022 74.2995 27.0895 73.9691 27.0895H72.6098ZM72.0166 29.072V23.8154H72.8802V29.072H72.0166Z" fill="#0A2463"/>
</g>
</g>
</svg>
