<svg width="636" height="185" viewBox="0 0 636 185" fill="none" xmlns="http://www.w3.org/2000/svg">
<path d="M164.998 141.667C164.998 146.435 163.403 151.997 160.016 158.155C156.827 164.512 152.443 169.875 146.665 174.246C141.085 178.815 134.708 181 127.734 181H40.0538C34.6734 181 28.8945 179.212 22.7171 175.835C16.3403 172.259 10.96 168.088 6.57599 162.923C2.192 157.758 0 152.792 0 148.421V32.6976C0 29.7178 1.19563 26.1421 3.78618 22.3678C6.17745 18.5935 9.56508 15.0178 13.5505 11.6407C17.536 8.26367 22.1192 5.48258 26.9018 3.29745C31.6843 1.11231 36.2676 0.119049 40.6516 0.119049H117.372C126.14 0.119049 134.31 2.10555 141.483 5.87989C148.857 9.85287 154.635 14.8191 158.82 20.7786C163.005 26.9367 164.998 32.6976 164.998 38.657V141.667ZM124.745 127.762V51.9665C124.745 45.4111 122.353 40.8422 117.571 38.2597C112.788 35.6773 107.408 34.2867 101.629 34.2867H61.1767C54.6007 34.2867 49.2203 36.6705 44.8363 40.8422C40.253 44.8152 37.8618 49.3841 37.8618 54.549V124.981C37.8618 139.085 44.0392 146.038 55.597 146.038H106.212C110.397 146.038 113.785 145.044 116.574 143.058C119.364 141.071 121.357 138.489 122.752 135.708C124.147 132.927 124.745 130.344 124.745 127.762Z" fill="white"/>
<path d="M346.946 33.0136H179.158V0.236476H346.946V33.0136ZM336.545 54.2691L232.351 181H181.536L288.122 54.2691H336.545Z" fill="white"/>
<path d="M469.029 22.0679H357.944V0H469.029V22.0679ZM472.107 91.9495H355V71.1952L405.992 35.8603H451.229L400.504 69.2249H472.107V91.9495Z" fill="#FB3640"/>
<path d="M612.824 91.9495H577.759L550.054 56.8774H515.123V91.9495H487.954V34.8095H572.673C574.413 34.8095 576.019 34.1527 577.759 32.9705C579.365 31.7883 580.168 30.0806 580.168 27.8476C580.168 26.2713 579.766 25.0891 578.963 24.0382C578.16 23.1187 577.089 22.462 575.885 22.0679C574.547 21.5425 573.208 21.4111 571.736 21.4111H487.954V0H590.205C595.024 0 599.172 1.70763 602.518 4.99155C605.998 8.40681 607.738 12.4789 607.738 17.2077V40.1951C607.738 44.2671 606.935 47.4197 605.195 49.6527C603.455 51.8858 601.448 53.4621 599.172 54.2502C596.897 55.1697 594.221 55.6951 591.142 56.0892C588.064 56.4833 586.324 56.746 585.789 56.8774L612.824 91.9495Z" fill="#FB3640"/>
<path d="M356.655 129.47V126.272H364.026C365.04 126.272 365.937 126.064 366.717 125.648C367.523 125.232 368.147 124.647 368.589 123.893C369.057 123.139 369.291 122.242 369.291 121.202C369.291 120.162 369.057 119.265 368.589 118.511C368.147 117.757 367.523 117.172 366.717 116.756C365.937 116.34 365.04 116.132 364.026 116.132H356.655V112.934H364.26C365.924 112.934 367.406 113.272 368.706 113.948C370.032 114.624 371.072 115.586 371.826 116.834C372.606 118.056 372.996 119.512 372.996 121.202C372.996 122.866 372.606 124.322 371.826 125.57C371.072 126.792 370.032 127.754 368.706 128.456C367.406 129.132 365.924 129.47 364.26 129.47H356.655ZM354.198 140V112.934H357.864V140H354.198ZM389.393 140.39C387.469 140.39 385.675 140.039 384.011 139.337C382.347 138.609 380.891 137.608 379.643 136.334C378.395 135.034 377.42 133.539 376.718 131.849C376.042 130.159 375.704 128.352 375.704 126.428C375.704 124.478 376.042 122.671 376.718 121.007C377.42 119.317 378.382 117.835 379.604 116.561C380.852 115.287 382.295 114.299 383.933 113.597C385.597 112.895 387.391 112.544 389.315 112.544C391.239 112.544 393.02 112.895 394.658 113.597C396.322 114.299 397.778 115.287 399.026 116.561C400.274 117.835 401.249 119.317 401.951 121.007C402.653 122.697 403.004 124.517 403.004 126.467C403.004 128.391 402.653 130.198 401.951 131.888C401.249 133.578 400.274 135.06 399.026 136.334C397.804 137.608 396.361 138.609 394.697 139.337C393.059 140.039 391.291 140.39 389.393 140.39ZM389.315 136.88C391.265 136.88 392.968 136.438 394.424 135.554C395.906 134.644 397.076 133.409 397.934 131.849C398.792 130.263 399.221 128.456 399.221 126.428C399.221 124.92 398.974 123.542 398.48 122.294C397.986 121.02 397.297 119.915 396.413 118.979C395.529 118.043 394.489 117.328 393.293 116.834C392.097 116.314 390.771 116.054 389.315 116.054C387.391 116.054 385.688 116.496 384.206 117.38C382.75 118.264 381.593 119.486 380.735 121.046C379.903 122.606 379.487 124.4 379.487 126.428C379.487 127.936 379.721 129.34 380.189 130.64C380.683 131.914 381.359 133.019 382.217 133.955C383.101 134.865 384.141 135.58 385.337 136.1C386.559 136.62 387.885 136.88 389.315 136.88ZM417.393 140.39C415.391 140.39 413.597 139.948 412.011 139.064C410.451 138.154 409.216 136.919 408.306 135.359C407.396 133.773 406.941 131.979 406.941 129.977V112.934H410.607V129.899C410.607 131.329 410.906 132.564 411.504 133.604C412.102 134.644 412.908 135.45 413.922 136.022C414.962 136.594 416.119 136.88 417.393 136.88C418.719 136.88 419.876 136.594 420.864 136.022C421.878 135.45 422.671 134.644 423.243 133.604C423.841 132.564 424.14 131.342 424.14 129.938V112.934H427.845V130.016C427.845 132.018 427.39 133.799 426.48 135.359C425.57 136.919 424.335 138.154 422.775 139.064C421.215 139.948 419.421 140.39 417.393 140.39ZM435.552 128.222V125.141H442.884C444.47 125.141 445.692 124.738 446.55 123.932C447.408 123.126 447.837 122.034 447.837 120.656C447.837 119.356 447.408 118.277 446.55 117.419C445.718 116.561 444.509 116.132 442.923 116.132H435.552V112.934H443.04C444.756 112.934 446.251 113.272 447.525 113.948C448.799 114.598 449.774 115.495 450.45 116.639C451.152 117.783 451.503 119.096 451.503 120.578C451.503 122.112 451.152 123.451 450.45 124.595C449.774 125.739 448.799 126.636 447.525 127.286C446.251 127.91 444.756 128.222 443.04 128.222H435.552ZM433.095 140V112.934H436.761V140H433.095ZM448.695 140L438.867 127.871L442.338 126.662L453.336 140H448.695ZM464.213 140V112.934H467.879V140H464.213ZM466.709 140V136.646H481.217V140H466.709ZM484.952 140V112.934H488.618V140H484.952ZM487.448 140V136.646H502.97V140H487.448ZM487.448 127.754V124.556H501.683V127.754H487.448ZM487.448 116.288V112.934H502.775V116.288H487.448ZM514.017 140.39C511.885 140.39 510.065 140 508.557 139.22C507.049 138.44 505.71 137.309 504.54 135.827L507.036 133.331C507.894 134.527 508.882 135.437 510 136.061C511.118 136.659 512.496 136.958 514.134 136.958C515.746 136.958 517.033 136.607 517.995 135.905C518.983 135.203 519.477 134.241 519.477 133.019C519.477 132.005 519.243 131.186 518.775 130.562C518.307 129.938 517.67 129.431 516.864 129.041C516.084 128.625 515.226 128.261 514.29 127.949C513.354 127.611 512.418 127.26 511.482 126.896C510.546 126.506 509.688 126.038 508.908 125.492C508.128 124.92 507.491 124.179 506.997 123.269C506.529 122.359 506.295 121.215 506.295 119.837C506.295 118.303 506.659 117.003 507.387 115.937C508.141 114.845 509.155 114.013 510.429 113.441C511.729 112.843 513.185 112.544 514.797 112.544C516.565 112.544 518.151 112.895 519.555 113.597C520.959 114.273 522.103 115.17 522.987 116.288L520.491 118.784C519.685 117.848 518.814 117.146 517.878 116.678C516.968 116.21 515.915 115.976 514.719 115.976C513.263 115.976 512.106 116.301 511.248 116.951C510.39 117.575 509.961 118.459 509.961 119.603C509.961 120.513 510.195 121.254 510.663 121.826C511.157 122.372 511.794 122.84 512.574 123.23C513.354 123.62 514.212 123.984 515.148 124.322C516.11 124.634 517.059 124.985 517.995 125.375C518.931 125.765 519.789 126.259 520.569 126.857C521.349 127.455 521.973 128.235 522.441 129.197C522.935 130.133 523.182 131.316 523.182 132.746C523.182 135.138 522.35 137.01 520.686 138.362C519.048 139.714 516.825 140.39 514.017 140.39ZM537.132 129.47V126.272H544.503C545.517 126.272 546.414 126.064 547.194 125.648C548 125.232 548.624 124.647 549.066 123.893C549.534 123.139 549.768 122.242 549.768 121.202C549.768 120.162 549.534 119.265 549.066 118.511C548.624 117.757 548 117.172 547.194 116.756C546.414 116.34 545.517 116.132 544.503 116.132H537.132V112.934H544.737C546.401 112.934 547.883 113.272 549.183 113.948C550.509 114.624 551.549 115.586 552.303 116.834C553.083 118.056 553.473 119.512 553.473 121.202C553.473 122.866 553.083 124.322 552.303 125.57C551.549 126.792 550.509 127.754 549.183 128.456C547.883 129.132 546.401 129.47 544.737 129.47H537.132ZM534.675 140V112.934H538.341V140H534.675ZM559.699 128.222V125.141H567.031C568.617 125.141 569.839 124.738 570.697 123.932C571.555 123.126 571.984 122.034 571.984 120.656C571.984 119.356 571.555 118.277 570.697 117.419C569.865 116.561 568.656 116.132 567.07 116.132H559.699V112.934H567.187C568.903 112.934 570.398 113.272 571.672 113.948C572.946 114.598 573.921 115.495 574.597 116.639C575.299 117.783 575.65 119.096 575.65 120.578C575.65 122.112 575.299 123.451 574.597 124.595C573.921 125.739 572.946 126.636 571.672 127.286C570.398 127.91 568.903 128.222 567.187 128.222H559.699ZM557.242 140V112.934H560.908V140H557.242ZM572.842 140L563.014 127.871L566.485 126.662L577.483 140H572.842ZM592.399 140.39C590.475 140.39 588.681 140.039 587.017 139.337C585.353 138.609 583.897 137.608 582.649 136.334C581.401 135.034 580.426 133.539 579.724 131.849C579.048 130.159 578.71 128.352 578.71 126.428C578.71 124.478 579.048 122.671 579.724 121.007C580.426 119.317 581.388 117.835 582.61 116.561C583.858 115.287 585.301 114.299 586.939 113.597C588.603 112.895 590.397 112.544 592.321 112.544C594.245 112.544 596.026 112.895 597.664 113.597C599.328 114.299 600.784 115.287 602.032 116.561C603.28 117.835 604.255 119.317 604.957 121.007C605.659 122.697 606.01 124.517 606.01 126.467C606.01 128.391 605.659 130.198 604.957 131.888C604.255 133.578 603.28 135.06 602.032 136.334C600.81 137.608 599.367 138.609 597.703 139.337C596.065 140.039 594.297 140.39 592.399 140.39ZM592.321 136.88C594.271 136.88 595.974 136.438 597.43 135.554C598.912 134.644 600.082 133.409 600.94 131.849C601.798 130.263 602.227 128.456 602.227 126.428C602.227 124.92 601.98 123.542 601.486 122.294C600.992 121.02 600.303 119.915 599.419 118.979C598.535 118.043 597.495 117.328 596.299 116.834C595.103 116.314 593.777 116.054 592.321 116.054C590.397 116.054 588.694 116.496 587.212 117.38C585.756 118.264 584.599 119.486 583.741 121.046C582.909 122.606 582.493 124.4 582.493 126.428C582.493 127.936 582.727 129.34 583.195 130.64C583.689 131.914 584.365 133.019 585.223 133.955C586.107 134.865 587.147 135.58 588.343 136.1C589.565 136.62 590.891 136.88 592.321 136.88ZM617.024 140.39C614.892 140.39 613.072 140 611.564 139.22C610.056 138.44 608.717 137.309 607.547 135.827L610.043 133.331C610.901 134.527 611.889 135.437 613.007 136.061C614.125 136.659 615.503 136.958 617.141 136.958C618.753 136.958 620.04 136.607 621.002 135.905C621.99 135.203 622.484 134.241 622.484 133.019C622.484 132.005 622.25 131.186 621.782 130.562C621.314 129.938 620.677 129.431 619.871 129.041C619.091 128.625 618.233 128.261 617.297 127.949C616.361 127.611 615.425 127.26 614.489 126.896C613.553 126.506 612.695 126.038 611.915 125.492C611.135 124.92 610.498 124.179 610.004 123.269C609.536 122.359 609.302 121.215 609.302 119.837C609.302 118.303 609.666 117.003 610.394 115.937C611.148 114.845 612.162 114.013 613.436 113.441C614.736 112.843 616.192 112.544 617.804 112.544C619.572 112.544 621.158 112.895 622.562 113.597C623.966 114.273 625.11 115.17 625.994 116.288L623.498 118.784C622.692 117.848 621.821 117.146 620.885 116.678C619.975 116.21 618.922 115.976 617.726 115.976C616.27 115.976 615.113 116.301 614.255 116.951C613.397 117.575 612.968 118.459 612.968 119.603C612.968 120.513 613.202 121.254 613.67 121.826C614.164 122.372 614.801 122.84 615.581 123.23C616.361 123.62 617.219 123.984 618.155 124.322C619.117 124.634 620.066 124.985 621.002 125.375C621.938 125.765 622.796 126.259 623.576 126.857C624.356 127.455 624.98 128.235 625.448 129.197C625.942 130.133 626.189 131.316 626.189 132.746C626.189 135.138 625.357 137.01 623.693 138.362C622.055 139.714 619.832 140.39 617.024 140.39ZM356.616 184V180.646H364.143C366.145 180.646 367.9 180.217 369.408 179.359C370.916 178.475 372.086 177.266 372.918 175.732C373.776 174.198 374.205 172.43 374.205 170.428C374.205 168.452 373.776 166.697 372.918 165.163C372.06 163.629 370.877 162.433 369.369 161.575C367.861 160.717 366.119 160.288 364.143 160.288H356.655V156.934H364.221C366.197 156.934 368.017 157.272 369.681 157.948C371.371 158.624 372.827 159.573 374.049 160.795C375.297 162.017 376.259 163.447 376.935 165.085C377.637 166.723 377.988 168.517 377.988 170.467C377.988 172.391 377.637 174.185 376.935 175.849C376.259 177.487 375.31 178.917 374.088 180.139C372.866 181.361 371.41 182.31 369.72 182.986C368.056 183.662 366.249 184 364.299 184H356.616ZM354.198 184V156.934H357.864V184H354.198ZM394.377 184V156.934H398.043V184H394.377ZM396.873 184V180.646H412.395V184H396.873ZM396.873 171.754V168.556H411.108V171.754H396.873ZM396.873 160.288V156.934H412.2V160.288H396.873ZM448.113 184V156.934H451.779V184H448.113ZM450.609 184V180.646H465.117V184H450.609ZM477.826 165.67L477.007 156.154H480.868L480.049 165.67H477.826ZM491.253 184L502.329 156.934H504.981L516.018 184H512.04L502.953 161.107H504.318L495.153 184H491.253ZM496.518 177.877V174.679H510.753V177.877H496.518ZM541.238 184.39C539.236 184.39 537.442 183.948 535.856 183.064C534.296 182.154 533.061 180.919 532.151 179.359C531.241 177.773 530.786 175.979 530.786 173.977V156.934H534.452V173.899C534.452 175.329 534.751 176.564 535.349 177.604C535.947 178.644 536.753 179.45 537.767 180.022C538.807 180.594 539.964 180.88 541.238 180.88C542.564 180.88 543.721 180.594 544.709 180.022C545.723 179.45 546.516 178.644 547.088 177.604C547.686 176.564 547.985 175.342 547.985 173.938V156.934H551.69V174.016C551.69 176.018 551.235 177.799 550.325 179.359C549.415 180.919 548.18 182.154 546.62 183.064C545.06 183.948 543.266 184.39 541.238 184.39ZM575.825 184V157.714H579.491V184H575.825ZM566.621 160.288V156.934H588.656V160.288H566.621ZM614.678 184.39C612.754 184.39 610.96 184.039 609.296 183.337C607.632 182.609 606.176 181.608 604.928 180.334C603.68 179.034 602.705 177.539 602.003 175.849C601.327 174.159 600.989 172.352 600.989 170.428C600.989 168.478 601.327 166.671 602.003 165.007C602.705 163.317 603.667 161.835 604.889 160.561C606.137 159.287 607.58 158.299 609.218 157.597C610.882 156.895 612.676 156.544 614.6 156.544C616.524 156.544 618.305 156.895 619.943 157.597C621.607 158.299 623.063 159.287 624.311 160.561C625.559 161.835 626.534 163.317 627.236 165.007C627.938 166.697 628.289 168.517 628.289 170.467C628.289 172.391 627.938 174.198 627.236 175.888C626.534 177.578 625.559 179.06 624.311 180.334C623.089 181.608 621.646 182.609 619.982 183.337C618.344 184.039 616.576 184.39 614.678 184.39ZM614.6 180.88C616.55 180.88 618.253 180.438 619.709 179.554C621.191 178.644 622.361 177.409 623.219 175.849C624.077 174.263 624.506 172.456 624.506 170.428C624.506 168.92 624.259 167.542 623.765 166.294C623.271 165.02 622.582 163.915 621.698 162.979C620.814 162.043 619.774 161.328 618.578 160.834C617.382 160.314 616.056 160.054 614.6 160.054C612.676 160.054 610.973 160.496 609.491 161.38C608.035 162.264 606.878 163.486 606.02 165.046C605.188 166.606 604.772 168.4 604.772 170.428C604.772 171.936 605.006 173.34 605.474 174.64C605.968 175.914 606.644 177.019 607.502 177.955C608.386 178.865 609.426 179.58 610.622 180.1C611.844 180.62 613.17 180.88 614.6 180.88Z" fill="white"/>
</svg>
