<svg width="613" height="185" viewBox="0 0 613 185" fill="none" xmlns="http://www.w3.org/2000/svg">
<path d="M164.998 141.667C164.998 146.435 163.403 151.997 160.016 158.155C156.827 164.512 152.443 169.875 146.665 174.246C141.085 178.815 134.708 181 127.734 181H40.0538C34.6734 181 28.8945 179.212 22.7171 175.835C16.3403 172.259 10.96 168.088 6.57599 162.923C2.192 157.758 0 152.792 0 148.421V32.6975C0 29.7178 1.19563 26.1421 3.78618 22.3678C6.17745 18.5934 9.56508 15.0177 13.5505 11.6407C17.536 8.26364 22.1192 5.48255 26.9018 3.29742C31.6843 1.11228 36.2676 0.119019 40.6516 0.119019H117.372C126.14 0.119019 134.31 2.10552 141.483 5.87986C148.857 9.85284 154.635 14.8191 158.82 20.7786C163.005 26.9367 164.998 32.6975 164.998 38.657V141.667ZM124.745 127.762V51.9665C124.745 45.4111 122.353 40.8422 117.571 38.2597C112.788 35.6773 107.408 34.2867 101.629 34.2867H61.1767C54.6007 34.2867 49.2203 36.6705 44.8363 40.8422C40.253 44.8151 37.8618 49.3841 37.8618 54.549V124.981C37.8618 139.085 44.0392 146.038 55.597 146.038H106.212C110.397 146.038 113.785 145.044 116.574 143.058C119.364 141.071 121.357 138.489 122.752 135.708C124.147 132.927 124.745 130.344 124.745 127.762Z" fill="white"/>
<path d="M346.946 33.0136H179.158V0.236445H346.946V33.0136ZM336.545 54.2691L232.351 181H181.536L288.122 54.2691H336.545Z" fill="white"/>
<path d="M352.616 140V136.646H360.143C362.145 136.646 363.9 136.217 365.408 135.359C366.916 134.475 368.086 133.266 368.918 131.732C369.776 130.198 370.205 128.43 370.205 126.428C370.205 124.452 369.776 122.697 368.918 121.163C368.06 119.629 366.877 118.433 365.369 117.575C363.861 116.717 362.119 116.288 360.143 116.288H352.655V112.934H360.221C362.197 112.934 364.017 113.272 365.681 113.948C367.371 114.624 368.827 115.573 370.049 116.795C371.297 118.017 372.259 119.447 372.935 121.085C373.637 122.723 373.988 124.517 373.988 126.467C373.988 128.391 373.637 130.185 372.935 131.849C372.259 133.487 371.31 134.917 370.088 136.139C368.866 137.361 367.41 138.31 365.72 138.986C364.056 139.662 362.249 140 360.299 140H352.616ZM350.198 140V112.934H353.864V140H350.198ZM390.377 140V112.934H394.043V140H390.377ZM392.873 140V136.646H407.381V140H392.873ZM420.226 140L431.302 112.934H433.954L444.991 140H441.013L431.926 117.107H433.291L424.126 140H420.226ZM425.491 133.877V130.679H439.726V133.877H425.491ZM481.456 129.47V126.272H488.827C489.841 126.272 490.738 126.064 491.518 125.648C492.324 125.232 492.948 124.647 493.39 123.893C493.858 123.139 494.092 122.242 494.092 121.202C494.092 120.162 493.858 119.265 493.39 118.511C492.948 117.757 492.324 117.172 491.518 116.756C490.738 116.34 489.841 116.132 488.827 116.132H481.456V112.934H489.061C490.725 112.934 492.207 113.272 493.507 113.948C494.833 114.624 495.873 115.586 496.627 116.834C497.407 118.056 497.797 119.512 497.797 121.202C497.797 122.866 497.407 124.322 496.627 125.57C495.873 126.792 494.833 127.754 493.507 128.456C492.207 129.132 490.725 129.47 489.061 129.47H481.456ZM478.999 140V112.934H482.665V140H478.999ZM516.112 128.222V125.141H523.444C525.03 125.141 526.252 124.738 527.11 123.932C527.968 123.126 528.397 122.034 528.397 120.656C528.397 119.356 527.968 118.277 527.11 117.419C526.278 116.561 525.069 116.132 523.483 116.132H516.112V112.934H523.6C525.316 112.934 526.811 113.272 528.085 113.948C529.359 114.598 530.334 115.495 531.01 116.639C531.712 117.783 532.063 119.096 532.063 120.578C532.063 122.112 531.712 123.451 531.01 124.595C530.334 125.739 529.359 126.636 528.085 127.286C526.811 127.91 525.316 128.222 523.6 128.222H516.112ZM513.655 140V112.934H517.321V140H513.655ZM529.255 140L519.427 127.871L522.898 126.662L533.896 140H529.255ZM560.903 140.39C558.979 140.39 557.185 140.039 555.521 139.337C553.857 138.609 552.401 137.608 551.153 136.334C549.905 135.034 548.93 133.539 548.228 131.849C547.552 130.159 547.214 128.352 547.214 126.428C547.214 124.478 547.552 122.671 548.228 121.007C548.93 119.317 549.892 117.835 551.114 116.561C552.362 115.287 553.805 114.299 555.443 113.597C557.107 112.895 558.901 112.544 560.825 112.544C562.749 112.544 564.53 112.895 566.168 113.597C567.832 114.299 569.288 115.287 570.536 116.561C571.784 117.835 572.759 119.317 573.461 121.007C574.163 122.697 574.514 124.517 574.514 126.467C574.514 128.391 574.163 130.198 573.461 131.888C572.759 133.578 571.784 135.06 570.536 136.334C569.314 137.608 567.871 138.609 566.207 139.337C564.569 140.039 562.801 140.39 560.903 140.39ZM560.825 136.88C562.775 136.88 564.478 136.438 565.934 135.554C567.416 134.644 568.586 133.409 569.444 131.849C570.302 130.263 570.731 128.456 570.731 126.428C570.731 124.92 570.484 123.542 569.99 122.294C569.496 121.02 568.807 119.915 567.923 118.979C567.039 118.043 565.999 117.328 564.803 116.834C563.607 116.314 562.281 116.054 560.825 116.054C558.901 116.054 557.198 116.496 555.716 117.38C554.26 118.264 553.103 119.486 552.245 121.046C551.413 122.606 550.997 124.4 550.997 126.428C550.997 127.936 551.231 129.34 551.699 130.64C552.193 131.914 552.869 133.019 553.727 133.955C554.611 134.865 555.651 135.58 556.847 136.1C558.069 136.62 559.395 136.88 560.825 136.88ZM597.618 140.39C595.486 140.39 593.666 140 592.158 139.22C590.65 138.44 589.311 137.309 588.141 135.827L590.637 133.331C591.495 134.527 592.483 135.437 593.601 136.061C594.719 136.659 596.097 136.958 597.735 136.958C599.347 136.958 600.634 136.607 601.596 135.905C602.584 135.203 603.078 134.241 603.078 133.019C603.078 132.005 602.844 131.186 602.376 130.562C601.908 129.938 601.271 129.431 600.465 129.041C599.685 128.625 598.827 128.261 597.891 127.949C596.955 127.611 596.019 127.26 595.083 126.896C594.147 126.506 593.289 126.038 592.509 125.492C591.729 124.92 591.092 124.179 590.598 123.269C590.13 122.359 589.896 121.215 589.896 119.837C589.896 118.303 590.26 117.003 590.988 115.937C591.742 114.845 592.756 114.013 594.03 113.441C595.33 112.843 596.786 112.544 598.398 112.544C600.166 112.544 601.752 112.895 603.156 113.597C604.56 114.273 605.704 115.17 606.588 116.288L604.092 118.784C603.286 117.848 602.415 117.146 601.479 116.678C600.569 116.21 599.516 115.976 598.32 115.976C596.864 115.976 595.707 116.301 594.849 116.951C593.991 117.575 593.562 118.459 593.562 119.603C593.562 120.513 593.796 121.254 594.264 121.826C594.758 122.372 595.395 122.84 596.175 123.23C596.955 123.62 597.813 123.984 598.749 124.322C599.711 124.634 600.66 124.985 601.596 125.375C602.532 125.765 603.39 126.259 604.17 126.857C604.95 127.455 605.574 128.235 606.042 129.197C606.536 130.133 606.783 131.316 606.783 132.746C606.783 135.138 605.951 137.01 604.287 138.362C602.649 139.714 600.426 140.39 597.618 140.39ZM348.521 181.465L363.809 159.43H368.099L352.811 181.465H348.521ZM348.521 184V181.465L351.641 180.646H367.826V184H348.521ZM349.34 160.288V156.934H368.099V159.43L364.94 160.288H349.34ZM400.574 184L411.65 156.934H414.302L425.339 184H421.361L412.274 161.107H413.639L404.474 184H400.574ZM405.839 177.877V174.679H420.074V177.877H405.839ZM450.559 184.39C448.557 184.39 446.763 183.948 445.177 183.064C443.617 182.154 442.382 180.919 441.472 179.359C440.562 177.773 440.107 175.979 440.107 173.977V156.934H443.773V173.899C443.773 175.329 444.072 176.564 444.67 177.604C445.268 178.644 446.074 179.45 447.088 180.022C448.128 180.594 449.285 180.88 450.559 180.88C451.885 180.88 453.042 180.594 454.03 180.022C455.044 179.45 455.837 178.644 456.409 177.604C457.007 176.564 457.306 175.342 457.306 173.938V156.934H461.011V174.016C461.011 176.018 460.556 177.799 459.646 179.359C458.736 180.919 457.501 182.154 455.941 183.064C454.381 183.948 452.587 184.39 450.559 184.39ZM485.146 184V157.714H488.812V184H485.146ZM475.942 160.288V156.934H497.977V160.288H475.942ZM523.999 184.39C522.075 184.39 520.281 184.039 518.617 183.337C516.953 182.609 515.497 181.608 514.249 180.334C513.001 179.034 512.026 177.539 511.324 175.849C510.648 174.159 510.31 172.352 510.31 170.428C510.31 168.478 510.648 166.671 511.324 165.007C512.026 163.317 512.988 161.835 514.21 160.561C515.458 159.287 516.901 158.299 518.539 157.597C520.203 156.895 521.997 156.544 523.921 156.544C525.845 156.544 527.626 156.895 529.264 157.597C530.928 158.299 532.384 159.287 533.632 160.561C534.88 161.835 535.855 163.317 536.557 165.007C537.259 166.697 537.61 168.517 537.61 170.467C537.61 172.391 537.259 174.198 536.557 175.888C535.855 177.578 534.88 179.06 533.632 180.334C532.41 181.608 530.967 182.609 529.303 183.337C527.665 184.039 525.897 184.39 523.999 184.39ZM523.921 180.88C525.871 180.88 527.574 180.438 529.03 179.554C530.512 178.644 531.682 177.409 532.54 175.849C533.398 174.263 533.827 172.456 533.827 170.428C533.827 168.92 533.58 167.542 533.086 166.294C532.592 165.02 531.903 163.915 531.019 162.979C530.135 162.043 529.095 161.328 527.899 160.834C526.703 160.314 525.377 160.054 523.921 160.054C521.997 160.054 520.294 160.496 518.812 161.38C517.356 162.264 516.199 163.486 515.341 165.046C514.509 166.606 514.093 168.4 514.093 170.428C514.093 171.936 514.327 173.34 514.795 174.64C515.289 175.914 515.965 177.019 516.823 177.955C517.707 178.865 518.747 179.58 519.943 180.1C521.165 180.62 522.491 180.88 523.921 180.88Z" fill="white"/>
<path d="M469.029 22.0679H357.944V0H469.029V22.0679ZM472.107 91.9495H355V71.1952L405.992 35.8603H451.229L400.504 69.2249H472.107V91.9495Z" fill="#FB3640"/>
<path d="M612.824 91.9495H577.759L550.054 56.8774H515.123V91.9495H487.954V34.8095H572.673C574.413 34.8095 576.019 34.1527 577.759 32.9705C579.365 31.7883 580.168 30.0806 580.168 27.8476C580.168 26.2713 579.766 25.0891 578.963 24.0382C578.16 23.1187 577.089 22.462 575.885 22.0679C574.547 21.5425 573.208 21.4111 571.736 21.4111H487.954V0H590.205C595.024 0 599.172 1.70763 602.518 4.99155C605.998 8.40681 607.738 12.4789 607.738 17.2077V40.1951C607.738 44.2671 606.935 47.4197 605.195 49.6527C603.455 51.8858 601.448 53.4621 599.172 54.2502C596.897 55.1697 594.221 55.6951 591.142 56.0892C588.064 56.4833 586.324 56.746 585.789 56.8774L612.824 91.9495Z" fill="#FB3640"/>
</svg>
