<svg width="613" height="185" viewBox="0 0 613 185" fill="none" xmlns="http://www.w3.org/2000/svg">
<path d="M356.616 140V136.646H364.143C366.145 136.646 367.9 136.217 369.408 135.359C370.916 134.475 372.086 133.266 372.918 131.732C373.776 130.198 374.205 128.43 374.205 126.428C374.205 124.452 373.776 122.697 372.918 121.163C372.06 119.629 370.877 118.433 369.369 117.575C367.861 116.717 366.119 116.288 364.143 116.288H356.655V112.934H364.221C366.197 112.934 368.017 113.272 369.681 113.948C371.371 114.624 372.827 115.573 374.049 116.795C375.297 118.017 376.259 119.447 376.935 121.085C377.637 122.723 377.988 124.517 377.988 126.467C377.988 128.391 377.637 130.185 376.935 131.849C376.259 133.487 375.31 134.917 374.088 136.139C372.866 137.361 371.41 138.31 369.72 138.986C368.056 139.662 366.249 140 364.299 140H356.616ZM354.198 140V112.934H357.864V140H354.198Z" fill="#0A2463"/>
<path d="M394.377 140V112.934H398.043V140H394.377ZM396.873 140V136.646H411.381V140H396.873Z" fill="#0A2463"/>
<path d="M424.226 140L435.302 112.934H437.954L448.991 140H445.013L435.926 117.107H437.291L428.126 140H424.226ZM429.491 133.877V130.679H443.726V133.877H429.491Z" fill="#0A2463"/>
<path d="M485.456 129.47V126.272H492.827C493.841 126.272 494.738 126.064 495.518 125.648C496.324 125.232 496.948 124.647 497.39 123.893C497.858 123.139 498.092 122.242 498.092 121.202C498.092 120.162 497.858 119.265 497.39 118.511C496.948 117.757 496.324 117.172 495.518 116.756C494.738 116.34 493.841 116.132 492.827 116.132H485.456V112.934H493.061C494.725 112.934 496.207 113.272 497.507 113.948C498.833 114.624 499.873 115.586 500.627 116.834C501.407 118.056 501.797 119.512 501.797 121.202C501.797 122.866 501.407 124.322 500.627 125.57C499.873 126.792 498.833 127.754 497.507 128.456C496.207 129.132 494.725 129.47 493.061 129.47H485.456ZM482.999 140V112.934H486.665V140H482.999Z" fill="#0A2463"/>
<path d="M520.112 128.222V125.141H527.444C529.03 125.141 530.252 124.738 531.11 123.932C531.968 123.126 532.397 122.034 532.397 120.656C532.397 119.356 531.968 118.277 531.11 117.419C530.278 116.561 529.069 116.132 527.483 116.132H520.112V112.934H527.6C529.316 112.934 530.811 113.272 532.085 113.948C533.359 114.598 534.334 115.495 535.01 116.639C535.712 117.783 536.063 119.096 536.063 120.578C536.063 122.112 535.712 123.451 535.01 124.595C534.334 125.739 533.359 126.636 532.085 127.286C530.811 127.91 529.316 128.222 527.6 128.222H520.112ZM517.655 140V112.934H521.321V140H517.655ZM533.255 140L523.427 127.871L526.898 126.662L537.896 140H533.255Z" fill="#0A2463"/>
<path d="M564.903 140.39C562.979 140.39 561.185 140.039 559.521 139.337C557.857 138.609 556.401 137.608 555.153 136.334C553.905 135.034 552.93 133.539 552.228 131.849C551.552 130.159 551.214 128.352 551.214 126.428C551.214 124.478 551.552 122.671 552.228 121.007C552.93 119.317 553.892 117.835 555.114 116.561C556.362 115.287 557.805 114.299 559.443 113.597C561.107 112.895 562.901 112.544 564.825 112.544C566.749 112.544 568.529 112.895 570.167 113.597C571.831 114.299 573.288 115.287 574.536 116.561C575.784 117.835 576.759 119.317 577.461 121.007C578.163 122.697 578.513 124.517 578.513 126.467C578.513 128.391 578.163 130.198 577.461 131.888C576.759 133.578 575.784 135.06 574.536 136.334C573.314 137.608 571.87 138.609 570.206 139.337C568.568 140.039 566.801 140.39 564.903 140.39ZM564.825 136.88C566.775 136.88 568.478 136.438 569.934 135.554C571.416 134.644 572.585 133.409 573.443 131.849C574.301 130.263 574.731 128.456 574.731 126.428C574.731 124.92 574.484 123.542 573.99 122.294C573.496 121.02 572.806 119.915 571.922 118.979C571.038 118.043 569.998 117.328 568.802 116.834C567.606 116.314 566.281 116.054 564.825 116.054C562.901 116.054 561.198 116.496 559.716 117.38C558.26 118.264 557.103 119.486 556.245 121.046C555.413 122.606 554.997 124.4 554.997 126.428C554.997 127.936 555.23 129.34 555.698 130.64C556.192 131.914 556.869 133.019 557.727 133.955C558.611 134.865 559.65 135.58 560.846 136.1C562.068 136.62 563.395 136.88 564.825 136.88Z" fill="#0A2463"/>
<path d="M601.618 140.39C599.486 140.39 597.666 140 596.158 139.22C594.65 138.44 593.311 137.309 592.141 135.827L594.637 133.331C595.495 134.527 596.483 135.437 597.601 136.061C598.719 136.659 600.097 136.958 601.735 136.958C603.347 136.958 604.634 136.607 605.596 135.905C606.584 135.203 607.078 134.241 607.078 133.019C607.078 132.005 606.844 131.186 606.376 130.562C605.908 129.938 605.271 129.431 604.465 129.041C603.685 128.625 602.827 128.261 601.891 127.949C600.955 127.611 600.019 127.26 599.083 126.896C598.147 126.506 597.289 126.038 596.509 125.492C595.729 124.92 595.092 124.179 594.598 123.269C594.13 122.359 593.896 121.215 593.896 119.837C593.896 118.303 594.26 117.003 594.988 115.937C595.742 114.845 596.756 114.013 598.03 113.441C599.33 112.843 600.786 112.544 602.398 112.544C604.166 112.544 605.752 112.895 607.156 113.597C608.56 114.273 609.704 115.17 610.588 116.288L608.092 118.784C607.286 117.848 606.415 117.146 605.479 116.678C604.569 116.21 603.516 115.976 602.32 115.976C600.864 115.976 599.707 116.301 598.849 116.951C597.991 117.575 597.562 118.459 597.562 119.603C597.562 120.513 597.796 121.254 598.264 121.826C598.758 122.372 599.395 122.84 600.175 123.23C600.955 123.62 601.813 123.984 602.749 124.322C603.711 124.634 604.66 124.985 605.596 125.375C606.532 125.765 607.39 126.259 608.17 126.857C608.95 127.455 609.574 128.235 610.042 129.197C610.536 130.133 610.783 131.316 610.783 132.746C610.783 135.138 609.951 137.01 608.287 138.362C606.649 139.714 604.426 140.39 601.618 140.39Z" fill="#0A2463"/>
<path d="M352.521 181.465L367.809 159.43H372.099L356.811 181.465H352.521ZM352.521 184V181.465L355.641 180.646H371.826V184H352.521ZM353.34 160.288V156.934H372.099V159.43L368.94 160.288H353.34Z" fill="#0A2463"/>
<path d="M404.574 184L415.65 156.934H418.302L429.339 184H425.361L416.274 161.107H417.639L408.474 184H404.574ZM409.839 177.877V174.679H424.074V177.877H409.839Z" fill="#0A2463"/>
<path d="M454.559 184.39C452.557 184.39 450.763 183.948 449.177 183.064C447.617 182.154 446.382 180.919 445.472 179.359C444.562 177.773 444.107 175.979 444.107 173.977V156.934H447.773V173.899C447.773 175.329 448.072 176.564 448.67 177.604C449.268 178.644 450.074 179.45 451.088 180.022C452.128 180.594 453.285 180.88 454.559 180.88C455.885 180.88 457.042 180.594 458.03 180.022C459.044 179.45 459.837 178.644 460.409 177.604C461.007 176.564 461.306 175.342 461.306 173.938V156.934H465.011V174.016C465.011 176.018 464.556 177.799 463.646 179.359C462.736 180.919 461.501 182.154 459.941 183.064C458.381 183.948 456.587 184.39 454.559 184.39Z" fill="#0A2463"/>
<path d="M489.146 184V157.714H492.812V184H489.146ZM479.942 160.288V156.934H501.977V160.288H479.942Z" fill="#0A2463"/>
<path d="M527.999 184.39C526.075 184.39 524.281 184.039 522.617 183.337C520.953 182.609 519.497 181.608 518.249 180.334C517.001 179.034 516.026 177.539 515.324 175.849C514.648 174.159 514.31 172.352 514.31 170.428C514.31 168.478 514.648 166.671 515.324 165.007C516.026 163.317 516.988 161.835 518.21 160.561C519.458 159.287 520.901 158.299 522.539 157.597C524.203 156.895 525.997 156.544 527.921 156.544C529.845 156.544 531.626 156.895 533.264 157.597C534.928 158.299 536.384 159.287 537.632 160.561C538.88 161.835 539.855 163.317 540.557 165.007C541.259 166.697 541.61 168.517 541.61 170.467C541.61 172.391 541.259 174.198 540.557 175.888C539.855 177.578 538.88 179.06 537.632 180.334C536.41 181.608 534.967 182.609 533.303 183.337C531.665 184.039 529.897 184.39 527.999 184.39ZM527.921 180.88C529.871 180.88 531.574 180.438 533.03 179.554C534.512 178.644 535.682 177.409 536.54 175.849C537.398 174.263 537.827 172.456 537.827 170.428C537.827 168.92 537.58 167.542 537.086 166.294C536.592 165.02 535.903 163.915 535.019 162.979C534.135 162.043 533.095 161.328 531.899 160.834C530.703 160.314 529.377 160.054 527.921 160.054C525.997 160.054 524.294 160.496 522.812 161.38C521.356 162.264 520.199 163.486 519.341 165.046C518.509 166.606 518.093 168.4 518.093 170.428C518.093 171.936 518.327 173.34 518.795 174.64C519.289 175.914 519.965 177.019 520.823 177.955C521.707 178.865 522.747 179.58 523.943 180.1C525.165 180.62 526.491 180.88 527.921 180.88Z" fill="#0A2463"/>
<path d="M164.998 141.667C164.998 146.435 163.403 151.997 160.016 158.155C156.827 164.512 152.443 169.875 146.665 174.246C141.085 178.815 134.708 181 127.734 181H40.0538C34.6734 181 28.8945 179.212 22.7171 175.835C16.3403 172.259 10.96 168.088 6.57599 162.923C2.192 157.758 0 152.792 0 148.421V32.6975C0 29.7178 1.19563 26.1421 3.78618 22.3678C6.17745 18.5934 9.56508 15.0177 13.5505 11.6407C17.536 8.26364 22.1192 5.48255 26.9018 3.29742C31.6843 1.11228 36.2676 0.119019 40.6516 0.119019H117.372C126.14 0.119019 134.31 2.10552 141.483 5.87986C148.857 9.85284 154.635 14.8191 158.82 20.7786C163.005 26.9367 164.998 32.6975 164.998 38.657V141.667ZM124.745 127.762V51.9665C124.745 45.4111 122.353 40.8422 117.571 38.2597C112.788 35.6773 107.408 34.2867 101.629 34.2867H61.1767C54.6007 34.2867 49.2203 36.6705 44.8363 40.8422C40.253 44.8151 37.8618 49.3841 37.8618 54.549V124.981C37.8618 139.085 44.0392 146.038 55.597 146.038H106.212C110.397 146.038 113.785 145.044 116.574 143.058C119.364 141.071 121.357 138.489 122.752 135.708C124.147 132.927 124.745 130.344 124.745 127.762Z" fill="#0A2463"/>
<path d="M346.946 33.0136H179.158V0.236445H346.946V33.0136ZM336.545 54.2691L232.351 181H181.536L288.122 54.2691H336.545Z" fill="#0A2463"/>
<path d="M469.029 22.0679H357.944V0H469.029V22.0679ZM472.107 91.9495H355V71.1952L405.992 35.8603H451.229L400.504 69.2249H472.107V91.9495Z" fill="#FB3640"/>
<path d="M612.824 91.9495H577.759L550.054 56.8774H515.123V91.9495H487.954V34.8095H572.673C574.413 34.8095 576.019 34.1527 577.759 32.9705C579.365 31.7883 580.168 30.0806 580.168 27.8476C580.168 26.2713 579.766 25.0891 578.963 24.0382C578.16 23.1187 577.089 22.462 575.885 22.0679C574.547 21.5425 573.208 21.4111 571.736 21.4111H487.954V0H590.205C595.023 0 599.173 1.70763 602.518 4.99155C605.998 8.40681 607.738 12.4789 607.738 17.2077V40.1951C607.738 44.2671 606.935 47.4197 605.195 49.6527C603.455 51.8858 601.448 53.4621 599.172 54.2502C596.897 55.1697 594.221 55.6951 591.142 56.0892C588.064 56.4833 586.324 56.746 585.789 56.8774L612.824 91.9495Z" fill="#FB3640"/>
</svg>
