<svg width="34" height="20" viewBox="0 0 34 20" fill="none" xmlns="http://www.w3.org/2000/svg">
<path id="Vector" d="M23.1296 8.96321e-07L23.1296 1.61133L22.9328 1.61133C21.8501 1.61133 20.9643 2.46441 20.9643 3.50707L20.9643 5.30804C20.669 5.30804 20.5706 5.59238 20.5706 5.87674L18.8974 5.87674C18.8974 5.87674 18.8974 5.78197 18.7005 5.78197L18.4053 5.78197C18.4053 5.78197 18.0116 5.78197 18.0116 6.25591L18.0116 6.54032L5.41332 6.54032C3.74011 6.54032 2.26375 7.67769 1.77163 9.19428C1.47636 9.19428 0.688972 9.47869 0.688972 9.47869C0.492124 9.47869 -4.51617e-07 9.66821 -4.309e-07 10.1421C-4.14327e-07 10.5213 0.295276 10.7109 0.688972 10.8057C0.885819 10.8057 1.57479 10.9953 1.77163 10.9953C2.26375 12.6066 3.74011 13.6493 5.41332 13.6493L18.0116 13.6493L18.0116 13.8389C18.0116 14.218 18.3069 14.218 18.4053 14.218L18.7005 14.218C18.7005 14.218 18.8974 14.218 18.8974 14.1233L20.5706 14.1233C20.5706 14.4076 20.7675 14.5972 20.9643 14.692L20.9643 16.4929C20.9643 17.5356 21.8501 18.3887 22.9328 18.3887L23.1296 18.3887L23.1296 20L23.6217 20L23.6217 14.7867L27.6571 14.7867C28.0508 14.7867 28.4445 14.4076 28.4445 14.0285L28.4445 13.6493L33.1689 13.6493C33.2673 13.6493 33.9563 13.4597 33.9563 13.4597C34.0547 13.4597 33.9563 13.3649 33.9563 13.2702C33.9563 13.2702 33.9563 13.1754 33.8578 13.1754L28.3461 13.1754L28.3461 11.6588L33.0704 11.6588C33.1689 11.6588 33.2673 11.6587 33.3657 11.5639L33.7594 11.2797C33.8578 11.2797 33.9563 11.1848 33.9563 11.09L33.9563 8.72034C33.9563 8.62556 33.8578 8.53084 33.7594 8.43605L33.3657 8.24641C33.3657 8.24641 33.1689 8.24641 33.0704 8.24641L28.3461 8.24641L28.3461 6.72984L33.8578 6.72984C33.9563 6.72984 33.9563 6.72987 33.9563 6.63508C33.9563 6.63508 33.9563 6.54034 33.8578 6.44555C33.8578 6.44555 33.2673 6.35067 33.0704 6.35067L28.3461 6.35067L28.3461 5.97162C28.3461 5.59247 27.9524 5.21328 27.5587 5.21328L23.6217 5.21328L23.6217 8.74809e-07L23.1296 8.96321e-07ZM5.41332 13.0806C3.93696 13.0806 2.75587 12.1327 2.36218 10.8057C2.36218 10.6161 2.0669 10.4266 1.96848 10.4266C1.67321 10.4266 0.885816 10.237 0.885816 10.237C0.787392 10.237 0.688972 10.2369 0.688972 10.1421C0.688972 10.1421 0.688969 10.1421 0.885816 10.1421C0.885816 10.1421 1.77163 9.95264 1.96848 9.85786C1.96848 9.85786 2.36218 9.66826 2.36218 9.47869C2.75587 8.15167 3.93696 7.20378 5.41332 7.20378L18.0116 7.20378L18.0116 7.67771L18.0116 8.43605L18.0116 8.81522L18.0116 10.4266L18.0116 10.8057L18.0116 11.9431L18.0116 12.3223L18.0116 12.7962L18.0116 13.2702L5.41332 13.2702L5.41332 13.0806ZM32.5783 9.95262C32.5783 10.5213 32.0862 10.9005 31.5941 10.9005C31.0035 10.9005 30.6098 10.4266 30.6098 9.95262C30.6098 9.3839 31.102 9.00475 31.5941 9.00475C32.1846 9.00475 32.5783 9.47868 32.5783 9.95262Z" fill="#162358"/>
</svg>
