<svg width="37" height="19" viewBox="0 0 37 19" fill="none" xmlns="http://www.w3.org/2000/svg">
<g id="Group 1216402428">
<path id="Vector" d="M14.9008 9.15452H13.5291C13.5291 8.75039 13.1548 8.69274 12.727 8.69274H11.9249C11.9249 8.69274 11.8714 8.69274 11.8179 8.69274C11.3901 7.97429 9.03724 7.21094 8.12816 7.21094C7.16562 7.21094 1.65771 7.21094 1.65771 7.21094C0.748636 7.21094 0 7.83959 0 8.60294V14.7996C0 15.6528 0.802104 16.3712 1.81813 16.3712H2.67375C3.68977 16.3712 4.54537 15.6528 4.54537 14.7996V13.4076C4.65232 13.5423 4.81274 13.6321 4.97316 13.6321C5.13359 13.6321 4.97315 13.6321 5.02662 13.6321C5.02662 13.6321 5.08011 13.6321 5.13358 13.6321C5.34748 13.6321 5.5079 13.4076 5.56137 13.1382C5.56137 13.0484 5.61487 12.9137 5.61487 12.8239C5.61487 12.734 5.61487 12.5993 5.61487 12.5095C6.73784 12.5095 7.70038 12.5095 8.0747 12.5095C9.09073 12.5095 11.5506 11.7013 11.8179 10.9379C11.8179 10.9379 11.8714 10.9379 11.9249 10.9379H12.727C13.1548 10.9379 13.5291 10.6236 13.5291 10.2644V10.2131H14.9008C15.1147 10.2131 15.2829 10.2589 15.2829 10.0344C15.2829 9.8099 15.3975 9.15452 15.1301 9.15452H14.9008ZM3.155 12.4197V14.5302C3.155 14.8445 2.83416 15.1139 2.45983 15.1139H2.139C1.76467 15.1139 1.4438 14.8445 1.4438 14.5302V11.2522C1.4438 11.0726 1.55076 10.9379 1.65771 10.8032H1.97855C2.35287 10.8032 2.67375 11.0726 2.67375 11.3869V12.5544L3.155 12.4197ZM9.67895 9.77042C9.62547 9.99494 9.03724 10.1746 8.39554 10.1746C7.75384 10.1746 7.16562 9.99494 7.05867 9.77042C7.05867 9.501 7.64689 9.32139 8.39554 9.32139C9.14419 9.32139 9.73241 9.5459 9.73241 9.77042H9.67895Z" fill="#0A2463"/>
<path id="Vector_2" d="M25.8073 0.595703C20.0284 0.595703 15.3066 4.5129 15.3066 9.43909C15.3066 14.3653 19.9579 18.2825 25.8073 18.2825C31.6566 18.2825 36.3079 14.3653 36.3079 9.43909C36.3079 4.5129 31.6566 0.595703 25.8073 0.595703ZM25.8073 16.0865C21.4379 16.0865 17.8437 13.1189 17.8437 9.37975C17.8437 5.6406 21.3674 2.67301 25.8073 2.67301C30.2472 2.67301 33.7708 5.6406 33.7708 9.37975C33.7708 13.1189 30.2472 16.0865 25.8073 16.0865ZM25.8073 2.96977C21.5788 2.96977 18.1256 5.87799 18.1256 9.43909C18.1256 13.0002 21.5788 15.9084 25.8073 15.9084C30.0357 15.9084 33.4889 13.0002 33.4889 9.43909C33.4889 5.87799 30.0357 2.96977 25.8073 2.96977ZM26.9349 3.80069C29.0491 4.09744 30.8109 5.22512 31.7976 6.76827L28.4853 7.65854C28.0624 7.24308 27.5691 6.88698 26.9349 6.70893V3.80069ZM24.6796 3.80069V6.70893C24.0454 6.88698 23.5521 7.24308 23.1292 7.65854L19.817 6.76827C20.8036 5.22512 22.5654 4.09744 24.6796 3.80069ZM19.0417 9.43909C19.0417 9.14233 19.0418 8.90493 19.1123 8.60817L22.4245 9.49844C22.4245 10.0326 22.636 10.5668 22.9883 11.0416L20.9446 13.4157C19.7465 12.4067 19.0417 10.9822 19.0417 9.43909ZM25.8073 15.1369C24.7502 15.1369 23.693 14.8994 22.7769 14.5433L24.8206 12.1693C25.1025 12.2286 25.4549 12.288 25.8073 12.288C26.1597 12.288 26.4415 12.288 26.7939 12.1693L28.8376 14.5433C27.9215 14.8994 26.9349 15.1369 25.8073 15.1369ZM29.8947 13.9498C29.8243 13.9498 29.7538 14.0685 29.6128 14.1279L27.0758 11.2196L26.7234 11.3383C26.4415 11.457 26.0891 11.5164 25.7367 11.5164C25.3844 11.5164 25.1026 11.5164 24.7502 11.3383L24.3978 11.2196L21.8607 14.1872C21.7902 14.1279 21.6493 14.0685 21.5788 14.0092L24.1159 11.0416L23.9044 10.8042C23.4816 10.4481 23.2702 9.9139 23.2702 9.43909C23.2702 8.96428 23.2702 9.32039 23.2702 9.26104V8.96428L19.1827 7.83661C19.1827 7.7179 19.1827 7.65855 19.2532 7.53985L23.3407 8.60817L23.5521 8.37077C23.9044 7.89595 24.4683 7.53984 25.1026 7.42114H25.4549V3.68199C25.5959 3.68199 25.6663 3.68199 25.8073 3.68199V7.30244H26.1597C26.7939 7.4805 27.3577 7.8366 27.7101 8.31141L27.9215 8.54881L32.009 7.42114C32.009 7.53984 32.0089 7.59919 32.0794 7.7179L27.992 8.90493V9.20168C27.992 9.26104 27.992 9.3204 27.992 9.37975C27.992 9.85456 27.7805 10.3887 27.3577 10.7448L27.1462 10.9822L29.6834 13.9498H29.8947ZM30.5995 13.4157L28.5557 11.0416C28.9081 10.5668 29.1195 10.0326 29.1195 9.49844L32.4318 8.60817C32.4318 8.90493 32.5023 9.14233 32.5023 9.43909C32.5023 10.9822 31.7975 12.4067 30.5995 13.4157ZM27.5691 8.66752C27.0758 7.8366 25.8777 7.4805 24.8911 7.89596C23.9045 8.31142 23.4816 9.32039 23.9749 10.1513C24.4682 10.9822 25.6663 11.3383 26.6529 10.9229C27.6396 10.5074 28.0625 9.49845 27.5691 8.66752ZM25.5958 7.9553C25.8073 7.89595 26.0186 7.95531 26.0891 8.07401C26.1596 8.25206 26.0892 8.43013 25.9482 8.48948C25.7368 8.54883 25.5254 8.48947 25.4549 8.37077C25.3844 8.19271 25.4549 8.01465 25.5958 7.9553ZM24.0454 9.20168C23.975 9.02363 24.0454 8.84559 24.1864 8.78623C24.3978 8.72688 24.6092 8.78622 24.6796 8.90493C24.7501 9.08298 24.6797 9.26104 24.5387 9.3204C24.3273 9.37975 24.1159 9.32039 24.0454 9.20168ZM25.032 10.6855C24.8206 10.7448 24.6092 10.6855 24.5387 10.5668C24.4682 10.3887 24.5387 10.2107 24.6796 10.1513C24.8911 10.092 25.1025 10.1513 25.173 10.27C25.2435 10.4481 25.173 10.6261 25.032 10.6855ZM26.0891 9.91391C25.7367 10.0326 25.3844 9.91391 25.2435 9.67651C25.1025 9.37975 25.2435 9.08299 25.5254 8.96428C25.8777 8.84558 26.2301 8.96428 26.371 9.20168C26.512 9.49844 26.371 9.79521 26.0891 9.91391ZM26.7939 10.6261C26.5824 10.6855 26.371 10.6261 26.3006 10.5074C26.2301 10.3294 26.3005 10.1513 26.4415 10.092C26.5824 10.0326 26.8644 10.092 26.9349 10.2107C27.0053 10.3887 26.9348 10.5668 26.7939 10.6261ZM27.3577 9.37975C27.1463 9.4391 26.9349 9.37974 26.8644 9.26104C26.7939 9.08299 26.8644 8.90492 27.0053 8.84557C27.2167 8.78622 27.4281 8.84558 27.4986 8.96428C27.5691 9.14234 27.4986 9.3204 27.3577 9.37975Z" fill="#0A2463"/>
</g>
</svg>
