<svg width="42" height="28" viewBox="0 0 42 28" fill="none" xmlns="http://www.w3.org/2000/svg">
<g id="Group 1216402715">
<path id="Vector" d="M8.7532 5.69451L4.08594 5.68555V8.2575L8.7532 8.26646V5.69451Z" fill="#0A2463"/>
<path id="Vector_2" d="M1.4354 27.5071L11.4568 27.534C12.2494 27.534 12.8834 26.8888 12.8834 26.0733V13.1418C12.8834 12.1202 12.3639 11.1703 11.5008 10.6416L9.35214 9.32422C9.32573 9.32422 9.30811 9.34214 9.2817 9.34214H3.55769C3.54008 9.33318 3.53127 9.32422 3.52246 9.32422L1.40018 10.6236C0.52837 11.1434 0 12.0933 0 13.1149V26.0464C0 26.8529 0.634044 27.4981 1.4266 27.4981L1.4354 27.5071ZM2.862 17.3089H5.01071V15.1223H7.87271V17.3179H10.0214V20.2393H7.87271V22.4259H5.01071V20.2304H2.862V17.3089Z" fill="#0A2463"/>
<path id="Vector_3" d="M1.76941 1.30352C2.39465 1.62613 3.09914 1.7964 3.82125 1.80536H5.01008V4.61927H7.87208V1.81432H14.054C14.9875 1.83225 15.9033 2.21759 16.5638 2.8897L17.5148 3.86651C17.691 4.04574 17.9551 4.07262 18.1577 3.95612C18.3602 3.83962 18.2369 3.90235 18.2634 3.87547C18.4747 3.66935 18.4747 3.32882 18.2634 3.11374L17.3123 2.13694C16.4581 1.26767 15.2693 0.765829 14.054 0.756867L3.81244 0.738944C3.25765 0.738944 2.70287 0.604522 2.22733 0.3536L1.65493 0.0578706C1.39075 -0.0765519 1.07373 0.0309861 0.941633 0.299831C0.809541 0.568676 0.915215 0.89129 1.1794 1.02571L1.7518 1.32144L1.76941 1.30352Z" fill="#0A2463"/>
<path id="Vector_4" d="M14.9088 11.843C14.8824 13.5457 15.7454 14.7286 17.6827 14.7555C19.6201 14.7824 20.5183 13.6353 20.5447 11.9326C20.5712 10.2299 18.7571 8.34803 17.8236 5.43555C16.8021 8.31219 14.9352 9.7281 14.9088 11.843Z" fill="#0A2463"/>
<path id="Vector_5" d="M16.4758 22.5871C17.3564 23.2323 18.3427 23.9582 19.3466 25.1321C19.3994 25.1949 19.4787 25.2307 19.5491 25.2397C20.0951 25.6609 23.371 27.9908 27.7477 27.9998C32.459 27.9819 35.8934 25.2845 36.0343 25.1769C36.0431 25.168 36.0607 25.1501 36.0695 25.1411C36.0695 25.1411 36.0783 25.1411 36.0871 25.1321C37.0822 23.9582 38.0773 23.2323 38.9579 22.5871C40.4197 21.5206 41.5822 20.6693 41.5822 18.4827C41.5822 16.2961 40.5606 15.382 38.9931 15.382C37.4256 15.382 37.9364 15.6061 37.3552 15.848C36.862 16.0541 36.3601 16.2513 35.9462 16.2871C35.3034 15.848 34.1145 15.7226 32.9433 15.6061C32.3445 15.5433 31.7809 15.4896 31.411 15.391C31.1116 15.3103 30.7946 15.1938 30.46 15.0684C29.7026 14.7816 28.8484 14.4679 27.7565 14.459C26.6733 14.459 25.8191 14.7816 25.0618 15.0684C24.7272 15.1938 24.4101 15.3103 24.1107 15.391C23.7409 15.4896 23.1773 15.5433 22.5785 15.6061C21.4072 15.7226 20.2008 15.848 19.5667 16.2961C19.1352 16.2782 18.6069 16.0631 18.0873 15.848C17.5061 15.6061 16.9601 15.382 16.4494 15.382C14.8731 15.382 13.8604 16.6008 13.8604 18.4827C13.8604 20.3646 15.014 21.5206 16.4846 22.5871H16.4758ZM27.7565 16.2961C28.8484 16.2961 29.7026 16.6187 30.46 16.9055C30.7946 17.0309 31.1116 17.1474 31.411 17.2281C31.7809 17.3267 32.3533 17.3804 32.9521 17.4432C33.8151 17.5328 34.7045 17.6224 35.365 17.8464C35.3474 17.954 35.3386 18.0705 35.321 18.1959C35.321 18.2318 35.321 18.2587 35.3122 18.2945C35.3034 18.3752 35.2946 18.4648 35.2857 18.5454C34.7045 18.3214 33.7447 18.2228 32.8905 18.1332C32.2652 18.0705 31.6752 18.0077 31.2525 17.9002C30.9179 17.8106 30.5833 17.6941 30.231 17.5597C29.4913 17.2819 28.7252 16.9951 27.7565 16.9951C26.7966 16.9951 26.0305 17.2819 25.2908 17.5597C24.9385 17.6941 24.6127 17.8106 24.2692 17.9002C23.8377 18.0077 23.2213 18.0705 22.5785 18.1332L22.3231 18.1601C22.147 18.178 21.9972 18.0525 21.962 17.8912C21.962 17.8823 21.9532 17.8733 21.9532 17.8554C21.9356 17.6672 22.0677 17.4969 22.2526 17.479L22.508 17.4521C23.1332 17.3894 23.7144 17.3356 24.1019 17.237C24.4013 17.1564 24.7184 17.0399 25.053 16.9144C25.8103 16.6366 26.6645 16.314 27.7477 16.3051L27.7565 16.2961ZM35.1096 20.033C35.1096 20.1137 35.092 20.2033 35.092 20.2929C33.9824 19.8269 32.82 19.5581 31.6224 19.4953C31.4375 19.4864 31.2966 19.3251 31.3054 19.1369C31.3142 18.9487 31.4727 18.8053 31.6576 18.8143C32.864 18.877 34.0353 19.1458 35.1625 19.5939C35.1448 19.7463 35.1272 19.8986 35.1184 20.051L35.1096 20.033ZM31.8954 22.4347C33.0226 22.3809 34.1057 22.0135 35.048 21.3862C35.048 21.449 35.048 21.5117 35.048 21.5834C35.048 21.7536 35.0744 21.9508 35.092 22.1659C34.1321 22.7304 33.049 23.062 31.9306 23.1158C31.9306 23.1158 31.9218 23.1158 31.913 23.1158C31.7369 23.1158 31.5872 22.9724 31.5784 22.7932C31.5695 22.605 31.7104 22.4437 31.8954 22.4347ZM20.4562 21.5923C20.4562 21.5206 20.4562 21.4579 20.4562 21.3952C21.3984 22.0225 22.4816 22.3809 23.6088 22.4437C23.7937 22.4526 23.9346 22.6139 23.9258 22.8021C23.917 22.9814 23.7673 23.1248 23.5912 23.1248C23.415 23.1248 23.5824 23.1248 23.5736 23.1248C22.4552 23.071 21.372 22.7394 20.4121 22.1748C20.4297 21.9687 20.4474 21.7626 20.4562 21.5923ZM23.8906 19.4864C22.6929 19.5491 21.5305 19.8269 20.4209 20.284C20.4209 20.2033 20.4121 20.1227 20.4033 20.0241C20.3945 19.8807 20.3769 19.7194 20.3593 19.567C21.4865 19.119 22.6577 18.8501 23.8642 18.7874C24.0579 18.7874 24.2076 18.9218 24.2164 19.11C24.2252 19.2982 24.0843 19.4595 23.8994 19.4685L23.8906 19.4864ZM20.2888 23.3129C20.2977 23.2413 20.3065 23.1696 20.3153 23.0979C21.3192 23.7789 24.1636 25.4637 27.7565 25.4727C31.3494 25.4637 34.1938 23.7789 35.1977 23.0979C35.2065 23.1696 35.2153 23.2323 35.2241 23.3129C35.2241 23.3667 35.2417 23.4205 35.2505 23.4742C35.2681 23.5997 35.2857 23.7252 35.3034 23.8506C34.0617 24.6482 31.2525 26.1537 27.7477 26.1627C24.2516 26.1537 21.4337 24.6392 20.2008 23.8506C20.2184 23.7341 20.236 23.6087 20.2536 23.4742C20.2536 23.4205 20.2712 23.3667 20.28 23.3129H20.2888ZM37.6106 16.4843C38.1037 16.2782 38.6145 16.0631 38.9931 16.0631C40.772 16.0631 40.9129 17.9092 40.9129 18.4737C40.9129 20.3108 39.9794 20.9919 38.5704 22.0225C37.7955 22.5871 36.9413 23.2144 36.0519 24.1553C36.0079 23.8865 35.955 23.5639 35.9022 23.2144C35.8053 22.5243 35.7525 21.9866 35.7349 21.5565C35.7349 21.44 35.7349 21.3325 35.7349 21.2249C35.7349 20.8933 35.7701 20.4363 35.7965 20.0778C35.8493 19.5222 35.9198 18.9128 35.9814 18.3572C36.0607 17.7568 36.1311 17.237 36.1664 16.9413C36.6419 16.8696 37.135 16.6725 37.6194 16.4753L37.6106 16.4843ZM16.4494 16.0721C16.8192 16.0721 17.3388 16.2871 17.8319 16.4932C18.3427 16.7083 18.8623 16.9144 19.3642 16.9682C19.4082 17.2639 19.4787 17.7837 19.5491 18.3752C19.6196 18.9487 19.69 19.5491 19.7341 20.0958C19.7781 20.5797 19.7957 20.965 19.7957 21.2428C19.7957 21.5206 19.7957 21.4579 19.7869 21.5744C19.7693 22.0046 19.7165 22.5423 19.6196 23.2323C19.5667 23.6087 19.5051 23.9582 19.4611 24.2449C18.554 23.2681 17.6646 22.6229 16.8721 22.0404C15.4631 21.0098 14.5296 20.3288 14.5296 18.4917C14.5296 16.6546 14.6705 16.081 16.4494 16.081V16.0721Z" fill="#0A2463"/>
</g>
</svg>
