<svg width="64" height="17" viewBox="0 0 64 17" fill="none" xmlns="http://www.w3.org/2000/svg">
<path id="paypal" d="M35.104 4.60635H32.718C32.6057 4.60613 32.4951 4.63335 32.3958 4.68564C32.2964 4.73792 32.2114 4.81369 32.148 4.90635L28.856 9.75435L27.462 5.09635C27.4193 4.9545 27.332 4.83016 27.2132 4.74174C27.0943 4.65331 26.9501 4.60549 26.802 4.60535H24.456C24.3903 4.60535 24.3256 4.621 24.2672 4.651C24.2088 4.68101 24.1584 4.72451 24.1202 4.77789C24.082 4.83127 24.057 4.89299 24.0474 4.95794C24.0378 5.02289 24.0438 5.08919 24.065 5.15135L26.692 12.8683L24.225 16.3523C24.1811 16.4142 24.1551 16.487 24.1498 16.5627C24.1445 16.6384 24.1602 16.7141 24.1951 16.7814C24.2301 16.8488 24.2829 16.9052 24.3478 16.9446C24.4126 16.9839 24.4871 17.0046 24.563 17.0043H26.947C27.0587 17.0037 27.1686 16.9761 27.2673 16.9239C27.366 16.8717 27.4507 16.7963 27.514 16.7043L35.449 5.25135C35.4922 5.18934 35.5175 5.11669 35.5222 5.04128C35.527 4.96588 35.511 4.89061 35.4759 4.82369C35.4408 4.75676 35.3881 4.70074 35.3234 4.66171C35.2587 4.62268 35.1845 4.60215 35.109 4.60235L35.104 4.60635ZM19.153 9.22735C19.0603 9.86719 18.7367 10.451 18.2432 10.8686C17.7497 11.2863 17.1203 11.5088 16.474 11.4943C16.1772 11.525 15.8774 11.483 15.6004 11.372C15.3235 11.2611 15.0777 11.0844 14.8842 10.8572C14.6907 10.6301 14.5554 10.3593 14.4898 10.0682C14.4243 9.77714 14.4305 9.47449 14.508 9.18635C14.5983 8.54751 14.9181 7.96339 15.4076 7.54309C15.8971 7.12278 16.5228 6.89502 17.168 6.90235C17.4633 6.88646 17.7584 6.93624 18.0321 7.04812C18.3059 7.16 18.5514 7.33118 18.751 7.54935C18.9361 7.7831 19.0678 8.05451 19.1369 8.34455C19.206 8.6346 19.2108 8.93625 19.151 9.22835L19.153 9.22735ZM22.461 4.60635H20.087C19.9884 4.60631 19.8931 4.64144 19.8181 4.70542C19.7432 4.76939 19.6935 4.85801 19.678 4.95535L19.578 5.61835L19.412 5.37835C19.0523 5.00937 18.613 4.72746 18.1278 4.55415C17.6425 4.38084 17.124 4.32071 16.612 4.37835C15.3026 4.40624 14.0468 4.90398 13.0738 5.78075C12.1009 6.65752 11.4756 7.85487 11.312 9.15435C11.1868 9.79 11.201 10.4453 11.3536 11.0749C11.5063 11.7045 11.7936 12.2936 12.196 12.8013C12.5715 13.2142 13.0352 13.5371 13.5527 13.746C14.0702 13.955 14.6281 14.0447 15.185 14.0083C15.796 14.0146 16.4021 13.8975 16.9668 13.6642C17.5316 13.4309 18.0435 13.086 18.472 12.6503L18.366 13.3103C18.3567 13.3694 18.3604 13.4297 18.3767 13.4871C18.393 13.5446 18.4216 13.5978 18.4605 13.6432C18.4994 13.6885 18.5476 13.7249 18.6019 13.7498C18.6562 13.7747 18.7153 13.7875 18.775 13.7873H20.913C21.0772 13.7877 21.236 13.7293 21.3609 13.6227C21.4858 13.5162 21.5685 13.3685 21.594 13.2063L22.878 5.07935C22.8872 5.02034 22.8836 4.96002 22.8673 4.90256C22.851 4.8451 22.8224 4.79186 22.7835 4.74651C22.7446 4.70117 22.6964 4.6648 22.6421 4.63991C22.5878 4.61502 22.5287 4.6022 22.469 4.60235L22.461 4.60635ZM8.21499 4.66335C7.94399 6.44235 6.58499 6.44235 5.26999 6.44235H4.52499L5.04899 3.12035C5.06354 3.02289 5.11246 2.93384 5.18692 2.86929C5.26137 2.80474 5.35645 2.76894 5.45499 2.76835H5.79899C6.69399 2.76835 7.53899 2.76835 7.97499 3.27735C8.11392 3.476 8.20752 3.70274 8.24916 3.94155C8.29081 4.18036 8.27948 4.4254 8.21599 4.65935L8.21499 4.66335ZM7.64299 0.0203459H2.68599C2.52174 0.0202603 2.36286 0.0788561 2.238 0.185568C2.11313 0.29228 2.0305 0.440088 2.00499 0.602347L0.00498896 13.3143C-0.00425419 13.3733 -0.00062361 13.4335 0.0156308 13.4909C0.0318852 13.5483 0.0603776 13.6015 0.0991486 13.6468C0.137919 13.6921 0.186049 13.7285 0.240226 13.7535C0.294403 13.7784 0.353342 13.7913 0.412989 13.7913H2.77599C2.93998 13.7914 3.0986 13.7329 3.22328 13.6264C3.34796 13.5199 3.43049 13.3723 3.45599 13.2103L3.99699 9.78035C4.02247 9.61826 4.10496 9.47058 4.22962 9.36389C4.35427 9.2572 4.51291 9.1985 4.67699 9.19835H6.24599C9.51199 9.19835 11.396 7.61835 11.888 4.48635C12.0257 3.9394 12.0404 3.36874 11.9311 2.81542C11.8218 2.2621 11.5913 1.73988 11.256 1.28635C10.7802 0.82822 10.2113 0.477931 9.58803 0.259302C8.96476 0.0406738 8.30172 -0.0411668 7.64399 0.0193465L7.64299 0.0203459ZM60.618 0.369347L58.584 13.3133C58.5747 13.3723 58.5784 13.4325 58.5946 13.4899C58.6109 13.5473 58.6394 13.6005 58.6781 13.6458C58.7169 13.6911 58.765 13.7275 58.8192 13.7525C58.8734 13.7774 58.9323 13.7903 58.992 13.7903H61.038C61.2021 13.7904 61.3609 13.7318 61.4856 13.625C61.6103 13.5183 61.6927 13.3705 61.718 13.2083L63.725 0.497347C63.7342 0.438337 63.7306 0.37802 63.7143 0.320559C63.698 0.263098 63.6694 0.20986 63.6305 0.164515C63.5916 0.11917 63.5434 0.0827969 63.4891 0.0579073C63.4348 0.0330178 63.3757 0.0202029 63.316 0.0203459H61.025C60.9264 0.0201098 60.8309 0.0551672 60.7559 0.119177C60.6809 0.183187 60.6313 0.271925 60.616 0.369347H60.618ZM54.512 9.22735C54.4193 9.86719 54.0957 10.451 53.6022 10.8686C53.1087 11.2863 52.4793 11.5088 51.833 11.4943C51.5362 11.525 51.2364 11.483 50.9594 11.372C50.6825 11.2611 50.4367 11.0844 50.2432 10.8572C50.0497 10.6301 49.9144 10.3593 49.8488 10.0682C49.7833 9.77714 49.7895 9.47449 49.867 9.18635C49.9573 8.54751 50.2771 7.96339 50.7666 7.54309C51.2561 7.12278 51.8818 6.89502 52.527 6.90235C52.8223 6.88646 53.1174 6.93624 53.3911 7.04812C53.6649 7.16 53.9104 7.33118 54.11 7.54935C54.2951 7.7831 54.4268 8.05451 54.4959 8.34455C54.565 8.6346 54.5698 8.93625 54.51 9.22835L54.512 9.22735ZM57.825 4.60635H55.446C55.3474 4.60631 55.2521 4.64144 55.1771 4.70542C55.1022 4.76939 55.0525 4.85801 55.037 4.95535L54.937 5.61935L54.771 5.37935C54.4114 5.01025 53.9721 4.72826 53.4868 4.55494C53.0016 4.38162 52.4831 4.32156 51.971 4.37935C50.6616 4.40724 49.4058 4.90498 48.4328 5.78175C47.4599 6.65852 46.8346 7.85587 46.671 9.15535C46.5458 9.791 46.56 10.4463 46.7126 11.0759C46.8653 11.7055 47.1526 12.2946 47.555 12.8023C47.9305 13.2152 48.3942 13.5381 48.9117 13.747C49.4292 13.956 49.9871 14.0457 50.544 14.0093C51.1538 14.0152 51.7586 13.8982 52.3222 13.6654C52.8859 13.4326 53.397 13.0888 53.825 12.6543L53.719 13.3143C53.7097 13.3734 53.7134 13.4337 53.7297 13.4911C53.746 13.5486 53.7746 13.6018 53.8135 13.6472C53.8524 13.6925 53.9006 13.7289 53.9549 13.7538C54.0092 13.7787 54.0683 13.7915 54.128 13.7913H56.265C56.4291 13.7917 56.588 13.7333 56.7129 13.6267C56.8378 13.5202 56.9205 13.3725 56.946 13.2103L58.225 5.08335C58.2341 5.02436 58.2303 4.96411 58.2139 4.90672C58.1975 4.84934 58.1689 4.79617 58.1301 4.75086C58.0913 4.70556 58.0431 4.66919 57.9888 4.64424C57.9346 4.6193 57.8757 4.60637 57.816 4.60635H57.825ZM43.579 4.66335C43.308 6.44235 41.949 6.44235 40.634 6.44235H39.886L40.41 3.12035C40.4252 3.02309 40.4747 2.93449 40.5495 2.8705C40.6243 2.80651 40.7195 2.77135 40.818 2.77135H41.162C42.057 2.77135 42.902 2.77135 43.338 3.28035C43.4766 3.47916 43.5699 3.70594 43.6113 3.94472C43.6528 4.18349 43.6414 4.42845 43.578 4.66235L43.579 4.66335ZM43.007 0.0203459H38.045C37.8807 0.0202603 37.7219 0.0788561 37.597 0.185568C37.4721 0.29228 37.3895 0.440088 37.364 0.602347L35.364 13.3143C35.3549 13.3732 35.3587 13.4334 35.375 13.4907C35.3913 13.548 35.4198 13.6012 35.4586 13.6464C35.4973 13.6917 35.5453 13.7281 35.5994 13.7531C35.6535 13.7781 35.7124 13.7912 35.772 13.7913H38.316C38.4308 13.7913 38.5418 13.7503 38.6291 13.6757C38.7164 13.6011 38.7741 13.4978 38.792 13.3843L39.361 9.78435C39.3865 9.62226 39.469 9.47458 39.5936 9.36789C39.7183 9.2612 39.8769 9.2025 40.041 9.20235H41.605C44.871 9.20235 46.755 7.62235 47.247 4.49035C47.3847 3.9434 47.3994 3.37274 47.2901 2.81942C47.1808 2.2661 46.9503 1.74388 46.615 1.29035C46.1392 0.832219 45.5703 0.481931 44.947 0.263302C44.3238 0.0446735 43.6607 -0.037167 43.003 0.0233462L43.007 0.0203459Z" fill="#015CA6"/>
</svg>
