<svg width="42" height="27" viewBox="0 0 42 27" fill="none" xmlns="http://www.w3.org/2000/svg">
<path d="M16.6956 13.6143H14.3098V6.0625H16.6956V8.01172L14.5334 10.1953L16.6956 12.3389V13.6143Z" fill="#015CA6"/>
<path d="M1.47412 5.30493H17.9461L9.69312 0L1.47412 5.30493Z" fill="#015CA6"/>
<path d="M5.36696 6.06152H2.78296V13.6145H5.36696V6.06152Z" fill="#015CA6"/>
<path d="M9.14306 6.06152H6.75806V13.6145H9.14306V6.06152Z" fill="#015CA6"/>
<path d="M12.9189 6.06152H10.5339V13.6145H12.9189V6.06152Z" fill="#015CA6"/>
<path d="M17.8881 13.6152H1.59009V15.4042H17.8881V13.6152Z" fill="#015CA6"/>
<path d="M19.479 16H0V17.737H19.479V16Z" fill="#015CA6"/>
<path d="M27.6265 13.6143H25.0425V9.62793L26.77 7.91992L25.0425 6.17578V6.06348H27.6265V13.6143Z" fill="#015CA6"/>
<path d="M23.7349 5.30493H40.2068L31.9539 0L23.7349 5.30493Z" fill="#015CA6"/>
<path d="M31.404 6.06152H29.019V13.6145H31.404V6.06152Z" fill="#015CA6"/>
<path d="M35.1799 6.06152H32.7949V13.6145H35.1799V6.06152Z" fill="#015CA6"/>
<path d="M38.957 6.06152H36.572V13.6145H38.957V6.06152Z" fill="#015CA6"/>
<path d="M40.1491 13.6152H23.8511V15.4042H40.1491V13.6152Z" fill="#015CA6"/>
<path d="M41.74 16H22.261V17.737H41.74V16Z" fill="#015CA6"/>
<path d="M17.946 7.10645L14.887 10.1964L17.946 13.2244V11.1854H23.046V9.14545H17.946V7.10645Z" fill="#015CA6"/>
<path d="M23.0871 4.8291L26.1441 7.9181L23.0871 10.9471V8.9081H17.9871V6.8681H23.0871V4.8291Z" fill="#015CA6"/>
<path d="M14.4991 21.0101H12.5921C12.6119 20.7937 12.5739 20.576 12.4821 20.3791C12.3648 20.2184 12.0494 20.1381 11.5361 20.1381C11.1998 20.1114 10.8616 20.1581 10.5451 20.2751C10.3838 20.3671 10.3031 20.5671 10.3031 20.8751C10.2887 20.9774 10.3009 21.0816 10.3385 21.1778C10.3762 21.274 10.4381 21.3588 10.5181 21.4241C10.6434 21.4929 10.7833 21.5306 10.9261 21.5341L11.3121 21.5611C12.1381 21.6158 12.6541 21.6541 12.8601 21.6761C13.3781 21.6893 13.8774 21.8723 14.2811 22.1971C14.5168 22.4259 14.6632 22.7311 14.6941 23.0581C14.7215 23.2968 14.7345 23.5369 14.7331 23.7771C14.7561 24.234 14.6964 24.6913 14.5571 25.1271C14.4261 25.404 14.2246 25.6415 13.9727 25.8159C13.7208 25.9902 13.4274 26.0951 13.1221 26.1201C12.6488 26.1899 12.1704 26.2193 11.6921 26.2081C10.9404 26.2407 10.1876 26.1769 9.45212 26.0181C9.21534 25.9575 8.99758 25.8384 8.81883 25.6717C8.64009 25.505 8.50608 25.2961 8.42912 25.0641C8.31771 24.6297 8.27154 24.1811 8.29212 23.7331H10.2041C10.2041 23.8021 10.2041 23.8551 10.2041 23.8921C10.2041 24.2254 10.2994 24.4388 10.4901 24.5321C10.6402 24.6001 10.8034 24.6342 10.9681 24.6321H11.6681C11.8982 24.645 12.129 24.6265 12.3541 24.5771C12.433 24.5507 12.505 24.507 12.5649 24.4492C12.6247 24.3914 12.6709 24.321 12.7001 24.2431C12.7325 24.1235 12.7474 23.9999 12.7441 23.8761C12.7441 23.5428 12.6214 23.3381 12.3761 23.2621C11.9524 23.1982 11.5254 23.1582 11.0971 23.1421C10.4858 23.0988 10.0614 23.0568 9.82412 23.0161C9.5759 22.9946 9.33544 22.9187 9.11978 22.794C8.90412 22.6692 8.71852 22.4985 8.57612 22.2941C8.36543 21.8557 8.27074 21.3706 8.30112 20.8851C8.28943 20.4973 8.33973 20.1101 8.45012 19.7381C8.53155 19.4705 8.69972 19.2376 8.92812 19.0761C9.29538 18.8306 9.7228 18.6902 10.1641 18.6701C10.5828 18.6341 11.0464 18.6158 11.5551 18.6151C12.1302 18.5945 12.7057 18.6408 13.2701 18.7531C13.6717 18.8596 14.0203 19.1094 14.2503 19.4554C14.4802 19.8014 14.5755 20.2196 14.5181 20.6311C14.5181 20.7151 14.5121 20.8411 14.4991 21.0101Z" fill="#015CA6"/>
<path d="M22.9072 26.2098V18.5748H26.7352C27.1393 18.5608 27.5433 18.6043 27.9352 18.7038C28.2304 18.7857 28.5008 18.939 28.7227 19.1502C28.9445 19.3614 29.111 19.624 29.2072 19.9148C29.3384 20.3854 29.3951 20.8737 29.3752 21.3618C29.4014 21.9247 29.339 22.4883 29.1902 23.0318C29.0798 23.3522 28.8772 23.6329 28.6079 23.8385C28.3385 24.0442 28.0144 24.1657 27.6762 24.1878C27.5862 24.2032 27.2042 24.2162 26.5302 24.2268L26.1892 24.2378H24.9642V26.2098H22.9072ZM24.9622 22.4678H26.2432C26.4941 22.4771 26.7448 22.445 26.9852 22.3728C27.0529 22.3283 27.1099 22.2693 27.152 22.2002C27.1942 22.131 27.2206 22.0534 27.2292 21.9728C27.2601 21.7744 27.2732 21.5736 27.2682 21.3728C27.2778 21.1306 27.2516 20.8883 27.1902 20.6538C27.1496 20.5431 27.0778 20.4465 26.9837 20.3756C26.8895 20.3046 26.7768 20.2624 26.6592 20.2538C26.6032 20.2468 26.4712 20.2428 26.2592 20.2428H24.9592L24.9622 22.4678Z" fill="#015CA6"/>
<path d="M33.7561 24.8902H31.0091L30.6411 26.2102H28.5151L30.8081 18.5752H33.9081L36.2301 26.2102H34.1491L33.7561 24.8902ZM33.3481 23.4032L32.3851 20.0942L31.4511 23.4032H33.3481Z" fill="#015CA6"/>
<path d="M20.0692 19.6493C20.4717 19.6489 20.8691 19.7385 21.2324 19.9115C21.5958 20.0846 21.9158 20.3366 22.1692 20.6493L22.6122 19.6993C22.1563 19.2697 21.6035 18.9565 21.0006 18.7862C20.3978 18.6159 19.7628 18.5937 19.1495 18.7213C18.5362 18.8489 17.9628 19.1226 17.4779 19.5192C16.993 19.9157 16.611 20.4235 16.3642 20.9993H15.5002L14.9902 22.0923H16.1012C16.0932 22.1923 16.0872 22.2923 16.0872 22.3983C16.0873 22.5225 16.0936 22.6467 16.1062 22.7703H15.5482L15.0382 23.8643H16.3902C16.6929 24.5515 17.1897 25.1353 17.8197 25.5439C18.4497 25.9525 19.1853 26.1681 19.9362 26.1643C20.7065 26.1659 21.46 25.939 22.1012 25.5123V24.1763C21.827 24.4915 21.4833 24.7387 21.0972 24.8985C20.7112 25.0583 20.2933 25.1264 19.8765 25.0973C19.4597 25.0682 19.0553 24.9428 18.6952 24.7309C18.3351 24.519 18.0291 24.2265 17.8012 23.8763H20.6322L21.1422 22.7823H17.3872C17.3539 22.5578 17.3485 22.33 17.3712 22.1043H21.4612L21.9712 21.0113H17.7242C17.9616 20.5994 18.3031 20.2573 18.7146 20.0192C19.126 19.7812 19.5929 19.6557 20.0682 19.6553" fill="#015CA6"/>
</svg>
