<svg width="649" height="185" viewBox="0 0 649 185" fill="none" xmlns="http://www.w3.org/2000/svg">
<path d="M356.655 129.47V126.272H364.026C365.04 126.272 365.937 126.064 366.717 125.648C367.523 125.232 368.147 124.647 368.589 123.893C369.057 123.139 369.291 122.242 369.291 121.202C369.291 120.162 369.057 119.265 368.589 118.511C368.147 117.757 367.523 117.172 366.717 116.756C365.937 116.34 365.04 116.132 364.026 116.132H356.655V112.934H364.26C365.924 112.934 367.406 113.272 368.706 113.948C370.032 114.624 371.072 115.586 371.826 116.834C372.606 118.056 372.996 119.512 372.996 121.202C372.996 122.866 372.606 124.322 371.826 125.57C371.072 126.792 370.032 127.754 368.706 128.456C367.406 129.132 365.924 129.47 364.26 129.47H356.655ZM354.198 140V112.934H357.864V140H354.198ZM381.071 140L392.147 112.934H394.799L405.836 140H401.858L392.771 117.107H394.136L384.971 140H381.071ZM386.336 133.877V130.679H400.571V133.877H386.336ZM420.167 128.222V125.141H427.499C429.085 125.141 430.307 124.738 431.165 123.932C432.023 123.126 432.452 122.034 432.452 120.656C432.452 119.356 432.023 118.277 431.165 117.419C430.333 116.561 429.124 116.132 427.538 116.132H420.167V112.934H427.655C429.371 112.934 430.866 113.272 432.14 113.948C433.414 114.598 434.389 115.495 435.065 116.639C435.767 117.783 436.118 119.096 436.118 120.578C436.118 122.112 435.767 123.451 435.065 124.595C434.389 125.739 433.414 126.636 432.14 127.286C430.866 127.91 429.371 128.222 427.655 128.222H420.167ZM417.71 140V112.934H421.376V140H417.71ZM433.31 140L423.482 127.871L426.953 126.662L437.951 140H433.31ZM446.677 140L457.753 112.934H460.405L471.442 140H467.464L458.377 117.107H459.742L450.577 140H446.677ZM451.942 133.877V130.679H466.177V133.877H451.942ZM500.886 129.47V126.272H508.257C509.271 126.272 510.168 126.064 510.948 125.648C511.754 125.232 512.378 124.647 512.82 123.893C513.288 123.139 513.522 122.242 513.522 121.202C513.522 120.162 513.288 119.265 512.82 118.511C512.378 117.757 511.754 117.172 510.948 116.756C510.168 116.34 509.271 116.132 508.257 116.132H500.886V112.934H508.491C510.155 112.934 511.637 113.272 512.937 113.948C514.263 114.624 515.303 115.586 516.057 116.834C516.837 118.056 517.227 119.512 517.227 121.202C517.227 122.866 516.837 124.322 516.057 125.57C515.303 126.792 514.263 127.754 512.937 128.456C511.637 129.132 510.155 129.47 508.491 129.47H500.886ZM498.429 140V112.934H502.095V140H498.429ZM532.033 128.222V125.141H539.365C540.951 125.141 542.173 124.738 543.031 123.932C543.889 123.126 544.318 122.034 544.318 120.656C544.318 119.356 543.889 118.277 543.031 117.419C542.199 116.561 540.99 116.132 539.404 116.132H532.033V112.934H539.521C541.237 112.934 542.732 113.272 544.006 113.948C545.28 114.598 546.255 115.495 546.931 116.639C547.633 117.783 547.984 119.096 547.984 120.578C547.984 122.112 547.633 123.451 546.931 124.595C546.255 125.739 545.28 126.636 544.006 127.286C542.732 127.91 541.237 128.222 539.521 128.222H532.033ZM529.576 140V112.934H533.242V140H529.576ZM545.176 140L535.348 127.871L538.819 126.662L549.817 140H545.176ZM573.313 140.39C571.389 140.39 569.595 140.039 567.931 139.337C566.267 138.609 564.811 137.608 563.563 136.334C562.315 135.034 561.34 133.539 560.638 131.849C559.962 130.159 559.624 128.352 559.624 126.428C559.624 124.478 559.962 122.671 560.638 121.007C561.34 119.317 562.302 117.835 563.524 116.561C564.772 115.287 566.215 114.299 567.853 113.597C569.517 112.895 571.311 112.544 573.235 112.544C575.159 112.544 576.94 112.895 578.578 113.597C580.242 114.299 581.698 115.287 582.946 116.561C584.194 117.835 585.169 119.317 585.871 121.007C586.573 122.697 586.924 124.517 586.924 126.467C586.924 128.391 586.573 130.198 585.871 131.888C585.169 133.578 584.194 135.06 582.946 136.334C581.724 137.608 580.281 138.609 578.617 139.337C576.979 140.039 575.211 140.39 573.313 140.39ZM573.235 136.88C575.185 136.88 576.888 136.438 578.344 135.554C579.826 134.644 580.996 133.409 581.854 131.849C582.712 130.263 583.141 128.456 583.141 126.428C583.141 124.92 582.894 123.542 582.4 122.294C581.906 121.02 581.217 119.915 580.333 118.979C579.449 118.043 578.409 117.328 577.213 116.834C576.017 116.314 574.691 116.054 573.235 116.054C571.311 116.054 569.608 116.496 568.126 117.38C566.67 118.264 565.513 119.486 564.655 121.046C563.823 122.606 563.407 124.4 563.407 126.428C563.407 127.936 563.641 129.34 564.109 130.64C564.603 131.914 565.279 133.019 566.137 133.955C567.021 134.865 568.061 135.58 569.257 136.1C570.479 136.62 571.805 136.88 573.235 136.88ZM570.934 110.165L569.335 108.566L574.405 102.287L577.174 105.056L570.934 110.165ZM606.519 140.39C604.387 140.39 602.567 140 601.059 139.22C599.551 138.44 598.212 137.309 597.042 135.827L599.538 133.331C600.396 134.527 601.384 135.437 602.502 136.061C603.62 136.659 604.998 136.958 606.636 136.958C608.248 136.958 609.535 136.607 610.497 135.905C611.485 135.203 611.979 134.241 611.979 133.019C611.979 132.005 611.745 131.186 611.277 130.562C610.809 129.938 610.172 129.431 609.366 129.041C608.586 128.625 607.728 128.261 606.792 127.949C605.856 127.611 604.92 127.26 603.984 126.896C603.048 126.506 602.19 126.038 601.41 125.492C600.63 124.92 599.993 124.179 599.499 123.269C599.031 122.359 598.797 121.215 598.797 119.837C598.797 118.303 599.161 117.003 599.889 115.937C600.643 114.845 601.657 114.013 602.931 113.441C604.231 112.843 605.687 112.544 607.299 112.544C609.067 112.544 610.653 112.895 612.057 113.597C613.461 114.273 614.605 115.17 615.489 116.288L612.993 118.784C612.187 117.848 611.316 117.146 610.38 116.678C609.47 116.21 608.417 115.976 607.221 115.976C605.765 115.976 604.608 116.301 603.75 116.951C602.892 117.575 602.463 118.459 602.463 119.603C602.463 120.513 602.697 121.254 603.165 121.826C603.659 122.372 604.296 122.84 605.076 123.23C605.856 123.62 606.714 123.984 607.65 124.322C608.612 124.634 609.561 124.985 610.497 125.375C611.433 125.765 612.291 126.259 613.071 126.857C613.851 127.455 614.475 128.235 614.943 129.197C615.437 130.133 615.684 131.316 615.684 132.746C615.684 135.138 614.852 137.01 613.188 138.362C611.55 139.714 609.327 140.39 606.519 140.39ZM356.616 184V180.646H364.143C366.145 180.646 367.9 180.217 369.408 179.359C370.916 178.475 372.086 177.266 372.918 175.732C373.776 174.198 374.205 172.43 374.205 170.428C374.205 168.452 373.776 166.697 372.918 165.163C372.06 163.629 370.877 162.433 369.369 161.575C367.861 160.717 366.119 160.288 364.143 160.288H356.655V156.934H364.221C366.197 156.934 368.017 157.272 369.681 157.948C371.371 158.624 372.827 159.573 374.049 160.795C375.297 162.017 376.259 163.447 376.935 165.085C377.637 166.723 377.988 168.517 377.988 170.467C377.988 172.391 377.637 174.185 376.935 175.849C376.259 177.487 375.31 178.917 374.088 180.139C372.866 181.361 371.41 182.31 369.72 182.986C368.056 183.662 366.249 184 364.299 184H356.616ZM354.198 184V156.934H357.864V184H354.198ZM394.611 184.39C392.687 184.39 390.893 184.039 389.229 183.337C387.565 182.609 386.109 181.608 384.861 180.334C383.613 179.034 382.638 177.539 381.936 175.849C381.26 174.159 380.922 172.352 380.922 170.428C380.922 168.478 381.26 166.671 381.936 165.007C382.638 163.317 383.6 161.835 384.822 160.561C386.07 159.287 387.513 158.299 389.151 157.597C390.815 156.895 392.609 156.544 394.533 156.544C396.457 156.544 398.238 156.895 399.876 157.597C401.54 158.299 402.996 159.287 404.244 160.561C405.492 161.835 406.467 163.317 407.169 165.007C407.871 166.697 408.222 168.517 408.222 170.467C408.222 172.391 407.871 174.198 407.169 175.888C406.467 177.578 405.492 179.06 404.244 180.334C403.022 181.608 401.579 182.609 399.915 183.337C398.277 184.039 396.509 184.39 394.611 184.39ZM394.533 180.88C396.483 180.88 398.186 180.438 399.642 179.554C401.124 178.644 402.294 177.409 403.152 175.849C404.01 174.263 404.439 172.456 404.439 170.428C404.439 168.92 404.192 167.542 403.698 166.294C403.204 165.02 402.515 163.915 401.631 162.979C400.747 162.043 399.707 161.328 398.511 160.834C397.315 160.314 395.989 160.054 394.533 160.054C392.609 160.054 390.906 160.496 389.424 161.38C387.968 162.264 386.811 163.486 385.953 165.046C385.121 166.606 384.705 168.4 384.705 170.428C384.705 171.936 384.939 173.34 385.407 174.64C385.901 175.914 386.577 177.019 387.435 177.955C388.319 178.865 389.359 179.58 390.555 180.1C391.777 180.62 393.103 180.88 394.533 180.88ZM416.71 184L427.786 156.934H430.438L441.475 184H437.497L428.41 161.107H429.775L420.61 184H416.71ZM421.975 177.877V174.679H436.21V177.877H421.975ZM454.605 184.39C452.603 184.39 450.809 183.948 449.223 183.064C447.663 182.154 446.428 180.919 445.518 179.359C444.608 177.773 444.153 175.979 444.153 173.977V156.934H447.819V173.899C447.819 175.329 448.118 176.564 448.716 177.604C449.314 178.644 450.12 179.45 451.134 180.022C452.174 180.594 453.331 180.88 454.605 180.88C455.931 180.88 457.088 180.594 458.076 180.022C459.09 179.45 459.883 178.644 460.455 177.604C461.053 176.564 461.352 175.342 461.352 173.938V156.934H465.057V174.016C465.057 176.018 464.602 177.799 463.692 179.359C462.782 180.919 461.547 182.154 459.987 183.064C458.427 183.948 456.633 184.39 454.605 184.39ZM477.102 184V157.714H480.768V184H477.102ZM467.898 160.288V156.934H489.933V160.288H467.898ZM503.864 184.39C501.94 184.39 500.146 184.039 498.482 183.337C496.818 182.609 495.362 181.608 494.114 180.334C492.866 179.034 491.891 177.539 491.189 175.849C490.513 174.159 490.175 172.352 490.175 170.428C490.175 168.478 490.513 166.671 491.189 165.007C491.891 163.317 492.853 161.835 494.075 160.561C495.323 159.287 496.766 158.299 498.404 157.597C500.068 156.895 501.862 156.544 503.786 156.544C505.71 156.544 507.491 156.895 509.129 157.597C510.793 158.299 512.249 159.287 513.497 160.561C514.745 161.835 515.72 163.317 516.422 165.007C517.124 166.697 517.475 168.517 517.475 170.467C517.475 172.391 517.124 174.198 516.422 175.888C515.72 177.578 514.745 179.06 513.497 180.334C512.275 181.608 510.832 182.609 509.168 183.337C507.53 184.039 505.762 184.39 503.864 184.39ZM503.786 180.88C505.736 180.88 507.439 180.438 508.895 179.554C510.377 178.644 511.547 177.409 512.405 175.849C513.263 174.263 513.692 172.456 513.692 170.428C513.692 168.92 513.445 167.542 512.951 166.294C512.457 165.02 511.768 163.915 510.884 162.979C510 162.043 508.96 161.328 507.764 160.834C506.568 160.314 505.242 160.054 503.786 160.054C501.862 160.054 500.159 160.496 498.677 161.38C497.221 162.264 496.064 163.486 495.206 165.046C494.374 166.606 493.958 168.4 493.958 170.428C493.958 171.936 494.192 173.34 494.66 174.64C495.154 175.914 495.83 177.019 496.688 177.955C497.572 178.865 498.612 179.58 499.808 180.1C501.03 180.62 502.356 180.88 503.786 180.88ZM521.724 184V156.934H524.298L535.764 175.771H534.009L545.475 156.934H548.049V184H544.383V163.369L545.241 163.603L536.193 178.462H533.619L524.571 163.603L525.39 163.369V184H521.724ZM565.984 184.39C564.06 184.39 562.266 184.039 560.602 183.337C558.938 182.609 557.482 181.608 556.234 180.334C554.986 179.034 554.011 177.539 553.309 175.849C552.633 174.159 552.295 172.352 552.295 170.428C552.295 168.478 552.633 166.671 553.309 165.007C554.011 163.317 554.973 161.835 556.195 160.561C557.443 159.287 558.886 158.299 560.524 157.597C562.188 156.895 563.982 156.544 565.906 156.544C567.83 156.544 569.611 156.895 571.249 157.597C572.913 158.299 574.369 159.287 575.617 160.561C576.865 161.835 577.84 163.317 578.542 165.007C579.244 166.697 579.595 168.517 579.595 170.467C579.595 172.391 579.244 174.198 578.542 175.888C577.84 177.578 576.865 179.06 575.617 180.334C574.395 181.608 572.952 182.609 571.288 183.337C569.65 184.039 567.882 184.39 565.984 184.39ZM565.906 180.88C567.856 180.88 569.559 180.438 571.015 179.554C572.497 178.644 573.667 177.409 574.525 175.849C575.383 174.263 575.812 172.456 575.812 170.428C575.812 168.92 575.565 167.542 575.071 166.294C574.577 165.02 573.888 163.915 573.004 162.979C572.12 162.043 571.08 161.328 569.884 160.834C568.688 160.314 567.362 160.054 565.906 160.054C563.982 160.054 562.279 160.496 560.797 161.38C559.341 162.264 558.184 163.486 557.326 165.046C556.494 166.606 556.078 168.4 556.078 170.428C556.078 171.936 556.312 173.34 556.78 174.64C557.274 175.914 557.95 177.019 558.808 177.955C559.692 178.865 560.732 179.58 561.928 180.1C563.15 180.62 564.476 180.88 565.906 180.88ZM563.605 154.165L562.006 152.566L567.076 146.287L569.845 149.056L563.605 154.165ZM591.174 184L580.332 156.934H584.31L593.241 179.827H591.798L600.807 156.934H604.746L593.826 184H591.174ZM608.391 184V156.934H612.057V184H608.391ZM610.887 184V180.646H626.409V184H610.887ZM610.887 171.754V168.556H625.122V171.754H610.887ZM610.887 160.288V156.934H626.214V160.288H610.887ZM630.615 184V156.934H634.281V184H630.615ZM633.111 184V180.646H647.619V184H633.111Z" fill="#0A2463"/>
<path d="M164.998 141.667C164.998 146.435 163.403 151.997 160.016 158.155C156.827 164.512 152.443 169.875 146.665 174.246C141.085 178.815 134.708 181 127.734 181H40.0538C34.6734 181 28.8945 179.212 22.7171 175.835C16.3403 172.259 10.96 168.088 6.57599 162.923C2.192 157.758 0 152.792 0 148.421V32.6975C0 29.7178 1.19563 26.1421 3.78618 22.3678C6.17745 18.5934 9.56508 15.0177 13.5505 11.6407C17.536 8.26364 22.1192 5.48255 26.9018 3.29742C31.6843 1.11228 36.2676 0.119019 40.6516 0.119019H117.372C126.14 0.119019 134.31 2.10552 141.483 5.87986C148.857 9.85284 154.635 14.8191 158.82 20.7786C163.005 26.9367 164.998 32.6975 164.998 38.657V141.667ZM124.745 127.762V51.9665C124.745 45.4111 122.353 40.8422 117.571 38.2597C112.788 35.6773 107.408 34.2867 101.629 34.2867H61.1767C54.6007 34.2867 49.2203 36.6705 44.8363 40.8422C40.253 44.8151 37.8618 49.3841 37.8618 54.549V124.981C37.8618 139.085 44.0392 146.038 55.597 146.038H106.212C110.397 146.038 113.785 145.044 116.574 143.058C119.364 141.071 121.357 138.489 122.752 135.708C124.147 132.927 124.745 130.344 124.745 127.762Z" fill="#0A2463"/>
<path d="M346.946 33.0136H179.158V0.236445H346.946V33.0136ZM336.545 54.2691L232.351 181H181.536L288.122 54.2691H336.545Z" fill="#0A2463"/>
<path d="M469.029 22.0679H357.944V0H469.029V22.0679ZM472.107 91.9495H355V71.1952L405.992 35.8603H451.229L400.504 69.2249H472.107V91.9495Z" fill="#FB3640"/>
<path d="M612.824 91.9495H577.759L550.054 56.8774H515.123V91.9495H487.954V34.8095H572.673C574.413 34.8095 576.019 34.1527 577.759 32.9705C579.365 31.7883 580.168 30.0806 580.168 27.8476C580.168 26.2713 579.766 25.0891 578.963 24.0382C578.16 23.1187 577.089 22.462 575.885 22.0679C574.547 21.5425 573.208 21.4111 571.736 21.4111H487.954V0H590.205C595.024 0 599.172 1.70763 602.518 4.99155C605.998 8.40681 607.738 12.4789 607.738 17.2077V40.1951C607.738 44.2671 606.935 47.4197 605.195 49.6527C603.455 51.8858 601.448 53.4621 599.172 54.2502C596.897 55.1697 594.221 55.6951 591.142 56.0892C588.064 56.4833 586.324 56.746 585.789 56.8774L612.824 91.9495Z" fill="#FB3640"/>
</svg>
