<svg width="59" height="24" viewBox="0 0 59 24" fill="none" xmlns="http://www.w3.org/2000/svg">
<path fill-rule="evenodd" clip-rule="evenodd" d="M0.617457 13.192L0.768583 11.1198C0.8318 10.253 1.17561 9.43036 1.748 8.77636L6.29758 3.57811C6.58014 3.25525 6.59669 2.7782 6.33716 2.43655C6.09925 2.12335 6.09119 1.69214 6.31804 1.37083C6.36379 1.30604 6.40955 1.24128 6.45532 1.17655C6.66299 0.882875 6.98932 0.695325 7.34767 0.664406C15.5578 -0.0439577 23.8058 -0.186093 32.0347 0.23893C32.6018 0.268217 33.1568 0.418581 33.6544 0.692092C36.6835 2.35712 39.4832 4.41657 41.9822 6.81715C42.7044 7.51095 43.6388 7.94637 44.6364 8.03443C48.2825 8.35626 51.8926 9.0113 55.4227 9.9917C56.1182 10.1849 56.7543 10.5671 57.1877 11.1443C57.8946 12.086 58.4497 13.1372 58.8306 14.2588C58.902 14.4689 58.9501 14.6864 58.9697 14.9074C59.0876 16.2371 58.86 17.572 58.3139 18.7806C58.0914 19.2731 57.6086 19.5833 57.0737 19.6606C55.8039 19.8442 54.7329 18.6313 54.5469 17.3618C54.5285 17.2364 54.5065 17.1114 54.4809 16.9869C54.2727 15.9735 53.8318 15.024 53.1938 14.2153C52.5558 13.4066 51.7386 12.7614 50.8086 12.332C49.8785 11.9025 48.8616 11.7009 47.8402 11.7434C46.8188 11.7859 45.8217 12.0713 44.9295 12.5766C44.0374 13.0819 43.2753 13.7929 42.705 14.6519C42.1347 15.5108 41.7722 16.4937 41.6468 17.521C41.4643 19.0163 40.4001 20.5647 38.8936 20.5647H19.5359C18.0546 20.5647 17.0084 19.0441 16.8401 17.5724C16.7245 16.5616 16.3793 15.5917 15.8317 14.7385C15.2841 13.8853 14.5488 13.1721 13.6835 12.6547C12.8181 12.1373 11.8463 11.8298 10.844 11.7563C9.84165 11.6827 8.83614 11.8451 7.90618 12.2308C6.97622 12.6164 6.14706 13.2148 5.48365 13.9791C4.82024 14.7434 4.3406 15.6529 4.08228 16.6362C4.0323 16.8265 3.99086 17.0186 3.95799 17.2118C3.76814 18.328 2.71963 19.317 1.62357 19.0331C1.01408 18.8753 0.562942 18.361 0.486248 17.7361C0.329418 16.4582 0.173593 15.1796 0.018773 13.9002C0.00700301 13.803 0.0434059 13.7061 0.116303 13.6406L0.616475 13.1915C0.616854 13.1912 0.617457 13.1914 0.617457 13.192ZM48.1075 12.6598C46.8119 12.6595 45.5563 13.1142 44.5546 13.9462C43.553 14.7783 42.8672 15.9362 42.6143 17.2229C42.3613 18.5095 42.5568 19.8451 43.1674 21.0022C43.778 22.1592 44.766 23.066 45.9629 23.5682C47.1599 24.0703 48.4917 24.1367 49.7316 23.7559C50.9714 23.3752 52.0425 22.571 52.7624 21.4802C53.4822 20.3895 53.8062 19.0797 53.6793 17.7742C53.5523 16.4686 52.9822 15.2481 52.066 14.3205C51.5467 13.7933 50.9297 13.3753 50.2504 13.0903C49.5711 12.8053 48.8428 12.659 48.1075 12.6598ZM10.3738 12.6598C9.07824 12.6595 7.82262 13.1142 6.82095 13.9462C5.81929 14.7783 5.13355 15.9362 4.8806 17.2229C4.62764 18.5095 4.82313 19.8451 5.43374 21.0022C6.04435 22.1592 7.0323 23.066 8.22924 23.5682C9.42618 24.0703 10.758 24.1367 11.9979 23.7559C13.2377 23.3752 14.3088 22.571 15.0287 21.4802C15.7485 20.3895 16.0726 19.0797 15.9456 17.7742C15.8186 16.4686 15.2485 15.2481 14.3323 14.3205C13.813 13.7934 13.1959 13.3754 12.5166 13.0904C11.8373 12.8054 11.1091 12.6591 10.3738 12.6598ZM10.8835 18.5041C10.8837 18.5042 10.884 18.5042 10.8842 18.5041L12.7746 18.0811C13.0348 18.0229 13.2204 17.7805 13.1488 17.5236C13.0759 17.2621 12.7838 17.1537 12.529 17.2476L12.1331 17.3936C11.4391 17.6494 10.7119 17.1053 10.7614 16.3673L10.7923 15.9059C10.81 15.642 10.6323 15.3968 10.3678 15.3933C10.1 15.3898 9.91594 15.6358 9.93205 15.9031L9.95899 16.3498C10.0035 17.0884 9.26949 17.6258 8.57882 17.3603L8.19178 17.2115C7.94191 17.1154 7.65246 17.2159 7.5721 17.4713C7.49143 17.7277 7.67263 17.9771 7.93387 18.0403L8.36868 18.1453C9.09704 18.3213 9.41316 19.1807 8.97244 19.7867L8.70192 20.1587C8.5456 20.3736 8.56825 20.6778 8.79285 20.8199C9.01732 20.9619 9.30064 20.8517 9.42786 20.6185L9.62298 20.2609C9.97605 19.6138 10.884 19.5579 11.3138 20.1567L11.5489 20.4843C11.7049 20.7017 12.0023 20.7762 12.2083 20.6053C12.4128 20.4356 12.3975 20.1311 12.2162 19.9367L10.8821 18.5066C10.8811 18.5055 10.8821 18.5038 10.8835 18.5041ZM12.6379 16.0336C12.1137 15.5029 11.4241 15.1727 10.6864 15.0991C9.94875 15.0256 9.20875 15.2133 8.59247 15.6303C7.97619 16.0473 7.52178 16.6678 7.30665 17.386C7.09153 18.1042 7.12901 18.8757 7.4127 19.5691C7.6964 20.2625 8.20875 20.8348 8.86247 21.1885C9.51619 21.5423 10.2708 21.6556 10.9978 21.5091C11.7248 21.3627 12.3791 20.9655 12.8493 20.3853C13.3195 19.8051 13.5764 19.0778 13.5764 18.3273C13.5772 17.9012 13.4947 17.4791 13.3336 17.0854C13.1725 16.6917 12.9361 16.3343 12.6379 16.0336ZM48.5875 18.5041C48.5877 18.5042 48.5879 18.5042 48.588 18.5042L50.4794 18.0809C50.7389 18.0229 50.9237 17.7808 50.8526 17.5245C50.7801 17.2631 50.4885 17.1538 50.2339 17.2476L49.8352 17.3945C49.1422 17.6498 48.4161 17.1063 48.4659 16.3694L48.4972 15.9067C48.5151 15.6423 48.3372 15.3966 48.0722 15.3932C47.8041 15.3897 47.6199 15.636 47.636 15.9037L47.6629 16.3504C47.7075 17.0888 46.9737 17.6261 46.2832 17.3608L45.8952 17.2117C45.645 17.1156 45.3552 17.2167 45.2756 17.4726C45.196 17.7285 45.3769 17.977 45.6374 18.04L46.0718 18.145C46.8003 18.3212 47.1167 19.1806 46.6764 19.7871L46.4067 20.1585C46.2505 20.3738 46.2728 20.6781 46.4976 20.8203C46.7223 20.9625 47.0058 20.8517 47.1332 20.6183L47.3282 20.2609C47.6813 19.6138 48.5892 19.5579 49.019 20.1567L49.2541 20.4843C49.4101 20.7017 49.7079 20.7759 49.9139 20.6049C49.92 20.5999 49.926 20.5948 49.9321 20.5897C50.1244 20.4266 50.1096 20.1385 49.9376 19.9541L48.5865 18.5057C48.5858 18.505 48.5866 18.5038 48.5875 18.5041ZM50.3715 16.0336C49.8474 15.5029 49.1577 15.1727 48.4201 15.0991C47.6824 15.0256 46.9424 15.2133 46.3261 15.6303C45.7099 16.0473 45.2554 16.6678 45.0403 17.386C44.8252 18.1042 44.8627 18.8757 45.1464 19.5691C45.4301 20.2625 45.9424 20.8348 46.5961 21.1885C47.2499 21.5423 48.0045 21.6556 48.7315 21.5091C49.4584 21.3627 50.1128 20.9655 50.5829 20.3853C51.0531 19.8051 51.3101 19.0778 51.31 18.3273C51.3107 17.9012 51.2281 17.4792 51.0671 17.0855C50.906 16.6919 50.6696 16.3343 50.3715 16.0336ZM10.0217 7.70926L10.5002 7.71229C11.9829 7.72168 13.2226 6.58725 13.3444 5.10952L13.4973 3.25428C13.557 2.52994 12.9727 1.91705 12.2466 1.95C11.874 1.9669 11.5217 2.15532 11.3178 2.46762C10.6356 3.5126 10.0583 4.62411 9.59473 5.78553C9.45395 6.13821 9.47331 6.53293 9.63315 6.8774L10.0181 7.70691C10.0187 7.70835 10.0202 7.70926 10.0217 7.70926ZM1.41744 12.0188C1.41744 12.0203 1.41873 12.0214 1.42015 12.0213C3.34055 11.8753 3.79701 11.1114 4.24689 9.64938C4.39909 9.1548 4.10093 8.63463 3.60114 8.5005C3.26116 8.40927 2.89886 8.51903 2.66667 8.78362L2.08513 9.44633C1.75087 9.82724 1.54917 10.3063 1.51031 10.8116L1.41744 12.0188ZM15.1388 1.82025L15.2698 4.00841C15.3956 6.1108 17.1302 7.75543 19.2363 7.76929L22.2228 7.78894C24.0576 7.80101 25.5003 6.22386 25.3253 4.39739C25.1753 2.83216 23.8759 1.62405 22.3035 1.63197C19.9432 1.64386 17.6111 1.7236 15.1453 1.82654C15.1418 1.82669 15.1388 1.82383 15.1388 1.82025ZM30.5202 1.90314C28.5366 1.75736 27.0282 3.60029 27.4893 5.535C27.8108 6.88393 29.0119 7.8389 30.3986 7.84806L34.5641 7.87557C35.0459 7.87875 35.4688 7.5551 35.5915 7.08911L35.5983 7.06335C35.7713 6.40651 36.5215 6.092 37.0646 6.50001C37.3636 6.72467 37.6508 6.96535 37.9251 7.22112C38.012 7.30218 38.1528 7.28131 38.2101 7.17718C38.2472 7.10973 38.2373 7.02609 38.1852 6.96945C36.5555 5.19941 34.6922 3.66729 32.6489 2.41608C32.2129 2.14907 31.7173 1.9968 31.2076 1.95595C30.9769 1.93746 30.7477 1.91986 30.5202 1.90314ZM30.1598 10.277C29.4134 10.277 28.8982 11.0207 29.611 11.2421C29.9575 11.3498 30.362 11.3498 30.7085 11.2421C31.4213 11.0207 30.9061 10.277 30.1598 10.277ZM17.5251 10.277C16.7784 10.277 16.2633 11.0209 16.9764 11.2422C17.3229 11.3498 17.7273 11.3498 18.0738 11.2422C18.787 11.0209 18.2719 10.277 17.5251 10.277ZM56.4314 11.0959C56.4311 11.0961 56.4308 11.0963 56.4306 11.0965C55.8707 11.712 55.868 12.5261 56.2632 13.172C56.855 14.1392 57.8092 13.0842 57.1924 12.1328C56.9597 11.7738 56.7069 11.4278 56.435 11.0967C56.4341 11.0956 56.4326 11.0953 56.4314 11.0959Z" fill="#0A2463"/>
</svg>
