<svg id="Layer_1" data-name="Layer 1" xmlns="http://www.w3.org/2000/svg" viewBox="0 0 30 14"><defs><style>.cls-1{fill:#222c60;fillRule:evenodd;}</style></defs><title>4x4</title><path class="cls-1" d="M283.59,415.62c-.36,1.16-.73,2.32-1.09,3.48l0,.45H283v2.09h-.5v1l1.41,3h.72a3.62,3.62,0,0,1,.42-3.37,3.6,3.6,0,0,1,1.32-1.16,3.69,3.69,0,0,1,3.42,0,3.6,3.6,0,0,1,1.32,1.16,3.62,3.62,0,0,1,.42,3.37h11.09a3.68,3.68,0,0,1,1.74-4.53,3.79,3.79,0,0,1,1.71-.42,3.73,3.73,0,0,1,1.71.42,3.69,3.69,0,0,1,1.32,1.16,3.63,3.63,0,0,1,.63,1.63,3.67,3.67,0,0,1-.21,1.74h1.36a3.31,3.31,0,0,0,1.06-1,3.21,3.21,0,0,0,.53-1.33,12.83,12.83,0,0,0-.46-4.27,42.13,42.13,0,0,0-7.14-1.22l-.29.37a24.23,24.23,0,0,0-6-4.41,66.18,66.18,0,0,0-15.15.27l-.27.61c.15.3.3.59.44.89Zm2.59,2.88a33,33,0,0,1,.82-3.57c.82-.09,1.66-.17,2.51-.23l-.68,3.8Zm25.76,1.84.15,1.21s-2.89-.7-3-.77-.21-.71-.21-.71l3.07.27Zm-21.37-.68h1.36a.2.2,0,0,1,.15.06.2.2,0,0,1,.06.14.2.2,0,0,1-.06.15.25.25,0,0,1-.15.06h-1.36a.22.22,0,0,1-.14-.06.2.2,0,0,1-.06-.15.2.2,0,0,1,.06-.14A.18.18,0,0,1,290.57,419.66Zm5.81,0h1.35a.2.2,0,0,1,.15.06.2.2,0,0,1,.06.14.2.2,0,0,1-.06.15.25.25,0,0,1-.15.06h-1.36a.25.25,0,0,1-.14-.06.2.2,0,0,1-.06-.15.21.21,0,0,1,.2-.2Zm-6.86-1.16.43-3.83c1.57-.09,3.19-.11,4.85-.08l-.29,3.91Zm6.44,0-.13-3.89c1,0,1.95.07,2.95.14a19.17,19.17,0,0,1,4.43,3.74Zm-7.91,2.77a3.15,3.15,0,0,1,2,.71,3.09,3.09,0,0,1,1.1,1.82,3.16,3.16,0,1,1-5.34-1.61,3.24,3.24,0,0,1,1-.68A3.11,3.11,0,0,1,288.05,421.27Zm18,0a3.14,3.14,0,1,1-.92,6.15,3.19,3.19,0,0,1-1.71-1.26,3.13,3.13,0,0,1-.52-2.06,3.1,3.1,0,0,1,.91-1.91,3.24,3.24,0,0,1,1-.68A3.11,3.11,0,0,1,306.07,421.27Zm.43,2.62,1-.86.17.2-1,.86A1.06,1.06,0,0,0,306.5,423.89Zm.23.74,1.17.64-.12.22-1.17-.63a.84.84,0,0,0,.12-.23Zm-.65.49-.21,1.29-.25,0,.2-1.29a.67.67,0,0,0,.24,0Zm-.67-.45-1.3.27-.05-.26,1.3-.27v0A.69.69,0,0,0,305.41,424.67Zm.28-.82-.54-1.23.24-.11.54,1.24A.72.72,0,0,0,305.69,423.85Zm1.24.47,1.18-.7a2.35,2.35,0,0,1,.14.79,2.31,2.31,0,0,1,0,.37l-1.29-.46Zm.62,1.69a2.28,2.28,0,0,1-1.1.54v-1.39l1.1.85Zm-1.3-2.37-.37-1.39h.19a2.23,2.23,0,0,1,1.13.31l-.95,1.09Zm-.84.43-1.51.07a2.14,2.14,0,0,1,.63-1.27l.07-.07.81,1.26Zm.07.95-.42,1.31a2,2,0,0,1-.53-.39,2.38,2.38,0,0,1-.34-.43l1.3-.49Zm-17-1.13,1-.87.16.2-1,.87A1.12,1.12,0,0,0,288.49,423.89Zm.22.74,1.18.63-.13.23-1.17-.63a.57.57,0,0,0,.12-.23Zm-.64.49-.21,1.29-.26,0,.21-1.29a.67.67,0,0,0,.24,0Zm-.68-.45-1.29.26-.05-.25,1.3-.27v0A1,1,0,0,0,287.39,424.67Zm.28-.82-.54-1.23.24-.11.55,1.24A.77.77,0,0,0,287.67,423.85Zm1.25.47,1.17-.7a2.29,2.29,0,0,1,.12,1.16l-1.29-.46Zm.61,1.68a2.16,2.16,0,0,1-1.1.54v-1.38Zm-1.29-2.36-.37-1.4h.18a2.27,2.27,0,0,1,1.14.31Zm-.84.43-1.51.07a2.19,2.19,0,0,1,.62-1.27l.07-.07.82,1.26Zm.07.95-.43,1.31a2.21,2.21,0,0,1-.87-.82Z" transform="translate(-282.47 -413.55)"/></svg>