<svg width="16" height="16" viewBox="0 0 16 16" fill="none" xmlns="http://www.w3.org/2000/svg">
<mask id="mask0_936_8802" style="mask-type:alpha" maskUnits="userSpaceOnUse" x="1" y="0" width="15" height="16">
<path d="M9.00037 0C9.55341 0 10.0002 0.44681 10.0002 0.999855V1.94034L10.4689 1.47166C10.7626 1.17795 11.2375 1.17795 11.5281 1.47166C11.8187 1.76537 11.8218 2.2403 11.5281 2.53088L9.9971 4.06191V6.25847L11.9156 5.13988L12.4686 3.07456C12.5749 2.67461 12.9873 2.43715 13.3872 2.54338C13.7872 2.64962 14.0246 3.06206 13.9184 3.462L13.7559 4.06504L14.4933 3.63385C14.9714 3.35576 15.5838 3.51824 15.8619 3.99317C16.14 4.4681 15.9806 5.08364 15.5026 5.36172L14.712 5.82416L15.3901 6.00538C15.79 6.11162 16.0275 6.52406 15.9212 6.924C15.815 7.32394 15.4026 7.56141 15.0026 7.45517L12.8873 6.88963L10.9845 7.99884L12.8873 9.10806L15.0026 8.54251C15.4026 8.43628 15.815 8.67375 15.9212 9.07369C16.0275 9.47363 15.79 9.88607 15.3901 9.9923L14.712 10.1735L15.5026 10.636C15.9806 10.914 16.14 11.5265 15.8619 12.0045C15.5838 12.4826 14.9714 12.6419 14.4933 12.3638L13.7559 11.9326L13.9184 12.5357C14.0246 12.9356 13.7872 13.3481 13.3872 13.4543C12.9873 13.5605 12.5749 13.3231 12.4686 12.9231L11.9156 10.8578L10.0002 9.73922V11.9358L11.5313 13.4668C11.825 13.7605 11.825 14.2354 11.5313 14.526C11.2375 14.8166 10.7626 14.8197 10.472 14.526L10.0033 14.0573V14.9978C10.0033 15.5509 9.55654 15.9977 9.00349 15.9977C8.45045 15.9977 8.00364 15.5509 8.00364 14.9978V14.0573L7.53495 14.526C7.24125 14.8197 6.76632 14.8197 6.47573 14.526C6.18515 14.2323 6.18202 13.7574 6.47573 13.4668L8.00676 11.9358V9.73922L6.08829 10.8578L5.53524 12.9231C5.42901 13.3231 5.01657 13.5605 4.61663 13.4543C4.21668 13.3481 3.97922 12.9356 4.08545 12.5357L4.24793 11.9326L3.50429 12.3607C3.02623 12.6388 2.41382 12.4763 2.13574 12.0014C1.85765 11.5265 2.02013 10.9109 2.49506 10.6328L3.28557 10.1704L2.60754 9.98918C2.2076 9.88295 1.97013 9.4705 2.07637 9.07056C2.1826 8.67062 2.59504 8.43316 2.99499 8.53939L5.1103 9.10493L7.01628 7.99884L5.11343 6.88963L2.99811 7.45517C2.59817 7.56141 2.18573 7.32394 2.07949 6.924C1.97326 6.52406 2.21072 6.11162 2.61067 6.00538L3.28869 5.82416L2.49818 5.36172C2.02013 5.08364 1.86077 4.47123 2.13886 3.9963C2.41694 3.52137 3.02936 3.35889 3.50741 3.63697L4.24481 4.06816L4.08233 3.46512C3.97609 3.06518 4.21356 2.65274 4.6135 2.54651C5.01344 2.44027 5.42588 2.67774 5.53212 3.07768L6.08516 5.14301L8.00051 6.25847V4.05879L6.46948 2.53088C6.17578 2.23718 6.17578 1.76225 6.46948 1.47166C6.76319 1.18108 7.23812 1.17795 7.5287 1.47166L7.99739 1.94034V0.999855C7.99739 0.44681 8.4442 0 8.99724 0H9.00037Z" fill="#24AEF7"/>
</mask>
<g mask="url(#mask0_936_8802)">
<rect x="8.66541" width="7.33227" height="15.9977" fill="#24AEF7"/>
</g>
<mask id="mask1_936_8802" style="mask-type:alpha" maskUnits="userSpaceOnUse" x="0" y="0" width="16" height="16">
<path d="M11.2964 0.0386514C11.4526 0.104267 11.5651 0.244872 11.5964 0.410473L12.2181 3.78186L15.5895 4.40052C15.7551 4.43177 15.8957 4.54425 15.9613 4.70048C16.027 4.8567 16.0082 5.0348 15.9114 5.17541L13.9648 8L15.9114 10.8215C16.0082 10.9621 16.027 11.1402 15.9613 11.2964C15.8957 11.4526 15.7551 11.5651 15.5895 11.5964L12.2181 12.2181L11.5964 15.5895C11.5651 15.7551 11.4526 15.8957 11.2964 15.9613C11.1402 16.027 10.9621 16.0082 10.8215 15.9114L8 13.9648L5.17853 15.9114C5.03793 16.0082 4.85983 16.027 4.7036 15.9613C4.54737 15.8957 4.43489 15.7551 4.40364 15.5895L3.78186 12.2181L0.410473 11.5964C0.244872 11.5651 0.104267 11.4526 0.0386514 11.2964C-0.0269641 11.1402 -0.0082168 10.9621 0.0886442 10.8215L2.03524 8L0.0886442 5.17853C-0.0082168 5.03793 -0.0269641 4.85983 0.0386514 4.7036C0.104267 4.54737 0.244872 4.43489 0.410473 4.40364L3.78186 3.78186L4.40364 0.410473C4.43489 0.244872 4.54737 0.104267 4.7036 0.0386514C4.85983 -0.0269641 5.03793 -0.0082168 5.17853 0.0886442L8 2.03524L10.8215 0.0886442C10.9621 -0.0082168 11.1402 -0.0269641 11.2964 0.0386514ZM5.00043 8C5.00043 7.20447 5.31646 6.44151 5.87899 5.87899C6.44151 5.31646 7.20447 5.00043 8 5.00043C8.79553 5.00043 9.55849 5.31646 10.121 5.87899C10.6835 6.44151 10.9996 7.20447 10.9996 8C10.9996 8.79553 10.6835 9.55849 10.121 10.121C9.55849 10.6835 8.79553 10.9996 8 10.9996C7.20447 10.9996 6.44151 10.6835 5.87899 10.121C5.31646 9.55849 5.00043 8.79553 5.00043 8ZM11.9994 8C11.9994 6.93929 11.5781 5.92202 10.828 5.17198C10.078 4.42194 9.06071 4.00058 8 4.00058C6.93929 4.00058 5.92202 4.42194 5.17198 5.17198C4.42194 5.92202 4.00058 6.93929 4.00058 8C4.00058 9.06071 4.42194 10.078 5.17198 10.828C5.92202 11.5781 6.93929 11.9994 8 11.9994C9.06071 11.9994 10.078 11.5781 10.828 10.828C11.5781 10.078 11.9994 9.06071 11.9994 8Z" fill="#FF9813"/>
</mask>
<g mask="url(#mask1_936_8802)">
<rect width="7.99884" height="15.9977" fill="#FF9813"/>
</g>
</svg>
