<svg width="16" height="16" viewBox="0 0 16 16" fill="none" xmlns="http://www.w3.org/2000/svg">
<g clip-path="url(#clip0_936_8790)">
<path d="M11.2969 0.0376804C11.4532 0.103305 11.5657 0.24393 11.5969 0.409555L12.2188 3.78143L15.5907 4.40018C15.7563 4.43143 15.8969 4.54393 15.9626 4.70018C16.0282 4.85643 16.0094 5.03456 15.9126 5.17518L13.9657 8.00018L15.9126 10.8221C16.0094 10.9627 16.0282 11.1408 15.9626 11.2971C15.8969 11.4533 15.7563 11.5658 15.5907 11.5971L12.2188 12.2189L11.5969 15.5908C11.5657 15.7564 11.4532 15.8971 11.2969 15.9627C11.1407 16.0283 10.9626 16.0096 10.8219 15.9127L8.00006 13.9658L5.17818 15.9127C5.03756 16.0096 4.85943 16.0283 4.70318 15.9627C4.54693 15.8971 4.43443 15.7564 4.40318 15.5908L3.78131 12.2189L0.409433 11.5971C0.243808 11.5658 0.103183 11.4533 0.0375584 11.2971C-0.0280666 11.1408 -0.00931662 10.9627 0.0875584 10.8221L2.03443 8.00018L0.0875584 5.17831C-0.00931662 5.03768 -0.0280666 4.85956 0.0375584 4.70331C0.103183 4.54706 0.243808 4.43456 0.409433 4.40331L3.78131 3.78143L4.40318 0.409555C4.43443 0.24393 4.54693 0.103305 4.70318 0.0376804C4.85943 -0.0279445 5.03756 -0.00919455 5.17818 0.0876804L8.00006 2.03456L10.8219 0.0876804C10.9626 -0.00919455 11.1407 -0.0279445 11.2969 0.0376804ZM5.00006 8.00018C5.00006 7.20453 5.31613 6.44147 5.87874 5.87886C6.44135 5.31625 7.20441 5.00018 8.00006 5.00018C8.79571 5.00018 9.55877 5.31625 10.1214 5.87886C10.684 6.44147 11.0001 7.20453 11.0001 8.00018C11.0001 8.79583 10.684 9.55889 10.1214 10.1215C9.55877 10.6841 8.79571 11.0002 8.00006 11.0002C7.20441 11.0002 6.44135 10.6841 5.87874 10.1215C5.31613 9.55889 5.00006 8.79583 5.00006 8.00018ZM12.0001 8.00018C12.0001 6.93931 11.5786 5.9219 10.8285 5.17175C10.0783 4.42161 9.06092 4.00018 8.00006 4.00018C6.93919 4.00018 5.92178 4.42161 5.17163 5.17175C4.42149 5.9219 4.00006 6.93931 4.00006 8.00018C4.00006 9.06105 4.42149 10.0785 5.17163 10.8286C5.92178 11.5788 6.93919 12.0002 8.00006 12.0002C9.06092 12.0002 10.0783 11.5788 10.8285 10.8286C11.5786 10.0785 12.0001 9.06105 12.0001 8.00018Z" fill="#0A2463"/>
</g>
<defs>
<clipPath id="clip0_936_8790">
<rect width="16" height="16" fill="white"/>
</clipPath>
</defs>
</svg>
