<svg width="30" height="14" viewBox="0 0 30 14" fill="none" xmlns="http://www.w3.org/2000/svg">
<path fill-rule="evenodd" clip-rule="evenodd" d="M1.12493 2.07129C0.761002 3.23158 0.397302 4.39141 0.0338458 5.55076L0.0677024 5.99988H0.499336V8.08853H0V9.11151C0.470189 10.1247 0.940379 11.1369 1.41057 12.1482H2.13207C1.9225 11.5941 1.85124 10.9979 1.9244 10.4105C1.99756 9.82311 2.21295 9.26209 2.55213 8.77551C2.89132 8.28892 3.34418 7.89126 3.87192 7.6166C4.39966 7.34195 4.98655 7.19849 5.58232 7.19849C6.17809 7.19849 6.76498 7.34195 7.29272 7.6166C7.82046 7.89126 8.27332 8.28892 8.6125 8.77551C8.95168 9.26209 9.16708 9.82311 9.24024 10.4105C9.3134 10.9979 9.24214 11.5941 9.03257 12.1482H20.1267C19.9175 11.5943 19.8465 10.9983 19.9199 10.4112C19.9932 9.82409 20.2087 9.26341 20.5479 8.77713C20.887 8.29086 21.3397 7.89346 21.8673 7.619C22.3948 7.34454 22.9814 7.20119 23.5769 7.20119C24.1724 7.20119 24.7591 7.34454 25.2866 7.619C25.8141 7.89346 26.2669 8.29086 26.606 8.77713C26.9452 9.26341 27.1606 9.82409 27.234 10.4112C27.3073 10.9983 27.2364 11.5943 27.0272 12.1482H28.3856C28.8048 11.9031 29.1647 11.5693 29.4395 11.1706C29.7144 10.7718 29.8975 10.3178 29.976 9.84089C30.0648 8.40024 29.9069 6.95505 29.5091 5.56686C27.171 4.95623 24.7837 4.54972 22.3744 4.35194L22.0789 4.71627C20.3286 2.94854 18.3114 1.4628 16.1002 0.312627C11.0586 -0.180514 5.97629 -0.0899824 0.955657 0.582388C0.865381 0.784178 0.774398 0.987362 0.683416 1.18845C0.831526 1.48506 0.979399 1.78052 1.12704 2.07479L1.12493 2.07129ZM3.71614 4.94399C3.92278 3.7412 4.19591 2.55059 4.53427 1.37762C5.35287 1.2842 6.18769 1.20855 7.03873 1.15063L6.36024 4.94399H3.71614ZM29.4696 6.78461L29.6226 7.99745C29.586 8.01777 26.731 7.2968 26.6174 7.22674C26.3452 7.05788 26.4016 6.51626 26.4016 6.51626L29.4696 6.78741V6.78461ZM8.10301 6.10707H9.46561C9.51986 6.10707 9.57188 6.12849 9.61024 6.1666C9.64859 6.2047 9.67015 6.25638 9.67015 6.31027C9.66978 6.36404 9.64811 6.41552 9.60983 6.45355C9.57155 6.49158 9.51974 6.5131 9.46561 6.51346H8.10301C8.04882 6.51328 7.9969 6.49181 7.95858 6.45374C7.92027 6.41568 7.89865 6.3641 7.89847 6.31027C7.89847 6.25638 7.92002 6.2047 7.95838 6.1666C7.99674 6.12849 8.04876 6.10707 8.10301 6.10707ZM13.9075 6.10707H15.2673C15.3215 6.10707 15.3735 6.12849 15.4119 6.1666C15.4503 6.2047 15.4718 6.25638 15.4718 6.31027C15.4716 6.3641 15.45 6.41568 15.4117 6.45374C15.3734 6.49181 15.3215 6.51328 15.2673 6.51346H13.9047C13.8505 6.51328 13.7986 6.49181 13.7602 6.45374C13.7219 6.41568 13.7003 6.3641 13.7001 6.31027C13.7001 6.25638 13.7217 6.2047 13.76 6.1666C13.7984 6.12849 13.8504 6.10707 13.9047 6.10707H13.9075ZM7.05566 4.94399L7.48447 1.12189C9.05373 1.0315 10.6724 1.00489 12.3347 1.03292L12.0413 4.94399H7.05566ZM13.4942 4.94399L13.363 1.05393C14.3335 1.08383 15.3171 1.13053 16.3139 1.19405C17.9738 2.21311 19.4686 3.47628 20.7473 4.94049L13.4942 4.94399ZM5.5802 7.71789C6.31175 7.71758 7.02079 7.9693 7.58646 8.43014C8.15214 8.89098 8.53945 9.53244 8.6824 10.2452C8.82535 10.9579 8.71508 11.6979 8.37039 12.3389C8.02571 12.9799 7.46794 13.4824 6.79213 13.7606C6.11631 14.0389 5.36429 14.0757 4.6642 13.8649C3.96411 13.654 3.35929 13.2085 2.9528 12.6043C2.54631 12 2.36331 11.2745 2.43498 10.5512C2.50666 9.82795 2.82856 9.15174 3.34586 8.63785C3.63893 8.34585 3.98719 8.11427 4.37063 7.95639C4.75407 7.79851 5.16513 7.71746 5.5802 7.71789ZM23.5995 7.71789C24.331 7.71774 25.04 7.96959 25.6055 8.43052C26.1711 8.89146 26.5583 9.53296 26.7011 10.2457C26.8439 10.9584 26.7335 11.6983 26.3888 12.3393C26.044 12.9803 25.4862 13.4826 24.8104 13.7608C24.1346 14.039 23.3826 14.0757 22.6825 13.8648C21.9825 13.6539 21.3777 13.2084 20.9713 12.6041C20.5649 11.9999 20.3819 11.2744 20.4536 10.5511C20.5253 9.8279 20.8472 9.15172 21.3645 8.63785C21.6575 8.34564 22.0059 8.11392 22.3895 7.95603C22.7731 7.79814 23.1843 7.71721 23.5995 7.71789ZM24.0297 10.3412L25.0707 9.47444L25.2393 9.67344L24.199 10.5387C24.1554 10.463 24.098 10.396 24.0297 10.3412ZM24.2596 11.0776L25.434 11.7138L25.3084 11.9408L24.1376 11.3102C24.1926 11.242 24.234 11.164 24.2596 11.0804V11.0776ZM23.6108 11.568L23.407 12.8614L23.1488 12.8208L23.3527 11.5274C23.4298 11.5549 23.5112 11.5687 23.5932 11.568H23.6108ZM22.9394 11.1182L21.6445 11.3844L21.5916 11.1301L22.897 10.8604V10.8786C22.897 10.9603 22.9113 11.0414 22.9394 11.1182ZM23.2215 10.2949L22.6791 9.06665L22.9182 8.96226L23.4641 10.1989C23.3778 10.2153 23.2955 10.2479 23.2215 10.2949ZM24.4656 10.7714L25.6392 10.0707C25.737 10.3209 25.787 10.587 25.7866 10.8554C25.7864 10.9794 25.7758 11.1032 25.7549 11.2254L24.4656 10.7693V10.7714ZM25.0813 12.4529C24.7732 12.7341 24.3904 12.9216 23.9782 12.9931V11.6059L25.0841 12.4529H25.0813ZM23.7836 10.0889L23.4168 8.69462C23.4782 8.68971 23.5396 8.68761 23.603 8.68761C24.001 8.68735 24.3913 8.79569 24.7315 9.00079L23.7801 10.0889H23.7836ZM22.945 10.5184L21.4364 10.5885C21.4951 10.1087 21.7141 9.66241 22.0585 9.321L22.129 9.25093L22.9457 10.5121L22.945 10.5184ZM23.0155 11.4706L22.5924 12.7774C22.3974 12.6751 22.2189 12.5445 22.0627 12.3899C21.9331 12.2601 21.8199 12.1152 21.7256 11.9583L23.0177 11.4678L23.0155 11.4706ZM6.01818 10.3391L7.05848 9.47234L7.22633 9.67132L6.18745 10.5366C6.14368 10.4611 6.0863 10.3941 6.01818 10.3391ZM6.2467 11.0754L7.4217 11.7117L7.29616 11.9387L6.12609 11.3081C6.18089 11.2399 6.22186 11.1619 6.2467 11.0782V11.0754ZM5.59925 11.5659L5.39542 12.8593L5.13729 12.8187L5.34111 11.5253C5.41777 11.5527 5.49871 11.5665 5.5802 11.5659H5.59925ZM4.92711 11.1161L3.63221 11.3823L3.57931 11.128L4.88479 10.8582V10.8765C4.88473 10.9582 4.89905 11.0393 4.92711 11.1161ZM5.2057 10.2928L4.66334 9.06456L4.90242 8.96017L5.44902 10.1968C5.36255 10.2133 5.28 10.2459 5.2057 10.2928ZM6.45053 10.7693L7.62341 10.0686C7.76736 10.4358 7.80736 10.8351 7.73908 11.2233L6.45053 10.7672V10.7693ZM7.06553 12.4508C6.7576 12.7323 6.3747 12.9198 5.96247 12.9911L5.95894 11.6037L7.06553 12.4508ZM5.76852 10.0868L5.40106 8.6925C5.46242 8.6876 5.52449 8.68551 5.58726 8.68551C5.98661 8.6846 6.3785 8.79295 6.71995 8.9987L5.76852 10.0868ZM4.92923 10.5163L3.42062 10.5864C3.47956 10.1066 3.69884 9.66024 4.04338 9.3189C4.06595 9.29648 4.08923 9.27405 4.11392 9.24883L4.92993 10.51L4.92923 10.5163ZM4.99975 11.4685L4.57659 12.7752C4.21366 12.589 3.91027 12.3058 3.70062 11.9576L4.99975 11.4685Z" fill="#0A2463"/>
</svg>
