<svg width="29" height="14" viewBox="0 0 29 14" fill="none" xmlns="http://www.w3.org/2000/svg">
<path d="M0 9.29977V11.3172C0 11.6557 0.0829245 11.8974 0.443932 11.8974H3.34772C3.54915 12.4671 3.92103 12.9691 4.41814 13.3424C4.91525 13.7157 5.51618 13.9442 6.14785 14.0001C6.77949 13.944 7.38032 13.7154 7.8773 13.3419C8.37428 12.9685 8.74601 12.4664 8.94727 11.8967H20.8498C21.0511 12.4661 21.4227 12.968 21.9193 13.3414C22.416 13.7148 23.0165 13.9436 23.6478 14.0001C24.2794 13.9438 24.8803 13.7151 25.3773 13.3417C25.8744 12.9683 26.2463 12.4663 26.4479 11.8967H28.2908C28.4417 11.9012 28.5893 11.8547 28.7072 11.7655C28.8251 11.6763 28.9056 11.5502 28.9342 11.4099L28.9886 9.40267C29.0243 9.22259 28.9886 7.26137 28.9886 7.26137C28.9886 6.41379 28.3366 5.97511 27.4287 5.62646C27.4287 5.62646 23.6063 3.9252 23.5606 3.89948L22.2803 1.76563L21.3745 0.177428C21.2859 0.0223994 21.1307 0.0420319 20.9456 0.000735981C20.8898 -0.0107727 20.8334 0.1165 20.7769 0.1165H2.46343C1.42258 0.1165 0.957206 0.654024 0.957206 1.63971V8.27143H0.443932C0.0864989 8.27143 0 8.95857 0 9.29977ZM22.0765 11.3158C22.0757 11.0209 22.1673 10.7324 22.3398 10.4869C22.5123 10.2413 22.7578 10.0498 23.0454 9.93655C23.3329 9.82332 23.6495 9.79349 23.955 9.85083C24.2605 9.90816 24.5411 10.0501 24.7613 10.2586C24.9815 10.4672 25.1314 10.7329 25.1919 11.0222C25.2525 11.3115 25.2209 11.6113 25.1014 11.8836C24.9818 12.1559 24.7796 12.3885 24.5203 12.5518C24.261 12.7152 23.9563 12.8019 23.6449 12.8011C23.2293 12.8 22.831 12.6432 22.5371 12.3649C22.2433 12.0866 22.0776 11.7094 22.0765 11.3158ZM17.2283 1.02163H20.3737L22.3482 4.64687H17.422C17.1396 4.64687 17.2247 4.07346 17.2247 3.80606L17.2283 1.02163ZM4.57515 11.3158C4.57501 11.022 4.66682 10.7348 4.839 10.4904C5.01117 10.246 5.25598 10.0555 5.54248 9.9428C5.82898 9.83013 6.14432 9.80041 6.44865 9.8574C6.75298 9.91438 7.03265 10.0555 7.25231 10.263C7.47197 10.4704 7.62176 10.7349 7.68277 11.0229C7.74378 11.311 7.71325 11.6097 7.59506 11.8813C7.47686 12.1529 7.2763 12.3853 7.01872 12.549C6.76113 12.7127 6.45808 12.8005 6.14785 12.8011C5.73149 12.8011 5.33211 12.6448 5.0373 12.3663C4.74248 12.0879 4.57628 11.7101 4.57515 11.3158Z" fill="#0A2463"/>
</svg>
