<svg width="32" height="13" viewBox="0 0 32 13" fill="none" xmlns="http://www.w3.org/2000/svg">
<path fill-rule="evenodd" clip-rule="evenodd" d="M0.334892 7.14564L0.469693 5.29973L3.67891 1.63772L3.22045 1.03496C3.37304 0.818181 3.52586 0.602119 3.67891 0.386763C8.38811 -0.0339797 13.1211 -0.111563 17.8413 0.154608C19.8917 1.22238 21.7578 2.61845 23.3674 4.28873C25.8299 4.44159 28.2677 4.87384 30.6347 5.57732C31.2441 6.23933 31.6984 7.03161 31.9637 7.89536C32.0872 8.82845 31.8934 9.77626 31.414 10.5833L29.5008 10.8595C29.6454 10.3182 29.6619 9.75012 29.549 9.20122C29.4361 8.65232 29.1969 8.13803 28.8509 7.69998C28.5048 7.26193 28.0616 6.91244 27.5572 6.67981C27.0527 6.44719 26.5012 6.33797 25.9472 6.36099C25.3933 6.38402 24.8524 6.53865 24.3686 6.81235C23.8847 7.08605 23.4713 7.47114 23.162 7.93642C22.8527 8.40171 22.6561 8.93411 22.5881 9.49053C22.5201 10.047 22.5826 10.6118 22.7707 11.1392H8.94805C9.13278 10.6207 9.19629 10.0659 9.1336 9.51837C9.07091 8.97087 8.88371 8.44549 8.58669 7.98335C8.28966 7.52122 7.89087 7.13489 7.42154 6.85464C6.95221 6.57439 6.42509 6.40783 5.88147 6.36799C5.33785 6.32815 4.79248 6.41611 4.2881 6.625C3.78371 6.83389 3.334 7.15804 2.97418 7.57204C2.61437 7.98603 2.35422 8.47865 2.21412 9.01129C2.07401 9.54394 2.05776 10.1022 2.16663 10.6422L0.332787 10.168C0.220921 9.26109 0.109993 8.35353 0 7.44524L0.334892 7.14493V7.14564ZM26.0922 6.85739C25.3895 6.85725 24.7085 7.10351 24.1652 7.55421C23.6219 8.0049 23.25 8.63213 23.1128 9.32905C22.9756 10.026 23.0817 10.7495 23.4128 11.3762C23.744 12.0029 24.2799 12.4941 24.929 12.7661C25.5782 13.0381 26.3006 13.074 26.9731 12.8678C27.6455 12.6616 28.2265 12.2259 28.6169 11.6351C29.0073 11.0443 29.183 10.3349 29.1142 9.62768C29.0453 8.92051 28.7361 8.25937 28.2392 7.75692C27.9575 7.4714 27.6229 7.24495 27.2544 7.09059C26.886 6.93622 26.491 6.85697 26.0922 6.85739ZM5.62649 6.85739C4.92379 6.85725 4.24278 7.10351 3.6995 7.55421C3.15622 8.0049 2.7843 8.63213 2.6471 9.32905C2.50991 10.026 2.61594 10.7495 2.94711 11.3762C3.27829 12.0029 3.81413 12.4941 4.46332 12.7661C5.1125 13.0381 5.83487 13.074 6.50733 12.8678C7.17979 12.6616 7.76073 12.2259 8.15115 11.6351C8.54158 11.0443 8.71733 10.3349 8.64846 9.62768C8.57959 8.92051 8.27036 8.25937 7.77346 7.75692C7.49178 7.47143 7.15712 7.245 6.78869 7.09063C6.42025 6.93627 6.0253 6.85701 5.62649 6.85739ZM5.90311 10.0231L7.17388 9.73913C7.16249 9.56933 7.11584 9.40387 7.03698 9.25352L5.77954 9.71643L5.87012 8.36748C5.7062 8.33012 5.53634 8.32819 5.37164 8.3618L5.45308 9.71073L4.20688 9.23223C4.12417 9.37988 4.07277 9.54332 4.05593 9.71216L5.36812 10.0288L4.57197 11.1221C4.69264 11.2394 4.83609 11.3301 4.99321 11.3884L5.63281 10.2177L6.41142 11.3011C6.56037 11.223 6.69164 11.1144 6.79687 10.9823L5.90031 10.0224L5.90311 10.0231ZM6.85444 8.68484C6.57015 8.3974 6.1961 8.21852 5.79602 8.1787C5.39593 8.13887 4.99457 8.24055 4.66032 8.46643C4.32607 8.6923 4.07961 9.0284 3.96293 9.41743C3.84625 9.80646 3.86658 10.2244 4.02045 10.5999C4.17432 10.9755 4.4522 11.2855 4.80676 11.4771C5.16132 11.6687 5.57062 11.7301 5.9649 11.6508C6.35919 11.5714 6.71408 11.3563 6.96909 11.042C7.22411 10.7278 7.36348 10.3338 7.36345 9.92728C7.36389 9.69647 7.31914 9.46783 7.23178 9.25459C7.14442 9.04134 7.01617 8.84772 6.85444 8.68484ZM26.3527 10.0231L27.6235 9.73913C27.6116 9.5695 27.5653 9.40417 27.4873 9.25352L26.2291 9.71643L26.3204 8.36748C26.1563 8.33002 25.9861 8.32809 25.8212 8.3618L25.9027 9.71073L24.6558 9.23223C24.5735 9.37996 24.5225 9.54341 24.5062 9.71216L25.817 10.0288L25.0222 11.1221C25.1426 11.2398 25.2862 11.3305 25.4435 11.3884L26.0831 10.2177L26.8617 11.3011C27.0106 11.223 27.1419 11.1144 27.2471 10.9823L26.3506 10.0224L26.3527 10.0231ZM27.3202 8.68484C27.0359 8.3974 26.6618 8.21852 26.2617 8.1787C25.8617 8.13887 25.4603 8.24055 25.126 8.46643C24.7918 8.6923 24.5453 9.0284 24.4286 9.41743C24.312 9.80646 24.3323 10.2244 24.4862 10.5999C24.64 10.9755 24.9179 11.2855 25.2725 11.4771C25.627 11.6687 26.0363 11.7301 26.4306 11.6508C26.8249 11.5714 27.1798 11.3563 27.4348 11.042C27.6898 10.7278 27.8292 10.3338 27.8292 9.92728C27.8295 9.69648 27.7847 9.46788 27.6974 9.25465C27.61 9.04142 27.4818 8.84777 27.3202 8.68484ZM5.43552 4.17585L7.12053 4.18651L7.3817 1.0222C7.03066 1.03923 6.67962 1.05414 6.31805 1.07118C5.8076 1.80075 5.39449 2.59516 5.0894 3.43393L5.43412 4.17585H5.43552ZM0.768782 6.51164C2.00866 6.41792 2.1245 5.85066 2.44676 4.73673L1.652 4.52373L0.851625 5.43462L0.768782 6.51021V6.51164ZM8.21086 0.985969L8.40323 4.19502L13.9132 4.23123L13.593 0.894385C11.7824 0.858887 10.0665 0.912136 8.21086 0.989523V0.985969ZM14.4124 0.91499L15.2064 4.24258L19.1907 4.26886L19.4933 3.12156C19.9184 3.36275 20.3112 3.65788 20.6623 3.99979L20.7578 3.82654C19.7678 2.74202 18.6166 1.8203 17.3457 1.0946C16.3143 1.00444 15.3461 0.947649 14.4124 0.91499ZM15.6249 5.56668C15.6249 6.32208 17.0908 6.32208 17.0908 5.56668H15.6249ZM8.77182 5.56668C8.77182 6.32208 10.2385 6.32208 10.2385 5.56668H8.77182ZM30.6066 6.01041C30.0204 6.65364 30.5596 7.69799 31.6036 7.71432C31.3641 7.0959 31.0279 6.52037 30.608 6.00969L30.6066 6.01041Z" fill="#0A2463"/>
</svg>
