<svg width="42" height="15" viewBox="0 0 42 15" fill="none" xmlns="http://www.w3.org/2000/svg">
<path d="M8.48694 4.57983C8.48694 4.57983 11.609 4.17655 13.5726 6.52445C15.8664 9.2693 14.7691 11.7094 14.7691 11.7094H20.054C21.7765 11.6273 23.4237 10.9789 24.7399 9.86472C26.5659 8.31733 28.5359 6.9485 30.6231 5.777C31.8382 5.13424 33.1898 4.79225 34.5644 4.77971C36.4337 4.67977 37.2065 5.32797 37.2065 5.32797V3.63321L23.2465 3.18418L23.1472 4.33068L17.1149 4.48058C17.0267 4.09409 16.795 3.75552 16.4667 3.53327C15.8917 3.16049 15.1974 3.018 14.5221 3.1342C12.9695 3.16165 8.48694 4.57983 8.48694 4.57983Z" fill="#0A2463"/>
<path d="M1.60799 8.42003C2.66516 7.45689 3.87909 6.68139 5.1974 6.12701C5.74567 5.95951 10.5316 3.53419 13.4728 7.87175C13.9028 8.48945 14.2039 9.18749 14.358 9.92417C14.5122 10.6608 14.5163 11.4211 14.3701 12.1594H19.4059C19.4059 12.1594 22.9706 12.6576 27.8811 8.91831C29.402 7.76055 32.1687 5.6808 34.9607 6.02707C36.6132 6.23329 39.9999 7.17007 39.9465 10.0156C39.8965 12.6577 38.1517 13.0567 38.1517 13.0567H37.6401C37.906 12.4548 38.0173 11.796 37.964 11.1401C37.9107 10.4842 37.6944 9.85206 37.3348 9.30097C36.9752 8.74989 36.4836 8.29736 35.9048 7.98443C35.3259 7.6715 34.6781 7.50808 34.02 7.50905C33.362 7.51001 32.7146 7.67531 32.1367 7.98993C31.5587 8.30455 31.0685 8.75853 30.7105 9.31066C30.3525 9.86279 30.1381 10.4956 30.0867 11.1516C30.0353 11.8076 30.1486 12.4661 30.4162 13.0673L13.4939 13.0926C13.7671 12.4903 13.8848 11.8291 13.8362 11.1695C13.7875 10.5099 13.5741 9.87308 13.2154 9.3174C12.8568 8.76172 12.3644 8.30495 11.7834 7.98898C11.2023 7.67302 10.5513 7.50797 9.88992 7.50894C9.22855 7.50991 8.578 7.67687 7.99791 7.99454C7.41782 8.31222 6.92675 8.77042 6.56972 9.32716C6.21269 9.88389 6.00113 10.5213 5.95442 11.181C5.90771 11.8408 6.02735 12.5017 6.30238 13.1032H4.49923C4.49923 13.1032 0.161663 13.4515 0.111693 10.9094C0.0933939 9.91069 1.11462 8.88455 1.60799 8.42003Z" fill="#0A2463"/>
<path d="M34.0147 8.12109C34.6949 8.12123 35.3598 8.32306 35.9253 8.70106C36.4908 9.07905 36.9315 9.61623 37.1918 10.2447C37.452 10.8732 37.5201 11.5647 37.3874 12.2318C37.2546 12.8989 36.927 13.5117 36.4461 13.9927C35.9651 14.4737 35.3523 14.8012 34.6852 14.934C34.018 15.0667 33.3265 14.9987 32.6981 14.7384C32.0696 14.4782 31.5324 14.0374 31.1544 13.4719C30.7764 12.9064 30.5746 12.2415 30.5745 11.5613C30.5743 11.1095 30.6631 10.6621 30.836 10.2446C31.0088 9.82712 31.2622 9.4478 31.5817 9.12831C31.9012 8.80882 32.2805 8.55542 32.6979 8.38259C33.1154 8.20977 33.5628 8.12091 34.0147 8.12109ZM34.0147 14.5025C34.5966 14.5025 35.1654 14.33 35.6492 14.0067C36.133 13.6834 36.5101 13.2239 36.7327 12.6863C36.9554 12.1487 37.0136 11.5571 36.9 10.9864C36.7864 10.4157 36.5062 9.89151 36.0947 9.4801C35.6832 9.0687 35.1589 8.78857 34.5882 8.67513C34.0175 8.5617 33.4259 8.62006 32.8884 8.84284C32.3508 9.06561 31.8914 9.44279 31.5682 9.92668C31.245 10.4106 31.0726 10.9794 31.0728 11.5613C31.0727 11.9477 31.1487 12.3303 31.2965 12.6872C31.4443 13.0442 31.661 13.3686 31.9342 13.6418C32.2074 13.915 32.5318 14.1317 32.8887 14.2795C33.2457 14.4273 33.6283 14.5026 34.0147 14.5025Z" fill="#0A2463"/>
<path d="M34.0636 9.7666C34.4234 9.76674 34.7751 9.87355 35.0742 10.0736C35.3732 10.2735 35.6063 10.5577 35.7439 10.8902C35.8815 11.2226 35.9174 11.5884 35.8472 11.9413C35.7769 12.2942 35.6036 12.6183 35.3491 12.8726C35.0946 13.127 34.7704 13.3002 34.4175 13.3704C34.0647 13.4405 33.6989 13.4044 33.3665 13.2667C33.0341 13.129 32.75 12.8958 32.5501 12.5966C32.3502 12.2975 32.2435 11.9457 32.2435 11.5859C32.2435 11.347 32.2906 11.1103 32.3821 10.8895C32.4736 10.6688 32.6076 10.4682 32.7767 10.2992C32.9457 10.1303 33.1463 9.99627 33.3671 9.90488C33.5879 9.81349 33.8246 9.76651 34.0636 9.7666ZM34.1135 12.0849C34.2171 12.0849 34.3183 12.0542 34.4045 11.9967C34.4906 11.9392 34.5577 11.8574 34.5973 11.7617C34.637 11.666 34.6473 11.5607 34.6271 11.4591C34.6069 11.3576 34.557 11.2643 34.4838 11.191C34.4106 11.1178 34.3173 11.0679 34.2157 11.0477C34.1141 11.0275 34.0088 11.0379 33.9132 11.0775C33.8175 11.1172 33.7357 11.1843 33.6782 11.2704C33.6206 11.3565 33.5899 11.4577 33.5899 11.5613C33.5899 11.6301 33.6035 11.6982 33.6298 11.7617C33.6561 11.8252 33.6947 11.8829 33.7433 11.9316C33.7919 11.9802 33.8496 12.0188 33.9132 12.0451C33.9767 12.0714 34.0448 12.0849 34.1135 12.0849Z" fill="#0A2463"/>
<path d="M9.88441 8.12109C10.5647 8.12068 11.2299 8.32203 11.7958 8.69968C12.3617 9.07733 12.8029 9.61433 13.0635 10.2427C13.3242 10.8711 13.3927 11.5627 13.2602 12.2301C13.1278 12.8974 12.8005 13.5104 12.3196 13.9917C11.8387 14.473 11.226 14.8008 10.5587 14.9338C9.89154 15.0667 9.19988 14.9989 8.57126 14.7387C7.94264 14.4785 7.40529 14.0378 7.02717 13.4722C6.64906 12.9066 6.44716 12.2416 6.44702 11.5613C6.44683 10.6493 6.80884 9.77463 7.45343 9.12951C8.09803 8.48439 8.97244 8.12165 9.88441 8.12109ZM9.88441 14.5025C10.4663 14.5027 11.0352 14.3302 11.5191 14.007C12.003 13.6838 12.3802 13.2243 12.603 12.6868C12.8257 12.1492 12.884 11.5576 12.7705 10.9868C12.657 10.4161 12.3768 9.89184 11.9654 9.48036C11.5539 9.06888 11.0296 8.78867 10.4589 8.67517C9.88814 8.56168 9.29656 8.62002 8.75897 8.84277C8.22138 9.06552 7.76192 9.44269 7.43871 9.9266C7.1155 10.4105 6.94307 10.9794 6.94321 11.5613C6.94302 11.9476 7.01897 12.3302 7.1667 12.6872C7.31444 13.0441 7.53106 13.3685 7.80421 13.6417C8.07735 13.9149 8.40166 14.1316 8.75859 14.2794C9.11552 14.4273 9.49808 14.5026 9.88441 14.5025Z" fill="#0A2463"/>
<path d="M9.9343 9.7666C10.2941 9.76674 10.6458 9.87355 10.9449 10.0736C11.244 10.2735 11.4771 10.5577 11.6147 10.8902C11.7522 11.2226 11.7882 11.5884 11.7179 11.9413C11.6476 12.2942 11.4743 12.6183 11.2198 12.8726C10.9654 13.127 10.6412 13.3002 10.2883 13.3704C9.93538 13.4405 9.5696 13.4044 9.2372 13.2667C8.9048 13.129 8.6207 12.8958 8.42082 12.5966C8.22094 12.2975 8.11426 11.9457 8.11426 11.5859C8.11426 11.347 8.16134 11.1103 8.25282 10.8895C8.34429 10.6688 8.47836 10.4682 8.64738 10.2992C8.8164 10.1303 9.01704 9.99627 9.23786 9.90488C9.45867 9.81349 9.69533 9.76651 9.9343 9.7666ZM9.98427 12.0849C10.0879 12.0851 10.1892 12.0545 10.2754 11.997C10.3616 11.9396 10.4288 11.8578 10.4685 11.7622C10.5083 11.6665 10.5188 11.5612 10.4986 11.4596C10.4785 11.358 10.4287 11.2646 10.3555 11.1913C10.2823 11.118 10.189 11.0681 10.0874 11.0478C9.9858 11.0275 9.88048 11.0378 9.78475 11.0775C9.68903 11.1171 9.60721 11.1842 9.54964 11.2703C9.49207 11.3564 9.46135 11.4577 9.46135 11.5613C9.46153 11.7 9.51666 11.833 9.61467 11.9311C9.71268 12.0293 9.84558 12.0846 9.98427 12.0849Z" fill="#0A2463"/>
<path d="M38.1252 10.5617C38.1252 10.6832 38.1735 10.7998 38.2594 10.8857C38.3454 10.9716 38.4619 11.0199 38.5834 11.0199H40.6118C40.7332 11.0197 40.8495 10.9713 40.9353 10.8854C41.0211 10.7995 41.0693 10.6831 41.0693 10.5617C41.0694 10.5016 41.0576 10.442 41.0346 10.3864C41.0117 10.3308 40.978 10.2803 40.9355 10.2378C40.893 10.1952 40.8426 10.1614 40.787 10.1384C40.7315 10.1154 40.6719 10.1035 40.6118 10.1035H38.5834C38.5232 10.1034 38.4636 10.1152 38.408 10.1382C38.3523 10.1612 38.3018 10.1949 38.2592 10.2375C38.2167 10.2801 38.1829 10.3306 38.1599 10.3862C38.1369 10.4419 38.1252 10.5015 38.1252 10.5617Z" fill="#0A2463"/>
<path d="M23.6778 4.57932C23.6948 4.60708 23.7172 4.63119 23.7436 4.65028C23.77 4.66938 23.7999 4.68308 23.8316 4.6906C23.8634 4.69812 23.8962 4.69931 23.9284 4.6941C23.9606 4.68889 23.9914 4.67739 24.0191 4.66025C24.0718 4.6211 24.1068 4.56272 24.1165 4.49785C24.1263 4.43298 24.11 4.36687 24.0712 4.31397L21.4277 0.397995C21.3931 0.342077 21.3377 0.302145 21.2738 0.286973C21.2098 0.271801 21.1424 0.282635 21.0864 0.317064C21.0339 0.356328 20.999 0.414689 20.9892 0.479506C20.9795 0.544323 20.9957 0.610354 21.0343 0.663319L23.6778 4.57932Z" fill="#0A2463"/>
<path d="M38.8211 4.08691V6.35036C38.5209 6.35036 38.233 6.23112 38.0208 6.01888C37.8086 5.80664 37.6893 5.51879 37.6893 5.21864C37.6893 4.91849 37.8086 4.63063 38.0208 4.41839C38.233 4.20615 38.5209 4.08691 38.8211 4.08691Z" fill="#0A2463"/>
</svg>
