<svg width="70" height="45" viewBox="0 0 70 45" fill="none" xmlns="http://www.w3.org/2000/svg">
<g id="cartes-bancaires-cb-2014 1" clip-path="url(#clip0_3974_45366)">
<g id="Group">
<path id="Vector" d="M0.00305176 5C0.00305176 2.23858 2.24163 0 5.00305 0H64.997C67.7584 0 69.997 2.23858 69.997 5V40C69.997 42.7614 67.7584 45 64.997 45H5.00305C2.24163 45 0.00305176 42.7614 0.00305176 40V5Z" fill="#29ABE2"/>
<path id="Vector_2" d="M0.00305176 5C0.00305176 2.23858 2.24163 0 5.00305 0H64.997C67.7584 0 69.997 2.23858 69.997 5V40C69.997 42.7614 67.7584 45 64.997 45H5.00305C2.24163 45 0.00305176 42.7614 0.00305176 40V5Z" fill="url(#paint0_radial_3974_45366)"/>
<path id="Vector_3" d="M0 5C0 2.23858 2.23858 0 5 0H65C67.7614 0 70 2.23858 70 5V40C70 42.7614 67.7614 45 65 45H5C2.23858 45 0 42.7614 0 40V5Z" fill="url(#paint1_radial_3974_45366)"/>
<path id="Vector_4" d="M37.5441 9.01154H55.1708C56.804 9.01154 58.3704 9.65638 59.5253 10.8042C60.6801 11.952 61.3289 13.5088 61.3289 15.1321C61.3289 16.7554 60.6801 18.3122 59.5253 19.46C58.3704 20.6079 56.804 21.2527 55.1708 21.2527H37.5441V9.01154ZM37.5441 22.6404H55.1708C56.804 22.6404 58.3704 23.2852 59.5253 24.4331C60.6801 25.5809 61.3289 27.1377 61.3289 28.761C61.3289 30.3843 60.6801 31.9411 59.5253 33.0889C58.3704 34.2367 56.804 34.8816 55.1708 34.8816H37.5441V22.6404ZM22.1861 22.6404V21.2527H36.3723C36.0139 17.8033 34.3483 14.6186 31.7136 12.3452C29.079 10.0718 25.6727 8.8799 22.1861 9.01154C18.5809 8.86368 15.0636 10.142 12.4046 12.5664C9.74569 14.9908 8.16185 18.3638 8 21.9466C8.16185 25.5293 9.74569 28.9023 12.4046 31.3267C15.0636 33.7512 18.5809 35.0294 22.1861 34.8816C25.6727 35.0132 29.079 33.8213 31.7136 31.5479C34.3483 29.2745 36.0139 26.0898 36.3723 22.6404H22.1861Z" fill="white"/>
</g>
</g>
<defs>
<radialGradient id="paint0_radial_3974_45366" cx="0" cy="0" r="1" gradientUnits="userSpaceOnUse" gradientTransform="translate(3.89013 43.7952) scale(70.9459 62.495)">
<stop offset="0.09" stop-color="#009245"/>
<stop offset="0.23" stop-color="#049552" stop-opacity="0.89"/>
<stop offset="0.52" stop-color="#0D9E74" stop-opacity="0.59"/>
<stop offset="0.91" stop-color="#1BACAB" stop-opacity="0.12"/>
<stop offset="1" stop-color="#1FB0B8" stop-opacity="0"/>
</radialGradient>
<radialGradient id="paint1_radial_3974_45366" cx="0" cy="0" r="1" gradientUnits="userSpaceOnUse" gradientTransform="translate(15.5761 47.6514) scale(91.0238 85.2919)">
<stop offset="0.15" stop-color="#1FB0B8" stop-opacity="0"/>
<stop offset="0.35" stop-color="#1C7491" stop-opacity="0.4"/>
<stop offset="0.56" stop-color="#1A4471" stop-opacity="0.73"/>
<stop offset="0.74" stop-color="#18265E" stop-opacity="0.93"/>
<stop offset="0.87" stop-color="#181B57"/>
</radialGradient>
<clipPath id="clip0_3974_45366">
<rect width="70" height="45" fill="white"/>
</clipPath>
</defs>
</svg>
