<svg width="30" height="30" viewBox="0 0 30 30" fill="none" xmlns="http://www.w3.org/2000/svg">
<g id="offert">
<path id="Path 3305" d="M25.6991 15.168V28.335H4.63306V15.168" stroke="#727690" stroke-width="3" stroke-linecap="round" stroke-linejoin="round"/>
<path id="Path 3306" d="M2 8.58398H28.333V15.167H2V8.58398Z" stroke="#727690" stroke-width="3" stroke-linecap="round" stroke-linejoin="round"/>
<path id="Path 3307" d="M15.167 28.334V8.58398" stroke="#727690" stroke-width="3" stroke-linecap="round" stroke-linejoin="round"/>
<path id="Path 3308" d="M15.167 8.5835H9.24195C8.80488 8.59112 8.37067 8.51161 7.96465 8.34962C7.55863 8.18763 7.18894 7.94639 6.87716 7.63999C6.56537 7.33359 6.31773 6.96817 6.14868 6.56503C5.97964 6.1619 5.89258 5.72914 5.89258 5.292C5.89258 4.85486 5.97964 4.4221 6.14868 4.01897C6.31773 3.61583 6.56537 3.25041 6.87716 2.94401C7.18894 2.63761 7.55863 2.39637 7.96465 2.23438C8.37067 2.07239 8.80488 1.99288 9.24195 2.0005C13.85 2.0005 15.167 8.5835 15.167 8.5835Z" stroke="#A1A4B3" stroke-width="3" stroke-linecap="round" stroke-linejoin="round"/>
<path id="Path 3309" d="M15.167 8.5835H21.092C21.5291 8.59112 21.9633 8.51161 22.3693 8.34962C22.7753 8.18763 23.145 7.94639 23.4568 7.63999C23.7686 7.33359 24.0162 6.96817 24.1853 6.56503C24.3543 6.1619 24.4414 5.72914 24.4414 5.292C24.4414 4.85486 24.3543 4.4221 24.1853 4.01897C24.0162 3.61583 23.7686 3.25041 23.4568 2.94401C23.145 2.63761 22.7753 2.39637 22.3693 2.23438C21.9633 2.07239 21.5291 1.99288 21.092 2.0005C16.484 2.0005 15.167 8.5835 15.167 8.5835Z" stroke="#A1A4B3" stroke-width="3" stroke-linecap="round" stroke-linejoin="round"/>
</g>
</svg>
