<svg width="75" height="38" viewBox="0 0 75 38" fill="none" xmlns="http://www.w3.org/2000/svg">
<g id="Layer_1" clip-path="url(#clip0_3974_45318)">
<path id="Vector" d="M75 6.4355C74.8986 11.008 75.1015 15.6032 74.6732 20.1416C74.1435 25.7422 71.2021 30.1727 66.745 33.507C64.7052 35.0292 62.5188 36.3584 60.3607 37.7159C59.9888 37.9488 59.3013 38.0965 58.9801 37.909C54.9906 35.5461 50.9448 33.2343 48.0541 29.4457C45.1353 25.6286 43.6477 21.3004 43.7322 16.4496C43.7547 15.2113 43.7322 13.9673 43.7322 12.7291C43.7322 10.6785 43.7491 8.62234 43.7209 6.57182C43.7153 5.89589 43.9351 5.58916 44.6394 5.4926C49.5868 4.78826 54.0778 2.79454 58.3885 0.346411C59.1943 -0.113679 59.769 -0.125039 60.5804 0.346411C64.7559 2.76614 69.1342 4.6917 73.9351 5.47556C74.5098 5.57212 75.0113 5.64596 74.9944 6.4355H75Z" fill="#164FDA"/>
<path id="Vector_2" d="M51.6548 0.193359C50.0376 0.857933 48.3922 1.43731 46.7017 1.8974C45.2817 2.28364 43.8336 2.59605 42.3516 2.80621C41.5064 2.9255 41.2415 3.2947 41.2528 4.10128C41.2697 5.64059 41.2697 7.17991 41.2697 8.71354H0V4.80562C0 2.2666 2.05109 0.193359 4.57551 0.193359H51.6548Z" fill="#21409A"/>
<path id="Vector_3" d="M50.9899 36.0976C49.3219 34.7684 47.778 33.2802 46.4369 31.5251C43.163 27.2423 41.3881 22.4255 41.2584 17.0635H0V33.1837C0 35.7283 2.05109 37.7959 4.57551 37.7959H52.7648C52.9057 37.7959 53.0409 37.7618 53.1536 37.6994C52.4155 37.1881 51.6886 36.6542 50.9842 36.0919L50.9899 36.0976ZM13.3772 31.5535C13.3772 32.8372 12.3403 33.8823 11.0669 33.8823H6.55898C5.2855 33.8823 4.24868 32.8372 4.24868 31.5535V29.0542C4.24868 27.7705 5.2855 26.7254 6.55898 26.7254H11.0669C12.3403 26.7254 13.3772 27.7705 13.3772 29.0542V31.5535ZM29.6619 27.8614H18.5049C18.0372 27.8614 17.6597 27.4808 17.6597 27.0094C17.6597 26.5379 18.0372 26.1573 18.5049 26.1573H29.6619C30.1296 26.1573 30.5071 26.5379 30.5071 27.0094C30.5071 27.4808 30.1296 27.8614 29.6619 27.8614ZM38.565 24.4533H18.5049C18.0372 24.4533 17.6597 24.0727 17.6597 23.6013C17.6597 23.1298 18.0372 22.7493 18.5049 22.7493H38.565C39.0327 22.7493 39.4102 23.1298 39.4102 23.6013C39.4102 24.0727 39.0327 24.4533 38.565 24.4533Z" fill="#21409A"/>
<path id="Vector_4" d="M67.9903 14.2516L58.8449 23.4704L56.1007 26.2423L53.3509 23.4704L50.9166 21.0223L53.6664 18.2504L56.1007 20.6985L65.2404 11.4854L67.9903 14.2516Z" fill="white"/>
</g>
<defs>
<clipPath id="clip0_3974_45318">
<rect width="75" height="38" fill="white"/>
</clipPath>
</defs>
</svg>
