<svg width="55" height="24" viewBox="0 0 55 24" fill="none" xmlns="http://www.w3.org/2000/svg">
<g id="Virement">
<g id="Group 3372">
<path id="Path 3219" d="M1.94202 6.98999H23.642L12.769 0L1.94202 6.98999Z" fill="#727690"/>
<path id="Rectangle 387" d="M7.07002 7.9873H3.66602V17.9383H7.07002V7.9873Z" fill="#727690"/>
<path id="Rectangle 388" d="M12.0471 7.9873H8.90405V17.9383H12.0471V7.9873Z" fill="#727690"/>
<path id="Rectangle 389" d="M17.023 7.9873H13.88V17.9383H17.023V7.9873Z" fill="#727690"/>
<path id="Rectangle 390" d="M21.998 7.9873H18.855V17.9383H21.998V7.9873Z" fill="#727690"/>
<path id="Rectangle 391" d="M23.569 17.9395H2.09497V20.2965H23.569V17.9395Z" fill="#A1A4B3"/>
<path id="Rectangle 392" d="M25.664 21.0811H0V23.3701H25.664V21.0811Z" fill="#727690"/>
</g>
<g id="Group 3373">
<path id="Path 3219_2" d="M31.2731 6.98999H52.9731L42.1001 0L31.2731 6.98999Z" fill="#727690"/>
<path id="Rectangle 387_2" d="M36.4011 7.9873H32.9971V17.9383H36.4011V7.9873Z" fill="#727690"/>
<path id="Rectangle 388_2" d="M41.3781 7.9873H38.2351V17.9383H41.3781V7.9873Z" fill="#727690"/>
<path id="Rectangle 389_2" d="M46.3541 7.9873H43.2111V17.9383H46.3541V7.9873Z" fill="#727690"/>
<path id="Rectangle 390_2" d="M51.329 7.9873H48.186V17.9383H51.329V7.9873Z" fill="#727690"/>
<path id="Rectangle 391_2" d="M52.9 17.9395H31.426V20.2965H52.9V17.9395Z" fill="#A1A4B3"/>
<path id="Rectangle 392_2" d="M54.9951 21.0811H29.3311V23.3701H54.9951V21.0811Z" fill="#727690"/>
</g>
<g id="Group 3374">
<path id="Icon open-arrow-thick-left" d="M26.181 9.3623L22.151 13.4333L26.181 17.4233V14.7363H32.898V12.0493H26.181V9.3623Z" fill="#A1A4B3"/>
</g>
</g>
</svg>
