<svg width="155" height="45" viewBox="0 0 155 45" fill="none" xmlns="http://www.w3.org/2000/svg">
<g id="Isolation_Mode" clip-path="url(#clip0_4127_57504)">
<path id="Vector" d="M65.626 0H5.02197C2.24841 0 0 2.27282 0 5.07648V39.9235C0 42.7272 2.24841 45 5.02197 45H65.626C68.3996 45 70.648 42.7272 70.648 39.9235V5.07648C70.648 2.27282 68.3996 0 65.626 0Z" fill="white"/>
<path id="Vector_2" d="M32.0895 30.2098H28.123L30.5999 14.791H34.5749L32.0895 30.2098Z" fill="#005CA8"/>
<path id="Vector_3" d="M24.7779 14.791L20.9901 25.3914L20.539 23.1113L19.2027 16.1763C19.2027 16.1763 19.0409 14.791 17.3216 14.791H11.0654L10.9888 15.0491C10.9888 15.0491 12.9039 15.4535 15.1425 16.813L18.5898 30.2098H22.7266L29.0423 14.791H24.7694H24.7779Z" fill="#005CA8"/>
<path id="Vector_4" d="M56.0077 30.2098H59.6507L56.4758 14.791H53.2839C51.8114 14.791 51.4539 15.944 51.4539 15.944L45.5297 30.2098H49.6664L50.492 27.921H55.5395L56.0077 30.2098ZM51.6411 24.7547L53.7265 18.9813L54.9012 24.7547H51.6411Z" fill="#005CA8"/>
<path id="Vector_5" d="M45.8446 18.4994L46.4149 15.1868C46.4149 15.1868 44.6699 14.5156 42.8399 14.5156C41.0099 14.5156 36.1922 15.3847 36.1922 19.6179C36.1922 23.8512 41.6823 23.6533 41.6823 25.7441C41.6823 27.8349 36.754 27.465 35.1282 26.1399L34.5409 29.5988C34.5409 29.5988 36.3114 30.4678 39.0266 30.4678C41.7419 30.4678 45.8276 29.0481 45.8276 25.1934C45.8276 21.3388 40.2864 20.8139 40.2864 19.0673C40.2864 17.3206 44.1507 17.5443 45.8531 18.4908L45.8446 18.4994Z" fill="#005CA8"/>
<path id="Vector_6" d="M20.5475 23.1191L19.2111 16.1841C19.2111 16.1841 19.0494 14.7988 17.33 14.7988H11.0739L10.9973 15.057C10.9973 15.057 14.0019 15.6851 16.8874 18.0512C19.6452 20.3055 20.5475 23.1191 20.5475 23.1191Z" fill="#F6A723"/>
<path id="Vector_7" d="M149.97 0H89.3655C86.5919 0 84.3435 2.27282 84.3435 5.07648V39.9235C84.3435 42.7272 86.5919 45 89.3655 45H149.97C152.743 45 154.992 42.7272 154.992 39.9235V5.07648C154.992 2.27282 152.743 0 149.97 0Z" fill="white"/>
<path id="Vector_8" d="M125.907 30.2436H113.437V7.58008H125.907V30.2436Z" fill="#FF5F00"/>
<path id="Vector_9" d="M114.228 18.912C114.228 14.3174 116.356 10.2218 119.676 7.58031C117.25 5.65296 114.194 4.5 110.866 4.5C102.993 4.5 96.609 10.9532 96.609 18.912C96.609 26.8709 102.993 33.3241 110.866 33.3241C118.74 33.3241 117.25 32.1711 119.676 30.2438C116.356 27.6023 114.228 23.5067 114.228 18.912Z" fill="#EB001B"/>
<path id="Vector_10" d="M142.743 18.912C142.743 26.8709 136.359 33.3241 128.486 33.3241C120.612 33.3241 122.102 32.1711 119.676 30.2438C122.996 27.6023 125.124 23.5067 125.124 18.912C125.124 14.3174 122.996 10.2218 119.676 7.58031C122.102 5.65296 125.166 4.5 128.486 4.5C136.359 4.5 142.743 10.9532 142.743 18.912Z" fill="#F79E1B"/>
<path id="Vector_11" d="M116.569 39.7339C116.169 39.7339 116.05 39.493 116.05 39.123V37.471H117.335V36.7396H116.05V35.6211H115.25V36.7396H114.509V37.471H115.25V39.1402C115.25 39.992 115.582 40.4997 116.51 40.4997C117.437 40.4997 117.25 40.3878 117.497 40.2157L117.267 39.536C117.054 39.6565 116.825 39.7339 116.578 39.7425L116.569 39.7339Z" fill="#110F0D"/>
<path id="Vector_12" d="M119.787 36.6455C118.731 36.6455 117.982 37.4285 117.982 38.5728C117.982 39.7172 118.757 40.5002 119.838 40.5002C120.919 40.5002 120.885 40.3625 121.319 39.9925L120.936 39.3989C120.629 39.6398 120.263 39.7774 119.88 39.786C119.378 39.786 118.91 39.5451 118.791 38.8912H121.489C121.489 38.788 121.506 38.6933 121.506 38.5815C121.506 37.4457 120.8 36.6541 119.778 36.6541L119.787 36.6455ZM118.799 38.2545C118.884 37.7296 119.208 37.3683 119.761 37.3683C120.314 37.3683 120.604 37.6952 120.68 38.2545H118.799Z" fill="#110F0D"/>
<path id="Vector_13" d="M112.713 38.2023L112.339 38.1592C112.007 38.1076 111.726 38.0388 111.726 37.7979C111.726 37.5569 111.99 37.3677 112.415 37.3677C112.841 37.3677 113.326 37.5397 113.547 37.686L113.879 37.0407C113.505 36.7912 112.977 36.6621 112.407 36.6621C111.488 36.6621 110.9 37.1009 110.9 37.8323C110.9 38.5636 111.343 38.7873 112.152 38.9078L112.526 38.9594C112.952 39.0197 113.164 39.1315 113.164 39.3466C113.164 39.5617 112.875 39.7854 112.33 39.7854C111.905 39.8026 111.471 39.665 111.122 39.4069L110.756 40.0264C111.181 40.3447 111.726 40.4996 112.313 40.4996C113.36 40.4996 113.965 40.0005 113.965 39.3036C113.965 38.6067 113.488 38.3227 112.696 38.2023H112.713Z" fill="#110F0D"/>
<path id="Vector_14" d="M109.206 37.1876C108.934 36.8263 108.509 36.6284 108.057 36.6456C107.044 36.6456 106.244 37.4544 106.244 38.5729C106.244 39.6915 107.044 40.5003 108.057 40.5003C108.509 40.5261 108.934 40.3196 109.206 39.9668V40.4056H109.99V36.7488H109.206V37.1962V37.1876ZM108.16 39.7517C107.479 39.7517 107.053 39.2182 107.053 38.5729C107.053 37.9276 107.47 37.4027 108.16 37.4027C108.849 37.4027 109.249 37.9018 109.249 38.5729C109.249 39.244 108.815 39.7517 108.16 39.7517Z" fill="#110F0D"/>
<path id="Vector_15" d="M104.125 36.6453C103.657 36.6453 103.18 36.783 102.848 37.2992C102.601 36.8776 102.142 36.6281 101.648 36.6453C101.231 36.6195 100.822 36.8346 100.584 37.1874V36.74H99.8009V40.3968H100.593V38.3662C100.593 37.7295 100.941 37.3939 101.486 37.3939C102.031 37.3939 102.269 37.7381 102.269 38.3576V40.3968H103.061V38.3662C103.061 37.7295 103.427 37.3939 103.955 37.3939C104.482 37.3939 104.746 37.7381 104.746 38.3576V40.3968H105.538V38.0994C105.538 37.239 104.993 36.6453 104.116 36.6367L104.125 36.6453Z" fill="#110F0D"/>
<path id="Vector_16" d="M123.089 37.1874V36.74H122.315V40.3968H123.106V38.349C123.106 37.7467 123.362 37.4025 123.872 37.4025C124.383 37.4025 124.196 37.4283 124.357 37.4971L124.604 36.74C124.417 36.6797 124.23 36.6367 124.034 36.6367C123.642 36.6367 123.276 36.8346 123.089 37.1788V37.1874Z" fill="#110F0D"/>
<path id="Vector_17" d="M138.76 37.1875C138.487 36.8261 138.062 36.6282 137.619 36.6454C136.598 36.6454 135.806 37.4542 135.806 38.5728C135.806 39.6913 136.598 40.5001 137.619 40.5001C138.062 40.5173 138.487 40.3194 138.76 39.9666V40.4055H139.543V35.2773H138.76V37.1961V37.1875ZM137.713 39.7515C137.032 39.7515 136.615 39.2181 136.615 38.5728C136.615 37.9274 137.032 37.4026 137.713 37.4026C138.393 37.4026 138.811 37.9016 138.811 38.5728C138.811 39.2439 138.368 39.7515 137.713 39.7515Z" fill="#110F0D"/>
<path id="Vector_18" d="M134.052 37.1874V36.74H133.278V40.3968H134.061V38.349C134.061 37.7467 134.316 37.4025 134.827 37.4025C135.338 37.4025 135.15 37.4283 135.321 37.4971L135.559 36.74C135.38 36.6797 135.193 36.6367 134.997 36.6367C134.606 36.6367 134.231 36.8346 134.044 37.1788L134.052 37.1874Z" fill="#110F0D"/>
<path id="Vector_19" d="M131.439 37.1876C131.167 36.8263 130.75 36.6284 130.299 36.6456C129.286 36.6456 128.486 37.4544 128.486 38.5729C128.486 39.6915 129.286 40.5003 130.299 40.5003C131.312 40.5003 131.192 40.2938 131.439 39.9668V40.4056H132.231V36.7488H131.439V37.1962V37.1876ZM130.401 39.7517C129.72 39.7517 129.303 39.2182 129.303 38.5729C129.303 37.9276 129.711 37.4027 130.401 37.4027C131.09 37.4027 131.49 37.9018 131.49 38.5729C131.49 39.244 131.056 39.7517 130.401 39.7517Z" fill="#110F0D"/>
<path id="Vector_20" d="M126.758 37.4025C127.098 37.4025 127.43 37.523 127.703 37.7295L128.077 37.0842C127.711 36.7744 127.251 36.6195 126.775 36.6454C125.6 36.6454 124.843 37.4628 124.843 38.5727C124.843 39.6826 125.6 40.5 126.775 40.5C127.251 40.5259 127.711 40.371 128.077 40.0612L127.703 39.4245C127.43 39.631 127.098 39.7429 126.758 39.7515C126.128 39.7343 125.66 39.2782 125.66 38.5727C125.66 37.8672 126.128 37.4111 126.758 37.4025Z" fill="#110F0D"/>
</g>
<defs>
<clipPath id="clip0_4127_57504">
<rect width="155" height="45" fill="white"/>
</clipPath>
</defs>
</svg>
