<svg width="14" height="16" viewBox="0 0 14 16" fill="none" xmlns="http://www.w3.org/2000/svg">
<g clip-path="url(#clip0_936_8794)">
<path d="M7.00004 0C7.55316 0 8.00004 0.446875 8.00004 1V1.94062L8.46879 1.47187C8.76254 1.17812 9.23754 1.17812 9.52816 1.47187C9.81879 1.76562 9.82191 2.24062 9.52816 2.53125L7.99691 4.0625V6.25938L9.91566 5.14062L10.4688 3.075C10.575 2.675 10.9875 2.4375 11.3875 2.54375C11.7875 2.65 12.025 3.0625 11.9188 3.4625L11.7563 4.06563L12.4938 3.63438C12.9719 3.35625 13.5844 3.51875 13.8625 3.99375C14.1407 4.46875 13.9813 5.08438 13.5032 5.3625L12.7125 5.825L13.3907 6.00625C13.7907 6.1125 14.0282 6.525 13.9219 6.925C13.8157 7.325 13.4032 7.5625 13.0032 7.45625L10.8875 6.89062L8.98441 8L10.8875 9.10938L13.0032 8.54375C13.4032 8.4375 13.8157 8.675 13.9219 9.075C14.0282 9.475 13.7907 9.8875 13.3907 9.99375L12.7125 10.175L13.5032 10.6375C13.9813 10.9156 14.1407 11.5281 13.8625 12.0063C13.5844 12.4844 12.9719 12.6438 12.4938 12.3656L11.7563 11.9344L11.9188 12.5375C12.025 12.9375 11.7875 13.35 11.3875 13.4563C10.9875 13.5625 10.575 13.325 10.4688 12.925L9.91566 10.8594L8.00004 9.74063V11.9375L9.53129 13.4688C9.82504 13.7625 9.82504 14.2375 9.53129 14.5281C9.23754 14.8187 8.76254 14.8219 8.47191 14.5281L8.00316 14.0594V15C8.00316 15.5531 7.55629 16 7.00316 16C6.45004 16 6.00316 15.5531 6.00316 15V14.0594L5.53441 14.5281C5.24066 14.8219 4.76566 14.8219 4.47504 14.5281C4.18441 14.2344 4.18129 13.7594 4.47504 13.4688L6.00629 11.9375V9.74063L4.08754 10.8594L3.53441 12.925C3.42816 13.325 3.01566 13.5625 2.61566 13.4563C2.21566 13.35 1.97816 12.9375 2.08441 12.5375L2.24691 11.9344L1.50316 12.3625C1.02504 12.6406 0.412537 12.4781 0.134412 12.0031C-0.143713 11.5281 0.0187871 10.9125 0.493787 10.6344L1.28441 10.1719L0.606287 9.99063C0.206287 9.88438 -0.0312129 9.47187 0.0750371 9.07187C0.181287 8.67188 0.593787 8.43437 0.993787 8.54062L3.10941 9.10625L5.01566 8L3.11254 6.89062L0.996912 7.45625C0.596912 7.5625 0.184412 7.325 0.0781621 6.925C-0.0280879 6.525 0.209412 6.1125 0.609412 6.00625L1.28754 5.825L0.496912 5.3625C0.0187871 5.08438 -0.140588 4.47188 0.137537 3.99688C0.415662 3.52188 1.02816 3.35938 1.50629 3.6375L2.24379 4.06875L2.08129 3.46563C1.97504 3.06562 2.21254 2.65313 2.61254 2.54688C3.01254 2.44062 3.42504 2.67812 3.53129 3.07812L4.08441 5.14375L6.00004 6.25938V4.05937L4.46879 2.53125C4.17504 2.2375 4.17504 1.7625 4.46879 1.47187C4.76254 1.18125 5.23754 1.17812 5.52816 1.47187L5.99691 1.94062V1C5.99691 0.446875 6.44379 0 6.99691 0H7.00004Z" fill="#0A2463"/>
</g>
<defs>
<clipPath id="clip0_936_8794">
<rect width="14" height="16" fill="white"/>
</clipPath>
</defs>
</svg>
