<svg width="27" height="27" viewBox="0 0 27 27" fill="none" xmlns="http://www.w3.org/2000/svg">
<g id="charge-back">
<path id="Icon open-reload" d="M13.273 0C15.4555 0.0127724 17.6013 0.562205 19.5214 1.59987C21.4415 2.63754 23.0768 4.13159 24.2833 5.95033C25.4898 7.76907 26.2303 9.85666 26.4397 12.0291C26.6491 14.2016 26.3209 16.3922 25.4841 18.4079C24.6472 20.4236 23.3273 22.2025 21.6408 23.5878C19.9543 24.9731 17.9529 25.9223 15.813 26.3517C13.6732 26.7811 11.4605 26.6775 9.37014 26.0501C7.27973 25.4227 5.37575 24.2908 3.826 22.754L6.226 20.354C7.38477 21.52 8.81342 22.3819 10.3852 22.8632C11.957 23.3446 13.6233 23.4305 15.2362 23.1134C16.8492 22.7963 18.3589 22.086 19.6315 21.0454C20.9041 20.0049 21.9001 18.6663 22.5313 17.1484C23.1624 15.6306 23.4091 13.9804 23.2495 12.3443C23.0899 10.7083 22.5289 9.1369 21.6163 7.76964C20.7037 6.40239 19.4678 5.28154 18.0181 4.50655C16.5684 3.73156 14.9498 3.32639 13.306 3.327C12.0031 3.33755 10.7158 3.6111 9.52118 4.13125C8.32658 4.65139 7.24932 5.40742 6.354 6.354L9.98 9.98H0V0L3.959 3.959C5.17971 2.71633 6.63377 1.72693 8.23776 1.04754C9.84175 0.368161 11.5641 0.0121711 13.306 0L13.273 0Z" fill="#015CA6"/>
<path id="Icon ionic-logo-euro" d="M12.0671 14.4379V13.0379H15.8941L16.1031 11.6379H12.0671V11.5819C12.0671 10.5329 12.5041 9.88195 14.3801 9.88195C15.2923 9.89083 16.2021 9.97613 17.1001 10.1369L17.3791 8.23695C16.3659 8.00326 15.3288 7.88981 14.2891 7.89895C10.9401 7.89895 9.50006 9.09895 9.50006 11.3269V11.6359H8.03906V13.0359H9.49906V14.4359H8.03906V15.8359H9.49906V16.6119C9.49906 18.8369 10.9381 20.0399 14.2871 20.0399C15.3271 20.0466 16.3643 19.9305 17.3771 19.6939L17.0961 17.7939C16.1995 17.9548 15.2909 18.0401 14.3801 18.0489C12.5041 18.0489 12.0671 17.5019 12.0671 16.2069V15.8319H15.4761L15.6851 14.4319L12.0671 14.4379Z" fill="#015CA6"/>
</g>
</svg>
