<svg width="55" height="24" viewBox="0 0 55 24" fill="none" xmlns="http://www.w3.org/2000/svg">
<path d="M1.94189 6.98999H23.6419L12.7689 0L1.94189 6.98999Z" fill="#015CA6"/>
<path d="M7.07002 7.9873H3.66602V17.9383H7.07002V7.9873Z" fill="#015CA6"/>
<path d="M12.0471 7.9873H8.90405V17.9383H12.0471V7.9873Z" fill="#015CA6"/>
<path d="M17.0229 7.9873H13.8799V17.9383H17.0229V7.9873Z" fill="#015CA6"/>
<path d="M21.998 7.9873H18.855V17.9383H21.998V7.9873Z" fill="#015CA6"/>
<path d="M23.569 17.9395H2.09497V20.2965H23.569V17.9395Z" fill="#015CA6"/>
<path d="M25.664 21.0811H0V23.3701H25.664V21.0811Z" fill="#015CA6"/>
<path d="M31.2729 6.98999H52.973L42.1 0L31.2729 6.98999Z" fill="#015CA6"/>
<path d="M36.4011 7.9873H32.9971V17.9383H36.4011V7.9873Z" fill="#015CA6"/>
<path d="M41.3781 7.9873H38.2351V17.9383H41.3781V7.9873Z" fill="#015CA6"/>
<path d="M46.3539 7.9873H43.2109V17.9383H46.3539V7.9873Z" fill="#015CA6"/>
<path d="M51.329 7.9873H48.186V17.9383H51.329V7.9873Z" fill="#015CA6"/>
<path d="M52.9 17.9395H31.426V20.2965H52.9V17.9395Z" fill="#015CA6"/>
<path d="M54.9951 21.0811H29.3311V23.3701H54.9951V21.0811Z" fill="#015CA6"/>
<path d="M26.1809 9.3623L22.1509 13.4333L26.1809 17.4233V14.7363H32.8979V12.0493H26.1809V9.3623Z" fill="#015CA6"/>
</svg>
