<svg width="48" height="48" fill="none" xmlns="http://www.w3.org/2000/svg"><path fill-rule="evenodd" clip-rule="evenodd" d="M41.283 14.737a2.737 2.737 0 1 1-5.474 0 2.737 2.737 0 0 1 5.474 0zm-1.924-.001a.813.813 0 1 0-1.627 0 .813.813 0 0 0 1.627 0zm1.911 3.889a.962.962 0 1 0-.835 1.733c3.634 1.755 5.643 3.954 5.643 6.199 0 2.331-2.253 4.681-6.18 6.448-4.23 1.903-9.875 2.95-15.896 2.95-6.02 0-11.665-1.047-15.896-2.95-3.928-1.766-6.18-4.116-6.18-6.448 0-2.245 2.004-4.442 5.644-6.2a.962.962 0 1 0-.836-1.732C2.392 20.718 0 23.535 0 26.555c0 6.349 10.542 11.32 24 11.32s24-4.972 24-11.32c.003-3.02-2.388-5.837-6.73-7.93zm-27.548 11.55c-1.37 0-2.456-.368-3.256-1.103-.8-.736-1.2-1.732-1.2-2.99v-.113h2.98v.192c0 .52.122.912.364 1.177.241.265.598.398 1.069.398.492 0 .87-.127 1.132-.382.262-.254.393-.622.393-1.104 0-.54-.14-.938-.421-1.192-.282-.255-.722-.382-1.321-.382H13.1v-1.888h.164c.54 0 .956-.117 1.245-.353.29-.236.434-.579.434-1.029a1.138 1.138 0 0 0-.365-.875 1.325 1.325 0 0 0-.936-.338c-.407 0-.723.11-.948.33-.225.219-.343.53-.353.932H9.498c.022-1.095.406-1.946 1.153-2.554.746-.608 1.792-.912 3.136-.912 1.198-.006 2.142.262 2.83.806.688.544 1.032 1.282 1.032 2.213a2.426 2.426 0 0 1-.473 1.513c-.316.415-.776.716-1.381.903.733.132 1.303.453 1.71.963.407.51.61 1.156.61 1.94.001 1.14-.404 2.066-1.216 2.778-.812.713-1.87 1.07-3.177 1.07zm13.61-1.168c-.817.778-1.91 1.168-3.28 1.168-1.366.004-2.45-.38-3.253-1.15-.803-.771-1.205-1.807-1.205-3.108A5.757 5.757 0 0 1 20 23.851c.27-.706.837-1.733 1.699-3.083l1.647-2.548h3.277l-2.747 4.144c.192-.06.388-.104.587-.133a4.51 4.51 0 0 1 .641-.044c.996 0 1.82.35 2.474 1.049.653.699.98 1.586.98 2.662 0 1.293-.409 2.329-1.225 3.108zm-3.313-4.77c-.547 0-.98.163-1.298.487-.319.332-.478.774-.478 1.325 0 .552.16.988.478 1.31.32.318.752.477 1.299.477.546 0 .979-.16 1.297-.482.319-.316.478-.753.478-1.31 0-.556-.16-.996-.478-1.32-.32-.325-.752-.487-1.298-.487zm10.28 5.938c1.382 0 2.468-.535 3.257-1.604.79-1.068 1.184-2.53 1.184-4.382 0-1.964-.389-3.489-1.168-4.573-.779-1.085-1.87-1.627-3.273-1.626-1.381 0-2.47.54-3.264 1.622-.794 1.082-1.192 2.57-1.193 4.466 0 1.901.398 3.393 1.193 4.477.795 1.084 1.884 1.624 3.264 1.62zm-1.14-8.927c.236-.587.616-.88 1.14-.88.509 0 .882.3 1.12.9.238.6.357 1.534.357 2.803 0 1.282-.119 2.22-.357 2.81-.238.592-.611.89-1.12.892-.52 0-.898-.296-1.136-.887-.238-.591-.357-1.53-.357-2.815 0-1.294.117-2.234.353-2.82v-.003z" fill="#1F7DE0"/></svg>