<svg width="70" height="47" viewBox="0 0 70 47" fill="none" xmlns="http://www.w3.org/2000/svg">
<g id="Group 3422">
<path id="Vector" d="M61.3724 2.91946C61.3724 1.16779 59.5058 0 57.1722 0C54.8386 0 52.9717 1.36242 52.9717 2.91946V7.20137H61.3724V2.91946Z" fill="#0A2463"/>
<path id="Vector_2" d="M16.5658 2.91946C16.5658 1.16779 14.6988 0 12.3653 0C10.0317 0 8.16504 1.36242 8.16504 2.91946V7.20137H16.5658V2.91946Z" fill="#0A2463"/>
<path id="Vector_3" d="M0.233299 8.17334V13.0391H2.80016V46.7102H67.4397V13.0391H69.3067V8.17334H0H0.233299ZM22.8687 25.1062H18.2016V28.9989H14.468V25.1062H9.80085V21.9921H14.468V18.0995H18.2016V21.9921H22.8687V25.1062ZM28.236 43.4015L34.3032 32.5022H28.236L41.5372 18.878L37.1034 28.6096H43.6375L28.0027 43.5962L28.236 43.4015ZM61.1392 25.1062H48.0713V21.9921H61.1392V25.1062Z" fill="#0A2463"/>
</g>
</svg>
