<svg width="16" height="17" viewBox="0 0 16 17" fill="none" xmlns="http://www.w3.org/2000/svg">
<path d="M8 0.5C12.416 0.5 16 4.084 16 8.5C16 12.916 12.416 16.5 8 16.5C3.584 16.5 0 12.916 0 8.5C6.45019e-08 4.084 3.584 0.5 8 0.5Z" fill="#0A2463"/>
<path d="M11.4734 4.89189L6.2867 10.0652L4.26998 8.18522C3.74998 7.66522 2.90998 7.66522 2.38998 8.18522C2.14031 8.43433 2 8.77253 2 9.12522C2 9.47791 2.14031 9.81611 2.38998 10.0652L5.34003 12.8786C5.86003 13.3986 6.70003 13.3986 7.22003 12.8786L13.34 6.75855C13.86 6.23855 13.86 5.39855 13.34 4.87855C12.8334 4.37189 11.98 4.37189 11.4734 4.89189Z" fill="white"/>
</svg>
