<svg width="113" height="100" viewBox="0 0 113 100" fill="none" xmlns="http://www.w3.org/2000/svg">
<g id="cart-shopping">
<path id="Primary" d="M22.8244 7.25L22.5534 6.67829C20.9384 3.27089 17.4775 1 13.5742 1H4.6875C2.64213 1 1 2.64213 1 4.6875C1 6.73287 2.64213 8.375 4.6875 8.375H13.5742C14.8057 8.375 15.8726 9.23398 16.1001 10.4602C16.1003 10.4613 16.1004 10.4623 16.1006 10.4634L26.1777 63.3872L26.178 63.3887C27.3385 69.5362 32.7256 74 39.0039 74H95.3125C97.3579 74 99 72.3579 99 70.3125C99 68.2671 97.3579 66.625 95.3125 66.625H39.0039C36.2764 66.625 33.9336 64.6815 33.413 62.0075L33.412 62.0026L32.3573 56.4362L32.1326 55.25H33.3398H89.6875C95.5809 55.25 100.753 51.2781 102.296 45.5799L22.8244 7.25ZM22.8244 7.25H23.457H103.73C108.211 7.25 111.479 11.5092 110.304 15.8316L110.304 15.8338L102.296 45.5785L22.8244 7.25ZM26 90.625C26 89.5252 26.2166 88.4361 26.6375 87.42C27.0584 86.4039 27.6753 85.4807 28.453 84.703C29.2307 83.9253 30.1539 83.3084 31.17 82.8875C32.1861 82.4666 33.2752 82.25 34.375 82.25C35.4748 82.25 36.5639 82.4666 37.58 82.8875C38.5961 83.3084 39.5193 83.9253 40.297 84.703C41.0747 85.4807 41.6916 86.4039 42.1125 87.42C42.5334 88.4361 42.75 89.5252 42.75 90.625C42.75 91.7248 42.5334 92.8139 42.1125 93.83C41.6916 94.8461 41.0747 95.7693 40.297 96.547C39.5193 97.3247 38.5961 97.9416 37.58 98.3625C36.5639 98.7834 35.4748 99 34.375 99C33.2752 99 32.1861 98.7834 31.17 98.3625C30.1539 97.9416 29.2307 97.3247 28.453 96.547C27.6753 95.7693 27.0584 94.8461 26.6375 93.83C26.2166 92.8139 26 91.7248 26 90.625ZM90.625 82.25C92.8462 82.25 94.9764 83.1324 96.547 84.703C98.1176 86.2736 99 88.4038 99 90.625C99 92.8462 98.1176 94.9764 96.547 96.547C94.9764 98.1176 92.8462 99 90.625 99C88.4038 99 86.2736 98.1176 84.703 96.547C83.1324 94.9764 82.25 92.8462 82.25 90.625C82.25 88.4038 83.1324 86.2736 84.703 84.703C86.2736 83.1324 88.4038 82.25 90.625 82.25Z" stroke="#A1A4B3" stroke-width="2"/>
</g>
</svg>
