<svg width="60" height="60" viewBox="0 0 60 60" fill="none" xmlns="http://www.w3.org/2000/svg">
<g id="Group 1216402421">
<path id="Vector" d="M12.1062 12.2625C2.26075 22.1079 2.41709 38.0481 12.2625 47.8935C22.1079 57.7389 38.048 57.5825 47.8935 47.7371C57.7389 37.8917 57.5825 21.9516 47.7371 12.1062C37.8917 2.26078 21.9516 2.41706 12.1062 12.2625ZM42.1112 41.9549C35.5476 48.6748 24.7645 48.6748 18.0446 41.9549C11.3248 35.3913 11.3248 24.6083 18.0446 17.8884C24.6082 11.1685 35.3913 11.1685 42.1112 17.8884C48.8311 24.452 48.8311 35.2351 42.1112 41.9549ZM18.9823 19.1386C13.0439 25.2334 13.0439 35.0788 18.9823 41.0173C25.0771 46.9558 34.9225 46.9558 40.861 41.0173C46.7995 34.9225 46.7995 25.0771 40.861 19.1386C34.7662 13.2001 24.9208 13.2001 18.9823 19.1386ZM26.3274 19.1386C26.3274 17.2633 27.89 15.5443 29.7654 15.5443C31.6407 15.5443 33.3598 17.1071 33.3598 18.9824C33.3598 20.8577 31.797 22.5767 29.9217 22.5767C28.0464 22.5767 26.3274 21.0139 26.3274 19.1386ZM19.7637 19.92C21.1702 18.5135 23.3581 18.5135 24.7646 19.92C26.1711 21.3265 26.1711 23.5144 24.7646 24.9208C23.3581 26.3273 21.1702 26.3273 19.7637 24.9208C18.3572 23.5144 18.3572 21.3265 19.7637 19.92ZM31.6407 31.6407C30.703 32.5784 29.2966 32.5784 28.3589 31.6407C27.4213 30.703 27.4213 29.2966 28.3589 28.3589C29.2966 27.4213 30.703 27.4213 31.6407 28.3589C32.5783 29.2966 32.5783 30.703 31.6407 31.6407ZM34.61 32.2658C35.2351 32.8909 35.2351 33.9849 34.61 34.61C33.9849 35.2351 32.8909 35.2351 32.2658 34.61C31.6407 33.9849 31.6407 32.8909 32.2658 32.2658C32.8909 31.6407 33.9849 31.6407 34.61 32.2658ZM25.3896 27.8901C24.7645 27.265 24.7645 26.171 25.3896 25.5459C26.0147 24.9208 27.1087 24.9208 27.7338 25.5459C28.3589 26.171 28.3589 27.265 27.7338 27.8901C27.1087 28.5152 26.0147 28.5152 25.3896 27.8901ZM16.0131 30.2342C16.0131 28.3589 17.5758 26.6399 19.4512 26.6399C21.3265 26.6399 23.0455 28.2026 23.0455 30.0779C23.0455 31.9532 21.4827 33.6723 19.6074 33.6723C17.7321 33.6723 16.0131 32.1095 16.0131 30.2342ZM19.92 40.2359C18.5135 38.8294 18.5135 36.6416 19.92 35.2351C21.3265 33.8286 23.5143 33.8286 24.9208 35.2351C26.3273 36.6416 26.3273 38.8294 24.9208 40.2359C23.5143 41.6424 21.3265 41.6424 19.92 40.2359ZM33.516 40.7047C33.516 42.5801 31.9532 44.2991 30.0779 44.2991C28.2026 44.2991 26.4836 42.7363 26.4836 40.861C26.4836 38.9857 28.0464 37.2666 29.9217 37.2666C31.797 37.2666 33.516 38.8294 33.516 40.7047ZM27.8901 34.61C27.265 35.2351 26.1711 35.2351 25.546 34.61C24.9209 33.9849 24.9209 32.8909 25.546 32.2658C26.1711 31.6407 27.265 31.6407 27.8901 32.2658C28.5152 32.8909 28.5152 33.9849 27.8901 34.61ZM40.2359 40.0796C38.8294 41.4861 36.6415 41.4861 35.235 40.0796C33.8285 38.6732 33.8285 36.4853 35.235 35.0788C36.6415 33.6723 38.8294 33.6723 40.2359 35.0788C41.6424 36.4853 41.6424 38.6732 40.2359 40.0796ZM32.1095 27.8901C31.4844 27.265 31.4844 26.171 32.1095 25.5459C32.7346 24.9208 33.8285 24.9208 34.4536 25.5459C35.0787 26.171 35.0787 27.265 34.4536 27.8901C33.8285 28.5152 32.7346 28.5152 32.1095 27.8901ZM44.7679 30.0779C44.7679 31.9532 43.2051 33.6723 41.3298 33.6723C39.4545 33.6723 37.7355 32.1095 37.7355 30.2342C37.7355 28.3589 39.2983 26.6399 41.1736 26.6399C43.0489 26.6399 44.7679 28.2026 44.7679 30.0779ZM40.0796 24.7646C38.6732 26.171 36.4853 26.171 35.0788 24.7646C33.6723 23.3581 33.6723 21.1702 35.0788 19.7637C36.4853 18.3573 38.6732 18.3573 40.0796 19.7637C41.4861 21.1702 41.4861 23.3581 40.0796 24.7646Z" fill="#0A2463"/>
<path id="Vector_2" d="M56.0823 33.6795V33.3035L60 32.7663V27.1262L56.0823 26.5891V26.2131C56.0823 25.4611 55.8676 24.9239 55.7066 24.333V23.957L59.0877 22.2919L57.2093 17.0278L53.4526 17.9409V17.5649C52.8623 17.0278 52.7012 16.4369 52.3256 15.8997V15.5237C52.1646 15.5237 54.7406 12.7305 54.7406 12.7305L51.1986 8.4333L48.0322 10.4745H47.8712C47.4955 9.93733 46.9589 9.34647 46.3685 8.97046H45.9928C45.9928 8.80931 47.4955 5.21039 47.4955 5.21039L42.6118 2.41719L40.1968 5.58639H39.8211C39.2844 5.21039 38.5331 5.04924 37.9427 4.83438H37.5671L37.7281 0.91316L32.3077 0L31.1807 3.76007H28.39L27.263 0L21.8426 0.91316V4.83438C21.0912 4.99552 20.5546 5.21039 19.9642 5.58639H19.5886L17.3345 2.57833L12.4508 5.37153L13.9535 8.91674H13.5778C13.0411 9.66876 12.4508 10.0448 12.0751 10.4208H11.9141C11.9141 10.5819 8.74776 8.54074 8.74776 8.54074L5.20572 12.838L7.83542 15.6312V16.0072C7.29875 16.5443 6.92308 17.1352 6.70841 17.6723V18.0483L2.7907 17.1352L0.912343 22.3993L4.29338 24.0645V24.4405C4.13238 24.9776 3.91771 25.7296 3.91771 26.3205V26.6965L0 27.2337V32.8738L3.91771 33.4109V33.7869C3.91771 34.5389 4.07871 35.0761 4.29338 35.667V36.043L0.912343 37.7081L2.7907 42.9723L6.54741 42.0591V42.4351C7.08408 42.9723 7.29875 43.5631 7.67442 44.1003V44.4763C7.83542 44.4763 5.25939 47.2695 5.25939 47.2695L8.80143 51.5667L11.9678 49.5255H12.1288C12.5045 50.2775 13.0411 50.6535 13.6315 51.0295H14.0072C14.0072 51.1907 12.5045 54.7896 12.5045 54.7896L17.3882 57.5828L19.8032 54.4136H20.1789C20.7156 54.7896 21.4669 54.9508 22.0572 55.1656H22.4329L22.2719 59.0868L27.6923 60L28.8193 56.2399H31.449L32.576 60L37.9964 59.0868V55.1656C38.5331 55.0045 39.2844 54.7896 39.8748 54.4136H40.2504L42.6655 57.4217L47.5492 54.6285L46.0465 51.0833H46.4222C46.9589 50.5461 47.5492 49.9552 47.9249 49.5792H48.0859C48.0859 49.4181 51.2522 51.4593 51.2522 51.4593L54.7943 47.162L52.1646 44.3688V43.9928C52.7012 43.4557 53.0769 42.8648 53.2916 42.3277V41.9517L57.2093 42.8648L59.0877 37.6007L55.7066 35.9355V35.5595C55.8676 35.0224 56.0823 34.2704 56.0823 33.6795ZM29.7853 55.5416C15.7245 55.5416 4.29338 44.1003 4.29338 30.0269C4.29338 15.9534 15.7245 4.51209 29.7853 4.51209C43.8461 4.51209 55.2773 15.9534 55.2773 30.0269C55.2773 44.1003 43.8461 55.5416 29.7853 55.5416Z" fill="#0A2463"/>
</g>
</svg>
