<svg width="16" height="16" viewBox="0 0 16 16" fill="none" xmlns="http://www.w3.org/2000/svg">
<g id="Icon">
<path id="icon/editor/monetization_on_24px" fillRule="evenodd" ClipRule="evenodd" d="M0 8C0 3.584 3.584 0 8 0C12.416 0 16 3.584 16 8C16 12.416 12.416 16 8 16C3.584 16 0 12.416 0 8ZM9.12772 13.3362V12.8722C10.5197 12.6082 11.6157 11.8082 11.6317 10.3442C11.6317 8.3282 9.90372 7.6322 8.28772 7.2162C6.67172 6.8002 6.15172 6.3602 6.15172 5.6882C6.15172 4.9202 6.87172 4.3762 8.07172 4.3762C9.07972 4.3762 9.58372 4.7682 9.76772 5.37619C9.84772 5.6642 10.0877 5.8722 10.3837 5.8722H10.5917C11.0637 5.8722 11.3997 5.4082 11.2397 4.9682C10.9357 4.1202 10.2397 3.4322 9.13572 3.1602V2.6642C9.13572 2.0802 8.65572 1.6002 8.07172 1.6002H8.06372C7.47972 1.6002 6.99972 2.0802 6.99972 2.6642V3.1442C5.62372 3.4402 4.51172 4.33619 4.51172 5.7122C4.51172 7.3522 5.87172 8.1682 7.85572 8.6482C9.63972 9.0722 9.99172 9.6962 9.99172 10.3602C9.99172 10.8482 9.63972 11.6322 8.07172 11.6322C6.90372 11.6322 6.29572 11.2162 6.06372 10.6162C5.95172 10.3362 5.71172 10.1362 5.41572 10.1362H5.22372C4.74372 10.1362 4.39972 10.6242 4.58372 11.0642C4.98372 12.0482 5.92772 12.6322 6.99172 12.8562V13.3362C6.99172 13.9202 7.47172 14.4002 8.05572 14.4002H8.06372C8.64772 14.4002 9.12772 13.9202 9.12772 13.3362Z" fill="#164FDA"/>
</g>
</svg>
