<svg id="Layer_1" data-name="Layer 1" xmlns="http://www.w3.org/2000/svg" viewBox="0 0 14 14"><defs><style>.cls-1{fill:#222b60;}</style></defs><title>double-chevron-left</title><path class="cls-1" d="M290.79,419.79l6-6a1,1,0,0,1,1.41,1.42l-5.29,5.29,5.3,5.29a1,1,0,0,1-1.42,1.42l-6-6a1,1,0,0,1,0-1.42Z" transform="translate(-290.5 -413.5)"/><path class="cls-1" d="M296.79,419.79l6-6a1,1,0,0,1,1.41,1.42l-5.29,5.29,5.3,5.29a1,1,0,0,1-1.42,1.42l-6-6a1,1,0,0,1,0-1.42Z" transform="translate(-290.5 -413.5)"/></svg>