<svg width="16" height="16" viewBox="0 0 16 16" fill="none" xmlns="http://www.w3.org/2000/svg">
<path d="M11.2971 0.0376804C11.4533 0.103305 11.5658 0.24393 11.5971 0.409555L12.2189 3.78143L15.5908 4.40018C15.7564 4.43143 15.8971 4.54393 15.9627 4.70018C16.0283 4.85643 16.0096 5.03456 15.9127 5.17518L13.9658 8.00018L15.9127 10.8221C16.0096 10.9627 16.0283 11.1408 15.9627 11.2971C15.8971 11.4533 15.7564 11.5658 15.5908 11.5971L12.2189 12.2189L11.5971 15.5908C11.5658 15.7564 11.4533 15.8971 11.2971 15.9627C11.1408 16.0283 10.9627 16.0096 10.8221 15.9127L8.00018 13.9658L5.17831 15.9127C5.03768 16.0096 4.85956 16.0283 4.70331 15.9627C4.54706 15.8971 4.43456 15.7564 4.40331 15.5908L3.78143 12.2189L0.409555 11.5971C0.24393 11.5658 0.103305 11.4533 0.0376804 11.2971C-0.0279445 11.1408 -0.00919455 10.9627 0.0876804 10.8221L2.03456 8.00018L0.0876804 5.17831C-0.00919455 5.03768 -0.0279445 4.85956 0.0376804 4.70331C0.103305 4.54706 0.24393 4.43456 0.409555 4.40331L3.78143 3.78143L4.40331 0.409555C4.43456 0.24393 4.54706 0.103305 4.70331 0.0376804C4.85956 -0.0279445 5.03768 -0.00919455 5.17831 0.0876804L8.00018 2.03456L10.8221 0.0876804C10.9627 -0.00919455 11.1408 -0.0279445 11.2971 0.0376804ZM5.00018 8.00018C5.00018 7.20453 5.31625 6.44147 5.87886 5.87886C6.44147 5.31625 7.20453 5.00018 8.00018 5.00018C8.79583 5.00018 9.55889 5.31625 10.1215 5.87886C10.6841 6.44147 11.0002 7.20453 11.0002 8.00018C11.0002 8.79583 10.6841 9.55889 10.1215 10.1215C9.55889 10.6841 8.79583 11.0002 8.00018 11.0002C7.20453 11.0002 6.44147 10.6841 5.87886 10.1215C5.31625 9.55889 5.00018 8.79583 5.00018 8.00018ZM12.0002 8.00018C12.0002 6.93931 11.5788 5.9219 10.8286 5.17175C10.0785 4.42161 9.06105 4.00018 8.00018 4.00018C6.93931 4.00018 5.9219 4.42161 5.17175 5.17175C4.42161 5.9219 4.00018 6.93931 4.00018 8.00018C4.00018 9.06105 4.42161 10.0785 5.17175 10.8286C5.9219 11.5788 6.93931 12.0002 8.00018 12.0002C9.06105 12.0002 10.0785 11.5788 10.8286 10.8286C11.5788 10.0785 12.0002 9.06105 12.0002 8.00018Z" fill="#677198"/>
</svg>
