<svg width="16" height="16" viewBox="0 0 16 16" fill="none" xmlns="http://www.w3.org/2000/svg">
<g id="sun" ClipPath="url(#clip0_1740_13886)">
<path id="Primary" d="M11.2971 0.0374363C11.4533 0.103061 11.5658 0.243686 11.5971 0.409311L12.2189 3.78119L15.5908 4.39994C15.7564 4.43119 15.8971 4.54369 15.9627 4.69994C16.0283 4.85619 16.0096 5.03431 15.9127 5.17494L13.9658 7.99994L15.9127 10.8218C16.0096 10.9624 16.0283 11.1406 15.9627 11.2968C15.8971 11.4531 15.7564 11.5656 15.5908 11.5968L12.2189 12.2187L11.5971 15.5906C11.5658 15.7562 11.4533 15.8968 11.2971 15.9624C11.1408 16.0281 10.9627 16.0093 10.8221 15.9124L8.00018 13.9656L5.17831 15.9124C5.03768 16.0093 4.85956 16.0281 4.70331 15.9624C4.54706 15.8968 4.43456 15.7562 4.40331 15.5906L3.78143 12.2187L0.409555 11.5968C0.24393 11.5656 0.103305 11.4531 0.0376804 11.2968C-0.0279445 11.1406 -0.00919455 10.9624 0.0876804 10.8218L2.03456 7.99994L0.0876804 5.17806C-0.00919455 5.03744 -0.0279445 4.85931 0.0376804 4.70306C0.103305 4.54681 0.24393 4.43431 0.409555 4.40306L3.78143 3.78119L4.40331 0.409311C4.43456 0.243686 4.54706 0.103061 4.70331 0.0374363C4.85956 -0.0281887 5.03768 -0.00943869 5.17831 0.0874363L8.00018 2.03431L10.8221 0.0874363C10.9627 -0.00943869 11.1408 -0.0281887 11.2971 0.0374363ZM5.00018 7.99994C5.00018 7.20429 5.31625 6.44123 5.87886 5.87862C6.44147 5.31601 7.20453 4.99994 8.00018 4.99994C8.79583 4.99994 9.55889 5.31601 10.1215 5.87862C10.6841 6.44123 11.0002 7.20429 11.0002 7.99994C11.0002 8.79559 10.6841 9.55865 10.1215 10.1213C9.55889 10.6839 8.79583 10.9999 8.00018 10.9999C7.20453 10.9999 6.44147 10.6839 5.87886 10.1213C5.31625 9.55865 5.00018 8.79559 5.00018 7.99994ZM12.0002 7.99994C12.0002 6.93907 11.5788 5.92165 10.8286 5.17151C10.0785 4.42136 9.06105 3.99994 8.00018 3.99994C6.93931 3.99994 5.9219 4.42136 5.17175 5.17151C4.42161 5.92165 4.00018 6.93907 4.00018 7.99994C4.00018 9.0608 4.42161 10.0782 5.17175 10.8284C5.9219 11.5785 6.93931 11.9999 8.00018 11.9999C9.06105 11.9999 10.0785 11.5785 10.8286 10.8284C11.5788 10.0782 12.0002 9.0608 12.0002 7.99994Z" fill="#677198"/>
</g>
<defs>
<clipPath id="clip0_1740_13886">
<rect width="16" height="16" fill="white"/>
</clipPath>
</defs>
</svg>
