<?xml version="1.0" standalone="no"?>
<!DOCTYPE svg PUBLIC "-//W3C//DTD SVG 20010904//EN"
 "http://www.w3.org/TR/2001/REC-SVG-20010904/DTD/svg10.dtd">
<svg version="1.0" xmlns="http://www.w3.org/2000/svg"
 width="1954.000000pt" height="1367.000000pt" viewBox="0 0 1954.000000 1367.000000"
 preserveAspectRatio="xMidYMid meet">

<g transform="translate(0.000000,1367.000000) scale(0.100000,-0.100000)"
fill="#000000" stroke="none">
<path d="M6080 12450 c-242 -7 -279 -13 -410 -61 -238 -88 -451 -305 -545
-553 -22 -57 -247 -862 -564 -2010 -33 -121 -67 -227 -76 -235 -14 -14 -86
-17 -588 -22 -468 -5 -588 -9 -662 -22 -288 -52 -544 -171 -763 -353 -281
-235 -471 -554 -554 -934 l-23 -105 0 -1745 0 -1745 23 -105 c101 -461 328
-796 711 -1051 73 -49 137 -89 142 -89 5 0 9 8 9 18 0 54 32 424 46 522 98
722 515 1451 1099 1921 595 479 1294 719 2030 696 673 -21 1246 -218 1768
-608 497 -372 847 -838 1061 -1412 127 -340 187 -677 189 -1072 2 -211 3 -220
23 -230 13 -6 155 -10 393 -10 416 1 390 -4 391 75 4 392 34 699 89 925 99
401 257 715 598 1187 l121 167 -117 118 c-85 87 -130 142 -168 207 -106 180
-153 349 -153 552 0 292 97 535 299 747 82 85 89 91 479 367 233 165 272 196
272 218 0 14 -117 421 -261 906 -143 485 -342 1156 -441 1491 -305 1036 -468
1577 -498 1653 -105 271 -326 472 -615 558 -85 25 -105 27 -390 35 -358 9
-2580 8 -2915 -1z m3130 -646 c29 -9 70 -27 91 -41 42 -28 100 -106 123 -168
11 -29 971 -3265 1141 -3847 l14 -48 -1324 0 c-1279 0 -1327 1 -1440 20 -510
87 -960 428 -1185 895 -57 119 -89 215 -130 390 -43 181 -91 277 -190 375 -53
53 -97 86 -150 113 -139 70 -140 70 -598 74 l-413 4 7 32 c27 122 550 1983
570 2027 27 60 82 123 129 148 80 42 40 41 1706 41 1427 1 1601 -1 1649 -15z"/>
<path d="M16305 8983 c-238 -20 -518 -94 -730 -192 -351 -163 -700 -468 -925
-811 -387 -590 -440 -1430 -130 -2075 130 -271 376 -579 615 -772 328 -265
712 -421 1139 -462 70 -7 509 -11 1213 -11 l1103 0 0 23 c0 42 -30 147 -56
199 -36 72 -112 142 -197 182 -40 18 -197 75 -349 125 -152 51 -281 98 -288
105 -12 15 -38 114 -582 2176 -209 795 -387 1458 -395 1473 -8 15 -25 32 -39
37 -23 9 -287 11 -379 3z"/>
<path d="M13411 8670 c-96 -26 -167 -65 -342 -192 -79 -58 -454 -324 -834
-593 -1314 -930 -1367 -968 -1429 -1036 -68 -73 -110 -155 -131 -255 -18 -87
-18 -141 0 -229 57 -272 303 -459 580 -442 106 7 191 34 272 86 56 36 1275
899 2013 1424 201 143 389 284 417 314 101 104 161 276 148 421 -21 246 -188
440 -431 502 -96 25 -167 25 -263 0z"/>
<path d="M5695 5789 c-296 -24 -568 -100 -840 -234 -1137 -559 -1607 -1949
-1045 -3090 342 -696 1004 -1170 1773 -1270 136 -17 450 -20 577 -5 342 42
707 176 985 362 498 334 844 826 985 1400 48 196 63 353 57 588 -11 424 -114
783 -329 1140 -227 378 -555 680 -953 875 -384 189 -792 268 -1210 234z m440
-1359 c347 -95 614 -370 701 -722 8 -35 17 -119 21 -188 4 -102 1 -143 -15
-220 -78 -373 -349 -662 -713 -762 -73 -20 -106 -23 -249 -22 -197 1 -270 17
-425 93 -273 135 -453 360 -527 658 -31 127 -31 323 1 448 96 377 404 665 791
739 14 2 95 3 180 1 122 -2 172 -7 235 -25z"/>
<path d="M12687 5790 c-563 -51 -1057 -279 -1447 -670 -357 -356 -578 -798
-657 -1310 -24 -159 -24 -491 0 -649 162 -1044 958 -1830 1991 -1966 147 -19
445 -19 586 -1 681 91 1274 461 1644 1026 204 310 328 662 367 1039 17 161 7
453 -21 611 -88 501 -325 946 -690 1293 -354 336 -806 551 -1301 616 -113 15
-361 21 -472 11z m375 -1344 c201 -40 369 -135 524 -298 225 -237 313 -575
234 -896 -85 -346 -352 -619 -701 -714 -73 -20 -106 -23 -254 -22 -156 0 -177
2 -260 28 -122 37 -218 84 -311 154 -475 353 -538 1027 -135 1454 140 149 316
248 522 293 85 18 289 19 381 1z"/>
</g>
</svg>
