<svg width="19" height="16" viewBox="0 0 19 16" fill="none" xmlns="http://www.w3.org/2000/svg">
<path d="M0 15.8661V2.07532C0 0.937243 0.895627 0 1.98317 0H17.0168C18.1044 0 19 0.937243 19 2.07532V15.8661H17.6566V2.07532C17.6566 1.67364 17.3367 1.40586 17.0168 1.40586H1.98317C1.59933 1.40586 1.34344 1.74059 1.34344 2.07532V15.8661H0ZM16.0572 13.3222V15.5314C16.0572 15.7992 15.8653 16 15.6094 16H14.202C13.9461 16 13.7542 15.7992 13.7542 15.5314V15.3305C12.9865 15.3975 11.771 15.4644 10.1077 15.4644C9.91583 15.4644 9.78788 15.4644 9.59596 15.4644C9.59596 15.4644 9.59597 15.4644 9.53199 15.4644C9.53199 15.4644 9.53199 15.4644 9.46802 15.4644C7.74074 15.4644 6.52526 15.4644 5.62963 15.3305C5.50169 15.3305 5.43771 15.3305 5.30977 15.3305V15.5314C5.30977 15.7992 5.11785 16 4.86196 16H3.45455C3.19866 16 3.00673 15.7992 3.00673 15.5314V13.3222C3.00673 13.3222 3.00673 13.2552 3.00673 13.1883C2.87879 11.7824 3.00674 10.8452 3.13469 10.7113C3.13469 10.7113 3.19866 10.5774 3.26263 10.5105V10.4435C3.39058 9.9749 3.83839 9.90796 4.03031 9.77407V9.57324C3.90236 9.57324 3.90236 9.57324 3.83838 9.57324C3.64646 9.57324 3.51852 9.57324 3.45455 9.57324C3.13469 9.57324 3.07071 9.2385 3.07071 9.10461C3.13468 8.56904 3.77441 8.5021 3.83838 8.5021C3.96633 8.5021 4.09428 8.50209 4.15825 8.63598C4.35017 8.76987 4.35017 9.10461 4.35017 9.10461C4.35017 9.17155 4.35017 9.23849 4.35017 9.30544C4.79798 8.3682 5.18182 7.69875 5.18182 7.69875C5.56566 6.8954 6.07745 6.82846 6.14142 6.82846C7.29293 6.62762 8.76432 6.62761 9.21213 6.62761C9.21213 6.62761 9.21212 6.62761 9.2761 6.62761C9.2761 6.62761 9.2761 6.62761 9.34007 6.62761C9.78788 6.62761 11.1953 6.62762 12.4108 6.82846C12.4108 6.82846 12.9865 6.82845 13.3704 7.69875C13.3704 7.69875 13.7542 8.3682 14.202 9.30544C14.202 9.30544 14.202 9.17155 14.202 9.10461C14.202 9.10461 14.202 8.76987 14.3939 8.63598C14.4579 8.56904 14.5859 8.5021 14.7138 8.5021C14.7778 8.5021 15.4175 8.5021 15.4815 9.10461C15.4815 9.30545 15.3535 9.50629 15.0976 9.57324C15.0976 9.57324 14.9057 9.57324 14.7138 9.57324C14.5219 9.57324 14.6498 9.57324 14.5859 9.57324V9.77407C14.7138 9.90796 15.0977 9.9749 15.2896 10.4435C15.2896 10.4435 15.2896 10.4435 15.2896 10.5105C15.2896 10.5774 15.3535 10.6444 15.4175 10.7113C15.5455 10.7782 15.6734 11.2469 15.5455 13.1883C15.5455 13.1883 15.5455 13.1883 15.5455 13.3222H16.0572ZM4.22223 13.3222C4.22223 13.1213 4.09428 12.9874 3.90236 12.9874C3.71044 12.9874 3.5825 13.1213 3.5825 13.3222C3.5825 13.523 3.71044 13.6569 3.90236 13.6569C4.09428 13.6569 4.22223 13.523 4.22223 13.3222ZM5.50169 11.7824C5.50169 11.3138 5.18182 10.9791 4.73401 10.9791C4.2862 10.9791 3.96633 11.3138 3.96633 11.7824C3.96633 12.2511 4.2862 12.5858 4.73401 12.5858C5.18182 12.5858 5.50169 12.2511 5.50169 11.7824ZM9.46802 9.37239C9.46802 9.37239 12.2828 9.3724 13.8182 9.50629C13.5623 8.70294 13.0505 7.36403 12.6667 7.23014C12.6667 7.23014 11.7071 7.02929 9.40404 7.02929C7.10101 7.02929 6.14142 7.23014 6.14142 7.23014C5.75758 7.29709 5.24579 8.63599 4.9899 9.50629C4.9899 9.50629 4.98991 9.50629 5.05388 9.50629C6.58923 9.3724 9.34007 9.37239 9.40404 9.37239H9.46802ZM12.7306 12.0502C12.7306 12.0502 12.6027 11.8494 12.0909 11.7824C12.0909 11.7824 10.7475 11.5816 9.46802 11.5816C8.18855 11.5816 6.84512 11.7824 6.84512 11.7824C6.33333 11.7824 6.20539 12.0502 6.20539 12.0502C6.58922 12.5188 6.6532 13.59 6.6532 13.6569C6.84512 13.7908 8.76431 13.7908 9.46802 13.7908C10.1717 13.7908 12.0909 13.7908 12.2828 13.6569C12.2828 13.6569 12.2828 12.5188 12.7306 12.0502ZM14.266 12.5858C14.7138 12.5858 15.0337 12.2511 15.0337 11.7824C15.0337 11.3138 14.7138 10.9791 14.266 10.9791C13.8182 10.9791 13.4983 11.3138 13.4983 11.7824C13.4983 12.2511 13.8182 12.5858 14.266 12.5858ZM15.3535 13.3222C15.3535 13.1213 15.2256 12.9874 15.0337 12.9874C14.8418 12.9874 14.7138 13.1213 14.7138 13.3222C14.7138 13.523 14.8418 13.6569 15.0337 13.6569C15.2256 13.6569 15.3535 13.523 15.3535 13.3222ZM17.2088 1.80754H1.59933V2.9456H17.2088V1.80754ZM17.2727 3.34728H1.6633V4.48536H17.2727V3.34728Z" fill="#FB3640"/>
</svg>
