<svg width="21" height="24" viewBox="0 0 21 24" fill="none" xmlns="http://www.w3.org/2000/svg">
<path d="M11.0005 0C11.8302 0 12.5005 0.670312 12.5005 1.5V2.91094L13.2036 2.20781C13.6442 1.76719 14.3567 1.76719 14.7927 2.20781C15.2286 2.64844 15.2333 3.36094 14.7927 3.79688L12.4958 6.09375V9.38906L15.3739 7.71094L16.2036 4.6125C16.363 4.0125 16.9817 3.65625 17.5817 3.81563C18.1817 3.975 18.538 4.59375 18.3786 5.19375L18.1349 6.09844L19.2411 5.45156C19.9583 5.03438 20.877 5.27813 21.2942 5.99063C21.7114 6.70313 21.4724 7.62656 20.7552 8.04375L19.5692 8.7375L20.5864 9.00937C21.1864 9.16875 21.5427 9.7875 21.3833 10.3875C21.2239 10.9875 20.6052 11.3438 20.0052 11.1844L16.8317 10.3359L13.977 12L16.8317 13.6641L20.0052 12.8156C20.6052 12.6562 21.2239 13.0125 21.3833 13.6125C21.5427 14.2125 21.1864 14.8312 20.5864 14.9906L19.5692 15.2625L20.7552 15.9562C21.4724 16.3734 21.7114 17.2922 21.2942 18.0094C20.877 18.7266 19.9583 18.9656 19.2411 18.5484L18.1349 17.9016L18.3786 18.8063C18.538 19.4063 18.1817 20.025 17.5817 20.1844C16.9817 20.3438 16.363 19.9875 16.2036 19.3875L15.3739 16.2891L12.5005 14.6109V17.9062L14.7974 20.2031C15.238 20.6437 15.238 21.3562 14.7974 21.7922C14.3567 22.2281 13.6442 22.2328 13.2083 21.7922L12.5052 21.0891V22.5C12.5052 23.3297 11.8349 24 11.0052 24C10.1755 24 9.50517 23.3297 9.50517 22.5V21.0891L8.80205 21.7922C8.36142 22.2328 7.64892 22.2328 7.21298 21.7922C6.77704 21.3516 6.77236 20.6391 7.21298 20.2031L9.50986 17.9062V14.6109L6.63173 16.2891L5.80205 19.3875C5.64267 19.9875 5.02392 20.3438 4.42392 20.1844C3.82392 20.025 3.46767 19.4063 3.62705 18.8063L3.8708 17.9016L2.75517 18.5438C2.03798 18.9609 1.11923 18.7172 0.702045 18.0047C0.284858 17.2922 0.528608 16.3687 1.24111 15.9516L2.42705 15.2578L1.40986 14.9859C0.809858 14.8266 0.453608 14.2078 0.612983 13.6078C0.772358 13.0078 1.39111 12.6516 1.99111 12.8109L5.16455 13.6594L8.02392 12L5.16923 10.3359L1.9958 11.1844C1.3958 11.3438 0.777045 10.9875 0.61767 10.3875C0.458295 9.7875 0.814545 9.16875 1.41455 9.00937L2.43173 8.7375L1.2458 8.04375C0.528608 7.62656 0.289545 6.70781 0.706733 5.99531C1.12392 5.28281 2.04267 5.03906 2.75986 5.45625L3.86611 6.10312L3.62236 5.19844C3.46298 4.59844 3.81923 3.97969 4.41923 3.82031C5.01923 3.66094 5.63798 4.01719 5.79736 4.61719L6.62704 7.71563L9.50048 9.38906V6.08906L7.20361 3.79688C6.76298 3.35625 6.76298 2.64375 7.20361 2.20781C7.64423 1.77187 8.35673 1.76719 8.79267 2.20781L9.49579 2.91094V1.5C9.49579 0.670312 10.1661 0 10.9958 0H11.0005Z" fill="#677198"/>
</svg>
