<svg width="36" height="48" viewBox="0 0 36 48" fill="none" xmlns="http://www.w3.org/2000/svg">
<g id="hourglass" clip-path="url(#clip0_2242_31506)">
<path id="Primary" d="M2.25 0C1.00312 0 0 1.00312 0 2.25C0 3.49688 1.00312 4.5 2.25 4.5H3V6.28125C3 10.0594 4.5 13.6875 7.17188 16.3594L14.8219 24L7.17188 31.6406C4.5 34.3125 3 37.9406 3 41.7188V43.5H2.25C1.00312 43.5 0 44.5031 0 45.75C0 46.9969 1.00312 48 2.25 48H33.75C34.9969 48 36 46.9969 36 45.75C36 44.5031 34.9969 43.5 33.75 43.5H33V41.7188C33 37.9406 31.5 34.3125 28.8281 31.6406L21.1781 24L28.8187 16.3594C31.5 13.6875 33 10.0594 33 6.28125V4.5H33.75C34.9969 4.5 36 3.49688 36 2.25C36 1.00312 34.9969 0 33.75 0H2.25ZM18 27.1781L25.6406 34.8187C27.4688 36.6562 28.5 39.1312 28.5 41.7188V43.5H7.5V41.7188C7.5 39.1312 8.53125 36.6562 10.3594 34.8281L18 27.1781ZM18 20.8125L10.3594 13.1719C8.53125 11.3438 7.5 8.86875 7.5 6.28125V4.5H28.5V6.28125C28.5 8.86875 27.4688 11.3438 25.6406 13.1719L18 20.8219V20.8125Z" fill="#F2F2F4"/>
</g>
<defs>
<clipPath id="clip0_2242_31506">
<rect width="36" height="48" fill="white"/>
</clipPath>
</defs>
</svg>
