<?xml version="1.0" encoding="utf-8"?>
<!-- Generator: Adobe Illustrator 16.0.0, SVG Export Plug-In . SVG Version: 6.00 Build 0)  -->
<!DOCTYPE svg PUBLIC "-//W3C//DTD SVG 1.1//EN" "http://www.w3.org/Graphics/SVG/1.1/DTD/svg11.dtd">
<svg version="1.1" id="Calque_1" xmlns="http://www.w3.org/2000/svg" xmlns:xlink="http://www.w3.org/1999/xlink" x="0px" y="0px"
	 width="26px" height="14.992px" viewBox="0 0 26 14.992" enable-background="new 0 0 26 14.992" xml:space="preserve">
<path fill="#878787" d="M26,9.63V7.244C26,6.495,24.958,6,24.209,6h-3.443l-4.841-5.707C15.723,0.051,15.424,0,15.109,0H3.735
	C3.148,0,3,0.186,3,0.773v3.822L2.754,4.4C2.595,4.207,2.19,4,1.92,4H0.65C0.171,4,0,4.555,0,5.034v5.445C0,10.959,0.171,11,0.65,11
	h0.346c0.176,1,0.687,1,1.291,1h0.368c0.293,2,1.775,2.992,3.558,2.992S9.477,14,9.771,12h6.344c0.293,2,1.775,2.991,3.559,2.991
	c1.782,0,3.264-0.991,3.559-2.991h2.051C25.756,12,26,11.906,26,11.433v-0.994V9.63z M17.738,6H11V2h3.612L17.738,6z M5,2h4v4H5V2z
	 M6.213,13.298c-0.899,0-1.63-0.73-1.63-1.629s0.731-1.63,1.63-1.63c0.898,0,1.629,0.731,1.629,1.63S7.111,13.298,6.213,13.298
	 M19.674,13.298c-0.898,0-1.629-0.73-1.629-1.629s0.73-1.63,1.629-1.63s1.629,0.731,1.629,1.63S20.572,13.298,19.674,13.298"/>
</svg>
