<svg id="Layer_1" data-name="Layer 1" xmlns="http://www.w3.org/2000/svg" viewBox="0 0 22.44 11.82"><defs><style>.cls-1{fill:#222c60;fillRule:evenodd;}</style></defs><title>moto</title><path class="cls-1" d="M290.33,419.53a3.42,3.42,0,0,1,3.36,2.75,3.43,3.43,0,0,1-2.05,3.83,3.42,3.42,0,0,1-3.72-5.58,3.38,3.38,0,0,1,2.41-1Zm1.25,2.17a1.77,1.77,0,0,0-1.07-.51,1.77,1.77,0,0,0-1.86,1.24,1.74,1.74,0,0,0,.06,1.19,1.85,1.85,0,0,0,.8.88,1.75,1.75,0,0,0,1.17.17,1.69,1.69,0,0,0,1-.61,1.74,1.74,0,0,0,.4-1.11,1.61,1.61,0,0,0-.13-.68A1.84,1.84,0,0,0,291.58,421.7Z" transform="translate(-286.26 -414.55)"/><path class="cls-1" d="M290.34,422.38c.11.34.21.68.32,1l2.4-.5,1.41,1.55h6.95c.11-1.12.23-2.24.35-3.37.62-1.93,2.25-2.53,3.92-2.63a7.46,7.46,0,0,0-2.11-3.9l-1.67.41a12.76,12.76,0,0,1,.68,2.36l0,.07,0,.06c-.67,1.55-4.41,1.74-5.91,1.81h-.25l-.06-.13-.45-.91-3.78-1.08-.23-.7a12.49,12.49,0,0,0-4.08-.5,1.1,1.1,0,0,0,0,.51,1,1,0,0,0,.24.46,23,23,0,0,1,6.14,3.33l-3.83,2.11Zm14.11-6.08a6.28,6.28,0,0,1,.86,1.9l-.38,0-1.15-1.68.67-.25Zm-2.32,1v.08c-.63,1.22-4,1.41-5.46,1.48l-.38-.77c.8-2.45,4.43-1.36,5.83-.79Z" transform="translate(-286.26 -414.55)"/><path class="cls-1" d="M291,417.93l-3.45,0-1.08,1.76-.16-.1.91-1.8v-.76l1.45-.29,1.58.55.77.34Z" transform="translate(-286.26 -414.55)"/><path class="cls-1" d="M307.62,420.46l.07.07a3.42,3.42,0,0,1,.86,1.42,3.45,3.45,0,0,1-.63,3.17,3.6,3.6,0,0,1-1.33,1,3.45,3.45,0,0,1-1.65.24,3.34,3.34,0,0,1-1.56-.56,3.4,3.4,0,0,1-1.12-1.23,3.49,3.49,0,0,1-.4-1.61,3.69,3.69,0,0,1,0-.58l.18-.12c.4-.27.84-.48,1.27-.72l.35.63a1.77,1.77,0,0,0-.17,1,1.69,1.69,0,0,0,.42.93,1.76,1.76,0,0,0,3.08-1,1.84,1.84,0,0,0-.23-1,1.73,1.73,0,0,0-.75-.69l0-.33Z" transform="translate(-286.26 -414.55)"/><path class="cls-1" d="M301.51,420.64c1.83-1.4,4.5-2.06,6.17-.67l-2,.75c0,.78-.08,1.57-.11,2.35l-.68.27-1.34-2.43c-.48.32-1.86,1-2.34,1.34C301.28,421.71,301.39,421.17,301.51,420.64Z" transform="translate(-286.26 -414.55)"/></svg>