<svg width="78" height="96" viewBox="0 0 78 96" fill="none" xmlns="http://www.w3.org/2000/svg">
<g id="noun-decentralized-1960195 1">
<g id="Your Icons">
<path id="Vector" d="M44.0237 31.7344C43.0411 31.7344 42.0806 32.0257 41.2636 32.5716C40.4466 33.1175 39.8098 33.8934 39.4338 34.8012C39.0578 35.709 38.9594 36.7079 39.1511 37.6716C39.3428 38.6353 39.816 39.5205 40.5108 40.2153C41.2055 40.9101 42.0908 41.3832 43.0545 41.5749C44.0182 41.7666 45.0171 41.6682 45.9248 41.2922C46.8326 40.9162 47.6085 40.2794 48.1544 39.4624C48.7003 38.6455 48.9917 37.685 48.9917 36.7024C48.9896 35.3854 48.4655 34.123 47.5342 33.1918C46.603 32.2606 45.3406 31.7365 44.0237 31.7344ZM44.0237 40.0704C43.3575 40.0704 42.7064 39.8728 42.1525 39.5028C41.5986 39.1327 41.167 38.6067 40.912 37.9913C40.6571 37.3758 40.5904 36.6986 40.7204 36.0453C40.8503 35.392 41.1711 34.7919 41.6421 34.3208C42.1132 33.8498 42.7133 33.529 43.3666 33.3991C44.0199 33.2691 44.6971 33.3358 45.3125 33.5907C45.928 33.8457 46.454 34.2774 46.8241 34.8312C47.1941 35.3851 47.3917 36.0362 47.3917 36.7024C47.3896 37.595 47.034 38.4504 46.4029 39.0816C45.7717 39.7127 44.9163 40.0683 44.0237 40.0704Z" fill="#F2F2F4"/>
<path id="Vector_2" d="M60.9281 52.6205L50.6721 42.2205C51.9919 40.6478 52.7074 38.6558 52.6898 36.6028C52.6722 34.5498 51.9227 32.5704 50.5761 31.0205L61.0561 20.5245C61.614 20.8612 62.2525 21.0409 62.9041 21.0445C63.616 21.0423 64.3112 20.8291 64.9019 20.4319C65.4926 20.0347 65.9523 19.4713 66.2228 18.8128C66.4934 18.1544 66.5627 17.4306 66.4219 16.7328C66.2812 16.035 65.9367 15.3946 65.4321 14.8925C65.0995 14.5591 64.7042 14.2948 64.2689 14.115C63.8336 13.9351 63.3671 13.8432 62.8961 13.8445C62.4231 13.8423 61.9545 13.9345 61.5176 14.1159C61.0807 14.2972 60.6845 14.564 60.3521 14.9005C59.7683 15.4868 59.4042 16.2563 59.3211 17.0795C59.2381 17.9027 59.4411 18.7294 59.8961 19.4205L49.4001 29.9245C47.8528 28.6838 45.9251 28.0144 43.9419 28.029C41.9587 28.0435 40.041 28.7412 38.5121 30.0045L18.2001 9.66851C18.5441 9.11381 18.7244 8.4732 18.7201 7.82051C18.7192 7.34582 18.6232 6.87612 18.4377 6.43916C18.2522 6.00221 17.981 5.60687 17.6401 5.27651C17.2209 4.85936 16.7053 4.55193 16.139 4.38141C15.5727 4.21088 14.973 4.1825 14.3932 4.29879C13.8133 4.41507 13.271 4.67244 12.8142 5.04813C12.3574 5.42382 12.0002 5.90627 11.7742 6.45281C11.5482 6.99936 11.4603 7.59317 11.5183 8.18175C11.5764 8.77033 11.7785 9.33555 12.1069 9.82743C12.4353 10.3193 12.8799 10.7227 13.4012 11.002C13.9226 11.2812 14.5047 11.4277 15.0961 11.4285C15.7965 11.4238 16.4803 11.2153 17.0641 10.8285L37.4001 31.1325C36.2818 32.4605 35.5879 34.0937 35.4081 35.8205H27.5681C27.4213 35.1437 27.0857 34.5224 26.6001 34.0285C25.9243 33.3561 25.0094 32.9792 24.0561 32.9805C23.102 32.9847 22.1884 33.3667 21.5152 34.0429C20.842 34.7191 20.4641 35.6344 20.4641 36.5885C20.4683 37.5413 20.8492 38.4537 21.5237 39.1266C22.1981 39.7995 23.1114 40.1784 24.0641 40.1805C25.0061 40.1994 25.9174 39.8458 26.6001 39.1965C27.0666 38.7282 27.3911 38.1374 27.5361 37.4925H35.3921C35.5169 38.9454 36.0051 40.3436 36.8117 41.5584C37.6184 42.7732 38.7175 43.7657 40.0081 44.4445L30.2001 65.4605C29.5308 65.3037 28.8302 65.3454 28.1841 65.5805C27.7491 65.7411 27.3507 65.9875 27.0127 66.3049C26.6746 66.6223 26.4038 67.0044 26.2161 67.4285C25.9304 68.0857 25.8433 68.8122 25.9655 69.5183C26.0876 70.2245 26.4138 70.8794 26.9036 71.4025C27.3935 71.9255 28.0257 72.2938 28.7224 72.4619C29.419 72.63 30.1496 72.5906 30.8241 72.3485C31.2592 72.1879 31.6575 71.9416 31.9956 71.6241C32.3336 71.3067 32.6045 70.9246 32.7921 70.5005C33.1195 69.7497 33.1847 68.9106 32.9771 68.1183C32.7696 67.3259 32.3015 66.6265 31.6481 66.1325L41.4881 44.9805C42.8582 45.4032 44.312 45.4783 45.7184 45.199C47.1248 44.9197 48.4395 44.2947 49.5441 43.3805L59.8001 53.7725C59.4594 54.3324 59.2743 54.9732 59.2641 55.6285C59.2641 56.5827 59.642 57.4979 60.3152 58.1741C60.9884 58.8503 61.902 59.2323 62.8561 59.2365C63.3278 59.2395 63.7954 59.1492 64.232 58.9707C64.6686 58.7922 65.0656 58.5291 65.4001 58.1965C66.0672 57.5773 66.475 56.7285 66.5414 55.8208C66.6079 54.9131 66.3281 54.0139 65.7583 53.3042C65.1885 52.5944 64.371 52.1269 63.4704 51.9956C62.5698 51.8643 61.6528 52.079 60.9041 52.5965L60.9281 52.6205ZM61.4801 16.0445C61.8564 15.6704 62.3655 15.4604 62.8961 15.4605C63.1577 15.4602 63.4168 15.5117 63.6585 15.6119C63.9001 15.7121 64.1195 15.8591 64.3041 16.0445C64.6785 16.418 64.8911 16.9237 64.8961 17.4525C64.8961 17.9837 64.6857 18.4932 64.3108 18.8696C63.936 19.2459 63.4273 19.4584 62.8961 19.4605C62.5011 19.459 62.1152 19.341 61.7869 19.1213C61.4586 18.9015 61.2024 18.5898 61.0503 18.2251C60.8983 17.8605 60.8573 17.4591 60.9323 17.0712C61.0073 16.6833 61.1951 16.3262 61.4721 16.0445H61.4801ZM16.5121 9.23651C16.3285 9.42368 16.1094 9.57242 15.8676 9.67405C15.6259 9.77569 15.3664 9.8282 15.1041 9.82851C14.8425 9.8288 14.5834 9.77736 14.3418 9.67713C14.1002 9.5769 13.8807 9.42988 13.6961 9.24451C13.4624 9.01281 13.2894 8.72701 13.1926 8.41245C13.0958 8.09789 13.0781 7.7643 13.1411 7.44127C13.2041 7.11823 13.3459 6.81574 13.5538 6.56061C13.7617 6.30549 14.0294 6.10562 14.3331 5.97873C14.6367 5.85184 14.967 5.80186 15.2947 5.83321C15.6223 5.86456 15.9371 5.97628 16.2112 6.15846C16.4853 6.34064 16.7102 6.58765 16.866 6.87758C17.0217 7.16751 17.1035 7.49139 17.1041 7.82051C17.1077 8.08449 17.0569 8.34639 16.9551 8.58996C16.8533 8.83353 16.7025 9.0536 16.5121 9.23651ZM25.4721 38.0365C25.1917 38.3184 24.834 38.5108 24.4442 38.5891C24.0543 38.6675 23.65 38.6284 23.2825 38.4767C22.9149 38.325 22.6007 38.0677 22.3796 37.7372C22.1584 37.4068 22.0404 37.0181 22.0404 36.6205C22.0404 36.2229 22.1584 35.8342 22.3796 35.5038C22.6007 35.1733 22.9149 34.916 23.2825 34.7643C23.65 34.6127 24.0543 34.5735 24.4442 34.6519C24.834 34.7303 25.1917 34.9226 25.4721 35.2045C25.8439 35.5804 26.0524 36.0878 26.0524 36.6165C26.0524 37.1452 25.8439 37.6526 25.4721 38.0285V38.0365ZM31.3681 69.8525C31.2667 70.0833 31.1194 70.2909 30.935 70.4628C30.7507 70.6348 30.5333 70.7674 30.2961 70.8525C30.0454 70.9443 29.7787 70.9845 29.512 70.9708C29.2453 70.957 28.9841 70.8896 28.7441 70.7725C28.2558 70.5471 27.8743 70.1406 27.6802 69.639C27.4861 69.1374 27.4947 68.5799 27.7041 68.0845C27.8072 67.8558 27.9552 67.6501 28.1394 67.4797C28.3235 67.3092 28.5401 67.1776 28.7761 67.0925C28.9912 67.0127 29.2188 66.9721 29.4481 66.9725C29.7528 66.9718 30.0537 67.0402 30.3281 67.1725C30.8139 67.3963 31.1938 67.8 31.3878 68.2985C31.5818 68.7969 31.5748 69.3512 31.3681 69.8445V69.8525ZM44.0241 43.7725C42.6251 43.7725 41.2575 43.3575 40.0943 42.5801C38.9311 41.8027 38.0247 40.6977 37.4897 39.405C36.9547 38.1123 36.8151 36.6899 37.0886 35.3179C37.3621 33.9458 38.0365 32.6857 39.0263 31.697C40.0161 30.7083 41.277 30.0354 42.6494 29.7634C44.0217 29.4915 45.4439 29.6326 46.736 30.1691C48.0281 30.7056 49.1321 31.6133 49.9082 32.7773C50.6843 33.9414 51.0977 35.3095 51.0961 36.7085C51.0919 38.5813 50.3449 40.376 49.0191 41.6988C47.6933 43.0216 45.897 43.7645 44.0241 43.7645V43.7725ZM64.2961 57.0605C64.1114 57.2452 63.8918 57.3912 63.65 57.4901C63.4083 57.589 63.1493 57.6387 62.8881 57.6365C62.6258 57.6371 62.3659 57.585 62.1241 57.4833C61.8822 57.3816 61.6632 57.2324 61.4801 57.0445C61.2942 56.8587 61.1468 56.6379 61.0466 56.3949C60.9464 56.1519 60.8952 55.8914 60.8961 55.6285C60.902 55.0999 61.1145 54.5945 61.4881 54.2205C61.6735 54.0304 61.8948 53.8792 62.1392 53.7755C62.3836 53.6719 62.6462 53.6179 62.9117 53.6168C63.1772 53.6157 63.4402 53.6674 63.6855 53.769C63.9308 53.8706 64.1533 54.0201 64.3403 54.2086C64.5272 54.3971 64.6747 54.6209 64.7742 54.8671C64.8737 55.1132 64.9233 55.3767 64.9199 55.6421C64.9165 55.9076 64.8604 56.1697 64.7546 56.4132C64.6489 56.6568 64.4958 56.8768 64.3041 57.0605H64.2961Z" fill="#F2F2F4" stroke="#F2F2F4" stroke-width="0.8"/>
</g>
</g>
</svg>
