<svg id="Layer_1" data-name="Layer 1" xmlns="http://www.w3.org/2000/svg" viewBox="0 0 31 15"><defs><style>.cls-1{fill:#222c60;fillRule:evenodd;}</style></defs><title>poids-lourd</title><path class="cls-1" d="M312.49,420.94l.51.71v2.49l-.64.77h-1.92v.35H310a3,3,0,0,0-3.66-3.24v-1.08h-.94v-5.67l.4-.78h5.79a13.3,13.3,0,0,1,1.32,4.13H306.4v.22h6.52l0,1.38-.34.72Zm-5.29-5.51v2.31l4.6.62a7.86,7.86,0,0,0-.69-2.69v1a.17.17,0,0,1-.16.16h-.59a.17.17,0,0,1-.16-.16v-1.27Zm-19.47-1.54h.44v6.84h-.44Zm-3,0h.43v6.84h-.43Zm6.09,0h.43v6.84h-.43Zm3.05,0h.43v6.84h-.43Zm3.05,0h.43v6.84h-.43Zm3.05,0h.43v6.84h-.43ZM310.76,424v.29h1.39V424Zm-.36-1.08v.29h1.75v-.29Zm-.65-1.05v.29h2.4v-.29Zm-1.07-.94h0Zm-5.3-2.81v4.69h-7.82a4.32,4.32,0,0,0-.19-.45H303V413H282v9.4h2a2.86,2.86,0,0,0-.46.46h-1.38v2.06h.66c0,.17,0,.36,0,.55h.47a2.92,2.92,0,0,1,1.58-3.07h2.53a3.06,3.06,0,0,1,1.66,3.07h.64a2.92,2.92,0,0,1,1.59-3.07h2.49a2.83,2.83,0,0,1,1.3,1.17,3,3,0,0,1,.4,1.73h.41v-.39h7.6a5.14,5.14,0,0,0,0,.56h.49c-.06-1.67.52-2.88,2.07-3.39v-.46a4.4,4.4,0,0,0-.85.33v-3.78ZM289,422.38h1.44a2.86,2.86,0,0,0-1,1.53,4.78,4.78,0,0,0-.43-1.53Zm-2.84.19a2.67,2.67,0,0,1,1.68.61,2.75,2.75,0,0,1,.65,3.36,2.68,2.68,0,0,1-1.31,1.22,2.6,2.6,0,0,1-1.78.09,2.63,2.63,0,0,1-1.42-1.08,2.75,2.75,0,0,1,.33-3.41,2.63,2.63,0,0,1,1.85-.79Zm-.84,2.57a.11.11,0,0,1,.08,0,.1.1,0,0,1,0,.06.11.11,0,0,1,0,.08.07.07,0,0,1,0,.06.1.1,0,0,1-.07,0,.09.09,0,0,1-.07,0,.09.09,0,0,1-.06,0,.13.13,0,0,1,0-.08.15.15,0,0,1,0-.09A.12.12,0,0,1,285.27,425.14Zm.16.64a.18.18,0,0,0,0,.1.15.15,0,0,0,0,.09l.07,0h.07a.15.15,0,0,0,.06-.05.19.19,0,0,0,0-.07.24.24,0,0,0,0-.08s0,0-.06,0a.06.06,0,0,0-.07,0A.15.15,0,0,0,285.43,425.78Zm.56.35a.08.08,0,0,0,0,.07s0,0,.06.05a.09.09,0,0,0,.07,0,.1.1,0,0,0,.07,0s0,0,0-.06a.19.19,0,0,0,0-.08.1.1,0,0,0-.05-.06.1.1,0,0,0-.07,0,.11.11,0,0,0-.13.13Zm.63-.16.06,0h.08l.06-.05a.19.19,0,0,0,0-.08.19.19,0,0,0,0-.07l-.06-.05h-.08l-.06,0,0,0a.11.11,0,0,0,0,.05.13.13,0,0,0,0,.06Zm.33-.57-.07,0-.05-.06a.11.11,0,0,1,0-.08.09.09,0,0,1,0-.07l.07,0H287a.1.1,0,0,1,.06.05.15.15,0,0,1,0,.13l0,0-.05,0Zm-.15-.65a.12.12,0,0,1-.09,0,.1.1,0,0,1-.09,0,.11.11,0,0,1,0-.09.15.15,0,0,1,0-.09.1.1,0,0,1,.09,0l.09,0a.18.18,0,0,1,0,.1A.15.15,0,0,1,286.8,424.75Zm-.56-.34a.19.19,0,0,1,0,.07.1.1,0,0,1-.06,0h-.07l-.07,0a.09.09,0,0,1,0-.07.09.09,0,0,1,0-.07.1.1,0,0,1,.05-.06.11.11,0,0,1,.07,0,.13.13,0,0,1,.09,0A.13.13,0,0,1,286.24,424.41Zm-.63.16,0,0a.09.09,0,0,1,0,.05.07.07,0,0,1,0,0,.05.05,0,0,1,0,.05l0,0h-.1l0,0a.13.13,0,0,1,0-.1.18.18,0,0,1,0-.09.15.15,0,0,1,.09,0A.11.11,0,0,1,285.61,424.57Zm1.27-.09a1.1,1.1,0,0,1,.31.68,1.08,1.08,0,0,1-.17.72,1.1,1.1,0,0,1-.59.45,1.08,1.08,0,0,1-.73,0,1.09,1.09,0,0,1-.54-.5,1.19,1.19,0,0,1-.11-.74,1.14,1.14,0,0,1,.38-.64,1.08,1.08,0,0,1,.69-.25,1.15,1.15,0,0,1,.41.08A1.21,1.21,0,0,1,286.88,424.48Zm5.68-1.91a2.58,2.58,0,0,1,1.67.62,2.7,2.7,0,0,1,.92,1.55,2.87,2.87,0,0,1-.26,1.8,2.66,2.66,0,0,1-1.32,1.22,2.57,2.57,0,0,1-1.77.09,2.63,2.63,0,0,1-1.42-1.08,2.77,2.77,0,0,1,.32-3.41,2.61,2.61,0,0,1,.86-.58A2.49,2.49,0,0,1,292.56,422.57Zm-.84,2.57a.12.12,0,0,1,.08,0,.1.1,0,0,1,.05.06.11.11,0,0,1,0,.08.07.07,0,0,1,0,.06.1.1,0,0,1-.07,0,.09.09,0,0,1-.07,0,.09.09,0,0,1-.06,0,.13.13,0,0,1,0-.08.15.15,0,0,1,0-.09A.12.12,0,0,1,291.72,425.14Zm.16.64a.18.18,0,0,0,0,.1.15.15,0,0,0,0,.09l.07,0H292a.1.1,0,0,0,.06-.05.19.19,0,0,0,0-.07.24.24,0,0,0,0-.08.09.09,0,0,0-.06,0,.06.06,0,0,0-.07,0A.15.15,0,0,0,291.88,425.78Zm.56.35a.08.08,0,0,0,0,.07s0,0,.06.05a.09.09,0,0,0,.07,0,.1.1,0,0,0,.07,0,.07.07,0,0,0,0-.06.11.11,0,0,0,0-.08.1.1,0,0,0-.05-.06.1.1,0,0,0-.07,0,.11.11,0,0,0-.13.13Zm.63-.16.06,0h.08l.06-.05a.19.19,0,0,0,0-.08.19.19,0,0,0,0-.07l-.06-.05h-.08l-.06,0a.12.12,0,0,0,0,.09A.13.13,0,0,0,293.07,426Zm.33-.57-.07,0-.05-.06a.11.11,0,0,1,0-.08.09.09,0,0,1,0-.07l.07,0h.07a.1.1,0,0,1,.06.05.11.11,0,0,1,0,.08.16.16,0,0,1,0,.09A.18.18,0,0,1,293.4,425.4Zm-.15-.65a.12.12,0,0,1-.09,0,.13.13,0,0,1-.1,0,.15.15,0,0,1,0-.07.09.09,0,0,1,0-.07.09.09,0,0,1,0-.06.12.12,0,0,1,.08,0,.1.1,0,0,1,.07,0,.1.1,0,0,1,0,.06.09.09,0,0,1,0,.07A.09.09,0,0,1,293.25,424.75Zm-.56-.34a.19.19,0,0,1,0,.07.15.15,0,0,1-.06,0h-.07l-.07,0a.09.09,0,0,1,0-.07.09.09,0,0,1,0-.07.1.1,0,0,1,.05-.06.11.11,0,0,1,.07,0,.13.13,0,0,1,.09,0A.13.13,0,0,1,292.69,424.41Zm-.63.16a.16.16,0,0,1,0,.07.17.17,0,0,1,0,.07.1.1,0,0,1,0,.06.1.1,0,0,1-.07,0,.08.08,0,0,1-.07,0s0,0,0-.06a.17.17,0,0,1,0-.07.16.16,0,0,1,0-.07s0,0,0,0h.1A.05.05,0,0,1,292.06,424.57Zm1.27-.09a1.1,1.1,0,0,1,.31.68,1.08,1.08,0,0,1-.17.72,1.1,1.1,0,0,1-.59.45,1.08,1.08,0,0,1-.73,0,1.09,1.09,0,0,1-.54-.5,1.19,1.19,0,0,1-.11-.74,1.14,1.14,0,0,1,.38-.64,1.08,1.08,0,0,1,.69-.25,1.15,1.15,0,0,1,.41.08A1.21,1.21,0,0,1,293.33,424.48Zm13.61-1.91a2.58,2.58,0,0,0-1.67.62,2.68,2.68,0,0,0-.91,1.55,2.74,2.74,0,0,0,.26,1.8,2.64,2.64,0,0,0,1.31,1.22,2.59,2.59,0,0,0,3.19-1,2.73,2.73,0,0,0-.32-3.41,2.68,2.68,0,0,0-.85-.58A2.54,2.54,0,0,0,306.94,422.57Zm-.84,2.57a.08.08,0,0,0-.07,0,.1.1,0,0,0,0,.06.19.19,0,0,0,0,.08s0,.05,0,.06a.08.08,0,0,0,.06,0,.11.11,0,0,0,.08,0,.13.13,0,0,0,.06-.05.14.14,0,0,0,0-.07.09.09,0,0,0,0,0l0,0a.05.05,0,0,0,0,0Zm.15.64.07,0a.08.08,0,0,1,.08,0,.1.1,0,0,1,.05,0,.13.13,0,0,1,0,.08.11.11,0,0,1,0,.07.12.12,0,0,1-.05.05h-.08l-.07,0a.05.05,0,0,1,0,0,.09.09,0,0,1,0-.05.07.07,0,0,1,0-.05S306.24,425.8,306.25,425.78Zm.56.35a.24.24,0,0,1,0-.08l.06,0a.11.11,0,0,1,.08,0,.08.08,0,0,1,.06,0s0,0,0,.06a.19.19,0,0,1,0,.08.15.15,0,0,1-.05.06l-.07,0h-.05a.05.05,0,0,1,0,0l0,0A.09.09,0,0,1,306.81,426.13Zm.63-.16a.09.09,0,0,1,0-.07.11.11,0,0,1,0-.08l0-.06.07,0,.08,0,.05.06a.11.11,0,0,1,0,.08.15.15,0,0,1,0,.07.18.18,0,0,1-.1,0A.18.18,0,0,1,307.44,426Zm.34-.57.07,0,0-.06a.25.25,0,0,0,0-.08.16.16,0,0,0,0-.07l-.07,0h-.07a.15.15,0,0,0-.06.05.19.19,0,0,0,0,.08.11.11,0,0,0,0,.05l0,0,0,0Zm-.16-.65a.16.16,0,0,0,0-.07.17.17,0,0,0,0-.07.1.1,0,0,0,0-.06.09.09,0,0,0-.07,0,.11.11,0,0,0-.07,0,.1.1,0,0,0,0,.06.17.17,0,0,0,0,.07.16.16,0,0,0,0,.07l0,0h.1Zm-.55-.34a.13.13,0,0,0,0-.08l-.05-.05h-.08l-.07,0a.21.21,0,0,0,0,.07.11.11,0,0,0,0,.08.21.21,0,0,0,0,.06l.08,0H307l0,0,0,0A.43.43,0,0,1,307.07,424.41Zm-.63.16-.07,0h-.08a.12.12,0,0,0-.05,0,.09.09,0,0,0,0,.07.13.13,0,0,0,0,.08.1.1,0,0,0,.05,0,.11.11,0,0,0,.08,0l.07,0s0,0,0-.05a.07.07,0,0,0,0,0,.09.09,0,0,0,0-.05A.05.05,0,0,0,306.44,424.57Zm1.27-.09a1.11,1.11,0,0,0-.66-.32,1.09,1.09,0,0,0-1.14.79,1.11,1.11,0,0,0,0,.74,1.16,1.16,0,0,0,.49.56,1.07,1.07,0,0,0,.72.11,1.08,1.08,0,0,0,.63-.39,1.12,1.12,0,0,0,.24-.7,1.06,1.06,0,0,0-.08-.43,1.13,1.13,0,0,0-.24-.36Z" transform="translate(-282 -412.97)"/></svg>