<svg id="Layer_1" data-name="Layer 1" xmlns="http://www.w3.org/2000/svg" viewBox="0 0 24.51 14.46"><defs><style>.cls-1{fill:#222c60;}</style></defs><title>quad</title><path class="cls-1" d="M298.53,414.24l2.08.09h.05l0,0,0,0a.09.09,0,0,0,0-.05l0-.72a.1.1,0,0,0,0-.09.14.14,0,0,0-.08-.05l-2.09-.07h-.05l0,0,0,0s0,0,0,0l0,.74a.12.12,0,0,0,0,.08A.1.1,0,0,0,298.53,414.24Z" transform="translate(-285.25 -413.27)"/><path class="cls-1" d="M289.3,423a.59.59,0,0,0-.23,0,.62.62,0,0,0-.32.32.57.57,0,0,0,0,.22.59.59,0,0,0,.17.42.56.56,0,0,0,.42.18.59.59,0,0,0,.22-.05.62.62,0,0,0,.32-.32.59.59,0,0,0,0-.23.57.57,0,0,0,0-.22.62.62,0,0,0-.32-.32A.57.57,0,0,0,289.3,423Z" transform="translate(-285.25 -413.27)"/><path class="cls-1" d="M287.64,418.46c1.24.24,5.17.43,5.27,1.79,2.84,0,7.9-3.12,7.4,1.08h1c1.29-3.57,3.76-4.29,7.14-2.46.16-.18.34-.36.51-.53a5.48,5.48,0,0,0-5.65-1.21l-2.94-1.77c-1.1-.63-3.45,2.64-5.83,3.21-.58.14-5.57-1.15-7.29-1.28l-1,1.5.82.56Zm14.59-1.67.85.5a4.72,4.72,0,0,0-2.16,2.21A4.51,4.51,0,0,1,302.23,416.79Z" transform="translate(-285.25 -413.27)"/><path class="cls-1" d="M302.31,416.25l1,.6a7.3,7.3,0,0,1,2-.28c-.27-.52-.57-1-.89-1.52-1.85.09-1.68-.19-3-1.51H301l0,.64h.17Z" transform="translate(-285.25 -413.27)"/><path class="cls-1" d="M290.65,417.65a32.72,32.72,0,0,0,3.79.68,6.12,6.12,0,0,0,1.94-1,3.91,3.91,0,0,1-1.66.22l-6.17-1.28c-.27-.06-.47.46-.59.84l.77.13Z" transform="translate(-285.25 -413.27)"/><path class="cls-1" d="M305.77,423a.56.56,0,0,0-.34,0,.55.55,0,0,0-.26.24.73.73,0,0,0-.08.33.54.54,0,0,0,.13.32.47.47,0,0,0,.28.2.55.55,0,0,0,.63-.17.6.6,0,0,0,.15-.31.68.68,0,0,0-.12-.44A.62.62,0,0,0,305.77,423Z" transform="translate(-285.25 -413.27)"/><path class="cls-1" d="M309.55,423.6l-.14,0a4.06,4.06,0,0,0-.12-.91l.13-.06a.18.18,0,0,0,.12-.12.2.2,0,0,0,0-.17l-.24-.55a.25.25,0,0,0,0-.07l-.08-.05a.11.11,0,0,0-.08,0,.15.15,0,0,0-.09,0l-.13,0a3.31,3.31,0,0,0-.56-.72l.09-.12,0-.08a.28.28,0,0,0,0-.09l0-.08s0-.05-.06-.06l-.46-.37-.08,0h-.09a.11.11,0,0,0-.08,0,.13.13,0,0,0-.07.06l-.08.11a4.39,4.39,0,0,0-.84-.35v-.14a.22.22,0,0,0,0-.16.24.24,0,0,0-.15-.09l-.58-.08a.26.26,0,0,0-.17.05.28.28,0,0,0-.08.15l0,.15a3.48,3.48,0,0,0-.9.12l-.05-.14a.16.16,0,0,0,0-.07l-.08-.05-.08,0-.09,0-.55.23a.28.28,0,0,0-.12.12.2.2,0,0,0,0,.17l.06.14a3.31,3.31,0,0,0-.72.56l-.12-.09-.08,0h-.08l-.09,0-.06.06-.36.47a.21.21,0,0,0,0,.17.28.28,0,0,0,.08.15l.12.09a3.87,3.87,0,0,0-.34.85l-.14,0a.22.22,0,0,0-.17.05.19.19,0,0,0-.09.14l-.08.59a.28.28,0,0,0,0,.09l0,.08a.18.18,0,0,0,.07.05.11.11,0,0,0,.08,0l.14,0a3.06,3.06,0,0,0,.13.9l-.14.06a.2.2,0,0,0-.12.12.25.25,0,0,0,0,.17l.22.55a.22.22,0,0,0,.13.12.25.25,0,0,0,.17,0l.14-.06a3.25,3.25,0,0,0,.55.73l-.09.11a.25.25,0,0,0,0,.17.24.24,0,0,0,.08.15l.47.36a.25.25,0,0,0,.16.05.24.24,0,0,0,.15-.09l.09-.12a3.83,3.83,0,0,0,.84.35l0,.15a.26.26,0,0,0,.05.17.24.24,0,0,0,.15.08l.58.08a.22.22,0,0,0,.16-.05.24.24,0,0,0,.09-.15v-.14a3.38,3.38,0,0,0,.9-.13l.06.14a.23.23,0,0,0,.12.12.25.25,0,0,0,.17,0l.54-.23a.24.24,0,0,0,.13-.29l-.06-.14a4.34,4.34,0,0,0,.72-.56l.11.09s.05,0,.08,0h.09a.11.11,0,0,0,.08,0,.13.13,0,0,0,.07-.06l.35-.47a.25.25,0,0,0,0-.07.28.28,0,0,0,0-.09l0-.08-.06-.07-.12-.09a3.74,3.74,0,0,0,.36-.85l.14,0h.08a.2.2,0,0,0,.08,0s0,0,.06-.06l0-.09.07-.58v-.09a.36.36,0,0,0,0-.09.18.18,0,0,0-.07-.05Zm-1.86.28a2,2,0,0,1-.49,1.06,2,2,0,0,1-1,.61,2,2,0,0,1-1.17,0,2.09,2.09,0,0,1-1-.68,2,2,0,0,1-.4-1.1,2,2,0,0,1,.26-1.13,2,2,0,0,1,2-1,2,2,0,0,1,.75.25,2.13,2.13,0,0,1,.6.52,2.07,2.07,0,0,1,.39,1.5Z" transform="translate(-285.25 -413.27)"/><path class="cls-1" d="M293.13,423.1H293a3.38,3.38,0,0,0-.24-.88l.13-.08a.21.21,0,0,0,.1-.13.23.23,0,0,0,0-.18l-.29-.51a.24.24,0,0,0-.31-.08l-.12.07a4.3,4.3,0,0,0-.64-.64l.07-.13a.24.24,0,0,0-.08-.31l-.51-.3a.25.25,0,0,0-.17,0,.26.26,0,0,0-.14.11l-.07.12a3.8,3.8,0,0,0-.88-.23v-.15a.23.23,0,0,0-.06-.16.24.24,0,0,0-.16-.07H289a.26.26,0,0,0-.16.07.23.23,0,0,0-.06.16v.15a3.8,3.8,0,0,0-.88.23l-.07-.12a.28.28,0,0,0-.13-.11.25.25,0,0,0-.17,0l-.51.3a.26.26,0,0,0-.11.14.33.33,0,0,0,0,.17l.08.13a3.53,3.53,0,0,0-.64.64l-.13-.07a.2.2,0,0,0-.17,0,.21.21,0,0,0-.13.1l-.3.51a.24.24,0,0,0,.08.31l.13.08a4.4,4.4,0,0,0-.24.88h-.14l-.09,0-.07.05-.05.07a.28.28,0,0,0,0,.09v.6a.22.22,0,0,0,.06.15.25.25,0,0,0,.16.06h.14a4.59,4.59,0,0,0,.24.9l-.13.07a.21.21,0,0,0-.1.14.25.25,0,0,0,0,.17l.3.51a.19.19,0,0,0,.13.1.2.2,0,0,0,.17,0l.13-.07a3.58,3.58,0,0,0,.64.65l-.08.12a.25.25,0,0,0,0,.17.26.26,0,0,0,.11.14l.51.3a.18.18,0,0,0,.16,0,.21.21,0,0,0,.14-.1l.07-.13a3.38,3.38,0,0,0,.88.24v.14a.23.23,0,0,0,.06.16.24.24,0,0,0,.16.07h.59l.09,0,.07-.05a.18.18,0,0,0,.05-.07.28.28,0,0,0,0-.09v-.14a3.38,3.38,0,0,0,.88-.24l.07.13.06.07s.05,0,.08,0H291l.08,0,.51-.3a.24.24,0,0,0,.08-.31l-.07-.12a3.94,3.94,0,0,0,.64-.65l.12.07a.24.24,0,0,0,.31-.08l.29-.51a.21.21,0,0,0,0-.17.21.21,0,0,0-.1-.14l-.13-.07a3.52,3.52,0,0,0,.24-.9h.15a.22.22,0,0,0,.15-.06.23.23,0,0,0,.07-.15v-.6a.2.2,0,0,0-.07-.16A.21.21,0,0,0,293.13,423.1Zm-3.83,2.56a2.08,2.08,0,0,1-1.14-.33,2.1,2.1,0,0,1-.76-.91,2.06,2.06,0,0,1,.43-2.23,2.12,2.12,0,0,1,1-.56,2.06,2.06,0,0,1,1.18.11,2.17,2.17,0,0,1,.92.75,2.06,2.06,0,0,1-.24,2.57,2,2,0,0,1-.66.44A2,2,0,0,1,289.3,425.66Z" transform="translate(-285.25 -413.27)"/><path class="cls-1" d="M301.92,422.36a5.49,5.49,0,0,1,.21-.51.54.54,0,0,1-.13-.3.45.45,0,0,1,.09-.32l.36-.47a.47.47,0,0,1,.61-.13,5,5,0,0,1,.43-.34.47.47,0,0,1,0-.33.53.53,0,0,1,.24-.23l.55-.23a.53.53,0,0,1,.33,0,.49.49,0,0,1,.26.21,3.07,3.07,0,0,1,.53-.07.45.45,0,0,1,.2-.27.41.41,0,0,1,.32-.08l.59.07a.5.5,0,0,1,.29.16.51.51,0,0,1,.11.31,3.89,3.89,0,0,1,.51.21l.05,0V418.7a4.63,4.63,0,0,0-3.52-.33,4.83,4.83,0,0,0-2.47,3.05l-.06.16H300l0-.28c.07-.53.09-1.3-.38-1.66-.79-.62-3,.09-3.88.33a11.87,11.87,0,0,1-2.89.53h-.23l0-.23c-.06-.87-2.59-1.24-4.11-1.43l0,.71a.41.41,0,0,1,.17-.2.52.52,0,0,1,.25-.07h.59a.47.47,0,0,1,.31.12.49.49,0,0,1,.16.29,3.34,3.34,0,0,1,.52.14.46.46,0,0,1,.29-.17.48.48,0,0,1,.33,0l.5.3a.49.49,0,0,1,.21.26.42.42,0,0,1,0,.33,3.59,3.59,0,0,1,.39.39.53.53,0,0,1,.33,0,.49.49,0,0,1,.26.21l.29.51a.5.5,0,0,1,.05.34.51.51,0,0,1-.17.29,2.5,2.5,0,0,1,.11.39h.94v-1.09a.67.67,0,0,1,.2-.48.63.63,0,0,1,.47-.2H299a.67.67,0,0,1,.48.2.71.71,0,0,1,.19.48v1.09h1.83a.49.49,0,0,1,.17-.25A.43.43,0,0,1,301.92,422.36Z" transform="translate(-285.25 -413.27)"/><path class="cls-1" d="M299,421.2h-4.2a.43.43,0,0,0-.3.13.47.47,0,0,0-.12.3v1.09a.5.5,0,0,0,.12.31.42.42,0,0,0,.3.12H299a.42.42,0,0,0,.3-.12.45.45,0,0,0,.12-.31v-1.09a.42.42,0,0,0-.12-.3A.43.43,0,0,0,299,421.2Z" transform="translate(-285.25 -413.27)"/></svg>