<svg width="214" height="214" viewBox="0 0 214 214" fill="none" xmlns="http://www.w3.org/2000/svg">
<circle cx="107" cy="107" r="107" fill="#0A2463"/>
<g clip-path="url(#clip0_4702_55448)">
<path d="M188.348 101.404C188.204 101.404 188.06 101.384 187.916 101.339L92.4295 71.8047L41.2254 81.242C40.4403 81.3846 39.6841 80.8712 39.5402 80.0929C39.3923 79.3146 39.9142 78.5649 40.6993 78.4223L92.2569 68.9198C92.4912 68.879 92.7255 68.8912 92.9515 68.9605L188.779 98.6008C189.54 98.8371 189.967 99.6398 189.729 100.398C189.536 101.013 188.964 101.404 188.348 101.404Z" fill="white" stroke="#263238" stroke-linecap="round" stroke-linejoin="round"/>
<path d="M106.141 124.761C105.808 124.761 105.508 124.529 105.434 124.194L90.6581 62.2776C90.2512 60.3747 88.7551 58.8588 86.8439 58.4147L81.4267 57.1596C81.0362 57.07 80.7979 56.6829 80.8883 56.2998C80.9787 55.9127 81.3692 55.6764 81.7555 55.766L87.1727 57.0211C89.6264 57.5916 91.55 59.5393 92.072 61.9842L106.848 123.901C106.93 124.288 106.679 124.667 106.289 124.753C106.24 124.765 106.186 124.769 106.137 124.769L106.141 124.761Z" fill="white" stroke="#263238" stroke-linecap="round" stroke-linejoin="round"/>
<path d="M182.162 114.61C182.084 114.61 182.002 114.598 181.924 114.569L97.5177 86.983L46.593 98.8488C46.2108 98.9548 45.808 98.7347 45.7011 98.3558C45.5943 97.9768 45.8162 97.5775 46.1985 97.4716L97.3451 85.5405C97.4889 85.4997 97.641 85.5038 97.7807 85.5527L182.4 113.217C182.778 113.347 182.976 113.755 182.844 114.129C182.741 114.427 182.462 114.61 182.162 114.61Z" fill="white" stroke="#263238" stroke-linecap="round" stroke-linejoin="round"/>
<path d="M175.759 132.748C175.68 132.748 175.602 132.736 175.524 132.707L101.899 106.184L52.7708 121.522C52.3885 121.632 51.9857 121.407 51.8789 121.029C51.772 120.65 51.994 120.25 52.3762 120.144L101.723 104.746C101.866 104.705 102.014 104.709 102.154 104.758L175.997 131.354C176.375 131.485 176.572 131.892 176.445 132.267C176.342 132.564 176.063 132.748 175.763 132.748H175.759Z" fill="white" stroke="#263238" stroke-linecap="round" stroke-linejoin="round"/>
<path d="M57.0945 78.3164L55.6724 78.5772L68.9029 136C68.981 136.334 69.2769 136.558 69.6057 136.558C69.6592 136.558 69.7126 136.554 69.766 136.542C70.1565 136.452 70.399 136.069 70.3086 135.682L57.0904 78.3164H57.0945Z" fill="white" stroke="#263238" stroke-linecap="round" stroke-linejoin="round"/>
<path d="M73.8147 75.2314L72.3926 75.4922L84.8504 130.669C84.9244 131.004 85.2244 131.228 85.5533 131.228C85.6067 131.228 85.6601 131.224 85.7135 131.211C86.104 131.126 86.3465 130.743 86.2602 130.356L73.8147 75.2314Z" fill="white" stroke="#263238" stroke-linecap="round" stroke-linejoin="round"/>
<path d="M86.8396 72.8312L85.4175 73.092L97.5465 126.794C97.6205 127.128 97.9205 127.352 98.2493 127.352C98.3028 127.352 98.3562 127.348 98.4096 127.336C98.8001 127.25 99.0426 126.867 98.9563 126.48L86.8396 72.8271V72.8312Z" fill="white" stroke="#263238" stroke-linecap="round" stroke-linejoin="round"/>
<path d="M152.725 90.4504L142.956 136.145C142.861 136.528 143.095 136.92 143.482 137.013C143.539 137.03 143.597 137.034 143.654 137.034C143.979 137.034 144.275 136.818 144.357 136.488L154.11 90.8741L152.725 90.4463V90.4504Z" fill="white" stroke="#263238" stroke-linecap="round" stroke-linejoin="round"/>
<path d="M138.521 86.0578C138.471 86.1352 138.434 86.2208 138.418 86.3186L131.879 132.323C131.809 132.714 132.068 133.085 132.462 133.155C132.507 133.163 132.549 133.167 132.59 133.167C132.931 133.167 133.239 132.922 133.301 132.576L139.84 86.5712C139.848 86.5345 139.848 86.5019 139.848 86.4653L138.521 86.0537V86.0578Z" fill="white" stroke="#263238" stroke-linecap="round" stroke-linejoin="round"/>
<path d="M169.441 95.6221C169.441 95.6221 169.441 95.6261 169.441 95.6302L155.989 140.624C155.869 141.003 156.083 141.403 156.461 141.521C156.535 141.545 156.605 141.553 156.679 141.553C156.987 141.553 157.271 141.358 157.37 141.052L170.822 96.0581V96.0499L169.445 95.6221H169.441Z" fill="white" stroke="#263238" stroke-linecap="round" stroke-linejoin="round"/>
<path d="M125.746 82.1056C125.713 82.1749 125.693 82.2483 125.685 82.3257L121.587 129.137C121.546 129.532 121.834 129.883 122.232 129.924C122.257 129.924 122.282 129.924 122.306 129.924C122.672 129.924 122.984 129.651 123.025 129.28L127.119 82.5253L125.75 82.1016L125.746 82.1056Z" fill="white" stroke="#263238" stroke-linecap="round" stroke-linejoin="round"/>
<path d="M113.001 78.165L111.361 125.653C111.348 126.048 111.665 126.378 112.064 126.391C112.072 126.391 112.076 126.391 112.084 126.391C112.475 126.391 112.795 126.085 112.807 125.694L114.435 78.6092L113.005 78.165H113.001Z" fill="white" stroke="#263238" stroke-linecap="round" stroke-linejoin="round"/>
<path d="M169.203 145.408C169.104 145.408 169.002 145.392 168.903 145.359L106.819 125.274L59.1088 140.596C58.6032 140.759 58.0607 140.482 57.8963 139.981C57.7319 139.479 58.0114 138.941 58.5169 138.778L106.523 123.359C106.717 123.298 106.926 123.298 107.119 123.359L169.499 143.538C170.005 143.701 170.28 144.243 170.115 144.744C169.984 145.147 169.606 145.404 169.199 145.404L169.203 145.408Z" fill="white" stroke="#263238" stroke-linecap="round" stroke-linejoin="round"/>
<path d="M137.271 158.464C137.173 158.464 137.074 158.447 136.975 158.419L69.532 137.079C69.0265 136.916 68.747 136.378 68.9114 135.877C69.0758 135.376 69.6184 135.099 70.1239 135.262L137.567 156.601C138.073 156.764 138.352 157.302 138.188 157.804C138.056 158.207 137.678 158.468 137.271 158.468V158.464Z" fill="white" stroke="#263238" stroke-linecap="round" stroke-linejoin="round"/>
<path d="M149.889 153.574C149.787 153.574 149.68 153.558 149.577 153.521L85.5122 131.619C85.0108 131.448 84.7436 130.902 84.9163 130.405C85.0889 129.907 85.6396 129.643 86.1411 129.814L150.21 151.716C150.711 151.887 150.979 152.433 150.806 152.93C150.67 153.325 150.296 153.574 149.893 153.574H149.889Z" fill="white" stroke="#263238" stroke-linecap="round" stroke-linejoin="round"/>
<path d="M160.44 148.79C160.338 148.79 160.235 148.774 160.132 148.741L98.0154 127.903C97.5099 127.732 97.2427 127.19 97.4113 126.693C97.5839 126.191 98.1264 125.922 98.632 126.094L160.749 146.932C161.254 147.103 161.521 147.645 161.353 148.142C161.217 148.542 160.843 148.79 160.44 148.79Z" fill="white" stroke="#263238" stroke-linecap="round" stroke-linejoin="round"/>
<path d="M111.525 203.192C114.073 201.739 114.727 198.126 112.985 195.122C111.243 192.117 107.765 190.858 105.216 192.311C102.668 193.763 102.014 197.376 103.756 200.381C105.498 203.386 108.976 204.644 111.525 203.192Z" fill="#263238" stroke="#263238" stroke-linecap="round" stroke-linejoin="round"/>
<path d="M111.052 196.803C112.113 198.629 111.714 200.825 110.165 201.705C108.615 202.59 106.503 201.824 105.446 199.998C104.386 198.173 104.785 195.976 106.334 195.096C107.884 194.212 109.996 194.978 111.052 196.803Z" fill="white" stroke="#263238" stroke-linecap="round" stroke-linejoin="round"/>
<path d="M107.744 189.005L106.022 197.375C105.845 198.234 106.215 199.119 106.955 199.599C107.847 200.178 109.034 200.027 109.75 199.241L116.276 192.049L107.74 189.005H107.744Z" fill="white" stroke="#263238" stroke-linecap="round" stroke-linejoin="round"/>
<path d="M143.85 188.492C146.399 187.039 147.053 183.426 145.311 180.421C143.569 177.417 140.09 176.158 137.542 177.611C134.993 179.063 134.339 182.676 136.082 185.681C137.824 188.685 141.302 189.944 143.85 188.492Z" fill="#263238" stroke="#263238" stroke-linecap="round" stroke-linejoin="round"/>
<path d="M143.383 182.098C144.443 183.923 144.045 186.119 142.495 187C140.946 187.884 138.833 187.118 137.777 185.292C136.716 183.467 137.115 181.27 138.665 180.39C140.214 179.51 142.327 180.272 143.383 182.098Z" fill="white" stroke="#263238" stroke-linecap="round" stroke-linejoin="round"/>
<path d="M140.074 174.303L138.352 182.672C138.175 183.532 138.545 184.416 139.285 184.897C140.177 185.476 141.365 185.325 142.08 184.539L148.607 177.347L140.07 174.303H140.074Z" fill="white" stroke="#263238" stroke-linecap="round" stroke-linejoin="round"/>
<path d="M101.957 167.485C103.7 170.492 103.046 174.103 100.498 175.557C97.9497 177.008 94.4684 175.753 92.7257 172.746C90.983 169.738 91.6365 166.128 94.1848 164.673C96.7331 163.223 100.214 164.478 101.957 167.485Z" fill="#263238" stroke="#263238" stroke-linecap="round" stroke-linejoin="round"/>
<path d="M99.1421 174.071C100.691 173.188 101.088 170.992 100.029 169.166C98.9706 167.34 96.8567 166.575 95.3078 167.458C93.759 168.34 93.3618 170.536 94.4206 172.362C95.4794 174.189 97.5933 174.954 99.1421 174.071Z" fill="white" stroke="#263238" stroke-linecap="round" stroke-linejoin="round"/>
<path d="M96.7165 161.369L94.9943 169.739C94.8176 170.599 95.1875 171.483 95.9273 171.964C96.8192 172.542 98.0071 172.392 98.7222 171.605L105.249 164.413L96.7124 161.369H96.7165Z" fill="white" stroke="#263238" stroke-linecap="round" stroke-linejoin="round"/>
<path d="M68.0975 180.227C69.8402 183.234 69.1867 186.845 66.6384 188.299C64.0901 189.75 60.6088 188.495 58.8702 185.488C57.1275 182.481 57.781 178.87 60.3293 177.416C62.8776 175.965 66.3589 177.22 68.0975 180.227Z" fill="#263238" stroke="#263238" stroke-linecap="round" stroke-linejoin="round"/>
<path d="M66.1658 181.91C67.2262 183.735 66.8275 185.932 65.278 186.812C63.7285 187.692 61.6158 186.93 60.5595 185.105C59.4991 183.279 59.8978 181.083 61.4473 180.203C62.9968 179.318 65.1095 180.084 66.1658 181.91Z" fill="white" stroke="#263238" stroke-linecap="round" stroke-linejoin="round"/>
<path d="M62.8571 174.111L61.1349 182.481C60.9582 183.341 61.3281 184.225 62.0679 184.706C62.9598 185.284 64.1477 185.134 64.8628 184.347L71.3897 177.155L62.853 174.111H62.8571Z" fill="white" stroke="#263238" stroke-linecap="round" stroke-linejoin="round"/>
<path d="M121.229 193.878C120.202 193.878 119.166 193.715 118.163 193.389L58.9566 174.172C57.3166 173.643 55.9891 172.432 55.3068 170.864C54.5546 169.12 54.6861 167.107 55.6644 165.477L68.1674 144.353C68.5044 143.79 69.1826 143.526 69.8197 143.709L110.946 155.787C111.71 156.011 112.15 156.805 111.924 157.567C111.698 158.325 110.896 158.761 110.128 158.537L91.8418 153.199C91.8377 153.236 91.8295 153.273 91.8213 153.309L91.698 153.839C91.402 155.082 91.735 156.39 92.5858 157.347C93.0749 157.898 93.7119 158.301 94.4189 158.513L151.673 175.594C152.639 175.884 153.313 176.711 153.395 177.709C153.478 178.704 152.943 179.629 152.039 180.069L125.537 192.888C124.176 193.548 122.709 193.878 121.233 193.878H121.229ZM70.3211 146.537L58.1469 166.944C57.6413 167.787 57.5715 168.83 57.9619 169.735C58.3154 170.55 59.0018 171.173 59.8526 171.45L119.063 190.667C120.79 191.23 122.635 191.099 124.263 190.313L149.704 178.007L93.5804 161.263C92.3556 160.897 91.2582 160.2 90.4115 159.25C88.9401 157.6 88.2578 155.229 88.7674 153.085L88.8907 152.56C88.9113 152.47 88.9401 152.384 88.9771 152.303L70.3211 146.545V146.537Z" fill="white" stroke="#263238" stroke-linecap="round" stroke-linejoin="round"/>
<path d="M91.6939 153.839L91.8418 153.2L88.9812 152.291L88.7674 153.073C88.5414 154.031 88.6524 155.115 88.8373 156.056L92.5611 157.319C91.7226 156.366 91.3979 155.066 91.6898 153.831L91.6939 153.839Z" fill="#263238" stroke="#263238" stroke-linecap="round" stroke-linejoin="round"/>
<path d="M30.1732 68.4833C28.7182 68.4833 27.4482 67.3586 27.2344 65.7939C27.0002 64.0784 28.1263 62.4892 29.7499 62.2447L78.9811 54.7634C80.6046 54.5189 82.1131 55.7047 82.3432 57.4202C82.5775 59.1357 81.4513 60.7248 79.8278 60.9693L30.5965 68.4507C30.4527 68.4711 30.3088 68.4833 30.1691 68.4833H30.1732Z" fill="#263238" stroke="#263238" stroke-linecap="round" stroke-linejoin="round"/>
<path d="M43.2638 81.6853C42.9391 81.6853 42.6432 81.4693 42.561 81.1433L40.173 71.6653C39.7045 69.8072 38.2412 68.3891 36.3547 67.9694L28.7345 66.2743C28.344 66.1887 28.1015 65.8057 28.1878 65.4186C28.2741 65.0315 28.6646 64.7911 29.051 64.8767L36.6712 66.5718C39.0962 67.1097 40.9745 68.9311 41.5787 71.3189L43.9667 80.797C44.0653 81.18 43.8269 81.5712 43.4406 81.6649C43.383 81.6812 43.3214 81.6853 43.2638 81.6853Z" fill="white" stroke="#263238" stroke-linecap="round" stroke-linejoin="round"/>
<path d="M109.593 76.8203L67.3164 85.9072L124.965 104.37L162.511 92.9403L109.593 76.8203Z" fill="#164FDA" stroke="#263238" stroke-linecap="round" stroke-linejoin="round"/>
<path d="M91.7266 80.5205L145.902 98.3438" stroke="#263238" stroke-linecap="round" stroke-linejoin="round"/>
<path d="M124.965 104.37L122.898 156.838L69.3879 138.664L67.3164 85.9072L124.965 104.37Z" fill="#164FDA" stroke="#263238" stroke-linecap="round" stroke-linejoin="round"/>
<path d="M162.511 92.9404L158.669 143.061L122.898 156.838L124.965 104.37L162.511 92.9404Z" fill="#164FDA" stroke="#263238" stroke-linecap="round" stroke-linejoin="round"/>
<path d="M127.785 162.441C127.711 162.441 127.642 162.428 127.572 162.408L57.9993 140.938C57.7568 140.864 57.576 140.669 57.5143 140.428L42.5657 81.1439C42.4671 80.7609 42.7055 80.3697 43.0918 80.276C43.4782 80.1782 43.8728 80.4145 43.9673 80.7976L58.8172 139.691L127.757 160.966L169.207 144.454L187.683 99.7007C187.835 99.3339 188.254 99.1587 188.624 99.3095C188.994 99.4603 189.17 99.8759 189.018 100.243L170.428 145.273C170.354 145.453 170.21 145.595 170.029 145.669L128.057 162.388C127.97 162.42 127.88 162.441 127.785 162.441Z" fill="white" stroke="#263238" stroke-linecap="round" stroke-linejoin="round"/>
<path d="M127.785 162.441C127.752 162.441 127.715 162.441 127.683 162.433C127.288 162.376 127.013 162.013 127.07 161.622L133.971 114.309C134.029 113.918 134.39 113.645 134.789 113.702C135.184 113.759 135.459 114.122 135.401 114.513L128.5 161.826C128.447 162.184 128.139 162.441 127.785 162.441Z" fill="white" stroke="#263238" stroke-linecap="round" stroke-linejoin="round"/>
<path d="M138.517 158.068C138.468 158.068 138.414 158.064 138.365 158.052C137.975 157.97 137.728 157.587 137.81 157.2L147.777 111.599C147.864 111.212 148.25 110.967 148.636 111.049C149.027 111.134 149.273 111.513 149.191 111.901L139.224 157.502C139.15 157.836 138.85 158.068 138.517 158.068Z" fill="white" stroke="#263238" stroke-linecap="round" stroke-linejoin="round"/>
<path d="M150.592 153.509C150.535 153.509 150.473 153.501 150.416 153.489C150.029 153.391 149.795 153 149.894 152.616L161.201 108.344C161.299 107.961 161.694 107.728 162.08 107.826C162.467 107.924 162.701 108.311 162.602 108.698L151.295 152.971C151.213 153.297 150.917 153.513 150.596 153.513L150.592 153.509Z" fill="white" stroke="#263238" stroke-linecap="round" stroke-linejoin="round"/>
<path d="M161.135 148.757C161.065 148.757 160.995 148.749 160.921 148.725C160.539 148.611 160.325 148.207 160.44 147.828L174.049 103.747C174.168 103.368 174.571 103.156 174.953 103.27C175.335 103.384 175.549 103.788 175.434 104.167L161.825 148.248C161.731 148.558 161.443 148.753 161.135 148.753V148.757Z" fill="white" stroke="#263238" stroke-linecap="round" stroke-linejoin="round"/>
<path d="M115.71 157.881C115.71 157.881 115.681 157.881 115.669 157.881C115.27 157.86 114.966 157.522 114.986 157.127L117.67 108.865C117.691 108.47 118.02 108.16 118.431 108.188C118.829 108.209 119.133 108.547 119.113 108.942L116.429 157.204C116.408 157.587 116.088 157.881 115.706 157.881H115.71Z" fill="white" stroke="#263238" stroke-linecap="round" stroke-linejoin="round"/>
<path d="M104.596 154.841C104.202 154.841 103.881 154.527 103.873 154.136L102.915 103.404C102.907 103.009 103.223 102.683 103.626 102.675C104.008 102.651 104.354 102.981 104.362 103.376L105.32 154.107C105.328 154.503 105.011 154.829 104.609 154.837H104.596V154.841Z" fill="white" stroke="#263238" stroke-linecap="round" stroke-linejoin="round"/>
<path d="M93.4783 151.039C93.096 151.039 92.7755 150.742 92.7549 150.354L90.2642 98.6734C90.2436 98.2782 90.5519 97.9441 90.9505 97.9237C91.3533 97.8952 91.6863 98.2089 91.7068 98.6042L94.1976 150.289C94.2181 150.684 93.9099 151.019 93.5112 151.039C93.4988 151.039 93.4865 151.039 93.4742 151.039H93.4783Z" fill="white" stroke="#263238" stroke-linecap="round" stroke-linejoin="round"/>
<path d="M83.5111 148C83.1411 148 82.8288 147.722 82.7918 147.348L77.8103 94.3342C77.7733 93.9389 78.0651 93.5925 78.4638 93.5559C78.8584 93.5192 79.2118 93.8085 79.2488 94.2038L84.2303 147.217C84.2673 147.612 83.9755 147.963 83.5768 147.995C83.5522 147.995 83.5316 147.995 83.5069 147.995L83.5111 148Z" fill="white" stroke="#263238" stroke-linecap="round" stroke-linejoin="round"/>
<path d="M74.3123 145.53C73.963 145.53 73.6547 145.282 73.6013 144.927L64.5919 89.2528C64.5302 88.8616 64.7974 88.4949 65.1919 88.4297C65.5824 88.3645 65.9564 88.6334 66.0222 89.0246L75.0316 144.699C75.0933 145.09 74.8261 145.457 74.4315 145.522C74.3945 145.526 74.3534 145.53 74.3164 145.53H74.3123Z" fill="white" stroke="#263238" stroke-linecap="round" stroke-linejoin="round"/>
<path d="M65.6851 142.49C65.3563 142.49 65.0604 142.266 64.9823 141.936L51.5668 84.9332C51.4764 84.5461 51.7189 84.1631 52.1052 84.0734C52.4957 83.9838 52.882 84.2242 52.9724 84.6072L66.3879 141.61C66.4784 141.997 66.2359 142.38 65.8495 142.47C65.7961 142.482 65.7385 142.49 65.6851 142.49Z" fill="white" stroke="#263238" stroke-linecap="round" stroke-linejoin="round"/>
<path d="M132.578 131.468C132.557 131.468 132.537 131.468 132.52 131.468C129.997 131.276 54.4809 102.752 45.8784 99.5007C45.5044 99.3581 45.3194 98.9466 45.4592 98.5757C45.603 98.2049 46.0181 98.0175 46.3922 98.1601C69.5487 106.913 130.177 129.703 132.639 130.037H132.652C134.74 130.037 164.078 120.519 183.322 114.109C183.7 113.983 184.111 114.186 184.238 114.561C184.366 114.936 184.16 115.344 183.782 115.47C175.718 118.155 135.599 131.468 132.574 131.468H132.578Z" fill="white" stroke="#263238" stroke-linecap="round" stroke-linejoin="round"/>
<path d="M130.659 148.191C129.684 148.191 74.4113 129.161 50.6917 120.979C50.3135 120.849 50.1162 120.441 50.2478 120.066C50.3793 119.692 50.7903 119.496 51.1684 119.626C77.572 128.734 127.634 145.937 130.667 146.744C132.87 146.162 159.384 136.419 176.98 129.895C177.354 129.756 177.769 129.944 177.909 130.315C178.049 130.685 177.859 131.097 177.485 131.235C160.404 137.568 131.608 148.191 130.659 148.191Z" fill="white" stroke="#263238" stroke-linecap="round" stroke-linejoin="round"/>
<path d="M138.71 116.224C138.546 116.224 138.377 116.196 138.221 116.138L40.4734 81.1765C39.7213 80.9076 39.3349 80.0885 39.6062 79.3429C39.8775 78.5972 40.7077 78.2101 41.4558 78.4831L138.751 113.282L187.933 98.5964C188.697 98.3682 189.503 98.7961 189.733 99.554C189.963 100.312 189.532 101.111 188.767 101.339L139.129 116.159C138.994 116.2 138.854 116.22 138.714 116.22L138.71 116.224Z" fill="white" stroke="#263238" stroke-linecap="round" stroke-linejoin="round"/>
<path d="M89.8893 41.3945L57.4644 44.8052L100.872 55.3467L129.832 49.5931L89.8893 41.3945Z" fill="#164FDA" stroke="#263238" stroke-linecap="round" stroke-linejoin="round"/>
<path d="M76.7246 42.5801L117.374 52.3393" stroke="#263238" stroke-linecap="round" stroke-linejoin="round"/>
<path d="M100.872 55.3462L99.6467 93.9348L58.8125 81.2947L57.4644 44.8047L100.872 55.3462Z" fill="#164FDA" stroke="#263238" stroke-linecap="round" stroke-linejoin="round"/>
<path d="M129.832 49.5928L127.526 83.2712L99.647 93.935L100.872 55.3464L129.832 49.5928Z" fill="#164FDA" stroke="#263238" stroke-linecap="round" stroke-linejoin="round"/>
<path d="M136.794 67.9629L93.5801 78.427L122.458 88.3003L166.268 78.2314L136.794 67.9629Z" fill="#92E3A9" stroke="#263238" stroke-linecap="round" stroke-linejoin="round"/>
<path d="M122.458 88.3V106.466L93.3828 96.0015L93.5801 78.4268L122.458 88.3Z" fill="white" stroke="#263238" stroke-linecap="round" stroke-linejoin="round"/>
<path d="M122.458 106.466L166.469 91.8536L166.268 78.2314L122.458 88.3003V106.466Z" fill="white" stroke="#263238" stroke-linecap="round" stroke-linejoin="round"/>
<path d="M136.802 56.5127L92.2979 66.1415L122.035 76.3082L167.156 64.646L136.802 56.5127Z" fill="#164FDA" stroke="#263238" stroke-linecap="round" stroke-linejoin="round"/>
<path d="M122.035 76.3083V95.0117L92.0923 84.2379L92.2978 66.1416L122.035 76.3083Z" fill="#164FDA" stroke="#263238" stroke-linecap="round" stroke-linejoin="round"/>
<path d="M122.035 95.012L167.361 81.1536L167.156 64.6465L122.035 76.3086V95.012Z" fill="#164FDA" stroke="#263238" stroke-linecap="round" stroke-linejoin="round"/>
<path d="M103.063 16.2041L78.2168 18.8161L111.472 26.8964L133.346 24.0033L103.063 16.2041Z" fill="#164FDA" stroke="#263238" stroke-linecap="round" stroke-linejoin="round"/>
<path d="M93.4116 17.2354L124.739 25.2668" stroke="#263238" stroke-linecap="round" stroke-linejoin="round"/>
<path d="M111.472 26.8968L110.276 57.3153L77.1973 46.9653L78.2166 18.8164L111.472 26.8968Z" fill="#164FDA" stroke="#263238" stroke-linecap="round" stroke-linejoin="round"/>
<path d="M133.346 24.0029L131.866 51.2635L110.276 57.3146L111.472 26.8961L133.346 24.0029Z" fill="#164FDA" stroke="#263238" stroke-linecap="round" stroke-linejoin="round"/>
</g>
<defs>
<clipPath id="clip0_4702_55448">
<rect width="163" height="188" fill="white" transform="translate(27 16)"/>
</clipPath>
</defs>
</svg>
