<svg width="19" height="18" viewBox="0 0 19 18" fill="none" xmlns="http://www.w3.org/2000/svg">
<g id="Layer_1" clip-path="url(#clip0_7177_62838)">
<path id="Vector" d="M6.09901 16.136C6.91495 15.32 7.70276 14.5322 8.48354 13.7444C8.60311 13.6249 8.71566 13.6882 8.84227 13.6952C10.6148 13.8499 12.1271 13.3224 13.2526 11.8945C14.4835 10.3329 14.5609 8.10317 13.4777 6.40094C12.4296 4.76202 10.3897 3.932 8.46243 4.36108C6.52808 4.79719 5.05094 6.41501 4.79772 8.37749C4.74145 8.80657 4.75552 9.24267 4.81882 9.67175C4.83992 9.80539 4.84696 9.9109 4.73442 10.0234C3.94661 10.7902 3.16583 11.5639 2.36396 12.3517C2.13887 11.9367 1.97709 11.4936 1.87158 11.0363C1.82234 10.8324 1.73793 10.7409 1.54098 10.7057C0.387404 10.4807 0.499948 10.4033 0.499948 9.36225C0.499948 8.92614 0.506982 8.49707 0.499948 8.06096C0.492914 7.70223 0.654696 7.449 1.0064 7.41383C1.61132 7.35756 1.91378 7.08324 2.02633 6.47128C2.1248 5.9578 2.38506 5.48652 2.66642 5.03634C2.7649 4.88159 2.77896 4.76202 2.66642 4.5932C2.1037 3.69285 2.06853 3.72098 2.88447 2.92614C3.19397 2.62368 3.50347 2.31419 3.80593 2.00469C4.05915 1.7374 4.35458 1.66002 4.64297 1.89918C5.07908 2.25088 5.46595 2.27902 5.94426 1.94842C6.3874 1.64596 6.91495 1.48417 7.4425 1.37163C7.66056 1.32239 7.752 1.20985 7.78717 1.00586C7.82234 0.80891 7.87861 0.618992 7.92785 0.429074C8.01226 0.147714 8.20218 0 8.4976 0C9.16583 0 9.83406 0 10.5023 0C10.8329 0 11.065 0.182884 11.0861 0.49238C11.1213 1.13247 11.4519 1.4068 12.0568 1.53341C12.5562 1.63892 13.0205 1.88511 13.4566 2.16647C13.6254 2.27198 13.759 2.27198 13.9278 2.16647C14.793 1.61782 14.786 1.58968 15.5386 2.36342C15.8481 2.67995 16.1717 2.98945 16.4812 3.30598C16.7907 3.62251 16.847 3.82649 16.5797 4.17116C16.235 4.6143 16.235 4.98007 16.5445 5.44431C16.847 5.90152 17.0087 6.43611 17.1354 6.97069C17.1776 7.16061 17.262 7.24502 17.4448 7.28019C18.6125 7.52638 18.4999 7.56155 18.4999 8.65182C18.4999 9.08792 18.4999 9.517 18.4999 9.95311C18.4999 10.2978 18.3522 10.551 18.0146 10.5791C17.3675 10.6213 17.0791 10.959 16.9525 11.578C16.854 12.0703 16.6078 12.5205 16.3405 12.9426C16.235 13.1043 16.2209 13.238 16.3335 13.4209C16.8892 14.3001 16.9173 14.279 16.1225 15.0598C15.813 15.3623 15.5105 15.6717 15.201 15.9812C14.8845 16.2978 14.6805 16.354 14.3358 16.0938C13.8997 15.7632 13.5339 15.728 13.0627 16.0445C12.5984 16.354 12.0498 16.5158 11.5011 16.6495C11.3253 16.6917 11.2338 16.7691 11.2198 16.9449C11.2198 16.959 11.2127 16.966 11.2057 16.9801C10.9665 18.1125 10.9032 18.0141 9.8833 18.0141C9.44016 18.0141 8.98998 18.007 8.54684 18.0141C8.18107 18.0211 7.93488 17.8523 7.90675 17.5076C7.85751 16.8957 7.56912 16.5862 6.96419 16.4877C6.6758 16.4455 6.40851 16.2767 6.09198 16.1501L6.09901 16.136Z" fill="#164FDA"/>
<path id="Vector_2" d="M9.52466 5.31068C9.82009 5.31068 10.1085 5.34585 10.3969 5.41619C10.8611 5.52874 11.0088 5.97891 10.6782 6.32358C10.3265 6.69638 9.9467 7.05512 9.58797 7.42088C9.10965 7.91326 9.07448 8.55336 9.49652 8.98243C9.93263 9.42557 10.5798 9.39744 11.0862 8.90506C11.4379 8.56039 11.7896 8.21573 12.1272 7.86403C12.2961 7.68818 12.493 7.60377 12.7251 7.67411C12.9432 7.74445 13.0417 7.92733 13.0909 8.14539C13.7169 10.9097 11.2691 13.2802 8.53286 12.5487C8.31481 12.4924 8.19523 12.5346 8.04752 12.6823C6.47894 14.2579 4.90332 15.8335 3.32771 17.4092C2.80016 17.9367 2.19523 18.1548 1.47777 17.8593C0.485972 17.4514 0.176476 16.2204 0.872842 15.4045C1.30192 14.9121 1.78726 14.4619 2.25151 13.9977C3.43322 12.8089 4.62196 11.6272 5.81071 10.4455C5.95842 10.2978 6.01469 10.1782 5.95842 9.96016C5.31129 7.58267 7.06276 5.30365 9.53169 5.30365L9.52466 5.31068Z" fill="#164FDA"/>
</g>
<defs>
<clipPath id="clip0_7177_62838">
<rect width="18" height="18" fill="white" transform="translate(0.5)"/>
</clipPath>
</defs>
</svg>
