<svg width="42" height="15" viewBox="0 0 42 15" fill="none" xmlns="http://www.w3.org/2000/svg">
<g id="prelevement-sepa-mode 3" ClipPath="url(#clip0_936_7574)">
<path id="path5605" d="M0.0131836 13.6521L0.44429 13.6106C0.457403 13.7307 0.512116 13.8425 0.599086 13.927C0.690081 13.998 0.803947 14.0338 0.919514 14.0277C1.03436 14.0359 1.1485 14.0041 1.24226 13.9378C1.27533 13.9133 1.30229 13.8815 1.32107 13.8451C1.33986 13.8086 1.34997 13.7683 1.35062 13.7274C1.35173 13.6796 1.33553 13.633 1.30496 13.596C1.26066 13.5519 1.2058 13.5197 1.14552 13.5023C1.09392 13.4844 0.975756 13.4527 0.791033 13.4071C0.610272 13.3742 0.439506 13.3006 0.291816 13.1921C0.227783 13.1383 0.176481 13.0712 0.141565 12.9956C0.106648 12.9199 0.0889765 12.8375 0.0898076 12.7543C0.090511 12.6448 0.123616 12.538 0.185007 12.4471C0.251825 12.3462 0.34829 12.2682 0.461318 12.2236C0.599312 12.1691 0.747037 12.1429 0.89552 12.1468C1.11693 12.1314 1.33658 12.1951 1.5147 12.3265C1.58368 12.3862 1.63894 12.4598 1.67673 12.5425C1.71452 12.6252 1.73396 12.715 1.73374 12.8058L1.29102 12.8249C1.28214 12.7324 1.23882 12.6464 1.16951 12.5838C1.0871 12.5279 0.988214 12.5008 0.888555 12.507C0.782292 12.5004 0.676635 12.5272 0.586702 12.5838C0.564459 12.5986 0.546344 12.6188 0.534034 12.6424C0.521723 12.6661 0.515614 12.6924 0.51627 12.719C0.516298 12.7445 0.522246 12.7697 0.533653 12.7926C0.54506 12.8155 0.561622 12.8355 0.582059 12.8511C0.7074 12.9243 0.845501 12.9736 0.989172 12.9962C1.15386 13.0287 1.31414 13.0803 1.46672 13.1498C1.5661 13.2005 1.64981 13.2769 1.70897 13.371C1.7703 13.4763 1.8006 13.5966 1.79643 13.7181C1.79651 13.8425 1.76021 13.9641 1.69195 14.0684C1.62102 14.1779 1.51738 14.2628 1.39551 14.3111C1.24318 14.3673 1.0812 14.3934 0.91874 14.3878C0.689752 14.407 0.461536 14.3431 0.276337 14.2081C0.120134 14.063 0.025951 13.864 0.0131836 13.6521Z" fill="#FB3640"/>
<path id="path5607" d="M2.25781 12.1846H2.67808V12.5686H2.25781V12.1846ZM2.25781 12.7844H2.67808V14.3611H2.25781V12.7844Z" fill="#FB3640"/>
<path id="path5611" d="M4.64689 14.3603H4.22662V13.5554C4.23255 13.4446 4.22344 13.3335 4.19953 13.2252C4.18384 13.1779 4.15316 13.1369 4.11207 13.1084C4.06881 13.0799 4.0177 13.0654 3.96579 13.067C3.89592 13.0661 3.8275 13.0867 3.76997 13.1261C3.71405 13.1626 3.67209 13.2167 3.65078 13.2797C3.62353 13.3985 3.6126 13.5205 3.61827 13.6422V14.3564H3.198V12.7836H3.58499V13.014C3.6708 12.8969 3.79374 12.8119 3.93409 12.7725C4.07445 12.733 4.22407 12.7415 4.35897 12.7966C4.42694 12.8234 4.48689 12.8671 4.53311 12.9233C4.57262 12.9753 4.60058 13.035 4.61515 13.0984C4.63312 13.1908 4.6409 13.2848 4.63837 13.3788L4.64689 14.3603Z" fill="#FB3640"/>
<path id="path5615" d="M5.1246 14.4641L5.60447 14.5225C5.60555 14.5443 5.61104 14.5656 5.62061 14.5853C5.63019 14.605 5.64365 14.6225 5.66019 14.6369C5.71683 14.6712 5.78293 14.6867 5.84905 14.6814C5.93425 14.6866 6.01934 14.6697 6.09594 14.6323C6.13506 14.6077 6.16455 14.5706 6.17953 14.5271C6.1957 14.4647 6.20222 14.4002 6.19888 14.3358V14.1054C6.14732 14.1839 6.07687 14.2483 5.99389 14.293C5.91092 14.3377 5.81805 14.3611 5.72366 14.3612C5.623 14.3634 5.52348 14.3398 5.43468 14.2927C5.34588 14.2456 5.27081 14.1766 5.2167 14.0924C5.11426 13.9354 5.06293 13.7509 5.06965 13.564C5.05466 13.3454 5.12349 13.1292 5.26237 12.9588C5.32177 12.8914 5.39529 12.8378 5.47778 12.8016C5.56026 12.7654 5.64973 12.7475 5.73991 12.7491C5.83599 12.7487 5.93067 12.7719 6.01549 12.8167C6.10031 12.8614 6.17263 12.9264 6.22597 13.0056V12.7845H6.61915V14.1984C6.62474 14.3389 6.60909 14.4795 6.57272 14.6154C6.54802 14.6971 6.50336 14.7715 6.44269 14.832C6.37824 14.8889 6.30183 14.9309 6.21901 14.9549C6.10405 14.9874 5.98479 15.0024 5.8653 14.9994C5.66434 15.0174 5.46301 14.9691 5.29255 14.8619C5.23914 14.8209 5.19609 14.7681 5.1668 14.7077C5.13751 14.6474 5.1228 14.581 5.12383 14.514L5.1246 14.4641ZM5.49998 13.5425C5.48928 13.6724 5.52399 13.8021 5.59827 13.9096C5.62683 13.946 5.66348 13.9755 5.70536 13.9956C5.74724 14.0157 5.79323 14.026 5.83976 14.0256C5.88928 14.0261 5.93831 14.0157 5.98328 13.9951C6.02826 13.9745 6.06806 13.9442 6.09981 13.9065C6.17751 13.8053 6.21522 13.6794 6.20585 13.5525C6.21604 13.4233 6.18015 13.2947 6.10446 13.1892C6.07343 13.1512 6.03409 13.1208 5.98944 13.1002C5.94478 13.0795 5.89597 13.0693 5.84672 13.0702C5.79898 13.0691 5.75164 13.079 5.70841 13.0991C5.66517 13.1193 5.62722 13.149 5.5975 13.1861C5.52418 13.2898 5.48943 13.4155 5.49921 13.5417" fill="#FB3640"/>
<path id="path5617" d="M7.12524 12.1846H7.54552V14.3603H7.12524V12.1846Z" fill="#FB3640"/>
<path id="path5621" d="M8.98834 13.8585L9.40707 13.9284C9.36196 14.0686 9.27237 14.1907 9.15165 14.2763C9.02232 14.3599 8.87013 14.4017 8.7159 14.3961C8.59921 14.4049 8.48214 14.3849 8.37507 14.338C8.26801 14.2911 8.17426 14.2188 8.10214 14.1273C7.99337 13.9674 7.93912 13.7771 7.94734 13.5843C7.93398 13.3608 8.008 13.1407 8.15399 12.9699C8.21972 12.8978 8.30035 12.8407 8.39038 12.8024C8.48042 12.7641 8.57773 12.7455 8.67566 12.748C8.78032 12.7427 8.88484 12.7607 8.98163 12.8006C9.07842 12.8404 9.16505 12.9011 9.23524 12.9784C9.3871 13.1834 9.45688 13.4371 9.43106 13.6903H8.37845C8.37479 13.7957 8.41095 13.8987 8.47984 13.9791C8.51049 14.0124 8.54797 14.0388 8.58975 14.0565C8.63153 14.0743 8.67665 14.083 8.72209 14.082C8.78218 14.0839 8.84105 14.0649 8.8885 14.0282C8.93934 13.9826 8.97475 13.9225 8.98989 13.8562M9.01389 13.4346C9.01815 13.3344 8.98446 13.2363 8.91946 13.1596C8.89191 13.1294 8.8582 13.1054 8.82057 13.0891C8.78294 13.0728 8.74225 13.0646 8.7012 13.0651C8.6582 13.0642 8.61552 13.0726 8.57619 13.0899C8.53686 13.1071 8.50185 13.1328 8.47365 13.165C8.41048 13.2406 8.37891 13.3373 8.38541 13.4353L9.01389 13.4346Z" fill="#FB3640"/>
<path id="path5625" d="M10.8118 14.3603V12.1846H12.4371V12.5524H11.2545V13.0348H12.3551V13.4011H11.2545V13.9932H12.4797V14.3596L10.8118 14.3603Z" fill="#FB3640"/>
<path id="path5629" d="M13.9889 14.3604V14.1246C13.9308 14.2089 13.8523 14.2773 13.7606 14.3235C13.6685 14.3716 13.5659 14.3967 13.4618 14.3965C13.3616 14.3982 13.2627 14.3741 13.1747 14.3266C13.093 14.2836 13.0281 14.2146 12.9905 14.1308C12.9479 14.0196 12.9287 13.9009 12.934 13.7821V12.7837H13.3542V13.5079C13.3479 13.6443 13.3557 13.7809 13.3775 13.9157C13.3912 13.9637 13.421 14.0057 13.4618 14.0348C13.5075 14.0651 13.5617 14.0805 13.6166 14.0786C13.6857 14.0796 13.7533 14.0592 13.8101 14.0202C13.8637 13.9851 13.9047 13.934 13.927 13.8743C13.9556 13.7343 13.9662 13.5914 13.9587 13.4488V12.7837H14.379V14.3604H13.9889Z" fill="#FB3640"/>
<path id="path5633" d="M15.3085 14.3604H14.8882V12.7837H15.2752V13.008C15.32 12.9264 15.3814 12.855 15.4555 12.7983C15.5099 12.7642 15.5731 12.7466 15.6374 12.7476C15.7351 12.7476 15.8309 12.7741 15.9145 12.8244L15.7844 13.1877C15.7266 13.1466 15.6581 13.1229 15.5871 13.1193C15.5331 13.1177 15.4803 13.1348 15.4377 13.1677C15.388 13.2144 15.3542 13.2754 15.341 13.342C15.31 13.5164 15.2981 13.6935 15.3054 13.8704L15.3085 14.3604Z" fill="#FB3640"/>
<path id="path5637" d="M16.0933 13.5499C16.0936 13.4094 16.129 13.2712 16.1962 13.1475C16.2611 13.0213 16.3632 12.9177 16.4888 12.8503C16.6186 12.7811 16.764 12.746 16.9114 12.7481C17.0206 12.744 17.1295 12.7624 17.2313 12.802C17.333 12.8417 17.4254 12.9018 17.5027 12.9785C17.6517 13.1394 17.7343 13.3499 17.7343 13.5684C17.7343 13.7868 17.6517 13.9973 17.5027 14.1582C17.4268 14.2355 17.3355 14.2963 17.2346 14.3368C17.1338 14.3773 17.0255 14.3965 16.9168 14.3932C16.7722 14.3936 16.6295 14.3602 16.5004 14.2957C16.372 14.2338 16.2667 14.1333 16.1993 14.0084C16.1267 13.8658 16.0914 13.7073 16.0964 13.5476M16.5275 13.5699C16.5186 13.6994 16.5586 13.8275 16.6397 13.9293C16.6741 13.9684 16.7166 13.9998 16.7643 14.0213C16.8119 14.0428 16.8637 14.0539 16.916 14.0539C16.9683 14.0539 17.0201 14.0428 17.0677 14.0213C17.1154 13.9998 17.1579 13.9684 17.1923 13.9293C17.2731 13.8262 17.3128 13.6971 17.3038 13.5668C17.3122 13.4385 17.2725 13.3115 17.1923 13.2105C17.1578 13.1715 17.1153 13.1402 17.0677 13.1188C17.02 13.0974 16.9683 13.0863 16.916 13.0863C16.8637 13.0863 16.812 13.0974 16.7643 13.1188C16.7167 13.1402 16.6742 13.1715 16.6397 13.2105C16.5586 13.3123 16.5186 13.4404 16.5275 13.5699Z" fill="#FB3640"/>
<path id="path5641" d="M19.0996 14.3605V12.1847H19.8101C19.9862 12.1776 20.1626 12.1884 20.3364 12.217C20.463 12.2502 20.5744 12.3252 20.6522 12.4297C20.7412 12.5529 20.7859 12.7022 20.7791 12.8537C20.7828 12.9701 20.7576 13.0856 20.7056 13.19C20.6619 13.2754 20.5982 13.3492 20.5199 13.4051C20.4501 13.4544 20.3712 13.4893 20.2877 13.508C20.1359 13.5323 19.9823 13.5428 19.8287 13.5395H19.54V14.3605H19.0996ZM19.5423 12.5526V13.167H19.7846C19.9023 13.1737 20.0203 13.1623 20.1344 13.1332C20.191 13.1127 20.2397 13.075 20.2736 13.0255C20.3075 12.9761 20.3248 12.9173 20.3233 12.8575C20.3258 12.7857 20.3006 12.7156 20.2528 12.6617C20.2061 12.6105 20.1434 12.5764 20.0748 12.5649C19.969 12.5522 19.8625 12.5473 19.7559 12.5503L19.5423 12.5526Z" fill="#FB3640"/>
<path id="path5645" d="M21.5461 13.2652L21.1646 13.1968C21.1958 13.0615 21.2742 12.9416 21.3859 12.8581C21.5261 12.776 21.6879 12.7378 21.8503 12.7483C21.993 12.7406 22.1358 12.7631 22.269 12.8143C22.3497 12.8485 22.4174 12.9071 22.4625 12.9818C22.5087 13.1006 22.5277 13.228 22.5183 13.355L22.5136 13.8419C22.5108 13.9447 22.5176 14.0476 22.5337 14.1491C22.5503 14.2225 22.5763 14.2935 22.6111 14.3603H22.1955C22.1847 14.3327 22.1707 14.2912 22.1545 14.2375C22.1475 14.2129 22.1429 14.196 22.1398 14.1883C22.0726 14.2532 21.9938 14.3053 21.9076 14.3419C21.8248 14.3766 21.7358 14.3941 21.646 14.3934C21.5046 14.4012 21.3656 14.3538 21.259 14.2613C21.2128 14.2188 21.1762 14.1671 21.1518 14.1094C21.1273 14.0518 21.1156 13.9897 21.1174 13.9272C21.1159 13.8434 21.1382 13.7609 21.1816 13.6891C21.2245 13.6192 21.2873 13.5634 21.3619 13.5286C21.4689 13.4828 21.5812 13.4503 21.6963 13.4318C21.8351 13.4104 21.9717 13.3762 22.1042 13.3297V13.2882C22.1074 13.2571 22.1037 13.2256 22.0935 13.196C22.0832 13.1665 22.0665 13.1395 22.0446 13.1169C21.9771 13.0754 21.8976 13.0573 21.8186 13.0655C21.7571 13.0619 21.6961 13.0772 21.6437 13.1093C21.5949 13.149 21.5595 13.2026 21.5423 13.2629M22.1042 13.6016C22.0508 13.6192 21.9656 13.6407 21.8488 13.6653C21.7679 13.6772 21.6896 13.7018 21.6166 13.7383C21.5915 13.7538 21.5709 13.7755 21.5565 13.8011C21.5422 13.8268 21.5346 13.8556 21.5345 13.8849C21.534 13.9137 21.5396 13.9423 21.5509 13.9687C21.5622 13.9952 21.5791 14.019 21.6003 14.0386C21.6225 14.0596 21.6488 14.0761 21.6775 14.0871C21.7062 14.098 21.7368 14.1032 21.7675 14.1023C21.8462 14.1006 21.9222 14.0736 21.9842 14.0255C22.0322 13.9917 22.0676 13.9431 22.0848 13.8873C22.0984 13.8203 22.1038 13.752 22.1011 13.6837L22.1042 13.6016Z" fill="#FB3640"/>
<path id="path5649" d="M22.8286 12.7837H23.276L23.656 13.9027L24.0267 12.7837H24.4625L23.9014 14.3005L23.8015 14.5747C23.7739 14.6485 23.7386 14.7193 23.6962 14.7859C23.6653 14.8319 23.6262 14.8719 23.5809 14.9042C23.5321 14.9368 23.4778 14.9607 23.4207 14.9748C23.3507 14.9925 23.2786 15.001 23.2063 15.0002C23.1264 15.0002 23.0468 14.9917 22.9687 14.9748L22.9308 14.6484C22.9894 14.6604 23.049 14.6668 23.1088 14.6676C23.1491 14.6709 23.1896 14.6649 23.2272 14.6501C23.2648 14.6353 23.2984 14.6121 23.3255 14.5824C23.3763 14.5181 23.4132 14.4441 23.4339 14.365L22.8286 12.7837Z" fill="#FB3640"/>
<path id="path5653" d="M24.7921 12.7845H25.1791V12.9995C25.2364 12.9224 25.311 12.8596 25.3969 12.816C25.4829 12.7724 25.5779 12.7493 25.6744 12.7484C25.7666 12.7461 25.8577 12.7676 25.9391 12.8106C26.0169 12.8554 26.0807 12.9208 26.1233 12.9995C26.185 12.922 26.2619 12.8578 26.3493 12.8106C26.4291 12.7693 26.5178 12.7479 26.6078 12.7484C26.7109 12.745 26.813 12.7691 26.9035 12.8182C26.9849 12.8661 27.0485 12.9388 27.0846 13.0256C27.119 13.1309 27.1337 13.2415 27.1279 13.352V14.3596H26.7077V13.4611C26.717 13.3582 26.7021 13.2547 26.6643 13.1585C26.6451 13.1292 26.6183 13.1055 26.5867 13.0898C26.5551 13.0741 26.52 13.0671 26.4848 13.0694C26.425 13.0696 26.3668 13.0884 26.3184 13.1231C26.265 13.1608 26.2256 13.2147 26.2061 13.2767C26.1784 13.383 26.1666 13.4927 26.1713 13.6024V14.3596H25.751V13.4972C25.7561 13.3976 25.7485 13.2977 25.7286 13.1999C25.7171 13.16 25.6926 13.1249 25.6589 13.1001C25.6207 13.0766 25.5761 13.0654 25.5312 13.0678C25.469 13.0672 25.4081 13.0851 25.3563 13.1193C25.3026 13.1565 25.2633 13.2106 25.2449 13.2729C25.2174 13.3789 25.206 13.4884 25.2108 13.5978V14.3658H24.7905L24.7921 12.7845Z" fill="#FB3640"/>
<path id="path5657" d="M28.5591 13.8585L28.9779 13.9284C28.9327 14.0687 28.8432 14.1907 28.7224 14.2763C28.5931 14.3598 28.4409 14.4017 28.2867 14.3961C28.17 14.4049 28.0529 14.3849 27.9459 14.338C27.8388 14.2911 27.745 14.2188 27.6729 14.1273C27.5642 13.9674 27.5099 13.7771 27.5181 13.5843C27.5048 13.3608 27.5788 13.1408 27.7248 12.9699C27.7905 12.8978 27.8711 12.8407 27.9612 12.8024C28.0512 12.7641 28.1485 12.7455 28.2464 12.748C28.3511 12.7427 28.4556 12.7606 28.5524 12.8005C28.6492 12.8404 28.7359 12.9011 28.806 12.9784C28.9578 13.1835 29.0275 13.4371 29.0018 13.6903H27.9485C27.9448 13.7958 27.981 13.8987 28.0499 13.9791C28.0805 14.0124 28.118 14.0388 28.1598 14.0565C28.2015 14.0743 28.2467 14.083 28.2921 14.082C28.3522 14.0838 28.411 14.0648 28.4585 14.0282C28.5094 13.9826 28.5448 13.9225 28.5599 13.8562M28.5839 13.4346C28.588 13.3345 28.5543 13.2364 28.4895 13.1596C28.4607 13.1294 28.4259 13.1055 28.3874 13.0893C28.3488 13.0731 28.3073 13.065 28.2654 13.0655C28.2235 13.066 28.1822 13.0751 28.144 13.0922C28.1059 13.1093 28.0717 13.1341 28.0437 13.165C27.9805 13.2406 27.9489 13.3373 27.9554 13.4353L28.5839 13.4346Z" fill="#FB3640"/>
<path id="path5661" d="M30.8796 14.3601H30.4593V13.5552C30.4651 13.4444 30.456 13.3334 30.4322 13.225C30.4165 13.1777 30.3858 13.1368 30.3447 13.1083C30.3015 13.0797 30.2504 13.0652 30.1985 13.0668C30.1286 13.0659 30.0602 13.0866 30.0026 13.1259C29.9468 13.1625 29.9048 13.2166 29.8834 13.2795C29.8564 13.3984 29.8455 13.5203 29.8509 13.642V14.3563H29.4307V12.7834H29.8177V13.0138C29.9036 12.8969 30.0265 12.8119 30.1668 12.7725C30.3071 12.7331 30.4567 12.7415 30.5916 12.7964C30.6596 12.8233 30.7195 12.8669 30.7658 12.9232C30.8053 12.9751 30.8333 13.0348 30.8478 13.0983C30.8658 13.1906 30.8735 13.2846 30.871 13.3786L30.8796 14.3601Z" fill="#FB3640"/>
<path id="path5665" d="M32.1232 12.7843V13.1169H31.836V13.752C31.8334 13.8272 31.8363 13.9024 31.8445 13.9771L31.8817 14.0301C31.9026 14.0444 31.9275 14.0516 31.9529 14.0508C32.0109 14.0465 32.0679 14.033 32.1216 14.0109L32.1572 14.3342C32.052 14.3772 31.939 14.3983 31.8252 14.3964C31.7552 14.3973 31.6858 14.3845 31.6208 14.3588C31.5677 14.3392 31.5213 14.3051 31.4869 14.2605C31.455 14.2116 31.4346 14.1562 31.4274 14.0984C31.4154 14.0008 31.4107 13.9025 31.4134 13.8043V13.1169H31.2207V12.7843H31.4134V12.471L31.8352 12.2275V12.7843H32.1232Z" fill="#FB3640"/>
<path id="path5669" d="M32.3616 13.9103L32.7834 13.8466C32.7964 13.919 32.8351 13.9844 32.8925 14.0309C32.9607 14.077 33.0424 14.0991 33.1247 14.0939C33.2107 14.0998 33.2964 14.0792 33.3701 14.0347C33.3877 14.022 33.4019 14.0052 33.4114 13.9858C33.421 13.9664 33.4257 13.945 33.425 13.9234C33.4254 13.8948 33.4146 13.8673 33.3948 13.8466C33.3526 13.818 33.3045 13.7994 33.254 13.792C33.03 13.7565 32.8127 13.6879 32.6092 13.5885C32.5496 13.5506 32.501 13.4979 32.468 13.4357C32.4351 13.3735 32.4189 13.3039 32.4212 13.2337C32.4205 13.1678 32.4348 13.1027 32.4631 13.0431C32.4914 12.9835 32.5329 12.9311 32.5845 12.8896C32.7312 12.7851 32.9106 12.7359 33.0907 12.7506C33.259 12.739 33.4271 12.7755 33.5752 12.8558C33.6837 12.93 33.7613 13.0408 33.7934 13.1676L33.3972 13.2406C33.3832 13.1834 33.3489 13.1332 33.3004 13.0993C33.2393 13.063 33.1687 13.0459 33.0976 13.0501C33.0157 13.044 32.9336 13.06 32.86 13.0962C32.8453 13.105 32.8332 13.1174 32.8248 13.1322C32.8164 13.147 32.812 13.1637 32.812 13.1807C32.8121 13.196 32.816 13.2111 32.8234 13.2245C32.8309 13.2379 32.8416 13.2493 32.8546 13.2575C32.9796 13.3135 33.1116 13.353 33.247 13.375C33.415 13.4022 33.5751 13.4654 33.716 13.5601C33.7599 13.5982 33.7944 13.6456 33.8172 13.6988C33.84 13.752 33.8504 13.8096 33.8476 13.8673C33.8475 13.939 33.8309 14.0098 33.7993 14.0743C33.7677 14.1388 33.7217 14.1954 33.6649 14.2398C33.5087 14.3538 33.3165 14.4083 33.1232 14.3934C32.9424 14.403 32.7631 14.3574 32.6092 14.2628C32.4853 14.179 32.397 14.0526 32.3616 13.908" fill="#FB3640"/>
<path id="path5673" d="M37.1154 14.3603H36.634L36.4428 13.8657H35.5667L35.3856 14.3603H34.9158L35.7671 12.1846H36.2354L37.1154 14.3603ZM36.3004 13.4994L35.9978 12.6922L35.7014 13.4994H36.3004Z" fill="#FB3640"/>
<path id="path5677" d="M37.8414 14.3604H37.4211V12.7837H37.8081V13.008C37.853 12.9264 37.9144 12.855 37.9885 12.7983C38.0429 12.7642 38.1061 12.7466 38.1704 12.7476C38.2681 12.7476 38.3639 12.7741 38.4474 12.8244L38.3174 13.1877C38.2596 13.1466 38.1911 13.1229 38.12 13.1193C38.0661 13.1177 38.0133 13.1348 37.9707 13.1677C37.921 13.2145 37.8872 13.2754 37.8739 13.342C37.8435 13.5164 37.8318 13.6936 37.8391 13.8704L37.8414 14.3604Z" fill="#FB3640"/>
<path id="path5681" d="M39.6423 13.8585L40.0611 13.9284C40.0162 14.0686 39.9269 14.1906 39.8064 14.2763C39.677 14.3597 39.5249 14.4016 39.3707 14.3961C39.254 14.4049 39.1369 14.3849 39.0298 14.338C38.9228 14.2911 38.829 14.2188 38.7569 14.1273C38.6481 13.9674 38.5939 13.7771 38.6021 13.5843C38.5888 13.3608 38.6628 13.1408 38.8088 12.9699C38.8745 12.8978 38.9551 12.8407 39.0451 12.8024C39.1352 12.7641 39.2325 12.7455 39.3304 12.748C39.4351 12.7427 39.5396 12.7606 39.6364 12.8005C39.7332 12.8404 39.8199 12.9011 39.89 12.9784C40.0419 13.184 40.1114 13.4383 40.0851 13.6919H39.0317C39.028 13.7973 39.0642 13.9003 39.1331 13.9806C39.1637 14.0139 39.2012 14.0403 39.243 14.0581C39.2848 14.0758 39.3299 14.0845 39.3753 14.0835C39.4354 14.0854 39.4942 14.0664 39.5417 14.0298C39.5926 13.9842 39.628 13.9241 39.6431 13.8577M39.6671 13.4361C39.6712 13.336 39.6375 13.2379 39.5727 13.1612C39.5439 13.131 39.5091 13.107 39.4706 13.0908C39.432 13.0746 39.3905 13.0665 39.3486 13.067C39.3067 13.0675 39.2654 13.0766 39.2272 13.0938C39.1891 13.1109 39.1549 13.1357 39.1269 13.1665C39.0637 13.2421 39.0321 13.3389 39.0386 13.4369L39.6671 13.4361Z" fill="#FB3640"/>
<path id="path5685" d="M40.8336 13.2652L40.4521 13.1968C40.4834 13.0616 40.5617 12.9416 40.6734 12.8581C40.8136 12.7761 40.9754 12.7378 41.1378 12.7483C41.2805 12.7405 41.4233 12.7631 41.5565 12.8143C41.6372 12.8486 41.7049 12.9072 41.75 12.9818C41.7965 13.1005 41.8158 13.228 41.8065 13.355L41.8019 13.8419C41.7992 13.9447 41.806 14.0475 41.822 14.1491C41.8386 14.2225 41.8646 14.2935 41.8994 14.3603H41.4838C41.4722 14.3327 41.459 14.2912 41.4435 14.2375C41.4366 14.2129 41.4312 14.196 41.4288 14.1883C41.3616 14.2532 41.2829 14.3053 41.1966 14.3419C41.1139 14.3766 41.0249 14.3941 40.935 14.3934C40.7936 14.4012 40.6547 14.3538 40.548 14.2613C40.5018 14.2188 40.4653 14.167 40.4409 14.1094C40.4165 14.0518 40.4047 13.9897 40.4064 13.9272C40.4049 13.8434 40.4271 13.7609 40.4706 13.6891C40.5137 13.6193 40.5764 13.5635 40.651 13.5286C40.758 13.4828 40.8703 13.4503 40.9853 13.4318C41.1244 13.4104 41.2613 13.3762 41.394 13.3297V13.2882C41.3973 13.2571 41.3936 13.2256 41.3833 13.196C41.373 13.1664 41.3563 13.1394 41.3344 13.1169C41.2669 13.0753 41.1874 13.0572 41.1084 13.0655C41.047 13.062 40.9859 13.0773 40.9335 13.1092C40.8847 13.149 40.8493 13.2026 40.8321 13.2628M41.3948 13.6015C41.3414 13.6192 41.2562 13.6407 41.1394 13.6653C41.0585 13.6771 40.9801 13.7017 40.9072 13.7382C40.8821 13.7538 40.8614 13.7754 40.8471 13.8011C40.8328 13.8268 40.8252 13.8556 40.8251 13.8849C40.8246 13.9137 40.8302 13.9422 40.8415 13.9687C40.8528 13.9952 40.8697 14.019 40.8909 14.0385C40.9132 14.0597 40.9396 14.0763 40.9684 14.0872C40.9973 14.0981 41.028 14.1033 41.0589 14.1023C41.1376 14.1006 41.2136 14.0737 41.2756 14.0255C41.3237 13.9918 41.3591 13.9431 41.3762 13.8872C41.3899 13.8203 41.3953 13.752 41.3925 13.6837L41.3948 13.6015Z" fill="#FB3640"/>
<path id="path5689" d="M9.331 3.63259H6.45722C6.4873 3.30896 6.43014 2.98321 6.29159 2.68871C6.12183 2.4537 5.64996 2.33619 4.87598 2.33619C4.37029 2.2963 3.8619 2.366 3.38607 2.54048C3.14097 2.67719 3.01843 2.97467 3.01843 3.43291C2.99622 3.5855 3.01436 3.74119 3.07108 3.88472C3.12779 4.02824 3.22114 4.15468 3.34195 4.25161C3.53016 4.35399 3.74037 4.41009 3.95494 4.4152L4.53697 4.45513C5.77895 4.53654 6.55474 4.59389 6.86433 4.62717C7.64301 4.64685 8.39358 4.91994 9.00051 5.40439C9.35425 5.74604 9.57377 6.20157 9.6197 6.68927C9.66074 7.0462 9.68012 7.40525 9.67775 7.76449C9.71218 8.44606 9.62252 9.12821 9.41304 9.77821C9.2162 10.1913 8.91321 10.5457 8.53456 10.8058C8.15591 11.0658 7.71493 11.2224 7.25596 11.2597C6.54456 11.3638 5.82553 11.4078 5.10662 11.391C3.97744 11.4387 2.84675 11.3427 1.74213 11.1053C1.38612 11.0141 1.05893 10.8355 0.790611 10.586C0.522295 10.3366 0.32146 10.0242 0.206559 9.6776C0.0390212 9.03015 -0.0306237 8.36159 -9.35043e-05 7.69383H2.87369C2.87369 7.79674 2.87369 7.87662 2.87369 7.93114C2.87369 8.42574 3.01688 8.7437 3.30325 8.88501C3.5284 8.98792 3.77363 9.04037 4.0215 9.03862H5.07799C5.42406 9.05782 5.77115 9.03017 6.1097 8.95644C6.22845 8.91709 6.33685 8.85192 6.42697 8.76569C6.51709 8.67945 6.58666 8.57433 6.63059 8.458C6.67928 8.27936 6.70144 8.09463 6.69638 7.90964C6.69638 7.40839 6.51217 7.10297 6.14376 6.9934C5.50679 6.8979 4.86493 6.8379 4.22119 6.81369C3.30274 6.74867 2.66472 6.68595 2.30714 6.62553C1.93311 6.5941 1.57067 6.48124 1.24559 6.295C0.920518 6.10876 0.640809 5.85372 0.426369 5.54801C0.109903 4.89389 -0.0321361 4.17013 0.0138381 3.44597C-0.00474587 2.86541 0.0705095 2.28564 0.236744 1.7287C0.360506 1.33166 0.613357 0.986503 0.955771 0.747181C1.5077 0.381028 2.15008 0.171737 2.81332 0.141989C3.44231 0.0877167 4.13967 0.0603244 4.90539 0.0598124C5.7699 0.0291428 6.63507 0.0982145 7.48351 0.265639C8.73427 0.598955 9.35964 1.53286 9.35964 3.06734C9.35964 3.19329 9.35035 3.38145 9.33178 3.63259" fill="#FB3640"/>
<path id="path5693" d="M21.9702 11.3888V1.35987e-05H27.7255C28.3335 -0.0211546 28.9415 0.0434921 29.5312 0.192016C29.9734 0.315088 30.3783 0.544029 30.7104 0.858725C31.0425 1.17342 31.2917 1.56424 31.436 1.99684C31.6331 2.69899 31.7183 3.42743 31.6883 4.15571C31.7277 4.99525 31.6339 5.83571 31.4104 6.64637C31.2445 7.12436 30.9399 7.54304 30.5349 7.8498C30.1299 8.15656 29.6426 8.33773 29.1342 8.37055C28.9995 8.39308 28.4252 8.41254 27.4113 8.42892L26.8989 8.44582H25.0576V11.3865L21.9702 11.3888ZM25.0592 5.80617H26.9848C27.3621 5.82021 27.7392 5.77247 28.1009 5.66485C28.2027 5.59814 28.2883 5.50989 28.3516 5.40645C28.4149 5.30301 28.4543 5.18693 28.467 5.06657C28.5128 4.77267 28.5323 4.4753 28.525 4.17799C28.5399 3.81582 28.5005 3.45347 28.4082 3.10277C28.3471 2.93746 28.2393 2.79315 28.0976 2.68716C27.9559 2.58117 27.7864 2.51801 27.6094 2.50526C27.5258 2.49451 27.3262 2.48837 27.0104 2.48837H25.0592V5.80617Z" fill="#FB3640"/>
<path id="path5697" d="M38.2825 9.42041H34.1526L33.5976 11.3888H30.4019L33.8499 0H38.5093L41.9999 11.3888H38.8715L38.2825 9.42041ZM37.6687 7.20163L36.2214 2.26486L34.8166 7.20163H37.6687Z" fill="#FB3640"/>
<path id="path5701" d="M17.7055 1.60229C18.311 1.602 18.9089 1.73606 19.4554 1.99466C20.0019 2.25325 20.4832 2.62983 20.8641 3.09683L21.5298 1.67985C20.8439 1.03925 20.0124 0.572355 19.1058 0.318827C18.1992 0.0652991 17.2444 0.0326274 16.3224 0.223586C15.4003 0.414546 14.5384 0.823494 13.8097 1.4157C13.081 2.0079 12.5071 2.76587 12.1368 3.62522H10.8388L10.0718 5.25648H11.742C11.7296 5.41008 11.7211 5.55907 11.7211 5.71728C11.7213 5.90248 11.7308 6.08755 11.7498 6.27179H10.9108L10.1445 7.90304H12.1778C12.6336 8.92715 13.381 9.79686 14.3281 10.4054C15.2751 11.0139 16.3807 11.3347 17.5089 11.3284C18.6671 11.331 19.8 10.9926 20.7643 10.3561V8.35924C20.3509 8.82799 19.8338 9.19535 19.2533 9.43253C18.6729 9.66971 18.045 9.77026 17.4189 9.72629C16.7927 9.68232 16.1853 9.49503 15.6444 9.1791C15.1034 8.86317 14.6435 8.42719 14.3008 7.90534H18.5577L19.3232 6.27102H13.6731C13.6236 5.93476 13.6166 5.59369 13.6522 5.25571H19.8015L20.5677 3.62446H14.1808C14.5377 3.00991 15.0513 2.49942 15.67 2.14432C16.2887 1.78921 16.9908 1.60277 17.7055 1.60229Z" fill="#FDA7A9"/>
</g>
<defs>
<clipPath id="clip0_936_7574">
<rect width="42" height="15" fill="white"/>
</clipPath>
</defs>
</svg>
