<svg width="60" height="55" viewBox="0 0 60 55" fill="none" xmlns="http://www.w3.org/2000/svg">
<g id="Group 1216402430">
<path id="Vector" d="M58.2724 53.2115C56.6029 54.8914 53.7485 54.9902 52.0251 53.3597L46.3702 48.2213L37.3762 39.9208C36.0298 38.6856 35.1142 38.2903 31.7213 38.5374C28.3284 38.8338 24.7738 38.0927 22.081 35.6717C19.2266 33.1025 17.988 29.4463 18.4727 25.9384C18.5804 25.2467 19.3882 24.9502 19.9268 25.4443L24.8277 29.9404C25.3663 30.4345 26.1202 30.6321 26.8742 30.4345L30.321 29.4957C31.2366 29.2487 31.9367 28.557 32.1521 27.6182L32.96 24.2585C33.1216 23.5668 32.9061 22.8257 32.3676 22.3316L27.4666 17.8355C26.9281 17.3414 27.1974 16.5509 27.8975 16.4027C31.5059 15.7604 35.3297 16.7979 38.1302 19.4165C40.7692 21.8869 41.6847 25.2961 41.577 28.6064C41.4693 31.8673 41.954 32.7567 43.3004 33.9919L52.2944 42.2924L58.2724 47.7272C59.8881 49.2095 59.942 51.6305 58.434 53.1621L58.2724 53.2115Z" fill="#0A2463"/>
<path id="Vector_2" d="M44.593 50.3466L35.3297 41.799C35.2759 41.7496 35.1682 41.6508 35.1143 41.6014C33.4986 42.0955 31.7752 42.3425 29.998 42.3425C21.0578 42.3425 13.8411 35.7219 13.8411 27.5202C13.8411 19.3185 21.0578 12.6978 29.998 12.6978C38.9381 12.6978 46.1548 19.3185 46.1548 27.5202C46.1548 35.7219 45.8856 30.7317 45.347 32.1645L55.7413 41.7496C55.849 41.6014 55.9028 41.5026 56.0105 41.3544C56.8184 40.0698 57.357 38.9334 57.7339 38.1923C58.0032 37.55 57.7878 36.8583 57.1954 36.4136L53.4254 33.6962C53.8563 32.2139 54.1795 30.7317 54.2872 29.1506L58.865 27.7672C59.5651 27.5696 60.0498 26.9273 59.9959 26.2356C59.9959 25.3956 59.8882 24.2099 59.5651 22.7276C59.2958 21.2454 58.9188 20.109 58.6495 19.3185C58.4341 18.6762 57.734 18.2315 57.0338 18.2809L52.2406 18.4291C51.5405 16.9963 50.6788 15.6623 49.7094 14.4271L52.2406 10.6721C52.6176 10.0792 52.5637 9.33808 52.079 8.844C51.4866 8.25111 50.5711 7.36177 49.3324 6.42302C48.0937 5.48427 47.0166 4.79256 46.2087 4.34789C45.5624 4.00203 44.7546 4.05144 44.216 4.49611L40.6615 7.46059C39.1535 6.76888 37.5917 6.2748 35.9222 5.87953L35.222 1.53164C35.1143 0.839933 34.5219 0.345855 33.8218 0.247039C32.9601 0.148224 31.6136 0 29.998 0C28.3823 0 27.0359 0.0988157 26.1742 0.247039C25.4202 0.345855 24.8816 0.889341 24.7739 1.53164L24.0738 5.87953C22.4581 6.2748 20.8963 6.76888 19.4421 7.41118L15.8876 4.44671C15.349 4.00204 14.5412 3.90322 13.8949 4.29848C13.141 4.74315 12.01 5.43486 10.7713 6.37361C9.53256 7.31236 8.61703 8.2017 7.97076 8.7946C7.48605 9.28868 7.37831 10.0298 7.80916 10.6227L10.3404 14.3777C9.371 15.6129 8.50929 16.9469 7.80916 18.3797L3.01597 18.2315C2.26198 18.2315 1.61569 18.6268 1.34641 19.2691C1.07713 20.0596 0.700158 21.196 0.430877 22.6782C0.161595 24.1604 0.0538563 25.3462 0 26.1862C0 26.8779 0.43087 27.4708 1.131 27.7178L5.70879 29.1012C5.8165 30.6823 6.13962 32.2139 6.57047 33.6468L2.80053 36.3642C2.20811 36.7594 1.99269 37.5006 2.26197 38.1429C2.58511 38.884 3.12369 40.0204 3.93154 41.305C4.73938 42.5896 5.49337 43.5777 6.08579 44.22C6.51664 44.7635 7.32447 44.9612 8.0246 44.7141L12.4947 43.0837C13.6795 44.1706 14.9721 45.2082 16.3185 46.0481L15.2952 50.3466C15.1336 51.0383 15.5106 51.6806 16.1569 52.0265C16.9647 52.4217 18.1496 52.9652 19.6575 53.4593C21.1655 53.9534 22.4581 54.2992 23.3198 54.4475C24.0738 54.5957 24.7739 54.2992 25.1509 53.6569L27.4129 49.7537C28.2746 49.8525 29.1363 49.8525 29.998 49.8525C30.8597 49.8525 31.6675 49.8525 32.4754 49.7537L34.7373 53.6569C35.0604 54.2498 35.8144 54.5957 36.5684 54.4475C37.4301 54.2992 38.7227 54.0028 40.2845 53.4593C41.7925 52.9652 43.0312 52.4217 43.7852 52.0265C44.4315 51.73 44.8084 51.0383 44.6469 50.3466V50.2478L44.593 50.3466Z" fill="#0A2463"/>
</g>
</svg>
