<svg width="48" height="48" viewBox="0 0 48 48" fill="none" xmlns="http://www.w3.org/2000/svg">
<g id="thumbs-up">
<path id="Primary" d="M30.3562 2.01859C26.775 0.996716 23.0344 3.06859 22.0125 6.64984L21.4781 8.52484C21.1313 9.74359 20.5031 10.8686 19.65 11.8061L14.8406 17.0936C14.0063 18.0123 14.0719 19.4373 14.9906 20.2717C15.9094 21.1061 17.3344 21.0405 18.1688 20.1217L22.9781 14.8342C24.3 13.3811 25.2656 11.6467 25.8 9.76234L26.3344 7.88734C26.6719 6.69672 27.9188 6.00297 29.1188 6.34047C30.3188 6.67797 31.0031 7.92484 30.6656 9.12484L30.1312 10.9998C29.5969 12.8655 28.7531 14.628 27.6375 16.203C27.15 16.8873 27.0938 17.7873 27.4781 18.5373C27.8625 19.2873 28.6312 19.7561 29.475 19.7561H42C42.825 19.7561 43.5 20.4311 43.5 21.2561C43.5 21.8936 43.0969 22.4467 42.525 22.6623C41.8312 22.9248 41.3063 23.5061 41.1281 24.228C40.95 24.9498 41.1375 25.7092 41.625 26.2623C41.8594 26.5248 42 26.8717 42 27.2561C42 27.9873 41.475 28.5967 40.7812 28.728C40.0125 28.878 39.3656 29.4123 39.0938 30.153C38.8219 30.8936 38.9438 31.7186 39.4313 32.3373C39.6281 32.5905 39.75 32.9092 39.75 33.2655C39.75 33.8936 39.3562 34.4467 38.7937 34.6623C37.7156 35.0842 37.1344 36.2467 37.4437 37.3623C37.4813 37.4842 37.5 37.6248 37.5 37.7655C37.5 38.5905 36.825 39.2655 36 39.2655H26.8594C25.6781 39.2655 24.5156 38.9186 23.5312 38.2623L17.7469 34.4092C16.7156 33.7155 15.3188 33.9967 14.625 35.0373C13.9312 36.078 14.2125 37.4655 15.2531 38.1592L21.0375 42.0123C22.7625 43.1655 24.7875 43.7748 26.8594 43.7748H36C39.2531 43.7748 41.8969 41.1873 42 37.9623C43.3688 36.8655 44.25 35.178 44.25 33.2748C44.25 32.853 44.2031 32.4498 44.1281 32.0561C45.5719 30.9592 46.5 29.2248 46.5 27.2748C46.5 26.6655 46.4062 26.0748 46.2375 25.5217C47.325 24.4155 48 22.9155 48 21.2561C48 17.9467 45.3187 15.2561 42 15.2561H33.3469C33.7875 14.2811 34.1625 13.2686 34.4531 12.2373L34.9875 10.3623C36.0094 6.78109 33.9375 3.04047 30.3562 2.01859ZM3 16.7561C1.34062 16.7561 0 18.0967 0 19.7561V40.7561C0 42.4155 1.34062 43.7561 3 43.7561H9C10.6594 43.7561 12 42.4155 12 40.7561V19.7561C12 18.0967 10.6594 16.7561 9 16.7561H3Z" fill="#F2F2F4"/>
</g>
</svg>
