<svg width="200" height="64" viewBox="0 0 200 64" fill="none" xmlns="http://www.w3.org/2000/svg">
<g id="Layer_1" clip-path="url(#clip0_2963_29963)">
<path id="Vector" d="M34.419 63.1885C25.931 63.1885 17.4285 63.1885 8.94054 63.1885C4.68926 63.1885 0.876258 59.9124 0.131189 55.4041C-0.26326 52.9977 0.248062 50.7799 1.44602 48.6779C6.15018 40.4587 10.8397 32.2394 15.5293 24.0202C19.167 17.6419 22.7755 11.2492 26.4424 4.8999C28.3708 1.5948 31.3072 -0.0722435 35.1495 0.188685C37.9544 0.377134 40.2042 1.72526 41.8551 4.03013C43.6374 6.53795 44.9814 9.2922 46.5154 11.945C49.9486 17.9028 53.3233 23.9042 56.7272 29.8911C60.0728 35.791 63.4183 41.7053 66.7784 47.5907C67.6403 49.1128 68.473 50.6204 68.736 52.3744C69.4811 57.506 66.2086 62.1592 61.3584 63.0435C60.774 63.145 60.2042 63.174 59.6199 63.174C51.2196 63.174 42.8193 63.174 34.4336 63.174L34.419 63.1885Z" fill="#A6A8AB"/>
<path id="Vector_2" d="M198.422 12.9735C199.561 15.7712 200.029 18.4965 200 21.3377C199.927 27.2521 197.779 32.3112 193.513 36.4136C189.934 39.8636 185.61 41.7336 180.599 42.0815C179.094 42.183 177.604 41.8786 176.099 42.1395C173.995 42.5019 172.096 43.2267 170.591 44.7343C166.72 48.6047 162.922 52.5476 159.05 56.4181C157.166 58.3026 155.456 60.3755 153.323 61.9991C147.45 66.4493 138.685 63.0428 137.312 55.8093C136.596 52.0403 137.545 48.7497 140.277 45.9954C143.667 42.5744 147.1 39.1678 150.431 35.6888C152.388 33.6448 154.521 31.7458 156.347 29.5859C157.881 27.7594 158.626 25.5995 158.626 23.2367C158.626 20.5984 158.583 17.9746 159.357 15.4233C161.87 7.14606 167.319 1.98548 175.924 0.347423C179.474 -0.319394 183.038 0.0285103 186.472 1.30416C187.085 1.5361 187.158 1.66656 186.662 2.15943C182.922 5.9284 179.211 9.71186 175.5 13.5098C173.762 15.2928 173.455 17.8006 174.726 19.8301C175.296 20.7433 176.128 21.4247 176.873 22.1929C177.735 23.0772 178.626 23.9325 179.488 24.8167C181.709 27.0926 184.631 27.0926 186.866 24.8167C190.46 21.1492 194.068 17.4817 197.662 13.8142C197.896 13.5678 198.115 13.3214 198.437 12.9735H198.422Z" fill="#A6A8AB"/>
<path id="Vector_3" d="M125.814 28.9785C125.741 37.7775 122.44 45.1705 115.836 51.0269C111.673 54.7089 106.778 56.9703 101.227 57.6951C92.7682 58.7968 85.2737 56.5789 78.8457 51.0414C73.3088 46.2867 70.0655 40.2419 69.0867 33.0518C67.9764 24.9196 69.9194 17.5266 74.9596 11.0179C79.4008 5.27744 85.2591 1.66792 92.4761 0.450257C101.081 -1.01384 108.78 1.10258 115.456 6.65456C121.066 11.3223 124.339 17.3381 125.507 24.4992C125.741 25.9778 125.829 27.4709 125.829 28.9785H125.814Z" fill="#A6A8AB"/>
<path id="Vector_4" d="M114.887 56.6803C114.945 55.1292 115.646 54.1145 116.508 53.2158C118.115 51.5342 119.766 49.8962 121.432 48.2726C122.133 47.5768 122.98 47.1274 123.959 46.8955C124.616 46.7505 125.172 46.8955 125.624 47.3739C127.392 49.1569 129.16 50.9544 130.928 52.7519C131.556 53.3897 131.468 54.1435 131.249 54.9118C131.059 55.5641 130.738 56.1875 130.285 56.6803C128.371 58.7533 126.472 60.8552 124.31 62.6962C123.93 63.0296 123.462 63.2615 122.98 63.4355C121.972 63.8124 121.154 63.7109 120.365 62.8556C118.787 61.1451 117.137 59.5215 115.5 57.869C115.091 57.4631 114.857 57.0282 114.916 56.6803H114.887Z" fill="#A6A8AB"/>
<path id="Vector_5" d="M38.3933 38.6167C38.3933 41.8349 38.4079 45.0385 38.3933 48.2566C38.3933 48.9234 38.5978 49.2568 39.2844 49.2858C39.4305 49.2858 39.562 49.3438 39.7081 49.3728C40.721 49.5661 41.2275 50.1749 41.2275 51.1993C41.2275 51.8226 41.2129 52.4605 41.2275 53.0838C41.2275 53.4752 41.1252 53.6491 40.7015 53.6491C36.5671 53.6491 32.4327 53.6491 28.2837 53.6491C27.86 53.6491 27.7432 53.4897 27.7432 53.0983C27.7578 52.1126 27.7578 51.1123 27.7432 50.1266C27.7432 49.7497 27.8162 49.5468 28.2545 49.5323C28.7658 49.5033 29.2625 49.3438 29.7592 49.3148C30.5189 49.2713 30.665 48.8509 30.665 48.2131C30.6504 46.3286 30.665 44.4442 30.665 42.5597C30.665 39.7619 30.665 36.9642 30.665 34.152C30.665 33.4417 30.4166 33.0068 29.7154 32.8328C29.4086 32.7603 29.131 32.6009 28.8389 32.4994C27.9818 32.1708 27.636 31.5668 27.8016 30.6874C27.9185 30.0061 28.0353 29.3103 28.1376 28.6145C28.1814 28.2521 28.3129 28.0781 28.7366 28.0781C31.7753 28.0926 34.814 28.0926 37.8673 28.0781C38.4225 28.0781 38.4225 28.3535 38.4225 28.7594C38.4225 32.05 38.4225 35.3261 38.4225 38.6167H38.3933Z" fill="#FEFEFE"/>
<path id="Vector_6" d="M33.7763 15.7853C35.3833 15.7418 36.8443 16.0317 37.75 17.5393C39.5177 20.511 37.4578 24.164 33.9955 24.193C31.5119 24.222 30.0364 23.3087 29.4666 21.3663C29.189 20.3805 29.1744 19.3658 29.452 18.3801C29.8611 16.8435 31.0882 15.9158 32.7537 15.7998C33.0897 15.7708 33.4403 15.7998 33.7763 15.7998V15.7853Z" fill="#FEFEFE"/>
<path id="Vector_7" d="M119.927 29.0058C119.927 35.9784 117.312 41.8493 112.097 46.4881C108.576 49.6192 104.427 51.4457 99.6934 51.9096C92.4764 52.6054 86.2967 50.3585 81.2419 45.2704C77.4289 41.4434 75.2668 36.7612 74.7701 31.3687C74.0834 23.9467 76.3478 17.5395 81.6656 12.3064C85.3763 8.6534 89.8906 6.53698 95.1353 6.07311C102.688 5.40629 109.014 7.9431 114.069 13.4516C117.327 17.0031 119.24 21.236 119.796 26.0342C119.854 26.5415 119.912 27.0344 119.927 27.5417C119.956 28.0201 119.927 28.513 119.927 28.9913V29.0058Z" fill="#FEFEFE"/>
<path id="Vector_8" d="M93.0606 10.5957C96.0701 18.583 99.0212 26.4109 101.972 34.2387C102.235 34.1663 102.279 33.9343 102.381 33.7459C103.243 32.2818 104.105 30.8322 104.923 29.3536C105.142 28.9622 105.332 28.8317 105.829 28.9332C109.423 29.6435 113.031 30.3393 116.64 30.9916C117.107 31.0786 117.341 31.2381 117.268 31.7309C117.239 31.8759 117.239 32.0208 117.268 32.1658C117.4 32.8616 117.049 32.9921 116.421 33.0501C113.66 33.311 110.913 33.6299 108.152 33.9053C107.757 33.9488 107.626 34.1953 107.465 34.4562C105.61 37.4279 103.755 40.3996 101.899 43.3712C101.709 43.6757 101.505 43.9801 101.271 44.357C98.5391 37.6308 95.8364 30.9626 93.0752 24.164C92.6516 25.6281 92.2717 26.9762 91.8919 28.3099C91.5121 29.658 91.1176 30.9916 90.767 32.3543C90.6501 32.8326 90.4456 32.9486 89.9635 32.9051C86.019 32.5282 82.0745 32.1803 78.13 31.7889C76.8444 31.6584 76.9029 31.6295 76.8298 30.3393C76.786 29.542 77.049 29.2811 77.8232 29.1651C80.6136 28.7302 83.3747 28.1794 86.1505 27.73C86.6618 27.643 86.8809 27.4401 87.0563 26.9762C88.9847 21.6997 90.9277 16.4231 92.8561 11.1466C92.8999 11.0306 92.9438 10.9291 93.0606 10.6247V10.5957Z" fill="#E31E26"/>
</g>
<defs>
<clipPath id="clip0_2963_29963">
<rect width="200" height="64" fill="white"/>
</clipPath>
</defs>
</svg>
