<svg width="16" height="15" viewBox="0 0 16 15" fill="none" xmlns="http://www.w3.org/2000/svg">
<path d="M15.9373 5.6964L10.8549 0.0504099C7.78042 -0.0504114 4.58039 0.0504106 0 0V13.0564V14.972H8.47059C8.47059 12.3506 11.1686 10.2334 14.4314 10.1829C14.9961 10.1829 15.498 10.1829 16 10.3342V5.74681H15.9373V5.6964ZM5.5216 9.22514H3.13725C2.88627 9.22514 2.63526 9.0235 2.63526 8.82186C2.63526 8.62022 2.88627 8.41857 3.13725 8.41857H5.5216C5.77258 8.41857 6.02351 8.62022 6.02351 8.82186C6.02351 9.0235 5.77258 9.22514 5.5216 9.22514ZM1.94508 6.6542C1.94508 5.14188 1.94508 2.97423 1.94508 1.46191C4.76861 1.46191 6.71371 1.36109 9.47449 1.46191C10.4157 2.57094 12.9255 5.39394 13.8039 6.75502H1.88235L1.94508 6.6542Z" fill="#DADADA"/>
</svg>
