<svg width="16" height="17" viewBox="0 0 16 17" fill="none" xmlns="http://www.w3.org/2000/svg">
<path d="M15.9373 6.58754L10.8549 0.553871C7.78042 0.446127 4.58039 0.553872 0 0.5V14.4529V16.5H8.47059C8.47059 13.6987 11.1686 11.436 14.4314 11.3822C14.9961 11.3822 15.498 11.3822 16 11.5438V6.64141H15.9373V6.58754ZM5.5216 10.3586H3.13725C2.88627 10.3586 2.63526 10.1431 2.63526 9.92761C2.63526 9.71212 2.88627 9.49663 3.13725 9.49663H5.5216C5.77258 9.49663 6.02351 9.71212 6.02351 9.92761C6.02351 10.1431 5.77258 10.3586 5.5216 10.3586ZM1.94508 7.61111C1.94508 5.99495 1.94508 3.67845 1.94508 2.06229C4.76861 2.06229 6.71371 1.95454 9.47449 2.06229C10.4157 3.24747 12.9255 6.26431 13.8039 7.71885H1.88235L1.94508 7.61111Z" fill="#0A2463"/>
</svg>
