<svg width="16" height="16" viewBox="0 0 16 16" fill="none" xmlns="http://www.w3.org/2000/svg">
<g clip-path="url(#clip0_1397_18544)">
<path d="M3.00005 10C1.3438 10 5.03185e-05 8.65625 5.03185e-05 7C5.03185e-05 5.67188 0.86255 4.54375 2.05943 4.15C2.02193 3.94063 2.00005 3.72187 2.00005 3.5C2.00005 1.56562 3.56568 0 5.50005 0C6.84693 0 8.01568 0.759375 8.60005 1.875C9.05943 1.34063 9.74068 1 10.5001 1C11.8813 1 13.0001 2.11875 13.0001 3.5C13.0001 3.67188 12.9813 3.8375 12.9501 4C12.9657 4 12.9844 4 13.0001 4C14.6563 4 16 5.34375 16 7C16 8.65625 14.6563 10 13.0001 10H3.00005ZM2.54693 11.0594C2.92818 11.2219 3.10318 11.6625 2.94068 12.0437L1.44068 15.5437C1.27818 15.925 0.83755 16.1 0.4563 15.9375C0.0750503 15.775 -0.103075 15.3344 0.0594253 14.9531L1.55943 11.4531C1.72193 11.0719 2.16255 10.8969 2.5438 11.0594H2.54693ZM6.29693 11.0594C6.67818 11.2219 6.85318 11.6625 6.69068 12.0437L5.19068 15.5437C5.02818 15.925 4.58755 16.1 4.2063 15.9375C3.82505 15.775 3.65005 15.3344 3.81255 14.9531L5.31255 11.4531C5.47505 11.0719 5.91568 10.8969 6.29693 11.0594ZM13.9407 12.0437L12.4407 15.5437C12.2782 15.925 11.8376 16.1 11.4563 15.9375C11.0751 15.775 10.9001 15.3344 11.0626 14.9531L12.5626 11.4531C12.7251 11.0719 13.1657 10.8969 13.5469 11.0594C13.9282 11.2219 14.1032 11.6625 13.9407 12.0437ZM9.79693 11.0594C10.1782 11.2219 10.3532 11.6625 10.1907 12.0437L8.69068 15.5437C8.52818 15.925 8.08755 16.1 7.7063 15.9375C7.32505 15.775 7.15005 15.3344 7.31255 14.9531L8.81255 11.4531C8.97505 11.0719 9.41568 10.8969 9.79693 11.0594Z" fill="#677198"/>
</g>
<defs>
<clipPath id="clip0_1397_18544">
<rect width="16" height="16" fill="white"/>
</clipPath>
</defs>
</svg>
