<svg width="266" height="78" viewBox="0 0 266 78" fill="none" xmlns="http://www.w3.org/2000/svg">
<path d="M69.908 59.9275C69.908 61.9443 69.2337 64.2972 67.8006 66.9022C66.4519 69.5912 64.5974 71.8601 62.1528 73.7088C59.7926 75.6415 57.0951 76.5659 54.1448 76.5659H17.0547C14.7787 76.5659 12.3342 75.8096 9.72099 74.381C7.02353 72.8684 4.74755 71.1038 2.89305 68.9189C1.03855 66.7341 0.111298 64.6333 0.111298 62.7846V13.8315C0.111298 12.5711 0.617071 11.0585 1.71291 9.46188C2.72446 7.86527 4.15748 6.35269 5.8434 4.92415C7.52931 3.4956 9.46811 2.31916 11.4912 1.39481C13.5143 0.470457 15.4531 0.050293 17.3076 0.050293H49.7614C53.4704 0.050293 56.9265 0.890617 59.9611 2.48722C63.0801 4.16786 65.5247 6.26866 67.2949 8.78962C69.0651 11.3946 69.908 13.8315 69.908 16.3525V59.9275ZM52.8803 54.0453V21.9826C52.8803 19.2096 51.8688 17.2768 49.8457 16.1844C47.8226 15.092 45.5466 14.5038 43.102 14.5038H25.99C23.2083 14.5038 20.9323 15.5122 19.0778 17.2768C17.139 18.9575 16.1275 20.8902 16.1275 23.0751V52.8688C16.1275 58.8351 18.7406 61.7762 23.6298 61.7762H45.0408C46.811 61.7762 48.2441 61.3561 49.4242 60.5157C50.6043 59.6754 51.4473 58.583 52.0374 57.4066C52.6274 56.2301 52.8803 55.1377 52.8803 54.0453Z" fill="white"/>
<path d="M146.875 13.9652H75.8983V0.0999664H146.875V13.9652ZM142.475 22.9567L98.3995 76.5659H76.9042L121.992 22.9567H142.475Z" fill="white"/>
<path d="M198.518 9.33508H151.528V0H198.518V9.33508ZM199.82 38.8962H150.282V30.1167L171.852 15.1695H190.988L169.531 29.2833H199.82V38.8962Z" fill="#FB3640"/>
<path d="M259.346 38.8962H244.513L232.793 24.0601H218.017V38.8962H206.524V14.725H242.361C243.097 14.725 243.777 14.4471 244.513 13.9471C245.192 13.447 245.532 12.7246 245.532 11.78C245.532 11.1132 245.362 10.6131 245.022 10.1686C244.682 9.77961 244.23 9.50178 243.72 9.33508C243.154 9.11281 242.588 9.05725 241.965 9.05725H206.524V0H249.778C251.816 0 253.571 0.722358 254.986 2.11151C256.458 3.55622 257.194 5.27877 257.194 7.27914V17.0032C257.194 18.7257 256.855 20.0593 256.119 21.0039C255.383 21.9485 254.534 22.6153 253.571 22.9487C252.609 23.3377 251.476 23.56 250.174 23.7267C248.872 23.8934 248.136 24.0045 247.91 24.0601L259.346 38.8962Z" fill="#FB3640"/>
<path d="M260.13 78.0005C259.316 78.0005 258.557 77.852 257.853 77.5551C257.149 77.2471 256.533 76.8237 256.005 76.2848C255.478 75.7348 255.065 75.1024 254.768 74.3875C254.482 73.6726 254.339 72.9082 254.339 72.0944C254.339 71.2695 254.482 70.5051 254.768 69.8012C255.065 69.0863 255.472 68.4594 255.989 67.9204C256.517 67.3815 257.127 66.9636 257.82 66.6666C258.524 66.3697 259.283 66.2212 260.097 66.2212C260.911 66.2212 261.664 66.3697 262.357 66.6666C263.061 66.9636 263.677 67.3815 264.205 67.9204C264.733 68.4594 265.145 69.0863 265.442 69.8012C265.739 70.5161 265.888 71.286 265.888 72.1109C265.888 72.9247 265.739 73.6891 265.442 74.404C265.145 75.1189 264.733 75.7458 264.205 76.2848C263.688 76.8237 263.077 77.2471 262.374 77.5551C261.681 77.852 260.933 78.0005 260.13 78.0005ZM260.097 76.5157C260.922 76.5157 261.642 76.3287 262.258 75.9548C262.885 75.5699 263.38 75.0474 263.743 74.3875C264.106 73.7166 264.287 72.9522 264.287 72.0944C264.287 71.4564 264.183 70.8735 263.974 70.3456C263.765 69.8067 263.473 69.3392 263.099 68.9433C262.725 68.5474 262.286 68.2449 261.78 68.0359C261.274 67.816 260.713 67.706 260.097 67.706C259.283 67.706 258.563 67.893 257.936 68.2669C257.32 68.6408 256.83 69.1578 256.467 69.8177C256.115 70.4776 255.939 71.2365 255.939 72.0944C255.939 72.7323 256.038 73.3262 256.236 73.8761C256.445 74.415 256.731 74.8825 257.094 75.2784C257.468 75.6633 257.908 75.9658 258.414 76.1858C258.931 76.4057 259.492 76.5157 260.097 76.5157Z" fill="white"/>
<path d="M243.695 77.8356V66.7162H245.245V77.8356H243.695ZM239.801 67.805V66.3862H249.122V67.805H239.801Z" fill="white"/>
<path d="M229.064 78.0006C228.217 78.0006 227.458 77.8136 226.787 77.4397C226.127 77.0547 225.605 76.5323 225.22 75.8724C224.835 75.2015 224.642 74.4426 224.642 73.5957V66.3862H226.193V73.5627C226.193 74.1676 226.32 74.69 226.573 75.13C226.826 75.5699 227.166 75.9109 227.595 76.1528C228.035 76.3948 228.525 76.5158 229.064 76.5158C229.625 76.5158 230.114 76.3948 230.532 76.1528C230.961 75.9109 231.296 75.5699 231.538 75.13C231.791 74.69 231.918 74.1731 231.918 73.5792V66.3862H233.485V73.6122C233.485 74.4591 233.293 75.2125 232.908 75.8724C232.523 76.5323 232 77.0547 231.34 77.4397C230.68 77.8136 229.922 78.0006 229.064 78.0006Z" fill="white"/>
<path d="M207.919 77.8356L212.605 66.3862H213.727L218.395 77.8356H216.713L212.869 68.1515H213.446L209.569 77.8356H207.919ZM210.147 75.2455V73.8927H216.168V75.2455H210.147Z" fill="white"/>
<path d="M202.24 70.0816L201.893 66.0562H203.526L203.18 70.0816H202.24Z" fill="white"/>
<path d="M189.671 77.8356V66.3862H191.221V77.8356H189.671ZM190.727 77.8356V76.4168H196.864V77.8356H190.727Z" fill="white"/>
<path d="M166.939 77.8356V66.3862H168.49V77.8356H166.939ZM167.995 77.8356V76.4168H174.561V77.8356H167.995ZM167.995 72.6553V71.3025H174.017V72.6553H167.995ZM167.995 67.805V66.3862H174.479V67.805H167.995Z" fill="white"/>
<path d="M150.966 77.8356V76.4168H154.15C154.997 76.4168 155.739 76.2353 156.377 75.8724C157.015 75.4984 157.51 74.987 157.862 74.3381C158.225 73.6892 158.406 72.9413 158.406 72.0944C158.406 71.2585 158.225 70.5161 157.862 69.8672C157.499 69.2183 156.998 68.7124 156.36 68.3494C155.722 67.9865 154.986 67.805 154.15 67.805H150.982V66.3862H154.183C155.019 66.3862 155.788 66.5292 156.492 66.8152C157.207 67.1011 157.823 67.5026 158.34 68.0195C158.868 68.5364 159.275 69.1413 159.561 69.8342C159.858 70.5271 160.006 71.286 160.006 72.1109C160.006 72.9248 159.858 73.6837 159.561 74.3876C159.275 75.0805 158.873 75.6854 158.357 76.2023C157.84 76.7193 157.224 77.1207 156.509 77.4067C155.805 77.6926 155.041 77.8356 154.216 77.8356H150.966ZM149.943 77.8356V66.3862H151.494V77.8356H149.943Z" fill="white"/>
<path d="M261.123 59.3877C260.221 59.3877 259.451 59.2227 258.813 58.8928C258.175 58.5628 257.609 58.0844 257.114 57.4575L258.17 56.4016C258.533 56.9076 258.951 57.2925 259.423 57.5565C259.896 57.8094 260.479 57.9359 261.172 57.9359C261.854 57.9359 262.399 57.7874 262.805 57.4905C263.223 57.1935 263.432 56.7866 263.432 56.2697C263.432 55.8407 263.333 55.4943 263.135 55.2303C262.937 54.9663 262.668 54.7519 262.327 54.5869C261.997 54.4109 261.634 54.2569 261.238 54.125C260.842 53.982 260.446 53.8335 260.05 53.6795C259.654 53.5146 259.291 53.3166 258.962 53.0856C258.632 52.8437 258.362 52.5302 258.153 52.1453C257.955 51.7603 257.856 51.2764 257.856 50.6935C257.856 50.0446 258.01 49.4946 258.318 49.0437C258.637 48.5818 259.066 48.2298 259.605 47.9878C260.155 47.7349 260.771 47.6084 261.453 47.6084C262.201 47.6084 262.871 47.7569 263.465 48.0538C264.059 48.3398 264.543 48.7192 264.917 49.1922L263.861 50.248C263.52 49.8521 263.152 49.5551 262.756 49.3571C262.371 49.1592 261.926 49.0602 261.42 49.0602C260.804 49.0602 260.314 49.1977 259.951 49.4726C259.588 49.7366 259.407 50.1105 259.407 50.5945C259.407 50.9794 259.506 51.2929 259.704 51.5348C259.913 51.7658 260.182 51.9638 260.512 52.1288C260.842 52.2937 261.205 52.4477 261.601 52.5907C262.008 52.7227 262.41 52.8711 262.805 53.0361C263.201 53.2011 263.564 53.4101 263.894 53.663C264.224 53.916 264.488 54.246 264.686 54.6529C264.895 55.0488 265 55.5493 265 56.1542C265 57.166 264.648 57.9579 263.944 58.5298C263.251 59.1018 262.311 59.3877 261.123 59.3877Z" fill="white"/>
<path d="M250.706 59.3877C249.892 59.3877 249.133 59.2392 248.429 58.9423C247.725 58.6343 247.109 58.2109 246.581 57.672C246.053 57.122 245.641 56.4896 245.344 55.7747C245.058 55.0598 244.915 54.2954 244.915 53.4816C244.915 52.6567 245.058 51.8923 245.344 51.1884C245.641 50.4735 246.048 49.8466 246.565 49.3077C247.093 48.7687 247.703 48.3508 248.396 48.0538C249.1 47.7569 249.859 47.6084 250.673 47.6084C251.487 47.6084 252.24 47.7569 252.933 48.0538C253.637 48.3508 254.253 48.7687 254.781 49.3077C255.308 49.8466 255.721 50.4735 256.018 51.1884C256.315 51.9033 256.463 52.6732 256.463 53.4981C256.463 54.3119 256.315 55.0763 256.018 55.7912C255.721 56.5061 255.308 57.133 254.781 57.672C254.264 58.2109 253.653 58.6343 252.949 58.9423C252.256 59.2392 251.509 59.3877 250.706 59.3877ZM250.673 57.9029C251.498 57.9029 252.218 57.716 252.834 57.342C253.461 56.9571 253.956 56.4346 254.319 55.7747C254.682 55.1038 254.863 54.3394 254.863 53.4816C254.863 52.8437 254.759 52.2607 254.55 51.7328C254.341 51.1939 254.049 50.7265 253.675 50.3305C253.301 49.9346 252.861 49.6321 252.355 49.4231C251.849 49.2032 251.289 49.0932 250.673 49.0932C249.859 49.0932 249.138 49.2802 248.511 49.6541C247.896 50.0281 247.406 50.545 247.043 51.2049C246.691 51.8648 246.515 52.6237 246.515 53.4816C246.515 54.1195 246.614 54.7134 246.812 55.2633C247.021 55.8022 247.307 56.2697 247.67 56.6656C248.044 57.0506 248.484 57.353 248.99 57.573C249.507 57.7929 250.068 57.9029 250.673 57.9029Z" fill="white"/>
<path d="M236.873 54.2405V52.9372H239.975C240.645 52.9372 241.162 52.7667 241.525 52.4258C241.888 52.0848 242.07 51.6229 242.07 51.04C242.07 50.49 241.888 50.0336 241.525 49.6707C241.173 49.3077 240.662 49.1262 239.991 49.1262H236.873V47.7734H240.041C240.766 47.7734 241.399 47.9164 241.938 48.2024C242.477 48.4773 242.889 48.8568 243.175 49.3407C243.472 49.8246 243.621 50.3801 243.621 51.007C243.621 51.6559 243.472 52.2223 243.175 52.7062C242.889 53.1902 242.477 53.5696 241.938 53.8446C241.399 54.1085 240.766 54.2405 240.041 54.2405H236.873ZM235.834 59.2228V47.7734H237.384V59.2228H235.834ZM242.433 59.2228L238.275 54.092L239.744 53.5806L244.396 59.2228H242.433Z" fill="white"/>
<path d="M227.327 54.7684V53.4156H230.445C230.874 53.4156 231.253 53.3276 231.583 53.1517C231.924 52.9757 232.188 52.7282 232.375 52.4093C232.573 52.0903 232.672 51.7109 232.672 51.2709C232.672 50.831 232.573 50.4516 232.375 50.1326C232.188 49.8136 231.924 49.5662 231.583 49.3902C231.253 49.2142 230.874 49.1262 230.445 49.1262H227.327V47.7734H230.544C231.248 47.7734 231.875 47.9164 232.425 48.2024C232.985 48.4883 233.425 48.8953 233.744 49.4232C234.074 49.9401 234.239 50.556 234.239 51.2709C234.239 51.9748 234.074 52.5907 233.744 53.1187C233.425 53.6356 232.985 54.0425 232.425 54.3395C231.875 54.6255 231.248 54.7684 230.544 54.7684H227.327ZM226.287 59.2228V47.7734H227.838V59.2228H226.287Z" fill="white"/>
<path d="M217.549 59.3877C216.647 59.3877 215.877 59.2227 215.239 58.8928C214.601 58.5628 214.035 58.0844 213.54 57.4575L214.596 56.4016C214.959 56.9076 215.377 57.2925 215.85 57.5565C216.323 57.8094 216.905 57.9359 217.598 57.9359C218.28 57.9359 218.825 57.7874 219.232 57.4905C219.65 57.1935 219.859 56.7866 219.859 56.2697C219.859 55.8407 219.76 55.4943 219.562 55.2303C219.364 54.9663 219.094 54.7519 218.753 54.5869C218.423 54.4109 218.06 54.2569 217.664 54.125C217.268 53.982 216.872 53.8335 216.476 53.6795C216.081 53.5146 215.718 53.3166 215.388 53.0856C215.058 52.8437 214.788 52.5302 214.579 52.1453C214.381 51.7603 214.282 51.2764 214.282 50.6935C214.282 50.0446 214.436 49.4946 214.744 49.0437C215.063 48.5818 215.492 48.2298 216.031 47.9878C216.581 47.7349 217.197 47.6084 217.879 47.6084C218.627 47.6084 219.298 47.7569 219.892 48.0538C220.485 48.3398 220.969 48.7192 221.343 49.1922L220.287 50.248C219.947 49.8521 219.578 49.5551 219.182 49.3571C218.797 49.1592 218.352 49.0602 217.846 49.0602C217.23 49.0602 216.74 49.1977 216.378 49.4726C216.015 49.7366 215.833 50.1105 215.833 50.5945C215.833 50.9794 215.932 51.2929 216.13 51.5348C216.339 51.7658 216.608 51.9638 216.938 52.1288C217.268 52.2937 217.631 52.4477 218.027 52.5907C218.434 52.7227 218.836 52.8711 219.232 53.0361C219.628 53.2011 219.99 53.4101 220.32 53.663C220.65 53.916 220.914 54.246 221.112 54.6529C221.321 55.0488 221.426 55.5493 221.426 56.1542C221.426 57.166 221.074 57.9579 220.37 58.5298C219.677 59.1018 218.737 59.3877 217.549 59.3877Z" fill="white"/>
<path d="M205.254 59.2228V47.7734H206.805V59.2228H205.254ZM206.31 59.2228V57.804H212.876V59.2228H206.31ZM206.31 54.0425V52.6897H212.331V54.0425H206.31ZM206.31 49.1922V47.7734H212.793V49.1922H206.31Z" fill="white"/>
<path d="M196.481 59.2228V47.7734H198.032V59.2228H196.481ZM197.537 59.2228V57.804H203.674V59.2228H197.537Z" fill="white"/>
<path d="M184.357 54.2405V52.9372H187.459C188.13 52.9372 188.646 52.7667 189.009 52.4258C189.372 52.0848 189.554 51.6229 189.554 51.04C189.554 50.49 189.372 50.0336 189.009 49.6707C188.657 49.3077 188.146 49.1262 187.475 49.1262H184.357V47.7734H187.525C188.25 47.7734 188.883 47.9164 189.422 48.2024C189.961 48.4773 190.373 48.8568 190.659 49.3407C190.956 49.8246 191.105 50.3801 191.105 51.007C191.105 51.6559 190.956 52.2223 190.659 52.7062C190.373 53.1902 189.961 53.5696 189.422 53.8446C188.883 54.1085 188.25 54.2405 187.525 54.2405H184.357ZM183.318 59.2228V47.7734H184.868V59.2228H183.318ZM189.917 59.2228L185.759 54.092L187.228 53.5806L191.88 59.2228H189.917Z" fill="white"/>
<path d="M176.675 59.3878C175.829 59.3878 175.07 59.2008 174.399 58.8269C173.739 58.4419 173.216 57.9195 172.832 57.2596C172.447 56.5887 172.254 55.8298 172.254 54.9829V47.7734H173.805V54.9499C173.805 55.5548 173.931 56.0773 174.184 56.5172C174.437 56.9571 174.778 57.2981 175.207 57.54C175.647 57.782 176.137 57.903 176.675 57.903C177.236 57.903 177.726 57.782 178.144 57.54C178.573 57.2981 178.908 56.9571 179.15 56.5172C179.403 56.0773 179.53 55.5603 179.53 54.9664V47.7734H181.097V54.9994C181.097 55.8463 180.904 56.5997 180.519 57.2596C180.134 57.9195 179.612 58.4419 178.952 58.8269C178.292 59.2008 177.533 59.3878 176.675 59.3878Z" fill="white"/>
<path d="M164.831 59.3877C164.017 59.3877 163.258 59.2392 162.554 58.9423C161.85 58.6343 161.235 58.2109 160.707 57.672C160.179 57.122 159.766 56.4896 159.469 55.7747C159.183 55.0598 159.04 54.2954 159.04 53.4816C159.04 52.6567 159.183 51.8923 159.469 51.1884C159.766 50.4735 160.173 49.8466 160.69 49.3077C161.218 48.7687 161.828 48.3508 162.521 48.0538C163.225 47.7569 163.984 47.6084 164.798 47.6084C165.612 47.6084 166.365 47.7569 167.058 48.0538C167.762 48.3508 168.378 48.7687 168.906 49.3077C169.434 49.8466 169.846 50.4735 170.143 51.1884C170.44 51.9033 170.589 52.6732 170.589 53.4981C170.589 54.3119 170.44 55.0763 170.143 55.7912C169.846 56.5061 169.434 57.133 168.906 57.672C168.389 58.2109 167.779 58.6343 167.075 58.9423C166.382 59.2392 165.634 59.3877 164.831 59.3877ZM164.798 57.9029C165.623 57.9029 166.343 57.716 166.959 57.342C167.586 56.9571 168.081 56.4346 168.444 55.7747C168.807 55.1038 168.988 54.3394 168.988 53.4816C168.988 52.8437 168.884 52.2607 168.675 51.7328C168.466 51.1939 168.175 50.7265 167.801 50.3305C167.427 49.9346 166.987 49.6321 166.481 49.4231C165.975 49.2032 165.414 49.0932 164.798 49.0932C163.984 49.0932 163.264 49.2802 162.637 49.6541C162.021 50.0281 161.531 50.545 161.169 51.2049C160.817 51.8648 160.641 52.6237 160.641 53.4816C160.641 54.1195 160.74 54.7134 160.938 55.2633C161.147 55.8022 161.433 56.2697 161.795 56.6656C162.169 57.0506 162.609 57.353 163.115 57.573C163.632 57.7929 164.193 57.9029 164.798 57.9029Z" fill="white"/>
<path d="M150.982 54.7684V53.4156H154.1C154.529 53.4156 154.909 53.3276 155.238 53.1517C155.579 52.9757 155.843 52.7282 156.03 52.4093C156.228 52.0903 156.327 51.7109 156.327 51.2709C156.327 50.831 156.228 50.4516 156.03 50.1326C155.843 49.8136 155.579 49.5662 155.238 49.3902C154.909 49.2142 154.529 49.1262 154.1 49.1262H150.982V47.7734H154.199C154.903 47.7734 155.53 47.9164 156.08 48.2024C156.641 48.4883 157.081 48.8953 157.4 49.4232C157.73 49.9401 157.895 50.556 157.895 51.2709C157.895 51.9748 157.73 52.5907 157.4 53.1187C157.081 53.6356 156.641 54.0425 156.08 54.3395C155.53 54.6255 154.903 54.7684 154.199 54.7684H150.982ZM149.943 59.2228V47.7734H151.494V59.2228H149.943Z" fill="white"/>
</svg>
