<svg width="151" height="34" viewBox="0 0 151 34" fill="none" xmlns="http://www.w3.org/2000/svg">
<path d="M150.989 -0.227417V33.7726H0.0393066V-0.227417H150.989ZM1.26099 32.5743H149.757V0.970825H1.26099V32.5743Z" fill="#0A2463"/>
<path d="M29.8108 30.2229H3.52563V3.24341H29.8108V30.2229ZM4.52759 17.2483C4.65678 20.3497 5.91437 23.2881 8.05103 25.4807C10.1879 27.6734 13.0485 28.9603 16.0647 29.0862V24.0745C14.341 23.9547 12.7175 23.1973 11.4944 21.9426C10.2713 20.688 9.53129 19.0205 9.4104 17.2483H4.52759ZM23.8079 17.2483C23.6836 19.021 22.9415 20.6884 21.717 21.9426C20.4926 23.1969 18.868 23.9538 17.1438 24.0745V29.0862C20.1603 28.9612 23.0214 27.6746 25.1584 25.4817C27.2954 23.2888 28.5526 20.3501 28.6809 17.2483H23.8079ZM17.1438 9.32153C18.8664 9.44431 20.4886 10.2022 21.7112 11.4563C22.9337 12.7104 23.6753 14.3765 23.7991 16.1477H28.6721C28.5459 13.0466 27.2902 10.1074 25.1545 7.91431C23.0189 5.72136 20.1592 4.43408 17.1438 4.30884V9.32153ZM7.47192 13.7688L7.1311 15.6008L9.79517 14.6672L10.135 12.844L7.47192 13.7688ZM5.19556 12.51L6.25806 15.178L7.38013 13.7161L6.30884 11.0471L5.19556 12.51ZM7.81567 12.7297L10.6252 12.7385L11.5247 11.1174L8.71606 11.1086L7.81567 12.7297ZM6.93384 9.1272L7.07935 11.9983L8.61353 11.0032L8.45923 8.12231L6.93384 9.1272ZM9.31567 10.2532L11.9875 11.1428L13.3411 9.89185L10.6604 8.99341L9.31567 10.2532ZM11.4651 8.39575L13.7434 10.0784L15.3967 9.30396L13.1096 7.61255L11.4651 8.39575ZM9.45239 6.61743L8.89478 9.43481L10.6174 8.86255L11.1741 6.02661L9.45239 6.61743ZM12.6135 4.96021L11.2532 7.47778L13.0686 7.46021L14.429 4.92505L12.6135 4.96021Z" fill="#0A2463"/>
<path d="M41.2429 21.1442H36.4314V18.2948H40.6721V15.1847H36.4314V12.6242H41.2622L41.0563 9.505H33.1174V24.2627H40.8468L41.2429 21.1442Z" fill="#0A2463"/>
<path d="M48.5434 24.4745C52.0446 24.4745 53.589 22.3344 53.589 18.0243V9.51428H50.5746V18.246C50.5746 20.1713 50.0224 21.1436 48.5523 21.1436C47.0823 21.1436 46.5212 20.1614 46.5212 18.246V9.51428H43.4896V18.0243C43.4896 22.3375 45.034 24.4745 48.5434 24.4745Z" fill="#0A2463"/>
<path d="M59.1615 18.2842H59.1987L63.1206 24.7726L66.4999 23.5787L63.1956 18.4378C64.5713 17.8699 66.3312 15.7229 65.0774 12.2766C63.7671 8.63758 58.4874 8.6758 55.8193 9.57159V24.272H59.1519V18.2842H59.1615ZM59.1615 12.7008C59.7702 12.2483 62.1106 12.768 62.1009 14.8287C62.0975 15.2171 62.018 15.6008 61.867 15.9569C61.7161 16.3129 61.4968 16.634 61.2224 16.9009C60.948 17.1678 60.624 17.375 60.2699 17.5101C59.9158 17.6452 59.5388 17.7055 59.1615 17.6873V12.7008Z" fill="#0A2463"/>
<path d="M72.3958 24.6098C76.0278 24.6098 78.0687 21.1925 78.0687 16.9176C78.0687 12.6427 76.0182 9.21619 72.3958 9.21619C68.7734 9.21619 66.7229 12.6335 66.7229 16.9176C66.7229 21.2017 68.7637 24.6098 72.3958 24.6098ZM72.3958 12.528C74.3236 12.528 75.0713 14.7232 75.0713 16.9176C75.0713 19.112 74.3222 21.3071 72.3958 21.3071C70.4694 21.3071 69.7202 19.112 69.7202 16.9176C69.7202 14.7232 70.4597 12.528 72.3958 12.528Z" fill="#0A2463"/>
<path d="M83.0021 16.5423L85.9006 22.4146L88.7931 16.5423L89.0904 24.2536H92.3479L91.7912 9.48596H88.7991L85.9006 14.9639L83.0021 9.48596H80.007L79.4347 24.2536H82.7108L83.0021 16.5423Z" fill="#0A2463"/>
<path d="M97.1823 22.4727H102.2L102.743 24.2444H106.253L101.422 9.5249H98.0163L93.1854 24.2444H96.6398L97.1823 22.4727ZM99.6906 13.6064H99.7278L101.338 19.3825H98.0616L99.6906 13.6064Z" fill="#0A2463"/>
<path d="M110.737 21.233C109.81 21.233 108.93 20.4533 108.247 19.7891L106.375 22.5232C107.483 23.6808 108.981 24.3565 110.559 24.4103C113.152 24.4103 115.324 22.8511 115.324 19.6714C115.332 19.1273 115.228 18.5876 115.02 18.0872C114.812 17.5868 114.504 17.137 114.116 16.767C112.216 14.9089 109.745 14.8034 109.782 13.3497C109.766 13.1841 109.786 13.0171 109.84 12.8602C109.893 12.7034 109.98 12.5607 110.094 12.4422C110.207 12.3237 110.344 12.2322 110.496 12.1744C110.648 12.1166 110.81 12.0938 110.971 12.1076C111.888 12.1076 112.778 12.8872 113.47 13.5514L115.343 10.8174C114.237 9.65603 112.738 8.97973 111.158 8.9303C108.575 8.9303 106.394 10.4804 106.394 13.6569C106.391 14.2402 106.511 14.8172 106.747 15.3476C106.983 15.878 107.329 16.3491 107.76 16.728C109.633 18.4416 111.973 18.5762 111.922 19.9917C111.938 20.1572 111.918 20.3242 111.865 20.481C111.811 20.6377 111.724 20.7804 111.61 20.8989C111.497 21.0174 111.36 21.1088 111.208 21.1666C111.056 21.2245 110.894 21.2474 110.733 21.2337" fill="#0A2463"/>
<path d="M119.49 24.2627H122.85V12.5952H125.481L125.837 9.505H116.55L116.213 12.5952H119.489L119.49 24.2627Z" fill="#0A2463"/>
<path d="M140.243 18.2842H140.28L144.202 24.7726L147.581 23.5787L144.277 18.4378C145.653 17.8699 147.413 15.7229 146.158 12.2766C144.848 8.63758 139.568 8.6758 136.91 9.57159V24.272H140.242L140.243 18.2842ZM140.243 12.7008C140.842 12.2483 143.201 12.768 143.182 14.8287C143.179 15.2171 143.1 15.601 142.949 15.9571C142.798 16.3133 142.579 16.6344 142.304 16.9014C142.03 17.1684 141.706 17.3756 141.351 17.5108C140.997 17.646 140.62 17.7062 140.243 17.688V12.7008Z" fill="#0A2463"/>
<path d="M135.272 21.1442H130.45V18.2948H134.7V15.1847H130.45V12.6242H135.281L135.085 9.505H127.147V24.2627H134.869L135.272 21.1442Z" fill="#0A2463"/>
</svg>
