<svg width="118" height="26" viewBox="0 0 118 26" fill="none" xmlns="http://www.w3.org/2000/svg">
<path d="M-0.00231934 12.6583C-0.00231934 8.80525 -0.00231934 4.94233 -0.00231934 1.07941C-0.00231934 0.316736 0.0492586 0.267212 0.843559 0.267212C6.83691 0.267212 12.8406 0.267212 18.8339 0.267212C19.5973 0.267212 19.6695 0.336546 19.6695 1.0497C19.6695 2.23829 19.6695 3.42688 19.6695 4.61547C19.6695 5.23948 19.5663 5.32862 18.9165 5.32862C14.6871 5.32862 10.4577 5.32862 6.23861 5.32862C5.29989 5.32862 5.17611 5.45739 5.17611 6.35873C5.17611 12.2918 5.17611 18.2347 5.17611 24.1678C5.17611 25.0394 5.16579 25.0493 4.2477 25.0493C3.08204 25.0493 1.90606 25.0493 0.740403 25.0493C0.0802053 25.0493 -0.00231934 24.98 -0.00231934 24.3361C-0.00231934 20.4435 -0.00231934 16.5509 -0.00231934 12.6583Z" fill="#0A2463"/>
<path d="M107.858 16.1545C107.858 15.0353 107.858 13.916 107.858 12.7869C107.858 12.3411 108.054 12.1628 108.508 12.1728C109.849 12.1827 111.19 12.1728 112.531 12.1728C113.119 12.1728 113.233 12.2817 113.233 12.8364C113.233 14.441 113.233 16.0357 113.233 17.6403C113.233 19.3241 114.192 20.2453 115.936 20.2552C116.451 20.2552 116.967 20.2552 117.483 20.2552C117.823 20.2552 117.988 20.4136 117.988 20.7405C117.988 22.0083 117.988 23.2762 117.988 24.5539C117.988 24.9105 117.792 25.059 117.442 25.059C116.121 25.059 114.79 25.1086 113.47 25.0194C110.417 24.8015 107.931 22.2262 107.858 19.2746C107.838 18.2346 107.858 17.1945 107.858 16.1545Z" fill="#0A2463"/>
<path d="M117.988 6.17028C117.988 5.6057 117.895 5.51656 117.286 5.51656C116.224 5.51656 115.151 5.51656 114.088 5.51656C113.408 5.51656 113.222 5.33827 113.222 4.69445C113.222 3.45633 113.222 2.21822 113.222 0.980104C113.222 0.375905 113.129 0.276855 112.51 0.276855C111.19 0.276855 109.859 0.276855 108.539 0.276855C107.93 0.276855 107.858 0.356095 107.848 0.940485C107.848 2.19841 107.848 3.44643 107.848 4.70435C107.848 5.31846 107.641 5.50665 107.012 5.51656C106.104 5.51656 105.186 5.51656 104.278 5.51656C100.369 5.53637 97.3566 7.66592 96.1806 11.2515C96.1084 11.4793 96.0671 11.7666 95.7267 11.7666C95.3863 11.7666 95.3451 11.4793 95.2625 11.2515C94.8809 10.1818 94.3548 9.19128 93.6017 8.30974C90.2904 4.46663 83.3893 4.20911 79.5313 7.78478C79.294 8.00269 79.0774 8.2305 78.8401 8.45831C78.737 8.56727 78.6235 8.69603 78.4481 8.58708C78.3037 8.48803 78.3759 8.34936 78.4172 8.2305C78.4791 8.07202 78.541 7.92345 78.6029 7.76497C79.5313 5.54627 80.4597 3.32757 81.3881 1.10887C81.646 0.484859 81.5222 0.296665 80.8104 0.296665C79.4178 0.296665 78.0252 0.316475 76.6326 0.28676C76.0652 0.276855 75.7764 0.455144 75.5701 0.980104C73.7339 5.62551 71.8771 10.2511 70.0203 14.8866C69.9481 15.055 69.8965 15.2333 69.7933 15.3819C69.5355 15.7582 69.0197 15.7483 68.7721 15.3719C68.669 15.2234 68.6174 15.0451 68.5452 14.8767C66.6368 10.2214 64.7284 5.57598 62.8406 0.920675C62.655 0.465049 62.4074 0.28676 61.8916 0.296665C60.4474 0.32638 59.0032 0.296665 57.5591 0.30657C56.7854 0.30657 56.6513 0.484859 56.9298 1.15839C60.138 8.95356 63.3564 16.7388 66.5543 24.534C66.7193 24.9401 66.9669 25.0788 67.4001 25.0689C68.5864 25.049 69.7727 25.0391 70.959 25.0689C71.4748 25.0788 71.7224 24.9005 71.8977 24.4349C73.1356 21.305 74.3941 18.1849 75.6526 15.055C75.7042 14.9163 75.7558 14.7777 75.8177 14.639C75.8899 14.4904 75.9208 14.2725 76.1374 14.3121C76.3953 14.3517 76.3128 14.5895 76.3231 14.7677C76.3231 14.9361 76.3231 15.0946 76.3231 15.263C76.3231 16.719 76.5501 18.1354 77.1793 19.4528C79.0052 23.286 82.2339 25.059 86.5149 25.1976C89.5271 25.2967 92.1575 24.3656 94.2826 22.2559C94.6849 21.8498 94.6849 21.6814 94.2619 21.3149C93.612 20.7503 92.9312 20.2254 92.2916 19.641C91.8997 19.2844 91.6005 19.2943 91.1879 19.6311C90.0119 20.5918 88.6296 21.0772 87.0823 21.1366C84.6272 21.2257 82.7497 20.1164 81.9554 18.0661C81.6356 17.2539 81.842 16.9567 82.7497 16.9567C86.7728 16.9567 90.7959 16.9567 94.819 16.9567C95.6236 16.9567 95.7783 17.1152 95.7783 17.8878C95.7783 20.0372 95.7783 22.1766 95.7783 24.326C95.7783 25.049 95.7783 25.049 96.5107 25.049C97.7692 25.049 99.0174 25.049 100.276 25.049C100.977 25.049 100.988 25.0391 100.988 24.3557C100.988 21.0078 100.988 17.66 100.988 14.3121C100.988 11.8755 102.731 10.2016 105.258 10.1917C107.198 10.1917 109.147 10.1917 111.087 10.1917C113.15 10.1917 115.213 10.1917 117.276 10.1917C117.885 10.1917 117.977 10.1025 117.977 9.53795C117.977 8.4187 117.977 7.29944 117.977 6.17028H117.988ZM89.8468 13.391C88.6812 13.391 87.5052 13.391 86.3395 13.391C85.1223 13.391 83.8948 13.391 82.6775 13.391C82.0483 13.391 81.8213 13.0839 81.9864 12.5292C82.5434 10.6869 84.2558 9.41909 86.2158 9.37947C88.3098 9.33985 89.9397 10.4393 90.6102 12.3311C90.8784 13.1037 90.6721 13.391 89.8365 13.391H89.8468Z" fill="#0A2463"/>
<path d="M52.3079 9.88494C52.3079 8.62702 52.3079 7.379 52.3079 6.12107C52.3079 5.78431 52.2357 5.51688 51.8128 5.51688C50.348 5.51688 48.8935 5.51688 47.4286 5.51688C47.0882 5.51688 46.9335 5.70507 46.9335 6.02203C46.9335 6.19041 46.9335 6.34889 46.9335 6.51727C46.9335 9.93447 46.9335 13.3418 46.9335 16.759C46.9335 18.3338 46.0154 19.6809 44.5816 20.2356C42.178 21.1865 39.5475 19.5125 39.496 16.9571C39.4547 15.194 39.496 13.4309 39.496 11.6579C39.496 9.87504 39.496 8.09215 39.496 6.30927C39.496 5.55649 39.4341 5.50697 38.6398 5.50697C37.4019 5.50697 36.164 5.50697 34.9262 5.50697C34.1834 5.50697 34.1215 5.5664 34.1215 6.25974C34.1215 7.81482 34.1215 9.35998 34.1215 10.9151C34.1215 11.2221 34.2556 11.6579 33.7708 11.7273C33.3272 11.7867 33.3169 11.3509 33.2035 11.0735C32.3369 8.89445 30.9237 7.171 28.6852 6.15079C24.0123 4.04104 18.6688 5.59611 16.0383 9.85523C15.8011 10.2316 15.5432 10.3703 15.0996 10.3703C12.758 10.3505 10.4266 10.3604 8.08501 10.3703C7.45576 10.3703 7.36292 10.4594 7.36292 11.0636C7.36292 12.1235 7.36292 13.1734 7.36292 14.2332C7.36292 14.9067 7.44544 14.9959 8.17785 14.9959C10.0347 14.9959 11.8915 15.0058 13.7483 14.9959C14.264 14.9959 14.5322 15.1246 14.5116 15.6595C14.5013 15.8873 14.5322 16.125 14.5632 16.3529C15.1202 20.3643 17.2143 23.316 21.258 24.6136C25.3946 25.9507 29.232 25.3168 32.4504 22.276C32.8424 21.8996 32.8321 21.7312 32.4298 21.3746C31.7696 20.8002 31.0784 20.2455 30.4286 19.6611C30.0572 19.3243 29.7684 19.3144 29.3661 19.6413C27.8394 20.8893 26.0444 21.3251 24.0742 21.0775C22.1658 20.8398 20.8454 19.8592 20.1336 18.1456C19.7622 17.2542 19.9686 16.9571 20.9795 16.9571C25.0541 16.9571 29.1288 16.9571 33.2035 16.9571C34.0287 16.9571 34.1319 17.0462 34.2763 17.8287C35.1531 22.5632 39.9189 25.7229 44.8394 24.8513C49.1307 24.0886 52.2873 20.4337 52.3286 16.1647C52.3492 14.0747 52.3286 11.9749 52.3286 9.88494H52.3079ZM27.7878 13.3913C26.6015 13.3913 25.4152 13.3913 24.2289 13.3913C23.0426 13.3913 21.8563 13.3913 20.67 13.3913C19.9273 13.3913 19.721 13.0743 19.9582 12.4107C20.6597 10.4891 22.2999 9.36989 24.3733 9.37979C26.323 9.3996 27.9219 10.5387 28.5408 12.3612C28.7884 13.0941 28.5821 13.3913 27.7775 13.3913H27.7878Z" fill="#0A2463"/>
</svg>
