<svg width="204" height="34" viewBox="0 0 204 34" fill="none" xmlns="http://www.w3.org/2000/svg">
<path d="M35.8165 33.6312H46.9856C47.1507 29.6147 47.5358 21.9669 48.8013 18.5556C50.2318 14.7592 52.8178 12.0632 56.8893 11.6231C57.6046 11.5681 58.3198 11.6231 58.9801 11.6231C58.705 11.6231 57.3295 11.0179 56.8343 10.9078C54.3033 10.0825 51.5523 9.91745 48.9113 10.5227C40.3832 12.7235 36.5868 25.5432 35.8165 33.6312Z" fill="#0A2463"/>
<path d="M176.394 8.53928C170.507 8.97945 167.315 12.4457 166.6 18.1128C165.775 24.8253 169.296 28.3466 175.899 27.8514C181.676 27.4662 184.977 23.8349 185.637 18.2779C186.463 11.6754 182.886 7.98908 176.394 8.53928ZM180.52 17.6176C180.19 20.5887 178.815 23.2297 176.504 23.9449C173.093 24.9903 171.387 22.3494 171.827 18.663C172.157 15.7469 173.588 13.106 175.954 12.3907C179.53 11.2903 180.906 14.4264 180.52 17.6176ZM185.747 27.6313H190.754L192.185 21.1389C195.156 21.1389 197.742 21.1389 199.943 19.8184C202.033 18.553 203.189 16.2421 203.024 13.8212C202.969 10.9052 201.208 9.63969 198.622 9.19953C195.651 8.92443 192.735 8.81439 189.764 8.92443L185.747 27.6313ZM194 12.3907C196.311 12.2256 198.622 12.3907 197.962 15.3068C197.467 17.3425 195.266 17.4526 192.955 17.4526L194 12.3907ZM135.184 23.1747L133.973 26.9711C137.549 27.8514 140.465 28.4016 144.262 27.3012C147.453 26.6409 149.544 23.5048 148.829 20.2586V20.2036C148.113 16.6273 143.822 16.4072 142.226 15.0317C141.621 14.5915 141.456 13.7662 141.896 13.161C141.896 13.106 141.951 13.106 141.951 13.0509C142.556 12.5007 143.327 12.2256 144.152 12.2256C145.968 12.0606 147.783 12.3357 149.434 12.9959L150.644 9.19953C147.343 7.93406 139.475 7.43888 137.164 11.7855C136.394 13.326 136.284 15.0867 136.889 16.6823C138.32 19.5983 143.437 19.3783 143.712 21.6341C144.042 24.3301 139.42 24.22 137.384 23.7799C136.614 23.7799 135.899 23.5048 135.184 23.1747ZM152.24 12.5558H156.862L153.67 27.6313H158.732L161.978 12.5558H166.6L167.426 8.81439H153.01L152.24 12.5558Z" fill="#0A2463"/>
<path d="M85.1707 27.6313H90.2326C90.7278 25.1554 91.278 22.6795 91.7181 20.2036C94.3591 20.2036 94.5792 20.0935 95.0744 22.5144C95.4045 24.11 95.8447 26.0357 96.1198 27.6313H101.182C100.907 26.0357 100.411 24.165 100.026 22.5694C99.8612 21.359 99.476 20.2036 98.7608 19.1582C98.3206 18.718 98.2656 18.773 97.7704 18.4429C99.6411 18.3879 101.402 17.5076 102.502 15.967C103.438 14.2064 103.272 12.0606 102.062 10.465C100.741 9.14451 98.7608 8.97945 96.4499 8.92443C94.6893 8.92443 89.2972 8.81439 89.2972 8.81439L85.1707 27.6313ZM93.2037 12.3907C95.2395 12.3907 98.4857 12.0056 97.8254 14.8666C97.3302 16.8473 94.5242 16.5722 92.4334 16.6273L93.2037 12.3907ZM103.988 23.1747L102.777 26.9711C106.354 27.8514 109.27 28.4016 113.066 27.3012C115.927 26.4759 118.458 24.055 117.633 20.2036C116.918 16.6273 112.626 16.4072 111.03 15.0317C110.425 14.5915 110.26 13.7662 110.7 13.161C110.7 13.106 110.755 13.106 110.755 13.0509C111.36 12.5007 112.131 12.2256 112.901 12.2256C114.717 12.0606 116.532 12.3357 118.183 12.9959L119.393 9.19953C116.092 7.93406 108.224 7.43888 105.913 11.7855C105.088 13.326 105.033 15.1417 105.693 16.7373C107.124 19.6534 112.241 19.4333 112.516 21.6891C112.846 24.3851 108.224 24.2751 106.189 23.8349C105.473 23.7799 104.758 23.5598 103.988 23.1747ZM61.2368 27.6313H66.3537C66.5738 26.3658 66.8489 25.0453 67.124 23.7799L67.9493 20.0935H75.212L75.9273 16.5172H68.6096L69.5449 12.5007L77.1377 12.3907L77.908 8.86941H65.3083L61.2368 27.6313ZM121.099 12.5558H125.721L122.53 27.5763H127.591L130.838 12.5007H135.459L136.285 8.75937H121.814L121.099 12.5558ZM76.4775 27.6313H81.5394L85.3908 8.75937H80.3289L76.4775 27.6313Z" fill="#0A2463"/>
<path d="M0.988403 33.631H14.3584C14.7985 32.8057 15.3487 31.1001 15.6789 30.2198C17.5496 25.8732 19.9154 21.7467 22.7215 17.9503C23.9319 16.3547 25.2524 14.8691 26.6279 13.4386C31.0296 8.87194 36.5866 5.62575 42.6939 4.03017C46.9305 2.98478 51.3321 2.98478 55.5137 4.03017C56.8342 4.36029 58.2097 5.02053 59.5302 5.35065C58.2647 4.36029 56.8342 3.53498 55.3486 2.92976C50.6719 0.673934 45.4449 -0.316429 40.273 -0.0413282C30.8645 0.508874 22.1163 6.286 16.174 12.3932L11.8274 17.125C10.5069 18.7206 7.7009 22.3519 6.60049 24.0575C5.28 26.1483 4.45469 27.2487 3.02416 29.6696C2.30889 30.9901 1.59363 32.2555 0.988403 33.631Z" fill="#0A2463"/>
</svg>
