<svg width="21" height="24" viewBox="0 0 21 24" fill="none" xmlns="http://www.w3.org/2000/svg">
<path d="M10.5059 0.00195312C11.3356 0.00195312 12.0059 0.672266 12.0059 1.50195V2.91289L12.709 2.20977C13.1497 1.76914 13.8622 1.76914 14.2981 2.20977C14.734 2.65039 14.7387 3.36289 14.2981 3.79883L12.0012 6.0957V9.39102L14.8794 7.71289L15.709 4.61445C15.8684 4.01445 16.4872 3.6582 17.0872 3.81758C17.6872 3.97695 18.0434 4.5957 17.884 5.1957L17.6403 6.10039L18.7465 5.45352C19.4637 5.03633 20.3825 5.28008 20.7997 5.99258C21.2169 6.70508 20.9778 7.62852 20.2606 8.0457L19.0747 8.73945L20.0919 9.01133C20.6919 9.1707 21.0481 9.78945 20.8887 10.3895C20.7294 10.9895 20.1106 11.3457 19.5106 11.1863L16.3372 10.3379L13.4825 12.002L16.3372 13.666L19.5106 12.8176C20.1106 12.6582 20.7294 13.0145 20.8887 13.6145C21.0481 14.2145 20.6919 14.8332 20.0919 14.9926L19.0747 15.2645L20.2606 15.9582C20.9778 16.3754 21.2169 17.2941 20.7997 18.0113C20.3825 18.7285 19.4637 18.9676 18.7465 18.5504L17.6403 17.9035L17.884 18.8082C18.0434 19.4082 17.6872 20.027 17.0872 20.1863C16.4872 20.3457 15.8684 19.9895 15.709 19.3895L14.8794 16.291L12.0059 14.6129V17.9082L14.3028 20.2051C14.7434 20.6457 14.7434 21.3582 14.3028 21.7941C13.8622 22.2301 13.1497 22.2348 12.7137 21.7941L12.0106 21.091V22.502C12.0106 23.3316 11.3403 24.002 10.5106 24.002C9.68091 24.002 9.0106 23.3316 9.0106 22.502V21.091L8.30748 21.7941C7.86685 22.2348 7.15435 22.2348 6.71841 21.7941C6.28248 21.3535 6.27779 20.641 6.71841 20.2051L9.01529 17.9082V14.6129L6.13716 16.291L5.30748 19.3895C5.1481 19.9895 4.52935 20.3457 3.92935 20.1863C3.32935 20.027 2.9731 19.4082 3.13248 18.8082L3.37623 17.9035L2.2606 18.5457C1.54341 18.9629 0.624665 18.7191 0.207477 18.0066C-0.20971 17.2941 0.03404 16.3707 0.74654 15.9535L1.93248 15.2598L0.91529 14.9879C0.31529 14.8285 -0.04096 14.2098 0.118415 13.6098C0.27779 13.0098 0.89654 12.6535 1.49654 12.8129L4.66998 13.6613L7.52935 12.002L4.67466 10.3379L1.50123 11.1863C0.901227 11.3457 0.282477 10.9895 0.123102 10.3895C-0.0362725 9.78945 0.319977 9.1707 0.919977 9.01133L1.93716 8.73945L0.751227 8.0457C0.03404 7.62852 -0.205022 6.70977 0.212165 5.99727C0.629352 5.28477 1.5481 5.04102 2.26529 5.4582L3.37154 6.10508L3.12779 5.20039C2.96841 4.60039 3.32466 3.98164 3.92466 3.82227C4.52466 3.66289 5.14341 4.01914 5.30279 4.61914L6.13248 7.71758L9.00591 9.39102V6.09102L6.70904 3.79883C6.26841 3.3582 6.26841 2.6457 6.70904 2.20977C7.14966 1.77383 7.86216 1.76914 8.2981 2.20977L9.00123 2.91289V1.50195C9.00123 0.672266 9.67154 0.00195312 10.5012 0.00195312H10.5059Z" fill="#24AEF7"/>
</svg>
