<svg width="30" height="30" viewBox="0 0 30 30" fill="none" xmlns="http://www.w3.org/2000/svg">
<path d="M23 0H7C3.13401 0 0 3.13401 0 7V23C0 26.866 3.13401 30 7 30H23C26.866 30 30 26.866 30 23V7C30 3.13401 26.866 0 23 0Z" fill="white"/>
<g clip-path="url(#clip0_10489_38556)">
<path d="M15 7C12.8783 7 10.8434 7.84285 9.34315 9.34315C7.84285 10.8434 7 12.8783 7 15C7 17.1217 7.84285 19.1566 9.34315 20.6569C10.8434 22.1571 12.8783 23 15 23C17.1217 23 19.1566 22.1571 20.6569 20.6569C22.1571 19.1566 23 17.1217 23 15C23 12.8783 22.1571 10.8434 20.6569 9.34315C19.1566 7.84285 17.1217 7 15 7ZM16 16H12V14H14V10H16V16Z" fill="#1F317A"/>
</g>
<defs>
<clipPath id="clip0_10489_38556">
<rect width="16" height="16" fill="white" transform="translate(7 7)"/>
</clipPath>
</defs>
</svg>
