<svg width="30" height="30" viewBox="0 0 30 30" fill="none" xmlns="http://www.w3.org/2000/svg">
<g id="Group 1216403035">
<path id="bg" d="M23 0H7C3.13401 0 0 3.13401 0 7V23C0 26.866 3.13401 30 7 30H23C26.866 30 30 26.866 30 23V7C30 3.13401 26.866 0 23 0Z" fill="white"/>
<path id="Vector" fill-rule="evenodd" clip-rule="evenodd" d="M25.2699 21.7925C25.0411 21.9275 24.7825 21.9989 24.5192 21.9999H6.50153C6.23779 22.0024 5.97834 21.9307 5.75079 21.7925L11.7567 15.5703L13.2331 17.1C13.5344 17.4004 13.8919 17.6336 14.2836 17.7852C14.6752 17.9368 15.0928 18.0036 15.5104 17.9814C15.9277 18.0013 16.3446 17.9334 16.736 17.7819C17.1273 17.6304 17.485 17.3984 17.7876 17.1L19.264 15.5703L25.2699 21.7925ZM25.7954 21.2222L19.7896 15L25.7954 8.77777C25.9257 9.01484 25.9947 9.28276 25.9956 9.55555V20.4444C26.019 20.7199 25.9481 20.9952 25.7954 21.2222ZM5.20025 21.2222C5.06998 20.9851 5.00102 20.7172 5.00006 20.4444V9.55555C4.99771 9.28231 5.06689 9.01352 5.20025 8.77777L11.2061 15L5.20025 21.2222ZM25.2699 8.20741L17.2371 16.5296C17.0084 16.7573 16.7374 16.9345 16.4405 17.0504C16.1437 17.1662 15.8272 17.2184 15.5104 17.2037C15.1935 17.2184 14.877 17.1662 14.5802 17.0504C14.2834 16.9345 14.0124 16.7573 13.7837 16.5296L5.75079 8.20741C5.97962 8.07244 6.23822 8.001 6.50153 8H24.5192C24.7825 8.001 25.0411 8.07244 25.2699 8.20741Z" fill="#1F317A"/>
</g>
</svg>
