<svg width="26" height="21" viewBox="0 0 26 21" fill="none" xmlns="http://www.w3.org/2000/svg">
<g id="Mode_Isolation" clip-path="url(#clip0_6653_75148)">
<g id="Group">
<path id="Vector" d="M20.854 15.3215C24.9172 13.6385 26.8467 8.98026 25.1637 4.91706C23.4806 0.853856 18.8224 -1.07565 14.7592 0.607381C10.696 2.29042 8.76647 6.94866 10.4495 11.0119C12.1325 15.0751 16.7908 17.0046 20.854 15.3215Z" fill="#F79E1B"/>
<path id="Vector_2" d="M11.0115 15.3202C15.0747 13.6372 17.0042 8.97892 15.3211 4.91572C13.6381 0.852514 8.97986 -1.077 4.91665 0.606039C0.853449 2.28907 -1.07606 6.94732 0.606974 11.0105C2.29001 15.0737 6.94826 17.0032 11.0115 15.3202Z" fill="#EB001B"/>
<path id="Vector_3" d="M9.84229 7.96356C9.84229 10.5046 11.0324 12.7608 12.8842 14.222C14.736 12.7654 15.9262 10.5046 15.9262 7.96356C15.9262 5.42249 14.736 3.16171 12.8842 1.70508C11.0324 3.16171 9.84229 5.42249 9.84229 7.96356Z" fill="#FF5E04"/>
</g>
<path id="Vector_4" d="M4.63631 20.076V18.7526C4.66848 18.3207 4.34223 17.9439 3.91029 17.9163C3.87813 17.9163 3.84136 17.9163 3.8092 17.9163C3.51052 17.8979 3.23022 18.0404 3.06939 18.2885C2.92235 18.045 2.65584 17.9025 2.37554 17.9163C2.1274 17.9025 1.89306 18.022 1.7598 18.2288V17.9669H1.30029V20.0714H1.76439V18.9135C1.72763 18.6423 1.91603 18.3942 2.18714 18.3575C2.21931 18.3575 2.25147 18.3529 2.27904 18.3575C2.58232 18.3575 2.73855 18.555 2.73855 18.9135V20.0852H3.20265V18.9181C3.16589 18.6469 3.35888 18.3988 3.62999 18.362C3.65756 18.362 3.68973 18.3575 3.7173 18.362C4.02976 18.362 4.1814 18.5596 4.1814 18.9181V20.0898L4.6455 20.0806L4.63631 20.076ZM11.483 17.9715H10.7294V17.3328H10.2653V17.9715H9.84712V18.3896H10.2745V19.3592C10.2745 19.8463 10.4629 20.1403 11.0051 20.1403C11.2073 20.1403 11.4048 20.0852 11.5795 19.9795L11.4462 19.5889C11.3221 19.6625 11.1843 19.7038 11.0418 19.7084C10.8213 19.7084 10.7386 19.566 10.7386 19.3546V18.3942H11.4876V17.9761L11.483 17.9715ZM15.3888 17.9163C15.159 17.9117 14.9476 18.0266 14.8328 18.2242V17.9669H14.3779V20.0714H14.8374V18.8905C14.8374 18.5413 14.989 18.3483 15.2785 18.3483C15.375 18.3483 15.4761 18.3666 15.5634 18.4034L15.7058 17.9623C15.6001 17.9255 15.4899 17.9071 15.3796 17.9071L15.3888 17.9163ZM9.47951 18.1369C9.22219 17.9807 8.92351 17.9071 8.62023 17.9163C8.08721 17.9163 7.73798 18.1737 7.73798 18.5918C7.73798 18.9364 7.9953 19.1478 8.464 19.2121L8.68456 19.2443C8.93729 19.2811 9.05676 19.3454 9.05676 19.4649C9.05676 19.6257 8.89134 19.7222 8.57888 19.7222C8.32615 19.7314 8.08261 19.6533 7.88043 19.5016L7.65986 19.86C7.92638 20.0484 8.24803 20.1403 8.56969 20.1312C9.17624 20.1312 9.53006 19.8463 9.53006 19.4419C9.53006 19.0375 9.25435 18.8767 8.79485 18.8124L8.57428 18.7802C8.3767 18.7526 8.21587 18.7159 8.21587 18.5734C8.21587 18.431 8.36751 18.3253 8.61564 18.3253C8.84999 18.3253 9.07515 18.3896 9.27733 18.5045L9.47951 18.1323V18.1369ZM21.7529 17.9163C21.5232 17.9117 21.3118 18.0266 21.1969 18.2242V17.9669H20.742V20.0714H21.2015V18.8905C21.2015 18.5413 21.3532 18.3483 21.6427 18.3483C21.7391 18.3483 21.8356 18.3666 21.9275 18.4034L22.07 17.9623C21.9643 17.9255 21.854 17.9071 21.7437 17.9071L21.7529 17.9163ZM15.8483 19.0191C15.8253 19.6073 16.2848 20.099 16.873 20.122C16.9051 20.122 16.9373 20.122 16.9741 20.122C17.2498 20.1357 17.5209 20.0484 17.7323 19.8692L17.5117 19.497C17.3555 19.6165 17.1625 19.6854 16.9603 19.6854C16.5881 19.6533 16.3124 19.327 16.3399 18.9548C16.3675 18.624 16.6294 18.362 16.9603 18.3345C17.1579 18.3345 17.3509 18.4034 17.5117 18.5229L17.7323 18.1507C17.5209 17.9761 17.2498 17.8842 16.9741 17.8979C16.3859 17.8658 15.885 18.3115 15.8529 18.8997C15.8529 18.9318 15.8529 18.964 15.8529 19.0008V19.01L15.8483 19.0191ZM20.1401 19.0191V17.9715H19.6806V18.2288C19.5243 18.0266 19.2762 17.9117 19.0189 17.9209C18.4123 17.9209 17.9161 18.4126 17.9161 19.0237C17.9161 19.6349 18.4077 20.1266 19.0189 20.1266C19.2762 20.1357 19.5197 20.0209 19.6806 19.8187V20.076H20.1401V19.0283V19.0191ZM18.4353 19.0191C18.4537 18.6699 18.757 18.3988 19.1062 18.4218C19.4554 18.4448 19.7265 18.7434 19.7035 19.0927C19.6852 19.4281 19.4049 19.69 19.0694 19.69C18.7202 19.69 18.4353 19.4143 18.4307 19.0651C18.4307 19.0467 18.4307 19.0329 18.4307 19.0145L18.4353 19.0191ZM12.9074 17.9163C12.3009 17.9255 11.8138 18.4264 11.823 19.0329C11.8322 19.6395 12.333 20.1266 12.9396 20.1174C13.2567 20.1357 13.5691 20.0301 13.8127 19.8325L13.5921 19.4924C13.4175 19.6303 13.2015 19.7084 12.981 19.713C12.6639 19.7406 12.3882 19.5108 12.3514 19.1984H13.9138V19.0237C13.9138 18.362 13.5048 17.9209 12.912 17.9209H12.9074V17.9163ZM12.9074 18.3253C13.1969 18.3207 13.4359 18.5459 13.4405 18.8353H12.3376C12.356 18.5413 12.6042 18.3161 12.8982 18.3253H12.9074ZM24.3859 19.0237V17.126H23.9448V18.2288C23.7885 18.0266 23.5404 17.9117 23.2831 17.9209C22.6765 17.9209 22.1803 18.4126 22.1803 19.0237C22.1803 19.6349 22.6719 20.1266 23.2831 20.1266C23.5404 20.1357 23.784 20.0209 23.9448 19.8187V20.076H24.3859V19.0329V19.0237ZM25.1487 19.7681C25.1763 19.7681 25.2038 19.7727 25.2314 19.7819C25.259 19.7911 25.2819 19.8095 25.3003 19.8279C25.3187 19.8463 25.3371 19.8692 25.3463 19.8922C25.3693 19.9428 25.3693 20.0025 25.3463 20.053C25.3371 20.076 25.3187 20.099 25.3003 20.1174C25.2819 20.1357 25.259 20.1495 25.2314 20.1633C25.2038 20.1771 25.1763 20.1817 25.1487 20.1817C25.0614 20.1817 24.9879 20.1311 24.9511 20.053C24.9281 20.0025 24.9281 19.9428 24.9511 19.8922C24.9603 19.8692 24.9787 19.8463 24.997 19.8279C25.0154 19.8095 25.0384 19.7957 25.066 19.7819C25.0935 19.7727 25.1257 19.7635 25.1579 19.7681H25.1533H25.1487ZM25.1487 20.1403C25.1487 20.1403 25.1946 20.1403 25.213 20.1266C25.2314 20.1174 25.2498 20.1082 25.2636 20.0898C25.3187 20.0255 25.3187 19.9336 25.2636 19.8692C25.2498 19.8554 25.2314 19.8417 25.213 19.8325C25.1946 19.8233 25.1717 19.8187 25.1487 19.8187C25.1257 19.8187 25.1027 19.8233 25.0844 19.8325C25.066 19.8417 25.0476 19.8509 25.0292 19.8692C24.9741 19.9336 24.9741 20.0255 25.0292 20.0898C25.043 20.1036 25.0614 20.1174 25.0844 20.1266C25.1073 20.1357 25.1303 20.1403 25.1533 20.1403H25.1487ZM25.1625 19.8784C25.1625 19.8784 25.2038 19.883 25.2176 19.8968C25.2314 19.906 25.2406 19.9244 25.236 19.9428C25.236 19.9565 25.2314 19.9703 25.2222 19.9841C25.2084 19.9979 25.1946 20.0025 25.1763 20.0025L25.2406 20.076H25.19L25.1303 20.0025H25.1119V20.076H25.0706V19.883H25.1625V19.8784ZM25.1119 19.9152V19.9703H25.1625C25.1625 19.9703 25.1809 19.9703 25.19 19.9703C25.19 19.9657 25.19 19.9565 25.19 19.9519C25.19 19.9473 25.19 19.9382 25.19 19.9336C25.1809 19.9336 25.1717 19.9336 25.1625 19.9336L25.1119 19.9198V19.9152ZM22.6903 19.0237C22.7133 18.6745 23.012 18.4034 23.3612 18.4264C23.7104 18.4494 23.9815 18.748 23.9586 19.0973C23.9402 19.4327 23.6599 19.6946 23.3244 19.6946C22.9752 19.6946 22.6903 19.4189 22.6857 19.0697C22.6857 19.0513 22.6857 19.0375 22.6857 19.0191L22.6903 19.0237ZM7.22333 19.0237V17.9715H6.76383V18.2288C6.60759 18.0266 6.35946 17.9117 6.10214 17.9209C5.49559 17.9209 4.99932 18.4126 4.99932 19.0237C4.99932 19.6349 5.49099 20.1266 6.10214 20.1266C6.35946 20.1357 6.603 20.0209 6.76383 19.8187V20.076H7.22333V19.0329V19.0237ZM5.51856 19.0237C5.54154 18.6745 5.84022 18.4034 6.18944 18.4264C6.53867 18.4494 6.80978 18.748 6.7868 19.0973C6.76842 19.4327 6.49272 19.6946 6.15268 19.6946C5.80346 19.6992 5.51397 19.4235 5.50937 19.0743C5.50937 19.0559 5.50937 19.0375 5.50937 19.0191L5.51856 19.0237Z" fill="#1A1A1A"/>
</g>
<defs>
<clipPath id="clip0_6653_75148">
<rect width="25.7691" height="20.1861" fill="white"/>
</clipPath>
</defs>
</svg>
