<svg width="634" height="651" viewBox="0 0 634 651" fill="none" xmlns="http://www.w3.org/2000/svg">
<g style="mix-blend-mode:multiply" opacity="0.2">
<path d="M316.665 0.5C491.324 0.500015 632.83 129.207 632.83 287.877C632.83 446.547 491.324 575.255 316.665 575.255C142.006 575.255 0.5 446.547 0.5 287.877C0.500145 129.207 142.006 0.5 316.665 0.5Z" stroke="#2563EB"/>
<path d="M316.665 75.2456C491.554 75.2456 633.33 204.132 633.33 363.123C633.33 522.113 491.554 651 316.665 651C141.776 651 0 522.113 0 363.123C0.000145143 204.132 141.776 75.2456 316.665 75.2456ZM316.665 195.3C214.711 195.3 132.06 270.437 132.06 363.123C132.06 455.809 214.711 530.946 316.665 530.946C418.62 530.946 501.27 455.809 501.27 363.123C501.269 270.437 418.619 195.3 316.665 195.3Z" fill="#2563EB" fill-opacity="0.2"/>
</g>
</svg>
