<svg width="152" height="262" viewBox="0 0 152 262" fill="none" xmlns="http://www.w3.org/2000/svg">
<path d="M28.792 44.6467L99.662 85.4896C109.744 91.2997 115.954 102.037 115.954 113.657V195.343C115.954 206.963 109.744 217.7 99.662 223.51L28.792 264.353C18.7105 270.163 6.28954 270.163 -3.79196 264.353L-74.662 223.51C-84.7435 217.7 -90.954 206.963 -90.954 195.343V113.657C-90.954 102.037 -84.7435 91.2997 -74.662 85.4896L-3.79196 44.6467C6.28954 38.8367 18.7105 38.8367 28.792 44.6467Z" fill="#2B87FF" fill-opacity="0.1"/>
<path fill-rule="evenodd" clip-rule="evenodd" d="M32.865 5.44691C20.2631 -1.81564 4.73691 -1.81563 -7.86497 5.44692L-106.635 62.3688C-119.237 69.6313 -127 83.0531 -127 97.5782V211.422C-127 225.947 -119.237 239.369 -106.635 246.631L-7.86496 303.553C4.73692 310.816 20.2631 310.816 32.865 303.553L131.635 246.631C144.237 239.369 152 225.947 152 211.422V97.5782C152 83.0531 144.237 69.6313 131.635 62.3688L32.865 5.44691ZM-7.86495 37.6048C4.73692 30.3423 20.2631 30.3423 32.865 37.6048L103.735 78.4477C116.337 85.7103 124.1 99.132 124.1 113.657V195.343C124.1 209.868 116.337 223.29 103.735 230.552L32.865 271.395C20.2631 278.658 4.73694 278.658 -7.86495 271.395L-78.735 230.552C-91.3369 223.29 -99.1 209.868 -99.1 195.343V113.657C-99.1 99.132 -91.3369 85.7103 -78.735 78.4477L-7.86495 37.6048Z" fill="#2B87FF" fill-opacity="0.1"/>
</svg>
