<svg width="56" height="62" viewBox="0 0 56 62" fill="none" xmlns="http://www.w3.org/2000/svg">
<path d="M23 1.88675C26.094 0.100423 29.906 0.100423 33 1.88675L50.7128 12.1132C53.8068 13.8996 55.7128 17.2008 55.7128 20.7735V41.2265C55.7128 44.7992 53.8068 48.1004 50.7128 49.8867L33 60.1133C29.906 61.8996 26.094 61.8996 23 60.1133L5.28719 49.8867C2.19318 48.1004 0.287188 44.7992 0.287188 41.2265V20.7735C0.287188 17.2008 2.19318 13.8996 5.28719 12.1132L23 1.88675Z" fill="#2B87FF" fill-opacity="0.09"/>
<path d="M52.7832 13.7021C54.0241 14.943 54.9168 16.4906 55.3711 18.1855H55.3721L52.957 18.832C53.1244 19.4566 53.2129 20.1085 53.2129 20.7734V22.4775H55.7129V25.8867H53.2129V29.2959H55.7129V32.7041H53.2129V36.1133H55.7129V39.5225H53.2129V41.2266C53.2129 41.8915 53.1244 42.5434 52.957 43.168L55.3711 43.8135C54.917 45.5086 54.024 47.0559 52.7832 48.2969L51.0166 46.5303C50.6165 46.9305 50.1675 47.2878 49.6758 47.5938L49.4629 47.7217L47.9863 48.5742L49.2354 50.7383L46.2842 52.4434L45.0342 50.2783L42.082 51.9824L43.332 54.1475L40.3789 55.8516L39.1299 53.6875L36.1777 55.3916L37.4277 57.5566L34.4756 59.2607L33.2256 57.0957L31.75 57.9482C31.1742 58.2807 30.566 58.5299 29.9414 58.6973L30.5879 61.1123C28.8929 61.5663 27.1061 61.5665 25.4111 61.1123L26.0586 58.6973C25.434 58.5299 24.8258 58.2807 24.25 57.9482L22.7744 57.0957L21.5244 59.2607H21.5234L18.5713 57.5566L19.8223 55.3916L16.8701 53.6875L15.6201 55.8516L12.667 54.1475H12.668L13.918 51.9824L10.9658 50.2783L9.71582 52.4434H9.71484L6.76367 50.7383L8.01367 48.5742L6.53711 47.7217C5.96129 47.3892 5.4406 46.9875 4.9834 46.5303L3.21582 48.2969C1.97518 47.0559 1.08199 45.5085 0.62793 43.8135L3.04297 43.168C2.89653 42.6216 2.81016 42.0542 2.79102 41.4756L2.78711 41.2266V39.5225H0.287109V36.1133H2.78711V32.7041H0.287109V29.2959H2.78711V25.8867H0.287109V22.4775H2.78711V20.7734C2.78712 20.1085 2.87558 19.4566 3.04297 18.832L0.62793 18.1855C1.08213 16.4907 1.97515 14.943 3.21582 13.7021L4.9834 15.4697C5.38353 15.0695 5.83251 14.7122 6.32422 14.4062L6.53711 14.2783L8.01367 13.4258L6.76367 11.2607L9.71484 9.55566L9.71582 9.55664L10.9658 11.7217L13.918 10.0176L12.668 7.85254L12.667 7.85156L15.6201 6.14746L16.8701 8.3125L19.8223 6.6084L18.5723 4.44336L18.5713 4.44238L21.5234 2.73828L21.5244 2.73926L22.7744 4.9043L24.25 4.05176C24.8258 3.71933 25.434 3.47006 26.0586 3.30273L25.4121 0.887695L25.4111 0.886719C27.1059 0.432637 28.8931 0.4328 30.5879 0.886719V0.887695L29.9414 3.30273C30.566 3.47006 31.1742 3.71933 31.75 4.05176L33.2256 4.9043L34.4756 2.73926V2.73828L37.4277 4.44238V4.44336L36.1777 6.6084L39.1299 8.3125L40.3789 6.14746L43.332 7.85156V7.85254L42.082 10.0176L45.0342 11.7217L46.2842 9.55664V9.55566L49.2354 11.2607H49.2363L47.9863 13.4258L49.4629 14.2783C50.0387 14.6108 50.5594 15.0125 51.0166 15.4697L52.7832 13.7021Z" stroke="#C2CEFF" stroke-opacity="0.65" stroke-width="5" stroke-dasharray="4 4"/>
</svg>
