<svg width="160" height="166" viewBox="0 0 160 166" fill="none" xmlns="http://www.w3.org/2000/svg">
<circle cx="80.0002" cy="85.9914" r="80.009" fill="#40BF4F"/>
<path d="M135.09 86.9295L113.567 58.2319C106.392 63.3831 97.3526 52.6646 83.2764 62.4074C79.3305 58.9207 70.5491 59.5377 64.2356 60.1977C57.9221 60.8577 53.6749 61.2452 49.8868 58.9063L28.6363 85.308C28.7439 85.4322 28.8311 85.5726 28.8946 85.7242C37.1595 97.9206 37.2169 105.081 43.3438 110.318L43.7312 109.844L43.8603 110.763C42.8819 111.908 42.3932 113.393 42.4996 114.896C42.606 116.398 43.299 117.799 44.4291 118.795C45.5591 119.792 47.0356 120.304 48.5399 120.221C50.0441 120.138 51.4556 119.467 52.4696 118.353C51.4193 119.468 50.8549 120.955 50.9007 122.486C50.9464 124.017 51.5985 125.467 52.7135 126.518C53.8286 127.568 55.3151 128.132 56.8463 128.087C58.3774 128.041 59.8277 127.389 60.878 126.274L61.0502 126.087C59.9618 127.176 59.3503 128.652 59.3503 130.191C59.3503 131.73 59.9618 133.206 61.0502 134.295C62.1385 135.383 63.6147 135.995 65.1539 135.995C66.6931 135.995 68.1693 135.383 69.2577 134.295L74.8824 128.67C74.6353 128.916 74.4186 129.191 74.2367 129.488C73.6242 130.353 73.2635 131.372 73.1945 132.43C73.1255 133.488 73.3509 134.544 73.8458 135.482C74.3407 136.42 75.0856 137.202 75.9981 137.742C76.9105 138.282 77.9547 138.559 79.0148 138.542C80.5441 138.534 82.0103 137.932 83.1042 136.863L86.5192 133.434C87.3976 132.563 87.9712 131.432 88.1548 130.209C88.3384 128.986 88.122 127.737 87.538 126.647L87.7819 126.475L90.7665 129.459C91.853 130.548 93.3273 131.16 94.8652 131.161C96.403 131.162 97.8784 130.553 98.9668 129.466C100.055 128.38 100.667 126.906 100.669 125.368C100.67 123.83 100.06 122.354 98.974 121.266L97.7974 120.089L100.136 122.371C105.244 127.479 113.251 120.391 108.745 114.694L111.099 117.019C112.033 118.221 113.407 119.004 114.918 119.193C116.429 119.383 117.953 118.965 119.156 118.03C120.358 117.096 121.14 115.722 121.33 114.212C121.52 112.701 121.101 111.176 120.167 109.974C129.853 100.317 129.25 91.1193 135.09 86.9295Z" fill="#FFE5E1"/>
<path d="M133.87 85.8823L130.843 81.8359C125.577 86.1406 125.821 95.0655 116.494 104.435C116.957 105.032 117.299 105.713 117.499 106.442C117.699 107.17 117.754 107.931 117.66 108.68C117.566 109.43 117.325 110.153 116.951 110.81C116.578 111.466 116.079 112.043 115.482 112.506C114.886 112.97 114.204 113.312 113.476 113.512C112.747 113.712 111.987 113.766 111.237 113.672C110.488 113.578 109.764 113.338 109.108 112.964C108.451 112.59 107.875 112.091 107.411 111.495L106.507 110.577C106.409 110.484 106.286 110.422 106.154 110.398C106.021 110.375 105.884 110.391 105.76 110.444C105.637 110.498 105.531 110.586 105.457 110.699C105.384 110.812 105.344 110.944 105.345 111.079C105.345 113.059 105.704 116.015 102.805 116.99C100.984 117.359 99.0966 117.215 97.3526 116.574C97.2286 116.533 97.0956 116.527 96.9685 116.557C96.8413 116.587 96.725 116.652 96.6326 116.744C96.5403 116.836 96.4755 116.953 96.4455 117.08C96.4155 117.207 96.4215 117.34 96.4629 117.464C96.6966 118.055 96.8603 118.671 96.9508 119.301L97.0512 119.401H96.9508C97.0655 120.797 96.6732 122.188 95.8457 123.319C95.0182 124.449 93.811 125.244 92.4453 125.557C91.4541 125.788 90.4185 125.744 89.4502 125.431C88.4818 125.117 87.6173 124.546 86.9497 123.777C85.9596 122.759 89.4177 128.226 89.4177 128.226C90.2311 129.063 91.2713 129.645 92.4106 129.9C93.5499 130.155 94.7389 130.071 95.8316 129.66C97.3309 129.009 98.5259 127.812 99.1737 126.311C99.8214 124.811 99.8731 123.119 99.3183 121.582C104.427 126.073 111.988 119.171 107.612 113.604L109.922 115.929C110.906 116.945 112.231 117.563 113.642 117.663C115.053 117.763 116.452 117.338 117.569 116.47C118.686 115.602 119.443 114.352 119.695 112.959C119.947 111.567 119.675 110.131 118.933 108.926C128.633 99.241 128.03 90.0721 133.87 85.8823Z" fill="#FFD0CA"/>
<path d="M85.3999 132.415C84.6898 133.111 83.8144 133.615 82.8561 133.88C81.8977 134.145 80.8878 134.162 79.921 133.929C78.9543 133.697 78.0624 133.223 77.3291 132.551C76.5959 131.88 76.0452 131.033 75.7289 130.091C75.6002 129.742 75.3856 129.431 75.105 129.187C74.8243 128.943 74.4866 128.774 74.1232 128.695C73.7598 128.617 73.3825 128.631 73.026 128.737C72.6696 128.843 72.3457 129.037 72.0843 129.301L71.7399 129.66C70.7186 130.718 69.3437 131.362 67.8775 131.471C66.4114 131.579 64.9565 131.144 63.7907 130.248C63.124 129.711 62.586 129.032 62.2161 128.259C61.8462 127.487 61.6537 126.642 61.6527 125.786C61.6585 125.493 61.6054 125.203 61.4966 124.931C61.3878 124.66 61.2255 124.413 61.0193 124.205C60.8132 123.998 60.5674 123.834 60.2966 123.723C60.0258 123.613 59.7355 123.558 59.443 123.562C57.8481 123.593 56.3057 122.991 55.1525 121.889C53.9992 120.787 53.3288 119.274 53.2874 117.679C53.2969 117.381 53.2472 117.083 53.1409 116.805C53.0347 116.526 52.8741 116.271 52.6685 116.055C52.463 115.838 52.2165 115.665 51.9434 115.545C51.6703 115.425 51.376 115.36 51.0777 115.354C50.0277 115.348 48.9988 115.059 48.0994 114.517C47.2 113.975 46.4634 113.201 45.967 112.275C45.4706 111.35 45.2328 110.308 45.2787 109.259C45.3246 108.21 45.6525 107.193 46.2278 106.315L45.7112 105.87C39.5843 100.633 39.5269 93.4725 31.262 81.276C31.2041 81.1531 31.1319 81.0375 31.0468 80.9316L27.5887 85.1071C36.1263 97.5762 36.1119 104.822 42.3106 110.117L42.8128 110.562C41.8344 111.707 41.3457 113.192 41.4521 114.695C41.5585 116.197 42.2515 117.598 43.3815 118.594C44.5116 119.591 45.9881 120.103 47.4923 120.02C48.9966 119.937 50.408 119.267 51.4221 118.152C50.3946 119.294 49.8627 120.797 49.9434 122.331C50.0241 123.865 50.7109 125.304 51.8525 126.331C52.9942 127.359 54.4972 127.891 56.0311 127.81C57.5649 127.729 59.0038 127.042 60.0313 125.901C59.4473 126.47 58.9914 127.158 58.694 127.917C58.3966 128.677 58.2645 129.491 58.3066 130.306C58.3487 131.121 58.564 131.917 58.9381 132.642C59.3122 133.367 59.8365 134.004 60.4761 134.51C61.642 135.406 63.0968 135.841 64.563 135.732C66.0291 135.624 67.404 134.979 68.4253 133.922L73.7918 128.469C68.3679 134.295 76.8194 141.857 82.0136 136.662C85.6726 132.989 86.3183 132.573 86.8492 130.923L85.3999 132.415Z" fill="#FFD0CA"/>
<path d="M86.2468 77.1005L87.2225 75.9383C87.5856 75.5046 88.0355 75.1519 88.5432 74.9028C89.051 74.6537 89.6053 74.5139 90.1705 74.4922C90.7356 74.4706 91.299 74.5677 91.8243 74.7772C92.3497 74.9867 92.8252 75.304 93.2203 75.7087L122.994 106.286L118.187 108.252L86.2468 77.1005Z" fill="#FFD0CA"/>
<path d="M1.14417 72.0934L17.7313 85.3229L46.4289 49.3649L22.7678 29.8506C11.4292 41.403 3.88545 56.1401 1.14417 72.0934Z" fill="#C0CAF9"/>
<path d="M115.518 49.3643L144.216 85.3223L158.694 73.7572C156.284 57.6863 149.002 42.7416 137.83 30.9404L115.518 49.3643Z" fill="#89D3FF"/>
<path d="M148.202 73.0041L151.688 70.3115L148.996 66.8252L145.509 69.5178L148.202 73.0041Z" fill="#7BC3FF"/>
<path d="M17.4396 69.7405L13.9533 67.0479L11.2607 70.5342L14.747 73.2268L17.4396 69.7405Z" fill="#ACBAEA"/>
<path d="M158.708 73.3128L144.216 84.2609L141.862 81.3051L157.847 68.9795L158.708 73.3128Z" fill="#7BC3FF"/>
<path d="M136.013 88.2733L142.461 83.126L117.655 52.0524L111.207 57.1997L136.013 88.2733Z" fill="white"/>
<path d="M1.1441 71.5618L17.0712 84.1887L19.4388 81.2329L1.91894 68.1611L1.1441 71.5618Z" fill="#ACBAEA"/>
<path d="M50.734 57.1962L44.286 52.0488L19.4803 83.1224L25.9283 88.2698L50.734 57.1962Z" fill="white"/>
<path d="M146.867 71.2688L150.353 68.5762L147.661 65.0898L144.175 67.7824L146.867 71.2688Z" fill="#556193"/>
<path d="M18.7881 68.0041L15.3018 65.3115L12.6092 68.7979L16.0955 71.4905L18.7881 68.0041Z" fill="#556193"/>
<path d="M137.845 30.9404L115.518 49.3643L144.23 85.3223L159.153 73.7572" stroke="#556193" stroke-width="1.4955" stroke-miterlimit="10"/>
<path d="M136.013 88.2733L142.461 83.126L117.655 52.0524L111.207 57.1997L136.013 88.2733Z" stroke="#556193" stroke-width="1.4955" stroke-miterlimit="10"/>
<path d="M134.502 86.8584C128.031 91.4931 130.585 100.533 119.436 109.673" stroke="#556193" stroke-width="1.4955" stroke-miterlimit="10"/>
<path d="M60.2902 126.145L66.0297 120.405C67.1181 119.317 67.7295 117.841 67.7295 116.302C67.7295 114.762 67.1181 113.286 66.0297 112.198C64.9413 111.109 63.4652 110.498 61.926 110.498C60.3868 110.498 58.9106 111.109 57.8222 112.198L52.0827 117.937C51.5438 118.476 51.1163 119.116 50.8246 119.82C50.533 120.524 50.3829 121.279 50.3829 122.041C50.3829 122.803 50.533 123.558 50.8246 124.262C51.1163 124.966 51.5438 125.606 52.0827 126.145C52.6216 126.684 53.2614 127.111 53.9655 127.403C54.6696 127.695 55.4243 127.845 56.1864 127.845C56.9486 127.845 57.7033 127.695 58.4074 127.403C59.1115 127.111 59.7513 126.684 60.2902 126.145Z" stroke="#556193" stroke-width="1.4955" stroke-miterlimit="10"/>
<path d="M52.2692 117.995L53.1876 117.091C54.2702 115.994 54.8724 114.51 54.8617 112.969C54.8509 111.427 54.2281 109.952 53.1302 108.87C52.0323 107.787 50.5493 107.185 49.0074 107.195C47.4655 107.206 45.991 107.829 44.9083 108.927L43.99 109.845C43.4549 110.389 43.032 111.033 42.7457 111.74C42.4593 112.447 42.315 113.203 42.321 113.966C42.3331 115.507 42.9567 116.979 44.0546 118.06C45.1525 119.141 46.6347 119.741 48.1753 119.729C49.7158 119.717 51.1885 119.093 52.2692 117.995Z" stroke="#556193" stroke-width="1.4955" stroke-miterlimit="10"/>
<path d="M42.7558 110.246C40.1486 107.807 38.1022 104.83 36.758 101.522C35.4953 98.882 34.62 96.6436 32.9699 93.3864C31.5879 90.7083 30.0301 88.1246 28.3066 85.6524C28.2396 85.5027 28.1527 85.3628 28.0483 85.2363" stroke="#556193" stroke-width="1.4955" stroke-miterlimit="10"/>
<path d="M82.7601 62.3644C78.7999 58.8776 70.0328 59.5664 63.748 60.1403C57.4632 60.7143 53.1873 61.2021 49.3992 58.8633" stroke="#556193" stroke-width="1.4955" stroke-miterlimit="10"/>
<path d="M97.0371 103.388L107.756 114.106C108.294 114.64 108.721 115.275 109.014 115.975C109.306 116.674 109.458 117.424 109.461 118.183C109.464 118.941 109.317 119.692 109.029 120.393C108.742 121.095 108.319 121.733 107.784 122.271C107.25 122.809 106.615 123.236 105.916 123.529C105.216 123.821 104.466 123.973 103.708 123.976C102.95 123.979 102.199 123.832 101.497 123.544C100.796 123.257 100.158 122.834 99.6199 122.299L93.8804 116.56" stroke="#556193" stroke-width="1.4955" stroke-miterlimit="10"/>
<path d="M88.1411 111.021L98.3288 121.195C99.4171 122.283 100.029 123.759 100.029 125.299C100.029 126.838 99.4171 128.314 98.3288 129.402C97.2404 130.491 95.7642 131.102 94.225 131.102C92.6858 131.102 91.2096 130.491 90.1213 129.402L86.1897 125.471" stroke="#556193" stroke-width="1.4955" stroke-miterlimit="10"/>
<path d="M113.05 58.189C108.746 61.3027 102.633 58.4903 97.6972 58.189C89.9489 57.7011 86.3043 59.7673 81.3539 63.3545C80.4635 63.9868 79.6196 64.6821 78.8285 65.4351L63.748 79.8269C62.8335 80.7072 62.2708 81.8903 62.1652 83.1553C62.0596 84.4202 62.4182 85.6803 63.174 86.7C63.3032 86.8865 63.4467 87.0444 63.5902 87.2165L64.3793 88.0344C64.8539 88.5304 65.4217 88.928 66.05 89.2044C66.6784 89.4808 67.3551 89.6306 68.0414 89.6452C68.7277 89.6599 69.4102 89.5391 70.0498 89.2898C70.6894 89.0405 71.2736 88.6675 71.769 88.1923C72.1994 87.7762 78.4985 81.7927 82.344 78.1481C83.1271 77.4194 84.1615 77.0215 85.2311 77.0376C86.3006 77.0536 87.3226 77.4824 88.0835 78.2342L88.6575 78.8225L117.771 107.836L118.187 108.252L118.689 108.754C119.778 109.842 120.389 111.319 120.389 112.858C120.389 114.397 119.778 115.873 118.689 116.962C117.601 118.05 116.125 118.661 114.586 118.661C113.046 118.661 111.57 118.05 110.482 116.962L97.0371 103.388" stroke="#556193" stroke-width="1.4955" stroke-miterlimit="10"/>
<path d="M68.6695 134.223L75.9444 126.948C77.0327 125.86 77.6442 124.384 77.6442 122.845C77.6442 121.305 77.0327 119.829 75.9444 118.741C74.856 117.652 73.3798 117.041 71.8406 117.041C70.3014 117.041 68.8252 117.652 67.7369 118.741L60.462 126.03C59.9241 126.569 59.4975 127.209 59.2067 127.912C58.9159 128.616 58.7666 129.37 58.7673 130.132C58.7679 130.893 58.9186 131.647 59.2106 132.35C59.5026 133.054 59.9303 133.692 60.4692 134.23C61.0081 134.768 61.6477 135.195 62.3515 135.486C63.0552 135.776 63.8094 135.926 64.5709 135.925C65.3323 135.924 66.0862 135.774 66.7895 135.482C67.4927 135.19 68.1316 134.762 68.6695 134.223Z" stroke="#556193" stroke-width="1.4955" stroke-miterlimit="10"/>
<path d="M85.9312 133.32L82.5162 136.749C82.2701 137.006 81.9901 137.228 81.684 137.409C80.7226 138.074 79.5813 138.43 78.4125 138.428C77.6513 138.434 76.8965 138.289 76.1919 138.001C75.4874 137.713 74.8472 137.287 74.3087 136.749C73.3561 135.79 72.7675 134.529 72.6445 133.183C72.5214 131.837 72.8714 130.49 73.6343 129.374C73.8298 129.074 74.0558 128.795 74.3087 128.542L77.7237 125.127C78.2611 124.586 78.9007 124.158 79.6053 123.867C80.3098 123.577 81.0653 123.429 81.8275 123.434C82.9636 123.431 84.0758 123.76 85.0272 124.381C85.3214 124.594 85.5996 124.829 85.8595 125.084C86.0991 125.335 86.3197 125.604 86.5195 125.887C87.3225 126.993 87.7045 128.35 87.5966 129.712C87.4888 131.075 86.8982 132.354 85.9312 133.32Z" stroke="#556193" stroke-width="1.4955" stroke-miterlimit="10"/>
<path d="M22.7673 29.8506L46.4284 49.3649L17.7309 85.3229L0.698914 71.6486" stroke="#556193" stroke-width="1.4955" stroke-miterlimit="10"/>
<path d="M50.734 57.1962L44.2861 52.0488L19.4803 83.1224L25.9283 88.2698L50.734 57.1962Z" stroke="#556193" stroke-width="1.4955" stroke-miterlimit="10"/>
</svg>
