<svg width="150" height="40" viewBox="0 0 150 40" fill="none" xmlns="http://www.w3.org/2000/svg">
<path d="M0.0117188 39.1757H149.988V0.0117188H0.0117188V39.1757Z" fill="#FEE102"/>
<path d="M0.0117188 39.1757H149.988V0.0117188H0.0117188V39.1757Z" stroke="#FEE102" stroke-width="0.1125"/>
<path d="M45.7291 32.9887H53.4965V28.6644H55.4027L57.7828 32.9887H67.0608L63.6275 28.3068C67.5181 26.426 67.1976 18.6536 61.264 18.8778C60.8531 18.8778 45.7291 18.8778 45.7291 18.8778V32.9887Z" fill="#ED1C24"/>
<path d="M15.3495 32.9896H28.8233V16.7013H132.173C138.932 15.9847 137.467 6.77913 132.173 6.96066C131.899 6.96066 15.3495 6.96066 15.3495 6.96066V32.9896Z" fill="#ED1C24"/>
<path d="M28.8233 10.6123V13.0304H117.583C118.862 12.5819 118.771 10.9259 117.583 10.6123C117.402 10.5683 28.8233 10.6123 28.8233 10.6123Z" fill="#FEE102"/>
<path d="M33.4314 32.989H41.1509V18.8779H33.4314V32.989Z" fill="#ED1C24"/>
<path d="M53.4965 25.0829V22.46H56.501C59.2961 22.46 59.3413 25.0829 56.5476 25.0829C56.2723 25.0829 53.4965 25.0829 53.4965 25.0829Z" fill="#FEE102"/>
<path d="M70.4308 18.8779V32.9889H87.2935V29.4238H78.3345V27.545H86.3788V24.07H78.3839V22.4594H86.6993V18.8779H70.4308Z" fill="#ED1C24"/>
<path d="M91.4155 18.8779V32.9889H106.627V29.3825H99.3636V18.8779H91.4155Z" fill="#ED1C24"/>
<path d="M108.616 18.8779V32.9889H123.825V29.3825H116.564V18.8779H108.616Z" fill="#ED1C24"/>
<path d="M126.114 32.989H133.835V18.8779H126.114V32.989Z" fill="#ED1C24"/>
</svg>
