<svg width="137" height="34" viewBox="0 0 137 34" fill="none" xmlns="http://www.w3.org/2000/svg">
<path d="M121.715 -0.227417C131.077 -0.227303 137.827 7.41033 136.743 16.7726C135.659 26.184 127.184 33.7724 117.822 33.7726C110.776 33.7726 105.207 29.4857 103.335 23.3263C99.2449 23.9669 95.7463 21.0103 96.2391 16.7726C96.6826 12.535 100.772 9.62766 104.862 10.2189C108.114 4.10873 114.668 -0.227417 121.715 -0.227417ZM121.812 5.63684C117.378 5.63694 112.302 7.41105 111.366 12.2892C111.12 13.5701 111.317 14.7031 111.958 15.59C112.894 16.8711 114.767 17.7583 117.526 18.1525L121.616 18.6945C122.946 18.8916 123.735 19.1876 124.129 19.7296C124.375 20.0252 124.424 20.4685 124.326 20.9611C124.08 22.3408 122.453 23.9181 118.758 23.9181C116.836 23.9181 115.505 23.5233 114.717 22.6857C114.175 22.0944 113.929 21.2075 114.027 20.173H109.198C108.853 21.996 109.198 23.4744 110.183 24.7062C111.563 26.3815 114.126 27.2189 117.575 27.2189C124.375 27.2189 128.613 24.8049 129.401 20.4689C129.598 19.4834 129.647 18.005 128.761 16.8224C127.972 15.6891 126.543 14.9989 124.473 14.7032L118.806 13.8654C117.723 13.7175 116.983 13.4224 116.638 12.9298C116.392 12.5849 116.343 12.1408 116.441 11.5988C116.786 9.87416 118.906 8.93762 120.778 8.93762C122.65 8.93765 123.931 9.2827 124.572 10.0216C125.065 10.5636 125.213 11.4015 125.114 12.3868H129.943C130.239 10.6131 129.893 9.13531 128.908 8.00208C127.578 6.47454 125.114 5.63684 121.812 5.63684ZM103.384 13.2247C101.363 13.2247 99.5401 14.8509 99.2938 16.8712C99.0476 18.8914 100.477 20.5177 102.497 20.5177C104.517 20.5175 106.34 18.8912 106.587 16.8712C106.833 14.851 105.355 13.2248 103.384 13.2247Z" fill="#0A2463"/>
<path d="M109.345 2.72925C109.585 2.72925 109.405 2.86902 109.395 2.87671C107.03 4.79841 105.452 6.62182 104.073 8.88843C98.1105 8.74068 94.8579 13.6681 94.8577 17.5115C94.8577 22.439 98.8006 24.9034 102.398 24.7556C103.383 27.3176 104.91 29.4363 106.782 31.0623C106.93 31.1608 106.684 31.1609 106.684 31.1609H0.988525L5.177 8.14917C5.76841 4.50312 8.33058 2.72932 11.8782 2.72925H109.345ZM25.3801 10.7117C22.3745 10.7117 20.7482 11.9437 19.467 13.1755C19.6149 12.4857 19.7137 11.8449 19.7629 11.155H15.2786C15.2293 11.7956 15.1315 12.4364 14.9836 13.1755L12.3225 27.3669H16.9543L18.0383 21.7C18.7774 22.6854 20.157 23.7692 22.8176 23.7693C26.9075 23.7693 30.1605 21.3055 30.8997 17.3142C31.6879 13.126 29.2235 10.7117 25.3801 10.7117ZM42.6272 10.6619C36.3202 10.6619 33.6098 14.0621 33.0676 17.2156C32.3778 20.9605 34.2992 23.7692 40.2122 23.7693C46.273 23.7693 49.1311 20.6649 49.7717 17.2156C50.3136 14.2592 49.1309 10.662 42.6272 10.6619ZM83.0325 8.69116L82.5891 11.155H79.6331L79.0413 14.1609H81.9983L81.0618 19.3347C80.5197 22.2912 82.1458 23.6707 85.6936 23.6707C87.1718 23.6706 88.4533 23.425 88.8967 23.3757L89.4387 20.4187C88.6996 20.5173 88.0092 20.5671 87.5657 20.5671C85.7427 20.567 85.6939 19.6301 85.9895 17.9548L86.679 14.1609H90.6213L91.1633 11.2048H87.2209L88.009 7.01636L83.0325 8.69116ZM53.7141 11.155L51.4475 23.3259H56.0793L58.3459 11.155H53.7141ZM72.2415 10.613C70.0733 10.613 68.102 11.6481 66.5745 13.2742H66.5256C66.6734 12.5352 66.722 11.8452 66.8206 11.1062H62.3372C62.2879 11.9438 62.1402 12.8306 61.9924 13.6189L60.1692 23.2273H64.801L65.7864 17.8562C66.2792 15.1956 68.2007 13.7176 70.1223 13.7175C72.2412 13.7175 72.8325 15.0975 72.4875 17.0193L71.3547 23.2273H75.9866L77.2678 16.28C77.8591 13.1264 76.6761 10.6131 72.2415 10.613ZM42.1829 13.323C44.5479 13.323 45.1892 14.9984 44.7952 17.2156C44.3024 19.8763 42.2328 21.109 40.7053 21.1091C38.5372 21.1091 37.5519 19.6301 37.9954 17.2156C38.3404 15.2448 39.9659 13.3233 42.1829 13.323ZM23.1633 13.4216C25.5776 13.4711 26.3661 15.3437 25.9719 17.2654C25.5777 19.3841 23.8529 20.9118 21.7834 20.9119C19.6646 20.9119 18.4327 19.4333 18.8762 17.0681C19.2704 14.9 21.0445 13.4216 23.1633 13.4216ZM54.6008 6.52319L53.9104 9.87378H58.592L59.2815 6.52319H54.6008Z" fill="#0A2463"/>
</svg>
