<svg width="24" height="24" viewBox="0 0 24 24" fill="none" xmlns="http://www.w3.org/2000/svg">
<mask id="mask0_2_4643" style="mask-type:alpha" maskUnits="userSpaceOnUse" x="3" y="0" width="22" height="24">
<path d="M13.5052 0C14.3348 0 15.005 0.670215 15.005 1.49978V2.91052L15.708 2.20749C16.1486 1.76693 16.861 1.76693 17.2968 2.20749C17.7327 2.64805 17.7374 3.36045 17.2968 3.79633L15.0003 6.09287V9.3877L17.878 7.70982L18.7076 4.61183C18.8669 4.01192 19.4856 3.65572 20.0855 3.81507C20.6854 3.97443 21.0416 4.59309 20.8822 5.193L20.6385 6.09756L21.7446 5.45077C22.4617 5.03365 23.3803 5.27736 23.7975 5.98976C24.2146 6.70216 23.9755 7.62546 23.2585 8.04259L22.0727 8.73624L23.0897 9.00807C23.6897 9.16742 24.0459 9.78608 23.8865 10.386C23.7271 10.9859 23.1085 11.3421 22.5086 11.1828L19.3356 10.3344L16.4813 11.9983L19.3356 13.6621L22.5086 12.8138C23.1085 12.6544 23.7271 13.0106 23.8865 13.6105C24.0459 14.2104 23.6897 14.8291 23.0897 14.9885L22.0727 15.2603L23.2585 15.9539C23.9755 16.3711 24.2146 17.2897 23.7975 18.0068C23.3803 18.7239 22.4617 18.9629 21.7446 18.5458L20.6385 17.899L20.8822 18.8035C21.0416 19.4034 20.6854 20.0221 20.0855 20.1815C19.4856 20.3408 18.8669 19.9846 18.7076 19.3847L17.878 16.2867L15.005 14.6088V17.9037L17.3015 20.2002C17.7421 20.6408 17.7421 21.3532 17.3015 21.789C16.861 22.2249 16.1486 22.2296 15.7127 21.789L15.0097 21.086V22.4967C15.0097 23.3263 14.3394 23.9965 13.5099 23.9965C12.6803 23.9965 12.0101 23.3263 12.0101 22.4967V21.086L11.3071 21.789C10.8665 22.2296 10.1541 22.2296 9.71824 21.789C9.28236 21.3485 9.27768 20.6361 9.71824 20.2002L12.0148 17.9037V14.6088L9.13707 16.2867L8.3075 19.3847C8.14815 19.9846 7.52949 20.3408 6.92958 20.1815C6.32966 20.0221 5.97347 19.4034 6.13282 18.8035L6.37653 17.899L5.26107 18.5411C4.54399 18.9582 3.62537 18.7145 3.20824 18.0021C2.79111 17.2897 3.03483 16.3664 3.74723 15.9493L4.93299 15.2556L3.91595 14.9838C3.31604 14.8244 2.95984 14.2058 3.11919 13.6058C3.27854 13.0059 3.8972 12.6497 4.49712 12.8091L7.6701 13.6574L10.5291 11.9983L7.67478 10.3344L4.5018 11.1828C3.90189 11.3421 3.28323 10.9859 3.12388 10.386C2.96453 9.78608 3.32073 9.16742 3.92064 9.00807L4.93768 8.73624L3.75191 8.04259C3.03483 7.62546 2.7958 6.70684 3.21293 5.99445C3.63006 5.28205 4.54867 5.03833 5.26576 5.45546L6.37185 6.10224L6.12813 5.19769C5.96878 4.59777 6.32498 3.97911 6.92489 3.81976C7.5248 3.66041 8.14347 4.01661 8.30282 4.61652L9.13238 7.71451L12.0054 9.3877V6.08818L9.70886 3.79633C9.2683 3.35576 9.2683 2.64337 9.70886 2.20749C10.1494 1.77162 10.8618 1.76693 11.2977 2.20749L12.0007 2.91052V1.49978C12.0007 0.670215 12.6709 0 13.5005 0H13.5052Z" fill="#24AEF7"/>
</mask>
<g mask="url(#mask0_2_4643)">
<rect x="13.0027" width="10.9984" height="23.9965" fill="#24AEF7"/>
</g>
<mask id="mask1_2_4643" style="mask-type:alpha" maskUnits="userSpaceOnUse" x="0" y="0" width="25" height="24">
<path d="M16.9493 0.0579771C17.1836 0.1564 17.3524 0.367307 17.3992 0.615709L18.3319 5.67279L23.389 6.60078C23.6374 6.64765 23.8483 6.81637 23.9467 7.05072C24.0451 7.28506 24.017 7.55221 23.8717 7.76311L20.9518 12L23.8717 16.2322C24.017 16.4431 24.0451 16.7103 23.9467 16.9446C23.8483 17.1789 23.6374 17.3477 23.389 17.3945L18.3319 18.3272L17.3992 23.3843C17.3524 23.6327 17.1836 23.8436 16.9493 23.942C16.715 24.0404 16.4478 24.0123 16.2369 23.867L12.0047 20.9471L7.7725 23.867C7.56159 24.0123 7.29444 24.0404 7.0601 23.942C6.82576 23.8436 6.65704 23.6327 6.61017 23.3843L5.67749 18.3272L0.620409 17.3945C0.372007 17.3477 0.1611 17.1789 0.0626768 16.9446C-0.0357464 16.7103 -0.0076255 16.4431 0.137666 16.2322L3.05756 12L0.137666 7.7678C-0.0076255 7.55689 -0.0357464 7.28974 0.0626768 7.0554C0.1611 6.82106 0.372007 6.65234 0.620409 6.60547L5.67749 5.67279L6.61017 0.615709C6.65704 0.367307 6.82576 0.1564 7.0601 0.0579771C7.29444 -0.0404461 7.56159 -0.0123252 7.7725 0.132966L12.0047 3.05286L16.2369 0.132966C16.4478 -0.0123252 16.715 -0.0404461 16.9493 0.0579771ZM7.50535 12C7.50535 10.8067 7.97939 9.66227 8.82318 8.81848C9.66697 7.97469 10.8114 7.50065 12.0047 7.50065C13.198 7.50065 14.3424 7.97469 15.1862 8.81848C16.03 9.66227 16.504 10.8067 16.504 12C16.504 13.1933 16.03 14.3377 15.1862 15.1815C14.3424 16.0253 13.198 16.4993 12.0047 16.4993C10.8114 16.4993 9.66697 16.0253 8.82318 15.1815C7.97939 14.3377 7.50535 13.1933 7.50535 12ZM18.0038 12C18.0038 10.4089 17.3718 8.88303 16.2467 7.75797C15.1217 6.63292 13.5958 6.00087 12.0047 6.00087C10.4136 6.00087 8.88773 6.63292 7.76267 7.75797C6.63762 8.88303 6.00557 10.4089 6.00557 12C6.00557 13.5911 6.63762 15.117 7.76267 16.242C8.88773 17.3671 10.4136 17.9991 12.0047 17.9991C13.5958 17.9991 15.1217 17.3671 16.2467 16.242C17.3718 15.117 18.0038 13.5911 18.0038 12Z" fill="#FF9813"/>
</mask>
<g mask="url(#mask1_2_4643)">
<rect x="0.00469971" width="11.9983" height="23.9965" fill="#FF9813"/>
</g>
</svg>
