<svg width="471" height="327" viewBox="0 0 471 327" fill="none" xmlns="http://www.w3.org/2000/svg">
<path d="M470.25 10C470.25 4.47716 465.773 0 460.25 0H10.25C4.72714 0 0.25 4.47715 0.25 10V317C0.25 322.523 4.72714 327 10.25 327H460.25C465.773 327 470.25 322.523 470.25 317V10Z" fill="#0A2463"/>
<path fill-rule="evenodd" clip-rule="evenodd" d="M277.134 115.626V82.3436C284.864 81.1693 292.595 78.2169 300.255 73.4863C307.916 68.7557 313.407 62.5824 316.765 55H353.214V272.843H305.152V117.706H277.169V115.626H277.134Z" fill="white"/>
<path d="M288.107 205.85L281.927 206.008C281.863 205.586 281.689 205.212 281.404 204.886C281.12 204.552 280.748 204.292 280.289 204.107C279.84 203.914 279.317 203.817 278.72 203.817C277.94 203.817 277.275 203.967 276.725 204.266C276.183 204.565 275.917 204.97 275.926 205.48C275.917 205.876 276.082 206.22 276.422 206.51C276.77 206.801 277.39 207.034 278.28 207.21L282.354 207.949C284.464 208.336 286.033 208.979 287.061 209.877C288.098 210.774 288.621 211.962 288.63 213.441C288.621 214.831 288.19 216.042 287.336 217.071C286.492 218.101 285.336 218.902 283.868 219.474C282.4 220.037 280.721 220.319 278.83 220.319C275.812 220.319 273.43 219.725 271.687 218.537C269.953 217.34 268.962 215.738 268.714 213.731L275.362 213.573C275.509 214.312 275.89 214.875 276.504 215.263C277.119 215.65 277.904 215.844 278.858 215.844C279.72 215.844 280.422 215.69 280.964 215.382C281.505 215.074 281.78 214.664 281.79 214.154C281.78 213.696 281.569 213.331 281.156 213.058C280.744 212.776 280.097 212.556 279.216 212.398L275.527 211.725C273.408 211.355 271.829 210.673 270.792 209.678C269.756 208.675 269.242 207.399 269.251 205.85C269.242 204.495 269.618 203.337 270.38 202.378C271.141 201.41 272.224 200.671 273.628 200.16C275.032 199.65 276.688 199.395 278.596 199.395C281.459 199.395 283.717 199.971 285.368 201.124C287.02 202.268 287.933 203.843 288.107 205.85Z" fill="white"/>
<path d="M251.818 208.372V219.936H245.087V199.659H251.487V203.381H251.721C252.189 202.14 252.987 201.168 254.116 200.464C255.245 199.751 256.589 199.395 258.149 199.395C259.635 199.395 260.924 199.716 262.016 200.358C263.117 200.992 263.971 201.881 264.576 203.025C265.191 204.16 265.494 205.489 265.485 207.012V219.936H258.754V208.279C258.764 207.153 258.465 206.273 257.86 205.639C257.263 205.005 256.433 204.688 255.369 204.688C254.662 204.688 254.038 204.838 253.497 205.137C252.964 205.428 252.552 205.846 252.258 206.391C251.974 206.937 251.827 207.597 251.818 208.372Z" fill="white"/>
<path d="M230.958 220.319C228.738 220.319 226.829 219.883 225.232 219.012C223.645 218.132 222.42 216.909 221.558 215.342C220.704 213.767 220.278 211.94 220.278 209.863C220.278 207.777 220.704 205.951 221.558 204.385C222.42 202.809 223.645 201.586 225.232 200.715C226.829 199.835 228.738 199.395 230.958 199.395C233.179 199.395 235.083 199.835 236.67 200.715C238.267 201.586 239.492 202.809 240.345 204.385C241.207 205.951 241.639 207.777 241.639 209.863C241.639 211.94 241.207 213.767 240.345 215.342C239.492 216.909 238.267 218.132 236.67 219.012C235.083 219.883 233.179 220.319 230.958 220.319ZM230.999 215.448C231.807 215.448 232.49 215.21 233.05 214.735C233.61 214.259 234.037 213.599 234.33 212.754C234.633 211.91 234.784 210.933 234.784 209.824C234.784 208.697 234.633 207.711 234.33 206.867C234.037 206.022 233.61 205.362 233.05 204.886C232.49 204.411 231.807 204.173 230.999 204.173C230.164 204.173 229.458 204.411 228.88 204.886C228.311 205.362 227.875 206.022 227.572 206.867C227.279 207.711 227.132 208.697 227.132 209.824C227.132 210.933 227.279 211.91 227.572 212.754C227.875 213.599 228.311 214.259 228.88 214.735C229.458 215.21 230.164 215.448 230.999 215.448Z" fill="white"/>
<path d="M210.075 219.936V199.658H216.806V219.936H210.075ZM213.447 197.295C212.502 197.295 211.69 196.996 211.011 196.397C210.332 195.79 209.993 195.06 209.993 194.206C209.993 193.361 210.332 192.639 211.011 192.041C211.69 191.434 212.502 191.13 213.447 191.13C214.402 191.13 215.214 191.434 215.883 192.041C216.562 192.639 216.902 193.361 216.902 194.206C216.902 195.06 216.562 195.79 215.883 196.397C215.214 196.996 214.402 197.295 213.447 197.295Z" fill="white"/>
<path d="M206.641 199.658V204.41H193.304V199.658H206.641ZM196.098 194.8H202.829V213.559C202.829 213.955 202.893 214.276 203.021 214.523C203.159 214.76 203.356 214.932 203.613 215.038C203.87 215.135 204.178 215.183 204.535 215.183C204.792 215.183 205.063 215.161 205.348 215.117C205.641 215.064 205.861 215.02 206.008 214.985L207.027 219.645C206.706 219.733 206.251 219.843 205.664 219.975C205.086 220.107 204.393 220.191 203.586 220.226C202.008 220.296 200.654 220.12 199.525 219.698C198.406 219.267 197.548 218.598 196.952 217.691C196.364 216.785 196.08 215.645 196.098 214.272V194.8Z" fill="white"/>
<path d="M177.957 220.279C176.608 220.279 175.411 220.064 174.365 219.632C173.328 219.192 172.507 218.532 171.901 217.652C171.305 216.763 171.006 215.65 171.006 214.312C171.006 213.186 171.213 212.235 171.626 211.461C172.039 210.686 172.608 210.057 173.332 209.573C174.057 209.089 174.892 208.724 175.837 208.477C176.783 208.222 177.792 208.05 178.865 207.962C180.067 207.857 181.036 207.747 181.77 207.632C182.504 207.509 183.036 207.337 183.366 207.117C183.706 206.889 183.875 206.567 183.875 206.154V206.088C183.875 205.41 183.632 204.886 183.146 204.517C182.66 204.147 182.004 203.962 181.178 203.962C180.288 203.962 179.572 204.147 179.031 204.517C178.489 204.886 178.145 205.397 177.998 206.048L171.791 205.837C171.974 204.605 172.447 203.505 173.209 202.536C173.979 201.56 175.035 200.794 176.374 200.239C177.723 199.676 179.343 199.395 181.233 199.395C182.582 199.395 183.825 199.549 184.963 199.857C186.101 200.156 187.092 200.596 187.936 201.177C188.78 201.749 189.431 202.453 189.89 203.289C190.358 204.125 190.592 205.08 190.592 206.154V219.936H184.261V217.111H184.096C183.719 217.797 183.238 218.378 182.65 218.854C182.072 219.329 181.389 219.685 180.6 219.923C179.82 220.16 178.939 220.279 177.957 220.279ZM180.035 216.055C180.76 216.055 181.412 215.914 181.99 215.632C182.577 215.351 183.045 214.963 183.394 214.471C183.742 213.969 183.917 213.388 183.917 212.728V210.801C183.724 210.897 183.49 210.985 183.215 211.065C182.949 211.144 182.655 211.219 182.334 211.289C182.013 211.359 181.682 211.421 181.343 211.474C181.003 211.527 180.678 211.575 180.366 211.619C179.733 211.716 179.191 211.866 178.742 212.068C178.301 212.27 177.962 212.534 177.723 212.86C177.494 213.177 177.379 213.555 177.379 213.995C177.379 214.664 177.627 215.175 178.122 215.527C178.627 215.879 179.265 216.055 180.035 216.055Z" fill="white"/>
<path d="M167.714 192.899V219.936H160.984V192.899H167.714Z" fill="white"/>
<path d="M147.512 220.319C145.301 220.319 143.392 219.901 141.786 219.065C140.19 218.22 138.96 217.019 138.098 215.461C137.244 213.894 136.818 212.033 136.818 209.877C136.818 207.782 137.249 205.951 138.111 204.385C138.974 202.809 140.19 201.586 141.759 200.715C143.328 199.835 145.177 199.395 147.306 199.395C148.81 199.395 150.187 199.619 151.435 200.068C152.683 200.517 153.761 201.181 154.669 202.061C155.578 202.941 156.284 204.028 156.789 205.322C157.293 206.607 157.546 208.081 157.546 209.745V211.355H139.171V207.606H151.283C151.274 206.919 151.104 206.308 150.774 205.771C150.444 205.234 149.99 204.816 149.411 204.517C148.843 204.209 148.186 204.055 147.443 204.055C146.691 204.055 146.016 204.217 145.42 204.543C144.824 204.86 144.351 205.296 144.002 205.85C143.654 206.396 143.47 207.016 143.452 207.711V211.527C143.452 212.354 143.622 213.08 143.961 213.705C144.301 214.321 144.782 214.801 145.406 215.144C146.03 215.487 146.773 215.659 147.636 215.659C148.232 215.659 148.774 215.58 149.26 215.421C149.746 215.263 150.164 215.03 150.513 214.721C150.861 214.413 151.123 214.035 151.297 213.586L157.477 213.758C157.22 215.087 156.656 216.244 155.784 217.23C154.921 218.207 153.788 218.968 152.384 219.514C150.98 220.05 149.356 220.319 147.512 220.319Z" fill="white"/>
<path d="M122.415 219.936V199.658H128.953V203.355H129.173C129.559 202.017 130.187 201.022 131.059 200.371C131.93 199.711 132.944 199.381 134.101 199.381C134.412 199.381 134.734 199.403 135.064 199.447C135.394 199.482 135.702 199.539 135.986 199.618V205.229C135.665 205.124 135.243 205.04 134.72 204.978C134.206 204.917 133.747 204.886 133.344 204.886C132.545 204.886 131.825 205.058 131.183 205.401C130.549 205.735 130.049 206.206 129.682 206.813C129.325 207.412 129.146 208.116 129.146 208.926V219.936H122.415Z" fill="white"/>
<path d="M286.614 241.584V248.585H266.967V241.584H286.614ZM271.083 234.427H280.998V262.062C280.998 262.646 281.093 263.119 281.282 263.482C281.485 263.832 281.775 264.085 282.154 264.24C282.532 264.383 282.985 264.454 283.512 264.454C283.891 264.454 284.289 264.422 284.708 264.357C285.141 264.279 285.465 264.214 285.682 264.163L287.182 271.028C286.709 271.157 286.04 271.319 285.175 271.514C284.323 271.708 283.303 271.831 282.113 271.883C279.788 271.987 277.794 271.728 276.132 271.105C274.483 270.47 273.219 269.485 272.34 268.149C271.475 266.814 271.056 265.135 271.083 263.112V234.427Z" fill="white"/>
<path d="M242.762 254.42V271.456H232.848V241.584H242.276V247.068H242.621C243.31 245.24 244.486 243.808 246.149 242.771C247.811 241.72 249.791 241.195 252.089 241.195C254.279 241.195 256.178 241.669 257.787 242.615C259.409 243.548 260.666 244.858 261.558 246.543C262.464 248.216 262.91 250.174 262.896 252.417V271.456H252.981V254.284C252.995 252.624 252.556 251.327 251.664 250.394C250.785 249.461 249.562 248.994 247.994 248.994C246.953 248.994 246.034 249.214 245.236 249.655C244.452 250.083 243.844 250.699 243.411 251.503C242.992 252.306 242.776 253.279 242.762 254.42Z" fill="white"/>
<path d="M213.003 272.02C209.745 272.02 206.933 271.404 204.568 270.172C202.216 268.928 200.405 267.158 199.134 264.863C197.877 262.555 197.248 259.813 197.248 256.637C197.248 253.551 197.884 250.854 199.154 248.546C200.425 246.226 202.216 244.424 204.527 243.14C206.839 241.844 209.562 241.195 212.698 241.195C214.915 241.195 216.943 241.526 218.781 242.187C220.619 242.848 222.208 243.827 223.546 245.124C224.884 246.42 225.925 248.021 226.668 249.927C227.412 251.82 227.784 253.992 227.784 256.442V258.815H200.715V253.292H218.558C218.545 252.28 218.295 251.379 217.808 250.588C217.321 249.798 216.652 249.182 215.801 248.741C214.963 248.287 213.996 248.06 212.901 248.06C211.793 248.06 210.799 248.3 209.921 248.78C209.042 249.247 208.346 249.888 207.832 250.705C207.319 251.509 207.048 252.423 207.021 253.447V259.068C207.021 260.286 207.271 261.356 207.771 262.276C208.272 263.184 208.981 263.891 209.9 264.396C210.82 264.902 211.914 265.155 213.185 265.155C214.064 265.155 214.861 265.038 215.578 264.805C216.294 264.571 216.909 264.228 217.423 263.774C217.936 263.32 218.322 262.763 218.578 262.101L227.682 262.354C227.304 264.312 226.472 266.017 225.188 267.469C223.918 268.908 222.248 270.03 220.18 270.833C218.112 271.624 215.72 272.02 213.003 272.02Z" fill="white"/>
<path d="M182.218 271.455V241.584H192.133V271.455H182.218ZM187.186 238.103C185.794 238.103 184.597 237.662 183.597 236.78C182.597 235.885 182.097 234.809 182.097 233.552C182.097 232.307 182.597 231.244 183.597 230.362C184.597 229.468 185.794 229.021 187.186 229.021C188.592 229.021 189.788 229.468 190.775 230.362C191.775 231.244 192.275 232.307 192.275 233.552C192.275 234.809 191.775 235.885 190.775 236.78C189.788 237.662 188.592 238.103 187.186 238.103Z" fill="white"/>
<path d="M175.907 231.627V271.456H165.993V231.627H175.907Z" fill="white"/>
<path d="M160.25 246.056H150.112C149.977 245.058 149.7 244.157 149.281 243.353C148.862 242.549 148.308 241.862 147.618 241.292C146.929 240.721 146.111 240.287 145.165 239.989C144.232 239.677 143.198 239.522 142.063 239.522C140.049 239.522 138.312 239.995 136.852 240.941C135.406 241.888 134.29 243.256 133.506 245.045C132.736 246.834 132.351 248.999 132.351 251.54C132.351 254.185 132.743 256.402 133.527 258.191C134.324 259.968 135.439 261.31 136.872 262.217C138.319 263.112 140.028 263.559 142.002 263.559C143.11 263.559 144.117 263.423 145.023 263.151C145.942 262.878 146.746 262.483 147.436 261.964C148.139 261.433 148.713 260.791 149.159 260.039C149.619 259.274 149.937 258.412 150.112 257.452L160.25 257.511C160.074 259.274 159.54 261.011 158.648 262.723C157.77 264.434 156.56 265.996 155.019 267.41C153.478 268.81 151.599 269.925 149.382 270.755C147.179 271.584 144.651 271.999 141.799 271.999C138.041 271.999 134.676 271.208 131.702 269.627C128.742 268.032 126.403 265.711 124.687 262.664C122.97 259.618 122.112 255.91 122.112 251.54C122.112 247.158 122.983 243.444 124.727 240.397C126.471 237.35 128.83 235.036 131.803 233.454C134.777 231.872 138.109 231.082 141.799 231.082C144.313 231.082 146.638 231.419 148.774 232.093C150.91 232.754 152.789 233.726 154.411 235.01C156.033 236.281 157.351 237.843 158.364 239.697C159.378 241.551 160.007 243.671 160.25 246.056Z" fill="white"/>
<path fill-rule="evenodd" clip-rule="evenodd" d="M249.471 86.5491C246.756 86.5491 244.325 86.0361 242.161 84.9931C239.996 83.9501 238.287 82.4625 237.053 80.5304C235.819 78.5983 235.192 76.3242 235.192 73.7423C235.192 71.1604 235.819 68.9205 237.072 66.9713C238.325 65.0221 240.053 63.5174 242.237 62.4744C244.42 61.4314 246.869 60.9185 249.585 60.9185C252.3 60.9185 254.749 61.4314 256.933 62.4744C259.116 63.5174 260.844 65.005 262.097 66.9713C263.35 68.9205 263.977 71.1775 263.977 73.7423C263.977 76.3071 263.331 78.5641 262.059 80.5133C260.787 82.4625 259.04 83.9672 256.857 85.0102C254.654 86.0532 252.205 86.5662 249.49 86.5662L249.471 86.5491ZM249.471 79.949C251.085 79.949 252.471 79.419 253.61 78.3418C254.749 77.2646 255.319 75.7428 255.319 73.7423C255.319 71.7418 254.768 70.22 253.648 69.1428C252.547 68.0656 251.179 67.5356 249.547 67.5356C247.914 67.5356 246.528 68.0656 245.426 69.1257C244.325 70.1858 243.794 71.7247 243.794 73.7423C243.794 75.7599 244.325 77.2646 245.407 78.3418C246.49 79.419 247.838 79.949 249.452 79.949H249.471Z" fill="white"/>
<path fill-rule="evenodd" clip-rule="evenodd" d="M228.91 117.972H214.38L190.098 82.7879V117.972H175.567V60.9185H190.098L214.38 96.2891V60.9185H228.91V117.972Z" fill="white"/>
<path fill-rule="evenodd" clip-rule="evenodd" d="M135.63 144.573L139.475 152.88C139.656 153.257 139.973 153.467 140.425 153.509L150.105 154.306C150.558 154.306 150.919 154.6 151.1 155.019C151.236 155.439 151.1 155.858 150.784 156.152L143.456 162.109C143.139 162.361 143.004 162.739 143.094 163.116L145.265 171.926C145.356 172.346 145.22 172.765 144.813 173.017C144.451 173.269 143.953 173.269 143.546 173.059L135.178 168.444C134.816 168.234 134.364 168.234 134.002 168.444L125.634 173.059C125.227 173.269 124.774 173.269 124.367 173.017C124.005 172.765 123.824 172.346 123.915 171.926L126.086 163.116C126.177 162.739 126.086 162.361 125.724 162.109L118.396 156.152C118.035 155.858 117.899 155.439 118.08 155.019C118.215 154.6 118.577 154.348 119.075 154.306L128.755 153.509C129.162 153.509 129.524 153.257 129.705 152.88L133.55 144.573C133.731 144.196 134.138 143.944 134.59 143.944C135.042 143.944 135.45 144.196 135.63 144.573Z" fill="#FFBB00"/>
<path fill-rule="evenodd" clip-rule="evenodd" d="M170.11 144.573L173.955 152.88C174.136 153.257 174.453 153.467 174.905 153.509L184.585 154.306C185.037 154.306 185.399 154.6 185.58 155.019C185.716 155.439 185.58 155.858 185.263 156.152L177.936 162.109C177.619 162.361 177.483 162.739 177.574 163.116L179.745 171.926C179.835 172.346 179.7 172.765 179.293 173.017C178.931 173.269 178.433 173.269 178.026 173.059L169.658 168.444C169.296 168.234 168.844 168.234 168.482 168.444L160.113 173.059C159.706 173.269 159.254 173.269 158.847 173.017C158.485 172.765 158.304 172.346 158.395 171.926L160.566 163.116C160.656 162.739 160.566 162.361 160.204 162.109L152.876 156.152C152.514 155.858 152.378 155.439 152.559 155.019C152.695 154.6 153.057 154.348 153.555 154.306L163.235 153.509C163.642 153.509 164.004 153.257 164.184 152.88L168.029 144.573C168.21 144.196 168.617 143.944 169.07 143.944C169.522 143.944 169.929 144.196 170.11 144.573Z" fill="#FFBB00"/>
<path fill-rule="evenodd" clip-rule="evenodd" d="M203.177 144.573L206.715 152.88C206.881 153.257 207.172 153.467 207.589 153.509L216.494 154.306C216.91 154.306 217.243 154.6 217.41 155.019C217.535 155.439 217.41 155.858 217.118 156.152L210.377 162.109C210.085 162.361 209.961 162.739 210.044 163.116L212.041 171.926C212.125 172.346 212 172.765 211.625 173.017C211.292 173.269 210.835 173.269 210.46 173.059L202.761 168.444C202.428 168.234 202.012 168.234 201.679 168.444L193.98 173.059C193.606 173.269 193.19 173.269 192.815 173.017C192.482 172.765 192.316 172.346 192.399 171.926L194.397 163.116C194.48 162.739 194.397 162.361 194.064 162.109L187.322 156.152C186.989 155.858 186.864 155.439 187.031 155.019C187.156 154.6 187.489 154.348 187.946 154.306L196.852 153.509C197.226 153.509 197.559 153.257 197.726 152.88L201.263 144.573C201.43 144.196 201.804 143.944 202.22 143.944C202.636 143.944 203.011 144.196 203.177 144.573Z" fill="#FFBB00"/>
<path fill-rule="evenodd" clip-rule="evenodd" d="M236.416 144.573L240.26 152.88C240.441 153.257 240.758 153.467 241.21 153.509L250.89 154.306C251.343 154.306 251.704 154.6 251.885 155.019C252.021 155.439 251.885 155.858 251.569 156.152L244.241 162.109C243.924 162.361 243.789 162.739 243.879 163.116L246.05 171.926C246.141 172.346 246.005 172.765 245.598 173.017C245.236 173.269 244.739 173.269 244.331 173.059L235.963 168.444C235.601 168.234 235.149 168.234 234.787 168.444L226.419 173.059C226.012 173.269 225.559 173.269 225.152 173.017C224.79 172.765 224.61 172.346 224.7 171.926L226.871 163.116C226.962 162.739 226.871 162.361 226.509 162.109L219.181 156.152C218.82 155.858 218.684 155.439 218.865 155.019C219.001 154.6 219.362 154.348 219.86 154.306L229.54 153.509C229.947 153.509 230.309 153.257 230.49 152.88L234.335 144.573C234.516 144.196 234.923 143.944 235.375 143.944C235.827 143.944 236.235 144.196 236.416 144.573Z" fill="#FFBB00"/>
<path fill-rule="evenodd" clip-rule="evenodd" d="M270.893 144.573L274.738 152.88C274.919 153.257 275.236 153.467 275.688 153.509L285.368 154.306C285.82 154.306 286.182 154.6 286.363 155.019C286.499 155.439 286.363 155.858 286.047 156.152L278.719 162.109C278.402 162.361 278.266 162.739 278.357 163.116L280.528 171.926C280.619 172.346 280.483 172.765 280.076 173.017C279.714 173.269 279.216 173.269 278.809 173.059L270.441 168.444C270.079 168.234 269.627 168.234 269.265 168.444L260.897 173.059C260.49 173.269 260.037 173.269 259.63 173.017C259.268 172.765 259.087 172.346 259.178 171.926L261.349 163.116C261.439 162.739 261.349 162.361 260.987 162.109L253.659 156.152C253.297 155.858 253.162 155.439 253.343 155.019C253.478 154.6 253.84 154.348 254.338 154.306L264.018 153.509C264.425 153.509 264.787 153.257 264.968 152.88L268.813 144.573C268.993 144.196 269.401 143.944 269.853 143.944C270.305 143.944 270.712 144.196 270.893 144.573Z" fill="#FFBB00"/>
</svg>
