<svg width="310" height="59" viewBox="0 0 310 59" fill="none" xmlns="http://www.w3.org/2000/svg">
<path d="M31.0999 0L37.988 20.384H60.2783L42.2451 32.982L49.1332 53.366L31.0999 40.768L13.0667 53.366L19.9548 32.982L1.92151 20.384H24.2118L31.0999 0Z" fill="#FFBB00"/>
<path d="M92.68 0L99.5681 20.384H121.858L103.825 32.982L110.713 53.366L92.68 40.768L74.6467 53.366L81.5348 32.982L63.5016 20.384H85.7919L92.68 0Z" fill="#FFBB00"/>
<path d="M155 0L162.153 20.384H185.301L166.574 32.982L173.727 53.366L155 40.768L136.273 53.366L143.426 32.982L124.699 20.384H147.847L155 0Z" fill="#FFBB00"/>
<path d="M217.54 0L224.428 20.384H246.718L228.685 32.982L235.573 53.366L217.54 40.768L199.507 53.366L206.395 32.982L188.362 20.384H210.652L217.54 0Z" fill="#FFBB00"/>
<path d="M278.9 0L285.788 20.384H308.078L290.045 32.982L296.933 53.366L278.9 40.768L260.867 53.366L267.755 32.982L249.722 20.384H272.012L278.9 0Z" fill="#FFBB00"/>
</svg>
