<svg width="116" height="34" viewBox="0 0 116 34" fill="none" xmlns="http://www.w3.org/2000/svg">
<path d="M26.769 0.904572C25.7571 1.91728 24.7722 2.90298 23.7873 3.87518C22.708 4.95541 21.6151 6.03563 20.5493 7.11585C19.4564 8.22308 19.4025 9.69488 20.4548 10.8561C21.1834 11.6528 21.9524 12.4224 22.7484 13.1516C23.9762 14.2723 25.3928 14.2048 26.5801 13.0301C28.4824 11.1262 30.3983 9.22228 32.3006 7.30489C32.7053 6.89981 32.8672 6.8728 33.0696 7.46692C35.3767 14.0698 30.9514 21.2128 24.0167 22.0769C23.2746 22.1714 22.5461 22.185 21.804 22.1579C20.158 22.1039 18.7819 22.6711 17.6216 23.8323C14.9232 26.5463 12.2249 29.2469 9.51303 31.9475C7.35435 34.0944 4.35918 34.2834 1.99813 32.4471C-0.281979 30.6782 -0.67324 27.0865 1.14815 24.8315C1.82273 23.9943 2.63224 23.2652 3.38778 22.4955C5.54646 20.3216 7.69164 18.1476 9.87731 16.0142C11.0781 14.8259 11.6043 13.3946 11.5233 11.7473C11.4019 8.93873 12.1574 6.42721 13.8709 4.19925C16.6771 0.499489 22.2358 -1.02633 26.5126 0.729036C26.5936 0.756041 26.661 0.823555 26.7825 0.904572H26.769Z" fill="#929497"/>
<path d="M101.338 13.7872C102.458 12.4099 103.929 12.1263 105.548 12.1803C107.207 12.2478 108.867 12.0723 110.526 12.3019C113.926 12.761 115.559 14.5163 115.626 17.946C115.68 20.444 115.626 22.9421 115.64 25.4266C115.64 25.8046 115.572 25.9937 115.127 25.9802C113.913 25.9532 112.698 25.9532 111.484 25.9802C111.066 25.9802 110.958 25.8451 110.958 25.4401C110.972 23.2661 110.958 21.0787 110.958 18.9047C110.958 16.5282 110.27 15.7046 107.949 15.4885C106.776 15.3805 105.561 15.3805 104.388 15.4885C102.512 15.6505 101.433 16.8658 101.379 18.8237C101.325 20.9841 101.338 23.1446 101.379 25.2915C101.379 25.8722 101.217 26.0072 100.664 25.9937C99.517 25.9532 98.3702 25.9667 97.2234 25.9937C96.8052 25.9937 96.6973 25.8587 96.6973 25.4536C96.6973 19.3638 96.6973 13.2741 96.6973 7.1843C96.6973 6.73871 96.8322 6.61719 97.2774 6.61719C98.4512 6.64419 99.6115 6.64419 100.785 6.61719C101.244 6.61719 101.352 6.75222 101.352 7.1843C101.338 9.38526 101.352 11.5862 101.352 13.7872H101.338Z" fill="white"/>
<path d="M50.4066 6.61719C53.6177 6.61719 56.8287 6.63069 60.0532 6.61719C60.6199 6.61719 60.7818 6.77922 60.7548 7.33283C60.7143 8.21052 60.7143 9.0882 60.7548 9.96588C60.7818 10.4925 60.5929 10.587 60.1072 10.587C57.8406 10.56 55.574 10.587 53.2939 10.56C52.7947 10.56 52.6598 10.668 52.6598 11.1811C52.6867 15.8531 52.6598 20.5386 52.6867 25.2105C52.6867 25.8451 52.4979 25.9937 51.9042 25.9667C50.8923 25.9262 49.8805 25.9127 48.8686 25.9667C48.2345 26.0072 48.0456 25.8587 48.0456 25.1835C48.0861 20.5521 48.0456 15.9206 48.0861 11.2891C48.0861 10.6815 47.9242 10.5465 47.344 10.56C45.0909 10.6005 42.8513 10.56 40.5981 10.587C40.1394 10.587 39.9775 10.4925 39.991 10.0064C40.0315 9.06119 40.0315 8.116 39.991 7.1708C39.9775 6.71171 40.1394 6.61719 40.5577 6.61719C43.8362 6.63069 47.1147 6.61719 50.4066 6.61719Z" fill="white"/>
<path d="M86.1738 25.9524C84.4468 25.9794 82.7199 25.9794 81.0064 25.6014C78.8477 25.1288 77.539 23.873 77.3097 21.645C77.1343 19.9842 77.0803 18.3099 77.3097 16.6625C77.674 14.043 78.9152 12.7737 81.5866 12.3821C84.7841 11.9095 87.9951 11.923 91.1792 12.4902C93.5268 12.9087 94.5117 14.1645 94.5926 16.5545C94.6061 16.9191 94.5117 17.0676 94.1204 17.0676C92.9466 17.0406 91.7863 17.0541 90.6125 17.0676C90.3157 17.0676 90.1808 17.0136 90.1133 16.6895C89.9919 16.1089 89.5737 15.8118 89.034 15.7173C87.1182 15.3663 85.1889 15.3257 83.273 15.6768C81.9643 15.9064 81.4247 16.6085 81.2493 17.9453C81.1548 18.6339 81.1413 19.3361 81.2223 20.0247C81.3977 21.591 81.9913 22.2797 83.5564 22.5362C85.3103 22.8333 87.0912 22.7793 88.8586 22.4957C89.5467 22.3877 90.0324 22.0231 90.1538 21.3075C90.2078 20.9564 90.3967 20.9429 90.6665 20.9429C91.7863 20.9429 92.9196 20.9699 94.0394 20.9429C94.5386 20.9294 94.6466 21.1184 94.6196 21.564C94.4847 24.2916 93.2569 25.4798 90.2348 25.8309C88.8856 25.9929 87.5499 25.9659 86.2007 25.9659L86.1738 25.9524Z" fill="white"/>
<path d="M75.097 21.4025C73.9233 21.416 72.763 21.4025 71.5892 21.4025C71.3733 21.4025 71.1979 21.416 71.1709 21.6995C71.09 22.4422 70.5233 22.6447 69.9162 22.6852C68.0813 22.7932 66.233 22.8202 64.3981 22.6852C63.0894 22.5907 62.4688 21.8615 62.3743 20.6733C62.3473 20.2142 62.4688 20.1062 62.914 20.1062C64.9108 20.1332 66.921 20.1062 68.9178 20.1062C70.9146 20.1062 72.9249 20.0927 74.9216 20.1062C75.4073 20.1062 75.5288 19.9712 75.5153 19.4986C75.4748 18.6749 75.5153 17.8377 75.4883 17.0005C75.3399 14.219 74.2471 12.8687 71.5217 12.3826C68.54 11.856 65.5179 11.856 62.5362 12.3421C59.9053 12.7607 58.6371 14.0299 58.2863 16.3524C58.057 17.8647 58.057 19.404 58.2054 20.9299C58.5022 23.941 59.6355 25.1157 62.5902 25.6828C64.8163 26.1149 67.0694 25.9259 69.3091 25.9124C70.5233 25.9124 71.7241 25.7503 72.8844 25.3588C74.5034 24.8052 75.5558 23.3604 75.5018 21.8075C75.5018 21.5105 75.4478 21.3484 75.097 21.3619V21.4025ZM62.4823 16.9195C62.6981 16.1364 63.2243 15.6638 63.9798 15.5557C65.8957 15.2857 67.825 15.2857 69.7273 15.5693C70.4829 15.6908 70.9011 16.2444 71.117 16.96C71.2249 17.3246 71.144 17.4866 70.7257 17.4866C69.4035 17.4731 68.0813 17.4866 66.7591 17.4866C65.4774 17.4866 64.2092 17.4731 62.9275 17.4866C62.4418 17.4866 62.3608 17.3651 62.4823 16.906V16.9195Z" fill="white"/>
</svg>
