<svg width="246" height="214" viewBox="0 0 246 214" fill="none" xmlns="http://www.w3.org/2000/svg">
<circle cx="139" cy="107" r="107" fill="#0A2463"/>
<g clip-path="url(#clip0_3734_37473)">
<path d="M137.109 159.849L167.905 160.954L210.268 160.543L226.531 159.743C226.531 159.743 229.862 150.815 228.569 146.027C227.276 141.239 225.618 139.212 221.931 139.212C218.245 139.212 211.936 142.211 211.678 144.395C211.419 146.579 209.584 149.067 209.584 149.067H165.689C165.689 149.067 164.031 139.577 158.128 136.263C152.226 132.944 144.482 133.132 140.425 136.263C136.369 139.394 137.104 159.844 137.104 159.844L137.109 159.849Z" fill="#263238" stroke="#263238" stroke-miterlimit="10"/>
<path d="M219.427 159.576C219.427 157.013 219.102 154.596 218.524 152.478V144.406H211.678C207.398 144.406 203.93 151.201 203.93 159.581C203.93 167.962 207.398 174.757 211.678 174.757H218.524V166.685C219.097 164.567 219.427 162.15 219.427 159.586V159.576Z" fill="#263238" stroke="#263238" stroke-miterlimit="10"/>
<path d="M218.529 174.749C222.808 174.749 226.277 167.955 226.277 159.574C226.277 151.193 222.808 144.398 218.529 144.398C214.249 144.398 210.78 151.193 210.78 159.574C210.78 167.955 214.249 174.749 218.529 174.749Z" fill="#616161" stroke="#263238" stroke-miterlimit="10"/>
<path d="M219.158 170.109C221.824 170.109 223.985 165.429 223.985 159.656C223.985 153.883 221.824 149.203 219.158 149.203C216.491 149.203 214.33 153.883 214.33 159.656C214.33 165.429 216.491 170.109 219.158 170.109Z" fill="#E0E0E0" stroke="#263238" stroke-miterlimit="10"/>
<path d="M158.108 144.402H151.262C146.982 144.402 143.514 151.197 143.514 159.577C143.514 167.958 146.982 174.753 151.262 174.753H158.108C162.388 174.753 165.856 167.958 165.856 159.577C165.856 151.197 162.388 144.402 158.108 144.402Z" fill="#263238" stroke="#263238" stroke-miterlimit="10"/>
<path d="M80.5326 144.402H73.0833C68.4281 144.402 64.6553 151.197 64.6553 159.577C64.6553 167.958 68.4281 174.753 73.0833 174.753H80.5326C85.1877 174.753 88.9605 167.958 88.9605 159.577C88.9605 151.197 85.1877 144.402 80.5326 144.402Z" fill="#263238" stroke="#263238" stroke-miterlimit="10"/>
<path d="M152.895 157.114C152.895 154.13 152.515 151.323 151.85 148.86V139.477H143.889C138.914 139.477 134.883 147.371 134.883 157.114C134.883 166.858 138.914 174.752 143.889 174.752H151.85V165.368C152.52 162.906 152.895 160.099 152.895 157.114Z" fill="#263238" stroke="#263238" stroke-miterlimit="10"/>
<path d="M151.845 174.752C156.819 174.752 160.851 166.855 160.851 157.114C160.851 147.373 156.819 139.477 151.845 139.477C146.871 139.477 142.839 147.373 142.839 157.114C142.839 166.855 146.871 174.752 151.845 174.752Z" fill="#616161" stroke="#263238" stroke-miterlimit="10"/>
<path d="M152.575 169.359C155.673 169.359 158.184 163.919 158.184 157.209C158.184 150.498 155.673 145.059 152.575 145.059C149.478 145.059 146.967 150.498 146.967 157.209C146.967 163.919 149.478 169.359 152.575 169.359Z" fill="#E0E0E0" stroke="#263238" stroke-miterlimit="10"/>
<path d="M227.566 133.77C226.13 129.286 195.806 66.7209 193.473 64.2128C191.141 61.7047 147.723 48.2574 147.723 48.2574C147.723 48.2574 127.809 42.3393 121.348 41.9846C114.888 41.6249 59.4469 46.2864 58.3718 46.6461C57.2968 47.0058 50.1162 69.234 48.1436 78.9167C46.171 88.5994 45.2734 108.319 45.2734 127.68C45.2734 147.04 47.9661 161.202 51.0138 161.202C54.0615 161.202 133.727 163.533 134.984 163.533C136.242 163.533 138.032 162.099 141.262 157.797C144.493 153.495 147.185 140.585 150.77 138.974C154.361 137.363 158.306 138.254 160.279 142.738C162.251 147.223 161.714 161.202 161.714 161.202C161.714 161.202 190.907 161.04 210.263 160.548C210.978 158.613 212.926 153.434 215.344 147.537C218.417 140.048 223.605 140.818 225.912 142.738C227.991 144.471 227.728 153.84 226.531 159.748C226.815 159.697 226.987 159.641 227.028 159.586C227.926 158.329 228.823 154.924 229.538 150.445C230.258 145.961 229.001 138.254 227.566 133.77Z" fill="white" stroke="#263238" stroke-miterlimit="10"/>
<path d="M161.718 161.198C161.718 161.198 190.912 161.036 210.268 160.544C210.983 158.609 212.93 153.43 215.349 147.533C218.422 140.044 223.61 140.814 225.917 142.734C227.996 144.467 227.732 153.836 226.536 159.744C226.82 159.693 226.992 159.637 227.033 159.581C227.93 158.325 228.828 154.92 229.543 150.441C230.263 145.957 229.005 138.25 227.57 133.766C226.135 129.282 195.811 66.7167 193.478 64.2086C191.145 61.7005 147.727 48.2532 147.727 48.2532C147.727 48.2532 127.814 42.3351 121.353 41.9805C121.318 41.9805 121.272 41.9805 121.231 41.9805L121.475 43.1154C121.475 43.1154 126.84 53.467 125.811 163.28C131.237 163.432 134.73 163.529 134.984 163.529C136.242 163.529 138.032 162.095 141.262 157.793C144.492 153.491 147.185 140.581 150.77 138.97C154.36 137.358 158.305 138.25 160.278 142.734C162.251 147.218 161.713 161.198 161.713 161.198H161.718Z" fill="#E0E0E0" stroke="#263238" stroke-miterlimit="10"/>
<path d="M226.947 144.823C227.834 148.359 227.469 155.119 226.531 159.75C226.815 159.699 226.988 159.643 227.028 159.587C227.926 158.331 228.823 154.926 229.538 150.447C230.01 147.503 229.63 143.166 228.904 139.27C228.813 141.21 228.357 143.445 226.947 144.828V144.823Z" fill="#263238" stroke="#263238" stroke-miterlimit="10"/>
<path d="M150.268 139.285H45.623C46.4445 152.444 48.62 161.199 51.0186 161.199C54.0663 161.199 133.732 163.53 134.989 163.53C136.247 163.53 138.037 162.096 141.267 157.794C144.34 153.695 146.931 141.803 150.268 139.285Z" fill="#263238" stroke="#263238" stroke-miterlimit="10"/>
<path d="M81.9873 45.4163V45.6696C81.9873 46.531 82.7277 47.215 83.5897 47.139L93.8179 46.2878C94.5837 46.2219 95.1719 45.5835 95.1719 44.8184V44.565C95.1719 43.6986 94.4315 43.0197 93.5695 43.0957L83.3413 43.9469C82.5755 44.0128 81.9873 44.6512 81.9873 45.4163Z" stroke="#263238" stroke-miterlimit="10"/>
<path d="M121.476 43.1101C121.476 43.1101 123.829 92.1874 123.829 98.8249C123.829 105.462 124.518 154.813 124.518 154.813L150.806 155.092C150.806 155.092 153.022 139.608 153.022 123.434C153.022 107.261 150.532 68.5506 149.148 57.2161C147.764 45.8817 145.963 37.3086 145.963 37.3086L121.476 43.1152V43.1101Z" fill="white" stroke="#263238" stroke-miterlimit="10"/>
<path d="M126.455 109.19L145.826 108.359C145.826 108.359 146.795 123.149 145.826 133.658C144.858 144.167 144.442 146.791 143.889 147.344C143.336 147.896 126.455 147.344 126.455 147.344C126.455 147.344 125.349 146.239 125.349 144.44C125.349 142.642 124.934 111.678 124.934 110.71C124.934 109.743 125.486 109.606 126.455 109.19Z" fill="#263238" stroke="#263238" stroke-miterlimit="10"/>
<path d="M123.966 51.6851L124.519 57.9071L143.753 55.0038C143.753 55.0038 143.616 53.347 142.368 50.7173C141.121 48.0876 139.463 47.2617 139.463 47.2617L125.35 50.4437" stroke="#263238" stroke-miterlimit="10"/>
<path d="M141.952 39.9336C141.952 39.9336 145.137 48.3648 147.627 71.1756C150.117 93.9865 151.085 140.434 149.148 149.838C149.148 149.838 149.148 151.358 147.627 152.463C146.105 153.567 126.318 153.152 126.318 153.152" stroke="#263238" stroke-miterlimit="10"/>
<path d="M142.779 60.6703C142.779 60.6703 143.611 58.1825 145.406 76.2913C147.206 94.4001 147.343 101.174 146.511 101.727C145.68 102.279 127.972 103.247 127.972 103.247" stroke="#263238" stroke-miterlimit="10"/>
<path d="M137.383 60.5312C137.383 60.5312 126.313 61.7777 125.486 62.7455C124.655 63.7132 126.455 71.5921 126.871 84.4517C127.287 97.3063 127.287 100.351 127.287 100.351" stroke="#263238" stroke-miterlimit="10"/>
<path d="M142.505 64.2656L128.671 66.4798C128.671 66.4798 127.287 66.8953 127.565 68.4154C127.844 69.9354 129.639 89.5693 129.224 99.6574" stroke="#263238" stroke-miterlimit="10"/>
<path d="M39.5732 83.4961V132.447" stroke="#263238" stroke-miterlimit="10"/>
<path d="M41.7035 77.9154L41.81 71.6427C41.81 71.6427 37.4135 49.1612 37.0991 48.7406C36.7847 48.3201 0.887086 48.011 0.471264 48.2187C0.0503719 48.4265 0.364773 50.6255 0.364773 50.6255C0.364773 50.6255 0.785666 57.8406 1.095 80.9504C1.4094 104.06 0.988506 151.329 0.988506 151.329L41.0696 151.643C41.0696 151.643 40.6488 148.506 41.2776 138.155C41.9064 127.803 42.0078 80.3272 42.0078 79.9066V78.5487L41.6934 77.9204L41.7035 77.9154Z" fill="white" stroke="#263238" stroke-miterlimit="10"/>
<path d="M2.37305 49.8242C2.37305 49.8242 33.0373 50.2853 33.8639 50.4677C34.6905 50.6501 35.2432 52.307 35.5221 53.2291C35.796 54.1513 39.6651 70.9883 39.944 73.4711" stroke="#263238" stroke-miterlimit="10"/>
<path d="M39.5739 138.98C39.5739 138.98 39.7565 145.056 39.1125 146.343C38.4684 147.63 37.7332 147.999 36.719 148.182C35.7048 148.364 2.00293 147.812 2.00293 147.812" stroke="#263238" stroke-miterlimit="10"/>
<path d="M4.76615 110.732L4.30469 144.315L37.1799 144.776C37.1799 144.776 37.9152 111.467 37.824 111.011C37.7327 110.55 37.7327 110.089 35.8919 109.906C34.0511 109.724 6.60692 109.445 6.15053 109.445C5.69414 109.445 4.95377 109.998 4.77122 110.732H4.76615Z" fill="#263238" stroke="#263238" stroke-miterlimit="10"/>
<path d="M7.5252 56.5391C7.5252 56.5391 4.48767 60.7699 4.20877 61.7832C3.92986 62.7966 4.20877 63.5313 4.94406 63.6225C5.67936 63.7137 33.4887 63.6225 33.4887 63.6225C33.4887 63.6225 34.5029 63.4401 34.4116 61.8744" stroke="#263238" stroke-miterlimit="10"/>
<path d="M9.37109 56.2656H32.2058C32.2058 56.2656 32.9411 56.2656 33.4025 58.1961" stroke="#263238" stroke-miterlimit="10"/>
<path d="M11.3944 69.9688C11.3944 69.9688 9.18349 70.7034 9.09221 72.7302C9.00093 74.7569 9.55367 102.173 9.55367 102.173" stroke="#263238" stroke-miterlimit="10"/>
<path d="M14.8936 69.8789C14.8936 69.8789 32.2059 70.34 33.3114 70.5224C34.4169 70.7048 35.4311 71.9006 35.7049 72.8227C35.9787 73.7449 35.9787 100.792 35.9787 100.792" stroke="#263238" stroke-miterlimit="10"/>
<path d="M12.4994 67.8576C12.4994 67.8576 8.81785 67.7664 7.15963 68.7798C5.50142 69.7931 5.78032 72.4583 5.8716 73.4716C5.96288 74.485 6.24178 101.719 6.24178 101.719C6.24178 101.719 6.24178 102.824 7.71744 102.915C9.1931 103.006 33.7773 103.006 33.7773 103.006C33.7773 103.006 34.7915 103.006 35.3442 102.18" stroke="#263238" stroke-miterlimit="10"/>
<path d="M16.0898 67.4883C16.0898 67.4883 33.1233 67.9494 34.6903 68.6841C36.2572 69.4187 35.9783 70.802 36.0696 71.4455" stroke="#263238" stroke-miterlimit="10"/>
<path d="M48.8234 78.2227H40.7656V81.0449H48.8234V78.2227Z" stroke="#263238" stroke-miterlimit="10"/>
<path d="M45.8921 77.3867H43.1689V82.0938H45.8921V77.3867Z" stroke="#263238" stroke-miterlimit="10"/>
<path d="M48.0881 134.379H40.0303V137.201H48.0881V134.379Z" stroke="#263238" stroke-miterlimit="10"/>
<path d="M45.1626 133.543H42.4395V138.25H45.1626V133.543Z" stroke="#263238" stroke-miterlimit="10"/>
<path d="M121.43 47.0508L60.3804 51.6819C60.3804 51.6819 55.1269 78.2421 55.1269 78.7083C55.1269 79.1744 53.4281 121.791 54.0467 132.143C54.6654 142.495 54.8175 151.139 54.8175 151.139L124.057 153.145L121.43 47.0508Z" fill="white" stroke="#263238" stroke-miterlimit="10"/>
<path d="M121.43 47.0508L60.3804 51.6819C60.3804 51.6819 55.1269 78.2421 55.1269 78.7083C55.1269 79.1744 53.4281 121.791 54.0467 132.143C54.6654 142.495 54.8175 151.139 54.8175 151.139L124.057 153.145L121.43 47.0508Z" fill="#263238" stroke="#263238" stroke-miterlimit="10"/>
<path d="M101.47 152.491V119.734H87.9766V152.096L101.47 152.491Z" fill="#164FDA" stroke="#263238" stroke-miterlimit="10"/>
<path d="M60.375 151.296L87.9764 152.096V119.734H60.375V151.296Z" fill="#164FDA" stroke="#263238" stroke-miterlimit="10"/>
<path d="M71.2886 135.168H77.0645V119.734H71.2886V135.168Z" fill="white" stroke="#263238" stroke-miterlimit="10"/>
<path d="M116.212 152.917H124.051L123.94 148.347L123.23 119.734H90.0859V152.157L116.212 152.917Z" fill="#164FDA" stroke="#263238" stroke-miterlimit="10"/>
<path d="M116.212 152.917H117.687V119.734H90.0859V152.157L116.212 152.917Z" fill="#164FDA" stroke="#263238" stroke-miterlimit="10"/>
<path d="M102.47 128.352H93.21V134.589H102.47V128.352Z" fill="white" stroke="#263238" stroke-miterlimit="10"/>
<path d="M100.999 124.703H106.774V119.733H100.999V124.703Z" fill="white" stroke="#263238" stroke-miterlimit="10"/>
<path d="M164.63 146.766C164.63 146.766 164.823 152.714 165.015 154.254C165.208 155.79 166.552 156.56 168.281 156.175C170.01 155.79 206.897 156.752 206.897 156.752C206.897 156.752 208.626 156.367 208.819 154.254C209.011 152.142 209.589 149.071 209.589 149.071L164.635 146.766H164.63Z" fill="#263238" stroke="#263238" stroke-miterlimit="10"/>
<path d="M198.99 90.1013C198.99 90.1013 201.779 112.684 203.072 115.471C204.365 118.258 205.364 119.352 206.855 119.95C208.351 120.548 216.81 123.036 217.809 123.132C218.803 123.233 219.305 122.732 219.005 121.541C218.706 120.345 207.16 94.0838 206.161 92.4928C205.167 90.9018 201.881 89.6098 200.684 89.2095C199.487 88.8092 198.99 90.1063 198.99 90.1063V90.1013Z" fill="#B2B2B2" stroke="#263238" stroke-miterlimit="10"/>
<path d="M204.786 91.3477L210.004 120.335" stroke="#263238" stroke-miterlimit="10"/>
<path d="M217.114 110.693C217.114 110.693 217.413 121.338 217.611 122.235C217.809 123.132 218.605 123.527 219.604 123.431C220.598 123.33 223.884 122.934 224.285 121.936C224.685 120.943 224.087 113.378 222.89 111.59C221.693 109.801 219.305 109.203 218.311 109.102C217.317 109.001 217.114 110.693 217.114 110.693Z" fill="#B2B2B2" stroke="#263238" stroke-miterlimit="10"/>
<path d="M217.611 122.235C217.809 123.132 218.605 123.527 219.604 123.43C220.598 123.329 223.884 122.934 224.285 121.941C224.685 120.948 224.087 113.383 222.89 111.594C222.393 110.855 221.698 110.318 220.973 109.938L221.196 110.5L221.891 120.248H217.459C217.51 121.272 217.565 122.027 217.611 122.24V122.235Z" fill="#263238" stroke="#263238" stroke-miterlimit="10"/>
<path d="M154.989 124.148L221.505 131.82" stroke="#263238" stroke-miterlimit="10"/>
<path d="M155.629 126.547L213.991 132.779L218.626 132.46" stroke="#263238" stroke-miterlimit="10"/>
<path d="M213.508 136.934C213.508 136.934 211.272 145.719 210.309 147.797" stroke="#263238" stroke-miterlimit="10"/>
<path d="M155.948 130.855C155.948 130.855 160.745 133.409 163.301 142.676" stroke="#263238" stroke-miterlimit="10"/>
<path d="M153.55 78.1367L196.08 87.8853" stroke="#263238" stroke-miterlimit="10"/>
<path d="M154.188 75.4219C154.188 75.4219 198.479 85.4846 202.155 87.4049" stroke="#263238" stroke-miterlimit="10"/>
<path d="M203.311 128.128C202.789 127.976 202.368 127.428 202.368 126.907V120.294C202.368 119.772 202.789 119.474 203.311 119.626C203.834 119.778 204.255 120.325 204.255 120.847V127.459C204.255 127.981 203.834 128.28 203.311 128.128Z" fill="#263238" stroke="#263238" stroke-miterlimit="10"/>
<path d="M195.932 127.37C195.41 127.218 194.989 126.671 194.989 126.149V119.537C194.989 119.015 195.41 118.716 195.932 118.868C196.455 119.02 196.876 119.567 196.876 120.089V126.701C196.876 127.223 196.455 127.522 195.932 127.37Z" fill="#263238" stroke="#263238" stroke-miterlimit="10"/>
<path d="M67.089 119.965H102.743V94.119H67.089V119.965Z" fill="#164FDA" stroke="#263238" stroke-miterlimit="10"/>
<path d="M67.0937 119.965H88.5947V94.119H67.0937V119.965Z" fill="#164FDA" stroke="#263238" stroke-miterlimit="10"/>
<path d="M75.5929 106.137H80.0908V94.1182H75.5929V106.137Z" fill="white" stroke="#263238" stroke-miterlimit="10"/>
<path d="M121.957 68.375H97.4541V94.2209H122.601L121.957 68.375Z" fill="#164FDA" stroke="#263238" stroke-miterlimit="10"/>
<path d="M97.4492 94.2227H118.95V68.3768H97.4492V94.2227Z" fill="#164FDA" stroke="#263238" stroke-miterlimit="10"/>
<path d="M117.368 82.8906H108.108V89.1279H117.368V82.8906Z" fill="white" stroke="#263238" stroke-miterlimit="10"/>
<path d="M105.953 80.3984H110.451V68.3799H105.953V80.3984Z" fill="white" stroke="#263238" stroke-miterlimit="10"/>
<path d="M122.596 94.1133H94.4619V119.959H123.235L122.596 94.1133Z" fill="#164FDA" stroke="#263238" stroke-miterlimit="10"/>
<path d="M94.4619 119.965H115.963V94.119H94.4619V119.965Z" fill="#164FDA" stroke="#263238" stroke-miterlimit="10"/>
<path d="M102.966 106.137H107.464V94.1182H102.966V106.137Z" fill="white" stroke="#263238" stroke-miterlimit="10"/>
<path d="M62.2826 94.2695H95.3252V70.3136H62.2826V94.2695Z" fill="#164FDA" stroke="#263238" stroke-miterlimit="10"/>
<path d="M62.287 94.2695H82.2109V70.3136H62.287V94.2695Z" fill="#164FDA" stroke="#263238" stroke-miterlimit="10"/>
<path d="M70.1627 81.4531H74.3311V70.3112H70.1627V81.4531Z" fill="white" stroke="#263238" stroke-miterlimit="10"/>
</g>
<defs>
<clipPath id="clip0_3734_37473">
<rect width="230" height="138" fill="white" transform="translate(0 37)"/>
</clipPath>
</defs>
</svg>
