<svg width="653" height="185" viewBox="0 0 653 185" fill="none" xmlns="http://www.w3.org/2000/svg">
<path d="M164.998 141.667C164.998 146.435 163.403 151.997 160.016 158.155C156.827 164.512 152.443 169.875 146.665 174.246C141.085 178.815 134.708 181 127.734 181H40.0538C34.6734 181 28.8945 179.212 22.7171 175.835C16.3403 172.259 10.96 168.088 6.57599 162.923C2.192 157.758 0 152.792 0 148.421V32.6975C0 29.7178 1.19563 26.1421 3.78618 22.3678C6.17745 18.5934 9.56508 15.0177 13.5505 11.6407C17.536 8.26364 22.1192 5.48255 26.9018 3.29742C31.6843 1.11228 36.2676 0.119019 40.6516 0.119019H117.372C126.14 0.119019 134.31 2.10552 141.483 5.87986C148.857 9.85284 154.635 14.8191 158.82 20.7786C163.005 26.9367 164.998 32.6975 164.998 38.657V141.667ZM124.745 127.762V51.9665C124.745 45.4111 122.353 40.8422 117.571 38.2597C112.788 35.6773 107.408 34.2867 101.629 34.2867H61.1767C54.6007 34.2867 49.2203 36.6705 44.8363 40.8422C40.253 44.8151 37.8618 49.3841 37.8618 54.549V124.981C37.8618 139.085 44.0392 146.038 55.597 146.038H106.212C110.397 146.038 113.785 145.044 116.574 143.058C119.364 141.071 121.357 138.489 122.752 135.708C124.147 132.927 124.745 130.344 124.745 127.762Z" fill="white"/>
<path d="M346.946 33.0136H179.158V0.236445H346.946V33.0136ZM336.545 54.2691L232.351 181H181.536L288.122 54.2691H336.545Z" fill="white"/>
<path d="M360.655 129.47V126.272H368.026C369.04 126.272 369.937 126.064 370.717 125.648C371.523 125.232 372.147 124.647 372.589 123.893C373.057 123.139 373.291 122.242 373.291 121.202C373.291 120.162 373.057 119.265 372.589 118.511C372.147 117.757 371.523 117.172 370.717 116.756C369.937 116.34 369.04 116.132 368.026 116.132H360.655V112.934H368.26C369.924 112.934 371.406 113.272 372.706 113.948C374.032 114.624 375.072 115.586 375.826 116.834C376.606 118.056 376.996 119.512 376.996 121.202C376.996 122.866 376.606 124.322 375.826 125.57C375.072 126.792 374.032 127.754 372.706 128.456C371.406 129.132 369.924 129.47 368.26 129.47H360.655ZM358.198 140V112.934H361.864V140H358.198ZM385.071 140L396.147 112.934H398.799L409.836 140H405.858L396.771 117.107H398.136L388.971 140H385.071ZM390.336 133.877V130.679H404.571V133.877H390.336ZM424.167 128.222V125.141H431.499C433.085 125.141 434.307 124.738 435.165 123.932C436.023 123.126 436.452 122.034 436.452 120.656C436.452 119.356 436.023 118.277 435.165 117.419C434.333 116.561 433.124 116.132 431.538 116.132H424.167V112.934H431.655C433.371 112.934 434.866 113.272 436.14 113.948C437.414 114.598 438.389 115.495 439.065 116.639C439.767 117.783 440.118 119.096 440.118 120.578C440.118 122.112 439.767 123.451 439.065 124.595C438.389 125.739 437.414 126.636 436.14 127.286C434.866 127.91 433.371 128.222 431.655 128.222H424.167ZM421.71 140V112.934H425.376V140H421.71ZM437.31 140L427.482 127.871L430.953 126.662L441.951 140H437.31ZM450.677 140L461.753 112.934H464.405L475.442 140H471.464L462.377 117.107H463.742L454.577 140H450.677ZM455.942 133.877V130.679H470.177V133.877H455.942ZM504.886 129.47V126.272H512.257C513.271 126.272 514.168 126.064 514.948 125.648C515.754 125.232 516.378 124.647 516.82 123.893C517.288 123.139 517.522 122.242 517.522 121.202C517.522 120.162 517.288 119.265 516.82 118.511C516.378 117.757 515.754 117.172 514.948 116.756C514.168 116.34 513.271 116.132 512.257 116.132H504.886V112.934H512.491C514.155 112.934 515.637 113.272 516.937 113.948C518.263 114.624 519.303 115.586 520.057 116.834C520.837 118.056 521.227 119.512 521.227 121.202C521.227 122.866 520.837 124.322 520.057 125.57C519.303 126.792 518.263 127.754 516.937 128.456C515.637 129.132 514.155 129.47 512.491 129.47H504.886ZM502.429 140V112.934H506.095V140H502.429ZM536.033 128.222V125.141H543.365C544.951 125.141 546.173 124.738 547.031 123.932C547.889 123.126 548.318 122.034 548.318 120.656C548.318 119.356 547.889 118.277 547.031 117.419C546.199 116.561 544.99 116.132 543.404 116.132H536.033V112.934H543.521C545.237 112.934 546.732 113.272 548.006 113.948C549.28 114.598 550.255 115.495 550.931 116.639C551.633 117.783 551.984 119.096 551.984 120.578C551.984 122.112 551.633 123.451 550.931 124.595C550.255 125.739 549.28 126.636 548.006 127.286C546.732 127.91 545.237 128.222 543.521 128.222H536.033ZM533.576 140V112.934H537.242V140H533.576ZM549.176 140L539.348 127.871L542.819 126.662L553.817 140H549.176ZM577.313 140.39C575.389 140.39 573.595 140.039 571.931 139.337C570.267 138.609 568.811 137.608 567.563 136.334C566.315 135.034 565.34 133.539 564.638 131.849C563.962 130.159 563.624 128.352 563.624 126.428C563.624 124.478 563.962 122.671 564.638 121.007C565.34 119.317 566.302 117.835 567.524 116.561C568.772 115.287 570.215 114.299 571.853 113.597C573.517 112.895 575.311 112.544 577.235 112.544C579.159 112.544 580.94 112.895 582.578 113.597C584.242 114.299 585.698 115.287 586.946 116.561C588.194 117.835 589.169 119.317 589.871 121.007C590.573 122.697 590.924 124.517 590.924 126.467C590.924 128.391 590.573 130.198 589.871 131.888C589.169 133.578 588.194 135.06 586.946 136.334C585.724 137.608 584.281 138.609 582.617 139.337C580.979 140.039 579.211 140.39 577.313 140.39ZM577.235 136.88C579.185 136.88 580.888 136.438 582.344 135.554C583.826 134.644 584.996 133.409 585.854 131.849C586.712 130.263 587.141 128.456 587.141 126.428C587.141 124.92 586.894 123.542 586.4 122.294C585.906 121.02 585.217 119.915 584.333 118.979C583.449 118.043 582.409 117.328 581.213 116.834C580.017 116.314 578.691 116.054 577.235 116.054C575.311 116.054 573.608 116.496 572.126 117.38C570.67 118.264 569.513 119.486 568.655 121.046C567.823 122.606 567.407 124.4 567.407 126.428C567.407 127.936 567.641 129.34 568.109 130.64C568.603 131.914 569.279 133.019 570.137 133.955C571.021 134.865 572.061 135.58 573.257 136.1C574.479 136.62 575.805 136.88 577.235 136.88ZM574.934 110.165L573.335 108.566L578.405 102.287L581.174 105.056L574.934 110.165ZM610.519 140.39C608.387 140.39 606.567 140 605.059 139.22C603.551 138.44 602.212 137.309 601.042 135.827L603.538 133.331C604.396 134.527 605.384 135.437 606.502 136.061C607.62 136.659 608.998 136.958 610.636 136.958C612.248 136.958 613.535 136.607 614.497 135.905C615.485 135.203 615.979 134.241 615.979 133.019C615.979 132.005 615.745 131.186 615.277 130.562C614.809 129.938 614.172 129.431 613.366 129.041C612.586 128.625 611.728 128.261 610.792 127.949C609.856 127.611 608.92 127.26 607.984 126.896C607.048 126.506 606.19 126.038 605.41 125.492C604.63 124.92 603.993 124.179 603.499 123.269C603.031 122.359 602.797 121.215 602.797 119.837C602.797 118.303 603.161 117.003 603.889 115.937C604.643 114.845 605.657 114.013 606.931 113.441C608.231 112.843 609.687 112.544 611.299 112.544C613.067 112.544 614.653 112.895 616.057 113.597C617.461 114.273 618.605 115.17 619.489 116.288L616.993 118.784C616.187 117.848 615.316 117.146 614.38 116.678C613.47 116.21 612.417 115.976 611.221 115.976C609.765 115.976 608.608 116.301 607.75 116.951C606.892 117.575 606.463 118.459 606.463 119.603C606.463 120.513 606.697 121.254 607.165 121.826C607.659 122.372 608.296 122.84 609.076 123.23C609.856 123.62 610.714 123.984 611.65 124.322C612.612 124.634 613.561 124.985 614.497 125.375C615.433 125.765 616.291 126.259 617.071 126.857C617.851 127.455 618.475 128.235 618.943 129.197C619.437 130.133 619.684 131.316 619.684 132.746C619.684 135.138 618.852 137.01 617.188 138.362C615.55 139.714 613.327 140.39 610.519 140.39ZM360.616 184V180.646H368.143C370.145 180.646 371.9 180.217 373.408 179.359C374.916 178.475 376.086 177.266 376.918 175.732C377.776 174.198 378.205 172.43 378.205 170.428C378.205 168.452 377.776 166.697 376.918 165.163C376.06 163.629 374.877 162.433 373.369 161.575C371.861 160.717 370.119 160.288 368.143 160.288H360.655V156.934H368.221C370.197 156.934 372.017 157.272 373.681 157.948C375.371 158.624 376.827 159.573 378.049 160.795C379.297 162.017 380.259 163.447 380.935 165.085C381.637 166.723 381.988 168.517 381.988 170.467C381.988 172.391 381.637 174.185 380.935 175.849C380.259 177.487 379.31 178.917 378.088 180.139C376.866 181.361 375.41 182.31 373.72 182.986C372.056 183.662 370.249 184 368.299 184H360.616ZM358.198 184V156.934H361.864V184H358.198ZM398.611 184.39C396.687 184.39 394.893 184.039 393.229 183.337C391.565 182.609 390.109 181.608 388.861 180.334C387.613 179.034 386.638 177.539 385.936 175.849C385.26 174.159 384.922 172.352 384.922 170.428C384.922 168.478 385.26 166.671 385.936 165.007C386.638 163.317 387.6 161.835 388.822 160.561C390.07 159.287 391.513 158.299 393.151 157.597C394.815 156.895 396.609 156.544 398.533 156.544C400.457 156.544 402.238 156.895 403.876 157.597C405.54 158.299 406.996 159.287 408.244 160.561C409.492 161.835 410.467 163.317 411.169 165.007C411.871 166.697 412.222 168.517 412.222 170.467C412.222 172.391 411.871 174.198 411.169 175.888C410.467 177.578 409.492 179.06 408.244 180.334C407.022 181.608 405.579 182.609 403.915 183.337C402.277 184.039 400.509 184.39 398.611 184.39ZM398.533 180.88C400.483 180.88 402.186 180.438 403.642 179.554C405.124 178.644 406.294 177.409 407.152 175.849C408.01 174.263 408.439 172.456 408.439 170.428C408.439 168.92 408.192 167.542 407.698 166.294C407.204 165.02 406.515 163.915 405.631 162.979C404.747 162.043 403.707 161.328 402.511 160.834C401.315 160.314 399.989 160.054 398.533 160.054C396.609 160.054 394.906 160.496 393.424 161.38C391.968 162.264 390.811 163.486 389.953 165.046C389.121 166.606 388.705 168.4 388.705 170.428C388.705 171.936 388.939 173.34 389.407 174.64C389.901 175.914 390.577 177.019 391.435 177.955C392.319 178.865 393.359 179.58 394.555 180.1C395.777 180.62 397.103 180.88 398.533 180.88ZM420.71 184L431.786 156.934H434.438L445.475 184H441.497L432.41 161.107H433.775L424.61 184H420.71ZM425.975 177.877V174.679H440.21V177.877H425.975ZM458.605 184.39C456.603 184.39 454.809 183.948 453.223 183.064C451.663 182.154 450.428 180.919 449.518 179.359C448.608 177.773 448.153 175.979 448.153 173.977V156.934H451.819V173.899C451.819 175.329 452.118 176.564 452.716 177.604C453.314 178.644 454.12 179.45 455.134 180.022C456.174 180.594 457.331 180.88 458.605 180.88C459.931 180.88 461.088 180.594 462.076 180.022C463.09 179.45 463.883 178.644 464.455 177.604C465.053 176.564 465.352 175.342 465.352 173.938V156.934H469.057V174.016C469.057 176.018 468.602 177.799 467.692 179.359C466.782 180.919 465.547 182.154 463.987 183.064C462.427 183.948 460.633 184.39 458.605 184.39ZM481.102 184V157.714H484.768V184H481.102ZM471.898 160.288V156.934H493.933V160.288H471.898ZM507.864 184.39C505.94 184.39 504.146 184.039 502.482 183.337C500.818 182.609 499.362 181.608 498.114 180.334C496.866 179.034 495.891 177.539 495.189 175.849C494.513 174.159 494.175 172.352 494.175 170.428C494.175 168.478 494.513 166.671 495.189 165.007C495.891 163.317 496.853 161.835 498.075 160.561C499.323 159.287 500.766 158.299 502.404 157.597C504.068 156.895 505.862 156.544 507.786 156.544C509.71 156.544 511.491 156.895 513.129 157.597C514.793 158.299 516.249 159.287 517.497 160.561C518.745 161.835 519.72 163.317 520.422 165.007C521.124 166.697 521.475 168.517 521.475 170.467C521.475 172.391 521.124 174.198 520.422 175.888C519.72 177.578 518.745 179.06 517.497 180.334C516.275 181.608 514.832 182.609 513.168 183.337C511.53 184.039 509.762 184.39 507.864 184.39ZM507.786 180.88C509.736 180.88 511.439 180.438 512.895 179.554C514.377 178.644 515.547 177.409 516.405 175.849C517.263 174.263 517.692 172.456 517.692 170.428C517.692 168.92 517.445 167.542 516.951 166.294C516.457 165.02 515.768 163.915 514.884 162.979C514 162.043 512.96 161.328 511.764 160.834C510.568 160.314 509.242 160.054 507.786 160.054C505.862 160.054 504.159 160.496 502.677 161.38C501.221 162.264 500.064 163.486 499.206 165.046C498.374 166.606 497.958 168.4 497.958 170.428C497.958 171.936 498.192 173.34 498.66 174.64C499.154 175.914 499.83 177.019 500.688 177.955C501.572 178.865 502.612 179.58 503.808 180.1C505.03 180.62 506.356 180.88 507.786 180.88ZM525.724 184V156.934H528.298L539.764 175.771H538.009L549.475 156.934H552.049V184H548.383V163.369L549.241 163.603L540.193 178.462H537.619L528.571 163.603L529.39 163.369V184H525.724ZM569.984 184.39C568.06 184.39 566.266 184.039 564.602 183.337C562.938 182.609 561.482 181.608 560.234 180.334C558.986 179.034 558.011 177.539 557.309 175.849C556.633 174.159 556.295 172.352 556.295 170.428C556.295 168.478 556.633 166.671 557.309 165.007C558.011 163.317 558.973 161.835 560.195 160.561C561.443 159.287 562.886 158.299 564.524 157.597C566.188 156.895 567.982 156.544 569.906 156.544C571.83 156.544 573.611 156.895 575.249 157.597C576.913 158.299 578.369 159.287 579.617 160.561C580.865 161.835 581.84 163.317 582.542 165.007C583.244 166.697 583.595 168.517 583.595 170.467C583.595 172.391 583.244 174.198 582.542 175.888C581.84 177.578 580.865 179.06 579.617 180.334C578.395 181.608 576.952 182.609 575.288 183.337C573.65 184.039 571.882 184.39 569.984 184.39ZM569.906 180.88C571.856 180.88 573.559 180.438 575.015 179.554C576.497 178.644 577.667 177.409 578.525 175.849C579.383 174.263 579.812 172.456 579.812 170.428C579.812 168.92 579.565 167.542 579.071 166.294C578.577 165.02 577.888 163.915 577.004 162.979C576.12 162.043 575.08 161.328 573.884 160.834C572.688 160.314 571.362 160.054 569.906 160.054C567.982 160.054 566.279 160.496 564.797 161.38C563.341 162.264 562.184 163.486 561.326 165.046C560.494 166.606 560.078 168.4 560.078 170.428C560.078 171.936 560.312 173.34 560.78 174.64C561.274 175.914 561.95 177.019 562.808 177.955C563.692 178.865 564.732 179.58 565.928 180.1C567.15 180.62 568.476 180.88 569.906 180.88ZM567.605 154.165L566.006 152.566L571.076 146.287L573.845 149.056L567.605 154.165ZM595.174 184L584.332 156.934H588.31L597.241 179.827H595.798L604.807 156.934H608.746L597.826 184H595.174ZM612.391 184V156.934H616.057V184H612.391ZM614.887 184V180.646H630.409V184H614.887ZM614.887 171.754V168.556H629.122V171.754H614.887ZM614.887 160.288V156.934H630.214V160.288H614.887ZM634.615 184V156.934H638.281V184H634.615ZM637.111 184V180.646H651.619V184H637.111Z" fill="white"/>
<path d="M469.029 22.0679H357.944V0H469.029V22.0679ZM472.107 91.9495H355V71.1952L405.992 35.8603H451.229L400.504 69.2249H472.107V91.9495Z" fill="#FB3640"/>
<path d="M612.824 91.9495H577.759L550.054 56.8774H515.123V91.9495H487.954V34.8095H572.673C574.413 34.8095 576.019 34.1527 577.759 32.9705C579.365 31.7883 580.168 30.0806 580.168 27.8476C580.168 26.2713 579.766 25.0891 578.963 24.0382C578.16 23.1187 577.089 22.462 575.885 22.0679C574.547 21.5425 573.208 21.4111 571.736 21.4111H487.954V0H590.205C595.024 0 599.172 1.70763 602.518 4.99155C605.998 8.40681 607.738 12.4789 607.738 17.2077V40.1951C607.738 44.2671 606.935 47.4197 605.195 49.6527C603.455 51.8858 601.448 53.4621 599.172 54.2502C596.897 55.1697 594.221 55.6951 591.142 56.0892C588.064 56.4833 586.324 56.746 585.789 56.8774L612.824 91.9495Z" fill="#FB3640"/>
</svg>
