<svg width="220" height="192" viewBox="0 0 220 192" fill="none" xmlns="http://www.w3.org/2000/svg">
<path d="M201.716 96.085L205.213 98.1025V98.1035L203.963 100.269L205.712 101.278C206.288 101.611 206.808 102.013 207.265 102.47L209.032 100.702C210.273 101.943 211.166 103.491 211.62 105.186H211.621L209.206 105.832C209.373 106.457 209.462 107.109 209.462 107.773V109.792H211.962V113.83H209.462V117.868H211.962V121.905H209.462V125.943H211.962V129.981H209.462V134.019H211.962V138.057H209.462V142.095H211.962V146.132H209.462V150.17H211.962V154.208H209.462V156.227C209.462 156.891 209.373 157.543 209.206 158.168L211.62 158.813C211.166 160.509 210.273 162.056 209.032 163.297L207.265 161.53C206.865 161.93 206.416 162.288 205.925 162.594L205.712 162.722L203.963 163.731L205.213 165.896L201.716 167.914L200.467 165.75L196.97 167.769L198.22 169.934L194.722 171.952L193.473 169.788L189.976 171.807L191.226 173.972L187.729 175.99L186.479 173.825L182.982 175.845L184.231 178.009L180.735 180.028L179.485 177.863L175.989 179.882L177.239 182.047L173.741 184.065L172.492 181.901L168.995 183.92L170.245 186.085L166.748 188.104L165.498 185.938L163.75 186.948C163.174 187.281 162.566 187.53 161.941 187.697L162.588 190.112C160.893 190.566 159.106 190.566 157.411 190.112L158.059 187.697C157.434 187.53 156.826 187.281 156.25 186.948L154.502 185.938L153.252 188.104H153.251L149.754 186.085L151.005 183.92L147.508 181.901L146.258 184.065L142.76 182.047L144.011 179.882L140.515 177.863L139.264 180.028L135.768 178.009L137.018 175.845L133.521 173.825L132.27 175.99L128.773 173.972H128.774L130.024 171.807L126.527 169.788L125.277 171.952L121.779 169.934H121.78L123.03 167.769L119.533 165.75L118.283 167.914L114.786 165.896L116.037 163.731L114.288 162.722L114.075 162.594C113.584 162.288 113.135 161.93 112.735 161.53L110.967 163.297C109.726 162.056 108.833 160.508 108.379 158.813L110.794 158.168C110.648 157.622 110.562 157.054 110.543 156.476L110.538 156.227V154.208H108.038V150.17H110.538V146.132H108.038V142.095H110.538V138.057H108.038V134.019H110.538V129.981H108.038V125.943H110.538V121.905H108.038V117.868H110.538V113.83H108.038V109.792H110.538V107.773C110.538 107.109 110.627 106.457 110.794 105.832L108.379 105.186C108.833 103.491 109.726 101.943 110.967 100.702L112.735 102.47C113.135 102.07 113.584 101.712 114.075 101.406L114.288 101.278L116.037 100.269L114.787 98.1035L114.786 98.1025L118.283 96.085L119.533 98.25L123.03 96.2314L121.78 94.0664L121.779 94.0654L125.277 92.0469L126.527 94.2119L130.024 92.1934L128.774 90.0283L128.773 90.0273L132.27 88.0088L132.271 88.0098L133.521 90.1748L137.018 88.1553L135.768 85.9902L139.264 83.9707L139.265 83.9717L140.515 86.1367L144.011 84.1182L142.761 81.9531L142.76 81.9521L146.258 79.9336L147.508 82.0986L151.005 80.0801L149.755 77.915L149.754 77.9141L153.251 75.8955L153.252 75.8965L154.502 78.0615L156.25 77.0518C156.826 76.7193 157.434 76.4701 158.059 76.3027L157.412 73.8877L157.411 73.8867C159.106 73.4326 160.893 73.4328 162.588 73.8867V73.8877L161.941 76.3027C162.488 76.4491 163.022 76.658 163.532 76.9307L163.75 77.0518L165.498 78.0615L166.748 75.8965V75.8955L170.245 77.9141V77.915L168.995 80.0801L172.492 82.0986L173.741 79.9336L177.239 81.9521V81.9531L175.989 84.1182L179.485 86.1367L180.735 83.9717V83.9707L184.231 85.9902H184.232L182.982 88.1553L186.479 90.1748L187.729 88.0098V88.0088L191.226 90.0273V90.0283L189.976 92.1934L193.473 94.2119L194.722 92.0469L198.22 94.0654V94.0664L196.97 96.2314L200.467 98.25L201.716 96.085Z" fill="#2B87FF" fill-opacity="0.1" stroke="#C2CEFF" stroke-width="5" stroke-dasharray="4 4"/>
<path d="M27 2.88675C30.094 1.10042 33.906 1.10042 37 2.88675L54.7128 13.1132C57.8068 14.8996 59.7128 18.2008 59.7128 21.7735V42.2265C59.7128 45.7992 57.8068 49.1004 54.7128 50.8868L37 61.1132C33.906 62.8996 30.094 62.8996 27 61.1132L9.28719 50.8868C6.19318 49.1004 4.28719 45.7992 4.28719 42.2265V21.7735C4.28719 18.2008 6.19318 14.8996 9.28719 13.1132L27 2.88675Z" fill="#2B87FF" fill-opacity="0.09"/>
<path d="M56.7832 14.7021C58.0241 15.943 58.9168 17.4906 59.3711 19.1855H59.3721L56.957 19.832C57.1244 20.4566 57.2129 21.1085 57.2129 21.7734V23.4775H59.7129V26.8867H57.2129V30.2959H59.7129V33.7041H57.2129V37.1133H59.7129V40.5225H57.2129V42.2266C57.2129 42.8915 57.1244 43.5434 56.957 44.168L59.3711 44.8135C58.917 46.5086 58.024 48.0559 56.7832 49.2969L55.0166 47.5303C54.6165 47.9305 54.1675 48.2878 53.6758 48.5938L53.4629 48.7217L51.9863 49.5742L53.2354 51.7383L50.2842 53.4434L49.0342 51.2783L46.082 52.9824L47.332 55.1475L44.3789 56.8516L43.1299 54.6875L40.1777 56.3916L41.4277 58.5566L38.4756 60.2607L37.2256 58.0957L35.75 58.9482C35.1742 59.2807 34.566 59.5299 33.9414 59.6973L34.5879 62.1123C32.8929 62.5663 31.1061 62.5665 29.4111 62.1123L30.0586 59.6973C29.434 59.5299 28.8258 59.2807 28.25 58.9482L26.7744 58.0957L25.5244 60.2607H25.5234L22.5713 58.5566L23.8223 56.3916L20.8701 54.6875L19.6201 56.8516L16.667 55.1475H16.668L17.918 52.9824L14.9658 51.2783L13.7158 53.4434H13.7148L10.7637 51.7383L12.0137 49.5742L10.5371 48.7217L10.3242 48.5938C9.83251 48.2878 9.38353 47.9305 8.9834 47.5303L7.21582 49.2969C5.97518 48.0559 5.08199 46.5085 4.62793 44.8135L7.04297 44.168C6.89653 43.6216 6.81016 43.0542 6.79102 42.4756L6.78711 42.2266V40.5225H4.28711V37.1133H6.78711V33.7041H4.28711V30.2959H6.78711V26.8867H4.28711V23.4775H6.78711V21.7734C6.78712 21.1085 6.87558 20.4566 7.04297 19.832L4.62793 19.1855C5.08022 17.4978 5.96764 15.9559 7.2002 14.7178L7.21582 14.7021L8.9834 16.4697C9.38353 16.0695 9.83251 15.7122 10.3242 15.4062L10.5371 15.2783L12.0137 14.4258L10.7637 12.2607L13.7148 10.5557L13.7158 10.5566L14.9658 12.7217L17.918 11.0176L16.668 8.85254L16.667 8.85156L19.6201 7.14746L20.8701 9.3125L23.8223 7.6084L22.5723 5.44336L22.5713 5.44238L25.5234 3.73828L25.5244 3.73926L26.7744 5.9043L28.25 5.05176C28.8258 4.71933 29.434 4.47006 30.0586 4.30273L29.4121 1.8877L29.4111 1.88672C31.1059 1.43264 32.8931 1.4328 34.5879 1.88672V1.8877L33.9414 4.30273C34.4877 4.4491 35.0217 4.658 35.5322 4.93066L35.75 5.05176L37.2256 5.9043L38.4756 3.73926V3.73828L41.4277 5.44238V5.44336L40.1777 7.6084L43.1299 9.3125L44.3789 7.14746L47.332 8.85156V8.85254L46.082 11.0176L49.0342 12.7217L50.2842 10.5566V10.5557L53.2354 12.2607H53.2363L51.9863 14.4258L53.4629 15.2783C54.0387 15.6108 54.5594 16.0125 55.0166 16.4697L56.7832 14.7021Z" stroke="#C2CEFF" stroke-opacity="0.65" stroke-width="5" stroke-dasharray="4 4"/>
</svg>
