<svg width="210" height="363" viewBox="0 0 210 363" fill="none" xmlns="http://www.w3.org/2000/svg">
<path d="M45.705 351.727C45.705 357.363 39.9619 363 31.9208 363H0.905465C-7.13568 363 -12.8802 358.491 -12.8802 352.854V343.836C-12.8802 338.199 -7.13568 332.562 0.905465 332.562H31.9208C39.9619 332.562 45.705 337.072 45.705 342.708V351.727ZM170.917 128.516C165.174 54.1118 98.5479 0 18.1365 0C-62.275 0 -128.902 52.9844 -134.646 127.388C-154.174 140.916 -176 156.699 -176 193.901C-176 257.031 -115.118 272.814 -115.118 272.814C-111.672 273.941 -109.374 272.814 -109.374 268.304V254.777C-119.713 234.485 -125.455 211.938 -125.455 188.264C-125.455 166.845 -119.713 145.425 -109.374 127.388V119.497C-100.184 62.0032 -47.3414 22.5466 18.1365 22.5466C82.4656 22.5466 135.307 62.0031 145.646 118.37V127.388C150.241 136.407 154.836 146.553 157.133 157.826C164.026 184.882 162.877 214.193 152.538 240.121V244.63C151.389 244.63 150.241 244.63 150.241 244.63C147.944 250.267 145.645 254.777 142.199 259.286C139.902 266.05 136.455 273.941 131.86 280.705C113.48 310.016 90.5068 329.18 58.3422 333.69C53.7473 333.69 50.3 338.199 51.4487 341.581C51.4487 346.09 56.0445 349.472 59.4907 348.345C95.1015 342.708 123.82 320.162 144.497 287.469C147.944 281.832 151.389 275.068 153.686 269.432C168.62 261.54 209.975 246.885 209.975 192.773C209.975 138.662 188.149 139.789 168.62 126.261L170.917 128.516Z" fill="#2B87FF" fill-opacity="0.1"/>
</svg>
