<svg width="623" height="185" viewBox="0 0 623 185" fill="none" xmlns="http://www.w3.org/2000/svg">
<path d="M354.198 140V112.934H357.864V140H354.198ZM356.694 128.105V124.751H370.812V128.105H356.694ZM356.694 116.288V112.934H371.475V116.288H356.694ZM392.668 140.39C390.666 140.39 388.872 139.948 387.286 139.064C385.726 138.154 384.491 136.919 383.581 135.359C382.671 133.773 382.216 131.979 382.216 129.977V112.934H385.882V129.899C385.882 131.329 386.181 132.564 386.779 133.604C387.377 134.644 388.183 135.45 389.197 136.022C390.237 136.594 391.394 136.88 392.668 136.88C393.994 136.88 395.151 136.594 396.139 136.022C397.153 135.45 397.946 134.644 398.518 133.604C399.116 132.564 399.415 131.342 399.415 129.938V112.934H403.12V130.016C403.12 132.018 402.665 133.799 401.755 135.359C400.845 136.919 399.61 138.154 398.05 139.064C396.49 139.948 394.696 140.39 392.668 140.39ZM388.768 109.814C388.118 109.814 387.585 109.606 387.169 109.19C386.753 108.748 386.545 108.202 386.545 107.552C386.545 106.928 386.753 106.408 387.169 105.992C387.585 105.55 388.118 105.329 388.768 105.329C389.418 105.329 389.951 105.55 390.367 105.992C390.783 106.408 390.991 106.928 390.991 107.552C390.991 108.202 390.783 108.748 390.367 109.19C389.951 109.606 389.418 109.814 388.768 109.814ZM396.568 109.814C395.918 109.814 395.385 109.606 394.969 109.19C394.553 108.748 394.345 108.202 394.345 107.552C394.345 106.928 394.553 106.408 394.969 105.992C395.385 105.55 395.918 105.329 396.568 105.329C397.218 105.329 397.751 105.55 398.167 105.992C398.583 106.408 398.791 106.928 398.791 107.552C398.791 108.202 398.583 108.748 398.167 109.19C397.751 109.606 397.218 109.814 396.568 109.814ZM417.847 128.222V125.141H425.179C426.765 125.141 427.987 124.738 428.845 123.932C429.703 123.126 430.132 122.034 430.132 120.656C430.132 119.356 429.703 118.277 428.845 117.419C428.013 116.561 426.804 116.132 425.218 116.132H417.847V112.934H425.335C427.051 112.934 428.546 113.272 429.82 113.948C431.094 114.598 432.069 115.495 432.745 116.639C433.447 117.783 433.798 119.096 433.798 120.578C433.798 122.112 433.447 123.451 432.745 124.595C432.069 125.739 431.094 126.636 429.82 127.286C428.546 127.91 427.051 128.222 425.335 128.222H417.847ZM415.39 140V112.934H419.056V140H415.39ZM430.99 140L421.162 127.871L424.633 126.662L435.631 140H430.99ZM463.005 129.47V126.272H470.376C471.39 126.272 472.287 126.064 473.067 125.648C473.873 125.232 474.497 124.647 474.939 123.893C475.407 123.139 475.641 122.242 475.641 121.202C475.641 120.162 475.407 119.265 474.939 118.511C474.497 117.757 473.873 117.172 473.067 116.756C472.287 116.34 471.39 116.132 470.376 116.132H463.005V112.934H470.61C472.274 112.934 473.756 113.272 475.056 113.948C476.382 114.624 477.422 115.586 478.176 116.834C478.956 118.056 479.346 119.512 479.346 121.202C479.346 122.866 478.956 124.322 478.176 125.57C477.422 126.792 476.382 127.754 475.056 128.456C473.756 129.132 472.274 129.47 470.61 129.47H463.005ZM460.548 140V112.934H464.214V140H460.548ZM492.591 128.222V125.141H499.923C501.509 125.141 502.731 124.738 503.589 123.932C504.447 123.126 504.876 122.034 504.876 120.656C504.876 119.356 504.447 118.277 503.589 117.419C502.757 116.561 501.548 116.132 499.962 116.132H492.591V112.934H500.079C501.795 112.934 503.29 113.272 504.564 113.948C505.838 114.598 506.813 115.495 507.489 116.639C508.191 117.783 508.542 119.096 508.542 120.578C508.542 122.112 508.191 123.451 507.489 124.595C506.813 125.739 505.838 126.636 504.564 127.286C503.29 127.91 501.795 128.222 500.079 128.222H492.591ZM490.134 140V112.934H493.8V140H490.134ZM505.734 140L495.906 127.871L499.377 126.662L510.375 140H505.734ZM532.312 140.39C530.388 140.39 528.594 140.039 526.93 139.337C525.266 138.609 523.81 137.608 522.562 136.334C521.314 135.034 520.339 133.539 519.637 131.849C518.961 130.159 518.623 128.352 518.623 126.428C518.623 124.478 518.961 122.671 519.637 121.007C520.339 119.317 521.301 117.835 522.523 116.561C523.771 115.287 525.214 114.299 526.852 113.597C528.516 112.895 530.31 112.544 532.234 112.544C534.158 112.544 535.939 112.895 537.577 113.597C539.241 114.299 540.697 115.287 541.945 116.561C543.193 117.835 544.168 119.317 544.87 121.007C545.572 122.697 545.923 124.517 545.923 126.467C545.923 128.391 545.572 130.198 544.87 131.888C544.168 133.578 543.193 135.06 541.945 136.334C540.723 137.608 539.28 138.609 537.616 139.337C535.978 140.039 534.21 140.39 532.312 140.39ZM532.234 136.88C534.184 136.88 535.887 136.438 537.343 135.554C538.825 134.644 539.995 133.409 540.853 131.849C541.711 130.263 542.14 128.456 542.14 126.428C542.14 124.92 541.893 123.542 541.399 122.294C540.905 121.02 540.216 119.915 539.332 118.979C538.448 118.043 537.408 117.328 536.212 116.834C535.016 116.314 533.69 116.054 532.234 116.054C530.31 116.054 528.607 116.496 527.125 117.38C525.669 118.264 524.512 119.486 523.654 121.046C522.822 122.606 522.406 124.4 522.406 126.428C522.406 127.936 522.64 129.34 523.108 130.64C523.602 131.914 524.278 133.019 525.136 133.955C526.02 134.865 527.06 135.58 528.256 136.1C529.478 136.62 530.804 136.88 532.234 136.88ZM557.191 140V112.934H560.857V140H557.191ZM559.687 128.105V124.751H573.805V128.105H559.687ZM559.687 116.288V112.934H574.468V116.288H559.687ZM585.521 140V112.934H589.187V140H585.521ZM608.81 140.39C606.678 140.39 604.858 140 603.35 139.22C601.842 138.44 600.503 137.309 599.333 135.827L601.829 133.331C602.687 134.527 603.675 135.437 604.793 136.061C605.911 136.659 607.289 136.958 608.927 136.958C610.539 136.958 611.826 136.607 612.788 135.905C613.776 135.203 614.27 134.241 614.27 133.019C614.27 132.005 614.036 131.186 613.568 130.562C613.1 129.938 612.463 129.431 611.657 129.041C610.877 128.625 610.019 128.261 609.083 127.949C608.147 127.611 607.211 127.26 606.275 126.896C605.339 126.506 604.481 126.038 603.701 125.492C602.921 124.92 602.284 124.179 601.79 123.269C601.322 122.359 601.088 121.215 601.088 119.837C601.088 118.303 601.452 117.003 602.18 115.937C602.934 114.845 603.948 114.013 605.222 113.441C606.522 112.843 607.978 112.544 609.59 112.544C611.358 112.544 612.944 112.895 614.348 113.597C615.752 114.273 616.896 115.17 617.78 116.288L615.284 118.784C614.478 117.848 613.607 117.146 612.671 116.678C611.761 116.21 610.708 115.976 609.512 115.976C608.056 115.976 606.899 116.301 606.041 116.951C605.183 117.575 604.754 118.459 604.754 119.603C604.754 120.513 604.988 121.254 605.456 121.826C605.95 122.372 606.587 122.84 607.367 123.23C608.147 123.62 609.005 123.984 609.941 124.322C610.903 124.634 611.852 124.985 612.788 125.375C613.724 125.765 614.582 126.259 615.362 126.857C616.142 127.455 616.766 128.235 617.234 129.197C617.728 130.133 617.975 131.316 617.975 132.746C617.975 135.138 617.143 137.01 615.479 138.362C613.841 139.714 611.618 140.39 608.81 140.39ZM352.209 184L363.285 156.934H365.937L376.974 184H372.996L363.909 161.107H365.274L356.109 184H352.209ZM357.474 177.877V174.679H371.709V177.877H357.474ZM390.104 184.39C388.102 184.39 386.308 183.948 384.722 183.064C383.162 182.154 381.927 180.919 381.017 179.359C380.107 177.773 379.652 175.979 379.652 173.977V156.934H383.318V173.899C383.318 175.329 383.617 176.564 384.215 177.604C384.813 178.644 385.619 179.45 386.633 180.022C387.673 180.594 388.83 180.88 390.104 180.88C391.43 180.88 392.587 180.594 393.575 180.022C394.589 179.45 395.382 178.644 395.954 177.604C396.552 176.564 396.851 175.342 396.851 173.938V156.934H400.556V174.016C400.556 176.018 400.101 177.799 399.191 179.359C398.281 180.919 397.046 182.154 395.486 183.064C393.926 183.948 392.132 184.39 390.104 184.39ZM413.028 184.39C410.896 184.39 409.076 184 407.568 183.22C406.06 182.44 404.721 181.309 403.551 179.827L406.047 177.331C406.905 178.527 407.893 179.437 409.011 180.061C410.129 180.659 411.507 180.958 413.145 180.958C414.757 180.958 416.044 180.607 417.006 179.905C417.994 179.203 418.488 178.241 418.488 177.019C418.488 176.005 418.254 175.186 417.786 174.562C417.318 173.938 416.681 173.431 415.875 173.041C415.095 172.625 414.237 172.261 413.301 171.949C412.365 171.611 411.429 171.26 410.493 170.896C409.557 170.506 408.699 170.038 407.919 169.492C407.139 168.92 406.502 168.179 406.008 167.269C405.54 166.359 405.306 165.215 405.306 163.837C405.306 162.303 405.67 161.003 406.398 159.937C407.152 158.845 408.166 158.013 409.44 157.441C410.74 156.843 412.196 156.544 413.808 156.544C415.576 156.544 417.162 156.895 418.566 157.597C419.97 158.273 421.114 159.17 421.998 160.288L419.502 162.784C418.696 161.848 417.825 161.146 416.889 160.678C415.979 160.21 414.926 159.976 413.73 159.976C412.274 159.976 411.117 160.301 410.259 160.951C409.401 161.575 408.972 162.459 408.972 163.603C408.972 164.513 409.206 165.254 409.674 165.826C410.168 166.372 410.805 166.84 411.585 167.23C412.365 167.62 413.223 167.984 414.159 168.322C415.121 168.634 416.07 168.985 417.006 169.375C417.942 169.765 418.8 170.259 419.58 170.857C420.36 171.455 420.984 172.235 421.452 173.197C421.946 174.133 422.193 175.316 422.193 176.746C422.193 179.138 421.361 181.01 419.697 182.362C418.059 183.714 415.836 184.39 413.028 184.39ZM436.104 184V180.646H443.631C445.633 180.646 447.388 180.217 448.896 179.359C450.404 178.475 451.574 177.266 452.406 175.732C453.264 174.198 453.693 172.43 453.693 170.428C453.693 168.452 453.264 166.697 452.406 165.163C451.548 163.629 450.365 162.433 448.857 161.575C447.349 160.717 445.607 160.288 443.631 160.288H436.143V156.934H443.709C445.685 156.934 447.505 157.272 449.169 157.948C450.859 158.624 452.315 159.573 453.537 160.795C454.785 162.017 455.747 163.447 456.423 165.085C457.125 166.723 457.476 168.517 457.476 170.467C457.476 172.391 457.125 174.185 456.423 175.849C455.747 177.487 454.798 178.917 453.576 180.139C452.354 181.361 450.898 182.31 449.208 182.986C447.544 183.662 445.737 184 443.787 184H436.104ZM433.686 184V156.934H437.352V184H433.686ZM461.776 184V156.934H465.442V184H461.776ZM464.272 184V180.646H479.794V184H464.272ZM464.272 171.754V168.556H478.507V171.754H464.272ZM464.272 160.288V156.934H479.599V160.288H464.272ZM483.999 184V156.934H486.573L498.039 175.771H496.284L507.75 156.934H510.324V184H506.658V163.369L507.516 163.603L498.468 178.462H495.894L486.846 163.603L487.665 163.369V184H483.999ZM520.174 184L531.25 156.934H533.902L544.939 184H540.961L531.874 161.107H533.239L524.074 184H520.174ZM525.439 177.877V174.679H539.674V177.877H525.439ZM558.069 184.39C556.067 184.39 554.273 183.948 552.687 183.064C551.127 182.154 549.892 180.919 548.982 179.359C548.072 177.773 547.617 175.979 547.617 173.977V156.934H551.283V173.899C551.283 175.329 551.582 176.564 552.18 177.604C552.778 178.644 553.584 179.45 554.598 180.022C555.638 180.594 556.795 180.88 558.069 180.88C559.395 180.88 560.552 180.594 561.54 180.022C562.554 179.45 563.347 178.644 563.919 177.604C564.517 176.564 564.816 175.342 564.816 173.938V156.934H568.521V174.016C568.521 176.018 568.066 177.799 567.156 179.359C566.246 180.919 565.011 182.154 563.451 183.064C561.891 183.948 560.097 184.39 558.069 184.39ZM580.566 184V157.714H584.232V184H580.566ZM571.362 160.288V156.934H593.397V160.288H571.362ZM607.329 184.39C605.405 184.39 603.611 184.039 601.947 183.337C600.283 182.609 598.827 181.608 597.579 180.334C596.331 179.034 595.356 177.539 594.654 175.849C593.978 174.159 593.64 172.352 593.64 170.428C593.64 168.478 593.978 166.671 594.654 165.007C595.356 163.317 596.318 161.835 597.54 160.561C598.788 159.287 600.231 158.299 601.869 157.597C603.533 156.895 605.327 156.544 607.251 156.544C609.175 156.544 610.956 156.895 612.594 157.597C614.258 158.299 615.714 159.287 616.962 160.561C618.21 161.835 619.185 163.317 619.887 165.007C620.589 166.697 620.94 168.517 620.94 170.467C620.94 172.391 620.589 174.198 619.887 175.888C619.185 177.578 618.21 179.06 616.962 180.334C615.74 181.608 614.297 182.609 612.633 183.337C610.995 184.039 609.227 184.39 607.329 184.39ZM607.251 180.88C609.201 180.88 610.904 180.438 612.36 179.554C613.842 178.644 615.012 177.409 615.87 175.849C616.728 174.263 617.157 172.456 617.157 170.428C617.157 168.92 616.91 167.542 616.416 166.294C615.922 165.02 615.233 163.915 614.349 162.979C613.465 162.043 612.425 161.328 611.229 160.834C610.033 160.314 608.707 160.054 607.251 160.054C605.327 160.054 603.624 160.496 602.142 161.38C600.686 162.264 599.529 163.486 598.671 165.046C597.839 166.606 597.423 168.4 597.423 170.428C597.423 171.936 597.657 173.34 598.125 174.64C598.619 175.914 599.295 177.019 600.153 177.955C601.037 178.865 602.077 179.58 603.273 180.1C604.495 180.62 605.821 180.88 607.251 180.88Z" fill="white"/>
<path d="M164.998 141.667C164.998 146.435 163.403 151.997 160.016 158.155C156.827 164.512 152.443 169.875 146.665 174.246C141.085 178.815 134.708 181 127.734 181H40.0538C34.6734 181 28.8945 179.212 22.7171 175.835C16.3403 172.259 10.96 168.088 6.57599 162.923C2.192 157.758 0 152.792 0 148.421V32.6975C0 29.7178 1.19563 26.1421 3.78618 22.3678C6.17745 18.5934 9.56508 15.0177 13.5505 11.6407C17.536 8.26364 22.1192 5.48255 26.9018 3.29742C31.6843 1.11228 36.2676 0.119019 40.6516 0.119019H117.372C126.14 0.119019 134.31 2.10552 141.483 5.87986C148.857 9.85284 154.635 14.8191 158.82 20.7786C163.005 26.9367 164.998 32.6975 164.998 38.657V141.667ZM124.745 127.762V51.9665C124.745 45.4111 122.353 40.8422 117.571 38.2597C112.788 35.6773 107.408 34.2867 101.629 34.2867H61.1767C54.6007 34.2867 49.2203 36.6705 44.8363 40.8422C40.253 44.8151 37.8618 49.3841 37.8618 54.549V124.981C37.8618 139.085 44.0392 146.038 55.597 146.038H106.212C110.397 146.038 113.785 145.044 116.574 143.058C119.364 141.071 121.357 138.489 122.752 135.708C124.147 132.927 124.745 130.344 124.745 127.762Z" fill="white"/>
<path d="M346.946 33.0136H179.158V0.236445H346.946V33.0136ZM336.545 54.2691L232.351 181H181.536L288.122 54.2691H336.545Z" fill="white"/>
<path d="M469.029 22.0679H357.944V0H469.029V22.0679ZM472.107 91.9495H355V71.1952L405.992 35.8603H451.229L400.504 69.2249H472.107V91.9495Z" fill="#FB3640"/>
<path d="M612.824 91.9495H577.759L550.054 56.8774H515.123V91.9495H487.954V34.8095H572.673C574.413 34.8095 576.019 34.1527 577.759 32.9705C579.365 31.7883 580.168 30.0806 580.168 27.8476C580.168 26.2713 579.766 25.0891 578.963 24.0382C578.16 23.1187 577.089 22.462 575.885 22.0679C574.547 21.5425 573.208 21.4111 571.736 21.4111H487.954V0H590.205C595.024 0 599.172 1.70763 602.518 4.99155C605.998 8.40681 607.738 12.4789 607.738 17.2077V40.1951C607.738 44.2671 606.935 47.4197 605.195 49.6527C603.455 51.8858 601.448 53.4621 599.172 54.2502C596.897 55.1697 594.221 55.6951 591.142 56.0892C588.064 56.4833 586.324 56.746 585.789 56.8774L612.824 91.9495Z" fill="#FB3640"/>
</svg>
