<svg width="1440" height="265" viewBox="0 0 1440 265" fill="none" xmlns="http://www.w3.org/2000/svg">
<rect width="1440" height="265" fill="#0A2463"/>
<mask id="mask0_1890_16277" style="mask-type:alpha" maskUnits="userSpaceOnUse" x="0" y="0" width="1440" height="265">
<rect width="1440" height="265" fill="#0A2463"/>
</mask>
<g mask="url(#mask0_1890_16277)">
<rect x="-13.2178" y="-57" width="47.7839" height="126.771" transform="rotate(45 -13.2178 -57)" fill="#164FDA"/>
<rect x="109.069" y="-57" width="47.7839" height="126.771" transform="rotate(45 109.069 -57)" fill="#164FDA"/>
<rect x="231.356" y="-57" width="47.7839" height="126.771" transform="rotate(45 231.356 -57)" fill="#164FDA"/>
<rect x="353.64" y="-57" width="47.7839" height="126.771" transform="rotate(45 353.64 -57)" fill="#164FDA"/>
<rect x="475.927" y="-57" width="47.7839" height="126.771" transform="rotate(45 475.927 -57)" fill="#164FDA"/>
<rect x="598.211" y="-57" width="47.7839" height="126.771" transform="rotate(45 598.211 -57)" fill="#164FDA"/>
<rect x="-13.2178" y="56.3401" width="47.7839" height="126.771" transform="rotate(45 -13.2178 56.3401)" fill="#164FDA"/>
<rect x="109.069" y="56.3401" width="47.7839" height="126.771" transform="rotate(45 109.069 56.3401)" fill="#164FDA"/>
<rect x="231.356" y="56.3401" width="47.7839" height="126.771" transform="rotate(45 231.356 56.3401)" fill="#FB3640"/>
<rect x="353.64" y="56.3401" width="47.7839" height="126.771" transform="rotate(45 353.64 56.3401)" fill="#FB3640"/>
<rect x="475.927" y="56.3401" width="47.7839" height="126.771" transform="rotate(45 475.927 56.3401)" fill="#164FDA"/>
<rect x="-13.2178" y="179.863" width="47.7839" height="126.771" transform="rotate(45 -13.2178 179.863)" fill="#164FDA"/>
<rect x="109.069" y="179.863" width="47.7839" height="126.771" transform="rotate(45 109.069 179.863)" fill="#164FDA"/>
<rect x="231.356" y="179.863" width="47.7839" height="126.771" transform="rotate(45 231.356 179.863)" fill="#164FDA"/>
<rect x="353.64" y="179.863" width="47.7839" height="126.771" transform="rotate(45 353.64 179.863)" fill="#164FDA"/>
<rect x="475.927" y="179.863" width="47.7839" height="126.771" transform="rotate(45 475.927 179.863)" fill="#164FDA"/>
</g>
</svg>
