<?xml version="1.0" standalone="no"?>
<!DOCTYPE svg PUBLIC "-//W3C//DTD SVG 20010904//EN"
 "http://www.w3.org/TR/2001/REC-SVG-20010904/DTD/svg10.dtd">
<svg version="1.0" xmlns="http://www.w3.org/2000/svg"
 width="128.000000pt" height="80.000000pt" viewBox="0 0 128.000000 80.000000"
 preserveAspectRatio="xMidYMid meet">

<g transform="translate(0.000000,80.000000) scale(0.100000,-0.100000)"
fill="#000000" stroke="none">
<path d="M440 600 c-17 -17 -20 -33 -20 -113 0 -89 1 -94 24 -107 36 -19 56
-7 56 35 0 31 3 35 25 35 25 0 25 1 25 85 l0 85 -45 0 c-32 0 -51 -6 -65 -20z"/>
<path d="M591 601 c-18 -18 -21 -34 -21 -106 l0 -85 21 21 c17 17 31 20 70 17
l50 -3 -3 85 -3 85 -47 3 c-37 2 -51 -1 -67 -17z"/>
<path d="M753 605 c-20 -14 -23 -25 -23 -85 l0 -68 65 -4 66 -3 -3 85 -3 85
-40 3 c-25 2 -49 -3 -62 -13z"/>
<path d="M627 423 c-13 -12 -7 -42 11 -52 9 -5 30 -7 45 -4 22 4 27 11 27 34
0 27 -3 29 -38 29 -21 0 -42 -3 -45 -7z"/>
<path d="M770 420 c0 -5 9 -10 20 -10 11 0 20 5 20 10 0 6 -9 10 -20 10 -11 0
-20 -4 -20 -10z"/>
<path d="M770 380 c0 -5 9 -10 20 -10 11 0 20 5 20 10 0 6 -9 10 -20 10 -11 0
-20 -4 -20 -10z"/>
<path d="M570 280 l0 -100 50 0 c71 0 90 23 90 109 l0 66 -45 -3 c-30 -3 -54
1 -70 12 l-25 16 0 -100z"/>
<path d="M420 277 l0 -97 43 0 c23 0 53 7 65 16 20 13 22 24 22 97 0 63 -3 78
-12 69 -7 -7 -30 -12 -53 -12 -23 0 -46 5 -53 12 -9 9 -12 -10 -12 -85z"/>
<path d="M793 353 l-63 -4 0 -84 0 -85 40 0 c65 0 90 32 90 115 0 36 -1 64 -2
63 -2 -1 -31 -3 -65 -5z"/>
</g>
</svg>
