<?xml version="1.0" standalone="no"?>
<!DOCTYPE svg PUBLIC "-//W3C//DTD SVG 20010904//EN"
 "http://www.w3.org/TR/2001/REC-SVG-20010904/DTD/svg10.dtd">
<svg version="1.0" xmlns="http://www.w3.org/2000/svg"
 width="128.000000pt" height="80.000000pt" viewBox="0 0 128.000000 80.000000"
 preserveAspectRatio="xMidYMid meet">

<g transform="translate(0.000000,80.000000) scale(0.100000,-0.100000)"
fill="#000000" stroke="none">
<path d="M412 607 c-88 -33 -142 -114 -142 -210 0 -69 15 -75 24 -9 11 76 15
82 47 82 26 0 29 -3 29 -32 l1 -33 14 33 c11 26 20 32 45 32 18 0 30 -5 30
-13 0 -9 11 -12 35 -9 19 2 41 -1 48 -7 10 -8 22 -7 45 1 26 10 37 10 53 -1
15 -9 24 -10 32 -2 15 15 74 14 80 -1 3 -7 6 -3 6 10 1 15 7 22 20 22 22 0 39
-39 23 -49 -6 -3 -14 -19 -17 -34 -6 -21 -4 -27 9 -27 10 0 16 9 16 23 1 60 6
64 86 63 84 -1 96 -9 92 -66 -2 -27 -9 -38 -32 -49 -42 -20 -79 1 -87 49 l-6
35 -11 -28 c-7 -16 -12 -35 -12 -43 0 -11 -14 -15 -62 -14 -35 0 -90 -1 -122
-3 -33 -1 -70 3 -83 10 -19 10 -25 10 -29 -1 -6 -16 -72 -18 -91 -4 -7 5 -14
5 -18 -2 -11 -18 -35 -11 -36 13 l0 22 -11 -22 c-6 -13 -19 -23 -30 -23 -14 0
-18 8 -19 38 -1 38 -3 37 -14 -12 -4 -22 -10 -27 -25 -23 -27 7 -25 -3 11 -52
37 -52 114 -91 179 -91 27 0 66 10 97 24 l51 24 48 -24 c84 -42 192 -28 257
34 34 31 62 82 47 82 -5 0 -10 5 -10 10 0 6 7 10 15 10 26 0 23 106 -5 160
-57 110 -193 152 -304 96 l-48 -24 -41 21 c-48 25 -138 32 -185 14z"/>
<path d="M450 412 c0 -15 4 -20 16 -15 9 3 12 9 7 12 -4 3 -11 10 -15 15 -5 5
-8 0 -8 -12z"/>
<path d="M595 410 c-3 -5 1 -10 10 -10 9 0 13 5 10 10 -3 6 -8 10 -10 10 -2 0
-7 -4 -10 -10z"/>
<path d="M710 412 c0 -4 9 -13 20 -20 18 -11 20 -10 20 8 0 13 -7 20 -20 20
-11 0 -20 -3 -20 -8z"/>
<path d="M920 405 c-14 -17 -5 -48 13 -43 14 5 23 58 9 58 -5 0 -15 -7 -22
-15z"/>
<path d="M660 382 c0 -6 -17 -13 -37 -15 -27 -3 -21 -4 21 -5 33 -1 57 -1 55
1 -2 1 -12 9 -21 16 -11 8 -18 9 -18 3z"/>
<path d="M485 370 c-3 -5 1 -10 9 -10 9 0 16 5 16 10 0 6 -4 10 -9 10 -6 0
-13 -4 -16 -10z"/>
</g>
</svg>
