<svg width="34" height="12" viewBox="0 0 34 12" fill="none" xmlns="http://www.w3.org/2000/svg">
<g id="Mode_Isolation" clip-path="url(#clip0_3208_5114)">
<path id="Vector" d="M17.5842 4.1123C17.5662 5.63946 18.9461 6.49287 19.989 7.00042C21.0588 7.52145 21.4184 7.85383 21.4139 8.32096C21.4004 9.63252 18.9731 9.63252 16.9504 8.68927L16.4514 11.0159C19.081 12.2242 24.2727 11.7121 24.2907 7.94816C24.2996 5.14987 20.416 4.99266 20.443 3.7395C20.4744 2.43244 23.0995 2.76482 24.3176 3.32627L24.7986 1.07596C21.0902 -0.276017 17.6066 1.36343 17.5886 4.1123" fill="#1A1E71"/>
<path id="Vector_2" d="M31.7793 0.797363H29.4329C28.907 0.797363 28.462 1.10279 28.2642 1.57442L24.1423 11.4066H27.0236L27.599 9.82105H31.123L31.4557 11.4066H33.9953L31.7793 0.797363ZM28.3901 7.65159L29.8375 3.66751L30.669 7.65159H28.3901Z" fill="#1A1E71"/>
<path id="Vector_3" d="M14.0871 0.797363L11.8171 11.4111H14.5636L16.8335 0.797363H14.0871Z" fill="#1A1E71"/>
<path id="Vector_4" d="M10.0236 0.797363L7.16475 8.0199L6.00954 1.87985C5.87469 1.19263 5.33979 0.797363 4.74196 0.797363H0.0671805L-0.000244141 1.10729C2.0225 1.54747 3.0923 1.88434 3.362 2.94436L5.55105 11.4111H8.45481L12.9093 0.797363H10.0236Z" fill="#1A1E71"/>
</g>
<defs>
<clipPath id="clip0_3208_5114">
<rect width="34" height="11" fill="white" transform="translate(0 0.595215)"/>
</clipPath>
</defs>
</svg>
