<svg width="24" height="24" viewBox="0 0 24 24" fill="none" xmlns="http://www.w3.org/2000/svg">
<g id="Icon" clip-path="url(#clip0_5398_13116)">
<path id="Primary" d="M16.9451 0.0565207C17.1795 0.154958 17.3482 0.365896 17.3951 0.614333L18.3279 5.67215L23.3857 6.60027C23.6342 6.64715 23.8451 6.8159 23.9435 7.05027C24.042 7.28465 24.0138 7.55183 23.8685 7.76277L20.9482 12.0003L23.8685 16.2331C24.0138 16.444 24.042 16.7112 23.9435 16.9456C23.8451 17.18 23.6342 17.3487 23.3857 17.3956L18.3279 18.3284L17.3951 23.3862C17.3482 23.6346 17.1795 23.8456 16.9451 23.944C16.7107 24.0425 16.4435 24.0143 16.2326 23.869L11.9998 20.9487L7.76697 23.869C7.55603 24.0143 7.28884 24.0425 7.05447 23.944C6.82009 23.8456 6.65134 23.6346 6.60447 23.3862L5.67166 18.3284L0.613845 17.3956C0.365407 17.3487 0.15447 17.18 0.0560324 16.9456C-0.0424051 16.7112 -0.0142801 16.444 0.131032 16.2331L3.05134 12.0003L0.131032 7.76746C-0.0142801 7.55652 -0.0424051 7.28933 0.0560324 7.05496C0.15447 6.82058 0.365407 6.65183 0.613845 6.60496L5.67166 5.67215L6.60447 0.614333C6.65134 0.365896 6.82009 0.154958 7.05447 0.0565207C7.28884 -0.0419168 7.55603 -0.0137918 7.76697 0.131521L11.9998 3.05183L16.2326 0.131521C16.4435 -0.0137918 16.7107 -0.0419168 16.9451 0.0565207ZM7.49978 12.0003C7.49978 10.8068 7.97389 9.6622 8.8178 8.81829C9.66172 7.97438 10.8063 7.50027 11.9998 7.50027C13.1933 7.50027 14.3378 7.97438 15.1818 8.81829C16.0257 9.6622 16.4998 10.8068 16.4998 12.0003C16.4998 13.1937 16.0257 14.3383 15.1818 15.1823C14.3378 16.0262 13.1933 16.5003 11.9998 16.5003C10.8063 16.5003 9.66172 16.0262 8.8178 15.1823C7.97389 14.3383 7.49978 13.1937 7.49978 12.0003ZM17.9998 12.0003C17.9998 10.409 17.3676 8.88285 16.2424 7.75763C15.1172 6.63241 13.5911 6.00027 11.9998 6.00027C10.4085 6.00027 8.88236 6.63241 7.75714 7.75763C6.63192 8.88285 5.99978 10.409 5.99978 12.0003C5.99978 13.5916 6.63192 15.1177 7.75714 16.2429C8.88236 17.3681 10.4085 18.0003 11.9998 18.0003C13.5911 18.0003 15.1172 17.3681 16.2424 16.2429C17.3676 15.1177 17.9998 13.5916 17.9998 12.0003Z" fill="#FF9813"/>
</g>
<defs>
<clipPath id="clip0_5398_13116">
<rect width="24" height="24" fill="white"/>
</clipPath>
</defs>
</svg>
