<svg width="24" height="24" viewBox="0 0 24 24" fill="none" xmlns="http://www.w3.org/2000/svg">
<g id="Group 1216402443">
<g id="Mask group">
<mask id="mask0_5398_13121" style="mask-type:alpha" maskUnits="userSpaceOnUse" x="3" y="0" width="21" height="24">
<path id="Primary" d="M13.5009 0C14.3305 0 15.0007 0.670215 15.0007 1.49978V2.91052L15.7037 2.20749C16.1443 1.76693 16.8567 1.76693 17.2926 2.20749C17.7284 2.64805 17.7331 3.36045 17.2926 3.79633L14.996 6.09287V9.3877L17.8737 7.70982L18.7033 4.61183C18.8626 4.01192 19.4813 3.65572 20.0812 3.81507C20.6811 3.97443 21.0373 4.59309 20.878 5.193L20.6343 6.09756L21.7403 5.45077C22.4574 5.03365 23.3761 5.27736 23.7932 5.98976C24.2103 6.70216 23.9713 7.62546 23.2542 8.04259L22.0684 8.73624L23.0855 9.00807C23.6854 9.16742 24.0416 9.78608 23.8822 10.386C23.7229 10.9859 23.1042 11.3421 22.5043 11.1828L19.3313 10.3344L16.477 11.9983L19.3313 13.6621L22.5043 12.8138C23.1042 12.6544 23.7229 13.0106 23.8822 13.6105C24.0416 14.2104 23.6854 14.8291 23.0855 14.9885L22.0684 15.2603L23.2542 15.9539C23.9713 16.3711 24.2103 17.2897 23.7932 18.0068C23.3761 18.7239 22.4574 18.9629 21.7403 18.5458L20.6343 17.899L20.878 18.8035C21.0373 19.4034 20.6811 20.0221 20.0812 20.1815C19.4813 20.3408 18.8626 19.9846 18.7033 19.3847L17.8737 16.2867L15.0007 14.6088V17.9037L17.2972 20.2002C17.7378 20.6408 17.7378 21.3532 17.2972 21.789C16.8567 22.2249 16.1443 22.2296 15.7084 21.789L15.0054 21.086V22.4967C15.0054 23.3263 14.3352 23.9965 13.5056 23.9965C12.676 23.9965 12.0058 23.3263 12.0058 22.4967V21.086L11.3028 21.789C10.8622 22.2296 10.1498 22.2296 9.71396 21.789C9.27809 21.3485 9.2734 20.6361 9.71396 20.2002L12.0105 17.9037V14.6088L9.1328 16.2867L8.30323 19.3847C8.14388 19.9846 7.52522 20.3408 6.92531 20.1815C6.32539 20.0221 5.96919 19.4034 6.12855 18.8035L6.37226 17.899L5.2568 18.5411C4.53971 18.9582 3.6211 18.7145 3.20397 18.0021C2.78684 17.2897 3.03056 16.3664 3.74295 15.9493L4.92872 15.2556L3.91168 14.9838C3.31177 14.8244 2.95557 14.2058 3.11492 13.6058C3.27427 13.0059 3.89293 12.6497 4.49284 12.8091L7.66582 13.6574L10.5248 11.9983L7.67051 10.3344L4.49753 11.1828C3.89762 11.3421 3.27896 10.9859 3.11961 10.386C2.96025 9.78608 3.31645 9.16742 3.91637 9.00807L4.93341 8.73624L3.74764 8.04259C3.03056 7.62546 2.79153 6.70684 3.20866 5.99445C3.62578 5.28205 4.5444 5.03833 5.26148 5.45546L6.36757 6.10224L6.12386 5.19769C5.96451 4.59777 6.32071 3.97911 6.92062 3.81976C7.52053 3.66041 8.13919 4.01661 8.29854 4.61652L9.12811 7.71451L12.0011 9.3877V6.08818L9.70459 3.79633C9.26403 3.35576 9.26403 2.64337 9.70459 2.20749C10.1452 1.77162 10.8575 1.76693 11.2934 2.20749L11.9964 2.91052V1.49978C11.9964 0.670215 12.6667 0 13.4962 0H13.5009Z" fill="#24AEF7"/>
</mask>
<g mask="url(#mask0_5398_13121)">
<rect id="Rectangle 700" x="12.999" width="10.9984" height="23.9965" fill="#24AEF7"/>
</g>
</g>
<g id="Mask group_2">
<mask id="mask1_5398_13121" style="mask-type:alpha" maskUnits="userSpaceOnUse" x="0" y="0" width="24" height="24">
<path id="Primary_2" d="M16.9446 0.0579771C17.1789 0.1564 17.3477 0.367307 17.3945 0.615709L18.3272 5.67279L23.3843 6.60078C23.6327 6.64765 23.8436 6.81637 23.942 7.05072C24.0404 7.28506 24.0123 7.55221 23.867 7.76311L20.9471 12L23.867 16.2322C24.0123 16.4431 24.0404 16.7103 23.942 16.9446C23.8436 17.1789 23.6327 17.3477 23.3843 17.3945L18.3272 18.3272L17.3945 23.3843C17.3477 23.6327 17.1789 23.8436 16.9446 23.942C16.7103 24.0404 16.4431 24.0123 16.2322 23.867L12 20.9471L7.7678 23.867C7.55689 24.0123 7.28974 24.0404 7.0554 23.942C6.82106 23.8436 6.65234 23.6327 6.60547 23.3843L5.67279 18.3272L0.615709 17.3945C0.367307 17.3477 0.1564 17.1789 0.0579771 16.9446C-0.0404461 16.7103 -0.0123252 16.4431 0.132966 16.2322L3.05286 12L0.132966 7.7678C-0.0123252 7.55689 -0.0404461 7.28974 0.0579771 7.0554C0.1564 6.82106 0.367307 6.65234 0.615709 6.60547L5.67279 5.67279L6.60547 0.615709C6.65234 0.367307 6.82106 0.1564 7.0554 0.0579771C7.28974 -0.0404461 7.55689 -0.0123252 7.7678 0.132966L12 3.05286L16.2322 0.132966C16.4431 -0.0123252 16.7103 -0.0404461 16.9446 0.0579771ZM7.50065 12C7.50065 10.8067 7.97469 9.66227 8.81848 8.81848C9.66227 7.97469 10.8067 7.50065 12 7.50065C13.1933 7.50065 14.3377 7.97469 15.1815 8.81848C16.0253 9.66227 16.4993 10.8067 16.4993 12C16.4993 13.1933 16.0253 14.3377 15.1815 15.1815C14.3377 16.0253 13.1933 16.4993 12 16.4993C10.8067 16.4993 9.66227 16.0253 8.81848 15.1815C7.97469 14.3377 7.50065 13.1933 7.50065 12ZM17.9991 12C17.9991 10.4089 17.3671 8.88303 16.242 7.75797C15.117 6.63292 13.5911 6.00087 12 6.00087C10.4089 6.00087 8.88303 6.63292 7.75797 7.75797C6.63292 8.88303 6.00087 10.4089 6.00087 12C6.00087 13.5911 6.63292 15.117 7.75797 16.242C8.88303 17.3671 10.4089 17.9991 12 17.9991C13.5911 17.9991 15.117 17.3671 16.242 16.242C17.3671 15.117 17.9991 13.5911 17.9991 12Z" fill="#FF9813"/>
</mask>
<g mask="url(#mask1_5398_13121)">
<rect id="Rectangle 701" width="11.9983" height="23.9965" fill="#FF9813"/>
</g>
</g>
</g>
</svg>
