<svg width="13" height="13" viewBox="0 0 13 13" fill="none" xmlns="http://www.w3.org/2000/svg">
<g id="entypo:price-tag">
<path id="Vector" d="M12.1323 0.743368C12.0975 0.656675 12.0306 0.58674 11.9456 0.548111C11.8605 0.509482 11.7638 0.505134 11.6757 0.535972C11.5875 0.566809 11.5146 0.630457 11.4721 0.713676C11.4297 0.796894 11.4209 0.893275 11.4477 0.982768C12.0051 2.58477 10.8987 3.78117 10.0551 4.42197L9.71434 3.93357C9.59974 3.76977 9.34354 3.63357 9.14434 3.63117L7.23154 3.63957C6.99787 3.64663 6.77046 3.7167 6.57334 3.84237L0.93694 7.79457C0.805837 7.88683 0.716632 8.02727 0.688856 8.18516C0.661079 8.34305 0.696996 8.50551 0.78874 8.63697L3.35014 12.3018C3.54214 12.5748 3.84874 12.5418 4.12234 12.351L9.75874 8.39817C9.92074 8.28357 10.1079 8.03637 10.1739 7.84737L10.7727 5.96037C10.8387 5.77197 10.7985 5.48457 10.6839 5.32077L10.4763 5.02317C11.6091 4.15497 12.7851 2.62077 12.1323 0.743368ZM9.50974 6.35817C9.4059 6.43085 9.28876 6.48236 9.16501 6.50976C9.04126 6.53716 8.91332 6.5399 8.78851 6.51784C8.6637 6.49577 8.54446 6.44933 8.4376 6.38117C8.33074 6.313 8.23836 6.22445 8.16574 6.12057C8.0187 5.91036 7.96107 5.6504 8.0055 5.39775C8.04993 5.14509 8.1928 4.92039 8.40274 4.77297C8.56732 4.65766 8.76382 4.59665 8.96477 4.59848C9.16572 4.60031 9.36108 4.66488 9.52354 4.78317C9.36034 4.88157 9.24814 4.93917 9.22714 4.94817C9.15276 4.98363 9.09264 5.04331 9.05661 5.11741C9.02059 5.19152 9.01081 5.27566 9.02887 5.35606C9.04693 5.43645 9.09176 5.50833 9.15601 5.55991C9.22027 5.61149 9.30014 5.63972 9.38254 5.63997C9.43414 5.63997 9.48694 5.62797 9.53674 5.60457C9.65314 5.54937 9.77794 5.48397 9.90814 5.40657C9.93809 5.58661 9.91658 5.77144 9.8461 5.93979C9.77562 6.10815 9.65902 6.25317 9.50974 6.35817Z" fill="#E13039"/>
</g>
</svg>
